<?xml version="1.0" standalone="no"?><!DOCTYPE svg PUBLIC "-//W3C//DTD SVG 1.1//EN" "http://www.w3.org/Graphics/SVG/1.1/DTD/svg11.dtd" ><svg xmlns="http://www.w3.org/2000/svg"><metadata></metadata><defs><font id="Founder:FZLanTingHeiS-R-GB	Regular" horiz-adv-x="270"><font-face font-family="FZLanTingHeiS-R-GB" font-weight="400" font-stretch="normal" units-per-em="256" panose-1="2 0 0 0 0 0 0 0 0 0" ascent="229" descent="-67" x-height="0" bbox="0 -67 265 216" underline-thickness="12" underline-position="-55" unicode-range="U+0000-ff1b" /><missing-glyph horiz-adv-x="256"  /><glyph glyph-name="" unicode=" ê" d="" /><glyph glyph-name="" unicode="%" d="M58 196 q44 -2 46 -54 q-1 -51 -47 -53 q-43 2 -45 53 q2 52 46 54 ZM29 142 q1 -36 29 -38 q28 1 29 39 q-1 37 -29 38 q-29 0 -29 -39 ZM195 88 q43 -2 45 -54 q-1 -50 -47 -51 q-43 3 -45 51 q2 52 47 54 ZM165 34 q1 -34 29 -36 q29 1 29 37 q-1 37 -28 38 q-30 0 -30 -39 ZM173 196 l20 0 l-114 -214 l-20 0 l114 214 Z" /><glyph glyph-name="" unicode="&amp;" d="M204 2 l-16 -14 q-20 15 -36 30 q-29 -31 -76 -31 q-61 2 -64 53 q1 41 50 61 q-25 27 -24 47 q4 44 51 47 q47 -3 51 -44 q1 -40 -47 -55 q31 -28 56 -50 q12 21 14 51 l20 -5 q-4 -33 -19 -58 q22 -19 40 -32 ZM34 42 q2 -38 45 -40 q34 0 59 28 q-38 35 -64 59 q-39 -15 -40 -47 ZM89 179 q-28 -2 -30 -31 q0 -15 22 -39 q40 13 38 41 q-1 29 -30 29 Z" /><glyph glyph-name="" unicode="*" d="M108 151 l-40 -7 l29 -31 l-16 -12 l-22 37 l-22 -37 l-16 13 l29 30 l-41 7 l6 20 l38 -16 l-4 41 l20 0 l-4 -41 l38 15 l5 -19 Z" /><glyph glyph-name="" unicode="+" d="M154 81 l-60 0 l0 -61 l-17 0 l0 61 l-60 0 l0 17 l60 0 l0 60 l17 0 l0 -60 l60 0 l0 -17 Z" /><glyph glyph-name="" unicode="-" d="M154 81 l-137 0 l0 17 l137 0 l0 -17 Z" /><glyph glyph-name="" unicode="." d="M56 20 l0 -30 l-31 0 l0 30 l31 0 Z" /><glyph glyph-name="" unicode="/" d="M0 -18 l60 215 l18 0 l-60 -215 l-18 0 Z" /><glyph glyph-name="" unicode="0" d="M82 195 q69 -1 70 -105 q-1 -102 -70 -103 q-69 2 -70 103 q2 102 70 105 ZM82 3 q45 -1 45 87 q1 88 -46 86 q-45 -1 -45 -86 q0 -87 46 -87 Z" /><glyph glyph-name="" unicode="1" d="M69 -11 l0 167 q-18 -22 -61 -41 l0 20 q52 25 66 59 l17 0 l0 -205 l-22 0 Z" /><glyph glyph-name="" unicode="2" d="M36 7 l110 0 l0 -17 l-137 0 l0 13 q23 44 65 74 q52 37 48 60 q-1 38 -44 39 q-35 0 -44 -41 l-22 8 q16 52 71 52 q59 -3 63 -55 q5 -35 -51 -72 q-39 -28 -59 -61 Z" /><glyph glyph-name="" unicode="3" d="M10 39 l23 6 q7 -42 47 -42 q45 1 46 44 q-1 38 -51 38 q-13 0 -18 0 l0 18 q5 0 12 0 q50 0 50 38 q0 36 -39 36 q-37 0 -43 -40 l-23 6 q12 51 67 52 q59 -2 62 -53 q-2 -37 -39 -47 q44 -8 46 -50 q-3 -56 -70 -58 q-59 0 -70 52 Z" /><glyph glyph-name="" unicode="4" d="M124 55 l28 0 l0 -18 l-28 0 l0 -48 l-21 0 l0 48 l-99 0 l0 13 l101 144 l19 0 l0 -139 ZM28 55 l38 0 l37 0 l0 53 l0 34 q0 1 1 12 q0 11 0 12 q0 0 -1 -1 q0 0 -1 -2 q0 -1 -3 -5 q0 -1 -3 -4 q-2 -4 -4 -7 q-9 -13 -27 -38 q-2 -3 -5 -9 q-2 -1 -2 -2 q-6 -9 -17 -24 q-12 -17 -13 -19 Z" /><glyph glyph-name="" unicode="5" d="M11 40 l22 6 q7 -43 48 -43 q45 2 47 52 q-2 48 -47 49 q-31 0 -44 -23 l-18 1 l11 109 l110 0 l0 -20 l-91 0 l-7 -67 q17 18 45 18 q61 -3 64 -65 q-2 -68 -69 -70 q-59 0 -71 53 Z" /><glyph glyph-name="" unicode="6" d="M147 148 l-21 -5 q-10 34 -41 34 q-52 0 -52 -88 q17 32 56 32 q58 -4 62 -66 q-3 -65 -67 -68 q-74 -1 -73 97 q1 110 75 111 q48 -1 61 -47 ZM83 3 q43 1 45 50 q-2 48 -44 50 q-47 -2 -50 -44 q2 -54 49 -56 Z" /><glyph glyph-name="" unicode="7" d="M72 -11 l-25 0 q12 88 76 182 l-110 0 l0 19 l137 0 l0 -15 q-69 -95 -78 -186 Z" /><glyph glyph-name="" unicode="8" d="M54 94 l0 1 q-32 11 -34 45 q4 52 63 55 q58 -4 63 -55 q-2 -35 -34 -45 l0 -1 q40 -11 42 -52 q-1 -55 -72 -56 q-67 2 -70 56 q3 41 42 52 ZM83 2 q46 2 48 39 q-1 41 -49 45 q-45 -4 -46 -43 q2 -39 47 -41 ZM83 177 q-37 -1 -39 -36 q0 -36 39 -38 q38 2 39 37 q-1 36 -39 37 Z" /><glyph glyph-name="" unicode="9" d="M16 31 l21 6 q8 -34 41 -34 q51 0 52 87 q-18 -31 -57 -31 q-57 4 -61 65 q4 68 67 71 q74 1 73 -100 q0 -108 -76 -108 q-49 1 -60 44 ZM129 120 q-2 55 -49 57 q-43 -2 -45 -51 q1 -48 44 -49 q46 3 50 43 Z" /><glyph glyph-name="" unicode="a" d="M110 192 l85 -202 l-26 0 l-24 59 l-96 0 l-24 -59 l-25 0 l84 202 l26 0 ZM98 170 l-1 0 l-41 -102 l82 0 l-40 102 Z" /><glyph glyph-name="" unicode="b" d="M110 -10 l-89 0 l0 202 l83 0 q61 -3 66 -49 q0 -40 -42 -47 l0 -1 q49 -8 51 -50 q-1 -54 -69 -55 ZM102 85 l-58 0 l0 -78 l61 0 q50 0 50 41 q-3 36 -53 37 ZM99 173 l-55 0 l0 -70 l55 0 q46 1 47 38 q-2 31 -47 32 Z" /><glyph glyph-name="" unicode="c" d="M192 135 l-24 -6 q-15 43 -60 45 q-65 -5 -69 -84 q3 -80 68 -85 q52 1 64 55 l24 -7 q-16 -66 -88 -67 q-88 6 -93 103 q5 101 95 106 q60 -2 83 -60 Z" /><glyph glyph-name="" unicode="d" d="M92 -10 l-71 0 l0 202 l71 0 q96 -3 99 -101 q2 -103 -99 -101 ZM91 172 l-46 0 l0 -165 l46 0 q76 0 76 83 q-2 80 -76 82 Z" /><glyph glyph-name="" unicode="e" d="M175 -10 l-153 0 l0 202 l148 0 l0 -20 l-124 0 l0 -69 l117 0 l0 -19 l-117 0 l0 -77 l129 0 l0 -17 Z" /><glyph glyph-name="" unicode="f" d="M162 172 l-116 0 l0 -70 l101 0 l0 -20 l-101 0 l0 -92 l-24 0 l0 202 l140 0 l0 -20 Z" /><glyph glyph-name="" unicode="g" d="M203 97 l0 -74 q-23 -35 -87 -36 q-97 5 -101 103 q5 100 97 105 q68 -1 90 -57 l-23 -8 q-15 44 -68 44 q-67 -5 -71 -85 q4 -79 75 -84 q47 1 66 26 l0 47 l-68 0 l0 19 l90 0 Z" /><glyph glyph-name="" unicode="h" d="M187 -10 l-23 0 l0 93 l-118 0 l0 -93 l-23 0 l0 202 l23 0 l0 -89 l118 0 l0 89 l23 0 l0 -202 Z" /><glyph glyph-name="" unicode="i" d="M24 -10 l0 202 l24 0 l0 -202 l-24 0 Z" /><glyph glyph-name="" unicode="l" d="M154 -11 l-133 0 l0 202 l23 0 l0 -184 l110 0 l0 -18 Z" /><glyph glyph-name="" unicode="m" d="M114 -10 l-73 183 l-1 0 l0 -184 l-23 0 l0 203 l40 0 l67 -177 l1 0 l67 177 l40 0 l0 -203 l-23 0 l0 184 l-2 0 q-4 -13 -71 -183 l-22 0 Z" /><glyph glyph-name="" unicode="n" d="M23 191 l31 0 l110 -179 l1 0 l0 179 l23 0 l0 -202 l-30 0 l-112 179 l0 -179 l-23 0 l0 202 Z" /><glyph glyph-name="" unicode="o" d="M113 194 q91 -6 97 -105 q-4 -99 -99 -103 q-94 5 -98 103 q5 100 100 105 ZM110 4 q71 4 74 85 q-4 80 -73 85 q-69 -6 -73 -85 q3 -80 72 -85 Z" /><glyph glyph-name="" unicode="p" d="M106 68 l-60 0 l0 -79 l-24 0 l0 202 l86 0 q65 -3 70 -59 q-1 -63 -72 -64 ZM102 172 l-56 0 l0 -84 l56 0 q52 0 52 44 q-2 39 -52 40 Z" /><glyph glyph-name="" unicode="q" d="M135 -10 l48 -46 l-27 -8 l-45 52 q-96 3 -99 101 q4 101 99 105 q91 -6 97 -104 q-2 -81 -73 -100 ZM36 90 q3 -80 72 -84 q72 3 74 84 q-4 79 -73 84 q-69 -6 -73 -84 Z" /><glyph glyph-name="" unicode="r" d="M201 -10 l-31 0 l-68 87 l-56 0 l0 -88 l-23 0 l0 202 l93 0 q67 -2 70 -56 q0 -53 -59 -57 l74 -88 ZM46 172 l0 -76 l64 0 q53 -1 52 39 q1 37 -52 37 l-64 0 Z" /><glyph glyph-name="" unicode="s" d="M13 49 l24 7 q6 -53 62 -52 q50 1 53 39 q3 27 -51 39 q-1 0 -2 1 q-3 1 -11 3 q-71 12 -68 54 q3 52 72 54 q69 0 80 -54 l-25 -6 q-7 40 -53 41 q-45 -2 -49 -35 q-3 -25 54 -36 q3 0 8 -2 q6 -1 8 -2 q65 -16 62 -57 q-4 -55 -76 -57 q-75 -2 -88 63 Z" /><glyph glyph-name="" unicode="t" d="M172 172 l-71 0 l0 -182 l-23 0 l0 182 l-71 0 l0 19 l165 0 l0 -19 Z" /><glyph glyph-name="" unicode="u" d="M23 74 l0 118 l23 0 l0 -118 q0 -70 59 -69 q60 0 60 70 l0 117 l23 0 l0 -117 q1 -90 -84 -89 q-82 -1 -81 88 Z" /><glyph glyph-name="" unicode="v" d="M194 192 l-83 -203 l-25 0 l-84 203 l26 0 q69 -180 70 -184 l1 0 q1 4 69 184 l26 0 Z" /><glyph glyph-name="" unicode="w" d="M240 191 l25 0 l-57 -202 l-24 0 q-40 143 -44 159 q0 2 -2 9 q-2 12 -3 14 q0 -1 -1 -4 q-4 -15 -4 -17 q-4 -15 -46 -161 l-26 0 l-55 202 l25 0 q36 -144 40 -162 q1 -5 4 -19 l1 0 q4 20 5 24 q6 22 43 157 l26 0 q40 -148 43 -162 q2 -5 5 -21 l1 0 q1 12 4 21 q3 14 40 162 Z" /><glyph glyph-name="" unicode="x" d="M194 -10 l-30 0 l-66 90 l-67 -90 l-29 0 l81 103 l-72 99 l28 0 l60 -88 l60 88 l28 0 l-74 -99 l81 -103 Z" /><glyph glyph-name="" unicode="y" d="M2 192 l26 0 q58 -84 60 -87 q4 -6 9 -13 q3 4 8 13 q3 4 61 87 l27 0 l-85 -118 l0 -84 l-24 0 l0 84 l-82 118 Z" /><glyph glyph-name="" unicode="z" d="M172 -10 l-166 0 l0 14 l131 168 l-120 0 l0 20 l151 0 l0 -17 l-133 -168 l137 0 l0 -17 Z" /><glyph glyph-name="" unicode="b" d="M41 16 l0 -26 l-23 0 l0 205 l23 0 l0 -85 q15 30 50 30 q59 -3 61 -77 q-1 -74 -60 -76 q-37 0 -51 29 ZM40 75 l0 -21 q2 -49 44 -51 q45 0 45 59 q-2 58 -45 60 q-40 -6 -44 -47 Z" /><glyph glyph-name="" unicode="c" d="M145 94 l-23 -4 q-11 30 -40 32 q-46 -2 -47 -60 q1 -57 47 -58 q37 1 42 38 l23 -4 q-11 -53 -66 -51 q-69 2 -70 75 q3 75 69 78 q51 -2 65 -46 Z" /><glyph glyph-name="" unicode="e" d="M128 34 l24 -4 q-14 -44 -68 -43 q-72 3 -74 74 q3 76 72 79 q69 -1 70 -80 q0 -2 0 -5 l-118 0 q2 -49 49 -52 q38 1 45 31 ZM34 72 l95 0 q-1 49 -47 50 q-45 -3 -48 -50 Z" /><glyph glyph-name="" unicode="g" d="M123 137 l22 0 l0 -127 q4 -77 -72 -73 q-43 1 -59 31 l19 5 q14 -17 42 -18 q49 -1 48 46 l0 20 q-13 -26 -52 -26 q-61 2 -62 71 q2 71 64 74 q36 0 50 -27 l0 24 ZM123 60 l0 18 q-3 41 -43 44 q-46 -2 -48 -56 q1 -55 46 -56 q44 1 45 50 Z" /><glyph glyph-name="" unicode="h" d="M145 -10 l-23 0 l0 89 q1 44 -37 43 q-42 -2 -44 -49 l0 -83 l-22 0 l0 205 l22 0 l0 -86 q16 29 51 31 q54 1 53 -57 l0 -93 Z" /><glyph glyph-name="" unicode="i" d="M18 -10 l0 147 l23 0 l0 -147 l-23 0 ZM18 167 l0 26 l23 0 l0 -26 l-23 0 Z" /><glyph glyph-name="" unicode="l" d="M18 -10 l0 205 l23 0 l0 -205 l-23 0 Z" /><glyph glyph-name="" unicode="m" d="M226 -10 l-22 0 l0 89 q1 44 -33 43 q-34 -2 -38 -44 l0 -88 l-22 0 l0 89 q1 44 -33 43 q-34 -1 -38 -45 l0 -87 l-22 0 l0 146 l22 0 l0 -27 q14 30 47 31 q37 0 44 -34 q11 33 48 34 q48 1 47 -57 l0 -93 Z" /><glyph glyph-name="" unicode="n" d="M145 -10 l-22 0 l0 89 q1 44 -37 43 q-40 -2 -45 -44 l0 -88 l-22 0 l0 146 l22 0 l0 -28 q17 30 51 32 q54 1 53 -58 l0 -92 Z" /><glyph glyph-name="" unicode="o" d="M83 140 q66 -3 69 -78 q-1 -75 -72 -76 q-67 4 -71 75 q3 77 74 79 ZM81 2 q47 2 48 60 q-2 57 -48 60 q-46 -2 -48 -61 q2 -55 48 -59 Z" /><glyph glyph-name="" unicode="r" d="M39 68 l0 -78 l-22 0 l0 146 l22 0 l0 -27 q11 30 39 31 q14 0 27 -7 l-9 -21 q-8 7 -22 7 q-34 -2 -35 -51 Z" /><glyph glyph-name="" unicode="s" d="M131 101 l-23 -4 q-7 26 -36 26 q-34 -1 -35 -25 q-3 -18 41 -25 q1 0 2 0 q6 -1 14 -4 q44 -10 43 -40 q-1 -41 -61 -42 q-57 -2 -67 43 l22 5 q6 -34 44 -33 q38 1 39 27 q2 18 -31 25 q-1 0 -3 0 q-5 1 -14 4 q-53 9 -51 40 q2 40 55 42 q51 0 61 -39 Z" /><glyph glyph-name="" unicode="t" d="M49 189 l0 -53 l32 0 l0 -17 l-32 0 l0 -95 q-1 -23 17 -22 q9 0 14 3 l4 -12 q-9 -6 -25 -6 q-33 -1 -32 34 l0 98 l-24 0 l0 17 l24 0 l0 46 l22 7 Z" /><glyph glyph-name="" unicode="u" d="M144 -10 l-22 0 l0 27 q-17 -29 -51 -30 q-54 -1 -53 55 l0 94 l22 0 l0 -91 q-1 -43 38 -42 q40 3 44 46 l0 87 l22 0 l0 -146 Z" /><glyph glyph-name="" unicode="v" d="M145 137 l-60 -147 l-25 0 l-57 147 l24 0 q40 -113 41 -118 q4 -12 4 -14 l1 0 q0 1 3 9 q2 4 2 5 q1 5 42 118 l25 0 Z" /><glyph glyph-name="" unicode="x" d="M145 137 l-55 -73 l58 -74 l-26 0 l-46 64 l-48 -64 l-26 0 l59 74 l-53 73 l25 0 l43 -64 l43 64 l26 0 Z" /><glyph glyph-name="" unicode="z" d="M137 -10 l-132 0 l0 12 l98 117 l-91 0 l0 18 l121 0 l0 -14 l-99 -117 l103 0 l0 -16 Z" /><glyph glyph-name="" unicode="|" d="M26 -49 l0 259 l18 0 l0 -259 l-18 0 Z" /><glyph glyph-name="" unicode="°" d="M15 172 q3 28 32 31 q29 -3 32 -31 q-2 -29 -32 -32 q-29 3 -32 32 ZM27 172 q2 -18 20 -20 q18 2 20 20 q-1 17 -20 19 q-19 -2 -20 -19 Z" /><glyph glyph-name="" unicode="&#x201c;" d="M188 166 l17 0 l0 -32 l-31 0 q0 7 0 28 q-1 36 28 54 l8 -8 q-23 -17 -22 -42 ZM158 216 l8 -8 q-25 -17 -23 -42 l17 0 l0 -32 l-31 0 q0 7 0 28 q-1 37 29 54 Z" /><glyph glyph-name="" unicode="&#x201d;" d="M82 215 l0 -28 q1 -37 -29 -54 l-8 9 q24 16 23 41 l-17 0 l0 32 l31 0 ZM126 215 l0 -28 q1 -37 -28 -54 l-8 9 q23 16 23 41 l-17 0 l0 32 l30 0 Z" /><glyph glyph-name="" unicode="&#x3001;" d="M105 -6 l-15 -15 l-52 58 l14 13 l53 -56 Z" /><glyph glyph-name="" unicode="&#x3002;" d="M40 14 q3 34 38 37 q34 -3 37 -37 q-3 -32 -37 -35 q-35 3 -38 35 ZM53 14 q2 -20 25 -22 q22 2 24 22 q-2 23 -24 25 q-23 -2 -25 -25 Z" /><glyph glyph-name="" unicode="&#x300c;" d="M116 -32 l0 245 l58 0 l0 -14 l-40 0 l0 -231 l-18 0 Z" /><glyph glyph-name="" unicode="&#x300d;" d="M140 -32 l-58 0 l0 15 l40 0 l0 230 l18 0 l0 -245 Z" /><glyph glyph-name="" unicode="&#x3010;" d="M175 -32 l-60 0 l0 245 l60 0 q-35 -48 -36 -123 q0 -77 36 -122 Z" /><glyph glyph-name="" unicode="&#x3011;" d="M80 213 l60 0 l0 -245 l-61 0 q37 43 36 122 q-1 75 -35 123 Z" /><glyph glyph-name="" unicode="&#x4e00;" d="M6 85 l0 22 l243 0 l0 -22 l-243 0 Z" /><glyph glyph-name="" unicode="&#x4e07;" d="M12 171 l0 20 l234 0 l0 -20 l-142 0 q0 -17 -2 -48 q0 1 0 -3 l115 0 q-2 -57 -5 -97 q-2 -46 -47 -45 q-25 0 -46 0 q-1 5 -2 13 q-2 6 -2 8 q18 -1 44 -1 q30 -2 31 30 q3 28 5 72 l-95 0 q-7 -81 -76 -129 q-6 6 -16 16 q69 45 71 127 q2 21 4 57 l-71 0 Z" /><glyph glyph-name="" unicode="&#x4e09;" d="M25 166 l0 21 l205 0 l0 -21 l-205 0 ZM10 -10 l0 19 l236 0 l0 -19 l-236 0 ZM37 81 l0 20 l182 0 l0 -20 l-182 0 Z" /><glyph glyph-name="" unicode="&#x4e0a;" d="M9 -15 l0 19 l96 0 l0 203 l22 0 l0 -74 l101 0 l0 -20 l-101 0 l0 -109 l120 0 l0 -19 l-238 0 Z" /><glyph glyph-name="" unicode="&#x4e0b;" d="M9 172 l0 20 l238 0 l0 -20 l-119 0 l0 -199 l-23 0 l0 199 l-96 0 ZM219 52 q-26 17 -72 45 q-11 7 -17 11 l13 16 q6 -4 19 -11 q47 -26 71 -41 l-14 -20 Z" /><glyph glyph-name="" unicode="&#x4e0d;" d="M14 170 l0 20 l230 0 l0 -20 l-90 0 q-15 -26 -33 -47 l17 0 l0 -152 l-22 0 l0 145 q-38 -44 -96 -83 q-1 1 -3 4 q-8 10 -11 13 q85 54 123 120 l-115 0 ZM233 39 q-56 41 -81 58 l13 15 q21 -13 63 -42 q14 -10 20 -14 l-15 -17 Z" /><glyph glyph-name="" unicode="&#x4e0e;" d="M118 -25 q-1 11 -4 23 q22 -2 52 -2 q36 -2 37 26 q3 37 5 73 l-164 0 l11 115 l21 0 l-4 -36 l174 0 l0 -20 l-175 0 l-4 -40 l164 0 q0 -5 -1 -16 q-3 -55 -6 -79 q-2 -44 -52 -43 q-21 -1 -54 -1 ZM7 37 l0 20 l177 0 l0 -20 l-177 0 Z" /><glyph glyph-name="" unicode="&#x4e13;" d="M23 161 l0 18 l71 0 q8 17 12 32 l23 -2 q-6 -15 -12 -30 l117 0 l0 -18 l-124 0 q-1 -4 -4 -11 q-4 -7 -10 -23 l153 0 l0 -18 l-161 0 q-3 -5 -8 -16 q-5 -10 -8 -15 l150 0 l0 -20 l-66 -54 l40 -16 l-12 -18 q-37 18 -127 54 q-6 3 -9 4 l11 17 q49 -20 76 -32 l59 47 l-145 0 l0 19 q7 12 16 30 l-57 0 l0 18 l65 0 q3 7 9 21 q3 8 5 13 l-64 0 Z" /><glyph glyph-name="" unicode="&#x4e16;" d="M9 129 l0 19 l31 0 l0 49 l20 0 l0 -49 l48 0 l0 60 l20 0 l0 -60 l64 0 l0 60 l20 0 l0 -60 l34 0 l0 -19 l-34 0 l0 -87 l-104 0 l0 87 l-48 0 l0 -129 l181 0 l0 -19 l-201 0 l0 148 l-31 0 ZM128 129 l0 -68 l64 0 l0 68 l-64 0 Z" /><glyph glyph-name="" unicode="&#x4e1a;" d="M8 -14 l0 18 l77 0 l0 202 l20 0 l0 -202 l45 0 l0 202 l20 0 l0 -202 l78 0 l0 -18 l-240 0 ZM199 52 l-19 8 q23 50 41 99 l19 -7 q-20 -52 -41 -100 ZM53 52 q-8 26 -27 77 q-6 16 -9 24 l18 6 q9 -22 27 -71 q8 -20 11 -29 l-20 -7 Z" /><glyph glyph-name="" unicode="&#x4e1c;" d="M10 155 l0 20 l64 0 q9 17 18 35 l22 -3 q-6 -15 -16 -32 l148 0 l0 -20 l-158 0 q-12 -24 -36 -61 l74 0 l0 46 l21 0 l0 -46 l87 0 l0 -19 l-87 0 l0 -65 q2 -36 -35 -35 q-8 -1 -34 -1 q-2 10 -5 21 q12 -1 32 -1 q22 -1 21 20 l0 61 l-97 0 l0 21 q3 6 11 18 q16 26 25 41 l-55 0 ZM21 -17 q-10 10 -15 14 q29 25 59 59 l17 -12 q-30 -33 -61 -61 ZM234 -12 q-3 3 -9 8 q-35 31 -53 45 l14 14 q33 -25 64 -54 l-16 -13 Z" /><glyph glyph-name="" unicode="&#x4e1d;" d="M128 110 l-7 19 q7 3 19 15 q23 28 44 63 l20 -9 q-28 -39 -54 -70 q7 1 24 1 q16 1 24 1 q12 13 22 28 l18 -11 q-33 -40 -79 -91 q8 0 27 1 q39 1 50 2 q-1 -10 -1 -19 q-28 0 -76 -2 q-1 0 -4 0 q-16 -2 -19 -3 l-8 21 q11 6 23 18 q6 7 17 20 q12 13 17 19 q-7 0 -21 -1 q-14 0 -20 -1 q-5 0 -11 -1 q-3 0 -5 0 ZM21 109 l-7 20 q12 7 17 16 q24 30 43 63 l20 -8 q-22 -32 -53 -71 q9 0 25 1 q15 0 22 0 q11 15 21 31 l19 -10 q-50 -67 -76 -95 q36 2 61 2 q0 -1 0 -3 q-2 -7 -2 -15 q-24 0 -65 -3 q-1 0 -4 0 q-12 -2 -14 -3 l-8 20 q11 6 22 18 q16 17 34 41 q-23 0 -38 -2 q-13 0 -17 -2 ZM9 -16 l0 17 l238 0 l0 -17 l-238 0 Z" /><glyph glyph-name="" unicode="&#x4e24;" d="M60 14 q-5 5 -15 13 q37 39 39 95 l0 1 l-42 0 l0 -149 l-19 0 l0 167 l61 0 q1 18 1 35 l-77 0 l0 19 l239 0 l0 -19 l-74 0 q0 -17 -1 -35 l60 0 l0 -135 q1 -31 -30 -30 q-18 -1 -34 -1 q-3 10 -4 20 q9 -1 30 -1 q20 -1 19 14 l0 115 l-42 0 q0 0 0 -2 q-2 -19 -5 -35 q15 -14 41 -42 q-1 1 3 -3 l-13 -15 q-14 17 -36 41 q-12 -31 -35 -60 q-2 1 -5 4 q-2 3 -11 9 q39 41 42 103 l-49 0 q-1 -16 -4 -30 q6 -5 16 -14 q11 -9 16 -14 l-12 -16 q-6 7 -17 17 q-5 5 -8 8 q-11 -33 -34 -60 ZM104 176 q0 -18 -1 -35 l50 0 q0 5 0 15 q1 13 1 20 l-50 0 Z" /><glyph glyph-name="" unicode="&#x4e2a;" d="M235 89 q-70 38 -105 91 q-39 -55 -110 -95 q-3 4 -10 12 q-3 5 -4 6 q85 47 118 107 l23 -3 l-6 -10 q37 -55 108 -88 q-2 -3 -7 -10 q-5 -7 -7 -10 ZM116 -29 l0 148 l23 0 l0 -148 l-23 0 Z" /><glyph glyph-name="" unicode="&#x4e2d;" d="M22 43 l0 116 l95 0 l0 52 l21 0 l0 -52 l96 0 l0 -115 l-21 0 l0 13 l-75 0 l0 -88 l-21 0 l0 88 l-75 0 l0 -14 l-20 0 ZM213 140 l-75 0 l0 -63 l75 0 l0 63 ZM42 140 l0 -63 l75 0 l0 63 l-75 0 Z" /><glyph glyph-name="" unicode="&#x4e30;" d="M17 153 l0 19 l100 0 l0 38 l21 0 l0 -38 l100 0 l0 -19 l-100 0 l0 -42 l85 0 l0 -19 l-85 0 l0 -42 l109 0 l0 -19 l-109 0 l0 -61 l-21 0 l0 61 l-108 0 l0 19 l108 0 l0 42 l-85 0 l0 19 l85 0 l0 42 l-100 0 Z" /><glyph glyph-name="" unicode="&#x4e3a;" d="M27 -30 q-8 10 -16 18 q89 51 94 140 l-89 0 l0 19 l91 0 q3 30 3 64 l22 0 q0 -33 -3 -64 l105 0 q-2 -70 -5 -122 q-1 -49 -47 -48 q-24 -1 -47 -1 q-1 3 -2 9 q0 4 -3 14 q5 0 19 0 q18 -1 26 -1 q33 -3 33 31 q4 51 4 99 l-86 0 q-8 -103 -99 -158 ZM170 40 q-13 17 -39 42 l15 12 q15 -12 41 -39 l-17 -15 ZM68 157 q-17 21 -35 37 l15 12 q20 -16 36 -34 l-16 -15 Z" /><glyph glyph-name="" unicode="&#x4e3b;" d="M19 146 l0 19 l217 0 l0 -19 l-98 0 l0 -59 l88 0 l0 -19 l-88 0 l0 -66 l109 0 l0 -17 l-238 0 l0 17 l108 0 l0 66 l-87 0 l0 19 l87 0 l0 59 l-98 0 ZM125 168 q-5 15 -16 37 l21 5 q5 -12 17 -36 l-22 -6 Z" /><glyph glyph-name="" unicode="&#x4e3d;" d="M23 -29 l0 179 l90 0 l0 -148 q1 -28 -29 -27 q-12 -1 -25 -1 q0 3 -1 9 q-1 7 -2 10 q11 0 23 0 q16 -1 15 12 l0 127 l-53 0 l0 -161 l-18 0 ZM140 -29 l0 179 l93 0 l0 -148 q2 -29 -27 -27 q-12 -1 -28 -1 q0 4 -2 11 q-1 5 -1 8 q8 -1 25 -1 q16 0 15 12 l0 128 l-57 0 l0 -161 l-18 0 ZM9 177 l0 19 l238 0 l0 -19 l-238 0 ZM73 41 q-13 30 -28 56 l15 7 q15 -27 29 -55 l-16 -8 ZM194 43 q-16 34 -29 57 l15 7 q16 -29 29 -56 l-15 -8 Z" /><glyph glyph-name="" unicode="&#x4e45;" d="M233 -27 q-64 36 -93 95 q-39 -56 -118 -97 q-1 2 -4 5 q-7 11 -11 15 q120 55 150 163 l-75 0 q-18 -32 -45 -62 q-7 9 -16 16 q44 44 63 101 l22 -4 q-4 -10 -12 -28 q-1 -2 -1 -3 l88 0 l0 -21 q-11 -36 -29 -67 q33 -65 96 -91 q-2 -4 -7 -11 q-5 -8 -8 -11 Z" /><glyph glyph-name="" unicode="&#x4e4b;" d="M243 -19 q-46 0 -67 0 q-25 0 -45 1 q-50 1 -76 31 q-5 4 -10 0 q-20 -18 -30 -32 l-10 20 q3 3 9 9 q12 12 17 17 q12 11 19 11 q1 0 4 0 q2 -1 3 -1 q79 48 141 108 l-174 0 l0 19 l102 0 q-6 17 -20 40 l21 6 q15 -27 21 -42 l-14 -4 l92 0 l0 -21 q-68 -70 -153 -119 q20 -23 61 -24 q22 0 75 0 q27 0 40 0 q0 0 -1 -3 q-4 -11 -5 -16 Z" /><glyph glyph-name="" unicode="&#x4e5f;" d="M118 24 l0 100 l-57 -14 l0 -88 q-2 -25 25 -23 l108 0 q28 -1 30 17 q3 16 5 34 q11 -3 21 -6 q-3 -20 -7 -38 q-5 -27 -44 -26 l-119 0 q-41 -1 -40 36 l0 88 l-31 -7 l-2 19 l33 8 l0 58 l21 0 l0 -53 l57 14 l0 67 l21 0 l0 -62 l86 21 q-2 -58 -4 -82 q0 -39 -35 -39 q-15 0 -27 0 q-1 4 -2 10 q-2 7 -3 10 q11 0 26 0 q21 -2 22 21 q2 32 2 56 l-65 -16 l0 -105 l-21 0 Z" /><glyph glyph-name="" unicode="&#x4e70;" d="M9 48 l0 19 l126 0 q8 33 8 97 l21 0 q0 -59 -7 -96 q0 -1 -1 -1 l90 0 l0 -19 l-94 0 q-1 -4 -4 -9 q19 -9 62 -30 q23 -10 33 -15 l-12 -19 q-28 16 -75 39 q-12 6 -18 9 q-22 -32 -112 -53 q-1 4 -7 14 q-3 4 -4 6 q101 18 115 58 l-121 0 ZM215 124 q-2 1 -5 2 q-10 3 -14 4 l21 48 l-198 0 l0 19 l219 0 l0 -19 l-23 -54 ZM85 76 q-21 14 -57 36 l11 14 q25 -14 57 -34 l-11 -16 ZM109 117 q-27 19 -54 34 l11 14 q28 -15 55 -32 l-12 -16 Z" /><glyph glyph-name="" unicode="&#x4e86;" d="M61 -24 q-1 14 -4 23 q6 0 18 0 q15 -1 22 -1 q27 -2 25 22 l0 98 l83 55 l-189 0 l0 20 l218 0 l0 -24 l-90 -61 l0 -91 q2 -41 -40 -40 q-8 0 -22 -1 q-14 0 -21 0 Z" /><glyph glyph-name="" unicode="&#x4e8e;" d="M28 173 l0 20 l201 0 l0 -20 l-87 0 l0 -64 l106 0 l0 -20 l-106 0 l0 -78 q2 -36 -35 -36 q-19 0 -40 0 q-1 12 -4 22 q10 -1 36 -1 q23 -2 21 20 l0 73 l-112 0 l0 20 l112 0 l0 64 l-92 0 Z" /><glyph glyph-name="" unicode="&#x4e91;" d="M9 98 l0 20 l239 0 l0 -20 l-125 0 l3 -1 q-32 -43 -68 -85 q11 0 38 1 q62 2 91 3 q-10 14 -30 39 q-4 5 -6 8 l17 10 q33 -37 69 -83 l-19 -12 l-16 22 q-9 0 -29 -1 q-79 -3 -111 -6 q-17 0 -28 -3 l-10 21 q12 6 24 20 q26 28 50 67 l-89 0 ZM31 173 l0 21 l194 0 l0 -21 l-194 0 Z" /><glyph glyph-name="" unicode="&#x4e92;" d="M19 173 l0 19 l218 0 l0 -19 l-157 0 l-6 -37 l135 0 l-9 -132 l45 0 l0 -17 l-234 0 l0 17 l168 0 l3 42 l-143 0 l20 127 l-40 0 ZM187 118 l-116 0 l-8 -54 l120 0 l4 54 Z" /><glyph glyph-name="" unicode="&#x4e94;" d="M16 176 l0 19 l222 0 l0 -19 l-124 0 l-11 -63 l106 0 l0 -112 l40 0 l0 -17 l-242 0 l0 17 l55 0 l16 92 l-55 0 l0 20 l58 0 l11 63 l-76 0 ZM188 93 l-88 0 l-16 -92 l104 0 l0 92 Z" /><glyph glyph-name="" unicode="&#x4e9b;" d="M11 68 l-3 20 l20 2 l0 95 l19 0 l0 -92 l31 4 l0 112 l19 0 l0 -44 l38 0 l0 -17 l-38 0 l0 -48 q22 3 40 6 q0 -2 0 -6 q-1 -8 0 -12 q-69 -10 -126 -20 ZM180 73 q-31 -1 -30 32 l0 104 l19 0 l0 -57 q31 15 59 36 l11 -15 q-31 -22 -70 -40 l0 -25 q-1 -18 18 -17 l20 0 q18 -1 20 14 q3 18 3 28 q12 -4 18 -7 q-1 -14 -5 -30 q-4 -23 -33 -23 l-30 0 ZM13 -17 l0 17 l230 0 l0 -17 l-230 0 ZM36 31 l0 18 l181 0 l0 -18 l-181 0 Z" /><glyph glyph-name="" unicode="&#x4ea4;" d="M234 -28 q-73 19 -106 43 q-34 -24 -109 -44 l-10 21 q68 13 103 37 q-24 24 -43 60 l18 10 q19 -34 41 -56 q22 21 39 58 l19 -9 q-20 -40 -42 -62 q35 -26 102 -36 q-3 -5 -7 -13 q-3 -6 -5 -9 ZM11 156 l0 19 l112 0 q-7 17 -15 30 l22 5 q8 -14 16 -31 l-11 -4 l110 0 l0 -19 l-234 0 ZM25 74 q-1 2 -3 5 q-3 5 -10 14 q42 23 76 53 l15 -16 q-29 -24 -78 -56 ZM229 79 q-44 32 -75 52 l12 15 q30 -18 77 -49 l-14 -18 Z" /><glyph glyph-name="" unicode="&#x4ea7;" d="M23 -29 q-9 7 -18 13 q29 31 27 91 l0 35 l119 0 q7 11 20 32 q6 10 9 15 l19 -10 q-3 -4 -10 -14 q-10 -15 -16 -23 l68 0 l0 -18 l-189 0 l0 -18 q2 -63 -29 -103 ZM13 164 l0 18 l113 0 q-1 5 -4 13 q-2 8 -4 12 l22 3 q1 -4 4 -14 q3 -9 4 -14 l99 0 l0 -18 l-234 0 ZM93 111 q-3 4 -9 12 q-13 17 -19 24 l17 11 q4 -5 11 -14 q12 -14 17 -22 l-17 -11 Z" /><glyph glyph-name="" unicode="&#x4eab;" d="M7 19 l0 16 l114 0 l0 11 l56 18 l-148 0 l0 15 l187 0 l0 -16 l-74 -26 l0 -2 l106 0 l0 -16 l-106 0 l0 -18 q0 -28 -30 -28 q-6 0 -18 0 q-13 -1 -20 -1 q-1 9 -4 19 q17 -1 34 -1 q18 -1 17 13 l0 16 l-114 0 ZM41 98 l0 51 l171 0 l0 -51 l-171 0 ZM9 167 l0 17 l111 0 l-8 24 l21 3 q6 -13 9 -27 l104 0 l0 -17 l-237 0 ZM61 134 l0 -21 l132 0 l0 21 l-132 0 Z" /><glyph glyph-name="" unicode="&#x4eae;" d="M48 103 l0 50 l158 0 l0 -50 l-158 0 ZM19 -30 q-1 2 -3 6 q-4 8 -7 11 q69 8 62 47 l0 16 l104 0 l0 -44 q-1 -12 14 -11 l21 0 q16 -1 17 11 q1 4 2 16 q1 5 1 8 q2 0 5 -1 q5 -2 14 -4 q-1 -15 -4 -25 q-4 -23 -32 -22 l-30 0 q-29 -1 -28 25 l0 31 l-65 0 l0 -5 q4 -47 -71 -59 ZM15 47 l0 38 l225 0 l0 -38 l-19 0 l0 22 l-186 0 l0 -22 l-20 0 ZM11 171 l0 17 l108 0 l-7 20 l22 3 q1 -3 3 -9 q3 -9 4 -14 l103 0 l0 -17 l-233 0 ZM68 138 l0 -20 l119 0 l0 20 l-119 0 Z" /><glyph glyph-name="" unicode="&#x4eb2;" d="M8 102 l0 18 l77 0 q-3 4 -9 13 q-11 16 -15 22 l19 7 q10 -13 25 -37 l-13 -5 l58 0 q1 1 2 3 q18 27 26 39 l19 -7 q-13 -21 -24 -35 l75 0 l0 -18 l-107 0 l0 -33 l94 0 l0 -17 l-94 0 l0 -43 q2 -34 -35 -34 q-14 -1 -30 -1 q0 3 -2 8 q-1 8 -2 12 q5 0 14 0 q9 -1 15 -1 q20 -1 19 18 l0 41 l-100 0 l0 17 l100 0 l0 33 l-112 0 ZM20 164 l0 18 l102 0 q-6 16 -9 25 l22 4 q1 -4 6 -17 q3 -8 4 -12 l90 0 l0 -18 l-215 0 ZM24 -15 q-1 2 -4 5 q-2 3 -9 10 q32 19 59 42 l14 -14 q-28 -23 -60 -43 ZM228 -15 q-18 13 -55 36 q-5 3 -8 5 l13 14 q3 -2 9 -6 q20 -12 53 -34 l-12 -15 Z" /><glyph glyph-name="" unicode="&#x4eba;" d="M232 -24 q-91 47 -103 144 q-14 -94 -106 -147 q-3 4 -10 12 q-4 5 -5 7 q95 50 106 154 q3 31 3 61 l21 0 q0 -15 -1 -37 q12 -134 111 -174 q-8 -8 -16 -20 Z" /><glyph glyph-name="" unicode="&#x4ec5;" d="M236 -27 q-53 31 -74 54 q-25 -27 -80 -56 q-1 2 -6 9 q-5 7 -7 10 q50 24 79 53 q-35 45 -51 130 l1 0 l-11 0 l0 19 l146 0 l0 -19 q-19 -86 -57 -130 q30 -31 74 -50 q-6 -8 -14 -20 ZM212 173 l-96 0 q16 -76 46 -114 q32 37 50 114 ZM12 73 q-1 4 -3 13 q-3 8 -4 12 q35 46 56 112 l20 -6 q-11 -29 -23 -56 l0 -176 l-20 0 l0 139 q-15 -25 -26 -38 Z" /><glyph glyph-name="" unicode="&#x4ece;" d="M95 -28 q-8 9 -17 16 q74 59 75 155 q2 42 2 65 l21 0 q0 -7 0 -23 q-1 -16 -1 -24 q7 -122 75 -168 q-5 -5 -12 -14 q-2 -3 -3 -4 q-58 46 -69 127 q-7 -73 -71 -130 ZM115 54 q-21 28 -43 51 q-5 -73 -49 -130 q-3 3 -12 10 q-4 3 -6 5 q47 54 50 153 q0 2 0 4 q2 37 2 60 l21 0 q0 -33 -3 -73 l-1 -10 l4 4 q29 -31 52 -58 l-15 -16 Z" /><glyph glyph-name="" unicode="&#x4ed4;" d="M82 80 l0 20 l81 0 l0 23 l47 52 l-107 0 l0 19 l133 0 l0 -22 l-52 -55 l0 -17 l66 0 l0 -20 l-66 0 l0 -71 q3 -35 -33 -34 q-20 0 -38 0 q-1 10 -4 21 q11 -1 35 -1 q20 -1 19 18 l0 67 l-81 0 ZM14 73 q-5 15 -9 24 q35 45 56 112 l21 -6 q-10 -28 -23 -55 l0 -176 l-20 0 l0 139 q-12 -21 -25 -38 Z" /><glyph glyph-name="" unicode="&#x4ed8;" d="M81 133 l0 20 l109 0 l0 55 l21 0 l0 -55 l34 0 l0 -20 l-34 0 l0 -124 q1 -35 -35 -34 q-10 -1 -38 -1 q-1 10 -4 21 q18 0 34 0 q23 -1 22 18 l0 120 l-109 0 ZM13 70 q-2 13 -7 26 q36 48 57 114 l21 -6 q-5 -16 -19 -48 q-3 -5 -4 -8 l0 -177 l-20 0 l0 140 q-14 -23 -28 -41 ZM136 37 q-24 35 -46 60 l16 12 q28 -33 48 -59 l-18 -13 Z" /><glyph glyph-name="" unicode="&#x4ee3;" d="M81 105 l-3 19 l56 7 q-2 23 -4 78 l21 0 q0 -20 2 -55 q1 -14 1 -21 l89 10 l2 -20 l-90 -10 q5 -60 22 -92 q13 -28 31 -27 q12 -1 17 15 q1 5 3 17 q2 11 3 16 q9 -4 18 -7 q-1 -13 -7 -34 q-7 -29 -33 -28 q-30 0 -50 37 q-17 31 -24 101 l-54 -6 ZM41 -29 l0 142 q-13 -22 -30 -42 q-3 12 -6 24 q36 48 58 114 l20 -7 q-10 -27 -22 -52 l0 -179 l-20 0 ZM215 151 q-11 10 -41 36 l13 12 q21 -16 42 -34 l-14 -14 Z" /><glyph glyph-name="" unicode="&#x4ee5;" d="M233 -22 q-7 9 -21 24 q-19 22 -27 33 q-22 -35 -81 -65 q-6 9 -14 19 q103 41 100 148 q2 40 2 67 l21 0 q0 -19 -1 -54 q-1 -9 -1 -13 q-3 -55 -16 -83 q14 -15 41 -45 q9 -10 14 -15 l-17 -16 ZM30 -12 l-14 16 q10 10 9 25 l0 171 l21 0 l0 -175 q33 21 66 44 q2 -13 5 -23 q-6 -4 -19 -12 q-33 -22 -52 -34 q-7 -5 -16 -12 ZM121 137 q-16 33 -34 63 l17 9 q2 -3 6 -10 q21 -33 31 -51 l-20 -11 Z" /><glyph glyph-name="" unicode="&#x4eea;" d="M84 -30 q-1 2 -4 7 q-6 9 -9 13 q49 22 77 49 q-31 37 -47 97 q-4 18 -9 41 l20 5 q3 -22 8 -40 q13 -55 42 -87 q31 34 46 97 q0 2 1 6 q2 9 6 27 l20 -4 q-1 -5 -4 -16 q-2 -13 -4 -19 q-16 -67 -50 -107 q27 -25 71 -45 q-10 -15 -13 -20 q-49 26 -72 50 q-26 -25 -79 -54 ZM12 69 q-3 13 -8 23 q41 59 57 116 l21 -6 q-10 -30 -24 -57 l0 -174 l-19 0 l0 138 q-13 -22 -27 -40 ZM162 146 q-3 6 -8 19 q-11 24 -17 36 l18 7 q15 -30 25 -55 l-18 -7 Z" /><glyph glyph-name="" unicode="&#x4eec;" d="M164 -26 q-1 10 -4 21 q5 0 16 0 q12 -1 18 -1 q23 -1 22 20 l0 156 l-59 0 l0 20 l80 0 l0 -180 q1 -36 -34 -36 q-19 0 -39 0 ZM12 69 q-4 17 -6 26 q37 60 50 113 l21 -6 q-10 -29 -21 -53 l0 -178 l-19 0 l0 138 q-5 -9 -16 -25 q-6 -10 -9 -15 ZM94 -26 l0 176 l20 0 l0 -176 l-20 0 ZM125 159 q-1 1 -2 3 q-17 23 -27 35 l16 11 q12 -13 31 -37 l-18 -12 Z" /><glyph glyph-name="" unicode="&#x4ef6;" d="M98 91 q-3 1 -9 4 q-7 3 -10 4 q22 42 33 93 l20 -5 q-1 -2 -2 -6 q-2 -11 -8 -28 l42 0 l0 56 l20 0 l0 -56 l58 0 l0 -19 l-58 0 l0 -61 l66 0 l0 -20 l-66 0 l0 -82 l-20 0 l0 82 l-87 0 l0 20 l87 0 l0 61 l-48 0 q-5 -15 -18 -43 ZM12 67 q-3 14 -6 25 q34 53 52 116 l20 -5 q-9 -27 -19 -52 l0 -180 l-20 0 l0 139 q-16 -29 -27 -43 Z" /><glyph glyph-name="" unicode="&#x4efb;" d="M96 166 q-1 11 -3 20 q70 3 143 10 l4 -19 q-29 -3 -61 -5 l0 -74 l71 0 l0 -20 l-71 0 l0 -76 l66 0 l0 -17 l-156 0 l0 17 l69 0 l0 76 l-74 0 l0 20 l74 0 l0 72 q-9 0 -28 -2 q-22 -1 -34 -2 ZM13 70 q-1 4 -3 12 q-3 8 -4 12 q36 52 56 115 l21 -6 q-9 -27 -22 -53 l0 -179 l-20 0 l0 141 q-14 -23 -28 -42 Z" /><glyph glyph-name="" unicode="&#x4f01;" d="M12 -17 l0 17 l38 0 l0 94 l20 0 l0 -94 l53 0 l0 134 l21 0 l0 -53 l72 0 l0 -18 l-72 0 l0 -63 l96 0 l0 -17 l-228 0 ZM237 104 q-73 36 -107 82 q-37 -46 -111 -86 q-2 3 -6 10 q-5 6 -7 9 q80 39 117 92 l23 -3 l-5 -7 q37 -48 108 -78 q-7 -10 -12 -19 Z" /><glyph glyph-name="" unicode="&#x4f17;" d="M237 108 q-75 33 -108 77 q-36 -47 -110 -82 q-5 10 -11 19 q81 36 116 90 l23 -3 l-6 -10 q37 -45 108 -72 q-6 -8 -12 -19 ZM234 -26 q-53 37 -61 87 q-9 -51 -65 -91 q-7 9 -15 17 q62 38 66 103 q0 1 0 4 q2 17 2 27 l21 0 l-2 -18 q7 -73 69 -111 q-3 -3 -10 -12 q-3 -4 -5 -6 ZM119 27 q-18 20 -36 38 q-10 -54 -61 -91 q-2 2 -8 7 q-5 5 -8 8 q56 40 61 96 q2 16 3 35 l20 0 q-1 -16 -3 -34 q24 -21 46 -44 l-14 -15 Z" /><glyph glyph-name="" unicode="&#x4f1a;" d="M15 53 l0 19 l225 0 l0 -19 l-119 0 q-22 -26 -52 -53 q7 0 25 0 q56 1 85 3 l-26 26 l15 11 q7 -6 20 -19 q27 -25 40 -37 l-17 -13 l-16 16 q-78 -2 -125 -5 q-13 -1 -25 -4 l-11 20 q11 3 20 12 q18 17 40 43 l-79 0 ZM236 106 q-74 35 -106 80 q-40 -46 -111 -84 q-2 4 -8 11 q-4 5 -5 7 q80 39 118 92 l24 -3 l-6 -8 q33 -46 107 -76 q-6 -7 -13 -19 ZM62 105 l0 19 l131 0 l0 -19 l-131 0 Z" /><glyph glyph-name="" unicode="&#x4f20;" d="M88 157 l0 18 l46 0 q2 6 4 17 q3 12 4 17 l21 -2 q-3 -15 -8 -32 l85 0 l0 -18 l-90 0 l-9 -33 l108 0 l0 -17 l-113 0 q-4 -17 -10 -32 l108 0 l0 -19 l-54 -53 l34 -16 l-12 -17 q-35 20 -88 46 q-14 7 -21 11 l10 16 q10 -5 30 -15 q19 -10 29 -15 l47 45 l-104 0 l0 18 q1 4 4 13 q4 12 6 18 l-39 0 l0 17 l44 0 l9 33 l-41 0 ZM13 68 q-3 14 -7 24 q34 50 52 117 l20 -5 q-8 -27 -19 -53 l0 -179 l-19 0 l0 139 q-13 -24 -27 -43 Z" /><glyph glyph-name="" unicode="&#x4f4d;" d="M75 -17 l0 17 l88 0 q30 82 44 130 l21 -6 q-25 -73 -44 -124 l66 0 l0 -17 l-175 0 ZM13 70 q-1 6 -5 17 q-1 5 -2 7 q34 51 53 116 l20 -6 q-9 -27 -20 -51 l0 -183 l-19 0 l0 142 q-1 -2 -4 -6 q-14 -24 -23 -36 ZM82 146 l0 19 l77 0 q-10 26 -15 41 l21 4 q3 -9 10 -28 q3 -9 5 -14 l-15 -3 l78 0 l0 -19 l-161 0 ZM126 21 q-14 54 -31 103 l20 6 q5 -16 16 -51 q11 -36 16 -52 l-21 -6 Z" /><glyph glyph-name="" unicode="&#x4f4e;" d="M95 -20 l-12 17 q9 8 8 23 l0 170 q75 1 146 10 l6 -18 q-33 -3 -61 -6 q0 -29 2 -62 l63 0 l0 -18 l-62 0 q5 -59 23 -89 q6 -9 14 -10 q6 0 8 8 q0 3 1 11 q2 14 3 22 q1 0 2 -1 q11 -4 15 -5 q0 -4 -1 -11 q-1 -14 -4 -25 q-4 -21 -24 -21 q-18 0 -32 25 q-20 30 -25 96 l-54 0 l0 -85 q23 12 44 24 q0 -9 3 -19 q-34 -16 -48 -25 q-7 -5 -15 -11 ZM38 -29 l0 141 q-13 -21 -27 -39 q-4 12 -6 24 q37 50 56 113 l20 -6 q-13 -34 -24 -57 l0 -176 l-19 0 ZM164 114 q-2 28 -2 61 q-27 -1 -51 -3 l0 -58 l53 0 ZM159 -29 q-4 6 -15 20 q-5 6 -8 9 l15 7 q8 -7 19 -19 q4 -5 6 -7 l-17 -10 Z" /><glyph glyph-name="" unicode="&#x4f4f;" d="M88 147 l0 19 l154 0 l0 -19 l-66 0 l0 -58 l59 0 l0 -20 l-59 0 l0 -67 l73 0 l0 -17 l-168 0 l0 17 l74 0 l0 67 l-60 0 l0 20 l60 0 l0 58 l-67 0 ZM13 68 q-1 4 -3 12 q-3 8 -4 12 q35 49 59 118 l21 -5 q-2 -6 -7 -17 q-4 -11 -16 -37 l0 -180 l-21 0 l0 142 q-12 -22 -29 -45 ZM161 166 q-9 26 -14 40 l20 4 q5 -12 14 -39 l-20 -5 Z" /><glyph glyph-name="" unicode="&#x4f53;" d="M77 142 l0 18 l68 0 l0 49 l20 0 l0 -49 l74 0 l0 -18 l-63 0 q24 -66 74 -107 q-7 -8 -12 -19 q-52 48 -73 115 l0 -95 l39 0 l0 -18 l-39 0 l0 -47 l-20 0 l0 47 l-39 0 l0 18 l39 0 l0 95 q-23 -73 -72 -119 q-4 7 -13 18 q52 46 74 112 l-57 0 ZM37 -29 l0 137 q-12 -20 -25 -37 q-2 5 -4 14 q-2 7 -3 10 q35 50 54 114 l20 -4 q-11 -32 -23 -59 l0 -175 l-19 0 Z" /><glyph glyph-name="" unicode="&#x4f5c;" d="M89 96 q-6 8 -15 15 q32 39 52 99 l20 -4 q-3 -10 -11 -29 q-1 -3 -2 -5 l116 0 l0 -19 l-87 0 l0 -43 l73 0 l0 -19 l-73 0 l0 -44 l80 0 l0 -19 l-80 0 l0 -57 l-20 0 l0 182 l-18 0 q-15 -31 -35 -57 ZM14 69 q-3 12 -8 22 q33 49 55 119 l20 -5 q-9 -28 -21 -55 l0 -179 l-20 0 l0 140 q-12 -22 -26 -42 Z" /><glyph glyph-name="" unicode="&#x4f60;" d="M13 68 q-1 4 -3 12 q-3 9 -4 12 q38 54 56 118 l21 -5 q-9 -30 -23 -58 l0 -176 l-20 0 l0 138 q-12 -23 -27 -41 ZM229 111 q-10 2 -20 5 l16 38 l-102 0 q-12 -25 -27 -47 q-8 7 -16 12 q28 41 45 90 l21 -5 q-6 -16 -14 -31 l113 0 l0 -19 l-16 -43 ZM115 -26 q0 3 -2 8 q-1 9 -2 13 q12 -1 26 -1 q19 -1 18 15 l0 124 l21 0 l0 -127 q1 -30 -32 -31 q-9 -1 -29 -1 ZM230 10 q-21 54 -35 83 l18 6 q20 -43 36 -81 l-19 -8 ZM98 9 q-7 4 -19 8 q19 35 36 83 l19 -7 q-18 -46 -36 -84 Z" /><glyph glyph-name="" unicode="&#x4f7f;" d="M238 -27 q-68 8 -100 27 q-19 -15 -61 -30 q-4 8 -12 17 q46 14 57 23 q-16 13 -31 36 l15 10 q13 -21 29 -33 q11 15 14 42 l-64 0 l0 70 l66 0 l0 26 l-74 0 l0 17 l74 0 l0 31 l20 0 l0 -31 l76 0 l0 -17 l-76 0 l0 -26 l65 0 l0 -77 l-19 0 l0 7 l-48 0 q-3 -34 -17 -53 q26 -15 95 -20 q-6 -10 -9 -19 ZM35 -29 l0 136 q-10 -19 -22 -36 q-3 12 -7 24 q33 52 50 114 l20 -4 q-9 -31 -22 -60 l0 -174 l-19 0 ZM170 100 q0 -10 0 -18 l47 0 l0 37 l-47 0 l0 -19 ZM150 82 q1 6 1 18 l0 19 l-47 0 l0 -37 l46 0 Z" /><glyph glyph-name="" unicode="&#x4f8b;" d="M79 178 l0 18 l88 0 l0 -18 l-45 0 q-1 -5 -3 -15 q-3 -14 -5 -21 l45 0 l0 -12 q-6 -103 -77 -158 q-6 6 -14 14 q66 50 74 139 l-33 0 q-5 -15 -11 -29 q6 -4 16 -11 q10 -8 15 -12 l-12 -15 q-4 4 -13 12 q-8 7 -13 11 q-7 -14 -17 -29 q-2 4 -8 11 q-2 3 -3 4 q29 45 41 111 l-25 0 ZM37 -29 l0 141 q-2 -3 -4 -8 q-12 -23 -20 -35 q-4 14 -6 25 q28 45 48 116 l18 -3 q-7 -30 -18 -55 l0 -181 l-18 0 ZM179 -25 q-1 10 -4 21 q10 -1 29 -1 q18 -1 17 14 l0 199 l18 0 l0 -202 q1 -29 -27 -30 q-11 -1 -33 -1 ZM177 29 l0 144 l18 0 l0 -144 l-18 0 Z" /><glyph glyph-name="" unicode="&#x4f9b;" d="M81 139 l0 18 l31 0 l0 52 l20 0 l0 -52 l54 0 l0 52 l20 0 l0 -52 l33 0 l0 -18 l-33 0 l0 -70 l42 0 l0 -19 l-177 0 l0 19 l41 0 l0 70 l-31 0 ZM12 73 q-1 4 -3 13 q-2 9 -3 13 q35 48 53 110 l20 -5 q-1 -4 -4 -12 q-10 -28 -17 -42 l0 -179 l-20 0 l0 142 q-11 -21 -26 -40 ZM132 139 l0 -70 l54 0 l0 70 l-54 0 ZM86 -28 q-4 4 -16 14 q32 23 57 53 l17 -11 q-29 -32 -58 -56 ZM232 -28 q-20 21 -57 55 l15 13 q21 -20 14 -13 q28 -26 44 -41 l-16 -14 Z" /><glyph glyph-name="" unicode="&#x4fdd;" d="M92 115 l0 83 l136 0 l0 -83 l-136 0 ZM70 64 l0 18 l80 0 l0 29 l19 0 l0 -29 l79 0 l0 -18 l-66 0 q21 -38 67 -59 q-7 -9 -11 -16 q-49 26 -69 68 l0 -86 l-19 0 l0 85 q-26 -47 -73 -70 q0 1 -2 2 q-6 10 -10 12 q48 26 71 64 l-66 0 ZM36 -28 l0 136 q-10 -19 -23 -38 q-1 4 -4 12 q-2 8 -3 12 q34 53 49 115 l20 -5 q-9 -30 -20 -57 l0 -175 l-19 0 ZM111 180 l0 -47 l98 0 l0 47 l-98 0 Z" /><glyph glyph-name="" unicode="&#x4fe1;" d="M92 -29 l0 86 l141 0 l0 -86 l-19 0 l0 14 l-103 0 l0 -14 l-19 0 ZM36 -29 l0 138 q-11 -20 -23 -38 q-1 4 -3 12 q-3 8 -4 12 q34 52 51 114 l20 -5 q-10 -29 -22 -56 l0 -177 l-19 0 ZM111 40 l0 -39 l103 0 l0 39 l-103 0 ZM78 161 l0 18 l78 0 q-6 14 -12 27 l21 4 q5 -12 13 -30 l-6 -1 l76 0 l0 -18 l-170 0 ZM91 121 l0 16 l143 0 l0 -16 l-143 0 ZM91 81 l0 16 l143 0 l0 -16 l-143 0 Z" /><glyph glyph-name="" unicode="&#x4fee;" d="M242 92 q-40 10 -67 25 q-27 -16 -70 -30 q-3 8 -8 16 q38 11 63 24 q-16 12 -29 29 q-9 -12 -21 -25 q-2 2 -6 7 q-4 4 -6 6 q30 32 45 66 l19 -4 q-1 -2 -3 -6 q-2 -4 -8 -13 l80 0 l0 -17 q-20 -28 -40 -42 q24 -12 59 -18 q-5 -9 -8 -18 ZM34 -29 l0 140 q-11 -21 -22 -40 q-3 14 -6 24 q28 50 43 115 l19 -4 q-6 -26 -16 -53 l0 -182 l-18 0 ZM73 14 l0 156 l18 0 l0 -156 l-18 0 ZM102 -29 q-1 2 -4 8 q-3 5 -5 8 q84 18 140 59 l11 -14 q-56 -40 -142 -61 ZM116 11 q-2 4 -7 13 q-1 2 -2 3 q64 20 106 50 l11 -13 q-48 -33 -108 -53 ZM116 50 q-2 4 -7 13 q-1 2 -2 3 q47 14 82 37 l11 -13 q-37 -23 -84 -40 ZM210 170 l-69 0 q13 -19 34 -33 q21 14 35 33 Z" /><glyph glyph-name="" unicode="&#x500d;" d="M94 -29 l0 96 l135 0 l0 -96 l-19 0 l0 15 l-97 0 l0 -15 l-19 0 ZM34 -29 l0 135 q-11 -19 -23 -36 q-1 6 -4 16 q-1 5 -2 8 q36 56 51 115 l20 -5 q-5 -18 -19 -53 q-2 -4 -3 -7 l0 -173 l-20 0 ZM113 50 l0 -49 l97 0 l0 49 l-97 0 ZM83 159 l0 17 l75 0 q-7 15 -15 29 l20 5 q9 -15 16 -30 l-12 -4 l74 0 l0 -17 l-158 0 ZM74 93 l0 18 l175 0 l0 -18 l-175 0 ZM195 111 l-17 7 q14 19 24 37 l18 -7 q-14 -22 -25 -37 ZM128 112 q-12 18 -25 34 l17 9 q13 -16 25 -33 l-17 -10 Z" /><glyph glyph-name="" unicode="&#x505a;" d="M238 -26 q-27 25 -39 41 q-16 -21 -44 -45 q-4 8 -12 16 q32 26 46 48 q-15 28 -21 77 q-2 -3 -5 -10 q-4 -6 -6 -10 q-1 3 -5 9 q-3 6 -5 8 q25 44 37 101 l19 -2 q-6 -23 -13 -44 l58 0 l0 -17 l-12 0 q-5 -75 -26 -113 q15 -22 40 -40 q-7 -10 -12 -19 ZM65 142 l0 18 l36 0 l0 48 l19 0 l0 -48 l35 0 l0 -18 l-35 0 l0 -47 l26 0 l0 -92 l-55 0 l0 -14 l-18 0 l0 106 l28 0 l0 47 l-36 0 ZM33 -29 l0 142 q-10 -21 -21 -40 q-1 4 -3 13 q-3 8 -4 12 q27 46 45 111 l18 -4 q-7 -25 -17 -51 l0 -183 l-18 0 ZM199 53 q15 31 19 93 l-34 0 l-2 -6 q4 -57 17 -87 ZM91 78 l0 -58 l38 0 l0 58 l-38 0 Z" /><glyph glyph-name="" unicode="&#x50a8;" d="M126 164 l0 16 l32 0 l0 30 l18 0 l0 -30 l32 0 l0 -16 l-32 0 l0 -34 l11 0 q24 27 42 59 l15 -8 q-13 -24 -35 -51 l39 0 l0 -17 l-54 0 q-12 -12 -27 -24 l64 0 l0 -117 l-17 0 l0 15 l-56 0 l0 -15 l-18 0 l0 97 q-5 -3 -15 -10 q-6 -4 -9 -6 q-2 7 -8 16 q36 20 62 44 l-53 0 l0 17 l41 0 l0 34 l-32 0 ZM33 -29 l0 140 q-4 -8 -13 -24 q-5 -9 -8 -14 q-1 4 -4 15 q-2 7 -3 10 q28 44 43 112 l20 -2 q-2 -6 -5 -18 q-3 -12 -12 -38 l0 -181 l-18 0 ZM85 -16 l-11 14 q7 6 7 18 l0 96 l-19 0 l0 18 l37 0 l0 -114 q9 8 24 19 q2 -10 3 -19 q-14 -12 -29 -21 q-4 -2 -9 -8 q-2 -2 -3 -3 ZM158 73 l0 -28 l56 0 l0 28 l-56 0 ZM158 30 l0 -28 l56 0 l0 28 l-56 0 ZM96 150 q-4 10 -13 29 q-5 9 -7 14 l15 6 q12 -19 22 -42 l-17 -7 Z" /><glyph glyph-name="" unicode="&#x50cf;" d="M79 137 q-1 2 -6 7 q-4 5 -6 7 q37 24 58 60 l20 -3 q-2 -2 -4 -7 q-5 -7 -7 -10 l70 0 l0 -14 l-21 -23 l51 0 l0 -53 l-77 0 q-3 -3 -6 -6 q15 -15 21 -27 q31 17 50 31 l11 -13 q-8 -5 -22 -14 q-5 -3 -7 -4 q9 -42 43 -66 q-4 -3 -11 -12 q1 1 -1 -2 q-36 27 -45 72 l-12 -6 q5 -22 5 -42 q1 -36 -37 -37 q-7 -1 -24 -1 q0 2 -1 6 q-1 7 -2 12 q1 0 3 0 q9 -2 19 -2 q25 -1 24 23 q0 4 0 10 q-1 7 -1 10 q-30 -31 -89 -53 q-4 7 -10 15 q60 18 95 54 q-3 8 -6 15 q-30 -30 -79 -47 q-1 3 -4 7 q-3 5 -5 7 q52 16 81 44 q-1 2 -4 5 q-2 3 -4 4 q-22 -17 -64 -32 q-5 7 -10 15 q52 16 71 34 l-50 0 l0 41 l-7 -5 ZM12 71 q-3 12 -7 24 q32 48 50 114 l19 -4 q-9 -30 -20 -56 l0 -177 l-18 0 l0 138 q-3 -4 -8 -13 q-10 -17 -16 -26 ZM181 176 l-59 0 q-10 -12 -22 -22 l61 0 l20 22 ZM216 116 l0 24 l-44 0 q-3 -15 -7 -24 l51 0 ZM104 140 l0 -24 l42 0 q5 8 8 24 l-50 0 Z" /><glyph glyph-name="" unicode="&#x513f;" d="M24 -27 q-8 8 -17 17 q37 26 49 54 q12 27 12 81 l0 80 l21 0 l0 -82 q0 -57 -13 -88 q-13 -32 -52 -62 ZM181 -21 q-36 -1 -35 36 l0 191 l21 0 l0 -188 q-1 -19 18 -18 l16 0 q21 -1 23 17 q3 19 4 46 q2 -1 6 -2 q6 -1 15 -3 q0 -5 -1 -13 q-3 -26 -5 -38 q-5 -29 -41 -28 l-21 0 Z" /><glyph glyph-name="" unicode="&#x5148;" d="M38 110 q-7 6 -18 12 q26 33 43 81 l20 -4 q-1 -3 -4 -10 q-3 -10 -10 -25 l55 0 l0 46 l21 0 l0 -46 l86 0 l0 -19 l-86 0 l0 -48 l101 0 l0 -19 l-78 0 l0 -67 q-1 -15 17 -14 l23 0 q18 -1 20 13 q2 14 3 31 q3 -1 10 -3 q7 -2 10 -3 q-3 -22 -5 -33 q-5 -24 -35 -24 l-32 0 q-32 -1 -31 29 l0 71 l-49 0 q0 -6 0 -12 q-2 -66 -80 -95 q-6 10 -12 19 q71 20 71 77 l1 11 l-68 0 l0 19 l113 0 l0 48 l-64 0 q-10 -18 -22 -35 Z" /><glyph glyph-name="" unicode="&#x5149;" d="M9 89 l0 19 l109 0 l0 102 l20 0 l0 -102 l110 0 l0 -19 l-80 0 l0 -78 q0 -15 18 -15 l22 0 q16 -1 19 13 q2 13 3 34 q4 -1 13 -4 q5 -2 7 -3 q0 -3 -1 -9 q-2 -17 -4 -26 q-5 -25 -35 -24 l-30 0 q-32 0 -32 30 l0 82 l-49 0 q0 -3 -1 -9 q0 -5 0 -7 q-2 -72 -79 -102 q-2 3 -7 9 q-4 6 -6 9 q70 23 71 85 q1 5 1 15 l-69 0 ZM182 125 l-16 14 q15 14 39 42 q6 7 9 10 l16 -12 q-22 -25 -48 -54 ZM70 127 q-23 29 -45 53 l16 11 q7 -7 20 -22 q17 -18 26 -28 l-17 -14 Z" /><glyph glyph-name="" unicode="&#x5168;" d="M52 100 l0 19 l152 0 l0 -19 l-66 0 l0 -39 l79 0 l0 -18 l-79 0 l0 -43 l101 0 l0 -17 l-223 0 l0 17 l101 0 l0 43 l-78 0 l0 18 l78 0 l0 39 l-65 0 ZM237 105 q-74 36 -108 83 q-44 -52 -111 -86 q-1 2 -4 6 q-6 9 -8 12 q80 41 115 92 l24 -3 l-5 -7 q40 -50 109 -79 q-2 -3 -8 -12 q-3 -4 -4 -6 Z" /><glyph glyph-name="" unicode="&#x5174;" d="M8 74 l0 19 l240 0 l0 -19 l-240 0 ZM28 -27 q-11 11 -15 16 q38 26 74 69 l17 -13 q-33 -37 -76 -72 ZM227 -26 q-21 23 -75 71 l15 13 q24 -22 63 -57 q9 -7 13 -11 l-16 -16 ZM62 111 q-18 35 -38 70 l18 9 q14 -24 39 -69 l-19 -10 ZM190 111 l-18 10 q24 35 44 73 l19 -9 q-20 -38 -45 -74 ZM127 120 q-5 24 -19 71 q-2 6 -3 9 l20 5 q6 -20 16 -55 q4 -16 7 -25 l-21 -5 Z" /><glyph glyph-name="" unicode="&#x5177;" d="M7 23 l0 17 l33 0 l0 159 l176 0 l0 -159 l33 0 l0 -17 l-242 0 ZM60 65 l0 -25 l136 0 l0 25 l-136 0 ZM60 104 l0 -25 l136 0 l0 25 l-136 0 ZM60 182 l0 -24 l136 0 l0 24 l-136 0 ZM60 143 l0 -24 l136 0 l0 24 l-136 0 ZM21 -30 q-1 4 -7 12 q-2 4 -3 5 q46 13 85 29 l10 -16 q-6 -1 -17 -6 q-45 -18 -68 -24 ZM236 -28 q-47 17 -86 28 l8 14 q64 -17 87 -25 l-9 -17 Z" /><glyph glyph-name="" unicode="&#x5185;" d="M68 29 q-2 2 -7 8 q-6 6 -8 9 q69 33 65 97 q0 2 0 4 l-71 0 l0 -173 l-21 0 l0 193 l92 0 q1 18 1 42 l21 0 q0 -24 0 -42 l89 0 l0 -158 q0 -32 -33 -33 q-21 0 -40 0 q0 1 -1 5 q0 4 -3 17 q14 -1 36 -1 q21 -1 20 17 l0 133 l-69 0 q-1 -2 -1 -4 q0 -21 -5 -38 l1 0 q43 -35 66 -57 l-15 -15 q-41 39 -58 54 q-14 -29 -59 -58 Z" /><glyph glyph-name="" unicode="&#x518c;" d="M134 -29 q-2 2 -8 6 q-5 5 -8 7 q15 22 19 43 q5 20 5 62 l-29 0 l0 -82 q0 -25 -24 -25 q-7 -1 -25 -1 q-1 4 -3 12 q-1 5 -1 7 q9 0 20 0 q15 -2 14 12 l0 77 l-42 0 q2 -76 -26 -118 q-2 2 -8 6 q-5 5 -8 7 q25 35 24 105 l-27 0 l0 20 l27 0 l0 89 l79 0 l0 -89 l29 0 l0 89 l82 0 l0 -89 l24 0 l0 -20 l-24 0 l0 -87 q1 -26 -26 -26 q-13 0 -27 0 q0 3 -1 9 q-1 7 -2 10 q13 0 22 0 q16 -1 15 12 l0 82 l-44 0 q0 -45 -5 -69 q-6 -23 -22 -49 ZM161 180 l0 -71 l44 0 l0 71 l-44 0 ZM52 180 l0 -71 l42 0 l0 71 l-42 0 Z" /><glyph glyph-name="" unicode="&#x518d;" d="M15 179 l0 18 l226 0 l0 -18 l-104 0 l0 -28 l82 0 l0 -98 l29 0 l0 -18 l-29 0 l0 -32 q2 -28 -32 -28 q-20 0 -35 0 q0 3 -2 13 q-1 4 -1 6 q12 0 33 0 q18 -1 17 12 l0 29 l-142 0 l0 -63 l-20 0 l0 63 l-30 0 l0 18 l30 0 l0 98 l81 0 l0 28 l-103 0 ZM137 86 l0 -33 l62 0 l0 33 l-62 0 ZM57 86 l0 -33 l61 0 l0 33 l-61 0 ZM199 134 l-62 0 l0 -32 l62 0 l0 32 ZM57 134 l0 -32 l61 0 l0 32 l-61 0 Z" /><glyph glyph-name="" unicode="&#x51b3;" d="M69 68 l0 19 l62 0 q2 27 2 61 l-51 0 l0 19 l51 0 l0 42 l21 0 q0 -24 0 -42 l67 0 l0 -80 l27 0 l0 -19 l-90 0 q24 -55 89 -74 q-3 -4 -8 -13 q-3 -5 -5 -7 q-70 29 -90 84 q-11 -47 -80 -87 q-6 8 -15 17 q69 35 79 80 l-59 0 ZM201 148 l-47 0 q0 -11 -1 -30 q0 -22 -1 -31 l49 0 l0 61 ZM27 -10 l-20 10 q21 48 40 101 q9 -4 19 -9 q-13 -31 -39 -102 ZM53 130 q-22 30 -41 53 l16 10 q3 -3 8 -10 q24 -29 34 -42 l-17 -11 Z" /><glyph glyph-name="" unicode="&#x51b5;" d="M83 85 l0 113 l146 0 l0 -113 l-41 0 l0 -75 q-1 -14 13 -13 l12 0 q13 -1 15 11 q1 4 2 21 q1 8 1 11 q11 -6 18 -7 q0 -1 0 -4 q-2 -23 -4 -29 q-4 -22 -30 -22 l-19 0 q-28 -1 -28 29 l0 78 l-31 0 q0 -48 -15 -70 q-13 -23 -56 -45 q-6 9 -14 17 q41 19 52 38 q13 17 13 60 l-34 0 ZM104 179 l0 -76 l105 0 l0 76 l-105 0 ZM27 -16 l-20 11 q18 36 39 96 q3 -1 13 -6 q-7 3 7 -3 q-13 -31 -39 -98 ZM47 131 q-5 7 -14 20 q-16 22 -24 33 l17 10 q8 -10 21 -29 q12 -16 18 -24 l-18 -10 Z" /><glyph glyph-name="" unicode="&#x51c0;" d="M78 130 q-6 8 -13 15 q35 27 58 66 l20 -4 q-6 -10 -13 -19 l76 0 l0 -17 l-26 -29 l47 0 l0 -45 l21 0 l0 -17 l-21 0 l0 -60 l-20 0 l0 14 l-47 0 l0 -27 q1 -31 -34 -32 q-14 0 -28 0 q0 1 -1 4 q-1 11 -3 16 q7 -1 25 -1 q22 -1 21 18 l0 22 l-62 0 l0 17 l62 0 l0 29 l-73 0 l0 17 l73 0 l0 28 l-56 0 l0 10 l-6 -5 ZM30 -7 l-20 7 q12 35 26 91 q6 -3 20 -7 q-7 -22 -22 -77 q-3 -9 -4 -14 ZM183 172 l-65 0 q-12 -16 -27 -30 l66 0 l26 30 ZM160 80 l0 -29 l47 0 l0 29 l-47 0 ZM207 125 l-47 0 l0 -28 l47 0 l0 28 ZM40 125 q-11 27 -28 62 l18 7 q3 -7 10 -21 q14 -28 19 -40 l-19 -8 Z" /><glyph glyph-name="" unicode="&#x51c6;" d="M88 -29 l0 152 q-2 -3 -6 -8 q-4 -6 -16 -20 q-2 5 -8 14 q-1 3 -2 4 q38 46 57 97 l20 -5 q-9 -21 -19 -40 l61 0 q-5 13 -20 37 l19 6 q6 -10 17 -31 q-1 2 3 -5 l-18 -7 l70 0 l0 -17 l-61 0 l0 -36 l58 0 l0 -17 l-58 0 l0 -37 l58 0 l0 -17 l-58 0 l0 -37 l63 0 l0 -15 l-140 0 l0 -18 l-20 0 ZM31 -18 l-21 8 q16 44 31 97 q3 -1 8 -2 q7 -3 12 -4 q-20 -60 -30 -99 ZM108 41 l0 -37 l57 0 l0 37 l-57 0 ZM108 95 l0 -37 l57 0 l0 37 l-57 0 ZM108 148 l0 -36 l57 0 l0 36 l-57 0 ZM42 128 q-1 1 -2 4 q-12 29 -27 57 l18 7 q3 -7 10 -20 q13 -25 20 -40 l-19 -8 Z" /><glyph glyph-name="" unicode="&#x51cf;" d="M224 -25 q-20 -1 -31 30 l-3 8 q-16 -20 -37 -40 q-6 6 -14 12 q27 23 45 51 q-7 32 -10 100 l-1 16 l-86 0 l0 -45 q0 -52 -6 -78 q-6 -27 -26 -56 q-8 5 -17 11 q34 41 31 122 l0 63 l103 0 q0 16 0 41 l18 0 q0 -28 1 -41 l57 0 l0 -17 l-57 0 l1 -14 q0 -5 1 -15 q2 -47 5 -64 q16 32 27 69 l17 -7 q-18 -55 -39 -88 q3 -12 7 -21 q7 -16 13 -16 q6 -1 7 7 q1 12 4 37 l16 -6 q-2 -21 -5 -36 q-3 -23 -21 -23 ZM102 14 l0 77 l58 0 l0 -77 l-58 0 ZM26 0 l-19 5 q15 42 28 92 q3 -1 12 -4 q4 -1 6 -2 q-3 -11 -11 -37 q-11 -38 -16 -54 ZM117 75 l0 -46 l27 0 l0 46 l-27 0 ZM39 129 q-15 30 -28 56 l17 7 q1 -2 3 -6 q19 -35 26 -50 l-18 -7 ZM99 114 l0 16 l64 0 l0 -16 l-64 0 ZM225 171 q-6 8 -25 24 l11 9 q4 -3 13 -11 q10 -8 14 -11 l-13 -11 Z" /><glyph glyph-name="" unicode="&#x51fa;" d="M31 99 l0 86 l20 0 l0 -67 l66 0 l0 90 l21 0 l0 -90 l66 0 l0 67 l20 0 l0 -86 l-86 0 l0 -98 l73 0 l0 68 l20 0 l0 -95 l-20 0 l0 10 l-188 0 l0 85 l21 0 l0 -68 l73 0 l0 98 l-86 0 Z" /><glyph glyph-name="" unicode="&#x5206;" d="M115 -23 q-1 10 -3 21 q4 0 16 0 q15 -1 23 -1 q27 -2 28 26 q1 10 2 31 q1 22 1 31 l-78 0 q-1 -16 -4 -30 q-7 -55 -75 -85 q-5 8 -12 17 q59 24 67 71 q3 13 3 27 l-43 0 l0 19 l163 0 q-2 -59 -4 -84 q-1 -43 -46 -42 q-23 -1 -38 -1 ZM236 94 q-63 38 -91 109 l19 7 q27 -67 85 -97 q-8 -12 -13 -19 ZM18 93 q-2 5 -10 15 q-1 3 -2 4 q55 36 85 95 l20 -9 q-38 -67 -93 -105 Z" /><glyph glyph-name="" unicode="&#x5207;" d="M154 -22 q-2 12 -5 22 q8 -1 35 -1 q26 -2 26 25 q2 30 5 119 q1 25 1 32 l-57 0 q0 -31 -2 -60 q-2 -102 -64 -144 q-2 2 -7 6 q-6 5 -9 8 q59 42 59 128 q2 36 2 62 l-42 0 l0 20 l141 0 q0 -4 0 -14 q-4 -126 -6 -161 q0 -42 -42 -41 q-14 -1 -35 -1 ZM8 116 l-2 20 l31 3 l0 71 l20 0 l0 -69 l46 5 l1 -20 l-47 -5 l0 -84 q27 21 45 34 q3 -15 5 -21 q-4 -3 -12 -9 q-29 -21 -38 -29 q-10 -10 -13 -12 l-16 15 q10 10 9 26 l0 78 l-29 -3 Z" /><glyph glyph-name="" unicode="&#x5217;" d="M16 179 l0 19 l131 0 l0 -19 l-64 0 q-6 -20 -13 -38 l64 0 l0 -18 q-16 -97 -104 -152 q-6 8 -14 16 q81 48 99 135 l-53 0 q-1 -2 -4 -7 q-4 -9 -8 -14 q9 -6 24 -19 q11 -10 17 -14 l-14 -16 q-19 19 -37 34 q-10 -14 -23 -29 q-6 7 -12 16 q43 48 57 106 l-46 0 ZM167 -26 q0 3 -2 11 q-1 7 -2 11 q10 -1 32 -1 q21 -1 20 16 l0 196 l20 0 l0 -200 q1 -31 -31 -32 q-6 0 -19 -1 q-13 0 -18 0 ZM161 30 l0 148 l19 0 l0 -148 l-19 0 Z" /><glyph glyph-name="" unicode="&#x5219;" d="M22 41 l0 156 l110 0 l0 -156 l-19 0 l0 138 l-73 0 l0 -138 l-18 0 ZM19 -30 q0 1 -1 2 q-7 9 -12 14 q38 22 49 42 q12 20 12 66 q1 25 1 65 l19 0 q0 -44 -1 -65 q-1 -35 -6 -50 l1 1 q30 -25 64 -54 l-14 -15 q-22 22 -56 51 q-11 -28 -56 -57 ZM168 -25 q0 1 -1 4 q-1 11 -3 16 q15 0 32 0 q21 -2 19 17 l0 195 l19 0 l0 -200 q1 -32 -31 -32 q-17 0 -35 0 ZM164 35 l0 148 l19 0 l0 -148 l-19 0 Z" /><glyph glyph-name="" unicode="&#x521a;" d="M17 -27 l0 223 l131 0 l0 -191 q2 -29 -28 -29 q-15 -1 -32 -1 q-1 10 -4 19 q11 0 29 0 q18 -1 17 14 l0 170 l-94 0 l0 -205 l-19 0 ZM177 -27 q-1 12 -4 21 q6 -1 27 -1 q21 -1 20 17 l0 199 l19 0 l0 -203 q2 -32 -33 -32 q-3 0 -11 0 q-11 -1 -18 -1 ZM52 16 q-3 5 -10 11 q-2 2 -3 3 q21 30 36 57 q-7 13 -21 38 q-9 15 -13 23 l15 8 q15 -24 28 -50 q8 15 19 47 q1 3 2 5 l17 -7 q-12 -31 -28 -63 q17 -32 29 -58 l-16 -9 q-11 24 -23 48 q-15 -30 -32 -53 ZM175 29 l0 153 l18 0 l0 -153 l-18 0 Z" /><glyph glyph-name="" unicode="&#x521b;" d="M138 127 q-20 22 -54 56 q-19 -33 -51 -60 l100 0 q0 -26 -2 -52 q-2 -32 -33 -32 q-13 0 -27 0 q-1 9 -4 18 q13 0 26 0 q18 -1 20 17 q0 4 0 14 q1 12 1 18 l-64 0 l0 -93 q-1 -17 20 -16 l34 0 q20 0 24 11 q1 5 3 15 q1 8 2 12 q3 -1 8 -3 q7 -2 11 -3 q-3 -17 -7 -29 q-6 -23 -37 -22 l-43 0 q-34 -1 -33 32 l0 112 q-2 -2 -8 -6 q-5 -5 -8 -7 q-4 9 -10 18 q48 34 73 84 l21 -3 l-6 -10 q18 -17 48 -45 q-6 5 11 -11 l-15 -15 ZM173 -25 q0 3 -2 10 q-1 7 -2 11 q11 -1 31 -1 q17 0 17 15 l0 199 l19 0 l0 -203 q1 -30 -30 -30 q-16 -1 -33 -1 ZM164 30 l0 153 l18 0 l0 -153 l-18 0 Z" /><glyph glyph-name="" unicode="&#x5229;" d="M9 115 l0 18 l55 0 l0 43 q-14 -2 -41 -3 q-5 -1 -7 -1 q-2 6 -3 15 q-1 2 -1 3 q57 3 116 10 l5 -17 q-23 -3 -50 -6 l0 -44 l55 0 l0 -18 l-55 0 l0 -31 l8 8 q38 -31 49 -42 l-14 -14 q-15 15 -43 39 l0 -103 l-19 0 l0 110 q-17 -40 -50 -74 q-1 4 -4 13 q-3 9 -4 12 q37 33 56 82 l-53 0 ZM168 -25 q-1 6 -3 14 q-1 5 -1 7 q17 0 36 0 q16 -1 15 14 l0 198 l20 0 l0 -202 q1 -29 -29 -30 q-3 0 -17 0 q-16 -1 -21 -1 ZM154 30 l0 151 l19 0 l0 -151 l-19 0 Z" /><glyph glyph-name="" unicode="&#x522b;" d="M22 115 l0 82 l111 0 l0 -82 l-111 0 ZM66 -24 q0 3 -2 10 q-1 7 -2 11 q9 -1 28 -1 q23 -1 23 20 q2 26 2 50 l-45 0 q-1 -59 -50 -95 q-4 5 -15 14 q45 31 46 81 l-38 0 l0 17 l39 0 q0 3 0 11 q1 8 1 13 l19 0 l-1 -24 l64 0 q0 -25 -2 -71 q-1 -36 -37 -35 l-30 -1 ZM166 -25 q-1 10 -4 21 q9 -1 33 -1 q23 -1 21 16 l0 197 l20 0 l0 -201 q2 -31 -34 -32 q-18 0 -36 0 ZM41 179 l0 -46 l72 0 l0 46 l-72 0 ZM164 30 l0 153 l19 0 l0 -153 l-19 0 Z" /><glyph glyph-name="" unicode="&#x5230;" d="M10 178 l0 18 l137 0 l0 -18 l-68 0 q-13 -23 -37 -55 l70 4 q-3 4 -9 14 q-6 8 -9 13 l15 8 q22 -31 38 -58 l-16 -9 q-3 3 -6 10 q-2 3 -3 5 q-55 -2 -77 -4 q-3 0 -8 -1 q-11 -1 -16 -2 l-8 18 q9 6 12 10 q18 24 32 47 l-47 0 ZM14 51 l0 17 l55 0 l0 29 l19 0 l0 -29 l54 0 l0 -17 l-54 0 l0 -45 l60 7 q-1 -5 -1 -17 q-35 -3 -111 -13 q-16 -2 -25 -3 l-4 20 q17 0 55 3 q-26 -2 7 1 l0 47 l-55 0 ZM172 -25 q-1 14 -4 21 q8 -1 33 -1 q16 0 16 15 l0 198 l20 0 l0 -202 q1 -30 -30 -30 q-7 -1 -35 -1 ZM164 30 l0 153 l19 0 l0 -153 l-19 0 Z" /><glyph glyph-name="" unicode="&#x5236;" d="M7 104 l0 17 l69 0 l0 34 l-38 0 q-5 -13 -11 -25 l-17 7 q17 29 24 62 l18 -3 q-1 -4 -3 -12 q-3 -8 -4 -12 l31 0 l0 37 l19 0 l0 -37 l51 0 l0 -17 l-51 0 l0 -34 l62 0 l0 -17 l-62 0 l0 -30 l53 0 l0 -59 q1 -22 -22 -23 q-8 -1 -19 -1 q0 1 0 2 q-1 6 -4 13 q7 0 16 0 q12 -1 11 11 l0 41 l-35 0 l0 -88 l-19 0 l0 88 l-35 0 l0 -70 l-18 0 l0 86 l53 0 l0 30 l-69 0 ZM176 -25 q-1 3 -2 10 q-2 7 -3 10 q11 -1 30 -1 q18 -1 17 15 l0 200 l19 0 l0 -202 q1 -32 -29 -32 q-17 0 -32 0 ZM170 34 l0 150 l19 0 l0 -150 l-19 0 Z" /><glyph glyph-name="" unicode="&#x5237;" d="M19 -26 l-14 13 q14 24 18 47 q4 22 4 73 l0 90 l129 0 l0 -66 l-112 0 l0 -25 q0 -54 -5 -78 q-4 -26 -20 -54 ZM115 -29 l-16 0 l0 111 l-25 0 l0 -85 l-16 0 l0 102 l40 0 l0 22 l18 0 l0 -22 l41 0 l0 -78 q1 -22 -19 -21 q-9 -1 -17 -1 q0 2 -2 10 q-1 3 -1 5 q8 0 15 0 q9 -1 8 10 l0 58 l-26 0 l0 -111 ZM179 -25 q-1 10 -4 20 q15 -1 26 -1 q18 -1 17 15 l0 200 l18 0 l0 -205 q1 -28 -27 -28 q-10 -1 -30 -1 ZM44 180 l0 -33 l94 0 l0 33 l-94 0 ZM178 34 l0 149 l17 0 l0 -149 l-17 0 Z" /><glyph glyph-name="" unicode="&#x523b;" d="M19 17 q-4 9 -12 17 q42 23 70 58 q-6 0 -17 -1 q-11 0 -16 0 q-4 0 -10 -1 q-7 0 -10 -1 l-7 17 q9 6 14 13 q15 17 27 40 l-45 0 l0 18 l67 0 q-3 8 -11 27 q-1 1 -1 2 l20 4 q6 -11 13 -31 l-5 -2 l55 0 l0 -18 l-71 0 q-23 -36 -36 -52 l45 2 q5 8 14 23 q4 7 6 11 l16 -8 q-40 -77 -106 -118 ZM174 -25 q-1 8 -5 21 q10 -1 29 -1 q20 -1 19 17 l0 195 l19 0 l0 -200 q1 -30 -31 -31 q-17 -1 -31 -1 ZM29 -30 q-5 7 -13 16 q77 37 114 112 l17 -8 q-18 -34 -39 -58 q9 -8 26 -22 q15 -11 22 -18 l-14 -15 q-9 9 -27 25 q-13 11 -19 17 q-22 -23 -67 -49 ZM168 29 l0 151 l19 0 l0 -151 l-19 0 Z" /><glyph glyph-name="" unicode="&#x524d;" d="M24 -29 l0 162 l105 0 l0 -132 q1 -25 -27 -25 q-8 -1 -30 -1 q0 10 -3 19 q7 -1 28 -1 q14 -1 13 11 l0 24 l-67 0 l0 -57 l-19 0 ZM8 158 l0 17 l73 0 q-10 14 -24 28 l19 8 q10 -12 27 -32 l-9 -4 l57 0 q9 10 25 30 q3 3 4 5 l20 -7 l-24 -28 l72 0 l0 -17 l-240 0 ZM169 -25 q0 3 -2 10 q-1 6 -2 10 q4 0 12 0 q10 -1 16 -1 q20 -1 19 17 l0 128 l19 0 l0 -132 q2 -31 -30 -31 q-12 -1 -32 -1 ZM160 19 l0 109 l18 0 l0 -109 l-18 0 ZM43 72 l0 -28 l67 0 l0 28 l-67 0 ZM43 116 l0 -28 l67 0 l0 28 l-67 0 Z" /><glyph glyph-name="" unicode="&#x526a;" d="M28 55 l0 97 l104 0 l0 -74 q1 -23 -25 -23 q-11 0 -23 0 q0 2 -1 7 q-1 6 -2 7 q6 0 19 0 q14 -1 13 12 l0 2 l-66 0 l0 -28 l-19 0 ZM22 -31 q-2 4 -7 13 q-2 3 -3 4 q78 12 80 40 l-76 0 l0 15 l213 0 q-1 -8 -3 -26 q-1 -8 -1 -12 q-2 -27 -40 -27 q-10 -1 -47 -1 q0 1 0 2 q-2 11 -4 16 q4 0 19 0 q21 -1 29 -1 q21 -1 23 14 q1 4 2 15 q0 -3 1 5 l-96 0 q-4 -42 -90 -57 ZM10 168 l0 15 l73 0 q-7 11 -18 21 l19 7 q2 -2 6 -7 q12 -13 16 -19 l-3 -2 l50 0 q3 5 10 14 q7 10 10 14 l21 -6 q-9 -11 -17 -22 l70 0 l0 -15 l-237 0 ZM168 56 q-1 3 -2 9 q-2 5 -2 7 q13 0 30 0 q17 -2 15 16 l0 69 l19 0 l0 -72 q1 -29 -26 -29 q-19 0 -34 0 ZM161 89 l0 61 l17 0 l0 -61 l-17 0 ZM47 111 l0 -16 l66 0 l0 16 l-66 0 ZM47 139 l0 -16 l66 0 l0 16 l-66 0 Z" /><glyph glyph-name="" unicode="&#x529b;" d="M24 -28 q-2 2 -5 6 q-7 9 -10 12 q86 44 86 142 q0 2 1 3 l-79 0 l0 20 l80 0 q2 38 2 54 l22 0 q0 -9 -1 -27 q0 -17 -1 -27 l112 0 q-3 -83 -5 -125 q0 -52 -49 -51 q-30 0 -47 0 q-1 12 -4 21 q17 0 45 0 q34 -3 34 38 q3 42 3 97 l-91 0 l0 -1 q-1 -111 -93 -162 Z" /><glyph glyph-name="" unicode="&#x529f;" d="M155 -24 q0 1 0 2 q-1 9 -4 20 q11 -1 36 -1 q26 -2 26 22 q4 60 4 121 l-58 0 l-1 -17 q-2 -105 -70 -152 q-2 1 -6 5 q-8 7 -11 9 q66 41 67 138 l1 17 l-32 0 l0 19 l33 0 q0 9 1 26 q0 16 0 24 l20 0 q0 -26 -1 -50 l78 0 q-2 -85 -5 -143 q-1 -40 -40 -39 q-10 -1 -38 -1 ZM9 162 l0 19 l94 0 l0 -19 l-35 0 l0 -116 l35 9 q0 -7 2 -21 q-50 -11 -94 -24 l-5 23 q9 1 30 6 q7 1 11 2 l0 121 l-38 0 Z" /><glyph glyph-name="" unicode="&#x52a0;" d="M147 -23 l0 203 l92 0 l0 -203 l-20 0 l0 23 l-52 0 l0 -23 l-20 0 ZM19 -28 q-5 4 -15 14 q39 46 40 152 q0 5 0 9 l-32 0 l0 18 l33 0 q0 22 0 45 l20 0 l0 -45 l56 0 q0 -45 -3 -134 q0 -13 0 -18 q-2 -36 -33 -35 q-13 -1 -27 -1 q0 2 -2 8 q-1 10 -2 14 q12 -1 24 -1 q20 -2 20 19 q3 47 3 130 l-37 0 q0 -6 0 -10 q-1 -117 -45 -165 ZM167 161 l0 -143 l52 0 l0 143 l-52 0 Z" /><glyph glyph-name="" unicode="&#x52a1;" d="M14 81 q-1 2 -3 7 q-4 7 -5 11 q64 9 103 23 q-21 12 -45 38 q-18 -16 -39 -33 q-3 3 -8 8 q-4 5 -6 7 q47 33 72 69 l21 -4 q-6 -10 -14 -18 l128 0 l0 -19 q-31 -30 -65 -49 q40 -13 96 -17 q-1 -3 -4 -9 q-3 -7 -5 -10 q-70 7 -110 26 q-41 -18 -116 -30 ZM129 -25 q-1 10 -4 21 q14 -1 41 -1 q28 -2 29 25 q0 16 2 30 l-84 0 q-6 -54 -92 -81 q-4 7 -12 19 q75 19 83 62 l-67 0 l0 18 l71 0 q2 10 2 25 l21 0 q0 -3 -1 -8 q-1 -11 -2 -17 l103 0 q-1 -9 -2 -28 q-2 -14 -2 -21 q-1 -45 -47 -43 q-14 -1 -39 -1 ZM192 172 l-114 0 q24 -26 53 -41 q31 14 61 41 Z" /><glyph glyph-name="" unicode="&#x52a8;" d="M123 -29 q-7 6 -18 12 q51 45 50 141 q1 8 1 17 l-33 0 l0 18 l33 0 q1 16 1 51 l20 0 q0 -7 0 -23 q-1 -19 -1 -28 l65 0 q0 -3 0 -9 q-2 -106 -4 -136 q-1 -36 -35 -37 q-14 0 -32 0 q-1 3 -2 9 q-3 9 -4 13 q16 -1 32 -1 q21 -1 21 20 q4 67 4 123 l-46 0 q0 -10 0 -18 q0 -99 -52 -152 ZM8 103 l0 19 l115 0 l0 -19 l-53 0 q-18 -45 -36 -82 q18 1 60 5 q-9 21 -18 43 l16 7 q7 -14 21 -45 q7 -17 11 -25 l-19 -6 l-3 8 q-9 -1 -25 -2 q-28 -2 -42 -3 q-5 -1 -12 -2 q-5 -1 -8 -1 l-8 17 q7 4 13 17 q18 39 28 69 l-40 0 ZM19 172 l0 18 l95 0 l0 -18 l-95 0 Z" /><glyph glyph-name="" unicode="&#x52a9;" d="M9 -7 l-2 18 q3 1 9 1 q6 1 9 1 l0 182 l87 0 l0 -172 q2 1 7 1 q5 1 7 1 q0 -10 0 -19 q-7 -1 -21 -2 q-61 -6 -96 -11 ZM122 -29 q-6 7 -14 15 q48 38 48 135 q0 9 0 19 l-28 0 l0 18 l29 0 q0 24 1 50 l19 0 q0 -7 0 -23 q-1 -18 -1 -27 l61 0 q-2 -81 -5 -149 q-1 -32 -32 -33 q-12 0 -32 0 q-2 9 -5 20 q12 -1 30 -1 q19 0 20 17 q4 66 4 128 l-42 0 l0 -20 q-1 -104 -53 -149 ZM44 15 l50 6 l0 40 l-50 0 l0 -46 ZM44 178 l0 -42 l50 0 l0 42 l-50 0 ZM44 120 l0 -42 l50 0 l0 42 l-50 0 Z" /><glyph glyph-name="" unicode="&#x5305;" d="M79 -21 q-41 -1 -40 36 l0 110 q-11 -13 -23 -27 q-1 4 -5 11 q-3 7 -5 10 q39 40 61 92 l22 -4 q-6 -12 -12 -24 l142 0 q0 -59 -3 -116 q0 -43 -40 -41 q-14 -1 -33 -1 l-5 21 q5 0 15 0 q12 -1 18 -1 q25 -1 25 23 q1 21 2 64 q1 21 1 32 l-133 0 q-9 -15 -21 -31 l106 0 l0 -75 l-92 0 l0 -40 q-2 -21 24 -20 l113 0 q26 -1 27 15 q4 10 5 34 q11 -4 21 -7 q-2 -8 -4 -22 q-2 -10 -3 -14 q-5 -26 -42 -25 l-121 0 ZM59 115 l0 -39 l72 0 l0 39 l-72 0 Z" /><glyph glyph-name="" unicode="&#x5316;" d="M87 41 q-1 3 -6 10 q-4 7 -6 9 q31 15 58 32 l0 114 l21 0 l0 -98 q37 29 69 68 l17 -13 q-38 -46 -86 -81 l0 -64 q-1 -20 21 -19 l24 0 q22 -1 24 15 q2 10 6 42 q3 -1 10 -3 q7 -3 10 -4 q-3 -24 -6 -44 q-5 -27 -42 -26 l-31 0 q-39 -2 -37 36 l0 52 q-22 -14 -46 -26 ZM15 66 q-2 5 -5 14 q-3 7 -4 10 q41 49 66 118 l21 -7 q-15 -34 -29 -60 l0 -169 l-20 0 l0 135 q-14 -21 -29 -41 Z" /><glyph glyph-name="" unicode="&#x533a;" d="M26 -15 l0 209 l210 0 l0 -19 l-190 0 l0 -173 l194 0 l0 -17 l-214 0 ZM204 17 q-38 38 -59 57 q-32 -32 -67 -59 q-9 10 -16 16 q31 21 69 57 q-33 32 -62 57 l15 13 q6 -6 19 -17 q12 -10 42 -38 q27 29 49 60 l18 -12 q-24 -32 -52 -62 q32 -29 61 -56 l-17 -16 Z" /><glyph glyph-name="" unicode="&#x5341;" d="M9 98 l0 21 l107 0 l0 90 l23 0 l0 -90 l108 0 l0 -21 l-108 0 l0 -127 l-23 0 l0 127 l-107 0 Z" /><glyph glyph-name="" unicode="&#x5343;" d="M28 166 q-1 11 -4 21 q93 3 201 10 l4 -20 q-45 -3 -90 -5 l0 -70 l105 0 l0 -20 l-105 0 l0 -110 l-23 0 l0 110 l-104 0 l0 20 l104 0 l0 68 q-40 -1 -6 0 q-34 -1 -82 -4 Z" /><glyph glyph-name="" unicode="&#x5347;" d="M18 163 q0 4 -2 15 q-1 3 -1 5 q51 2 129 12 l4 -19 q-27 -3 -57 -6 l0 -66 l80 0 l0 105 l21 0 l0 -105 l56 0 l0 -19 l-56 0 l0 -112 l-21 0 l0 112 l-80 0 q4 -78 -64 -115 q-4 5 -16 17 q62 29 59 98 l-62 0 l0 19 l62 0 l0 64 q-9 -1 -27 -3 q-16 -1 -25 -2 Z" /><glyph glyph-name="" unicode="&#x5360;" d="M35 -29 l0 127 l76 0 l0 110 l21 0 l0 -40 l112 0 l0 -19 l-112 0 l0 -51 l88 0 l0 -127 l-20 0 l0 18 l-144 0 l0 -18 l-21 0 ZM56 79 l0 -73 l144 0 l0 73 l-144 0 Z" /><glyph glyph-name="" unicode="&#x5361;" d="M9 96 l0 19 l96 0 l0 95 l21 0 l0 -35 l103 0 l0 -19 l-103 0 l0 -41 l121 0 l0 -19 l-238 0 ZM220 6 q-62 34 -94 50 l0 -85 l-21 0 l0 117 l21 0 l0 -32 l11 16 q18 -8 57 -29 q26 -13 38 -19 l-12 -18 Z" /><glyph glyph-name="" unicode="&#x5370;" d="M132 -29 l0 222 l104 0 l0 -149 q1 -31 -31 -32 q-3 0 -13 0 q-14 -1 -20 -1 q-1 4 -2 13 q-2 5 -2 8 q5 0 15 0 q10 -1 14 -1 q20 0 19 18 l0 125 l-63 0 l0 -203 l-21 0 ZM27 -3 l-13 15 q7 9 7 22 l0 157 q50 8 90 19 l8 -18 q-35 -9 -78 -17 l0 -56 l72 0 l0 -19 l-72 0 l0 -76 q23 7 65 20 q-25 -8 8 3 q0 -12 1 -21 q-35 -9 -71 -23 q-9 -3 -17 -6 Z" /><glyph glyph-name="" unicode="&#x5373;" d="M119 -7 q-3 5 -12 17 q-3 5 -5 7 q-5 -2 -15 -7 q-30 -12 -44 -19 q-1 -1 -4 -2 q-4 -2 -12 -8 l-12 16 q8 7 7 19 l0 180 l98 0 l0 -122 l-79 0 l0 -66 q6 3 22 11 q20 10 29 14 l-16 23 l16 7 q1 -1 2 -3 q32 -43 42 -59 l-17 -8 ZM149 -29 l0 220 l86 0 l0 -150 q2 -31 -30 -32 q-12 0 -24 0 q-1 9 -4 19 q12 0 21 0 q19 -1 18 17 l0 127 l-48 0 l0 -201 l-19 0 ZM41 91 l60 0 l0 35 l-60 0 l0 -35 ZM41 178 l0 -35 l60 0 l0 35 l-60 0 Z" /><glyph glyph-name="" unicode="&#x539a;" d="M76 89 l0 73 l151 0 l0 -73 l-151 0 ZM54 13 l0 15 l95 0 l0 9 l46 18 l-121 0 l0 15 l154 0 l0 -17 l-59 -23 l0 -2 l78 0 l0 -15 l-78 0 l0 -15 q0 -24 -27 -24 q-8 -1 -36 -1 q0 3 -2 10 q-1 5 -1 7 q5 0 16 -1 q11 0 15 0 q15 0 15 11 l0 13 l-95 0 ZM21 -30 q-4 6 -15 14 q25 37 23 120 l0 93 l218 0 l0 -17 l-199 0 l0 -77 q2 -89 -27 -133 ZM94 119 l0 -16 l114 0 l0 16 l-114 0 ZM94 148 l0 -16 l114 0 l0 16 l-114 0 Z" /><glyph glyph-name="" unicode="&#x539f;" d="M108 -26 q-1 3 -3 9 q-1 6 -2 9 q16 0 28 0 q16 0 15 12 l0 49 l-69 0 l0 98 l49 0 l8 28 l-84 0 l0 -76 q0 -52 -5 -77 q-6 -26 -23 -55 q-3 3 -8 7 q-6 4 -8 7 q27 36 25 121 l0 90 l215 0 l0 -17 l-90 0 l-10 -28 l82 0 l0 -98 l-62 0 l0 -53 q0 -24 -27 -26 q-15 0 -31 0 ZM96 134 l0 -25 l113 0 l0 25 l-113 0 ZM96 94 l0 -24 l113 0 l0 24 l-113 0 ZM63 -19 q-6 8 -13 14 q23 16 51 46 l15 -12 q-15 -15 -48 -43 q-3 -3 -5 -5 ZM234 -17 q-19 20 -48 45 l13 12 q9 -7 25 -22 q16 -15 25 -21 l-15 -14 Z" /><glyph glyph-name="" unicode="&#x53bb;" d="M218 -28 l-15 18 q-41 -1 -126 -5 q-7 0 -11 0 q-3 0 -10 -1 q-12 -1 -18 -2 l-10 19 q12 6 23 17 q27 27 49 58 l-92 0 l0 19 l109 0 l0 53 l-90 0 l0 19 l90 0 l0 43 l21 0 l0 -43 l91 0 l0 -19 l-91 0 l0 -53 l110 0 l0 -19 l-118 0 q-32 -37 -66 -74 q15 0 49 2 q49 1 74 2 l-35 38 l16 11 q37 -37 68 -70 l-18 -13 Z" /><glyph glyph-name="" unicode="&#x53c2;" d="M13 109 l0 16 l81 0 q8 9 15 19 l20 -4 q-1 -2 -4 -6 q-4 -6 -6 -9 l124 0 l0 -16 l-68 0 q25 -27 73 -43 q-1 -3 -5 -9 q-3 -6 -5 -9 q-54 21 -85 61 l-48 0 q-30 -33 -88 -58 q0 1 -1 2 q-6 11 -10 15 q45 17 72 41 l-65 0 ZM212 136 l-15 12 q-104 0 -136 -2 q-4 0 -13 -1 q-6 0 -9 0 l-8 17 q7 2 19 9 q3 1 5 2 q21 13 53 39 l23 -7 q-18 -13 -61 -40 q-2 -1 -3 -2 q76 0 110 1 l-31 22 l14 11 q40 -28 66 -47 l-14 -14 ZM34 -31 q-1 3 -6 12 q-1 3 -2 5 q99 14 182 54 l12 -14 q-85 -41 -186 -57 ZM45 7 q-1 4 -8 15 q82 17 139 46 l11 -14 q-72 -33 -142 -47 ZM55 45 q-4 8 -9 15 q51 12 103 35 l10 -13 q-52 -23 -104 -37 Z" /><glyph glyph-name="" unicode="&#x53c8;" d="M20 -28 q-2 3 -6 9 q-5 7 -7 10 q71 21 105 50 q-43 42 -63 129 q3 1 10 2 q2 1 4 1 l-36 0 l0 20 l185 0 l0 -21 q-20 -82 -69 -132 q38 -29 104 -45 q-2 -4 -6 -11 q-4 -6 -7 -10 q-73 24 -106 52 q-36 -27 -108 -54 ZM69 173 q18 -78 58 -118 q44 42 62 118 l-120 0 Z" /><glyph glyph-name="" unicode="&#x53ca;" d="M71 -30 q-1 1 -2 3 q-7 12 -10 16 q50 18 77 38 q-33 31 -54 89 q-7 -86 -61 -142 q-7 8 -15 15 q54 53 57 147 q0 11 2 39 l-45 0 l0 19 l180 0 l0 -20 l-27 -48 l50 0 l0 -19 q-21 -49 -54 -81 q31 -22 79 -32 q-3 -5 -8 -14 q-3 -5 -4 -7 q-50 17 -83 40 q-32 -23 -82 -43 ZM85 175 q0 -5 0 -14 q-1 -10 -1 -15 l4 5 q25 -75 64 -111 q30 27 48 68 l-51 0 l0 18 l28 49 l-92 0 Z" /><glyph glyph-name="" unicode="&#x53cb;" d="M234 -28 q-53 15 -86 36 q-34 -22 -88 -38 q-1 3 -5 10 q-4 7 -6 10 q52 13 83 32 q-29 29 -47 75 l4 2 l-5 0 q-22 -68 -67 -117 q-2 2 -5 8 q-5 8 -7 10 q52 56 73 155 l-65 0 l0 19 l68 0 q3 18 6 36 l21 -1 q-3 -18 -6 -35 l144 0 l0 -19 l-147 0 q-4 -20 -10 -38 l131 0 l0 -18 q-20 -50 -54 -78 q30 -19 80 -28 q-3 -5 -8 -14 q-3 -5 -4 -7 ZM197 99 l-92 0 q16 -41 44 -66 q34 27 48 66 Z" /><glyph glyph-name="" unicode="&#x53cc;" d="M236 -25 q-41 26 -60 51 q-24 -29 -70 -56 q-8 12 -14 18 q45 22 72 54 q-31 47 -40 128 l17 3 l-22 0 l0 19 l116 0 l0 -20 q-13 -84 -46 -130 q24 -31 61 -48 q-2 -3 -7 -10 q-5 -7 -7 -9 ZM99 4 l-26 41 q-19 -34 -53 -67 l-14 16 q36 35 55 70 q-24 37 -49 76 l16 11 q24 -35 43 -65 q12 29 20 87 l-81 0 l0 18 l101 0 l0 -18 q-9 -66 -27 -107 l32 -50 l-17 -12 ZM214 173 l-71 0 q9 -74 34 -113 q27 37 37 113 Z" /><glyph glyph-name="" unicode="&#x53d1;" d="M17 138 l0 20 q8 13 18 43 l20 -4 q-6 -17 -17 -41 l53 0 q6 25 11 55 l21 -3 q-5 -26 -11 -52 l135 0 l0 -18 l-140 0 q-2 -7 -6 -19 q-3 -9 -4 -14 l123 0 l0 -16 q-18 -43 -52 -70 q25 -16 78 -25 q-4 -6 -10 -21 q-51 13 -86 34 q-31 -18 -91 -37 q-5 12 -11 20 q59 14 85 29 q-31 28 -45 64 q-27 -58 -72 -100 q-6 14 -11 18 q58 56 81 137 l-69 0 ZM197 88 l-91 0 q16 -36 45 -57 q30 22 46 57 ZM203 163 q-21 18 -40 32 l13 12 q20 -14 41 -30 l-14 -14 Z" /><glyph glyph-name="" unicode="&#x53d6;" d="M12 180 l0 18 l114 0 l0 -18 l-14 0 l0 -140 q4 1 12 2 q7 2 10 2 q0 -10 0 -18 l-22 -3 l0 -52 l-18 0 l0 49 q-15 -3 -48 -8 q-24 -4 -37 -6 l-3 19 q4 1 10 2 q7 1 10 1 l0 152 l-14 0 ZM236 -25 q-36 29 -49 49 q-16 -22 -55 -53 q-5 8 -12 17 q36 25 55 53 q-28 44 -36 128 l-7 0 l0 18 l106 0 l0 -18 q-11 -85 -40 -128 q20 -28 51 -48 l-13 -18 ZM218 169 l-61 0 q9 -71 30 -110 q22 41 31 110 ZM45 30 q14 3 44 6 q3 1 5 1 l0 36 l-49 0 l0 -43 ZM45 127 l0 -38 l49 0 l0 38 l-49 0 ZM45 180 l0 -37 l49 0 l0 37 l-49 0 Z" /><glyph glyph-name="" unicode="&#x53d7;" d="M238 -27 q-71 10 -110 28 q-42 -19 -109 -31 q-2 4 -7 11 q-2 5 -4 8 q66 9 100 23 q-26 18 -50 55 l-15 0 l0 17 l161 0 l0 -18 q-22 -33 -55 -54 q35 -13 99 -19 q-3 -3 -7 -14 q-2 -4 -3 -6 ZM15 82 l0 48 l152 0 q10 14 27 43 q1 1 1 2 l20 -7 q-2 -3 -6 -9 q-5 -9 -20 -29 l52 0 l0 -48 l-21 0 l0 30 l-185 0 l0 -30 l-20 0 ZM26 178 q-1 9 -4 18 q107 0 204 7 l4 -18 q-82 -5 -204 -7 ZM180 67 l-99 0 q21 -28 47 -45 q30 16 52 45 ZM125 133 q-7 19 -16 35 l20 6 q8 -17 15 -35 l-19 -6 ZM59 131 q-14 24 -21 33 l19 6 q11 -15 20 -32 l-18 -7 Z" /><glyph glyph-name="" unicode="&#x53d8;" d="M237 -27 q-69 8 -109 27 q-47 -19 -109 -30 q-1 1 -2 5 q-2 4 -8 14 q72 11 99 23 q-28 19 -49 53 l-23 0 l0 18 l168 0 l0 -19 q-25 -35 -56 -52 q32 -13 99 -19 q-5 -10 -10 -20 ZM11 162 l0 17 l112 0 q-2 8 -8 23 q-1 3 -2 5 l21 4 q1 -4 4 -11 q5 -12 7 -19 l-7 -2 l106 0 l0 -17 l-77 0 l0 -64 l-20 0 l0 64 l-39 0 l0 -65 l-19 0 l0 65 l-78 0 ZM180 65 l-99 0 q19 -27 47 -43 q30 16 52 43 ZM233 86 q-30 30 -48 47 l13 12 q24 -21 49 -46 l-14 -13 ZM20 86 q-3 5 -12 14 q25 21 47 46 l13 -13 q-22 -25 -48 -47 Z" /><glyph glyph-name="" unicode="&#x53e0;" d="M8 -21 l0 13 l38 0 l0 68 l163 0 l0 -68 l39 0 l0 -13 l-240 0 ZM215 145 q-18 3 -56 10 q-19 3 -28 5 q-43 -10 -98 -15 q-2 7 -5 12 q42 3 72 9 l-55 9 l4 10 l82 -13 q27 6 48 15 l-142 0 l0 13 l171 0 l0 -14 q-24 -10 -50 -18 q9 -2 25 -4 q25 -5 37 -7 l-5 -12 ZM16 54 l0 31 l224 0 l0 -31 l-18 0 l0 19 l-188 0 l0 -19 l-18 0 ZM237 88 q-26 9 -50 15 q-21 -9 -52 -15 q-1 1 -2 4 q-2 5 -4 8 q23 3 39 8 q-16 5 -33 9 l5 10 q8 -2 24 -6 q16 -4 23 -6 q16 6 28 15 l-80 0 l0 12 l100 0 l0 -13 q-13 -10 -30 -18 l38 -11 l-6 -12 ZM114 90 q-11 4 -32 10 q-6 2 -9 3 q-30 -11 -55 -15 q-1 5 -6 11 q23 3 42 9 q-5 2 -17 5 q-11 3 -17 5 l6 9 q3 -1 8 -2 q15 -4 38 -11 q17 7 29 16 l-84 0 l0 12 l103 0 l0 -13 q-13 -10 -30 -19 l30 -8 l-6 -12 ZM65 26 l0 -13 l125 0 l0 13 l-125 0 ZM65 3 l0 -11 l125 0 l0 11 l-125 0 ZM65 49 l0 -13 l125 0 l0 13 l-125 0 Z" /><glyph glyph-name="" unicode="&#x53e3;" d="M29 -20 l0 207 l198 0 l0 -207 l-21 0 l0 21 l-155 0 l0 -21 l-22 0 ZM51 167 l0 -146 l155 0 l0 146 l-155 0 Z" /><glyph glyph-name="" unicode="&#x53e6;" d="M37 113 l0 87 l183 0 l0 -87 l-183 0 ZM133 -24 q0 9 -4 21 q15 -1 46 -1 q33 -3 33 26 q0 4 1 18 q1 15 1 20 l-96 0 q-4 -59 -93 -90 q-9 15 -12 19 q80 22 83 71 l-76 0 l0 19 l79 0 q1 3 1 11 q1 7 1 11 l20 0 q0 -4 -1 -12 q0 -7 0 -10 l115 0 q0 -31 -3 -59 q0 -45 -50 -43 q-28 -1 -45 -1 ZM58 182 l0 -51 l141 0 l0 51 l-141 0 Z" /><glyph glyph-name="" unicode="&#x53ef;" d="M34 16 l0 119 l109 0 l0 -100 l-89 0 l0 -19 l-20 0 ZM8 173 l0 19 l241 0 l0 -19 l-38 0 l0 -164 q1 -33 -35 -33 q-13 -1 -42 -1 q0 4 -2 12 q-1 6 -1 9 q20 -1 37 -1 q24 -2 22 20 l0 158 l-182 0 ZM54 118 l0 -66 l68 0 l0 66 l-68 0 Z" /><glyph glyph-name="" unicode="&#x53f8;" d="M33 0 l0 100 l132 0 l0 -84 l-112 0 l0 -16 l-20 0 ZM145 34 l0 48 l-92 0 l0 -48 l92 0 ZM10 130 l0 18 l182 0 l0 -18 l-182 0 ZM157 -26 q-1 8 -5 21 q15 -1 41 -1 q22 0 22 18 l0 167 l-192 0 l0 19 l212 0 l0 -189 q1 -34 -34 -35 q-20 0 -44 0 Z" /><glyph glyph-name="" unicode="&#x5404;" d="M43 -29 l0 96 l169 0 l0 -96 l-20 0 l0 14 l-129 0 l0 -14 l-20 0 ZM14 68 q-2 5 -6 15 q-1 3 -2 5 q63 9 104 26 q-23 14 -46 42 q-18 -19 -39 -37 q-6 9 -12 16 q44 34 69 76 l21 -4 q-7 -10 -15 -21 l126 0 l0 -20 q-28 -33 -62 -52 q35 -15 96 -21 q-3 -6 -7 -17 q-1 -2 -1 -3 q-70 10 -110 29 q-38 -18 -116 -34 ZM63 50 l0 -49 l129 0 l0 49 l-129 0 ZM190 168 l-113 0 q25 -28 54 -44 q33 17 59 44 Z" /><glyph glyph-name="" unicode="&#x5408;" d="M40 -29 l0 106 l174 0 l0 -106 l-20 0 l0 15 l-133 0 l0 -15 l-21 0 ZM236 104 q-22 11 -39 21 l0 -17 l-138 0 l0 16 q-19 -12 -40 -24 q-2 3 -6 10 q-4 6 -6 9 q80 38 116 93 l24 -3 q-2 -2 -5 -7 q-1 -2 -2 -3 q42 -50 108 -76 q-6 -9 -12 -19 ZM61 58 l0 -56 l133 0 l0 56 l-133 0 ZM129 185 q-28 -32 -68 -59 l134 0 q-41 26 -66 59 Z" /><glyph glyph-name="" unicode="&#x540c;" d="M22 -26 l0 223 l211 0 l0 -189 q2 -32 -32 -32 q-16 -1 -37 -1 q0 1 0 3 q-1 6 -4 18 q10 -1 33 -1 q22 -1 20 16 l0 168 l-171 0 l0 -205 l-20 0 ZM76 23 l0 79 l103 0 l0 -79 l-103 0 ZM95 84 l0 -44 l65 0 l0 44 l-65 0 ZM59 131 l0 18 l138 0 l0 -18 l-138 0 Z" /><glyph glyph-name="" unicode="&#x540e;" d="M79 -27 l0 106 l147 0 l0 -106 l-20 0 l0 15 l-108 0 l0 -15 l-19 0 ZM23 -28 l-17 14 q17 26 23 52 q6 26 6 75 l0 77 q99 1 192 13 l8 -20 q-79 -8 -180 -12 l0 -34 l192 0 l0 -19 l-192 0 l0 -5 q0 -53 -6 -80 q-6 -29 -26 -61 ZM98 60 l0 -55 l108 0 l0 55 l-108 0 Z" /><glyph glyph-name="" unicode="&#x5427;" d="M137 -21 q-35 -1 -34 31 l0 188 l129 0 l0 -116 l-110 0 l0 -69 q0 -17 20 -16 l59 0 q23 -1 25 17 q3 16 5 35 q10 -3 19 -5 q-2 -19 -6 -40 q-6 -25 -40 -25 l-67 0 ZM17 4 l0 184 l63 0 l0 -178 l-18 0 l0 18 l-27 0 l0 -24 l-18 0 ZM35 170 l0 -124 l27 0 l0 124 l-27 0 ZM122 180 l0 -81 l37 0 l0 81 l-37 0 ZM214 180 l-37 0 l0 -81 l37 0 l0 81 Z" /><glyph glyph-name="" unicode="&#x542f;" d="M22 -29 q-9 9 -16 16 q16 25 21 49 q5 23 5 74 l0 73 l95 0 q-2 5 -5 15 q-2 7 -3 10 l22 3 l10 -28 l84 0 l0 -75 l-183 0 q0 -52 -6 -79 q-6 -29 -24 -58 ZM71 -29 l0 101 l161 0 l0 -101 l-20 0 l0 17 l-121 0 l0 -17 l-20 0 ZM52 165 l0 -39 l163 0 l0 39 l-163 0 ZM91 55 l0 -52 l121 0 l0 52 l-121 0 Z" /><glyph glyph-name="" unicode="&#x5448;" d="M38 123 l0 74 l179 0 l0 -74 l-179 0 ZM21 81 l0 17 l214 0 l0 -17 l-97 0 l0 -33 l84 0 l0 -17 l-84 0 l0 -33 l108 0 l0 -17 l-236 0 l0 17 l108 0 l0 33 l-84 0 l0 17 l84 0 l0 33 l-97 0 ZM59 180 l0 -39 l138 0 l0 39 l-138 0 Z" /><glyph glyph-name="" unicode="&#x5457;" d="M18 -1 l0 188 l67 0 l0 -168 l-48 0 l0 -20 l-19 0 ZM108 43 l0 153 l126 0 l0 -153 l-19 0 l0 134 l-88 0 l0 -134 l-19 0 ZM236 -27 q-37 31 -66 55 q-14 -32 -78 -59 q-8 12 -14 18 q50 17 66 38 q17 19 17 64 q1 31 1 64 l19 0 q0 -34 0 -65 q-1 -30 -6 -44 l2 2 q40 -30 73 -57 l-14 -16 ZM37 169 l0 -132 l30 0 l0 132 l-30 0 Z" /><glyph glyph-name="" unicode="&#x5475;" d="M16 -5 l0 192 l68 0 l0 -189 l-18 0 l0 18 l-32 0 l0 -21 l-18 0 ZM98 174 l0 19 l152 0 l0 -19 l-21 0 l0 -163 q2 -36 -34 -36 q-13 -1 -38 -1 q-1 10 -4 21 q14 -1 34 -1 q24 -1 23 20 l0 160 l-112 0 ZM110 34 l0 106 l72 0 l0 -106 l-72 0 ZM34 169 l0 -136 l32 0 l0 136 l-32 0 ZM128 123 l0 -71 l36 0 l0 71 l-36 0 Z" /><glyph glyph-name="" unicode="&#x548c;" d="M132 -22 l0 205 l106 0 l0 -204 l-20 0 l0 22 l-66 0 l0 -23 l-20 0 ZM10 118 l0 18 l44 0 l0 39 q-19 -1 -39 -3 q-1 10 -4 19 q51 3 98 7 l4 -18 q-6 0 -19 -2 q-14 -1 -21 -2 l0 -40 l43 0 l0 -18 l-43 0 l0 -34 l8 8 q4 -4 12 -11 q17 -15 25 -23 l-13 -15 q-4 4 -11 11 q-5 6 -21 21 l0 -103 l-19 0 l0 113 q-14 -36 -40 -70 q-4 12 -9 22 q29 33 47 81 l-42 0 ZM152 165 l0 -146 l66 0 l0 146 l-66 0 Z" /><glyph glyph-name="" unicode="&#x54c1;" d="M43 111 l0 88 l170 0 l0 -88 l-170 0 ZM144 -29 l0 111 l93 0 l0 -110 l-19 0 l0 15 l-55 0 l0 -16 l-19 0 ZM19 -29 l0 111 l93 0 l0 -111 l-19 0 l0 16 l-55 0 l0 -16 l-19 0 ZM63 181 l0 -52 l130 0 l0 52 l-130 0 ZM163 64 l0 -61 l55 0 l0 61 l-55 0 ZM38 64 l0 -61 l55 0 l0 61 l-55 0 Z" /><glyph glyph-name="" unicode="&#x54cd;" d="M99 -29 l0 205 l44 0 q5 18 8 35 l21 -3 q-1 -2 -2 -7 q-2 -8 -8 -25 l74 0 l0 -173 q1 -27 -28 -28 q-6 -1 -28 -1 q0 3 -2 9 q-1 7 -2 10 q14 -1 26 -1 q17 -1 16 15 l0 152 l-101 0 l0 -188 l-18 0 ZM18 2 l0 180 l60 0 l0 -176 l-17 0 l0 18 l-26 0 l0 -22 l-17 0 ZM136 26 l0 101 l62 0 l0 -101 l-62 0 ZM35 165 l0 -124 l26 0 l0 124 l-26 0 ZM152 111 l0 -68 l31 0 l0 68 l-31 0 Z" /><glyph glyph-name="" unicode="&#x552e;" d="M37 57 l0 84 q-10 -12 -23 -25 q-2 5 -6 15 q-1 3 -2 5 q35 33 53 75 l20 -4 q-2 -5 -8 -16 q-3 -6 -5 -9 l71 0 l-14 25 l20 5 q9 -17 16 -27 l-10 -3 l90 0 l0 -15 l-85 0 l0 -19 l77 0 l0 -14 l-77 0 l0 -20 l77 0 l0 -13 l-77 0 l0 -20 l89 0 l0 -15 l-186 0 l0 -9 l-20 0 ZM36 -29 l0 74 l187 0 l0 -74 l-20 0 l0 12 l-147 0 l0 -12 l-20 0 ZM56 30 l0 -32 l147 0 l0 32 l-147 0 ZM57 101 l0 -20 l77 0 l0 20 l-77 0 ZM57 134 l0 -20 l77 0 l0 20 l-77 0 ZM57 167 l0 -19 l77 0 l0 19 l-77 0 Z" /><glyph glyph-name="" unicode="&#x5531;" d="M100 -29 l0 111 l136 0 l0 -111 l-19 0 l0 12 l-99 0 l0 -12 l-18 0 ZM108 104 l0 96 l119 0 l0 -96 l-119 0 ZM17 1 l0 184 l63 0 l0 -181 l-17 0 l0 17 l-27 0 l0 -20 l-19 0 ZM36 167 l0 -128 l27 0 l0 128 l-27 0 ZM118 25 l0 -26 l99 0 l0 26 l-99 0 ZM118 66 l0 -27 l99 0 l0 27 l-99 0 ZM127 145 l0 -25 l81 0 l0 25 l-81 0 ZM127 184 l0 -25 l81 0 l0 25 l-81 0 Z" /><glyph glyph-name="" unicode="&#x5546;" d="M24 -29 l0 161 l60 0 q-5 7 -19 28 l18 6 q16 -20 22 -30 l-15 -4 l57 0 q3 5 10 14 q9 13 13 20 l19 -6 q-9 -14 -20 -28 l61 0 l0 -128 q2 -28 -30 -28 q-14 0 -32 0 q-1 9 -4 19 q12 -1 30 -1 q18 -1 17 13 l0 108 l-167 0 l0 -144 l-20 0 ZM80 4 l0 68 l96 0 l0 -68 l-96 0 ZM8 167 l0 17 l113 0 q-2 4 -5 13 q-2 7 -3 10 l21 4 q6 -15 10 -27 l104 0 l0 -17 l-240 0 ZM158 20 l0 36 l-61 0 l0 -36 l61 0 ZM59 60 q-5 8 -11 14 q33 20 53 38 l13 -12 q-27 -21 -55 -40 ZM197 61 q-25 19 -56 38 l11 13 q5 -3 13 -9 q28 -16 42 -27 l-10 -15 Z" /><glyph glyph-name="" unicode="&#x55e8;" d="M113 75 l0 16 l20 0 l5 60 l95 0 q0 -10 -1 -30 q0 -20 -1 -30 l18 0 l0 -16 l-18 0 q0 -8 -1 -24 q0 -16 -1 -24 l17 0 l0 -15 l-18 0 q0 -3 0 -7 q0 -29 -33 -29 q-13 0 -31 0 q0 3 -2 9 q-1 6 -2 9 q13 -1 29 -1 q21 -1 21 14 q0 2 0 5 l-83 0 l5 63 l-19 0 ZM16 -2 l0 188 l54 0 l0 -169 l-38 0 l0 -19 l-16 0 ZM211 27 q2 24 2 48 l-63 0 l-4 -48 l65 0 ZM32 170 l0 -137 l22 0 l0 137 l-22 0 ZM122 132 q-4 9 -9 17 q24 24 39 62 l18 -2 q-1 -5 -6 -14 q-2 -5 -3 -7 l84 0 l0 -15 l-93 0 q-12 -21 -30 -41 ZM155 135 l-4 -44 l63 0 q0 7 0 21 q1 15 1 23 l-60 0 ZM93 -25 l-19 4 q12 41 20 91 q9 -3 18 -6 q-11 -48 -19 -89 ZM102 101 q-16 15 -31 27 l12 12 q16 -11 32 -26 l-13 -13 ZM110 168 q-15 14 -30 26 l11 12 q7 -5 20 -16 q7 -6 11 -9 l-12 -13 ZM183 34 q-4 6 -13 18 q-4 6 -6 9 l12 8 q4 -5 10 -13 q6 -9 9 -14 l-12 -8 ZM187 96 q-3 5 -9 13 q-6 9 -9 13 l11 8 q11 -13 18 -26 l-11 -8 Z" /><glyph glyph-name="" unicode="&#x5668;" d="M14 96 l0 16 l100 0 q1 4 2 12 q1 4 1 6 l20 0 q-1 -10 -3 -18 l44 0 q-1 2 -3 6 q-3 6 -5 9 l18 4 q4 -8 10 -19 l45 0 l0 -16 l-97 0 q21 -28 102 -29 q-1 -2 -3 -6 q-3 -8 -4 -11 q-94 5 -114 44 q-10 -33 -113 -46 q-2 4 -5 13 q-1 3 -2 4 q90 9 101 31 l-94 0 ZM210 -29 l0 12 l-51 0 l0 -11 l-18 0 l0 74 l87 0 l0 -75 l-18 0 ZM27 -29 l0 75 l86 0 l0 -74 l-18 0 l0 11 l-50 0 l0 -12 l-18 0 ZM141 134 l0 63 l87 0 l0 -63 l-87 0 ZM26 134 l0 63 l86 0 l0 -63 l-86 0 ZM159 30 l0 -32 l51 0 l0 32 l-51 0 ZM45 30 l0 -32 l50 0 l0 32 l-50 0 ZM159 182 l0 -33 l51 0 l0 33 l-51 0 ZM44 182 l0 -33 l50 0 l0 33 l-50 0 Z" /><glyph glyph-name="" unicode="&#x566a;" d="M16 -4 l0 193 l58 0 l0 -177 l-41 0 l0 -16 l-17 0 ZM84 37 l0 16 l71 0 l0 17 l18 0 l0 -17 l73 0 l0 -16 l-61 0 q23 -27 66 -41 q-6 -9 -10 -17 q-49 22 -68 54 l0 -62 l-18 0 l0 61 q-22 -32 -72 -55 q-4 8 -11 17 q44 13 71 43 l-59 0 ZM106 145 l0 55 l114 0 l0 -55 l-114 0 ZM33 171 l0 -141 l25 0 l0 141 l-25 0 ZM173 74 l0 54 l64 0 l0 -54 l-64 0 ZM90 74 l0 54 l64 0 l0 -54 l-64 0 ZM124 184 l0 -24 l78 0 l0 24 l-78 0 ZM188 114 l0 -26 l33 0 l0 26 l-33 0 ZM105 114 l0 -26 l33 0 l0 26 l-33 0 Z" /><glyph glyph-name="" unicode="&#x56e0;" d="M22 -29 l0 226 l211 0 l0 -226 l-20 0 l0 15 l-171 0 l0 -15 l-20 0 ZM42 179 l0 -177 l171 0 l0 177 l-171 0 ZM60 110 l0 18 l58 0 l0 39 l20 0 l0 -39 l58 0 l0 -18 l-59 0 q0 -10 -3 -20 q17 -13 47 -37 q14 -11 21 -17 l-16 -16 q-37 35 -57 52 q-14 -31 -64 -58 q-8 9 -14 17 q64 27 67 79 l-58 0 Z" /><glyph glyph-name="" unicode="&#x56f4;" d="M20 -29 l0 227 l216 0 l0 -227 l-20 0 l0 11 l-176 0 l0 -11 l-20 0 ZM40 181 l0 -182 l176 0 l0 182 l-176 0 ZM145 22 q-1 7 -3 16 q8 -1 21 -1 q15 -1 14 10 q1 4 1 16 l-49 0 l0 -58 l-19 0 l0 58 l-58 0 l0 15 l58 0 l0 23 l-47 0 l0 15 l47 0 l0 22 l-54 0 l0 15 l54 0 l0 19 l19 0 l0 -19 l69 0 l0 -15 l-69 0 l0 -22 l61 0 l0 -15 l-61 0 l0 -23 l68 0 q0 -6 -1 -16 q0 -11 -1 -16 q-2 -24 -27 -24 q-11 0 -23 0 Z" /><glyph glyph-name="" unicode="&#x56fd;" d="M20 -29 l0 227 l216 0 l0 -227 l-20 0 l0 13 l-176 0 l0 -13 l-20 0 ZM40 181 l0 -181 l176 0 l0 181 l-176 0 ZM57 139 l0 17 l141 0 l0 -17 l-62 0 l0 -33 l57 0 l0 -17 l-57 0 l0 -47 l65 0 l0 -17 l-147 0 l0 17 l63 0 l0 47 l-55 0 l0 17 l55 0 l0 33 l-60 0 ZM176 47 q-13 15 -25 25 l12 10 q0 0 1 -1 q16 -14 24 -23 l-12 -11 Z" /><glyph glyph-name="" unicode="&#x56fe;" d="M19 -29 l0 230 l217 0 l0 -230 l-19 0 l0 12 l-179 0 l0 -12 l-19 0 ZM38 184 l0 -184 l179 0 l0 184 l-179 0 ZM202 76 q-46 9 -70 21 q-31 -15 -79 -25 q-2 7 -8 16 q42 6 70 18 q-17 12 -32 28 q-10 -11 -23 -20 q-5 6 -11 11 q32 24 51 53 l18 -4 q-1 -1 -2 -3 q-5 -9 -10 -13 l86 0 l0 -14 q-19 -23 -43 -38 q25 -9 61 -14 q-5 -7 -8 -16 ZM181 10 q-59 12 -116 19 l4 16 q55 -8 117 -19 l-5 -16 ZM171 144 l-77 0 q15 -18 38 -30 q26 15 39 30 ZM167 49 q-45 9 -78 13 l4 15 q8 -1 25 -4 q37 -6 53 -9 l-4 -15 Z" /><glyph glyph-name="" unicode="&#x5708;" d="M19 -29 l0 230 l217 0 l0 -230 l-18 0 l0 12 l-181 0 l0 -12 l-18 0 ZM37 186 l0 -188 l181 0 l0 188 l-181 0 ZM203 60 q-23 9 -38 21 q0 -12 -1 -21 q-1 -19 -23 -19 q-11 0 -23 0 q0 2 -2 6 q-1 4 -2 6 q8 -1 23 -1 q12 0 11 9 q1 5 1 9 l-56 0 l0 -29 q-2 -17 17 -15 l46 0 q18 -1 20 12 q3 8 4 17 q2 -1 4 -2 q5 -1 12 -3 q0 -1 0 -2 q-3 -12 -6 -18 q-6 -18 -31 -18 l-54 0 q-30 -2 -28 27 l0 31 q-12 -7 -28 -16 q-1 4 -7 12 q-2 2 -3 4 q36 15 53 33 l-44 0 l0 14 l54 0 q5 8 8 17 l-54 0 l0 13 l59 0 q4 15 7 30 l18 0 q-4 -15 -7 -30 l66 0 l0 -13 l-70 0 q-1 -4 -5 -11 q-1 -4 -2 -6 l86 0 l0 -14 l-45 0 q20 -20 49 -28 q-4 -7 -9 -15 ZM113 103 q-7 -11 -19 -20 l69 0 q-10 9 -19 20 l-31 0 ZM170 148 l-13 6 q12 12 19 22 l14 -7 q-3 -3 -9 -9 q-7 -8 -11 -12 ZM85 148 q-1 1 -3 3 q-7 9 -16 18 l13 7 q6 -6 15 -17 q3 -2 4 -4 l-13 -7 Z" /><glyph glyph-name="" unicode="&#x5728;" d="M17 158 l0 19 l70 0 q6 16 13 34 l21 -3 q-6 -16 -12 -31 l139 0 l0 -19 l-148 0 q-13 -30 -33 -55 l0 -131 l-20 0 l0 107 q-13 -14 -30 -29 q-2 4 -7 11 q-2 5 -4 8 q48 42 72 89 l-61 0 ZM89 76 l0 18 l63 0 l0 48 l20 0 l0 -48 l62 0 l0 -18 l-62 0 l0 -71 l76 0 l0 -17 l-171 0 l0 17 l75 0 l0 71 l-63 0 Z" /><glyph glyph-name="" unicode="&#x573a;" d="M78 -1 q-7 5 -15 13 q49 33 62 86 l-33 0 l0 20 l102 60 l-95 0 l0 18 l127 0 l0 -21 l-101 -59 l115 0 l-4 -98 q0 -42 -37 -41 l-29 -1 q-2 11 -4 20 q11 0 27 0 q24 -2 24 23 q0 3 1 11 q2 45 2 68 l-28 0 q-13 -88 -69 -128 q-7 7 -15 15 q53 35 66 113 l-31 0 q-13 -64 -65 -99 ZM10 127 l0 19 l29 0 l0 62 l20 0 l0 -62 l27 0 l0 -19 l-27 0 l0 -81 l25 10 q0 -10 2 -19 q-19 -7 -61 -26 q-8 -3 -12 -5 l-6 20 l32 12 l0 89 l-29 0 Z" /><glyph glyph-name="" unicode="&#x578b;" d="M18 181 l0 17 l126 0 l0 -17 l-25 0 l0 -40 l33 0 l0 -17 l-33 0 l0 -51 l-18 0 l0 51 l-40 0 q-2 -34 -31 -59 q-7 6 -15 12 q26 21 27 47 l-33 0 l0 17 l35 0 q0 4 0 10 l0 30 l-26 0 ZM29 31 l0 17 l89 0 l0 21 l20 0 l0 -21 l89 0 l0 -17 l-89 0 l0 -32 l109 0 l0 -18 l-239 0 l0 18 l110 0 l0 32 l-89 0 ZM174 70 q0 3 -2 8 q-1 7 -2 11 q6 -1 28 -1 q19 -2 17 17 l0 101 l18 0 l0 -105 q1 -31 -26 -31 q-18 0 -33 0 ZM62 151 q0 -6 0 -10 l39 0 l0 40 l-39 0 l0 -30 ZM165 112 l0 82 l17 0 l0 -82 l-17 0 Z" /><glyph glyph-name="" unicode="&#x57ce;" d="M224 -26 q-24 -1 -37 39 q-16 -19 -41 -40 q-3 4 -13 14 q28 21 49 48 q-10 40 -13 110 l-64 0 l0 -35 l48 0 q0 -48 -2 -73 q0 -29 -28 -30 q-7 0 -15 0 q0 1 0 2 q-1 8 -4 17 q5 0 15 0 q16 -1 15 15 q2 27 2 52 l-31 0 q0 -48 -6 -72 q-6 -24 -25 -50 q-6 5 -16 11 q19 24 24 46 q5 21 5 70 l0 65 l81 0 q0 7 0 21 q-1 16 -1 26 l19 0 l1 -47 l61 0 l0 -18 l-61 0 q3 -62 9 -89 q16 27 29 63 l16 -7 q-18 -49 -40 -80 q9 -37 22 -37 q4 0 7 8 q1 6 3 22 q1 8 2 13 q4 -2 10 -4 q4 -1 6 -2 q-3 -24 -6 -37 q-4 -21 -21 -21 ZM9 132 l0 18 l25 0 l0 60 l18 0 l0 -60 l24 0 l0 -18 l-24 0 l0 -89 q4 1 12 4 q8 2 12 3 q1 -9 1 -19 q-27 -7 -68 -22 l-3 20 q7 2 21 6 q5 1 7 2 l0 95 l-25 0 ZM226 167 q-14 14 -29 26 l12 10 q19 -15 30 -25 l-13 -11 Z" /><glyph glyph-name="" unicode="&#x57df;" d="M82 149 l0 17 l86 0 q0 7 0 21 q-1 15 -1 23 l19 0 q0 -20 1 -44 l59 0 l0 -17 l-59 0 l1 -25 q2 -41 6 -68 q15 25 30 68 l16 -7 q-17 -50 -41 -86 q5 -18 12 -30 q6 -7 10 -7 q6 -1 8 10 q3 12 4 35 q9 -3 16 -6 q-1 -20 -5 -38 q-5 -23 -22 -22 q-16 -1 -26 20 q-6 8 -10 20 q-17 -21 -41 -42 q-2 2 -6 7 q-5 5 -8 8 q29 21 48 48 q-7 29 -10 88 q0 14 -1 27 l-86 0 ZM8 124 l0 19 l27 0 l0 67 l18 0 l0 -67 l25 0 l0 -19 l-25 0 l0 -91 q12 3 24 7 q0 -3 1 -10 q0 -6 1 -9 q-25 -6 -70 -21 l-4 20 q5 2 15 4 q10 3 15 4 l0 96 l-27 0 ZM88 48 l0 74 l61 0 l0 -74 l-61 0 ZM75 -3 l-4 18 q19 2 66 10 q15 2 21 3 q0 -8 0 -18 q-52 -9 -83 -13 ZM104 106 l0 -42 l29 0 l0 42 l-29 0 ZM222 174 q-14 16 -22 24 l13 9 q5 -5 16 -16 q5 -5 7 -7 l-14 -10 Z" /><glyph glyph-name="" unicode="&#x57fa;" d="M17 170 l0 16 l39 0 l0 24 l20 0 l0 -24 l105 0 l0 24 l19 0 l0 -24 l40 0 l0 -16 l-40 0 l0 -83 l47 0 l0 -17 l-71 0 q27 -26 73 -41 q-1 -2 -3 -6 q-5 -8 -6 -12 q-34 15 -48 25 l0 -14 l-54 0 l0 -24 l93 0 l0 -15 l-207 0 l0 15 l94 0 l0 24 l-55 0 l0 14 q-12 -9 -41 -25 q-3 -2 -5 -3 q-4 9 -10 18 q44 17 71 44 l-69 0 l0 17 l47 0 l0 83 l-39 0 ZM138 59 l0 -22 l53 0 q-21 14 -37 33 l-53 0 q-19 -21 -36 -33 l53 0 l0 22 l20 0 ZM76 105 l0 -18 l105 0 l0 18 l-105 0 ZM76 170 l0 -18 l105 0 l0 18 l-105 0 ZM76 138 l0 -19 l105 0 l0 19 l-105 0 Z" /><glyph glyph-name="" unicode="&#x5883;" d="M92 27 l0 84 l137 0 l0 -84 l-40 0 l0 -25 q-1 -11 14 -10 l13 0 q13 -1 15 10 q2 7 3 19 q2 -1 4 -2 q5 -1 12 -3 q-1 -11 -3 -21 q-4 -20 -29 -19 l-21 0 q-27 0 -27 24 l0 27 l-26 0 q1 -44 -73 -57 q-5 8 -11 16 q67 11 65 41 l-33 0 ZM88 171 l0 15 l67 0 q-3 11 -8 21 l21 3 q6 -12 8 -24 l62 0 l0 -15 l-39 0 l15 -4 q-2 -3 -7 -10 q-6 -9 -9 -14 l49 0 l0 -16 l-164 0 l0 16 l44 0 q-6 12 -14 24 l12 4 l-37 0 ZM11 127 l0 19 l24 0 l0 63 l19 0 l0 -63 l22 0 l0 -19 l-22 0 l0 -90 l26 7 q0 -11 0 -19 q-2 -1 -6 -2 q-42 -11 -64 -19 l-4 21 q15 3 29 7 l0 95 l-24 0 ZM111 63 l0 -21 l99 0 l0 21 l-99 0 ZM111 96 l0 -20 l99 0 l0 20 l-99 0 ZM148 144 l-5 -1 l35 0 q1 2 3 6 q10 16 12 22 l-61 0 l16 -27 Z" /><glyph glyph-name="" unicode="&#x589e;" d="M84 93 l0 85 l43 0 q-4 5 -12 18 q-5 6 -7 9 l17 6 q7 -8 22 -29 l-9 -4 l37 0 q5 7 16 24 q4 6 6 9 l20 -6 q-2 -3 -7 -9 q-10 -13 -14 -18 l43 0 l0 -85 l-155 0 ZM94 -30 l0 103 l135 0 l0 -103 l-19 0 l0 12 l-97 0 l0 -12 l-19 0 ZM10 125 l0 19 l25 0 l0 65 l18 0 l0 -65 l23 0 l0 -19 l-23 0 l0 -94 l28 8 q-1 -8 0 -20 q-33 -8 -70 -19 l-5 19 q5 2 16 4 q9 3 13 4 l0 98 l-25 0 ZM222 163 l-52 0 l0 -55 l52 0 l0 55 ZM101 163 l0 -55 l52 0 l0 55 l-52 0 ZM113 20 l0 -23 l97 0 l0 23 l-97 0 ZM113 59 l0 -25 l97 0 l0 25 l-97 0 ZM130 119 q-10 14 -20 27 l12 8 q11 -14 21 -28 l-13 -7 ZM192 118 l-12 8 q6 7 21 27 l12 -8 q-2 -3 -11 -14 q-8 -10 -10 -13 Z" /><glyph glyph-name="" unicode="&#x58c1;" d="M31 22 l0 15 l87 0 l0 21 l20 0 l0 -21 l87 0 l0 -15 l-87 0 l0 -26 l109 0 l0 -17 l-238 0 l0 17 l109 0 l0 26 l-87 0 ZM16 62 q-2 4 -7 11 q-3 4 -4 6 q24 27 22 81 l0 37 l92 0 l0 -56 l-75 0 q0 -14 -3 -26 l0 -2 q-5 -22 -25 -51 ZM129 119 l0 16 l31 0 q-12 18 -17 28 l16 5 q3 -4 9 -14 q7 -10 9 -14 l-16 -5 l31 0 q13 22 19 33 l18 -5 q-3 -4 -9 -13 q-7 -10 -10 -15 l35 0 l0 -16 l-50 0 l0 -23 l42 0 l0 -16 l-42 0 l0 -26 l-19 0 l0 26 l-41 0 l0 16 l41 0 l0 23 l-47 0 ZM43 62 l0 58 l78 0 l0 -58 l-78 0 ZM132 168 l0 16 l47 0 q-3 11 -9 23 l19 4 q2 -6 8 -21 q-1 2 2 -5 l-3 -1 l44 0 l0 -16 l-108 0 ZM45 182 l0 -26 l56 0 l0 26 l-56 0 ZM60 105 l0 -28 l44 0 l0 28 l-44 0 Z" /><glyph glyph-name="" unicode="&#x58ee;" d="M102 113 l0 20 l64 0 l0 74 l21 0 l0 -74 l62 0 l0 -20 l-62 0 l0 -107 l56 0 l0 -17 l-134 0 l0 17 l57 0 l0 107 l-64 0 ZM15 17 l-9 22 q33 24 59 46 l0 123 l20 0 l0 -237 l-20 0 l0 88 q-22 -19 -50 -42 ZM40 102 q-16 32 -31 59 l17 7 q15 -26 32 -58 l-18 -8 Z" /><glyph glyph-name="" unicode="&#x5907;" d="M38 -29 l0 113 l179 0 l0 -113 l-19 0 l0 11 l-141 0 l0 -11 l-19 0 ZM13 84 q-1 3 -3 10 q-3 6 -4 9 q61 9 103 23 q-24 12 -45 36 q-20 -20 -39 -34 q-2 2 -6 7 q-5 5 -7 7 q45 33 69 70 l20 -6 q-3 -3 -8 -10 q-3 -5 -5 -7 l129 0 l0 -17 q-28 -29 -63 -47 q39 -12 95 -16 q-5 -9 -8 -20 q-70 9 -110 26 q-40 -17 -118 -31 ZM191 173 l-113 0 q21 -24 53 -39 q32 14 60 39 ZM198 69 l-61 0 l0 -30 l61 0 l0 30 ZM137 25 l0 -28 l61 0 l0 28 l-61 0 ZM57 69 l0 -30 l61 0 l0 30 l-61 0 ZM57 25 l0 -28 l61 0 l0 28 l-61 0 Z" /><glyph glyph-name="" unicode="&#x590d;" d="M16 129 q-4 9 -9 17 q35 26 58 65 l21 -2 q-1 -3 -5 -8 q-3 -6 -5 -9 l168 0 l0 -16 l-180 0 q-1 -1 -2 -3 q-6 -7 -15 -16 l175 0 l0 -82 l-180 0 l0 77 q-11 -12 -26 -23 ZM28 -30 q-3 8 -9 17 q54 7 92 17 q-25 12 -45 29 q-19 -16 -46 -31 q-2 3 -8 10 q-3 3 -4 5 q49 24 74 56 l21 -3 q-2 -2 -6 -7 q-5 -5 -7 -8 l131 0 l0 -16 q-26 -21 -59 -36 q26 -5 86 -13 q-5 -8 -8 -17 q-67 9 -104 23 q-40 -15 -108 -26 ZM62 110 l0 -20 l140 0 l0 20 l-140 0 ZM62 142 l0 -19 l140 0 l0 19 l-140 0 ZM194 40 l-110 0 q24 -18 51 -28 q34 12 59 28 Z" /><glyph glyph-name="" unicode="&#x5915;" d="M22 77 q-2 3 -7 8 q-5 6 -8 8 q62 57 95 119 l23 -6 q-11 -18 -23 -36 l130 0 l0 -21 q-44 -118 -196 -177 q-1 1 -2 4 q-8 11 -12 16 q142 52 186 158 l-120 0 q-1 -1 -2 -3 q-9 -13 -16 -19 q31 -24 68 -56 l-16 -17 q-31 28 -64 58 q-16 -18 -36 -36 Z" /><glyph glyph-name="" unicode="&#x5916;" d="M17 70 q-2 2 -8 9 q-3 5 -5 7 q37 51 56 124 l21 -4 q-6 -19 -13 -39 l65 0 l0 -19 q-12 -115 -108 -176 q-2 3 -9 11 q-4 4 -5 6 q49 30 73 70 q-20 18 -41 34 l12 15 q6 -5 19 -15 q13 -11 19 -16 q15 31 20 71 l-53 0 q-18 -42 -43 -78 ZM159 -29 l0 238 l20 0 l0 -84 l10 9 q35 -29 61 -52 l-15 -15 q-35 33 -56 50 l0 -146 l-20 0 Z" /><glyph glyph-name="" unicode="&#x591a;" d="M37 28 q-3 4 -7 11 q-4 5 -5 6 q74 24 125 69 l21 -6 q-4 -3 -11 -9 q-7 -6 -11 -9 l89 0 l0 -19 q-71 -77 -217 -101 q-2 9 -8 19 q130 16 199 84 l-87 0 q-9 -7 -20 -13 q4 -3 11 -9 q17 -13 27 -20 l-16 -12 q-23 20 -39 32 q-22 -12 -51 -23 ZM32 135 q-5 8 -11 16 q58 23 100 62 l22 -4 q-12 -12 -25 -22 l109 0 l0 -18 q-71 -63 -209 -96 q-4 10 -8 18 q121 26 188 79 l-103 0 l-9 -6 q20 -13 39 -29 l-15 -12 q-17 15 -40 31 q-17 -9 -38 -19 Z" /><glyph glyph-name="" unicode="&#x591c;" d="M237 -25 q-48 15 -76 36 q-31 -22 -77 -40 q-1 1 -2 4 q-6 9 -9 14 q52 17 73 35 q-19 17 -39 53 q-10 -14 -23 -29 q-6 8 -12 15 q36 39 56 93 l19 -6 q-1 -1 -2 -4 q-5 -12 -8 -17 l90 0 l0 -19 q-15 -51 -52 -86 q30 -21 72 -30 l-10 -19 ZM12 159 l0 18 l115 0 q-8 17 -14 29 l21 5 q3 -4 8 -15 q5 -10 8 -16 l-8 -3 l105 0 l0 -18 l-235 0 ZM41 -29 l0 103 q-12 -16 -28 -33 q-1 5 -4 14 q-1 6 -2 9 q37 39 58 90 l20 -7 q-7 -14 -21 -39 q-3 -5 -4 -7 l0 -130 l-19 0 ZM207 111 l-79 0 q-1 -3 -4 -8 q-3 -6 -5 -9 q17 -36 42 -58 q32 30 46 75 ZM167 65 q-17 19 -27 28 l13 11 q15 -13 28 -27 l-14 -12 Z" /><glyph glyph-name="" unicode="&#x591f;" d="M17 116 q-6 9 -11 17 q25 33 40 78 l20 -4 q-3 -7 -9 -21 q-3 -5 -4 -8 l63 0 q0 -19 -1 -52 q0 -75 -2 -110 q0 -40 -37 -40 q-16 0 -30 0 q0 1 0 2 q-1 7 -4 17 q12 0 29 0 q25 -1 25 24 q2 46 2 142 l-53 0 q-8 -16 -20 -32 l52 0 l0 -98 l-41 0 l0 -13 l-15 0 l0 104 l-4 -6 ZM132 27 q-5 8 -11 14 q35 25 64 64 l17 -6 q-2 -2 -5 -6 q-2 -3 -9 -11 l59 0 l0 -17 q-34 -65 -122 -95 q-4 7 -11 16 q77 22 113 80 l-53 0 q-6 -7 -13 -13 q14 -12 26 -25 l-13 -11 q-12 14 -24 25 q-9 -7 -18 -15 ZM130 134 q-5 8 -11 14 q33 28 52 61 l18 -5 q-3 -4 -8 -12 q-4 -5 -5 -7 l63 0 l0 -17 q-30 -53 -106 -88 q-5 9 -11 16 q66 28 97 73 l-55 0 l-9 -10 q14 -12 26 -24 l-12 -11 q-3 3 -8 8 q-10 10 -16 16 q-7 -6 -15 -14 ZM36 112 l0 -65 l26 0 l0 65 l-26 0 Z" /><glyph glyph-name="" unicode="&#x5927;" d="M11 123 l0 20 l105 0 q2 23 2 66 l22 0 q0 -24 -2 -66 l106 0 l0 -20 l-105 0 q14 -92 109 -127 q-10 -13 -15 -20 q-87 38 -105 116 q-14 -76 -104 -120 l-15 18 q99 46 105 133 l-103 0 Z" /><glyph glyph-name="" unicode="&#x5929;" d="M23 175 l0 20 l210 0 l0 -20 l-95 0 q0 -40 -1 -60 l109 0 l0 -20 l-105 0 q17 -77 107 -100 q-4 -5 -9 -13 q-3 -5 -4 -7 q-90 30 -108 102 q-13 -67 -105 -105 q-8 12 -14 18 q95 38 105 105 l-104 0 l0 20 l106 0 q2 35 2 60 l-94 0 Z" /><glyph glyph-name="" unicode="&#x592a;" d="M11 128 l0 20 l105 0 q2 19 2 61 l22 0 q0 -21 -2 -61 l106 0 l0 -20 l-104 0 q18 -96 108 -134 q-4 -5 -9 -12 q-4 -4 -5 -6 q-89 43 -106 132 q-15 -82 -105 -136 q-7 9 -15 18 q92 49 105 138 l-102 0 ZM130 -18 q-14 17 -40 44 l16 12 q3 -3 11 -12 q20 -23 29 -31 l-16 -13 Z" /><glyph glyph-name="" unicode="&#x5934;" d="M9 59 l0 19 l126 0 q6 37 7 131 l21 0 q-1 -92 -7 -131 l91 0 l0 -19 l-95 0 q0 -1 0 -2 q-1 -4 -4 -11 q9 -5 27 -16 q45 -25 67 -36 l-14 -18 q-29 19 -81 49 q-5 3 -8 5 q-22 -34 -116 -59 q-3 4 -10 14 q-2 4 -3 5 q111 26 120 69 l-121 0 ZM82 94 q-36 26 -59 40 l11 15 q3 -2 9 -5 q25 -15 52 -33 l-13 -17 ZM112 145 q-22 16 -59 40 l12 14 q33 -19 59 -37 l-12 -17 Z" /><glyph glyph-name="" unicode="&#x5949;" d="M24 171 l0 16 l91 0 q3 12 4 23 l21 0 q-3 -11 -4 -23 l96 0 l0 -16 l-99 0 q-3 -10 -6 -21 l93 0 l0 -16 l-99 0 q-4 -10 -10 -21 l129 0 l0 -16 l-61 0 q23 -27 70 -42 q-4 -5 -10 -17 q-29 12 -47 24 l0 -14 l-55 0 l0 -25 l88 0 l0 -17 l-88 0 l0 -35 l-19 0 l0 35 l-87 0 l0 17 l87 0 l0 25 l-55 0 l0 15 q-1 -1 -4 -3 q-24 -17 -41 -26 q0 1 -1 2 q-6 11 -10 15 q45 23 66 46 l-57 0 l0 16 l71 0 q8 11 13 21 l-64 0 l0 16 l70 0 q5 11 6 21 l-88 0 ZM189 64 q-18 13 -32 33 l-58 0 q-13 -16 -34 -33 l53 0 l0 20 l19 0 l0 -20 l52 0 Z" /><glyph glyph-name="" unicode="&#x594f;" d="M239 39 q-37 15 -60 35 l0 -12 l-41 0 q0 -12 -1 -21 l82 0 l0 -16 l-86 0 q0 -1 0 -2 q-1 -2 -1 -3 q7 -2 22 -8 q55 -18 74 -26 l-9 -16 q-7 3 -27 11 q-47 19 -67 25 q-16 -25 -92 -37 q-1 4 -7 13 q-1 4 -2 5 q85 12 90 38 l-76 0 l0 16 l80 0 q1 9 1 21 l-46 0 l0 12 q-22 -19 -55 -38 q-1 2 -4 6 q-5 8 -7 12 q43 21 65 45 l-63 0 l0 15 l77 0 q8 11 12 21 l-70 0 l0 15 l77 0 q1 4 3 10 q2 7 3 10 l-92 0 l0 16 l95 0 q3 12 4 24 l21 0 q0 -4 -2 -12 q-1 -8 -2 -12 l102 0 l0 -16 l-105 0 q-1 -3 -3 -10 q-2 -6 -3 -10 l102 0 l0 -15 l-108 0 q-5 -10 -11 -21 l138 0 l0 -15 l-68 0 q22 -27 69 -42 q-1 -2 -3 -6 q-5 -9 -6 -12 ZM176 77 q-10 9 -19 22 l-59 0 q-10 -12 -22 -22 l100 0 Z" /><glyph glyph-name="" unicode="&#x597d;" d="M99 -4 q-14 10 -32 27 q-12 -19 -47 -49 q-8 10 -14 16 q33 22 47 46 l-37 31 q6 22 16 74 l-23 0 l0 19 l26 0 q4 24 7 50 l21 -2 q-1 -7 -3 -21 q-3 -18 -5 -27 l45 0 l0 -19 q-6 -66 -23 -101 q8 -6 23 -19 q9 -8 13 -11 l-14 -14 ZM107 81 l0 19 l63 0 l0 35 l46 41 l-100 0 l0 19 l125 0 l0 -21 l-50 -46 l0 -28 l58 0 l0 -19 l-58 0 l0 -75 q1 -31 -32 -31 q-18 0 -31 0 q0 2 -1 6 q-2 10 -3 15 q15 -1 29 -1 q18 -1 17 15 l0 71 l-63 0 ZM81 141 l-30 0 q-4 -28 -15 -68 q4 -3 14 -11 q8 -7 12 -10 q17 37 19 89 Z" /><glyph glyph-name="" unicode="&#x5982;" d="M141 -20 l0 202 l95 0 l0 -200 l-20 0 l0 18 l-55 0 l0 -20 l-20 0 ZM112 -10 q-5 5 -16 13 q-13 11 -19 17 q-18 -22 -56 -49 q-3 4 -9 11 q-4 4 -5 6 q35 21 54 46 q-21 18 -42 35 q11 34 18 73 l-29 0 l0 19 l33 0 q4 24 7 49 l22 -2 q-3 -21 -8 -47 l55 0 l0 -19 q-7 -70 -29 -105 l39 -32 l-15 -15 ZM161 164 l0 -145 l55 0 l0 145 l-55 0 ZM97 142 l-39 0 q-1 -5 -4 -16 q-4 -22 -13 -51 l31 -25 q18 29 25 92 Z" /><glyph glyph-name="" unicode="&#x5986;" d="M93 133 l0 19 l44 0 q9 29 15 57 l22 -4 q-1 -4 -3 -12 q-4 -14 -13 -41 l91 0 l0 -19 l-23 0 q-10 -69 -38 -102 q30 -19 61 -38 l-14 -18 q-31 22 -61 41 q-29 -23 -78 -45 q-1 1 -2 3 q-7 12 -10 16 q49 17 72 38 q-25 18 -50 34 q14 35 25 71 l-38 0 ZM58 -28 l0 84 q-7 -6 -21 -19 q-16 -14 -24 -21 l-9 22 q14 10 45 36 q6 5 9 7 l0 127 l20 0 l0 -236 l-20 0 ZM130 69 l40 -26 q26 30 36 90 l-54 0 q-11 -35 -22 -64 ZM37 99 q-11 24 -30 63 l16 7 q22 -42 31 -63 l-17 -7 Z" /><glyph glyph-name="" unicode="&#x59cb;" d="M93 -4 l-27 24 q-17 -22 -48 -47 l-13 15 q32 24 46 45 q-6 6 -18 16 q-12 11 -18 16 q9 34 16 76 l-24 0 l0 18 l27 0 q1 6 2 17 q3 22 4 34 l20 -2 q-3 -27 -7 -49 l46 0 l0 -18 q-5 -70 -23 -105 q17 -13 30 -27 l-13 -13 ZM117 -29 l0 108 l115 0 l0 -108 l-19 0 l0 16 l-77 0 l0 -16 l-19 0 ZM113 106 l-9 19 q9 6 17 17 q26 39 40 69 l20 -8 q-27 -46 -49 -76 q20 1 68 3 q-6 -1 12 0 q-10 18 -21 36 l16 9 q29 -47 42 -71 l-17 -9 l-10 18 q-22 -1 -61 -3 q-18 -1 -26 -1 q-12 0 -22 -3 ZM136 61 l0 -58 l77 0 l0 58 l-77 0 ZM81 141 l-31 0 q-7 -41 -15 -71 q12 -10 26 -21 q14 28 20 92 Z" /><glyph glyph-name="" unicode="&#x5b50;" d="M7 79 l0 20 l113 0 l0 27 l74 51 l-163 0 l0 19 l194 0 l0 -23 l-83 -57 l0 -17 l107 0 l0 -20 l-107 0 l0 -71 q1 -32 -34 -33 q-6 0 -17 0 q-14 -1 -22 -1 q-1 13 -4 23 q5 0 15 0 q13 -1 20 -1 q21 -1 20 19 l0 64 l-113 0 Z" /><glyph glyph-name="" unicode="&#x5b58;" d="M14 166 l0 18 l67 0 q6 13 10 28 l23 -4 q-4 -12 -10 -24 l144 0 l0 -18 l-152 0 q-18 -37 -33 -57 l0 -138 l-19 0 l0 110 q-13 -16 -29 -33 q-4 11 -10 20 q43 44 68 98 l-59 0 ZM77 51 l0 19 l83 0 l0 16 l45 33 l-110 0 l0 17 l138 0 l0 -19 l-53 -38 l0 -9 l69 0 l0 -19 l-69 0 l0 -48 q1 -29 -30 -29 q-7 0 -18 -1 q-10 0 -16 0 q-2 10 -5 21 q18 -1 32 -1 q18 -1 17 13 l0 45 l-83 0 Z" /><glyph glyph-name="" unicode="&#x5b66;" d="M9 36 l0 19 l114 0 l0 11 l48 28 l-117 0 l0 19 l145 0 l0 -20 l-55 -33 l0 -5 l104 0 l0 -19 l-104 0 l0 -33 q1 -31 -31 -30 q-14 -1 -36 -1 q0 3 -2 10 q-1 8 -2 12 q15 -1 32 -1 q19 -1 18 16 l0 27 l-114 0 ZM16 107 l0 51 l166 0 l-15 7 q4 5 11 14 q16 19 22 28 l20 -8 q-15 -21 -33 -41 l53 0 l0 -51 l-20 0 l0 33 l-183 0 l0 -33 l-21 0 ZM126 166 q-3 4 -8 13 q-10 18 -16 26 l19 6 q5 -6 13 -19 q9 -12 13 -19 l-21 -7 ZM60 162 q-6 9 -19 26 q-5 7 -7 10 l19 8 q4 -5 13 -16 q10 -13 14 -19 l-20 -9 Z" /><glyph glyph-name="" unicode="&#x5b98;" d="M47 -29 l0 168 l160 0 l0 -64 l-140 0 l0 -25 l150 0 l0 -78 l-20 0 l0 13 l-130 0 l0 -14 l-20 0 ZM16 134 l0 46 l106 0 q-5 15 -11 27 l22 4 q1 -3 4 -10 q5 -12 8 -20 l-3 -1 l98 0 l0 -46 l-20 0 l0 30 l-184 0 l0 -30 l-20 0 ZM197 33 l-130 0 l0 -33 l130 0 l0 33 ZM67 122 l0 -31 l120 0 l0 31 l-120 0 Z" /><glyph glyph-name="" unicode="&#x5b9a;" d="M14 105 l0 19 l227 0 l0 -19 l-98 0 l0 -40 l85 0 l0 -18 l-85 0 l0 -49 q49 0 105 0 q0 -1 -1 -4 q-4 -11 -5 -16 q-81 0 -108 1 q-51 2 -78 42 q-10 -24 -36 -50 q-6 7 -13 16 q40 35 45 99 l21 -2 q-1 -4 -2 -11 q-4 -21 -7 -29 q23 -42 59 -45 l0 106 l-109 0 ZM217 137 l0 27 l-178 0 l0 -26 l-20 0 l0 44 l102 0 q-4 14 -8 26 l23 3 q2 -6 5 -19 q2 -6 3 -10 l93 0 l0 -45 l-20 0 Z" /><glyph glyph-name="" unicode="&#x5b9d;" d="M24 109 l0 18 l205 0 l0 -18 l-92 0 l0 -38 l87 0 l0 -17 l-87 0 l0 -54 l110 0 l0 -16 l-238 0 l0 16 l108 0 l0 54 l-86 0 l0 17 l86 0 l0 38 l-93 0 ZM16 138 l0 40 l107 0 q-2 7 -11 23 q-1 3 -2 5 l21 5 q12 -21 15 -31 l-6 -2 l99 0 l0 -40 l-20 0 l0 22 l-183 0 l0 -22 l-20 0 ZM195 5 q-9 12 -27 32 l15 11 q3 -3 10 -11 q13 -14 18 -20 l-16 -12 Z" /><glyph glyph-name="" unicode="&#x5b9e;" d="M11 41 l0 19 l120 0 q1 0 1 0 q10 30 10 87 l21 0 q0 -51 -9 -87 l92 0 l0 -19 l-98 0 q-1 -1 -2 -3 q-2 -4 -3 -5 q17 -8 55 -23 q30 -12 44 -18 l-11 -18 q-30 14 -76 34 q-14 6 -22 9 q-28 -30 -112 -47 q-2 5 -8 14 q-2 4 -3 6 q97 15 114 51 l-113 0 ZM15 131 l0 48 l109 0 q-3 5 -7 15 q-4 8 -6 12 l21 5 q7 -13 14 -31 l-6 -1 l100 0 l0 -48 l-20 0 l0 30 l-185 0 l0 -30 l-20 0 ZM88 67 q-25 15 -51 27 l10 16 q26 -13 52 -26 l-11 -17 ZM111 104 q-19 12 -50 28 l9 14 q24 -10 51 -25 l-10 -17 Z" /><glyph glyph-name="" unicode="&#x5ba4;" d="M213 57 l-17 15 q-30 0 -58 -1 l0 -30 l88 0 l0 -16 l-88 0 l0 -28 l110 0 l0 -17 l-240 0 l0 17 l110 0 l0 28 l-88 0 l0 16 l88 0 l0 29 l-50 -1 q-13 0 -25 -2 l-8 17 q2 1 6 3 q8 3 12 6 q19 12 37 28 l-48 0 l0 16 l173 0 l0 -16 l-96 0 q-21 -17 -49 -37 q17 0 53 2 q38 1 56 2 l-23 19 l13 12 q32 -26 58 -48 l-14 -14 ZM16 137 l0 44 l107 0 q-6 12 -12 26 l21 5 q2 -4 6 -13 q5 -10 7 -16 l-7 -2 l102 0 l0 -44 l-20 0 l0 27 l-184 0 l0 -27 l-20 0 Z" /><glyph glyph-name="" unicode="&#x5bb3;" d="M41 -30 l0 72 l173 0 l0 -71 l-20 0 l0 11 l-133 0 l0 -12 l-20 0 ZM36 132 l0 15 l82 0 l0 15 l19 0 l0 -15 l82 0 l0 -15 l-82 0 l0 -19 l80 0 l0 -15 l-80 0 l0 -20 l103 0 l0 -16 l-103 0 l0 -16 l-19 0 l0 16 l-103 0 l0 16 l103 0 l0 20 l-80 0 l0 15 l80 0 l0 19 l-82 0 ZM14 148 l0 39 l105 0 q-2 13 -5 23 l22 2 q1 -4 4 -15 q1 -7 2 -10 l99 0 l0 -39 l-20 0 l0 23 l-187 0 l0 -23 l-20 0 ZM61 26 l0 -29 l133 0 l0 29 l-133 0 Z" /><glyph glyph-name="" unicode="&#x5bf8;" d="M10 143 l0 19 l159 0 l0 47 l22 0 l0 -47 l55 0 l0 -19 l-55 0 l0 -120 q2 -45 -45 -45 q-24 -1 -52 -1 q-1 4 -2 10 q-2 8 -3 12 q5 0 18 0 q19 -1 30 -1 q36 -4 32 31 l0 114 l-159 0 ZM98 47 q-14 17 -57 65 l16 13 q36 -38 59 -64 l-18 -14 Z" /><glyph glyph-name="" unicode="&#x5bf9;" d="M103 0 l-31 47 q-19 -35 -54 -67 q-3 4 -10 14 q-2 4 -3 5 q34 29 54 67 q-26 38 -46 69 l16 9 q12 -17 40 -57 q12 28 19 78 l-76 0 l0 19 l97 0 l0 -20 q-9 -56 -26 -97 q5 -8 15 -23 q16 -23 23 -33 l-18 -11 ZM122 138 l0 19 l79 0 l0 52 l20 0 l0 -52 l29 0 l0 -19 l-29 0 l0 -125 q2 -39 -35 -37 q-13 -1 -36 -1 q0 9 -4 22 q7 -1 33 -1 q24 -2 22 21 l0 121 l-79 0 ZM156 50 q-9 17 -33 55 l16 9 q16 -23 35 -53 l-18 -11 Z" /><glyph glyph-name="" unicode="&#x5c04;" d="M7 51 l0 16 l19 0 l0 115 l31 0 q3 15 6 29 l20 -1 q-3 -15 -6 -28 l44 0 l0 -180 q2 -26 -27 -26 q-10 -1 -29 -1 q-3 13 -5 19 q5 -1 29 -1 q15 0 14 12 l0 46 l-1 0 q-30 -44 -87 -69 q-1 1 -3 6 q-5 8 -6 11 q48 18 75 52 l-74 0 ZM129 135 l0 19 l73 0 l0 55 l20 0 l0 -55 l27 0 l0 -19 l-27 0 l0 -128 q2 -31 -34 -31 q-11 -1 -35 -1 q-1 10 -4 20 q8 -1 32 -1 q22 -1 21 16 l0 125 l-73 0 ZM44 166 l0 -23 l59 0 l0 23 l-59 0 ZM44 90 l0 -23 l59 0 l0 23 l-59 0 ZM44 128 l0 -23 l59 0 l0 23 l-59 0 ZM166 49 q-16 33 -31 58 l17 7 q17 -32 31 -57 l-17 -8 Z" /><glyph glyph-name="" unicode="&#x5c06;" d="M94 136 q-1 2 -5 7 q-5 6 -6 8 q44 30 66 60 l20 -5 q-10 -13 -20 -23 l91 0 l0 -19 q-44 -57 -145 -79 q-2 6 -9 17 q90 19 131 63 l-86 0 l-5 -5 q16 -11 35 -27 l-15 -12 q-19 18 -33 29 q-8 -8 -19 -14 ZM84 58 l0 18 l113 0 l0 30 l20 0 l0 -30 l33 0 l0 -18 l-33 0 l0 -53 q1 -30 -32 -30 q-5 0 -16 -1 q-10 0 -16 0 q-2 12 -4 21 q14 -1 30 -1 q19 -1 18 16 l0 48 l-113 0 ZM13 23 l-8 22 q28 24 49 45 l0 119 l19 0 l0 -239 l-19 0 l0 93 q-6 -6 -20 -19 q-14 -14 -21 -21 ZM34 105 q-6 15 -22 48 q-4 9 -6 13 l16 6 q2 -5 8 -16 q14 -29 20 -44 l-16 -7 ZM141 5 q-6 7 -20 22 q-10 10 -14 15 l14 11 q7 -7 25 -24 q7 -8 11 -12 l-16 -12 Z" /><glyph glyph-name="" unicode="&#x5c0f;" d="M28 24 q-10 6 -21 9 q32 59 51 121 l21 -6 q-26 -76 -51 -124 ZM228 27 q-34 80 -54 119 l20 7 q8 -17 28 -58 q19 -42 27 -59 l-21 -9 ZM71 -25 q-1 12 -4 22 q6 0 15 0 q10 -1 17 -1 q23 -2 21 19 l0 192 l22 0 l0 -198 q2 -34 -35 -34 q-16 0 -36 0 Z" /><glyph glyph-name="" unicode="&#x5c11;" d="M29 63 q-9 6 -19 11 q33 50 53 101 l20 -7 q-25 -60 -54 -105 ZM232 90 q-19 26 -57 70 q-5 6 -8 9 l16 11 q24 -25 67 -76 l-18 -14 ZM116 62 l0 147 l22 0 l0 -147 l-22 0 ZM18 -29 q-2 5 -10 21 q130 21 190 103 l18 -13 q-65 -84 -198 -111 Z" /><glyph glyph-name="" unicode="&#x5c14;" d="M218 112 q-4 3 -20 9 l22 37 l-152 0 q-17 -28 -44 -56 q-3 2 -8 7 q-5 5 -8 7 q42 42 64 94 l22 -4 q-2 -3 -5 -10 q-2 -5 -9 -18 l163 0 l0 -21 l-25 -45 ZM78 -26 q-2 11 -5 22 q8 -1 28 -1 q22 -1 20 16 l0 132 l21 0 l0 -136 q3 -34 -34 -33 q-11 0 -30 0 ZM27 -3 q-8 6 -19 11 q40 50 60 96 l21 -8 q-29 -55 -62 -99 ZM228 0 q-22 38 -59 94 l18 10 q23 -33 61 -92 l-20 -12 Z" /><glyph glyph-name="" unicode="&#x5c31;" d="M23 70 l0 69 l97 0 l0 -69 l-39 0 l0 -68 q2 -27 -26 -27 q-10 0 -20 0 q0 1 -1 4 q-1 9 -3 14 q6 -1 19 -1 q13 0 13 12 l0 66 l-40 0 ZM131 125 l0 17 l26 0 q1 21 1 68 l19 0 q0 -10 0 -32 q-1 -24 -1 -36 l67 0 l0 -17 l-68 0 q-3 -97 -54 -154 q-2 2 -8 6 q-6 4 -9 6 q52 51 52 142 l-25 0 ZM208 -23 q-25 -1 -25 25 l0 121 l18 0 l0 -116 q-1 -12 11 -11 l5 0 q12 -1 14 13 q2 17 3 36 q1 -1 4 -2 q8 -3 12 -4 q-1 -21 -4 -37 q-4 -26 -29 -25 l-9 0 ZM9 162 l0 17 l57 0 q-2 5 -4 16 q-3 9 -4 14 l20 2 q5 -17 8 -32 l46 0 l0 -17 l-123 0 ZM41 123 l0 -37 l61 0 l0 37 l-61 0 ZM23 -1 q-2 1 -8 3 q-5 2 -8 3 q14 25 23 50 l17 -6 q-1 -3 -4 -9 q-13 -30 -20 -41 ZM221 156 q-10 12 -32 28 l13 12 q4 -3 10 -9 q17 -12 23 -19 l-14 -12 ZM110 18 q-8 15 -19 33 l15 7 q11 -17 20 -33 l-16 -7 Z" /><glyph glyph-name="" unicode="&#x5c3a;" d="M233 -24 q-99 32 -122 122 l-48 0 q0 -82 -40 -126 q-5 4 -16 15 q21 24 28 49 q7 25 7 73 l0 84 l178 0 l0 -108 l-21 0 l0 13 l-67 0 q22 -77 114 -103 q-4 -4 -10 -14 q-2 -3 -3 -5 ZM63 174 l0 -57 l136 0 l0 57 l-136 0 Z" /><glyph glyph-name="" unicode="&#x5c3d;" d="M237 22 q-71 29 -91 93 l-86 0 q-2 -67 -41 -114 q-1 1 -4 6 q-7 8 -9 11 q37 42 34 119 l0 61 l185 0 l0 -83 l-59 0 q20 -52 82 -75 q-3 -5 -9 -14 q-1 -3 -2 -4 ZM60 137 l0 -4 l144 0 l0 47 l-144 0 l0 -43 ZM179 -27 q-60 22 -119 37 l9 17 q36 -10 101 -31 q11 -3 17 -5 l-8 -18 ZM159 38 q-20 8 -57 21 q-12 5 -18 7 l9 15 q45 -14 75 -26 l-9 -17 Z" /><glyph glyph-name="" unicode="&#x5c4f;" d="M21 -28 q-3 2 -8 7 q-5 5 -8 7 q17 23 22 47 q5 23 5 71 l0 94 l204 0 l0 -63 l-184 0 l0 -35 q3 -88 -31 -128 ZM68 83 l0 17 l47 0 q-8 14 -20 27 l18 7 q12 -15 21 -29 l-15 -5 l44 0 q4 5 10 16 q8 12 12 18 l19 -6 q-2 -3 -7 -10 q-8 -12 -12 -18 l51 0 l0 -17 l-40 0 l0 -34 l52 0 l0 -16 l-52 0 l0 -61 l-19 0 l0 61 l-54 0 q-2 -37 -42 -63 q-2 2 -7 6 q-6 5 -8 7 q36 22 37 50 l-46 0 l0 16 l47 0 l0 6 l0 28 l-36 0 ZM52 181 l0 -29 l165 0 l0 29 l-165 0 ZM124 54 l0 -5 l53 0 l0 34 l-53 0 l0 -29 Z" /><glyph glyph-name="" unicode="&#x5c55;" d="M237 -24 q-88 19 -113 78 l-26 0 l0 -58 l45 12 q0 -7 0 -17 q-14 -3 -37 -11 q-4 -2 -5 -2 q-11 -5 -19 -8 l-10 15 q7 6 7 20 l0 49 l-30 0 q-2 -46 -27 -82 q-11 11 -15 14 q15 24 19 47 q5 22 5 71 l0 95 l201 0 l0 -57 l-182 0 l0 -35 q0 -21 0 -37 l51 0 l0 28 l-44 0 l0 16 l44 0 l0 22 l19 0 l0 -22 l50 0 l0 22 l19 0 l0 -22 l45 0 l0 -16 l-45 0 l0 -28 l55 0 l0 -16 l-102 0 q12 -19 27 -31 q35 16 48 25 l11 -14 q-21 -11 -44 -21 q17 -10 63 -19 q-1 -3 -5 -9 q-3 -6 -5 -9 ZM50 183 l0 -25 l163 0 l0 25 l-163 0 ZM120 98 l0 -28 l50 0 l0 28 l-50 0 Z" /><glyph glyph-name="" unicode="&#x5de5;" d="M24 168 l0 21 l208 0 l0 -21 l-93 0 l0 -161 l107 0 l0 -19 l-236 0 l0 19 l106 0 l0 161 l-92 0 Z" /><glyph glyph-name="" unicode="&#x5dee;" d="M21 161 l0 17 l65 0 q-14 16 -25 27 l20 7 q2 -2 7 -8 q14 -14 18 -21 l-13 -5 l61 0 q19 21 27 33 l21 -6 q-6 -7 -19 -23 q-3 -3 -4 -4 l60 0 l0 -17 l-105 0 q-1 -3 -2 -8 q-2 -11 -4 -17 l101 0 l0 -16 l-106 0 q-5 -13 -11 -25 l137 0 l0 -16 l-146 0 q-8 -15 -20 -28 l140 0 l0 -16 l-67 0 l0 -39 l90 0 l0 -16 l-207 0 l0 16 l97 0 l0 39 l-61 0 l0 7 q-23 -24 -59 -44 q-1 3 -7 11 q-2 4 -3 5 q50 31 74 65 l-70 0 l0 16 l80 0 q8 12 12 25 l-74 0 l0 16 l79 0 q4 12 7 25 l-93 0 Z" /><glyph glyph-name="" unicode="&#x5df1;" d="M72 -20 q-41 0 -41 39 l0 92 l167 0 l0 65 l-172 0 l0 20 l194 0 l0 -104 l-168 0 l0 -68 q-2 -26 28 -24 l111 0 q28 -1 30 15 q4 13 6 36 q4 -1 11 -3 q8 -2 11 -3 q-2 -13 -6 -35 q-1 -3 -1 -4 q-7 -27 -45 -26 l-125 0 Z" /><glyph glyph-name="" unicode="&#x5e08;" d="M102 177 l0 19 l147 0 l0 -19 l-65 0 l0 -37 l55 0 l0 -105 q1 -28 -24 -28 q-11 0 -20 0 q-1 9 -4 19 q8 -1 17 -1 q14 -1 13 13 l0 84 l-37 0 l0 -151 l-19 0 l0 151 l-37 0 l0 -118 l-18 0 l0 136 l55 0 l0 37 l-63 0 ZM35 -31 q-8 7 -17 13 q28 24 37 49 q10 25 10 75 l0 103 l19 0 l0 -102 q0 -55 -10 -83 q-10 -28 -39 -55 ZM19 42 l0 146 l17 0 l0 -146 l-17 0 Z" /><glyph glyph-name="" unicode="&#x5e26;" d="M41 -10 l0 85 l77 0 l0 22 l20 0 l0 -22 l78 0 l0 -56 q2 -26 -27 -26 q-7 -1 -28 -1 q-1 8 -4 16 q5 0 15 -1 q7 0 10 0 q16 -1 15 14 l0 37 l-59 0 l0 -87 l-20 0 l0 87 l-58 0 l0 -68 l-19 0 ZM7 163 l0 17 l49 0 l0 29 l19 0 l0 -29 l43 0 l0 30 l19 0 l0 -30 l44 0 l0 29 l19 0 l0 -29 l48 0 l0 -17 l-48 0 l0 -27 l-19 0 l0 27 l-44 0 l0 -27 l-19 0 l0 27 l-43 0 l0 -27 l-19 0 l0 27 l-49 0 ZM15 81 l0 43 l225 0 l0 -43 l-19 0 l0 26 l-186 0 l0 -26 l-20 0 Z" /><glyph glyph-name="" unicode="&#x5e2e;" d="M16 170 l0 16 l51 0 l0 24 l19 0 l0 -24 l48 0 l0 -16 l-48 0 l0 -11 q0 -5 0 -8 l42 0 l0 -15 l-43 0 q-1 -12 -3 -21 l54 0 l0 -15 l-59 0 q-10 -22 -33 -39 l75 0 l0 20 l20 0 l0 -20 l79 0 l0 -48 q0 -26 -27 -27 q-14 0 -29 0 q-2 8 -5 15 q15 0 26 0 q16 -1 15 13 l0 30 l-59 0 l0 -73 l-20 0 l0 73 l-57 0 l0 -58 l-19 0 l0 74 q-9 -7 -19 -13 q-3 3 -9 9 q-3 3 -5 5 q34 20 45 39 l-43 0 l0 15 l50 0 q3 9 4 21 l-44 0 l0 15 l45 0 q0 3 0 8 l0 11 l-51 0 ZM151 75 l0 122 l83 0 l0 -17 l-19 -32 q26 -16 26 -36 q0 -26 -30 -27 q-3 0 -11 0 q-9 -1 -14 -1 q-1 9 -4 18 q7 -1 24 -1 q16 1 16 13 q0 14 -28 31 l21 35 l-46 0 l0 -105 l-18 0 Z" /><glyph glyph-name="" unicode="&#x5e55;" d="M119 -29 l0 53 l-54 0 l0 -40 l-19 0 l0 43 q-14 -7 -31 -13 q-2 4 -7 13 q-1 2 -2 3 q42 12 68 32 l-61 0 l0 15 l77 0 q7 7 13 16 l-64 0 l0 69 l178 0 l0 -69 l-94 0 q-4 -9 -10 -16 l130 0 l0 -15 l-68 0 q28 -23 74 -29 q-1 -3 -4 -9 q-3 -6 -4 -9 q-9 2 -23 7 q-6 2 -8 3 l0 -18 q1 -21 -25 -21 q-13 0 -27 0 l-3 14 q4 0 24 0 q13 0 12 9 l0 15 l-54 0 l0 -53 l-18 0 ZM12 179 l0 15 l69 0 l0 16 l19 0 l0 -16 l56 0 l0 16 l20 0 l0 -16 l68 0 l0 -15 l-68 0 l0 -11 l-20 0 l0 11 l-56 0 l0 -11 l-19 0 l0 11 l-69 0 ZM58 122 l0 -16 l139 0 l0 16 l-139 0 ZM58 149 l0 -16 l139 0 l0 16 l-139 0 ZM137 55 l0 -17 l45 0 q-17 12 -28 24 l-55 0 q-12 -13 -31 -24 l51 0 l0 17 l18 0 Z" /><glyph glyph-name="" unicode="&#x5e76;" d="M18 147 l0 19 l131 0 q18 24 31 45 l21 -7 q-2 -2 -5 -7 q-15 -20 -23 -31 l64 0 l0 -19 l-49 0 l0 -61 l60 0 l0 -20 l-60 0 l0 -94 l-22 0 l0 94 l-75 0 q2 -63 -58 -96 q-7 7 -16 15 q55 29 53 81 l-63 0 l0 20 l64 0 l0 61 l-53 0 ZM92 147 l0 -61 l74 0 l0 61 l-74 0 ZM87 167 q-5 6 -14 18 q-10 12 -15 18 l19 8 q2 -2 5 -6 q9 -10 24 -30 l-19 -8 Z" /><glyph glyph-name="" unicode="&#x5e78;" d="M29 167 l0 16 l88 0 l0 28 l21 0 l0 -28 l89 0 l0 -16 l-89 0 l0 -31 l110 0 l0 -17 l-69 0 l17 -7 q-13 -15 -27 -30 l59 0 l0 -17 l-90 0 l0 -31 l109 0 l0 -17 l-109 0 l0 -47 l-21 0 l0 47 l-110 0 l0 17 l110 0 l0 31 l-90 0 l0 17 l61 0 q-5 5 -15 15 q-9 10 -13 14 l15 8 l-67 0 l0 17 l109 0 l0 31 l-88 0 ZM109 86 l-8 -4 l43 0 q17 19 32 37 l-97 0 q3 -4 10 -11 q15 -14 20 -22 Z" /><glyph glyph-name="" unicode="&#x5e7b;" d="M20 0 l-8 19 q8 4 17 17 q16 18 45 62 q-37 -1 -59 -4 l-8 20 q8 4 16 16 q27 38 48 77 l21 -7 q-28 -45 -57 -86 l51 2 q14 21 24 40 l19 -9 q-46 -71 -88 -127 q4 0 12 1 q38 1 54 3 q-4 9 -13 27 q-4 10 -6 14 l17 7 q23 -46 35 -73 l-18 -8 l-7 15 q-7 0 -18 -1 q-38 -2 -53 -4 q-4 0 -12 -1 q-8 0 -12 0 ZM147 -23 q0 3 -2 10 q-1 7 -2 11 q16 -1 38 -1 q31 -2 30 25 q0 19 2 61 q1 59 2 87 l-96 0 l0 19 l116 0 q-2 -96 -4 -171 q1 -41 -44 -40 q-11 -1 -40 -1 Z" /><glyph glyph-name="" unicode="&#x5e7f;" d="M26 -28 q-10 8 -20 15 q20 24 26 48 q7 23 7 71 l0 67 l98 0 q-5 11 -16 33 l23 5 q9 -17 17 -34 l-13 -4 l98 0 l0 -20 l-186 0 l0 -48 q0 -51 -7 -77 q-7 -28 -27 -56 Z" /><glyph glyph-name="" unicode="&#x5e8f;" d="M101 -26 q0 3 -2 8 q-1 8 -2 12 q4 0 13 0 q12 -1 18 -1 q18 0 17 15 l0 51 l-81 0 l0 18 l84 0 q-3 2 -8 5 q-24 15 -38 23 l11 13 q19 -10 38 -23 l49 30 l-125 0 l0 17 l154 0 l0 -19 l-62 -38 q1 0 1 0 q1 -1 1 -1 l-7 -7 l82 0 l0 -18 l-18 -43 l-19 7 l17 36 l-59 0 l0 -54 q0 -29 -31 -30 q-4 0 -16 0 q-12 -1 -17 -1 ZM23 -29 q-2 2 -8 7 q-6 4 -9 7 q27 35 25 119 l0 79 l102 0 q-5 11 -11 23 l22 5 q6 -15 12 -28 l92 0 l0 -18 l-197 0 l0 -63 q0 -51 -6 -78 q-5 -26 -22 -53 Z" /><glyph glyph-name="" unicode="&#x5e93;" d="M64 117 l0 17 l51 0 q3 4 8 13 q5 8 7 12 l21 -3 q-2 -3 -7 -11 q-4 -7 -7 -11 l99 0 l0 -17 l-110 0 q-15 -22 -30 -43 l53 0 l0 30 l19 0 l0 -30 l66 0 l0 -17 l-66 0 l0 -27 l78 0 l0 -17 l-78 0 l0 -42 l-19 0 l0 42 l-94 0 l0 17 l94 0 l0 27 l-75 0 l0 19 q15 19 30 41 l-40 0 ZM22 -29 q-2 1 -5 4 q-2 2 -11 9 q15 25 20 46 q4 21 4 70 l0 84 l103 0 q-1 5 -3 13 q-3 8 -4 12 l22 2 l7 -27 l91 0 l0 -17 l-197 0 l0 -69 q2 -86 -27 -127 Z" /><glyph glyph-name="" unicode="&#x5e94;" d="M22 -28 l-16 13 q16 25 21 49 q5 23 5 70 l0 73 l101 0 q-1 5 -5 16 q-3 11 -5 15 l22 3 q1 -4 5 -16 q4 -12 6 -18 l88 0 l0 -19 l-192 0 l0 -51 q0 -53 -6 -81 q-6 -27 -24 -54 ZM55 -14 l0 17 l114 0 q24 65 41 130 l20 -6 q-19 -67 -40 -124 l57 0 l0 -17 l-192 0 ZM93 25 q-1 5 -4 16 q-14 54 -23 80 l18 5 q14 -42 29 -96 l-20 -5 ZM148 38 q-7 36 -21 96 l19 4 q11 -47 22 -97 l-20 -3 Z" /><glyph glyph-name="" unicode="&#x5e97;" d="M75 -29 l0 103 l54 0 l0 78 l20 0 l0 -26 l94 0 l0 -17 l-94 0 l0 -35 l76 0 l0 -103 l-20 0 l0 16 l-110 0 l0 -16 l-20 0 ZM22 -29 q-1 1 -4 3 q-9 7 -13 11 q15 21 20 46 q5 23 5 73 l0 78 l101 0 q-1 3 -2 9 q-4 12 -5 18 l23 3 l7 -30 l94 0 l0 -18 l-198 0 l0 -62 q0 -51 -6 -78 q-5 -26 -22 -53 ZM95 56 l0 -53 l110 0 l0 53 l-110 0 Z" /><glyph glyph-name="" unicode="&#x5ea6;" d="M238 -27 q-56 8 -92 26 q-35 -17 -91 -29 q-1 1 -2 5 q-2 4 -8 14 q43 7 81 19 q-25 15 -45 43 l-17 0 l0 16 l154 0 l0 -17 q-27 -28 -52 -43 q31 -9 81 -15 q-1 -3 -4 -10 q-3 -6 -5 -9 ZM22 -29 q-7 7 -16 13 q16 25 20 46 q4 21 4 70 l0 85 l102 0 q-3 12 -6 24 l22 2 q3 -11 7 -26 l91 0 l0 -17 l-197 0 l0 -70 q0 -49 -6 -75 q-5 -26 -21 -52 ZM57 125 l0 17 l35 0 l0 20 l19 0 l0 -20 l71 0 l0 20 l18 0 l0 -20 l44 0 l0 -17 l-44 0 l0 -38 l-108 0 l0 38 l-35 0 ZM194 51 l-91 0 q18 -21 43 -34 q24 11 48 34 ZM111 125 l0 -23 l71 0 l0 23 l-71 0 Z" /><glyph glyph-name="" unicode="&#x5ef6;" d="M242 -20 q-63 0 -101 1 q-57 1 -87 25 q-13 -16 -36 -35 q-2 3 -6 9 q-4 5 -6 8 q24 18 34 32 q-18 23 -29 57 l16 7 q11 -28 24 -47 q13 25 16 60 l-55 0 l0 19 l53 58 l-53 0 l0 17 l76 0 l0 -19 l-52 -57 l50 0 l0 -18 q-6 -47 -22 -75 q23 -22 79 -23 q48 -2 105 0 q-1 -3 -3 -9 q-2 -7 -3 -10 ZM112 29 l0 110 l20 0 l0 -92 l35 0 l0 129 q-28 -1 -61 -3 q0 3 -1 10 q-2 5 -2 8 q66 3 133 8 l3 -17 q-9 -1 -28 -3 q-16 -1 -24 -2 l0 -52 l50 0 l0 -18 l-50 0 l0 -60 l54 0 l0 -18 l-129 0 Z" /><glyph glyph-name="" unicode="&#x5f00;" d="M21 174 l0 19 l218 0 l0 -19 l-47 0 l0 -72 l58 0 l0 -20 l-58 0 l0 -109 l-22 0 l0 109 l-78 0 q4 -77 -63 -112 q-7 9 -16 17 q62 29 58 95 l-62 0 l0 20 l63 0 l0 72 l-51 0 ZM93 174 l0 -72 l77 0 l0 72 l-77 0 Z" /><glyph glyph-name="" unicode="&#x5f02;" d="M67 85 q-34 -1 -33 34 l0 80 l179 0 l0 -67 l-159 0 l0 -11 q-1 -21 20 -19 l125 0 q22 -1 24 15 q3 12 4 23 q4 -1 10 -3 q7 -3 10 -4 q-3 -12 -7 -27 q-6 -22 -37 -21 l-136 0 ZM169 -29 l0 59 l-82 0 q-4 -40 -53 -60 q-1 1 -4 4 q-7 8 -12 11 q48 18 48 45 l-58 0 l0 18 l60 0 q1 12 1 26 l20 0 q0 -14 -1 -26 l81 0 l0 26 l20 0 l0 -26 l58 0 l0 -18 l-58 0 l0 -59 l-20 0 ZM54 183 l0 -35 l139 0 l0 35 l-139 0 Z" /><glyph glyph-name="" unicode="&#x5f0f;" d="M8 141 l0 19 l135 0 q-2 24 -2 50 l21 0 q0 -26 1 -50 l84 0 l0 -19 l-83 0 q0 -10 2 -29 q1 -6 1 -9 q6 -60 21 -89 q9 -19 23 -19 q9 -1 14 12 q4 19 6 34 q3 -1 8 -3 q7 -3 10 -4 q-3 -23 -8 -36 q-8 -26 -31 -25 q-26 0 -42 36 q-15 33 -21 93 q-3 20 -4 39 l-135 0 ZM16 83 l0 18 l113 0 l0 -18 l-47 0 l0 -67 q31 5 58 8 q-1 -8 -1 -19 q-81 -9 -127 -15 l-5 17 q6 1 19 2 q23 3 36 5 l0 69 l-46 0 ZM214 164 q-19 20 -32 30 l14 12 q3 -3 12 -10 q16 -14 21 -19 l-15 -13 Z" /><glyph glyph-name="" unicode="&#x5f20;" d="M95 88 l0 18 l25 0 l0 101 l20 0 l0 -101 l106 0 l0 -18 l-64 0 q17 -61 67 -90 q-2 -2 -5 -5 q-2 -3 -11 -11 q-55 38 -69 106 l-24 0 l0 -88 q4 2 13 7 q14 9 21 13 q2 -11 3 -20 q-9 -3 -25 -12 q-10 -5 -14 -7 q-3 -2 -9 -6 q-3 -3 -5 -4 l-12 16 q9 8 8 20 l0 81 l-25 0 ZM36 120 l-4 -41 l55 0 q-2 -48 -4 -69 q0 -35 -38 -34 q-9 -1 -29 -1 q0 10 -3 20 q10 -1 28 -1 q22 -1 24 19 q0 7 1 23 q1 18 2 25 l-56 0 l7 76 l51 0 l0 41 l-57 0 l0 18 l76 0 l0 -76 l-53 0 ZM164 122 q-2 2 -6 8 q-5 5 -7 7 q45 30 73 58 l14 -13 q-33 -29 -74 -60 Z" /><glyph glyph-name="" unicode="&#x5f3a;" d="M108 133 l0 65 l120 0 l0 -65 l-51 0 l0 -28 l60 0 l0 -70 l-60 0 l0 -35 l38 1 l-12 20 l16 7 q1 -2 4 -7 q18 -26 27 -42 l-16 -8 l-8 14 q-74 -2 -137 -7 l-3 20 q36 1 72 2 l0 35 l-59 0 l0 70 l59 0 l0 28 l-50 0 ZM18 -25 q0 2 -1 5 q0 3 -3 15 q9 -1 23 -1 q22 -1 22 18 q2 28 2 49 l-49 0 l7 76 l46 0 l0 43 l-53 0 l0 17 l71 0 l0 -77 l-48 0 l-4 -41 l50 0 q-2 -52 -4 -70 q-1 -35 -36 -34 q-13 0 -23 0 ZM126 182 l0 -33 l83 0 l0 33 l-83 0 ZM219 89 l-42 0 l0 -38 l42 0 l0 38 ZM117 89 l0 -38 l41 0 l0 38 l-41 0 Z" /><glyph glyph-name="" unicode="&#x5f55;" d="M39 138 l0 16 l152 0 l0 26 l-157 0 l0 17 l177 0 l0 -86 l37 0 l0 -17 l-108 0 l0 -5 q12 -24 25 -39 q29 18 51 35 l14 -15 q-8 -6 -30 -19 q-14 -9 -21 -13 q21 -18 70 -32 q0 -1 -2 -2 q-7 -11 -9 -16 q-73 23 -98 68 l0 -50 q2 -31 -30 -31 q-4 0 -14 0 q-10 -1 -15 -1 q-3 12 -4 20 q8 -1 25 -1 q19 -1 18 17 l0 27 q-20 -9 -74 -32 q-22 -8 -31 -12 l-8 19 q61 21 113 45 l0 37 l-111 0 l0 17 l182 0 l0 27 l-152 0 ZM71 42 q-25 19 -44 30 l12 14 q26 -15 45 -29 l-13 -15 Z" /><glyph glyph-name="" unicode="&#x5f62;" d="M15 176 l0 18 l132 0 l0 -18 l-27 0 l0 -72 l34 0 l0 -18 l-34 0 l0 -113 l-20 0 l0 113 l-41 0 q2 -76 -39 -115 l-15 15 q37 34 34 100 l-30 0 l0 18 l31 0 l0 72 l-25 0 ZM59 176 l0 -72 l41 0 l0 72 l-41 0 ZM147 -29 q-9 12 -12 17 q59 25 99 76 l15 -14 q-42 -50 -102 -79 ZM160 57 q-1 2 -4 5 q-2 3 -9 11 q49 25 82 62 l14 -14 q-33 -37 -83 -64 ZM158 131 q-4 9 -12 17 q47 24 79 59 l14 -14 q-31 -34 -81 -62 Z" /><glyph glyph-name="" unicode="&#x5f69;" d="M14 77 l0 17 l54 0 l0 19 l19 0 l0 -19 l50 0 l0 -17 l-50 0 l0 -29 l7 9 q25 -16 48 -34 l-12 -15 q-10 8 -28 22 q-10 8 -15 12 l0 -70 l-19 0 l0 79 q-20 -36 -51 -59 q-2 3 -6 8 q-3 4 -5 7 q38 29 60 70 l-52 0 ZM139 -29 q0 1 -1 2 q-6 10 -11 16 q66 25 106 76 l15 -13 q-41 -51 -109 -81 ZM15 175 q-1 3 -2 10 q-2 5 -2 7 q75 3 126 8 l4 -17 q-78 -6 -126 -8 ZM159 56 q-5 8 -12 17 q48 24 80 60 l14 -13 q-36 -38 -82 -64 ZM156 127 q-4 7 -12 16 q43 21 77 58 l15 -13 q-35 -36 -80 -61 ZM116 113 l-15 7 q16 26 24 47 l17 -6 q-14 -29 -26 -48 ZM33 113 q-2 5 -7 16 q-8 19 -12 26 l16 6 q16 -32 20 -42 l-17 -6 ZM74 124 q-1 2 -2 5 q-5 22 -12 37 l18 4 q7 -20 13 -42 l-17 -4 Z" /><glyph glyph-name="" unicode="&#x5f71;" d="M7 95 l0 14 l67 0 l-6 16 l17 3 l-65 0 l0 72 l120 0 l0 -72 l-53 0 l5 -19 l63 0 l0 -14 l-148 0 ZM23 32 l0 47 l114 0 l0 -47 l-45 0 l0 -35 q0 -24 -24 -25 q-11 0 -22 0 q0 1 -1 4 q0 2 -3 12 q10 0 19 0 q14 0 13 12 l0 32 l-51 0 ZM151 -30 q-7 10 -13 17 q61 29 96 79 l15 -13 q-40 -52 -98 -83 ZM167 58 q-3 4 -10 14 q-1 1 -2 2 q42 25 74 66 l14 -13 q-34 -41 -76 -69 ZM165 132 q-4 7 -12 15 q40 26 67 59 l15 -13 q-30 -35 -70 -61 ZM41 66 l0 -20 l79 0 l0 20 l-79 0 ZM38 187 l0 -18 l85 0 l0 18 l-85 0 ZM38 158 l0 -17 l85 0 l0 17 l-85 0 ZM19 -21 l-12 13 q14 9 36 32 l14 -10 q-11 -11 -31 -29 q-5 -4 -7 -6 ZM135 -12 q-17 15 -31 26 l12 11 q6 -4 16 -13 q10 -8 15 -12 l-12 -12 Z" /><glyph glyph-name="" unicode="&#x5f84;" d="M92 56 l0 18 l143 0 l0 -18 l-60 0 l0 -56 l74 0 l0 -17 l-171 0 l0 17 l76 0 l0 56 l-62 0 ZM88 84 q-3 9 -10 18 q85 28 124 75 l-105 0 l0 18 l130 0 l0 -20 q-19 -22 -42 -40 q11 -5 33 -17 q22 -11 32 -17 l-12 -17 q-47 28 -69 40 q-28 -19 -81 -40 ZM13 44 q-1 4 -6 15 q-1 3 -2 5 q33 30 65 82 l17 -10 q-13 -22 -28 -41 l0 -124 l-19 0 l0 100 q-3 -3 -9 -9 q-11 -12 -18 -18 ZM18 127 q-2 6 -9 20 q37 29 59 63 l17 -12 q-29 -39 -67 -71 Z" /><glyph glyph-name="" unicode="&#x5f85;" d="M97 160 l0 17 l58 0 l0 33 l21 0 l0 -33 l61 0 l0 -17 l-61 0 l0 -35 l73 0 l0 -18 l-165 0 l0 18 l71 0 l0 35 l-58 0 ZM85 58 l0 18 l105 0 l0 21 l20 0 l0 -21 l38 0 l0 -18 l-38 0 l0 -54 q1 -29 -33 -30 q-18 0 -35 0 q0 8 -4 20 q12 -1 32 -1 q21 -1 20 17 l0 48 l-105 0 ZM15 46 q-3 9 -9 20 q33 28 61 78 l17 -10 q-1 -2 -4 -6 q-7 -14 -19 -29 l0 -128 l-19 0 l0 103 q-12 -15 -27 -28 ZM19 125 q-2 5 -7 14 q-1 4 -2 5 q33 28 57 66 l17 -11 q-29 -43 -65 -74 ZM134 4 q-3 3 -10 10 q-17 18 -24 24 l14 12 q26 -24 35 -33 l-15 -13 Z" /><glyph glyph-name="" unicode="&#x5f8b;" d="M90 88 l0 16 l55 0 l0 24 l-64 0 l0 17 l64 0 l0 24 l-52 0 l0 16 l52 0 l0 24 l20 0 l0 -24 l62 0 l0 -40 l22 0 l0 -17 l-22 0 l0 -40 l-62 0 l0 -24 l69 0 l0 -16 l-69 0 l0 -25 l81 0 l0 -16 l-81 0 l0 -36 l-20 0 l0 36 l-76 0 l0 16 l76 0 l0 25 l-64 0 l0 16 l64 0 l0 24 l-55 0 ZM14 47 q-4 13 -8 19 q32 32 56 77 l17 -10 q-10 -19 -22 -35 l0 -127 l-18 0 l0 103 q-12 -13 -25 -27 ZM19 128 q-4 11 -9 18 q35 31 53 64 l17 -11 q-26 -40 -61 -71 ZM209 169 l-44 0 l0 -24 l44 0 l0 24 ZM165 128 l0 -24 l44 0 l0 24 l-44 0 Z" /><glyph glyph-name="" unicode="&#x5f97;" d="M101 109 l0 91 l129 0 l0 -91 l-129 0 ZM89 73 l0 16 l155 0 l0 -16 l-29 0 l0 -22 l34 0 l0 -16 l-34 0 l0 -31 q2 -30 -30 -29 q-5 0 -17 0 q-12 -1 -18 -1 q-2 9 -5 19 q7 0 19 -1 q9 0 13 0 q20 -1 19 14 l0 29 l-117 0 l0 16 l117 0 l0 22 l-107 0 ZM40 -29 l0 106 q-13 -15 -27 -29 q-3 11 -7 20 q36 35 60 79 l16 -11 q-3 -5 -9 -14 q-9 -14 -14 -21 l0 -130 l-19 0 ZM120 147 l0 -22 l91 0 l0 22 l-91 0 ZM120 184 l0 -22 l91 0 l0 22 l-91 0 ZM19 129 q-1 1 -2 4 q-5 10 -8 14 q31 26 58 63 l17 -10 q-25 -36 -65 -71 ZM127 -8 q-12 14 -28 29 l14 11 q11 -10 30 -29 l-16 -11 Z" /><glyph glyph-name="" unicode="&#x5fae;" d="M165 95 q-4 8 -10 16 q24 38 36 99 l19 -3 q-6 -24 -13 -43 l53 0 l0 -17 l-12 0 q-6 -72 -25 -112 q12 -23 37 -45 l-10 -17 q-28 28 -37 45 q-15 -23 -40 -46 q-1 2 -6 7 q-4 6 -6 8 q28 23 43 49 q-13 31 -19 76 q-4 -8 -10 -17 ZM69 -24 q-3 5 -12 14 q24 16 22 58 l0 18 l67 0 l0 -47 q1 1 4 4 q12 9 18 15 q0 -2 1 -6 q1 -9 2 -13 q-28 -21 -37 -30 l-10 14 q6 7 6 20 l0 27 l-34 0 l0 -10 q1 -41 -27 -64 ZM12 48 q-5 15 -7 19 q28 31 47 76 l15 -9 q-7 -18 -16 -33 l0 -130 l-18 0 l0 103 q-6 -8 -20 -25 q-1 -1 -1 -1 ZM72 129 l0 59 l15 0 l0 -44 l21 0 l0 62 l16 0 l0 -62 l21 0 l0 44 l14 0 l0 -59 l-87 0 ZM204 56 q14 32 18 91 l-31 0 l-4 -9 q6 -54 17 -82 ZM17 130 q-1 3 -4 9 q-4 7 -5 9 q28 26 44 62 l16 -10 q-21 -40 -51 -70 ZM75 89 l0 17 l80 0 l0 -17 l-80 0 Z" /><glyph glyph-name="" unicode="&#x5fb7;" d="M81 171 l0 16 l70 0 l0 23 l18 0 l0 -23 l74 0 l0 -16 l-74 0 l0 -20 l65 0 l0 -62 l-148 0 l0 62 l65 0 l0 20 l-70 0 ZM39 -29 l0 103 q-4 -4 -13 -13 q-8 -9 -13 -14 q-1 6 -6 17 q-1 2 -1 3 q32 30 56 75 l16 -10 q-10 -18 -21 -34 l0 -127 l-18 0 ZM76 55 l0 16 l171 0 l0 -16 l-171 0 ZM142 -22 q-30 -1 -29 24 l0 37 l18 0 l0 -31 q-1 -16 18 -15 l23 0 q16 0 18 10 q3 7 5 19 q0 2 0 3 q9 -4 17 -6 q-3 -15 -6 -23 q-5 -19 -31 -18 l-33 0 ZM21 131 q-1 4 -6 12 q-2 4 -3 6 q29 23 51 60 l16 -11 q-26 -39 -58 -67 ZM217 136 l-28 0 l0 -32 l28 0 l0 32 ZM146 136 l0 -32 l28 0 l0 32 l-28 0 ZM103 136 l0 -32 l27 0 l0 32 l-27 0 ZM82 -12 q-8 5 -16 7 q13 23 20 43 l16 -5 q-8 -22 -20 -45 ZM234 -5 q-6 12 -24 40 l15 7 q15 -23 25 -41 l-16 -6 ZM163 15 q-4 7 -15 23 q-4 6 -6 9 l15 7 q2 -2 5 -7 q11 -15 16 -23 l-15 -9 Z" /><glyph glyph-name="" unicode="&#x5fc3;" d="M109 -21 q-39 -1 -38 38 l0 143 l21 0 l0 -139 q-1 -23 23 -21 l40 0 q25 -1 28 18 q3 15 4 34 q5 -1 13 -4 q6 -2 9 -3 q-3 -22 -7 -38 q-5 -29 -43 -28 l-50 0 ZM230 46 q-22 48 -42 86 l19 9 q28 -54 43 -84 l-20 -11 ZM27 31 q-13 6 -21 7 q15 45 27 96 l20 -5 q-9 -38 -26 -98 ZM150 135 q-13 18 -38 50 q-7 9 -10 13 l16 13 q10 -12 28 -35 q14 -18 21 -27 l-17 -14 Z" /><glyph glyph-name="" unicode="&#x5fc5;" d="M109 -17 q-38 -1 -37 33 q-9 -5 -27 -16 q-15 -8 -23 -13 q-3 5 -11 13 q-1 2 -2 3 q35 18 63 38 l0 124 l20 0 l0 -108 q48 40 80 89 q15 21 28 45 l19 -10 q-15 -26 -30 -47 q-44 -62 -97 -103 l0 -8 q-1 -23 23 -23 l44 0 q24 0 27 20 q2 14 3 30 q12 -3 21 -7 q-1 -3 -1 -10 q-3 -17 -5 -25 q-5 -26 -41 -25 l-54 0 ZM27 50 q-11 5 -20 8 q9 23 25 78 q2 3 2 5 l19 -5 q-7 -27 -26 -86 ZM230 48 q-16 35 -36 65 l17 10 q24 -37 37 -63 l-18 -12 ZM141 151 q-21 23 -47 46 l14 14 q5 -4 14 -13 q23 -21 34 -32 l-15 -15 Z" /><glyph glyph-name="" unicode="&#x5feb;" d="M82 69 l0 19 l59 0 q2 27 2 62 l-44 0 l0 18 l44 0 l0 41 l21 0 q0 -23 -1 -41 l61 0 l0 -80 l23 0 l0 -19 l-79 0 q21 -53 79 -76 q-3 -3 -8 -10 q-3 -6 -5 -8 q-62 31 -80 83 q-10 -48 -70 -87 q-2 2 -7 8 q-5 6 -7 9 q59 34 68 81 l-56 0 ZM85 119 q-12 15 -24 27 l0 -175 l-19 0 l0 238 l19 0 l0 -49 l5 6 q22 -22 32 -33 l-13 -14 ZM205 150 l-42 0 q0 -40 -2 -62 l44 0 l0 62 ZM21 88 q-2 1 -7 2 q-6 1 -8 1 q3 16 7 45 q2 12 3 18 l15 -2 q-1 -6 -3 -21 q-4 -29 -7 -43 Z" /><glyph glyph-name="" unicode="&#x6015;" d="M99 -28 l0 204 l44 0 q2 6 4 19 q3 10 4 15 l23 -3 q-1 -5 -5 -15 q-3 -11 -5 -16 l70 0 l0 -204 l-20 0 l0 19 l-95 0 l0 -19 l-20 0 ZM119 77 l0 -70 l95 0 l0 70 l-95 0 ZM119 158 l0 -63 l95 0 l0 63 l-95 0 ZM80 116 q-9 15 -19 25 l0 -169 l-19 0 l0 237 l19 0 l0 -51 l4 4 q14 -15 27 -31 l-12 -15 ZM22 87 q-7 3 -16 3 q8 37 10 65 l15 -2 q-3 -30 -9 -66 Z" /><glyph glyph-name="" unicode="&#x6027;" d="M103 97 q-8 5 -17 8 q20 39 30 88 l19 -4 q-1 -4 -3 -11 q-3 -14 -6 -22 l35 0 l0 54 l20 0 l0 -54 l61 0 l0 -19 l-61 0 l0 -57 l57 0 l0 -19 l-57 0 l0 -61 l68 0 l0 -18 l-165 0 l0 18 l77 0 l0 61 l-62 0 l0 19 l62 0 l0 57 l-41 0 q-1 -2 -2 -5 q-5 -15 -15 -35 ZM81 127 q-1 1 -2 3 q-8 11 -18 21 l0 -180 l-20 0 l0 239 l20 0 l0 -48 l6 7 q12 -12 26 -27 l-12 -15 ZM22 90 q-7 2 -16 2 q8 41 10 63 l16 -2 q-1 -4 -2 -12 q-5 -34 -8 -51 Z" /><glyph glyph-name="" unicode="&#x606f;" d="M37 60 l0 127 l63 0 q2 7 5 18 q1 4 2 6 l21 -2 q-1 -5 -6 -15 q-1 -5 -2 -7 l97 0 l0 -127 l-180 0 ZM97 -24 q-33 -1 -32 31 l0 37 l19 0 l0 -34 q-1 -18 21 -17 l47 0 q20 -1 23 12 q0 2 1 6 q1 3 3 18 q10 -4 19 -7 q-1 -3 -2 -8 q-2 -11 -3 -15 q-6 -24 -37 -23 l-59 0 ZM57 135 l0 -22 l140 0 l0 22 l-140 0 ZM57 171 l0 -22 l140 0 l0 22 l-140 0 ZM57 98 l0 -22 l140 0 l0 22 l-140 0 ZM23 -13 l-17 8 q8 13 22 49 l18 -7 q-14 -34 -23 -50 ZM234 -4 q-8 10 -5 6 q-16 21 -26 35 l15 9 q11 -12 28 -34 q3 -4 5 -6 l-17 -10 ZM136 13 q-3 3 -7 9 q-12 15 -19 22 l15 10 q8 -8 25 -27 q-12 14 3 -3 l-17 -11 Z" /><glyph glyph-name="" unicode="&#x60a6;" d="M94 66 l0 97 l76 0 q17 24 29 46 l20 -7 q-8 -11 -25 -34 q2 2 -3 -5 l37 0 l0 -97 l-36 0 l0 -56 q-1 -16 15 -15 l7 0 q12 0 15 12 q1 4 2 22 q1 5 1 7 l17 -7 q-1 -9 -3 -27 q-1 -2 -1 -3 q-2 -22 -29 -22 l-15 0 q-29 -1 -28 29 l0 60 l-29 0 q0 -10 -1 -19 q0 -47 -58 -76 q-2 2 -6 7 q-5 6 -8 9 q54 22 53 62 q0 2 0 8 q1 6 1 9 l-31 0 ZM114 145 l0 -61 l95 0 l0 61 l-95 0 ZM81 119 q-6 6 -17 21 q-3 4 -5 6 l0 -175 l-19 0 l0 237 l19 0 l0 -50 l6 7 q3 -4 12 -14 q11 -12 16 -18 l-12 -14 ZM19 89 l-14 2 q1 6 3 18 q6 34 7 47 l15 -2 q-5 -35 -11 -65 ZM132 163 q-18 23 -28 37 l17 9 q3 -3 8 -10 q16 -20 20 -27 l-17 -9 Z" /><glyph glyph-name="" unicode="&#x60a8;" d="M91 132 q-1 1 -2 2 q-9 6 -14 9 q29 32 44 67 l20 -3 q-1 -3 -4 -8 q-1 -4 -7 -14 l111 0 l0 -18 l-15 -32 q-1 0 -4 2 q-9 3 -14 5 l13 26 l-102 0 q-7 -14 -26 -36 ZM97 -22 q-30 0 -30 29 l0 41 l19 0 l0 -36 q1 -16 19 -16 l44 0 q22 -1 25 16 q3 11 4 23 q2 -1 7 -2 q8 -4 13 -5 q-3 -14 -6 -26 q-7 -25 -38 -24 l-57 0 ZM16 118 q-1 3 -5 9 q-3 6 -5 9 q34 33 55 75 l19 -6 q-11 -21 -23 -37 l0 -104 l-19 0 l0 79 q-5 -6 -15 -17 q-5 -5 -7 -8 ZM122 66 q0 1 -1 3 q0 5 -3 15 q7 -1 20 -1 q17 -1 16 14 l0 56 l19 0 l0 -59 q1 -27 -28 -28 q-11 0 -23 0 ZM233 -2 q-6 8 -18 25 q-12 16 -19 25 l15 10 q24 -29 39 -50 l-17 -10 ZM87 76 q-2 3 -9 8 q-3 3 -5 5 q20 18 44 47 l16 -10 q-19 -23 -46 -50 ZM26 -10 l-18 7 q15 27 25 54 l18 -5 q-14 -38 -25 -56 ZM231 76 q-26 29 -44 45 l14 12 q17 -14 46 -44 l-16 -13 ZM139 17 q-15 18 -31 34 l14 11 q11 -10 33 -32 l-16 -13 Z" /><glyph glyph-name="" unicode="&#x60c5;" d="M95 -28 l0 121 l137 0 l0 -91 q1 -28 -30 -28 q-4 0 -14 0 q-14 -1 -20 -1 q-1 9 -4 18 q11 -1 32 -1 q18 -1 17 13 l0 11 l-99 0 l0 -42 l-19 0 ZM86 175 l0 15 l67 0 l0 20 l20 0 l0 -20 l72 0 l0 -15 l-72 0 l0 -18 l65 0 l0 -13 l-65 0 l0 -19 l76 0 l0 -15 l-169 0 l0 15 l73 0 l0 19 l-60 0 l0 13 l60 0 l0 18 l-67 0 ZM78 128 q-3 3 -9 9 q-7 5 -10 8 l0 -174 l-19 0 l0 239 l19 0 l0 -49 l3 4 q14 -10 26 -21 l-10 -16 ZM114 79 l0 -19 l99 0 l0 19 l-99 0 ZM114 46 l0 -19 l99 0 l0 19 l-99 0 ZM21 88 q-3 1 -10 2 q-3 1 -5 1 q7 35 10 65 l15 -3 q-4 -31 -10 -65 Z" /><glyph glyph-name="" unicode="&#x60ca;" d="M121 -27 q0 1 0 3 q-1 6 -4 17 q8 -1 23 -1 q16 -1 15 11 l0 60 l-55 0 l0 74 l128 0 l0 -74 l-54 0 l0 -63 q1 -26 -26 -26 l-27 -1 ZM79 125 q-4 4 -11 12 q-7 7 -10 10 l0 -176 l-19 0 l0 238 l19 0 l0 -48 l3 5 q15 -12 29 -27 l-11 -14 ZM119 121 l0 -41 l90 0 l0 41 l-90 0 ZM84 164 l0 17 l72 0 q-1 3 -2 8 q-2 7 -6 18 l21 3 q1 -2 2 -6 q3 -8 6 -23 l69 0 l0 -17 l-162 0 ZM87 -16 q-3 2 -10 8 q-3 3 -5 4 q23 22 41 52 l16 -10 q-19 -29 -42 -54 ZM231 -14 q-9 14 -27 37 q-7 10 -11 15 l16 9 q3 -4 8 -12 q11 -15 30 -39 l-16 -10 ZM19 90 q-2 1 -6 2 q-5 1 -7 1 q2 10 5 27 q4 24 6 37 l14 -2 q-4 -31 -12 -65 Z" /><glyph glyph-name="" unicode="&#x60f3;" d="M116 65 l0 134 l114 0 l0 -134 l-114 0 ZM12 156 l0 17 l39 0 l0 36 l18 0 l0 -36 l35 0 l0 -17 l-35 0 l0 -26 l8 7 q15 -12 29 -25 l-12 -12 q-8 8 -21 19 q-3 3 -4 4 l0 -63 l-18 0 l0 68 q-16 -33 -36 -55 q-1 4 -4 10 q-2 7 -4 10 q27 28 42 63 l-37 0 ZM104 -23 q-35 0 -35 30 l0 41 l20 0 l0 -37 q-1 -17 21 -16 l41 0 q19 -1 23 15 q0 2 1 7 q1 8 2 14 q5 -2 15 -6 q4 -1 5 -1 q-3 -15 -6 -24 q-8 -24 -36 -23 l-51 0 ZM135 106 l0 -26 l76 0 l0 26 l-76 0 ZM135 184 l0 -25 l76 0 l0 25 l-76 0 ZM135 144 l0 -24 l76 0 l0 24 l-76 0 ZM26 -13 q-9 5 -18 8 q13 21 23 52 l18 -6 q-9 -27 -23 -54 ZM232 -6 q-17 27 -30 44 l16 9 q17 -23 31 -45 l-17 -8 ZM139 15 q-13 17 -28 32 l13 11 q11 -10 30 -31 l-15 -12 Z" /><glyph glyph-name="" unicode="&#x610f;" d="M38 42 l0 76 l178 0 l0 -76 l-178 0 ZM24 174 l0 14 l96 0 q-1 3 -3 9 q-3 8 -5 11 l22 3 q1 -2 2 -5 q3 -6 6 -18 l90 0 l0 -14 l-50 0 l11 -4 q-7 -8 -15 -20 l69 0 l0 -15 l-239 0 l0 15 l69 0 l-15 19 l12 5 l-50 0 ZM98 -23 q-32 -1 -31 28 l0 25 l19 0 l0 -21 q-2 -17 20 -16 l44 0 q19 -1 22 12 q1 3 3 12 q1 5 2 8 q9 -4 18 -7 q-1 -13 -6 -20 q-5 -22 -34 -21 l-57 0 ZM57 74 l0 -18 l140 0 l0 18 l-140 0 ZM57 104 l0 -17 l140 0 l0 17 l-140 0 ZM99 151 l-3 -1 l59 0 q4 5 12 16 q3 6 5 8 l-90 0 q3 -3 8 -11 q7 -9 9 -12 ZM24 -19 q-2 1 -7 4 q-7 3 -10 5 q16 20 26 40 l17 -7 q-14 -24 -26 -42 ZM232 -14 q-10 15 -26 38 l17 8 q2 -3 6 -8 q15 -22 21 -29 l-18 -9 ZM136 3 q-11 13 -26 28 l14 10 q9 -8 27 -26 l-15 -12 Z" /><glyph glyph-name="" unicode="&#x611f;" d="M26 40 q-5 5 -15 11 q24 33 22 86 l0 42 l122 0 q0 4 0 13 q-1 12 -1 18 l19 0 q0 -18 1 -31 l36 0 q-11 11 -21 19 l12 10 q4 -3 12 -10 q9 -8 12 -11 l-11 -8 l33 0 l0 -16 l-72 0 q4 -38 12 -61 q15 19 29 47 l16 -8 q-17 -34 -38 -58 q11 -20 21 -20 q8 0 12 11 q3 7 6 23 q1 3 1 4 q7 -3 16 -6 q0 -1 -1 -4 q-3 -16 -6 -23 q-8 -24 -28 -23 q-20 0 -34 24 q-13 -12 -29 -24 l-11 15 l0 -1 l-74 0 l0 54 l74 0 l0 -52 q1 1 3 2 q15 11 29 24 q-12 26 -16 76 l-106 0 l0 -26 q2 -60 -25 -97 ZM100 -24 q-34 -1 -33 31 l0 33 l20 0 l0 -29 q-2 -19 21 -17 l40 0 q23 -1 25 12 q0 2 1 6 q3 10 4 17 l18 -7 q-3 -14 -6 -22 q-5 -25 -36 -24 l-54 0 ZM62 131 l0 15 l84 0 l0 -15 l-84 0 ZM25 -16 l-18 9 q14 20 26 47 l17 -7 q-8 -18 -25 -49 ZM84 99 l0 -26 l40 0 l0 26 l-40 0 ZM232 -12 q-3 5 -10 14 q-12 18 -19 28 l16 9 q6 -9 18 -26 q9 -11 12 -15 l-17 -10 ZM134 11 q-9 12 -26 31 l15 10 q12 -12 27 -30 l-16 -11 Z" /><glyph glyph-name="" unicode="&#x61be;" d="M112 61 l0 53 l55 0 l0 -52 q13 13 22 25 q-9 27 -12 77 l-76 0 l0 -27 q2 -61 -21 -94 q-3 3 -13 9 q-1 1 -2 1 q22 27 20 84 l0 42 l91 0 q0 14 0 31 l17 0 q0 -18 0 -31 l51 0 l0 -15 l-50 0 q1 -38 7 -60 q12 21 22 48 l15 -7 q-15 -37 -31 -60 q8 -20 16 -20 q6 0 8 9 q3 11 5 25 q6 -3 14 -6 q-3 -13 -6 -25 q-6 -21 -21 -21 q-17 0 -27 22 q-9 -10 -21 -22 q-1 2 -5 7 q-3 4 -5 6 q1 1 1 1 l-54 0 ZM38 -29 l0 238 l18 0 l0 -44 l2 3 q12 -10 24 -24 l-9 -14 q-3 3 -8 9 q-6 6 -9 9 l0 -177 l-18 0 ZM143 -23 q-30 0 -30 29 l0 35 l17 0 l0 -31 q-1 -17 20 -16 l20 0 q17 -1 19 10 q3 9 5 23 q9 -3 17 -6 q0 -2 -1 -6 q-4 -14 -6 -18 q-5 -21 -31 -20 l-30 0 ZM81 -15 l-15 8 q11 16 22 45 l16 -6 q-1 -2 -3 -6 q-11 -27 -20 -41 ZM20 92 q-10 2 -14 2 q5 28 9 61 l14 -2 q-3 -29 -9 -61 ZM233 -10 q-9 19 -23 42 l15 7 q7 -12 22 -38 q-2 2 2 -4 l-16 -7 ZM111 132 l0 14 l57 0 l0 -14 l-57 0 ZM126 100 l0 -26 l27 0 l0 26 l-27 0 ZM165 12 q-4 7 -14 20 q-6 7 -9 11 l14 8 q5 -7 14 -18 q6 -7 9 -11 l-14 -10 ZM222 180 q-4 5 -14 14 q-3 3 -5 5 l12 9 q3 -3 10 -9 q7 -7 10 -10 l-13 -9 Z" /><glyph glyph-name="" unicode="&#x620f;" d="M109 118 l-2 19 l37 4 q-2 44 -2 70 l20 0 q1 -10 1 -34 q1 -23 1 -34 l79 9 l1 -18 l-79 -9 q3 -50 9 -69 q18 17 43 56 l16 -10 q-28 -43 -52 -68 l1 -2 q11 -36 29 -37 q9 -1 13 11 q2 6 5 24 q1 7 2 10 q9 -5 18 -8 q-3 -22 -9 -37 q-6 -22 -28 -22 q-29 -1 -47 46 q-13 -12 -44 -32 q-5 -3 -7 -5 q-8 9 -14 17 q33 17 58 41 q-10 36 -13 82 l-36 -4 ZM94 4 q-12 21 -27 43 q-16 -33 -50 -67 q-1 2 -4 7 q-6 8 -8 12 q34 32 50 67 q-12 18 -36 53 q-5 8 -8 12 l16 10 l37 -54 q11 30 17 76 l-69 0 l0 19 l88 0 l0 -20 q-10 -64 -23 -94 l34 -52 l-17 -12 ZM216 156 q-13 9 -8 6 q-21 15 -32 23 l12 14 q9 -7 29 -21 q8 -5 11 -7 l-12 -15 Z" /><glyph glyph-name="" unicode="&#x6210;" d="M213 -27 q-26 -1 -44 41 q-19 -20 -46 -39 q-2 2 -6 7 q-5 5 -8 8 q31 20 53 44 q-14 46 -17 111 l-94 0 l0 -38 l70 0 q0 -12 -1 -34 q-1 -21 -2 -34 q0 -38 -33 -37 q-13 -1 -24 -1 q-1 4 -2 12 q-2 6 -2 9 q12 -1 23 -1 q18 -1 19 19 q0 2 0 6 q2 27 2 43 l-50 0 q1 -75 -28 -118 l-17 12 q16 26 20 48 q5 21 5 70 l0 62 l113 0 q-1 23 -1 47 l20 0 q0 -24 1 -47 l83 0 l0 -18 l-82 0 q3 -57 12 -92 q20 29 38 69 l18 -8 q-26 -54 -49 -83 q13 -38 28 -37 q9 -1 14 12 q2 7 5 27 q1 4 1 6 q9 -4 17 -6 q-3 -24 -7 -36 q-8 -25 -29 -24 ZM215 167 q-17 14 -35 27 l13 11 q24 -16 35 -26 l-13 -12 Z" /><glyph glyph-name="" unicode="&#x6211;" d="M17 169 q-1 5 -3 13 q-1 4 -1 6 q40 3 100 12 l5 -18 q-18 -3 -39 -6 l0 -39 l63 0 q-2 49 -2 74 l21 0 q-1 -25 1 -74 l87 0 l0 -19 l-85 0 q0 -12 2 -22 q0 -3 1 -9 q2 -24 5 -34 q21 19 45 51 l17 -12 q-26 -34 -56 -60 q2 -5 7 -14 q1 -4 2 -5 q11 -19 24 -19 q9 0 13 12 q4 13 7 34 q5 -3 12 -6 q4 -2 6 -3 q-3 -20 -9 -37 q-5 -21 -29 -21 q-25 0 -43 31 q-3 8 -6 15 q-17 -14 -57 -33 q-5 7 -13 15 q36 18 63 38 q-8 29 -9 55 l-3 24 l-64 0 l0 -42 q23 3 47 8 q0 -9 0 -19 l-47 -8 l0 -54 q1 -27 -25 -27 q-9 -1 -32 -1 q-1 3 -2 10 q-2 6 -3 10 q2 0 11 0 q12 -1 16 -1 q16 -1 15 13 l0 46 q-24 -4 -49 -9 l-4 20 q8 1 30 5 q15 2 23 3 l0 46 l-53 0 l0 19 l53 0 l0 37 q-3 0 -10 -1 q-23 -3 -32 -4 ZM217 148 q-13 14 -41 38 l14 13 q8 -6 34 -29 q6 -6 8 -8 l-15 -14 Z" /><glyph glyph-name="" unicode="&#x6216;" d="M10 149 l0 18 l132 0 q-1 25 -1 43 l20 0 q0 -5 0 -18 q1 -16 1 -25 l85 0 l0 -18 l-84 0 l1 -12 q1 -47 12 -86 q22 30 38 72 l18 -8 q-22 -52 -48 -86 q7 -16 16 -27 q9 -7 17 -7 q8 0 10 10 q1 5 3 18 q2 12 3 17 q1 0 4 -2 q9 -3 14 -5 q-4 -28 -9 -41 q-6 -20 -24 -20 q-20 -1 -35 23 q-7 7 -13 17 q-20 -20 -47 -41 q-6 8 -14 16 q30 20 53 45 q-15 39 -18 103 l-1 14 l-133 0 ZM26 41 l0 82 l89 0 l0 -82 l-89 0 ZM45 106 l0 -48 l51 0 l0 48 l-51 0 ZM11 -14 l-4 19 q47 5 119 16 q-1 -4 0 -13 q0 -4 0 -6 q-70 -7 -115 -16 ZM213 173 q-5 4 -15 13 q-10 8 -15 12 l13 11 q7 -5 20 -16 q7 -6 11 -9 l-14 -11 Z" /><glyph glyph-name="" unicode="&#x6240;" d="M21 -28 q-2 1 -8 6 q-6 5 -8 7 q13 20 17 41 q4 20 4 65 l0 101 q40 2 85 10 l7 -18 q-36 -6 -73 -9 l0 -38 l64 0 l0 -83 l-65 0 q-1 -47 -23 -82 ZM112 -29 q-2 1 -6 5 q-7 7 -11 9 q23 24 30 49 q8 25 8 75 l0 81 q61 4 105 12 l6 -19 q-47 -7 -92 -10 l0 -53 l98 0 l0 -18 l-35 0 l0 -130 l-20 0 l0 130 l-43 0 q3 -86 -40 -131 ZM90 121 l-45 0 l0 -30 q0 -10 0 -20 l45 0 l0 50 Z" /><glyph glyph-name="" unicode="&#x624b;" d="M25 173 q0 10 -3 19 q108 2 201 8 l4 -20 q-42 -1 -87 -4 l0 -45 l88 0 l0 -18 l-88 0 l0 -46 l109 0 l0 -19 l-109 0 l0 -40 q1 -33 -34 -33 q-22 0 -41 0 q-1 8 -4 21 q11 -1 37 -1 q22 -1 21 18 l0 35 l-111 0 l0 19 l111 0 l0 46 l-93 0 l0 18 l93 0 l0 44 q-48 -2 -94 -2 Z" /><glyph glyph-name="" unicode="&#x6253;" d="M10 142 l0 19 l38 0 l0 47 l21 0 l0 -47 l34 0 l0 -19 l-34 0 l0 -50 q9 2 27 7 q7 2 10 3 q0 -3 1 -10 q0 -7 1 -10 l-39 -10 l0 -71 q0 -26 -27 -27 q-11 0 -27 0 q-3 13 -5 20 q13 0 24 0 q15 0 14 12 l0 60 l-39 -11 l-4 21 l43 11 l0 55 l-38 0 ZM111 170 l0 20 l137 0 l0 -20 l-42 0 l0 -158 q1 -37 -36 -37 q-17 0 -38 0 q0 1 -1 4 q-1 11 -3 17 q9 -1 33 -1 q25 -1 24 22 l0 153 l-74 0 Z" /><glyph glyph-name="" unicode="&#x6279;" d="M194 -23 q-29 -1 -28 28 l0 205 l19 0 l0 -92 q24 20 48 46 l14 -14 q-32 -33 -62 -57 l0 -85 q-1 -13 13 -12 l12 0 q15 -1 18 13 q0 4 2 13 q1 16 2 25 q2 -1 6 -2 q9 -3 12 -4 q-1 -25 -6 -41 q-4 -23 -31 -23 l-19 0 ZM9 145 l0 18 l30 0 l0 47 l19 0 l0 -47 l25 0 l0 -18 l-25 0 l0 -52 l24 7 q0 -11 0 -20 l-24 -7 l0 -73 q1 -26 -23 -27 q-4 0 -13 -1 q-6 0 -9 0 q-1 4 -2 13 q-2 5 -2 8 q7 0 18 0 q13 -1 12 9 l0 65 l-31 -10 l-2 22 l33 8 l0 58 l-30 0 ZM103 -26 l-13 15 q9 8 8 20 l0 198 l20 0 l0 -74 l36 0 l0 -19 l-36 0 l0 -110 q19 12 36 22 q0 -3 1 -11 q0 -7 0 -11 q-12 -4 -37 -19 q-3 -2 -4 -3 q-6 -5 -11 -8 Z" /><glyph glyph-name="" unicode="&#x627e;" d="M104 116 l-3 18 l41 5 q-2 33 -2 71 l20 0 q0 -36 2 -69 l81 10 l1 -18 l-81 -10 q2 -15 3 -27 q2 -21 5 -34 q23 19 48 50 l15 -12 q-29 -37 -58 -59 q3 -9 9 -24 q1 -3 2 -4 q10 -18 24 -18 q9 0 13 11 q4 13 7 35 q4 -2 12 -5 q4 -1 6 -2 q-3 -20 -7 -36 q-7 -25 -30 -25 q-25 0 -43 30 q-6 11 -10 25 q-25 -18 -60 -32 q-2 2 -6 8 q-4 6 -6 8 q37 17 66 37 q-5 20 -7 47 q-1 12 -3 25 l-39 -5 ZM10 143 l0 18 l39 0 l0 47 l20 0 l0 -47 l34 0 l0 -18 l-34 0 l0 -53 l37 7 q0 -8 0 -20 q-6 -1 -28 -5 q-6 -1 -9 -2 l0 -68 q1 -28 -28 -28 q-13 0 -23 0 q0 1 0 2 q-1 7 -4 17 q9 0 20 0 q16 -1 15 13 l0 61 l-40 -8 l-3 21 l43 7 l0 56 l-39 0 ZM214 158 q-10 8 -38 30 l11 12 q23 -15 39 -28 l-12 -14 Z" /><glyph glyph-name="" unicode="&#x6280;" d="M98 153 l0 18 l61 0 l0 39 l20 0 l0 -39 l66 0 l0 -18 l-66 0 l0 -39 l53 0 l0 -18 q-19 -49 -48 -75 q18 -15 64 -29 q-1 -3 -5 -10 q-4 -7 -6 -10 q-42 17 -69 36 q-27 -18 -78 -38 q-2 3 -7 11 q-3 5 -4 7 q46 15 74 34 q-24 23 -43 75 l-9 0 l0 17 l58 0 l0 39 l-61 0 ZM9 144 l0 18 l32 0 l0 46 l19 0 l0 -46 l27 0 l0 -18 l-27 0 l0 -50 q4 1 13 4 q11 2 16 4 q0 -9 0 -20 q-7 -1 -29 -7 l0 -73 q1 -28 -25 -28 q-12 0 -21 0 q0 3 -2 9 q-1 7 -2 10 q6 0 18 0 q14 -1 13 13 l0 64 l-33 -10 l-2 22 q2 1 8 2 q6 1 27 6 l0 54 l-32 0 ZM211 97 l-81 0 q15 -40 38 -63 q26 20 43 63 Z" /><glyph glyph-name="" unicode="&#x6296;" d="M88 29 l-3 20 l103 11 l0 149 l20 0 l0 -146 l40 4 l2 -19 l-42 -5 l0 -72 l-20 0 l0 70 l-100 -12 ZM10 145 l0 18 l31 0 l0 45 l20 0 l0 -45 l28 0 l0 -18 l-28 0 l0 -51 l30 8 q-1 -11 -1 -20 q-5 -1 -17 -5 q-8 -2 -12 -3 l0 -73 q1 -27 -26 -27 q-5 0 -15 -1 q-5 0 -7 0 q-1 10 -4 21 q10 -1 19 -1 q14 -1 13 11 l0 65 q-5 -1 -16 -5 q-11 -3 -17 -5 l-2 21 q17 5 35 9 l0 56 l-31 0 ZM148 80 q-25 19 -49 35 l12 15 q8 -5 25 -17 q17 -11 25 -17 l-13 -16 ZM158 141 q-9 8 -28 22 q-13 9 -19 14 l12 14 q8 -6 24 -17 q16 -11 24 -17 l-13 -16 Z" /><glyph glyph-name="" unicode="&#x6297;" d="M84 -29 q-1 1 -3 4 q-8 8 -12 11 q27 19 34 38 q8 18 8 61 l0 35 l91 0 l0 -115 q-1 -10 11 -9 l5 0 q12 -1 13 11 q1 8 2 23 q1 7 1 11 q2 -1 8 -2 q6 -2 8 -3 q0 -17 -3 -35 q-2 -25 -28 -24 l-11 0 q-25 0 -25 24 l0 100 l-52 0 l0 -17 q0 -47 -9 -69 q-9 -22 -38 -44 ZM12 -27 q-2 16 -3 21 q1 0 4 0 q8 -1 14 0 q12 -1 12 12 l0 63 q-17 -4 -31 -9 l-2 21 q19 5 33 8 l0 54 l-30 0 l0 19 l30 0 l0 46 l19 0 l0 -46 l26 0 l0 -19 l-26 0 l0 -49 l29 8 q-1 -9 0 -19 l-29 -8 l0 -73 q1 -28 -25 -28 q-3 0 -10 0 q-7 -1 -11 -1 ZM90 153 l0 18 l69 0 q-7 18 -16 35 l21 4 q1 -3 5 -10 q8 -18 12 -28 l-2 -1 l60 0 l0 -18 l-149 0 Z" /><glyph glyph-name="" unicode="&#x62a2;" d="M142 -22 q-39 -2 -37 32 l0 109 l113 0 q0 -23 -2 -55 q0 -30 -34 -31 q-14 0 -32 0 q0 1 0 2 q-1 8 -4 17 q11 -1 30 -1 q20 -1 21 16 q2 16 2 34 l-74 0 l0 -87 q-2 -18 23 -17 l50 0 q19 -1 23 14 q0 3 1 11 q2 13 3 21 q11 -3 20 -6 q-2 -15 -6 -34 q-6 -25 -38 -25 l-59 0 ZM10 144 l0 19 l29 0 l0 47 l20 0 l0 -47 l27 0 l0 -19 l-27 0 l0 -54 l27 7 q0 -11 1 -20 l-28 -7 l0 -70 q1 -25 -24 -26 q-12 0 -22 0 q-1 10 -4 20 q8 -1 18 -1 q13 0 12 9 l0 64 l-30 -8 l-3 21 q17 3 33 7 l0 58 l-29 0 ZM239 111 q-46 29 -75 73 q-24 -41 -72 -75 q-6 9 -12 17 q52 32 78 86 l21 -2 q-2 -6 -5 -10 q31 -47 76 -70 q-6 -9 -11 -19 Z" /><glyph glyph-name="" unicode="&#x62a4;" d="M92 -29 q-8 8 -17 14 q19 25 25 50 q6 25 6 77 l0 62 l59 0 q-2 5 -7 16 q-6 11 -8 15 l19 5 q1 -2 3 -6 q12 -20 15 -29 l-4 -1 l54 0 l0 -112 l-19 0 l0 13 l-93 0 q-1 -61 -33 -104 ZM11 146 l0 18 l30 0 l0 45 l20 0 l0 -45 l28 0 l0 -18 l-28 0 l0 -52 l29 9 q0 -12 1 -20 l-30 -8 l0 -73 q1 -27 -26 -27 q-10 0 -21 0 q-1 11 -4 20 q2 0 8 0 q7 -1 10 -1 q14 -1 13 12 l0 63 l-33 -9 l-2 21 l35 8 l0 57 l-30 0 ZM126 106 q0 -6 -1 -13 l93 0 l0 62 l-92 0 l0 -49 Z" /><glyph glyph-name="" unicode="&#x62b1;" d="M133 -22 q-34 -1 -33 33 l0 117 q-1 -2 -5 -6 q-3 -5 -5 -7 q-1 2 -3 4 q-2 5 -8 12 q28 36 43 79 l21 -2 q-2 -4 -5 -12 q-4 -10 -6 -15 l100 0 q0 -18 -1 -57 q0 -41 -1 -57 q0 -40 -37 -40 q-11 0 -33 0 q0 3 -2 10 q-1 6 -2 9 q4 0 16 0 q11 -1 15 -1 q25 -2 24 25 q2 44 2 94 l-90 0 q-9 -16 -20 -31 l79 0 l0 -73 l-63 0 l0 -44 q-1 -21 20 -20 l61 0 q23 -1 27 14 q1 4 3 15 q1 6 2 9 q9 -4 19 -7 q-3 -13 -6 -24 q-7 -26 -40 -25 l-72 0 ZM9 142 l0 19 l30 0 l0 48 l20 0 l0 -48 l24 0 l0 -19 l-24 0 l0 -48 q1 0 4 1 q9 2 21 6 q0 -13 1 -19 l-26 -8 l0 -73 q1 -26 -26 -27 q-4 0 -11 -1 q-6 0 -9 0 q-1 5 -2 14 q-1 5 -1 7 q7 -1 16 -1 q14 0 13 11 l0 65 q-5 -1 -15 -5 q-11 -3 -16 -5 l-2 21 q15 3 33 9 l0 53 l-30 0 ZM119 115 l0 -38 l45 0 l0 38 l-45 0 Z" /><glyph glyph-name="" unicode="&#x62c5;" d="M105 38 l0 158 l127 0 l0 -158 l-127 0 ZM9 145 l0 18 l32 0 l0 46 l20 0 l0 -46 l30 0 l0 -18 l-30 0 l0 -54 q15 3 30 8 q0 -12 0 -20 l-30 -8 l0 -69 q1 -28 -28 -28 q-9 0 -18 0 q-1 9 -3 20 q8 0 15 0 q15 -1 14 12 l0 60 q-17 -4 -32 -9 l-2 21 q16 3 34 8 l0 59 l-32 0 ZM125 109 l0 -52 l87 0 l0 52 l-87 0 ZM125 177 l0 -51 l87 0 l0 51 l-87 0 ZM81 -17 l0 17 l166 0 l0 -17 l-166 0 Z" /><glyph glyph-name="" unicode="&#x62c9;" d="M9 140 l0 18 l32 0 l0 52 l19 0 l0 -52 l29 0 l0 -18 l-29 0 l0 -49 l32 7 q0 -11 1 -20 q-16 -3 -33 -7 l0 -71 q0 -26 -24 -26 q-8 -1 -22 -1 q-1 4 -2 13 q-2 5 -2 8 q2 0 8 0 q6 -1 10 -1 q14 0 13 11 l0 63 q-17 -5 -32 -8 l-3 21 l35 7 l0 53 l-32 0 ZM86 -17 l0 17 l84 0 q27 91 35 128 l21 -5 q-24 -83 -36 -123 l59 0 l0 -17 l-163 0 ZM100 148 l0 19 l66 0 q-3 9 -9 27 q-3 8 -4 12 l20 4 q3 -9 10 -26 q2 -9 4 -13 l-19 -4 l73 0 l0 -19 l-141 0 ZM134 20 q-12 62 -23 102 l19 5 q2 -8 6 -24 q12 -48 18 -77 l-20 -6 Z" /><glyph glyph-name="" unicode="&#x62cd;" d="M100 -28 l0 204 l42 0 q2 6 5 17 q3 12 4 17 l22 -2 q-2 -5 -5 -14 q-4 -12 -6 -18 l74 0 l0 -204 l-20 0 l0 19 l-96 0 l0 -19 l-20 0 ZM8 144 l0 19 l33 0 l0 45 l19 0 l0 -45 l27 0 l0 -19 l-27 0 l0 -49 l28 8 q0 -11 0 -20 q-7 -2 -21 -6 q-5 -1 -7 -2 l0 -73 q1 -27 -26 -27 q-6 -1 -21 -1 q-1 11 -4 20 q11 0 18 0 q15 -1 14 11 l0 64 q-7 -2 -20 -6 q-8 -3 -12 -4 l-2 22 l34 9 l0 54 l-33 0 ZM120 76 l0 -69 l96 0 l0 69 l-96 0 ZM120 157 l0 -63 l96 0 l0 63 l-96 0 Z" /><glyph glyph-name="" unicode="&#x62ec;" d="M96 174 q-1 9 -4 18 q69 2 143 8 l3 -18 q-31 -3 -62 -4 l0 -42 l71 0 l0 -18 l-71 0 l0 -42 l57 0 l0 -105 l-19 0 l0 14 l-96 0 l0 -14 l-19 0 l0 105 l57 0 l0 42 l-68 0 l0 18 l68 0 l0 40 q-10 -1 -30 -1 q-20 -1 -30 -1 ZM10 145 l0 19 l28 0 l0 46 l19 0 l0 -46 l26 0 l0 -19 l-26 0 l0 -53 l27 7 q0 -11 0 -20 l-27 -7 l0 -72 q1 -26 -24 -25 q-10 -1 -21 -1 q0 3 -1 10 q-1 6 -2 10 q5 -1 18 -1 q12 -1 11 10 l0 64 l-29 -8 l-3 21 q7 1 20 5 q8 2 12 3 l0 57 l-28 0 ZM118 58 l0 -57 l96 0 l0 57 l-96 0 Z" /><glyph glyph-name="" unicode="&#x62ff;" d="M28 64 q0 6 -2 14 q100 0 194 3 l2 -14 q-13 0 -39 0 q-27 -1 -41 -1 l0 -18 l81 0 l0 -13 l-81 0 l0 -17 l105 0 l0 -14 l-105 0 l0 -4 q1 -26 -28 -27 q-17 0 -36 0 q-1 7 -4 16 q15 -1 31 -1 q18 -1 17 13 l0 3 l-114 0 l0 14 l114 0 l0 17 l-92 0 l0 13 l92 0 l0 17 q-16 0 -49 -1 q-30 0 -45 0 ZM48 93 l0 44 l160 0 l0 -44 l-160 0 ZM240 138 q-38 12 -65 26 l0 -11 l-96 0 l0 10 q-22 -12 -63 -27 q-4 9 -10 17 q78 25 118 58 l25 -2 q-3 -3 -6 -5 q43 -32 106 -48 l-9 -18 ZM67 124 l0 -18 l122 0 l0 18 l-122 0 ZM130 194 q-2 -1 -6 -4 q-25 -17 -40 -24 l88 0 q-22 12 -42 28 Z" /><glyph glyph-name="" unicode="&#x6301;" d="M9 142 l0 18 l32 0 l0 50 l19 0 l0 -50 l27 0 l0 -18 l-27 0 l0 -50 q14 3 27 6 q0 -11 0 -20 l-27 -6 l0 -72 q0 -25 -24 -26 q-15 0 -23 0 q-1 10 -3 21 q4 -1 18 -1 q14 -1 13 11 l0 63 l-32 -8 l-3 21 l35 7 l0 54 l-32 0 ZM102 160 l0 18 l57 0 l0 32 l20 0 l0 -32 l59 0 l0 -18 l-59 0 l0 -35 l70 0 l0 -17 l-158 0 l0 17 l68 0 l0 35 l-57 0 ZM91 59 l0 17 l102 0 l0 21 l19 0 l0 -21 l37 0 l0 -17 l-37 0 l0 -55 q1 -30 -33 -29 q-18 -1 -34 -1 q0 1 -1 4 q-1 11 -3 17 q11 -1 32 -1 q21 -1 20 16 l0 49 l-102 0 ZM136 4 q-9 10 -34 35 l14 12 q27 -25 35 -34 l-15 -13 Z" /><glyph glyph-name="" unicode="&#x6307;" d="M103 -29 l0 122 l130 0 l0 -122 l-20 0 l0 14 l-91 0 l0 -14 l-19 0 ZM10 145 l0 18 l30 0 l0 46 l19 0 l0 -46 l28 0 l0 -18 l-28 0 l0 -53 l29 7 q0 -10 0 -20 q-2 0 -5 -1 q-9 -2 -24 -6 l0 -71 q1 -27 -27 -27 q-7 -1 -19 -1 q0 4 -2 10 q-1 8 -1 10 q5 0 16 0 q15 -1 14 12 l0 62 q-17 -4 -32 -9 l-2 22 q16 3 34 7 l0 58 l-30 0 ZM133 115 q-33 -1 -32 31 l0 64 l19 0 l0 -38 q62 11 115 26 l6 -17 q-57 -15 -121 -25 l0 -5 q-2 -20 22 -19 l60 0 q20 -1 23 15 q3 10 4 22 q10 -3 19 -6 q-1 -4 -2 -11 q-2 -10 -3 -15 q-7 -23 -36 -22 l-74 0 ZM122 30 l0 -30 l91 0 l0 30 l-91 0 ZM122 76 l0 -30 l91 0 l0 30 l-91 0 Z" /><glyph glyph-name="" unicode="&#x6309;" d="M91 87 l0 18 l38 0 q9 20 15 39 l21 -4 q-7 -19 -15 -35 l98 0 l0 -18 l-29 0 q-12 -42 -34 -65 q11 -5 31 -16 q21 -11 31 -16 l-13 -17 q-5 3 -15 9 q-18 11 -49 27 q-29 -22 -86 -38 q-6 11 -11 18 q55 13 79 30 q-7 4 -20 11 q-21 12 -32 17 q11 18 21 40 l-30 0 ZM10 144 l0 18 l29 0 l0 47 l19 0 l0 -47 l24 0 l0 -18 l-24 0 l0 -50 l24 7 q0 -9 1 -19 l-25 -8 l0 -74 q1 -25 -24 -26 q-10 0 -21 0 q0 1 -1 4 q-1 11 -3 16 q5 -1 18 -1 q13 0 12 9 l0 66 l-30 -9 l-2 21 q6 1 20 5 q8 3 12 4 l0 55 l-29 0 ZM95 131 l0 45 l67 0 q-3 7 -9 19 q-3 7 -4 10 l20 4 q3 -5 8 -15 q5 -11 7 -16 l-6 -2 l65 0 l0 -45 l-19 0 l0 27 l-111 0 l0 -27 l-18 0 ZM125 54 l42 -23 q24 22 32 56 l-57 0 q-2 -3 -4 -9 q-4 -9 -13 -24 Z" /><glyph glyph-name="" unicode="&#x634f;" d="M99 90 l0 108 l133 0 l0 -108 l-133 0 ZM10 143 l0 18 l29 0 l0 47 l19 0 l0 -47 l26 0 l0 -18 l-26 0 l0 -51 l26 8 q0 -11 1 -20 l-27 -7 l0 -73 q1 -25 -23 -26 q-7 -1 -23 -1 q0 1 0 3 q-1 6 -4 17 q10 0 19 0 q13 0 12 9 l0 65 l-30 -9 l-2 21 q15 3 32 8 l0 56 l-29 0 ZM96 38 l0 17 l60 0 l0 24 l19 0 l0 -24 l60 0 l0 -17 l-60 0 l0 -38 l74 0 l0 -18 l-169 0 l0 18 l76 0 l0 38 l-60 0 ZM118 136 l0 -29 l95 0 l0 29 l-95 0 ZM118 182 l0 -29 l95 0 l0 29 l-95 0 Z" /><glyph glyph-name="" unicode="&#x6355;" d="M155 -24 l0 50 l-45 0 l0 -55 l-19 0 l0 160 l64 0 l0 25 l-69 0 l0 17 l69 0 l0 37 l19 0 l0 -37 l75 0 l0 -17 l-75 0 l0 -25 l65 0 l0 -132 q1 -25 -23 -25 q-8 -1 -26 -1 q-1 8 -4 17 q12 0 22 0 q13 -1 12 10 l0 26 l-46 0 l0 -50 l-19 0 ZM10 145 l0 18 l26 0 l0 47 l19 0 l0 -47 l23 0 l0 -18 l-23 0 l0 -50 q12 5 24 9 l1 -20 l-25 -8 l0 -77 q1 -26 -23 -26 q-2 0 -9 0 q-8 -1 -11 -1 q0 3 -2 10 q-1 7 -2 11 q9 -1 18 -1 q10 0 10 9 l0 68 l-27 -10 l-3 21 l30 9 l0 56 l-26 0 ZM174 70 l0 -29 l46 0 l0 29 l-46 0 ZM220 114 l-46 0 l0 -28 l46 0 l0 28 ZM110 70 l0 -29 l45 0 l0 29 l-45 0 ZM110 114 l0 -28 l45 0 l0 28 l-45 0 ZM216 175 q-11 14 -22 25 l15 7 q12 -10 22 -24 l-15 -8 Z" /><glyph glyph-name="" unicode="&#x6362;" d="M94 125 q-2 2 -6 7 q-4 5 -6 7 q35 34 51 72 l21 -3 q-6 -12 -12 -22 l74 0 l0 -17 l-27 -34 l43 0 l0 -75 l17 0 l0 -17 l-75 0 q18 -39 75 -52 q-3 -5 -8 -14 q-1 -4 -2 -5 q-59 19 -76 58 q-12 -37 -83 -60 q-1 3 -5 9 q-3 7 -5 10 q70 18 80 54 l-73 0 l0 17 l20 0 l0 67 q-1 -2 -3 -2 ZM10 145 l0 19 l26 0 l0 45 l19 0 l0 -45 l25 0 l0 -19 l-25 0 l0 -52 q4 2 12 4 q8 3 12 4 q0 -11 1 -20 q-13 -3 -25 -7 l0 -74 q0 -26 -24 -27 q-11 0 -21 0 q-1 9 -3 20 q9 -1 17 -1 q13 -1 12 12 l0 64 l-28 -9 l-2 21 l30 8 l0 57 l-26 0 ZM213 118 l-40 0 l0 -39 q0 -9 -1 -19 l41 0 l0 58 ZM115 118 l0 -58 l39 0 q0 2 0 8 q1 6 1 9 l0 41 l-40 0 ZM194 169 l-63 0 q-12 -18 -27 -34 l64 0 l26 34 Z" /><glyph glyph-name="" unicode="&#x636e;" d="M77 -28 q-10 10 -15 13 q32 40 30 126 l0 86 l146 0 l0 -66 l-127 0 l0 -21 l0 -9 l57 0 l0 25 l18 0 l0 -25 l62 0 l0 -17 l-62 0 l0 -29 l49 0 l0 -83 l-18 0 l0 14 l-80 0 l0 -14 l-18 0 l0 83 l49 0 l0 29 l-58 0 q-1 -69 -33 -112 ZM10 144 l0 18 l28 0 l0 47 l18 0 l0 -47 l25 0 l0 -18 l-25 0 l0 -52 l23 7 q0 -4 1 -10 q0 -6 0 -9 q-3 -1 -10 -3 q-9 -2 -14 -4 l0 -72 q1 -27 -25 -27 q-11 0 -21 0 q0 8 -3 20 q0 0 3 0 q11 -1 15 -1 q14 -1 13 11 l0 63 q-15 -4 -29 -9 l-2 21 q14 3 31 8 l0 57 l-28 0 ZM111 180 l0 -33 l108 0 l0 33 l-108 0 ZM137 38 l0 -38 l80 0 l0 38 l-80 0 Z" /><glyph glyph-name="" unicode="&#x638c;" d="M27 70 q-1 8 -3 15 q117 0 200 3 l2 -15 l-85 -2 l0 -17 l82 0 l0 -13 l-82 0 l0 -17 l106 0 l0 -15 l-106 0 l0 -8 q1 -26 -31 -27 q-18 0 -38 0 q0 2 -1 8 q-1 5 -2 8 q19 0 34 0 q19 -1 18 14 l0 5 l-112 0 l0 15 l112 0 l0 17 l-94 0 l0 13 l94 0 l0 17 q-16 0 -49 -1 q-30 0 -45 0 ZM51 101 l0 47 l154 0 l0 -47 l-154 0 ZM15 135 l0 43 l57 0 l-30 22 l17 8 q20 -14 35 -26 l-7 -4 l31 0 l0 33 l20 0 l0 -33 l29 0 l-6 4 q4 3 15 11 q16 12 20 15 l17 -8 q-3 -2 -11 -8 q-13 -10 -19 -14 l58 0 l0 -43 l-19 0 l0 29 l-188 0 l0 -29 l-19 0 ZM70 135 l0 -21 l115 0 l0 21 l-115 0 Z" /><glyph glyph-name="" unicode="&#x63a8;" d="M98 -29 l0 150 q-7 -10 -16 -21 q-1 3 -6 11 q-3 6 -4 8 q31 35 51 91 l20 -5 q-9 -21 -18 -40 l55 0 q-4 10 -16 32 q-2 3 -3 5 l18 6 q1 -2 4 -7 q12 -20 16 -29 l-17 -7 l64 0 l0 -17 l-56 0 l0 -37 l53 0 l0 -16 l-53 0 l0 -37 l53 0 l0 -17 l-53 0 l0 -38 l58 0 l0 -14 l-130 0 l0 -18 l-20 0 ZM9 142 l0 18 l29 0 l0 49 l19 0 l0 -49 l25 0 l0 -18 l-25 0 l0 -52 l25 8 q0 -11 0 -19 l-25 -8 l0 -71 q1 -25 -23 -26 l-22 -1 q-2 12 -4 21 q3 0 9 0 q6 -1 10 -1 q12 0 11 9 l0 63 l-29 -9 l-3 21 q5 1 15 4 q11 2 17 4 l0 57 l-29 0 ZM118 41 l0 -38 l52 0 l0 38 l-52 0 ZM118 148 l0 -37 l52 0 l0 37 l-52 0 ZM118 95 l0 -37 l52 0 l0 37 l-52 0 Z" /><glyph glyph-name="" unicode="&#x63cf;" d="M91 -29 l0 151 l146 0 l0 -151 l-19 0 l0 15 l-108 0 l0 -15 l-19 0 ZM9 145 l0 18 l27 0 l0 46 l19 0 l0 -46 l23 0 l0 -18 l-23 0 l0 -51 l23 8 q0 -11 0 -20 l-23 -7 l0 -75 q1 -26 -24 -26 q-6 -1 -20 -1 q0 1 0 3 q-1 6 -4 17 q4 0 11 -1 q5 0 7 0 q12 0 11 11 l0 66 l-28 -10 l-2 22 q6 1 21 6 q6 1 9 2 l0 56 l-27 0 ZM187 134 l0 27 l-46 0 l0 -27 l-19 0 l0 27 l-38 0 l0 18 l38 0 l0 30 l19 0 l0 -30 l46 0 l0 31 l20 0 l0 -31 l42 0 l0 -18 l-42 0 l0 -27 l-20 0 ZM174 45 l0 -43 l44 0 l0 43 l-44 0 ZM110 45 l0 -43 l45 0 l0 43 l-45 0 ZM218 104 l-44 0 l0 -43 l44 0 l0 43 ZM110 104 l0 -43 l45 0 l0 43 l-45 0 Z" /><glyph glyph-name="" unicode="&#x63d0;" d="M9 141 l0 18 l30 0 l0 50 l19 0 l0 -50 l25 0 l0 -18 l-25 0 l0 -44 q11 6 23 10 q0 -14 1 -20 l165 0 l0 -16 l-72 0 l0 -28 l63 0 l0 -16 l-63 0 l0 -31 l1 0 q33 0 74 0 q-3 -9 -5 -17 q-39 0 -75 0 q-44 1 -61 33 q-8 -21 -29 -41 q-2 2 -7 5 q-5 4 -8 6 q33 29 36 79 l18 -3 q-1 -13 -4 -24 q16 -34 41 -36 l0 73 l-75 0 l0 16 q-12 -4 -23 -10 l0 -75 q1 -27 -25 -28 q-10 -1 -19 -1 q-1 12 -4 20 q7 0 17 0 q12 -1 12 12 l0 65 l-31 -13 l-2 21 q5 2 17 6 q10 4 16 6 l0 51 l-30 0 ZM100 108 l0 90 l127 0 l0 -90 l-127 0 ZM119 183 l0 -22 l89 0 l0 22 l-89 0 ZM119 146 l0 -22 l89 0 l0 22 l-89 0 Z" /><glyph glyph-name="" unicode="&#x63e1;" d="M74 -28 q-1 1 -4 3 q-2 1 -12 9 q18 25 23 49 q5 23 5 75 l0 90 l152 0 l0 -55 l-135 0 l0 -33 q0 -55 -6 -81 q-5 -28 -23 -57 ZM9 144 l0 18 l26 0 l0 47 l18 0 l0 -47 l23 0 l0 -18 l-23 0 l0 -47 q11 5 23 9 q-1 -8 1 -20 q-6 -2 -16 -6 q-5 -2 -8 -3 l0 -76 q2 -25 -23 -26 q-9 0 -18 0 q-1 11 -3 19 q5 0 15 0 q12 -1 11 10 l0 66 l-26 -10 l-3 20 q15 6 29 10 l0 54 l-26 0 ZM112 20 l0 16 l53 0 l0 22 l18 0 l0 -22 l52 0 l0 -16 l-52 0 l0 -23 l65 0 l0 -15 l-150 0 l0 15 l67 0 l0 23 l-53 0 ZM113 109 l0 15 l129 0 l0 -15 l-68 0 q-20 -21 -35 -35 q2 0 7 0 q40 2 62 2 q-3 3 -9 9 q-5 6 -7 8 l12 8 q22 -20 41 -41 l-14 -10 l-11 12 q-52 0 -80 -2 q-12 0 -21 -2 l-5 16 q7 4 14 11 q11 9 23 24 l-38 0 ZM103 183 l0 -26 l117 0 l0 26 l-117 0 Z" /><glyph glyph-name="" unicode="&#x642d;" d="M97 -29 l0 83 l130 0 l0 -83 l-19 0 l0 13 l-92 0 l0 -13 l-19 0 ZM9 144 l0 19 l27 0 l0 46 l19 0 l0 -46 l25 0 l0 -19 l-25 0 l0 -42 l25 10 q0 -11 1 -20 l-26 -10 l0 -82 q1 -24 -24 -25 q-4 -1 -21 -1 q0 3 -2 9 q-1 7 -2 10 q8 0 18 0 q13 -1 12 10 l0 71 q-13 -5 -27 -11 l-3 21 q6 2 18 7 q8 2 12 4 l0 49 l-27 0 ZM239 70 q-20 12 -35 22 l0 -15 l-85 0 l0 13 q-15 -10 -34 -22 q-5 8 -11 16 q53 26 83 70 l20 -3 l-5 -7 q33 -39 77 -56 q-1 -3 -4 -7 q-4 -7 -6 -11 ZM86 167 l0 17 l32 0 l0 25 l19 0 l0 -25 l52 0 l0 25 l19 0 l0 -25 l37 0 l0 -17 l-37 0 l0 -22 l-19 0 l0 22 l-52 0 l0 -22 l-19 0 l0 22 l-32 0 ZM116 37 l0 -37 l92 0 l0 37 l-92 0 ZM162 131 q-20 -24 -41 -39 l82 0 q-24 18 -41 39 Z" /><glyph glyph-name="" unicode="&#x6444;" d="M80 184 l0 15 l162 0 l0 -15 l-21 0 l0 -81 l25 1 q-1 -4 -1 -14 q-12 -1 -24 -1 l0 -16 l-19 0 l0 15 q-14 -1 -10 -1 q-67 -3 -111 -6 l-2 15 q12 1 22 1 l0 87 l-21 0 ZM8 145 l0 18 l27 0 l0 47 l19 0 l0 -47 l25 0 l0 -18 l-25 0 l0 -46 l22 9 q1 -11 1 -20 q-11 -4 -23 -9 l0 -79 q1 -26 -24 -27 q-11 0 -19 0 q0 8 -3 19 q8 0 15 0 q13 0 12 9 l0 70 l-27 -11 l-2 21 q5 2 15 6 q9 3 14 5 l0 53 l-27 0 ZM242 -28 q-24 10 -41 23 q-17 -14 -47 -24 q-1 3 -6 9 q-3 4 -4 6 q28 9 44 18 q-16 17 -26 45 l4 1 l-8 0 l0 15 l83 0 l0 -16 q-10 -26 -27 -45 q15 -8 37 -16 q-3 -6 -9 -16 ZM138 -16 l-21 16 q-16 -16 -45 -29 q-2 4 -9 13 q-2 1 -2 2 q27 11 42 22 q-15 12 -30 22 l10 12 q17 -10 32 -21 q6 7 14 25 q1 3 2 4 l-56 0 l0 15 l74 0 l0 -16 q-8 -22 -20 -38 l21 -13 l-12 -14 ZM120 152 l0 -20 l82 0 l0 20 l-82 0 ZM120 184 l0 -19 l82 0 l0 19 l-82 0 ZM120 98 l82 4 l0 17 l-82 0 l0 -21 ZM223 50 l-45 0 q9 -22 23 -35 q15 14 22 35 Z" /><glyph glyph-name="" unicode="&#x6469;" d="M61 41 l0 13 l76 0 l0 17 q-39 -2 -75 -2 l-3 14 q76 0 164 5 l2 -14 q-22 -1 -69 -3 l0 -17 l74 0 l0 -13 l-74 0 l0 -17 l91 0 l0 -15 l-91 0 l0 -7 q1 -26 -29 -27 q-9 -1 -30 -1 q0 4 -2 11 q-1 3 -1 5 q11 0 25 0 q19 -1 18 14 l0 5 l-88 0 l0 15 l88 0 l0 17 l-76 0 ZM21 -29 q-7 6 -15 13 q13 22 17 45 q4 21 4 69 l0 90 l105 0 l-6 21 l21 2 l6 -23 l94 0 l0 -15 l-202 0 l0 -71 q0 -54 -5 -79 q-4 -25 -19 -52 ZM150 137 l0 13 l31 0 l0 16 l16 0 l0 -16 l41 0 l0 -13 l-40 0 q14 -19 44 -32 q-6 -6 -9 -13 q-23 13 -36 31 l0 -26 l-16 0 l0 26 q-14 -19 -36 -31 q-1 2 -5 6 q-4 5 -6 6 q28 12 45 33 l-29 0 ZM56 137 l0 13 l38 0 l0 16 l16 0 l0 -16 l27 0 l0 -13 l-27 0 l0 -15 l7 8 q18 -12 23 -16 l-10 -11 q-11 9 -20 16 l0 -25 l-16 0 l0 31 q-12 -18 -37 -33 q-3 7 -10 13 q26 11 43 32 l-34 0 Z" /><glyph glyph-name="" unicode="&#x652f;" d="M236 -27 q-74 16 -108 35 q-41 -22 -109 -39 q-3 9 -10 20 q70 14 101 32 q-36 30 -57 80 l-22 0 l0 19 l88 0 l0 38 l-109 0 l0 18 l109 0 l0 34 l21 0 l0 -34 l105 0 l0 -18 l-105 0 l0 -38 l70 0 l0 -19 q-22 -49 -63 -80 q29 -18 100 -28 q-2 -4 -5 -10 q-4 -7 -6 -10 ZM187 101 l-113 0 q22 -48 55 -68 q37 25 58 68 Z" /><glyph glyph-name="" unicode="&#x6539;" d="M112 89 q-5 8 -12 17 q30 43 47 104 l20 -3 q-3 -9 -9 -27 q-3 -8 -4 -12 l93 0 l0 -19 l-24 0 q-8 -78 -39 -115 q24 -25 64 -42 q-6 -9 -12 -19 q-44 23 -65 45 q-21 -21 -73 -48 q-6 9 -14 19 q49 20 74 45 q-22 34 -30 80 q-7 -13 -16 -25 ZM23 -20 l-13 16 q8 8 8 22 l0 90 l61 0 l0 65 l-65 0 l0 18 l85 0 l0 -102 l-61 0 l0 -78 q10 4 35 16 q19 10 27 13 q0 -9 2 -21 q-29 -12 -63 -29 q-9 -4 -16 -10 ZM146 149 l-4 -9 q9 -60 30 -90 q25 33 32 99 l-58 0 Z" /><glyph glyph-name="" unicode="&#x653e;" d="M237 -28 q-38 25 -56 45 q-22 -24 -60 -48 q-2 4 -8 12 q-4 5 -5 7 q42 23 61 45 q-21 31 -28 82 q-2 -4 -8 -12 q-5 -8 -8 -12 q-9 12 -13 17 q31 41 46 103 l21 -3 q-6 -21 -15 -43 l84 0 l0 -18 l-19 0 q-7 -75 -35 -114 q21 -25 55 -41 q-8 -12 -12 -20 ZM9 149 l0 18 l56 0 q-3 14 -12 40 l20 4 q2 -5 5 -18 q6 -18 8 -24 l-9 -2 l47 0 l0 -18 l-68 0 q0 -8 -1 -23 q0 -13 0 -19 l56 0 q0 -52 -3 -95 q0 -33 -32 -33 q-12 0 -22 0 q0 2 -1 6 q-2 8 -3 13 q7 0 19 0 q20 -2 20 16 q3 38 3 75 l-38 0 q-4 -80 -34 -118 q-11 11 -15 14 q29 35 30 115 q1 8 1 25 q1 16 1 24 l-28 0 ZM182 50 q21 30 28 97 l-54 0 l-2 -5 q8 -61 28 -92 Z" /><glyph glyph-name="" unicode="&#x653f;" d="M111 -29 q-2 2 -6 9 q-5 6 -7 9 q42 19 67 46 q-23 34 -31 83 q-2 -2 -5 -7 q-4 -5 -6 -8 q-2 4 -8 12 q-3 4 -4 6 q29 38 45 88 l20 -4 q-3 -12 -14 -34 q-1 -3 -2 -5 l88 0 l0 -18 l-21 0 q-9 -74 -38 -113 q22 -25 61 -42 q-7 -10 -12 -20 q-43 26 -61 46 q-20 -22 -66 -48 ZM13 170 l0 19 l112 0 l0 -19 l-37 0 l0 -62 l32 0 l0 -19 l-32 0 l0 -65 l38 7 q0 -2 0 -9 q-1 -7 -1 -10 q-11 -2 -40 -7 q-50 -8 -77 -13 l-3 19 q9 2 19 3 l0 115 l18 0 l0 -112 l27 4 l0 149 l-56 0 ZM151 148 q-1 -3 -3 -6 q9 -60 29 -91 q24 32 31 97 l-57 0 Z" /><glyph glyph-name="" unicode="&#x6548;" d="M127 -30 l-14 16 q40 24 61 51 q-18 29 -27 76 l-9 -15 q-3 5 -12 17 q25 37 39 95 l19 -3 q-6 -22 -13 -42 l76 0 l0 -19 l-19 0 q-9 -75 -31 -110 q17 -25 53 -45 q-6 -8 -13 -18 q-33 24 -52 46 q-17 -22 -58 -49 ZM110 -9 q-6 6 -17 17 q-11 11 -16 16 q-20 -26 -61 -53 q-1 2 -4 6 q-5 8 -7 12 q38 22 59 49 l-36 37 l14 12 l34 -33 q11 17 21 39 l16 -7 q-12 -28 -24 -46 l35 -36 l-14 -13 ZM12 154 l0 18 l58 0 q-3 8 -12 25 q-3 6 -4 8 l20 6 q3 -8 13 -29 q2 -5 3 -7 l-8 -3 l50 0 l0 -18 l-120 0 ZM164 146 l-3 -7 q7 -51 24 -85 q19 35 25 92 l-46 0 ZM20 81 l-13 13 q23 23 41 48 l15 -10 q-21 -28 -43 -51 ZM119 88 q-18 23 -39 44 l14 11 q28 -30 39 -43 l-14 -12 Z" /><glyph glyph-name="" unicode="&#x655e;" d="M150 93 q-4 9 -10 17 q28 44 43 100 l18 -3 q-6 -21 -14 -41 l63 0 l0 -18 l-14 0 q-7 -75 -28 -114 q12 -19 41 -42 q-3 -4 -7 -12 q-3 -4 -4 -6 q-28 24 -40 42 q-12 -17 -44 -45 q-2 2 -6 8 q-4 5 -6 8 q31 25 45 47 q-17 31 -24 81 q-1 -2 -3 -6 q-3 -5 -10 -16 ZM97 -24 q0 1 -1 4 q-1 10 -3 14 q8 0 17 0 q14 -1 13 12 l0 117 l-90 0 l0 -147 l-17 0 l0 164 l52 0 l0 70 l19 0 l0 -70 l53 0 l0 -140 q0 -23 -24 -24 q-10 0 -19 0 ZM49 19 l0 80 l57 0 l0 -80 l-57 0 ZM197 53 q17 32 21 95 l-39 0 q0 -3 -2 -6 q6 -57 20 -89 ZM64 82 l0 -46 l27 0 l0 46 l-27 0 ZM111 151 l-14 10 q20 22 30 36 l14 -9 q-14 -19 -30 -37 ZM41 151 q-9 14 -27 36 l13 10 q13 -13 29 -35 l-15 -11 Z" /><glyph glyph-name="" unicode="&#x6570;" d="M140 94 q-5 6 -13 15 q29 44 43 103 l19 -3 q-6 -22 -14 -42 l72 0 l0 -18 l-19 0 q-7 -78 -30 -114 q18 -25 50 -45 q-6 -8 -12 -17 q-33 23 -49 44 q-14 -18 -52 -47 q-1 3 -8 10 q-3 4 -5 6 q37 25 54 49 q-18 32 -24 79 q-6 -11 -12 -20 ZM15 -29 q-2 6 -9 17 q45 11 63 20 q-21 11 -46 21 l16 24 l-30 0 l0 16 l40 0 q2 4 7 13 q2 3 3 4 l19 -3 q-4 -8 -9 -14 l58 0 l0 -17 q-7 -24 -25 -40 l27 -12 l-11 -14 l-31 14 q-26 -18 -72 -29 ZM11 138 l0 16 l57 0 l0 55 l18 0 l0 -55 l49 0 l0 -16 l-49 0 l0 -21 l7 9 q19 -10 39 -24 l-10 -14 q-3 2 -12 9 q-16 11 -24 17 l0 -23 l-18 0 l0 32 q-19 -22 -50 -39 q-1 3 -5 8 q-3 6 -5 8 q35 15 55 38 l-52 0 ZM165 140 q5 -54 22 -88 q18 32 23 97 l-42 0 q-1 -4 -3 -9 ZM46 36 q7 -3 20 -8 q13 -6 19 -9 q16 14 23 34 l-50 0 q-6 -11 -12 -17 ZM107 160 l-12 10 q19 19 28 29 l13 -9 q-12 -14 -29 -30 ZM44 160 q-3 4 -15 17 q-9 9 -12 13 l12 9 q8 -7 22 -22 q4 -4 6 -6 l-13 -11 Z" /><glyph glyph-name="" unicode="&#x6574;" d="M18 50 l0 15 l220 0 l0 -15 l-98 0 l0 -21 l81 0 l0 -15 l-81 0 l0 -20 l109 0 l0 -15 l-241 0 l0 15 l42 0 l0 42 l19 0 l0 -42 l52 0 l0 56 l-103 0 ZM12 179 l0 14 l54 0 l0 17 l17 0 l0 -17 l52 0 l0 -14 l-52 0 l0 -16 l45 0 l0 -47 l-45 0 l0 -16 l7 10 q24 -10 40 -19 l-9 -13 q-18 11 -38 20 l0 -24 l-17 0 l0 32 q-20 -22 -51 -35 q-1 1 -3 4 q-4 7 -6 10 q31 10 54 31 l-40 0 l0 47 l46 0 l0 16 l-54 0 ZM142 74 q-3 6 -9 16 q29 9 45 22 q-13 15 -21 38 q-2 -2 -5 -7 q-7 -10 -10 -14 q-8 8 -13 12 q27 35 37 70 l18 -4 q-4 -12 -9 -23 l71 0 l0 -15 l-13 0 q-10 -36 -28 -57 q16 -12 44 -19 q-7 -11 -9 -17 q-32 11 -48 24 q-19 -14 -50 -26 ZM191 123 q15 16 24 46 l-48 0 l0 -1 q8 -28 24 -45 ZM36 151 l0 -22 l30 0 l0 22 l-30 0 ZM112 151 l-29 0 l0 -22 l29 0 l0 22 Z" /><glyph glyph-name="" unicode="&#x6587;" d="M10 150 l0 19 l116 0 q-9 20 -17 36 l22 5 q2 -4 7 -14 q7 -16 11 -24 l-12 -3 l108 0 l0 -19 l-43 0 q-14 -70 -58 -112 q36 -28 103 -42 q-7 -11 -13 -21 q-69 21 -107 49 q-31 -25 -105 -51 q-5 7 -13 20 q64 17 102 45 q-44 45 -57 112 l-44 0 ZM128 51 q40 37 51 99 l-105 0 q13 -60 54 -99 Z" /><glyph glyph-name="" unicode="&#x6599;" d="M9 99 l0 18 l41 0 l0 93 l18 0 l0 -93 l39 0 l0 -18 l-39 0 l0 -26 l8 7 q18 -17 34 -35 l-14 -14 q-10 13 -28 33 l0 -93 l-18 0 l0 97 q-14 -34 -36 -63 q-5 11 -8 21 q25 31 42 73 l-39 0 ZM118 35 l-3 20 l78 8 l0 147 l20 0 l0 -145 l35 4 l1 -19 l-36 -4 l0 -75 l-20 0 l0 73 l-75 -9 ZM168 140 q-19 16 -39 32 l12 13 q16 -11 39 -31 l-12 -14 ZM161 79 q-11 9 -30 25 q-7 4 -10 7 l12 13 q21 -15 40 -30 l-12 -15 ZM89 132 l-14 6 q12 26 20 48 l15 -6 q-12 -30 -21 -48 ZM26 133 q-1 3 -3 8 q-9 26 -15 40 l15 5 q2 -5 6 -16 q8 -20 12 -32 l-15 -5 Z" /><glyph glyph-name="" unicode="&#x65b0;" d="M199 -27 l0 127 l-36 0 l0 -6 q2 -80 -30 -121 q-2 1 -5 3 q-8 6 -13 8 q31 34 29 111 l0 95 q50 3 93 10 l6 -18 q-44 -7 -80 -9 l0 -55 l86 0 l0 -18 l-31 0 l0 -127 l-19 0 ZM13 63 l0 16 l49 0 l0 26 l19 0 l0 -26 l46 0 l0 -16 l-46 0 l0 -61 q1 -26 -26 -27 q-9 0 -23 0 q0 1 -1 4 q0 4 -3 15 q6 -1 20 -1 q15 0 14 12 l0 58 l-49 0 ZM7 108 l0 17 l37 0 q-4 7 -12 20 q-5 7 -7 11 l15 8 q5 -7 14 -22 q4 -6 6 -9 l-15 -8 l32 0 q5 8 15 25 q5 9 7 13 l17 -7 q-4 -7 -12 -20 q-5 -7 -7 -11 l36 0 l0 -17 l-126 0 ZM14 167 l0 16 l50 0 q-2 5 -5 15 q-3 7 -4 10 l20 3 q1 -3 4 -11 q4 -12 6 -17 l42 0 l0 -16 l-113 0 ZM22 -4 l-16 6 q15 27 24 48 l16 -6 q-13 -30 -24 -48 ZM113 7 l-24 37 l15 8 q11 -16 24 -37 l-15 -8 Z" /><glyph glyph-name="" unicode="&#x65b9;" d="M10 150 l0 19 l115 0 q-4 15 -14 37 l22 4 q4 -9 12 -27 q3 -8 4 -11 l-10 -3 l106 0 l0 -19 l-148 0 q0 -21 -2 -43 l119 0 q-2 -58 -5 -85 q-1 -45 -51 -44 q-23 0 -41 0 q0 1 0 2 q-2 13 -4 19 q6 0 18 0 q15 -1 23 -1 q34 -3 34 29 q2 15 4 53 q0 5 0 8 l-99 0 q-3 -75 -70 -118 q-1 1 -5 5 q-9 8 -11 11 q65 39 66 114 q3 24 3 50 l-66 0 Z" /><glyph glyph-name="" unicode="&#x65c5;" d="M11 155 l0 18 l46 0 q-3 7 -8 22 q-3 7 -4 11 l19 5 q2 -5 7 -18 q4 -12 6 -18 l-7 -2 l36 0 l0 -18 l-55 0 l-1 -37 l48 0 q-1 -23 -2 -80 q-1 -19 -1 -28 q0 -32 -30 -32 q-10 0 -22 0 q0 1 -1 4 q0 4 -3 15 q7 -1 21 -1 q18 -1 17 18 q1 18 2 57 q1 20 1 29 l-31 0 q-1 -86 -29 -128 l-15 13 q27 34 26 122 q1 23 1 48 l-21 0 ZM235 -19 q-60 43 -66 133 q-13 -1 -27 -3 l0 -110 q3 1 10 4 q8 4 31 13 q0 -2 0 -8 q1 -7 1 -10 q-23 -8 -43 -18 q-9 -4 -14 -7 l-11 15 q8 8 7 18 l0 119 q52 5 107 17 l7 -18 q-22 -6 -51 -9 q5 -27 9 -46 q10 5 29 17 q8 4 11 6 l11 -16 q-5 -3 -15 -8 q-19 -10 -30 -16 q14 -34 49 -56 q-2 -3 -7 -9 q-6 -6 -8 -8 ZM113 123 q-6 7 -14 13 q30 33 44 75 l20 -3 q-2 -6 -8 -20 q-1 -3 -2 -4 l91 0 l0 -17 l-101 0 q-12 -23 -30 -44 Z" /><glyph glyph-name="" unicode="&#x65d7;" d="M103 124 l0 15 l22 0 l0 17 l19 0 l0 -17 l60 0 l0 17 l18 0 l0 -17 l22 0 l0 -15 l-22 0 l0 -90 l26 0 l0 -16 l-147 0 l0 16 l24 0 l0 90 l-22 0 ZM9 154 l0 16 l42 0 q-6 19 -13 37 l19 4 q1 -4 4 -12 q5 -15 8 -24 l-16 -5 l40 0 l0 -16 l-44 0 q0 -7 -1 -20 q0 -12 0 -18 l43 0 q0 -48 -2 -102 q0 -35 -30 -35 q-9 0 -19 0 q-1 9 -4 19 q8 -1 18 -1 q17 -2 17 18 q2 43 2 84 l-26 0 q0 -6 0 -10 q-1 -77 -28 -115 q-2 2 -7 6 q-5 5 -8 7 q24 31 25 101 q1 11 1 33 q1 21 1 33 l-22 0 ZM112 145 q-2 2 -7 5 q-5 4 -8 5 q23 27 35 56 l19 -4 q-6 -11 -11 -20 l107 0 l0 -17 l-117 0 q-7 -12 -18 -25 ZM144 124 l0 -21 l60 0 l0 21 l-60 0 ZM144 55 l0 -21 l60 0 l0 21 l-60 0 ZM144 89 l0 -21 l60 0 l0 21 l-60 0 ZM111 -30 q-1 1 -2 3 q-6 8 -9 11 q36 17 51 30 l12 -12 q-32 -21 -52 -32 ZM236 -29 q-24 17 -49 31 l11 12 q29 -16 49 -29 l-11 -14 Z" /><glyph glyph-name="" unicode="&#x65e0;" d="M29 174 l0 19 l199 0 l0 -19 l-92 0 q-1 -31 -5 -57 l115 0 l0 -20 l-94 0 l0 -80 q-2 -21 22 -19 l28 0 q21 -2 23 18 q2 16 2 30 q5 -2 15 -5 q4 -1 6 -2 q-1 -5 -1 -12 q-2 -14 -4 -22 q-4 -27 -38 -26 l-38 0 q-36 -1 -35 34 l0 84 l-6 0 q-15 -80 -103 -127 l-15 17 q83 42 97 110 l-95 0 l0 20 l99 0 q5 26 6 57 l-86 0 Z" /><glyph glyph-name="" unicode="&#x65e7;" d="M91 -26 l0 222 l144 0 l0 -222 l-21 0 l0 20 l-102 0 l0 -20 l-21 0 ZM112 87 l0 -75 l102 0 l0 75 l-102 0 ZM112 177 l0 -72 l102 0 l0 72 l-102 0 ZM25 -28 l0 228 l21 0 l0 -228 l-21 0 Z" /><glyph glyph-name="" unicode="&#x65e9;" d="M36 72 l0 125 l184 0 l0 -125 l-81 0 l0 -32 l109 0 l0 -19 l-109 0 l0 -51 l-22 0 l0 51 l-109 0 l0 19 l109 0 l0 32 l-81 0 ZM57 126 l0 -36 l142 0 l0 36 l-142 0 ZM57 179 l0 -36 l142 0 l0 36 l-142 0 Z" /><glyph glyph-name="" unicode="&#x65f6;" d="M16 -15 l0 204 l84 0 l0 -201 l-19 0 l0 18 l-46 0 l0 -21 l-19 0 ZM113 139 l0 19 l85 0 l0 52 l20 0 l0 -52 l31 0 l0 -19 l-31 0 l0 -130 q1 -33 -35 -34 q-17 0 -38 0 q-1 4 -3 12 q-1 6 -2 9 q10 -1 36 -1 q23 -1 22 20 l0 124 l-85 0 ZM35 89 l0 -65 l46 0 l0 65 l-46 0 ZM35 171 l0 -65 l46 0 l0 65 l-46 0 ZM150 48 q-8 17 -24 45 q-4 7 -6 11 l16 9 q6 -9 16 -27 q11 -18 16 -27 l-18 -11 Z" /><glyph glyph-name="" unicode="&#x660e;" d="M101 -30 q-9 9 -18 15 q28 25 36 50 q9 24 9 75 l0 89 l107 0 l0 -194 q2 -31 -32 -31 q-16 -1 -35 -1 q0 1 0 3 q-1 6 -4 18 q15 -1 32 -1 q19 -1 19 16 l0 43 l-70 0 q-6 -44 -44 -82 ZM20 -1 l0 193 l79 0 l0 -174 l-60 0 l0 -19 l-19 0 ZM148 108 q0 -21 -1 -39 l68 0 l0 47 l-67 0 l0 -8 ZM148 180 l0 -46 l67 0 l0 46 l-67 0 ZM39 36 l41 0 l0 61 l-41 0 l0 -61 ZM39 174 l0 -60 l41 0 l0 60 l-41 0 Z" /><glyph glyph-name="" unicode="&#x6613;" d="M39 105 l0 94 l182 0 l0 -94 l-146 0 l17 -4 q-7 -11 -15 -20 l156 0 q0 -33 -3 -60 q-1 -48 -46 -46 q-13 0 -31 0 q-1 5 -3 12 q-1 5 -2 8 q14 -1 31 -1 q32 -3 32 29 q2 24 2 42 l-35 0 q-14 -61 -82 -95 q-7 8 -15 14 q65 29 77 81 l-37 0 q-25 -56 -100 -83 q-1 2 -4 5 q-2 3 -9 11 q69 23 93 67 l-40 0 q-16 -18 -41 -33 q-1 1 -2 3 q-6 8 -10 12 q38 22 63 58 l-32 0 ZM59 145 l0 -24 l142 0 l0 24 l-142 0 ZM59 183 l0 -23 l142 0 l0 23 l-142 0 Z" /><glyph glyph-name="" unicode="&#x661f;" d="M36 106 l0 93 l188 0 l0 -93 l-188 0 ZM23 25 q-5 5 -15 13 q29 25 44 60 l19 -3 q-3 -9 -8 -16 l61 0 l0 21 l20 0 l0 -21 l92 0 l0 -16 l-92 0 l0 -26 l85 0 l0 -15 l-85 0 l0 -25 l103 0 l0 -16 l-234 0 l0 16 l111 0 l0 25 l-79 0 l0 15 l79 0 l0 26 l-70 0 q-12 -19 -31 -38 ZM57 145 l0 -23 l147 0 l0 23 l-147 0 ZM57 183 l0 -23 l147 0 l0 23 l-147 0 Z" /><glyph glyph-name="" unicode="&#x6625;" d="M239 36 q-21 9 -36 19 l0 -83 l-20 0 l0 12 l-111 0 l0 -13 l-19 0 l0 84 q-16 -12 -35 -22 q-1 3 -5 9 q-4 6 -6 8 q43 22 68 49 l-63 0 l0 16 l75 0 q4 4 9 14 q2 4 3 6 l-69 0 l0 16 l75 0 q5 9 6 20 l-90 0 l0 16 l93 0 q3 11 4 23 l20 0 q-1 -12 -3 -23 l99 0 l0 -16 l-102 0 q-3 -11 -6 -20 l99 0 l0 -16 l-105 0 q-4 -11 -10 -20 l134 0 l0 -16 l-66 0 q21 -26 71 -45 q-6 -10 -10 -18 ZM72 21 l0 -22 l111 0 l0 22 l-111 0 ZM72 60 l0 -24 l111 0 l0 24 l-111 0 ZM177 75 q-6 6 -18 21 q8 -10 -2 3 l-58 0 q-9 -12 -21 -24 l99 0 Z" /><glyph glyph-name="" unicode="&#x662f;" d="M42 108 l0 91 l171 0 l0 -91 l-171 0 ZM10 69 l0 17 l237 0 l0 -17 l-105 0 l0 -27 l87 0 l0 -16 l-87 0 l0 -28 l1 0 q52 0 106 0 q-3 -9 -5 -18 q-70 0 -102 1 q-59 0 -82 36 q-11 -24 -41 -47 q-9 9 -13 14 q41 26 47 77 l19 -3 q-1 -4 -2 -10 q-2 -8 -3 -12 q18 -34 55 -36 l0 69 l-112 0 ZM62 146 l0 -23 l131 0 l0 23 l-131 0 ZM62 183 l0 -22 l131 0 l0 22 l-131 0 Z" /><glyph glyph-name="" unicode="&#x663e;" d="M35 96 l0 104 l185 0 l0 -104 l-185 0 ZM9 -20 l0 18 l80 0 l0 87 l20 0 l0 -87 l37 0 l0 87 l20 0 l0 -87 l81 0 l0 -18 l-238 0 ZM55 141 l0 -28 l145 0 l0 28 l-145 0 ZM55 183 l0 -27 l145 0 l0 27 l-145 0 ZM199 16 l-16 11 q4 6 13 19 q15 22 23 33 l17 -10 q-19 -28 -37 -53 ZM56 16 q-8 15 -28 42 q-5 8 -8 12 l16 9 q11 -13 32 -44 q4 -5 6 -8 l-18 -11 Z" /><glyph glyph-name="" unicode="&#x665a;" d="M103 59 l0 74 q-4 5 -9 9 q34 32 49 68 l20 -3 q-6 -10 -11 -21 l62 0 l0 -17 l-25 -33 l47 0 l0 -77 l-66 0 q-12 -53 -78 -89 q-9 12 -13 17 q61 30 73 72 l-49 0 ZM16 -10 l0 199 l67 0 l0 -184 l-49 0 l0 -15 l-18 0 ZM195 -24 q-28 -1 -27 25 l0 50 l18 0 l0 -47 q-1 -11 13 -11 l16 0 q14 -1 16 12 q1 4 2 15 q1 7 1 10 q7 -3 16 -6 q0 -1 0 -2 q-2 -17 -4 -23 q-4 -24 -28 -23 l-23 0 ZM34 23 l33 0 l0 66 l-33 0 l0 -66 ZM34 172 l0 -65 l33 0 l0 65 l-33 0 ZM175 78 q-1 -1 -1 -2 l44 0 l0 44 l-39 0 q-2 -27 -4 -42 ZM141 169 q-12 -18 -26 -33 l53 0 l25 33 l-52 0 ZM157 80 q4 16 4 40 l-40 0 l0 -44 l35 0 l1 4 Z" /><glyph glyph-name="" unicode="&#x6668;" d="M40 127 l0 73 l180 0 l0 -73 l-180 0 ZM77 -28 l-9 14 q8 6 8 18 l0 29 l-28 0 q-2 -33 -25 -63 q-2 2 -8 6 q-5 5 -8 7 q25 25 23 90 l0 37 l209 0 l0 -14 l-190 0 l0 -23 q0 -14 0 -26 l192 0 l0 -14 l-99 0 q14 -16 27 -23 q21 10 39 22 l11 -11 q-1 -1 -3 -2 q-19 -11 -31 -16 q20 -7 63 -13 q-6 -8 -9 -16 q-87 11 -117 59 l-28 0 l0 -39 q17 3 48 8 q0 -6 0 -15 q-8 -1 -30 -6 q-11 -3 -16 -4 q-16 -3 -19 -5 ZM60 157 l0 -17 l141 0 l0 17 l-141 0 ZM60 186 l0 -17 l141 0 l0 17 l-141 0 ZM63 65 l0 13 l159 0 l0 -13 l-159 0 Z" /><glyph glyph-name="" unicode="&#x666f;" d="M32 127 l0 73 l192 0 l0 -73 l-89 0 l7 -19 l106 0 l0 -15 l-240 0 l0 15 l112 0 q-1 3 -3 10 q-2 5 -3 7 l12 2 l-94 0 ZM39 28 l0 48 l179 0 l0 -48 l-76 0 l0 -28 q0 -25 -27 -26 q-10 0 -27 0 q0 1 -1 4 q0 4 -3 15 q11 -1 23 -1 q17 0 16 11 l0 25 l-84 0 ZM58 63 l0 -21 l140 0 l0 21 l-140 0 ZM51 158 l0 -18 l153 0 l0 18 l-153 0 ZM51 186 l0 -17 l153 0 l0 17 l-153 0 ZM17 -26 q-1 1 -2 4 q-2 4 -8 12 q42 14 76 31 l11 -15 q-10 -4 -27 -11 q-31 -14 -50 -21 ZM238 -23 q-44 19 -75 28 l9 14 q16 -5 43 -15 q21 -6 33 -10 l-10 -17 Z" /><glyph glyph-name="" unicode="&#x6670;" d="M16 -18 l0 209 l60 0 l0 -207 l-17 0 l0 17 l-26 0 l0 -19 l-17 0 ZM210 -26 l0 134 l-28 0 q0 -54 -6 -81 q-5 -27 -23 -54 q-2 2 -6 7 q-5 5 -8 8 q16 23 21 48 q5 24 5 75 l0 78 q38 3 72 10 l8 -17 q-20 -5 -63 -9 l0 -48 l66 0 l0 -17 l-21 0 l0 -134 l-17 0 ZM88 143 l0 17 l24 0 l0 48 l17 0 l0 -48 l23 0 l0 -17 l-23 0 l0 -34 l4 4 q1 -1 2 -2 q15 -13 25 -23 l-10 -15 q-4 4 -11 12 q-7 7 -10 10 l0 -124 l-17 0 l0 129 q-10 -37 -25 -63 q-4 9 -10 20 q23 35 35 85 l0 1 l-24 0 ZM33 88 l0 -70 l26 0 l0 70 l-26 0 ZM33 174 l0 -69 l26 0 l0 69 l-26 0 Z" /><glyph glyph-name="" unicode="&#x6676;" d="M40 105 l0 93 l173 0 l0 -93 l-173 0 ZM142 -28 l0 113 l96 0 l0 -113 l-19 0 l0 12 l-59 0 l0 -12 l-18 0 ZM18 -28 l0 113 l95 0 l0 -113 l-18 0 l0 12 l-59 0 l0 -12 l-18 0 ZM61 144 l0 -23 l132 0 l0 23 l-132 0 ZM61 182 l0 -23 l132 0 l0 23 l-132 0 ZM160 69 l0 -28 l59 0 l0 28 l-59 0 ZM160 26 l0 -26 l59 0 l0 26 l-59 0 ZM36 26 l0 -26 l59 0 l0 26 l-59 0 ZM36 69 l0 -28 l59 0 l0 28 l-59 0 Z" /><glyph glyph-name="" unicode="&#x667a;" d="M43 -29 l0 109 l171 0 l0 -109 l-20 0 l0 11 l-131 0 l0 -11 l-20 0 ZM144 99 l0 93 l91 0 l0 -93 l-91 0 ZM22 152 q-1 1 -4 4 q-2 3 -9 9 q24 20 33 47 l18 -2 q-4 -10 -10 -21 l75 0 l0 -15 l-37 0 q0 -12 -2 -27 l46 0 l0 -16 l-51 0 q9 -5 25 -16 q17 -10 25 -16 l-11 -15 q-11 9 -30 22 q-10 7 -15 11 q-11 -23 -56 -44 q-5 8 -11 16 q47 18 54 42 l-52 0 l0 16 l57 0 q2 12 2 27 l-29 0 q-7 -10 -18 -22 ZM63 63 l0 -26 l131 0 l0 26 l-131 0 ZM63 22 l0 -24 l131 0 l0 24 l-131 0 ZM163 175 l0 -59 l54 0 l0 59 l-54 0 Z" /><glyph glyph-name="" unicode="&#x6696;" d="M119 139 q-7 15 -15 28 l16 5 q1 -2 4 -7 q4 -6 10 -19 l-15 -7 ZM97 123 l0 16 l100 0 q5 9 13 26 q4 8 6 12 l17 -6 q-9 -17 -18 -32 l28 0 l0 -16 l-94 0 q0 -3 -1 -10 q-1 -6 -2 -10 l101 0 l0 -16 l-104 0 q-1 -6 -4 -16 q-1 -3 -1 -4 l93 0 l0 -17 q-15 -26 -37 -44 q22 -8 56 -16 q-5 -9 -8 -17 q-42 11 -64 24 q-25 -15 -64 -26 q-2 4 -7 13 q-1 2 -2 3 q34 9 58 19 q-19 16 -32 40 q-13 -33 -50 -71 q-6 8 -11 16 q42 42 55 96 l-33 0 l0 16 l36 0 q0 1 0 2 q2 8 2 18 l-33 0 ZM16 -7 l0 194 l65 0 l0 -178 l-48 0 l0 -16 l-17 0 ZM96 177 q-1 8 -3 17 q51 1 145 7 l3 -16 q-13 -1 -45 -3 q-67 -4 -100 -5 ZM33 26 l31 0 l0 65 l-31 0 l0 -65 ZM33 170 l0 -62 l31 0 l0 62 l-31 0 ZM211 52 l-65 0 q13 -22 32 -36 q18 13 33 36 ZM166 142 q-2 5 -6 15 q-4 9 -6 14 l17 4 q6 -14 11 -28 l-16 -5 Z" /><glyph glyph-name="" unicode="&#x6697;" d="M110 -29 l0 114 l121 0 l0 -114 l-19 0 l0 13 l-83 0 l0 -13 l-19 0 ZM18 -10 l0 198 l67 0 l0 -192 l-17 0 l0 11 l-32 0 l0 -17 l-18 0 ZM95 109 l0 16 l87 0 q4 7 12 19 q7 12 11 18 l18 -5 q-3 -6 -12 -18 q-7 -9 -10 -14 l47 0 l0 -16 l-153 0 ZM103 167 l0 16 l62 0 q-1 4 -5 12 q-3 8 -5 12 l18 4 q3 -6 8 -18 q3 -6 4 -9 l-4 -1 l58 0 l0 -16 l-136 0 ZM129 26 l0 -27 l83 0 l0 27 l-83 0 ZM129 69 l0 -28 l83 0 l0 28 l-83 0 ZM36 89 l0 -64 l32 0 l0 64 l-32 0 ZM36 170 l0 -64 l32 0 l0 64 l-32 0 ZM141 127 q-5 7 -14 21 q-4 6 -6 9 l17 5 q6 -8 20 -30 l-17 -5 Z" /><glyph glyph-name="" unicode="&#x66dd;" d="M97 127 l0 73 l133 0 l0 -73 l-27 0 l0 -18 l35 0 l0 -13 l-35 0 l0 -19 l41 0 l0 -14 l-45 0 q17 -22 51 -33 q-5 -7 -8 -15 q-22 10 -36 20 q-1 -1 -5 -3 q-4 -3 -15 -10 l-9 12 q10 5 19 12 q-8 7 -14 17 l-40 0 q-3 -5 -10 -13 q-2 -3 -3 -4 l18 -12 l-8 -12 q-3 3 -10 7 q-7 5 -11 7 q-8 -6 -29 -18 q-3 -2 -5 -3 q-3 6 -9 14 q34 16 49 34 l-41 0 l0 14 l41 0 l0 19 l-35 0 l0 13 l35 0 l0 18 l-27 0 ZM15 -13 l0 207 l59 0 l0 -197 l-16 0 l0 8 l-27 0 l0 -18 l-16 0 ZM31 92 l0 -70 l27 0 l0 70 l-27 0 ZM31 177 l0 -69 l27 0 l0 69 l-27 0 ZM114 158 l0 -18 l98 0 l0 18 l-98 0 ZM114 187 l0 -17 l98 0 l0 17 l-98 0 ZM130 -27 q-1 9 -3 16 q5 -1 16 -1 q13 0 13 12 l0 53 l16 0 l0 -53 q2 -26 -24 -26 q-5 -1 -18 -1 ZM86 -16 l-6 15 q17 4 51 17 q7 3 10 4 l5 -14 q-16 -5 -52 -19 q-6 -2 -8 -3 ZM234 -15 q-32 13 -57 21 l8 13 q9 -3 27 -10 q21 -8 29 -10 l-7 -14 ZM141 96 l0 -19 l45 0 l0 19 l-45 0 ZM141 127 l0 -18 l45 0 l0 18 l-45 0 Z" /><glyph glyph-name="" unicode="&#x66e6;" d="M16 -11 l0 202 l57 0 l0 -200 l-15 0 l0 15 l-26 0 l0 -17 l-16 0 ZM92 92 l-2 11 q7 0 25 1 q33 1 49 2 l2 -12 q-6 0 -16 -1 q-9 0 -14 0 l0 -13 l47 0 q-1 13 -1 29 l16 0 q0 -16 1 -29 l49 0 l0 -13 l-49 0 q3 -27 7 -42 q13 15 26 34 l14 -8 q-17 -25 -35 -42 q3 -8 8 -13 q4 -6 8 -6 q3 0 5 6 q3 8 5 20 q2 -1 6 -2 q5 -2 7 -3 q-1 -11 -5 -23 q-4 -15 -18 -15 q-13 -1 -24 17 q-1 2 -3 6 q-1 3 -2 4 q-11 -10 -26 -19 q-1 2 -5 6 q-3 4 -5 6 q2 1 5 3 q17 10 26 17 q-7 20 -9 54 l-48 0 l0 -14 l6 9 q17 -5 37 -12 l-5 -11 q-19 7 -38 13 l0 -11 l-15 0 l0 18 q-15 -14 -39 -25 q-2 6 -8 12 q23 8 42 21 l-32 0 l0 13 l37 0 l0 13 l-29 -1 ZM89 171 l0 13 l44 0 q-1 1 -2 3 q-10 12 -16 19 l17 5 q13 -13 20 -24 l-10 -3 l40 0 q14 20 18 27 l19 -4 q-9 -14 -17 -23 l42 0 l0 -13 l-69 0 l0 -15 l61 0 l0 -12 l-61 0 l0 -15 l72 0 l0 -13 l-164 0 l0 13 l74 0 l0 15 l-60 0 l0 12 l60 0 l0 15 l-68 0 ZM87 24 l0 12 l83 0 l0 -12 l-56 0 l-3 -12 l53 0 l-3 -19 q-2 -19 -24 -19 q-11 0 -29 0 q0 3 -2 9 q-1 3 -1 4 q14 -1 28 -1 q13 -1 13 9 l1 6 l-53 0 l5 23 l-12 0 ZM32 91 l0 -69 l26 0 l0 69 l-26 0 ZM32 175 l0 -68 l26 0 l0 68 l-26 0 ZM229 82 q-8 9 -20 20 l10 8 q14 -11 21 -18 l-11 -10 Z" /><glyph glyph-name="" unicode="&#x66f4;" d="M204 42 l0 12 l-70 0 q-3 -25 -19 -43 q37 -13 133 -15 q-6 -11 -9 -19 q-96 4 -139 22 q-22 -16 -80 -29 q-1 2 -4 6 q-4 8 -7 12 q52 10 71 18 q-21 13 -39 33 l14 11 q22 -23 42 -31 q14 13 17 35 l-81 0 l0 103 l86 0 l0 25 l-105 0 l0 17 l227 0 l0 -17 l-102 0 q0 -12 -1 -25 l85 0 l0 -115 l-19 0 ZM137 98 q0 -16 -1 -28 l68 0 l0 28 l-67 0 ZM52 141 l0 -28 l66 0 q1 13 1 28 l-67 0 ZM116 70 q2 12 2 28 l-66 0 l0 -28 l64 0 ZM204 141 l-66 0 q0 -13 0 -28 l66 0 l0 28 Z" /><glyph glyph-name="" unicode="&#x6700;" d="M7 95 l0 15 l242 0 l0 -15 l-127 0 l0 -85 q10 0 19 2 q0 -7 0 -14 q-3 -1 -10 -1 q-6 -1 -9 -1 l0 -25 l-18 0 l0 23 q-52 -5 -93 -10 l-3 16 q4 0 12 0 q7 0 11 1 l0 94 l-24 0 ZM41 127 l0 73 l174 0 l0 -73 l-174 0 ZM239 -26 q-35 13 -51 26 q-21 -16 -49 -29 q-4 7 -10 16 q32 13 46 23 q-20 21 -32 53 l2 0 l-9 0 l0 15 l96 0 l0 -16 q-15 -35 -32 -52 q15 -10 48 -20 q-3 -4 -7 -12 q-1 -3 -2 -4 ZM61 157 l0 -17 l134 0 l0 17 l-134 0 ZM61 186 l0 -17 l134 0 l0 17 l-134 0 ZM214 63 l-53 0 q9 -25 26 -41 q15 14 27 41 ZM50 2 q11 1 36 4 q12 1 18 2 l0 19 l-54 0 l0 -25 ZM50 95 l0 -21 l54 0 l0 21 l-54 0 ZM50 61 l0 -21 l54 0 l0 21 l-54 0 Z" /><glyph glyph-name="" unicode="&#x6708;" d="M30 -30 q-6 6 -18 16 q22 23 29 49 q8 26 8 77 l0 87 l166 0 l0 -187 q1 -35 -36 -37 q-20 0 -38 0 q-2 9 -5 22 q20 -1 37 -1 q22 -1 21 19 l0 35 l-128 0 q-5 -43 -36 -80 ZM69 111 q0 -24 -1 -42 l126 0 l0 46 l-125 0 l0 -4 ZM69 180 l0 -46 l125 0 l0 46 l-125 0 Z" /><glyph glyph-name="" unicode="&#x6709;" d="M14 161 l0 18 l77 0 q8 15 14 32 l22 -3 q-3 -7 -9 -19 q-3 -7 -4 -10 l132 0 l0 -18 l-142 0 q-3 -5 -9 -14 q-6 -10 -9 -15 l133 0 l0 -127 q1 -30 -32 -30 q-23 0 -38 0 q0 3 -2 9 q-1 7 -2 10 q4 0 14 0 q13 -1 20 -1 q21 -1 19 16 l0 16 l-123 0 l0 -54 l-20 0 l0 123 q-18 -19 -39 -37 l-10 19 q49 40 74 85 l-66 0 ZM75 70 l0 -28 l123 0 l0 28 l-123 0 ZM75 115 l0 -28 l123 0 l0 28 l-123 0 Z" /><glyph glyph-name="" unicode="&#x670b;" d="M135 -29 q-1 1 -3 2 q-5 4 -14 11 q26 28 24 96 l0 119 l93 0 l0 -196 q1 -28 -27 -28 q-4 0 -13 0 q-9 -1 -15 -1 q0 4 -2 13 q-1 5 -1 7 q4 0 12 0 q8 -1 13 -1 q15 -1 14 13 l0 51 l-55 0 q-2 -52 -26 -86 ZM23 -29 q-8 8 -16 14 q23 33 21 100 l0 114 l86 0 l0 -195 q1 -26 -26 -27 q-13 0 -26 0 q0 3 -1 9 q-1 7 -2 10 q6 -1 22 -1 q15 -1 14 13 l0 49 l-48 0 q-2 -49 -24 -86 ZM162 79 l0 -5 l54 0 l0 45 l-54 0 l0 -40 ZM162 181 l0 -45 l54 0 l0 45 l-54 0 ZM47 181 l0 -45 l48 0 l0 45 l-48 0 ZM47 77 l0 -3 l48 0 l0 45 l-48 0 l0 -42 Z" /><glyph glyph-name="" unicode="&#x670d;" d="M239 -26 q-31 16 -50 32 q-16 -14 -42 -32 q-6 8 -12 16 l0 -19 l-19 0 l0 225 l117 0 q0 -7 -1 -18 q0 -12 -1 -19 q-1 -32 -35 -30 q-15 -1 -33 -1 q0 7 -3 17 q15 0 29 0 q24 -2 23 16 q2 12 2 18 l-79 0 l0 -71 l100 0 l0 -18 q-13 -44 -34 -70 q18 -15 49 -29 q-6 -9 -11 -17 ZM21 -28 q-10 10 -14 13 q17 24 16 91 l0 122 l71 0 l0 -198 q1 -23 -23 -24 q-11 -1 -23 -1 q0 8 -2 18 q8 0 18 0 q12 -1 12 10 l0 52 l-35 0 q0 -54 -20 -83 ZM135 -9 q25 14 41 29 q-19 27 -31 69 l7 2 l-17 0 l0 -100 ZM217 91 l-55 0 q12 -38 27 -56 q15 19 28 56 ZM41 73 l0 -2 l35 0 l0 47 l-35 0 l0 -45 ZM41 181 l0 -46 l35 0 l0 46 l-35 0 Z" /><glyph glyph-name="" unicode="&#x671d;" d="M129 -29 q-2 2 -9 6 q-5 3 -8 5 q22 22 28 44 q6 21 6 70 l0 102 l90 0 l0 -195 q1 -26 -25 -28 q-15 0 -29 0 l-4 19 q10 0 22 0 q19 -2 17 14 l0 43 l-54 0 q-2 -46 -34 -80 ZM10 171 l0 17 l50 0 l0 23 l19 0 l0 -23 l49 0 l0 -17 l-49 0 l0 -24 l42 0 l0 -95 l-42 0 l0 -25 l49 0 l0 -17 l-49 0 l0 -39 l-19 0 l0 39 l-52 0 l0 17 l52 0 l0 25 l-42 0 l0 95 l42 0 l0 24 l-50 0 ZM165 95 q0 -5 -1 -14 q0 -8 0 -12 l53 0 l0 46 l-52 0 l0 -20 ZM165 179 l0 -46 l52 0 l0 46 l-52 0 ZM36 93 l0 -25 l67 0 l0 25 l-67 0 ZM36 131 l0 -24 l67 0 l0 24 l-67 0 Z" /><glyph glyph-name="" unicode="&#x671f;" d="M137 -30 q-2 1 -5 4 q-3 2 -11 9 q18 23 24 47 q6 25 6 74 l0 97 l86 0 l0 -201 q0 -25 -25 -25 q-7 -1 -27 -1 q-2 10 -5 19 q13 0 25 0 q14 0 13 11 l0 50 l-50 0 q-4 -49 -31 -84 ZM10 162 l0 17 l18 0 l0 28 l19 0 l0 -28 l51 0 l0 29 l19 0 l0 -29 l18 0 l0 -17 l-18 0 l0 -115 l20 0 l0 -17 l-130 0 l0 17 l21 0 l0 115 l-18 0 ZM170 182 l0 -47 l48 0 l0 47 l-48 0 ZM170 104 q0 -6 -1 -18 q0 -10 0 -15 l49 0 l0 47 l-48 0 l0 -14 ZM47 75 l0 -28 l51 0 l0 28 l-51 0 ZM47 119 l0 -28 l51 0 l0 28 l-51 0 ZM47 162 l0 -28 l51 0 l0 28 l-51 0 ZM21 -28 q-8 8 -14 14 q24 20 40 40 l15 -12 q-3 -4 -11 -11 q-21 -23 -30 -31 ZM109 -16 q-9 10 -30 30 l14 12 q7 -6 22 -21 q6 -6 8 -8 l-14 -13 Z" /><glyph glyph-name="" unicode="&#x672c;" d="M17 149 l0 19 l101 0 l0 42 l20 0 l0 -42 l101 0 l0 -19 l-89 0 q33 -72 99 -112 q-9 -13 -12 -20 q-70 49 -99 121 l0 -103 l54 0 l0 -18 l-54 0 l0 -46 l-20 0 l0 46 l-56 0 l0 18 l56 0 l0 102 q-32 -77 -99 -124 q-5 11 -12 19 q67 45 98 117 l-88 0 Z" /><glyph glyph-name="" unicode="&#x672f;" d="M13 132 l0 19 l105 0 l0 59 l20 0 l0 -59 l106 0 l0 -19 l-95 0 q31 -69 100 -110 q-3 -5 -9 -15 q-2 -3 -3 -5 q-70 46 -99 116 l0 -147 l-20 0 l0 145 q-32 -75 -99 -116 q-1 2 -6 8 q-4 7 -6 9 q70 43 99 115 l-93 0 ZM204 155 q-9 9 -36 32 q-4 3 -5 4 l13 12 q16 -12 42 -34 l-14 -14 Z" /><glyph glyph-name="" unicode="&#x673a;" d="M92 -29 q-2 2 -6 6 q-7 7 -11 9 q26 25 33 48 q7 22 7 76 l0 85 l89 0 l0 -187 q0 -11 9 -10 l4 0 q11 -1 13 12 q1 13 3 42 q3 -1 9 -2 q5 -2 8 -3 q-1 -13 -3 -33 q-1 -8 -1 -11 q-4 -24 -27 -23 l-11 0 q-23 -1 -23 25 l0 171 l-50 0 l0 -67 q0 -55 -9 -82 q-8 -27 -34 -56 ZM11 144 l0 18 l33 0 l0 48 l19 0 l0 -48 l32 0 l0 -18 l-32 0 l0 -36 l7 7 q5 -5 17 -16 q11 -11 15 -15 l-13 -14 q-8 10 -26 28 l0 -126 l-19 0 l0 131 q-13 -41 -32 -69 q-3 13 -7 24 q26 35 39 86 l-33 0 Z" /><glyph glyph-name="" unicode="&#x6743;" d="M237 -26 q-44 26 -69 54 q-27 -28 -77 -57 q-9 12 -14 18 q49 24 78 56 q-33 45 -45 127 l4 1 l-15 0 l0 19 l134 0 l0 -19 q-18 -85 -52 -129 q28 -29 69 -51 q-10 -15 -13 -19 ZM12 142 l0 19 l34 0 l0 49 l19 0 l0 -49 l33 0 l0 -19 l-33 0 l0 -41 l9 8 q15 -14 32 -33 l-13 -13 q-5 5 -17 18 q-7 9 -11 13 l0 -122 l-19 0 l0 131 q-11 -39 -34 -70 q-2 10 -6 26 q25 29 40 83 l-34 0 ZM212 173 l-83 0 q10 -73 39 -113 q31 41 44 113 Z" /><glyph glyph-name="" unicode="&#x6750;" d="M118 142 l0 19 l78 0 l0 49 l20 0 l0 -49 l33 0 l0 -19 l-33 0 l0 -133 q1 -33 -34 -33 q-10 -1 -36 -1 q0 1 0 2 q-2 13 -4 19 q4 0 14 0 q13 -1 19 -1 q22 -1 21 19 l0 119 q-30 -76 -94 -127 q-9 9 -16 16 q66 49 96 120 l-64 0 ZM11 142 l0 19 l38 0 l0 49 l19 0 l0 -49 l36 0 l0 -19 l-36 0 l0 -35 l9 8 q1 -1 3 -3 q27 -22 35 -30 l-14 -14 q-5 4 -16 15 q-12 11 -17 16 l0 -128 l-19 0 l0 129 q-14 -37 -35 -69 q-4 14 -7 26 q26 36 41 85 l-37 0 Z" /><glyph glyph-name="" unicode="&#x6761;" d="M240 87 q-76 11 -109 26 q-38 -18 -116 -31 q-1 5 -9 18 q66 10 103 23 q-22 14 -41 33 q-16 -15 -34 -30 q-2 2 -5 5 q-7 7 -10 10 q42 30 69 69 l21 -3 q-3 -5 -10 -14 q-3 -5 -5 -7 l121 0 l0 -18 q-33 -28 -62 -45 q31 -10 95 -18 q-3 -5 -7 -14 q-1 -3 -1 -4 ZM21 53 l0 18 l100 0 l0 23 l20 0 l0 -23 l94 0 l0 -18 l-94 0 l0 -47 q2 -30 -31 -31 q-13 0 -29 0 q-1 2 -1 6 q-2 9 -4 13 q12 0 26 0 q20 -1 19 16 l0 43 l-100 0 ZM188 169 l-108 0 q21 -22 51 -37 q28 14 57 37 ZM24 -16 q-2 2 -6 8 q-5 5 -7 8 q36 18 68 43 l14 -14 q-17 -13 -52 -34 q-11 -7 -17 -11 ZM232 -14 q-22 14 -70 42 l13 14 q18 -10 50 -30 q14 -8 20 -12 l-13 -14 Z" /><glyph glyph-name="" unicode="&#x6765;" d="M24 159 l0 18 l94 0 l0 33 l20 0 l0 -33 l95 0 l0 -18 l-95 0 l0 -66 l108 0 l0 -18 l-99 0 q38 -43 102 -67 q-2 -3 -6 -9 q-4 -6 -6 -9 q-68 28 -99 71 l0 -90 l-20 0 l0 90 q-35 -44 -100 -75 q-4 8 -12 17 q60 27 102 72 l-98 0 l0 18 l108 0 l0 66 l-94 0 ZM178 99 l-14 13 q19 19 35 38 l15 -12 q-3 -4 -10 -11 q-16 -18 -26 -28 ZM73 101 q-15 21 -31 38 l15 11 q17 -16 33 -36 l-17 -13 Z" /><glyph glyph-name="" unicode="&#x677e;" d="M10 143 l0 18 l34 0 l0 48 l19 0 l0 -48 l31 0 l0 -18 l-31 0 l0 -38 l6 6 q7 -7 22 -22 q7 -7 11 -11 l-13 -13 q-14 14 -26 28 l0 -122 l-19 0 l0 132 q-13 -39 -32 -68 q0 1 -1 4 q-2 9 -6 21 q23 32 38 83 l-33 0 ZM225 -28 q-4 9 -9 18 q-53 -2 -87 -4 q-13 -2 -25 -3 l-8 17 q9 5 15 16 q23 40 45 99 l22 -7 q-26 -57 -53 -105 q17 0 53 2 q19 1 29 1 l-25 48 l17 8 q17 -30 44 -80 l-18 -10 ZM236 92 q-41 47 -59 110 l19 5 q18 -60 54 -98 q-1 -2 -5 -6 q-6 -7 -9 -11 ZM108 92 q-7 8 -16 14 q32 45 45 97 l19 -5 q-16 -58 -48 -106 Z" /><glyph glyph-name="" unicode="&#x6781;" d="M125 -29 q-2 2 -5 7 q-6 8 -8 10 q36 19 58 41 q-26 32 -39 75 q-3 -79 -48 -129 q-8 11 -14 15 q26 30 35 63 q10 33 10 99 l0 26 l-20 0 l0 18 l123 0 l0 -21 l-24 -48 l42 0 l0 -20 q-15 -47 -39 -78 q21 -21 53 -36 q-4 -5 -10 -15 q-1 -3 -2 -4 q-38 25 -54 40 q-23 -22 -58 -43 ZM11 142 l0 18 l30 0 l0 48 l19 0 l0 -48 l28 0 l0 -18 l-28 0 l0 -29 l2 2 q18 -14 5 -4 q13 -10 29 -25 l-11 -16 q-13 13 -25 25 l0 -124 l-19 0 l0 132 q-8 -33 -29 -70 q-5 13 -8 24 q23 37 36 85 l-29 0 ZM133 152 l0 -6 q19 -68 50 -102 q21 27 32 65 l-42 0 l0 20 l24 49 l-64 0 l0 -26 Z" /><glyph glyph-name="" unicode="&#x6784;" d="M147 -24 q0 9 -4 21 q14 -1 44 -1 q30 -2 29 27 q3 52 4 130 l-93 0 q-10 -20 -24 -38 q-8 6 -16 11 q28 40 44 83 l20 -4 q-7 -16 -15 -33 l104 0 q-2 -95 -4 -153 q0 -43 -45 -42 q-16 -1 -44 -1 ZM9 140 l0 17 l32 0 l0 51 l19 0 l0 -51 l30 0 l0 -17 l-30 0 l0 -30 l4 4 q23 -18 36 -30 l-13 -14 q-4 3 -13 12 q-10 9 -14 13 l0 -124 l-19 0 l0 128 q-9 -34 -29 -65 q-1 6 -4 17 q-2 7 -2 10 q24 37 35 79 l-32 0 ZM101 28 l-8 18 q8 6 14 15 q16 24 36 72 l19 -6 q-23 -48 -41 -78 q26 2 56 3 q-2 4 -5 11 q-5 10 -15 28 l16 7 q2 -3 5 -9 q19 -37 29 -58 l-17 -8 q-3 6 -5 12 q-36 -1 -62 -4 q-12 0 -22 -3 Z" /><glyph glyph-name="" unicode="&#x679c;" d="M34 92 l0 105 l187 0 l0 -105 l-83 0 l0 -25 l108 0 l0 -18 l-93 0 q34 -35 96 -49 q-3 -4 -9 -13 q-1 -3 -2 -4 q-66 18 -100 59 l0 -71 l-20 0 l0 72 q-31 -38 -101 -65 q-1 1 -2 4 q-6 9 -9 14 q62 18 96 53 l-92 0 l0 18 l108 0 l0 25 l-84 0 ZM54 137 l0 -28 l64 0 l0 28 l-64 0 ZM138 137 l0 -28 l64 0 l0 28 l-64 0 ZM202 180 l-64 0 l0 -27 l64 0 l0 27 ZM54 180 l0 -27 l64 0 l0 27 l-64 0 Z" /><glyph glyph-name="" unicode="&#x67b6;" d="M10 49 l0 17 l108 0 l0 25 l19 0 l0 -25 l109 0 l0 -17 l-93 0 q34 -35 95 -50 q-3 -5 -9 -14 q-1 -3 -2 -4 q-66 21 -100 62 l0 -72 l-19 0 l0 72 q-33 -40 -100 -65 q-3 9 -11 19 q61 17 95 52 l-92 0 ZM144 101 l0 89 l89 0 l0 -89 l-89 0 ZM21 82 q-6 8 -14 14 q38 25 39 70 l-32 0 l0 18 l34 0 q0 11 0 27 l19 0 l-1 -27 l54 0 q0 -19 -2 -52 q0 -5 0 -8 q0 -31 -30 -31 q-3 0 -11 0 q-9 -1 -12 -1 q-2 6 -3 15 q-1 2 -1 3 q12 0 22 0 q17 -1 17 16 q1 15 1 40 l-36 0 q-2 -55 -44 -84 ZM162 173 l0 -55 l52 0 l0 55 l-52 0 Z" /><glyph glyph-name="" unicode="&#x67d0;" d="M138 85 l0 -26 l108 0 l0 -18 l-96 0 q42 -33 99 -44 q-1 -2 -3 -6 q-2 -4 -8 -13 q-67 21 -100 55 l0 -63 l-20 0 l0 63 q-34 -33 -101 -57 q-1 1 -2 4 q-6 9 -9 14 q60 15 99 47 l-95 0 l0 18 l108 0 l0 26 l-65 0 l0 83 l-45 0 l0 18 l45 0 l0 24 l20 0 l0 -24 l110 0 l0 24 l19 0 l0 -24 l45 0 l0 -18 l-45 0 l0 -83 l-64 0 ZM73 127 l0 -26 l110 0 l0 26 l-110 0 ZM73 168 l0 -25 l110 0 l0 25 l-110 0 Z" /><glyph glyph-name="" unicode="&#x67d4;" d="M215 85 l-18 7 l20 36 l-58 0 l0 -19 q2 -30 -30 -30 q-8 -1 -30 -1 q-1 9 -4 17 q6 -1 25 -1 q22 -1 20 17 l0 17 l-6 0 q-42 -34 -108 -54 q-4 9 -10 18 q56 13 92 36 l-93 0 l0 16 l115 0 q-11 4 -35 13 q-19 7 -27 10 l11 12 q27 -10 51 -20 l59 24 l-155 0 l0 16 l187 0 l0 -17 l-72 -30 l6 -3 l-6 -5 l88 0 l0 -18 l-22 -41 ZM11 42 l0 17 l107 0 l0 14 l19 0 l0 -14 l108 0 l0 -17 l-94 0 q36 -33 98 -44 q-5 -6 -11 -18 q-71 20 -101 55 l0 -64 l-19 0 l0 63 q-32 -32 -100 -57 q-5 9 -11 18 q60 15 97 47 l-93 0 Z" /><glyph glyph-name="" unicode="&#x67e5;" d="M118 122 l0 38 q-30 -28 -74 -46 l170 0 l0 -96 l-172 0 l0 95 q-5 -2 -15 -6 q-7 -3 -11 -5 q-4 9 -9 18 q58 18 99 49 l-92 0 l0 16 l104 0 l0 25 l19 0 l0 -25 l105 0 l0 -16 l-92 0 q39 -31 98 -46 q-5 -9 -8 -18 q-70 22 -103 56 l0 -39 l-19 0 ZM9 -20 l0 17 l238 0 l0 -17 l-238 0 ZM62 59 l0 -25 l132 0 l0 25 l-132 0 ZM62 98 l0 -25 l132 0 l0 25 l-132 0 Z" /><glyph glyph-name="" unicode="&#x6807;" d="M10 142 l0 18 l32 0 l0 50 l19 0 l0 -50 l29 0 l0 -18 l-29 0 l0 -40 l8 7 q15 -13 30 -30 l-13 -13 q-13 15 -25 28 l0 -123 l-19 0 l0 128 q-10 -35 -30 -64 q-1 2 -2 7 q-3 12 -5 17 q25 36 37 83 l-32 0 ZM95 105 l0 18 l152 0 l0 -18 l-67 0 l0 -103 q1 -27 -29 -28 q-15 0 -29 0 q0 3 -1 10 q-2 7 -2 10 q9 -1 25 -1 q18 -1 17 15 l0 97 l-66 0 ZM106 174 l0 18 l130 0 l0 -18 l-130 0 ZM99 -2 q-8 3 -18 7 q24 42 38 76 l18 -7 q-10 -24 -32 -66 q-4 -7 -6 -10 ZM232 -1 q-4 9 -3 6 q-19 42 -31 68 l17 8 q10 -19 27 -55 q6 -14 9 -21 l-19 -6 Z" /><glyph glyph-name="" unicode="&#x6837;" d="M101 145 l0 18 l75 0 q17 24 30 47 l19 -7 q-14 -20 -29 -40 l44 0 l0 -18 l-62 0 l0 -39 l55 0 l0 -18 l-55 0 l0 -40 l70 0 l0 -18 l-70 0 l0 -59 l-19 0 l0 59 l-70 0 l0 18 l70 0 l0 40 l-52 0 l0 18 l52 0 l0 39 l-58 0 ZM10 142 l0 18 l33 0 l0 49 l19 0 l0 -49 l27 0 l0 -18 l-27 0 l0 -38 l7 7 q21 -19 31 -30 l-13 -14 q-13 17 -25 28 l0 -124 l-19 0 l0 130 q-9 -32 -31 -66 q-3 13 -8 24 q24 31 38 83 l-32 0 ZM140 166 q-12 20 -26 37 l17 7 q6 -7 18 -24 q5 -7 8 -10 l-17 -10 Z" /><glyph glyph-name="" unicode="&#x6839;" d="M238 -25 q-73 31 -90 105 l-22 0 l0 -80 q8 2 22 9 q15 6 22 9 q0 -12 1 -18 q-22 -8 -45 -20 q-9 -4 -15 -8 l-12 15 q9 8 8 19 l0 193 l123 0 l0 -119 l-63 0 q8 -27 18 -41 q25 15 46 30 l12 -14 q-21 -14 -48 -29 q20 -20 54 -33 q-5 -7 -11 -18 ZM10 143 l0 18 l32 0 l0 48 l19 0 l0 -48 l31 0 l0 -18 l-31 0 l0 -31 l2 2 q14 -11 35 -30 l-13 -15 q-12 13 -24 25 l0 -123 l-19 0 l0 131 q-11 -35 -31 -67 q-2 6 -5 20 q0 -3 -2 5 q24 33 37 83 l-31 0 ZM126 97 l85 0 l0 34 l-85 0 l0 -34 ZM126 182 l0 -34 l85 0 l0 34 l-85 0 Z" /><glyph glyph-name="" unicode="&#x683c;" d="M11 144 l0 18 l31 0 l0 48 l19 0 l0 -48 l28 0 l0 -18 l-28 0 l0 -27 l3 4 q4 -4 14 -12 q13 -11 19 -17 l-6 -6 q40 12 63 26 q-17 15 -29 37 q-11 -14 -25 -28 q-4 7 -12 14 q33 32 51 75 l20 -3 q-5 -12 -11 -22 l87 0 l0 -18 q-21 -36 -48 -56 q26 -15 63 -22 q-1 -3 -3 -10 q-3 -7 -4 -10 q-44 13 -73 31 q-31 -19 -77 -33 q0 1 -1 3 q-2 4 -6 10 l-2 -3 q-8 9 -23 24 l0 -130 l-19 0 l0 133 q-11 -38 -30 -70 q-3 7 -6 21 q-1 3 -1 4 q23 37 36 85 l-30 0 ZM107 -29 l0 93 l124 0 l0 -93 l-20 0 l0 14 l-85 0 l0 -14 l-19 0 ZM126 47 l0 -47 l85 0 l0 47 l-85 0 ZM212 168 l-75 0 l-1 -3 q12 -24 34 -43 q25 18 42 46 Z" /><glyph glyph-name="" unicode="&#x6846;" d="M99 -20 l0 217 l145 0 l0 -18 l-126 0 l0 -181 l129 0 l0 -18 l-148 0 ZM12 145 l0 18 l30 0 l0 47 l18 0 l0 -47 l27 0 l0 -18 l-27 0 l0 -31 l3 3 q13 -10 31 -29 l-13 -15 q-2 3 -7 8 q-8 10 -14 16 l0 -127 l-18 0 l0 131 q-14 -43 -30 -67 q0 1 -1 4 q-2 9 -6 21 q26 37 36 86 l-29 0 ZM134 133 l0 17 l104 0 l0 -17 l-42 0 l0 -35 l37 0 l0 -17 l-37 0 l0 -37 l47 0 l0 -17 l-113 0 l0 17 l47 0 l0 37 l-37 0 l0 17 l37 0 l0 35 l-43 0 Z" /><glyph glyph-name="" unicode="&#x6863;" d="M91 -15 l0 15 l129 0 l0 44 l-118 0 l0 17 l118 0 l0 42 l-122 0 l0 18 l60 0 l0 88 l20 0 l0 -88 l61 0 l0 -150 l-19 0 l0 14 l-129 0 ZM11 142 l0 18 l33 0 l0 49 l18 0 l0 -49 l31 0 l0 -18 l-31 0 l0 -37 l4 4 q15 -10 36 -28 l-12 -16 q-13 13 -28 25 l0 -119 l-18 0 l0 131 q-12 -39 -32 -68 q-4 16 -7 25 q24 34 37 83 l-31 0 ZM211 138 l-16 11 q19 23 34 46 l17 -9 q-17 -24 -35 -48 ZM123 139 q-15 25 -31 47 l16 9 q17 -22 32 -46 l-17 -10 Z" /><glyph glyph-name="" unicode="&#x68a6;" d="M109 17 q-7 5 -20 15 q-15 12 -23 18 q-9 -8 -29 -21 q-3 -2 -4 -3 q-2 2 -6 7 q-5 5 -8 8 q51 30 74 64 l19 -5 q-2 -2 -6 -8 q-4 -5 -6 -8 l112 0 l0 -17 q-46 -75 -185 -98 q-4 10 -10 19 q125 16 171 80 l-103 0 l-6 -7 q21 -14 45 -32 l-15 -12 ZM134 164 l0 16 l37 0 l0 30 l18 0 l0 -30 l52 0 l0 -16 l-49 0 q20 -29 57 -45 q-1 -2 -3 -5 q-2 -2 -7 -12 q-33 18 -50 43 l0 -43 l-18 0 l0 43 q-15 -25 -45 -44 q-5 8 -11 15 q35 18 54 48 l-35 0 ZM16 164 l0 16 l48 0 l0 30 l18 0 l0 -30 l38 0 l0 -16 l-38 0 l0 -23 l7 10 q19 -10 35 -19 l-10 -14 q-20 12 -32 18 l0 -34 l-18 0 l0 42 q-16 -26 -47 -46 q-5 9 -11 17 q36 18 56 49 l-46 0 Z" /><glyph glyph-name="" unicode="&#x6982;" d="M158 177 l0 17 l84 0 l0 -17 l-27 0 q0 -27 -6 -74 q0 0 0 -1 l35 0 l0 -16 l-38 0 q-1 -2 -2 -6 q-1 -6 -3 -15 l11 0 l0 -60 q0 -12 8 -11 l5 0 q8 -1 9 10 q3 19 3 30 q4 -2 13 -5 q0 -20 -3 -30 q-2 -22 -23 -21 l-7 0 q-22 -1 -21 23 l0 48 q-14 -38 -58 -77 q-9 9 -14 12 q3 3 8 8 q20 16 26 25 l-13 -7 l-8 16 q-6 -5 -4 -3 q-23 -17 -31 -22 q-8 -5 -13 -11 l-13 15 q8 6 7 26 l0 166 l61 0 l0 -119 l-44 0 l0 -58 q8 4 30 20 l-12 23 l14 6 q2 -4 8 -14 q13 -25 19 -37 q23 28 30 68 l-32 0 l8 76 l14 0 l-6 -60 l20 0 q0 1 0 2 q5 31 5 73 l-40 0 ZM10 147 l0 18 l27 0 l0 45 l17 0 l0 -45 l22 0 l0 -18 l-22 0 l0 -26 l2 2 q3 -3 9 -10 q12 -15 17 -22 l-11 -13 q-8 11 -17 25 l0 -132 l-17 0 l0 133 q-12 -42 -26 -65 q-1 9 -6 23 q20 34 31 85 l-26 0 ZM100 130 l0 -36 l29 0 l0 36 l-29 0 ZM129 181 l-29 0 l0 -35 l29 0 l0 35 Z" /><glyph glyph-name="" unicode="&#x6a21;" d="M96 61 l0 84 l134 0 l0 -84 l-58 0 q0 -12 -2 -22 l75 0 l0 -16 l-70 0 q16 -26 73 -32 q-4 -8 -8 -18 q-60 11 -79 42 q-16 -30 -79 -46 q-4 9 -10 18 q62 12 74 36 l-68 0 l0 16 l73 0 q1 4 1 11 q1 7 1 11 l-57 0 ZM10 144 l0 17 l29 0 l0 48 l18 0 l0 -48 l25 0 l0 -17 l-25 0 l0 -32 l2 2 q7 -6 21 -19 q7 -6 10 -9 l-11 -16 q-7 9 -22 24 l0 -123 l-18 0 l0 130 q-12 -38 -28 -66 l-6 25 q19 32 34 83 l0 1 l-29 0 ZM184 154 l0 18 l-43 0 l0 -18 l-19 0 l0 18 l-40 0 l0 15 l40 0 l0 23 l19 0 l0 -23 l43 0 l0 23 l18 0 l0 -23 l42 0 l0 -15 l-42 0 l0 -18 l-18 0 ZM114 96 l0 -20 l97 0 l0 20 l-97 0 ZM114 130 l0 -20 l97 0 l0 20 l-97 0 Z" /><glyph glyph-name="" unicode="&#x6b21;" d="M234 -26 q-65 40 -78 102 q-12 -62 -85 -106 q-3 4 -10 12 q-3 4 -5 6 q81 43 87 116 q1 13 1 31 l21 0 q0 -17 -1 -24 q13 -82 85 -118 q-9 -10 -15 -19 ZM217 98 q-4 2 -14 5 q-3 0 -5 1 l20 46 l-96 0 q-11 -25 -26 -50 q-9 6 -19 11 q30 43 45 98 l21 -4 q-3 -8 -9 -24 q-3 -8 -4 -12 l109 0 l0 -19 l-22 -52 ZM26 -6 l-19 10 q26 46 47 97 q9 -6 19 -10 q-3 -7 -10 -22 q-25 -51 -37 -75 ZM52 126 q-13 23 -39 60 l17 10 q22 -29 41 -59 l-19 -11 Z" /><glyph glyph-name="" unicode="&#x6b32;" d="M122 76 q-13 16 -42 49 q-4 5 -6 7 q-19 -29 -46 -56 l90 0 l0 -84 l-71 0 l0 -16 l-19 0 l0 100 q-2 -2 -7 -7 q-5 -4 -8 -7 q-1 4 -4 10 q-3 7 -5 10 q45 35 65 79 l20 -5 l-6 -9 q29 -28 54 -57 l-15 -14 ZM128 -30 q-3 4 -9 12 q-3 3 -5 5 q52 38 59 101 q3 22 3 51 l19 0 l-1 -29 q8 -84 57 -120 q-1 -1 -2 -3 q-4 -5 -11 -14 q-43 36 -52 95 q-8 -57 -58 -98 ZM232 112 q-2 0 -6 1 q-8 2 -13 2 l15 41 l-61 0 q-10 -24 -24 -46 q-8 6 -17 11 q29 42 41 90 l19 -4 q-5 -16 -11 -33 l71 0 l0 -19 l-14 -43 ZM47 59 l0 -52 l52 0 l0 52 l-52 0 ZM20 137 q-2 2 -6 7 q-5 5 -7 7 q22 24 44 57 l16 -11 q-24 -35 -47 -60 ZM120 152 q-15 18 -38 45 l15 11 q6 -7 18 -21 q14 -15 20 -22 l-15 -13 Z" /><glyph glyph-name="" unicode="&#x6b3e;" d="M126 -30 q-1 1 -2 2 q-7 10 -13 15 q59 45 61 111 q1 13 1 41 l20 0 q0 -6 -1 -19 q0 -10 0 -15 q10 -79 58 -115 q-2 -3 -7 -9 q-4 -6 -7 -8 q-42 34 -52 93 q-9 -56 -58 -96 ZM8 170 l0 16 l52 0 l0 24 l19 0 l0 -24 l52 0 l0 -16 l-52 0 l0 -24 l42 0 l0 -16 l-105 0 l0 16 l44 0 l0 24 l-52 0 ZM230 111 q-9 3 -18 4 l14 40 l-63 0 q-8 -22 -20 -48 q-8 8 -16 12 q23 46 32 91 l20 -2 q-4 -18 -10 -35 l75 0 l0 -19 l-14 -43 ZM8 54 l0 16 l123 0 l0 -16 l-50 0 l0 -53 q1 -24 -25 -25 q-3 0 -11 0 q-8 -1 -12 -1 q-1 9 -4 19 q10 -1 19 -1 q14 -1 13 11 l0 50 l-53 0 ZM19 92 l0 16 l100 0 l0 -16 l-100 0 ZM20 -7 q-7 5 -15 7 q15 22 25 44 l16 -6 q-11 -22 -26 -45 ZM113 2 q-10 18 -21 35 l14 7 q12 -18 22 -34 l-15 -8 Z" /><glyph glyph-name="" unicode="&#x6b62;" d="M9 -10 l0 18 l41 0 l0 155 l21 0 l0 -155 l62 0 l0 202 l21 0 l0 -74 l81 0 l0 -20 l-81 0 l0 -108 l94 0 l0 -18 l-239 0 Z" /><glyph glyph-name="" unicode="&#x6b63;" d="M19 171 l0 19 l220 0 l0 -19 l-88 0 l0 -69 l80 0 l0 -19 l-80 0 l0 -80 l97 0 l0 -17 l-241 0 l0 17 l39 0 l0 131 l21 0 l0 -131 l63 0 l0 168 l-111 0 Z" /><glyph glyph-name="" unicode="&#x6b65;" d="M9 104 l0 18 l41 0 l0 67 l20 0 l0 -67 l55 0 l0 88 l20 0 l0 -33 l82 0 l0 -18 l-82 0 l0 -37 l102 0 l0 -18 l-238 0 ZM17 -30 q-2 8 -8 19 q136 13 204 83 l16 -12 q-70 -71 -212 -90 ZM28 20 q-8 10 -13 15 q40 25 65 48 l14 -14 q-30 -25 -66 -49 ZM124 26 l0 69 l20 0 l0 -69 l-20 0 Z" /><glyph glyph-name="" unicode="&#x6bd4;" d="M165 -22 q-35 -1 -34 32 l0 200 l21 0 l0 -102 q45 32 75 68 l17 -14 q-40 -43 -92 -79 l0 -68 q-1 -18 20 -17 l29 0 q20 -1 22 17 q3 15 5 36 q3 -1 9 -3 q8 -2 11 -3 q-1 -13 -4 -32 q-1 -6 -2 -9 q-6 -26 -37 -26 l-40 0 ZM30 -23 l-14 18 q9 7 8 20 l0 189 l21 0 l0 -73 l66 0 l0 -20 l-66 0 l0 -105 q26 12 64 29 q0 -4 1 -12 q0 -8 0 -11 q-33 -12 -61 -24 q-4 -2 -12 -7 q-4 -3 -7 -4 Z" /><glyph glyph-name="" unicode="&#x6c1b;" d="M20 -30 q-4 7 -10 15 q49 15 53 49 l-27 0 l0 14 q-9 -6 -19 -11 q-4 8 -10 15 q36 17 63 46 l16 -10 q-23 -24 -48 -39 l117 0 q-1 -16 -3 -40 q1 3 0 -6 q-2 -27 -33 -27 q-15 -1 -29 -1 q-1 5 -4 13 q-1 3 -1 4 q14 0 30 0 q17 0 18 14 q2 16 2 28 l-53 0 q-5 -43 -62 -64 ZM224 -27 q-20 0 -27 25 q-7 20 -8 60 q0 19 0 47 l-162 0 l0 16 l181 0 q0 -49 1 -63 q0 -35 6 -55 q4 -11 10 -11 q6 0 7 11 q1 7 3 27 q-1 -3 0 6 q8 -3 15 -5 q-1 -21 -4 -34 q-4 -24 -22 -24 ZM20 122 q-6 9 -13 16 q35 31 53 74 l20 -3 q-5 -9 -8 -17 l167 0 l0 -16 l-176 0 q-19 -30 -43 -54 ZM58 141 l0 15 l161 0 l0 -15 l-161 0 ZM175 38 q-43 21 -67 53 l14 9 q26 -29 62 -45 q-3 -4 -7 -13 q-1 -2 -2 -4 Z" /><glyph glyph-name="" unicode="&#x6c60;" d="M152 22 l0 101 l-42 -12 l0 -93 q-2 -21 24 -20 l63 0 q27 -1 29 16 q3 15 5 32 l20 -7 q-3 -22 -7 -37 q-6 -24 -40 -23 l-78 0 q-37 -1 -36 33 l0 93 l-18 -5 l-4 18 l22 6 l0 58 l20 0 l0 -52 l42 12 l0 68 l20 0 l0 -63 l65 19 q-1 -35 -3 -81 q0 -32 -25 -33 q-7 -1 -22 -1 q0 3 -2 10 q-1 7 -2 10 q8 0 18 0 q14 -1 14 17 q2 32 2 54 l-45 -13 l0 -107 l-20 0 ZM35 -26 l-21 7 q19 51 27 87 q4 -1 10 -4 q7 -2 10 -4 q-13 -40 -26 -86 ZM46 94 q-19 18 -38 33 l13 14 q9 -7 26 -20 q9 -7 13 -10 l-14 -17 ZM56 158 q-10 10 -31 27 q-5 4 -7 6 l13 14 q21 -15 39 -31 l-14 -16 Z" /><glyph glyph-name="" unicode="&#x6c7d;" d="M221 -27 q-17 -1 -25 20 q-9 15 -10 76 l0 11 l-106 0 l0 18 l127 0 l0 -18 q0 -64 7 -80 q3 -7 8 -7 q5 0 7 10 q0 3 1 11 q2 20 3 29 q1 0 4 -1 q5 -2 13 -4 q-1 -6 -2 -16 q-2 -19 -3 -24 q-4 -25 -24 -25 ZM82 118 q-3 3 -11 11 q-3 3 -4 4 q32 34 48 77 l20 -3 q-2 -5 -6 -13 q-3 -6 -4 -9 l115 0 l0 -18 l-124 0 q-14 -25 -34 -49 ZM34 -26 l-21 8 q12 28 28 86 q8 -5 20 -8 q-18 -56 -27 -86 ZM109 125 l0 16 l114 0 l0 -16 l-114 0 ZM48 92 q-21 19 -42 34 l13 14 q23 -15 43 -32 l-14 -16 ZM58 156 q-15 14 -42 33 l13 15 q12 -8 36 -26 q5 -4 7 -6 l-14 -16 Z" /><glyph glyph-name="" unicode="&#x6cd5;" d="M83 147 l0 19 l66 0 l0 44 l20 0 l0 -44 l68 0 l0 -19 l-68 0 l0 -50 l79 0 l0 -19 l-84 0 l1 0 q-27 -42 -57 -76 q16 1 55 2 q27 1 39 1 q-15 22 -28 40 l17 9 q14 -19 48 -64 q-2 3 5 -7 l-17 -11 l-12 17 q-62 -1 -100 -4 q-16 -1 -30 -3 l-9 18 q10 5 19 16 q27 31 44 62 l-67 0 l0 19 l77 0 l0 50 l-66 0 ZM32 -27 l-21 7 q13 35 29 89 q11 -5 20 -8 q-6 -16 -28 -88 ZM46 93 q-7 7 -27 24 q-8 7 -12 10 l13 14 q6 -5 24 -19 q13 -10 17 -13 l-15 -16 ZM55 157 q-15 15 -39 35 l13 14 q8 -6 26 -21 q11 -10 15 -13 l-15 -15 Z" /><glyph glyph-name="" unicode="&#x6ce2;" d="M100 -29 q-6 9 -12 19 q45 15 68 33 q-25 25 -39 70 l6 2 l-20 0 q2 -76 -36 -123 q-2 2 -5 4 q-7 6 -12 10 q36 42 34 114 l0 77 l72 0 l0 33 l20 0 l0 -33 l68 0 l-5 -47 q-5 1 -18 1 l5 28 l-50 0 l0 -46 l54 0 l0 -19 q-14 -43 -44 -71 q25 -20 63 -30 q-2 -4 -6 -10 q-4 -7 -6 -10 q-40 18 -66 36 q-29 -20 -71 -38 ZM209 95 l-73 0 q12 -35 36 -59 q25 24 37 59 ZM103 159 l0 -46 l53 0 l0 46 l-53 0 ZM33 -27 l-21 6 q14 43 24 93 q4 -1 10 -3 q7 -3 10 -4 q-12 -47 -23 -92 ZM55 158 q-4 4 -13 11 q-8 8 -27 23 l13 14 q20 -15 41 -33 l-14 -15 ZM47 94 q-13 11 -35 28 q-3 3 -5 4 l12 15 q3 -2 8 -5 q21 -16 33 -25 l-13 -17 Z" /><glyph glyph-name="" unicode="&#x6ce8;" d="M79 147 l0 19 l77 0 q-4 14 -15 40 l20 5 q8 -19 16 -40 l-18 -5 l82 0 l0 -19 l-71 0 l0 -59 l64 0 l0 -19 l-64 0 l0 -67 l79 0 l0 -18 l-184 0 l0 18 l84 0 l0 67 l-63 0 l0 19 l63 0 l0 59 l-70 0 ZM34 -27 l-21 7 q18 44 29 88 q4 -1 13 -4 q5 -2 7 -3 q-13 -39 -28 -88 ZM59 156 q-21 18 -42 34 l13 14 q22 -15 43 -32 l-14 -16 ZM48 91 q-20 18 -41 33 l13 15 q2 -1 6 -4 q17 -12 36 -28 l-14 -16 Z" /><glyph glyph-name="" unicode="&#x6cf0;" d="M19 171 l0 16 l96 0 q1 4 2 12 q1 7 1 11 l21 0 q0 -4 -2 -11 q-1 -8 -2 -12 l102 0 l0 -16 l-105 0 q-3 -10 -6 -21 l102 0 l0 -15 l-107 0 q-5 -12 -11 -22 l137 0 l0 -16 l-67 0 q24 -30 69 -44 q-7 -10 -10 -18 q-26 11 -44 24 q-16 -9 -34 -18 l-10 15 q16 7 29 16 q-11 10 -22 25 l-59 0 q-9 -13 -22 -25 q5 -2 15 -7 q9 -5 14 -8 l-11 -15 q-4 2 -11 6 q-14 9 -22 12 q-18 -14 -44 -28 q-1 3 -5 9 q-4 6 -6 8 q45 23 68 48 l-66 0 l0 16 l78 0 q8 10 12 22 l-71 0 l0 15 l77 0 q5 11 6 21 l-92 0 ZM82 -26 q-1 11 -4 18 q12 0 25 0 q18 -1 17 15 l0 77 l19 0 l0 -81 q2 -28 -28 -28 q-6 -1 -29 -1 ZM29 -9 l-8 17 q37 13 83 30 q5 -11 8 -16 q-49 -18 -83 -31 ZM226 -9 q-38 14 -81 30 l9 16 q20 -8 69 -27 q8 -3 11 -4 l-8 -15 Z" /><glyph glyph-name="" unicode="&#x6cfd;" d="M242 96 q-52 9 -83 24 q-32 -14 -85 -26 q-4 9 -9 19 q45 7 74 19 q-27 18 -46 49 l-13 0 l0 17 l153 0 l0 -18 q-26 -33 -54 -49 q28 -10 70 -16 q-1 -3 -3 -9 q-3 -7 -4 -10 ZM82 61 l0 18 l66 0 l0 24 l21 0 l0 -24 l68 0 l0 -18 l-68 0 l0 -30 l80 0 l0 -17 l-80 0 l0 -43 l-21 0 l0 43 l-79 0 l0 17 l79 0 l0 30 l-66 0 ZM209 181 l-94 0 q19 -25 44 -40 q30 15 50 40 ZM32 -27 l-20 6 q14 39 27 90 q4 -1 10 -4 q6 -2 10 -3 q-12 -35 -27 -89 ZM52 160 q-2 2 -5 5 q-20 18 -32 28 l13 13 q17 -13 39 -32 l-15 -14 ZM44 95 q-9 8 -25 22 q-8 6 -12 10 l13 14 q19 -15 38 -31 l-14 -15 Z" /><glyph glyph-name="" unicode="&#x6d01;" d="M91 -29 l0 98 l140 0 l0 -98 l-20 0 l0 16 l-100 0 l0 -16 l-20 0 ZM79 156 l0 18 l72 0 l0 35 l20 0 l0 -35 l77 0 l0 -18 l-77 0 l0 -39 l66 0 l0 -17 l-151 0 l0 17 l65 0 l0 39 l-72 0 ZM111 51 l0 -48 l100 0 l0 48 l-100 0 ZM35 -28 l-21 7 q16 41 29 89 q2 -1 6 -2 q8 -4 14 -5 q-7 -20 -19 -61 q-6 -19 -9 -28 ZM54 158 q-20 20 -38 35 l13 13 q10 -7 30 -25 q7 -5 10 -8 l-15 -15 ZM45 91 q-7 6 -19 17 q-12 11 -19 17 l12 14 q21 -15 40 -33 l-14 -15 Z" /><glyph glyph-name="" unicode="&#x6d3b;" d="M86 173 q-1 4 -2 11 q-2 5 -2 7 q4 0 11 0 q93 4 142 8 l3 -18 q-33 -3 -68 -4 l0 -42 l78 0 l0 -19 l-78 0 l0 -42 l62 0 l0 -103 l-21 0 l0 15 l-102 0 l0 -15 l-20 0 l0 103 l61 0 l0 42 l-76 0 l0 19 l76 0 l0 41 q-31 -1 -64 -3 ZM109 57 l0 -55 l102 0 l0 55 l-102 0 ZM33 -27 l-21 7 q19 50 30 90 q4 -1 10 -3 q7 -3 10 -4 q-5 -16 -16 -50 q-8 -26 -13 -40 ZM46 93 q-21 19 -40 34 l13 15 q21 -16 42 -33 l-15 -16 ZM53 158 q-23 22 -39 34 l14 14 q5 -4 16 -13 q16 -13 24 -20 l-15 -15 Z" /><glyph glyph-name="" unicode="&#x6d3e;" d="M235 -18 q-62 50 -64 144 q-13 -1 -25 -3 l0 -123 q17 8 36 18 l2 -18 q-22 -9 -44 -22 q-6 -3 -9 -6 l-11 16 q7 8 7 21 l0 130 q60 5 104 14 l8 -18 q-25 -4 -51 -7 q1 -27 7 -47 q11 6 34 20 q4 2 7 4 l10 -16 q-13 -7 -37 -20 q-6 -4 -9 -5 q11 -36 50 -67 q-7 -8 -15 -15 ZM69 -30 q-2 2 -9 7 q-5 3 -7 5 q18 24 23 47 q6 22 6 70 l0 89 q72 3 153 13 l6 -18 q-66 -9 -140 -13 l0 -70 q0 -53 -6 -78 q-6 -25 -26 -52 ZM31 -27 l-20 6 q14 40 27 90 q10 -4 20 -6 q-8 -23 -27 -90 ZM54 158 q-14 14 -38 34 l13 13 q12 -8 37 -30 q1 -1 2 -2 l-14 -15 ZM45 94 q-7 7 -26 22 q-8 7 -12 11 l13 13 q14 -10 40 -31 l-15 -15 Z" /><glyph glyph-name="" unicode="&#x6d41;" d="M72 162 l0 17 l78 0 q-5 13 -13 27 l22 5 l13 -29 l-7 -3 l76 0 l0 -17 l-88 0 l2 -1 q-24 -25 -49 -48 q15 1 52 2 q27 1 39 1 q-10 12 -22 24 l15 10 q26 -25 51 -54 l-17 -12 l-13 16 q-65 -2 -106 -4 q-12 0 -22 -2 l-9 18 q9 4 17 11 q18 14 38 39 l-57 0 ZM211 -23 q-24 0 -24 23 l0 81 l19 0 l0 -78 q0 -9 10 -9 l5 0 q9 0 10 9 q1 7 2 22 q1 6 1 10 q8 -3 16 -5 q-1 -20 -4 -31 q-3 -22 -24 -22 l-11 0 ZM71 -30 q-7 7 -15 13 q33 21 35 62 q1 15 1 36 l19 0 q0 -22 -1 -38 q-2 -45 -39 -73 ZM140 -24 l0 105 l19 0 l0 -105 l-19 0 ZM32 -26 l-20 6 q14 41 26 89 q2 -1 7 -3 q9 -3 13 -4 q-13 -43 -26 -88 ZM51 159 q-20 18 -38 33 l14 14 q19 -15 38 -31 l-14 -16 ZM44 94 q-4 3 -12 10 q-7 7 -26 22 l13 14 q16 -11 39 -31 l-14 -15 Z" /><glyph glyph-name="" unicode="&#x6d4b;" d="M68 43 l0 154 l93 0 l0 -154 l-16 0 l0 136 l-61 0 l0 -136 l-16 0 ZM158 -20 q-16 16 -46 41 q-9 -23 -49 -50 q0 1 -2 2 q-6 10 -10 13 q36 22 45 43 q11 20 10 70 l0 57 l17 0 l0 -57 q0 -45 -6 -64 l3 2 q34 -30 52 -42 l-14 -15 ZM186 -25 q-1 9 -4 19 q11 -1 23 -1 q17 -1 16 16 l0 200 l17 0 l0 -204 q2 -29 -25 -30 q-12 0 -27 0 ZM182 29 l0 159 l16 0 l0 -159 l-16 0 ZM30 -26 l-19 8 q16 42 26 86 q11 -5 19 -7 q-6 -19 -17 -56 q-6 -21 -9 -31 ZM45 159 q-11 13 -33 35 l15 10 q5 -5 15 -15 q13 -12 19 -18 l-16 -12 ZM38 94 q-20 22 -32 33 l15 11 q3 -3 12 -11 q17 -15 21 -21 l-16 -12 Z" /><glyph glyph-name="" unicode="&#x6d77;" d="M62 70 l0 17 l25 0 l7 61 l133 0 l-1 -61 l24 0 l0 -17 l-25 0 q0 -24 -2 -45 l20 0 l0 -17 l-20 0 q-2 -36 -40 -35 q-15 0 -34 0 q-1 3 -2 9 q-2 6 -3 9 q16 -1 34 -1 q24 -1 26 18 l-127 0 l7 62 l-22 0 ZM205 25 q1 7 1 22 q1 16 1 23 l-103 0 l-6 -45 l107 0 ZM111 131 l-5 -44 l101 0 l0 44 l-96 0 ZM73 127 q-6 8 -13 15 q31 27 50 70 l20 -3 q-6 -10 -11 -21 l125 0 l0 -17 l-136 0 q-14 -22 -35 -44 ZM33 -28 l-21 6 q11 37 24 88 q3 -1 10 -3 q6 -3 9 -4 q-12 -44 -22 -87 ZM44 95 q-22 20 -37 31 l13 14 q21 -14 38 -29 l-14 -16 ZM52 161 q-23 21 -37 32 l13 14 q4 -3 12 -10 q17 -13 26 -21 l-14 -15 ZM166 92 q-14 13 -29 23 l10 11 q12 -8 30 -22 l-11 -12 ZM163 29 q-3 2 -9 7 q-12 10 -20 16 l10 11 q12 -8 30 -22 l-11 -12 Z" /><glyph glyph-name="" unicode="&#x6df1;" d="M76 72 l0 17 l73 0 l0 31 l19 0 l0 -31 l77 0 l0 -17 l-70 0 q27 -41 75 -66 l-13 -15 q-45 26 -69 65 l0 -85 l-19 0 l0 86 q-26 -43 -75 -69 q-1 1 -2 3 q-5 9 -10 12 q54 29 80 69 l-66 0 ZM82 151 l0 43 l157 0 l0 -43 l-19 0 l0 26 l-118 0 l0 -26 l-20 0 ZM30 -27 l-19 7 q11 32 28 91 q5 -2 15 -6 q3 -1 4 -1 q-4 -12 -11 -37 q-12 -37 -17 -54 ZM225 104 q-25 21 -55 42 l12 12 q30 -21 56 -40 l-13 -14 ZM92 103 q-3 5 -12 14 q31 20 54 41 l14 -12 q-33 -28 -56 -43 ZM55 159 q-6 5 -19 17 q-14 12 -20 17 l13 12 q10 -7 28 -22 q9 -7 13 -10 l-15 -14 ZM47 94 q-24 22 -40 34 l13 13 q12 -9 33 -25 q6 -5 9 -7 l-15 -15 Z" /><glyph glyph-name="" unicode="&#x6dfb;" d="M84 178 l0 18 l146 0 l0 -18 l-68 0 q-3 -21 -10 -37 l92 0 l0 -18 l-61 0 q21 -32 66 -46 q-2 -4 -5 -10 q-3 -6 -4 -8 q-55 22 -76 64 l-19 0 q-18 -34 -72 -68 q-3 8 -11 16 q44 25 61 52 l-52 0 l0 18 l61 0 q7 16 10 37 l-58 0 ZM100 -27 q-1 5 -4 14 q-1 3 -1 5 q5 0 14 -1 q8 0 12 0 q15 0 14 11 l0 87 l18 0 l0 -89 q1 -27 -26 -26 q-12 -1 -27 -1 ZM32 -27 l-21 6 q12 35 23 91 q10 -4 20 -7 q-11 -40 -22 -90 ZM85 -3 q-3 2 -10 4 q-4 2 -6 3 q18 29 29 57 l17 -6 q-17 -39 -30 -58 ZM229 -1 q-21 40 -31 59 l16 6 q3 -6 10 -19 q15 -27 21 -40 l-16 -6 ZM184 -6 q-4 12 -14 40 q-4 13 -6 19 l15 5 q9 -24 21 -58 l-16 -6 ZM46 94 q-9 8 -26 22 q-9 7 -13 11 l12 14 q21 -15 40 -31 l-13 -16 ZM52 159 q-17 18 -38 34 l14 13 q17 -13 39 -32 l-15 -15 Z" /><glyph glyph-name="" unicode="&#x6e05;" d="M84 -28 l0 121 l146 0 l0 -91 q1 -28 -30 -28 q-4 0 -16 0 q-14 -1 -20 -1 q-2 9 -5 18 q12 -1 34 -1 q19 -1 18 13 l0 11 l-107 0 l0 -42 l-20 0 ZM75 176 l0 14 l72 0 l0 20 l20 0 l0 -20 l78 0 l0 -14 l-78 0 l0 -19 l70 0 l0 -13 l-70 0 l0 -19 l82 0 l0 -14 l-180 0 l0 14 l78 0 l0 19 l-66 0 l0 13 l66 0 l0 19 l-72 0 ZM104 79 l0 -19 l107 0 l0 19 l-107 0 ZM104 46 l0 -19 l107 0 l0 19 l-107 0 ZM32 -27 l-20 7 q16 44 26 88 q2 -1 7 -3 q9 -3 13 -4 q-4 -15 -14 -47 q-8 -29 -12 -41 ZM43 94 q-9 8 -29 25 q-6 5 -9 8 l14 13 q13 -9 36 -28 q2 -2 3 -3 l-15 -15 ZM52 159 q-18 18 -36 33 l13 13 q19 -14 38 -32 l-15 -14 Z" /><glyph glyph-name="" unicode="&#x6e10;" d="M207 -29 l0 134 l-31 0 q0 -51 -6 -79 q-6 -27 -23 -55 q-1 1 -2 2 q-10 7 -14 10 q29 38 27 122 l0 87 q46 2 82 8 l6 -17 q-32 -6 -70 -7 l0 -54 l72 0 l0 -17 l-23 0 l0 -134 l-18 0 ZM62 160 l0 17 l22 0 q5 17 8 34 l19 -3 l-10 -31 l45 0 l0 -17 l-50 0 q-4 -15 -14 -46 q-3 -10 -5 -15 l26 0 l0 42 l16 0 l0 -42 l25 0 l0 -17 l-25 0 l0 -34 l25 4 l-1 -17 q-4 -1 -12 -2 q-8 -2 -12 -3 l0 -59 l-19 0 l0 56 l-43 -7 l-2 19 l45 6 l0 37 l-40 0 l0 18 q10 29 19 60 l-17 0 ZM30 -27 l-19 6 q10 37 20 92 q6 -3 18 -6 q-2 -10 -7 -36 q-8 -39 -12 -56 ZM40 160 q-8 11 -28 36 l15 10 q3 -4 11 -13 q13 -15 19 -23 l-17 -10 ZM36 95 q-14 18 -30 36 l15 10 q5 -5 16 -18 q10 -12 15 -18 l-16 -10 Z" /><glyph glyph-name="" unicode="&#x6e38;" d="M59 149 l0 17 l40 0 q-2 9 -9 30 q-2 7 -3 10 l19 3 q6 -16 12 -40 l-11 -3 l37 0 l0 -17 l-49 0 q0 -21 -1 -39 l46 0 q0 -4 0 -11 q-2 -63 -4 -92 q0 -29 -28 -29 q-8 0 -18 0 l-3 18 q5 -1 11 0 q3 0 4 0 q18 -1 17 14 q0 7 1 22 q2 43 2 61 l-29 0 q0 -4 0 -7 q-2 -76 -31 -115 q-5 5 -15 13 q27 35 29 103 q1 26 1 62 l-18 0 ZM149 54 l0 17 l42 0 l0 15 l30 30 l-60 0 l0 17 l80 0 l0 -19 l-31 -33 l0 -10 l39 0 l0 -17 l-39 0 l0 -51 q1 -27 -28 -27 q-8 -1 -26 -1 q0 3 -2 11 q-1 5 -1 8 q7 -1 24 -1 q15 -1 14 14 l0 47 l-42 0 ZM152 119 q-5 5 -15 13 q25 33 40 79 l19 -3 q-6 -17 -12 -32 l65 0 l0 -17 l-73 0 q-1 -2 -4 -7 q-12 -22 -20 -33 ZM30 -27 l-19 6 q12 39 22 90 q3 -1 10 -4 q5 -2 9 -3 q-4 -16 -14 -55 q-5 -23 -8 -34 ZM39 97 q-2 1 -5 5 q-19 16 -29 25 l13 14 q17 -14 34 -29 l-13 -15 ZM45 163 q-8 8 -23 21 q-6 5 -9 8 l13 13 q9 -7 26 -22 q4 -4 6 -6 l-13 -14 Z" /><glyph glyph-name="" unicode="&#x6e90;" d="M118 52 l0 96 l36 0 l7 29 l-64 0 l0 -67 q2 -90 -31 -139 q-1 1 -3 2 q-5 4 -14 11 q31 39 29 126 l0 85 l170 0 l0 -18 l-66 0 l-9 -29 l59 0 l0 -96 l-47 0 l0 -53 q1 -25 -24 -26 q-11 0 -24 0 q0 2 -1 6 q-2 8 -3 12 q11 -1 21 -1 q12 0 12 11 l0 51 l-48 0 ZM137 93 l0 -25 l77 0 l0 25 l-77 0 ZM137 132 l0 -24 l77 0 l0 24 l-77 0 ZM30 -26 l-19 5 q9 31 22 91 q3 -1 12 -4 q4 -1 6 -2 q-2 -8 -6 -27 q-10 -43 -15 -63 ZM236 -17 q-3 3 -8 10 q-19 22 -30 35 l14 10 q11 -12 29 -33 q7 -7 10 -11 l-15 -11 ZM108 -20 q-7 7 -13 12 q20 19 37 46 l15 -9 q-10 -15 -32 -41 q-5 -5 -7 -8 ZM51 158 q-17 19 -36 36 l15 12 q4 -4 12 -11 q7 -5 25 -23 l-16 -14 ZM43 94 q-10 10 -31 30 q2 -3 -5 4 l14 13 q7 -5 19 -16 q13 -11 19 -17 l-16 -14 Z" /><glyph glyph-name="" unicode="&#x6ed1;" d="M87 -28 l0 122 l133 0 l0 -90 q1 -28 -28 -28 q-10 -1 -34 -1 q-1 5 -4 17 q14 0 31 0 q17 -1 16 15 l0 6 l-95 0 l0 -41 l-19 0 ZM67 92 l0 37 l20 0 l0 71 l132 0 l0 -71 l22 0 l0 -37 l-19 0 l0 22 l-137 0 l0 -22 l-18 0 ZM106 184 l0 -19 l68 0 l0 -36 l26 0 l0 55 l-94 0 ZM33 -29 l-20 7 q17 56 24 88 q4 -1 11 -4 q6 -2 8 -3 q-10 -39 -23 -88 ZM106 46 l0 -19 l95 0 l0 19 l-95 0 ZM106 79 l0 -19 l95 0 l0 19 l-95 0 ZM156 151 l-50 0 l0 -22 l50 0 l0 22 ZM52 158 q-18 19 -37 38 l15 11 q6 -6 21 -20 q12 -10 17 -15 l-16 -14 ZM42 94 q-21 22 -35 34 l14 12 q8 -6 22 -19 q10 -9 15 -13 l-16 -14 Z" /><glyph glyph-name="" unicode="&#x6ee1;" d="M103 0 q-6 6 -13 11 l0 -40 l-18 0 l0 126 l46 0 q1 10 1 26 l-53 0 l0 17 l180 0 l0 -17 l-53 0 q0 -12 -1 -26 l46 0 l0 -97 q1 -26 -26 -26 q-3 0 -13 0 q-10 -1 -14 -1 q-2 8 -5 18 q12 0 26 0 q15 0 14 11 l0 22 l-11 -12 q-3 3 -9 10 q-5 5 -17 19 q-9 -24 -28 -44 q-6 3 -13 9 q30 30 32 75 l-39 0 q0 -9 -2 -17 q15 -13 26 -25 l-10 -12 l-19 20 q-6 -22 -27 -47 ZM66 168 l0 17 l46 0 l0 25 l18 0 l0 -25 l52 0 l0 25 l18 0 l0 -25 l46 0 l0 -17 l-46 0 l0 -19 l-18 0 l0 19 l-52 0 l0 -19 l-18 0 l0 19 l-46 0 ZM30 -27 l-20 6 q13 45 23 92 q5 -2 15 -6 q3 -1 4 -1 q-14 -56 -22 -91 ZM90 81 l0 -69 q27 29 29 69 l-29 0 ZM220 81 l-30 0 q-1 -12 -3 -23 q19 -19 33 -33 l0 56 ZM136 123 q0 -15 0 -26 l38 0 q1 15 1 26 l-39 0 ZM46 159 q-1 1 -4 4 q-20 22 -31 32 l16 11 q5 -5 17 -16 q12 -12 18 -18 l-16 -13 ZM41 93 q-6 6 -18 18 q-12 12 -17 16 l14 12 q7 -6 20 -18 q11 -10 17 -15 l-16 -13 Z" /><glyph glyph-name="" unicode="&#x6f14;" d="M95 132 l0 15 l122 0 l0 -15 l-52 0 l0 -21 l65 0 l0 -92 l-149 0 l0 92 l65 0 l0 21 l-51 0 ZM70 143 l0 41 l76 0 q-1 10 -6 24 l21 3 q1 -5 4 -18 q1 -6 2 -9 l74 0 l0 -41 l-19 0 l0 24 l-133 0 l0 -24 l-19 0 ZM31 -27 l-21 6 q7 19 24 79 q3 9 4 13 q6 -3 19 -7 q-11 -35 -26 -91 ZM69 -30 q-1 3 -5 8 q-3 5 -4 8 q47 16 70 27 l10 -13 q-31 -15 -71 -30 ZM238 -28 q-8 3 -26 11 q-30 12 -43 17 l9 12 q42 -13 69 -24 l-9 -16 ZM165 58 l0 -24 l47 0 l0 24 l-47 0 ZM212 96 l-47 0 l0 -24 l47 0 l0 24 ZM99 58 l0 -24 l47 0 l0 24 l-47 0 ZM99 96 l0 -24 l47 0 l0 24 l-47 0 ZM41 94 q-10 13 -33 35 l15 11 q16 -15 34 -33 l-16 -13 ZM49 160 q-1 1 -3 3 q-13 15 -29 31 l15 11 q3 -3 10 -10 q15 -14 23 -23 l-16 -12 Z" /><glyph glyph-name="" unicode="&#x6f2b;" d="M85 131 l0 70 l141 0 l0 -70 l-141 0 ZM72 66 l0 49 l168 0 l0 -49 l-168 0 ZM241 -27 q-54 8 -85 20 q-36 -14 -91 -23 q-3 8 -9 17 q48 6 79 14 q-23 13 -41 34 l-15 0 l0 14 l146 0 l0 -15 q-20 -19 -47 -33 q28 -7 71 -11 l-8 -17 ZM31 -27 l-19 7 q14 43 27 90 q9 -4 20 -7 q-5 -15 -14 -46 q-9 -28 -14 -44 ZM104 160 l0 -16 l103 0 l0 16 l-103 0 ZM104 187 l0 -15 l103 0 l0 15 l-103 0 ZM202 35 l-86 0 q18 -16 41 -26 q21 8 45 26 ZM52 160 q-18 16 -38 31 l14 14 q23 -17 39 -30 l-15 -15 ZM43 94 q-20 17 -37 31 l13 14 q8 -6 24 -18 q9 -8 14 -11 l-14 -16 ZM89 102 l0 -23 l34 0 l0 23 l-34 0 ZM222 102 l-33 0 l0 -23 l33 0 l0 23 ZM139 102 l0 -23 l34 0 l0 23 l-34 0 Z" /><glyph glyph-name="" unicode="&#x6f6e;" d="M157 -29 l-16 10 q17 20 21 40 q5 19 5 62 l0 114 l71 0 l0 -197 q1 -24 -22 -25 q-11 -1 -22 -1 q0 1 0 2 q-1 7 -4 17 q6 -1 18 -1 q14 -1 13 12 l0 51 l-37 0 q-1 -53 -27 -84 ZM59 169 l0 16 l38 0 l0 25 l18 0 l0 -25 l39 0 l0 -16 l-39 0 l0 -23 l33 0 l0 -94 l-33 0 l0 -23 l42 0 l0 -16 l-42 0 l0 -42 l-18 0 l0 42 l-42 0 l0 16 l42 0 l0 23 l-33 0 l0 94 l33 0 l0 23 l-38 0 ZM29 -27 l-19 5 q10 34 22 93 l18 -6 q-15 -65 -21 -92 ZM185 81 l0 -9 l36 0 l0 46 l-36 0 l0 -37 ZM185 179 l0 -44 l36 0 l0 44 l-36 0 ZM80 93 l0 -25 l52 0 l0 25 l-52 0 ZM80 131 l0 -24 l52 0 l0 24 l-52 0 ZM35 95 q-6 8 -22 29 q-4 5 -6 8 l15 9 q5 -5 15 -18 q10 -12 14 -18 l-16 -10 ZM37 162 q-5 9 -19 27 q-5 6 -7 9 l16 8 q4 -6 14 -19 q9 -11 13 -16 l-17 -9 Z" /></font>
</defs>
</svg>
