<?xml version="1.0" standalone="no"?><!DOCTYPE svg PUBLIC "-//W3C//DTD SVG 1.1//EN" "http://www.w3.org/Graphics/SVG/1.1/DTD/svg11.dtd" ><svg xmlns="http://www.w3.org/2000/svg"><metadata></metadata><defs><font id="fonteditor" horiz-adv-x="1043"><font-face font-family="e¹kcQpN­~ÆÑ{OS" font-weight="400" font-stretch="normal" units-per-em="1000" panose-1="2 0 0 0 0 0 0 0 0 0" ascent="896" descent="-255" x-height="0" bbox="0 -249 1029 843" underline-thickness="0" underline-position="0" unicode-range="U+0025-ff1b" /><missing-glyph horiz-adv-x="1000"  /><glyph glyph-name="percent" unicode="%" d="M227 764 Q395 757 401 552 Q397 354 221 348 Q56 358 49 553 Q55 757 227 764 ZM107 554 Q112 407 225 399 Q341 403 343 557 Q341 709 227 712 Q109 710 107 554 ZM759 346 Q927 339 933 135 Q929 -63 753 -69 Q589 -59 581 135 Q586 340 759 346 ZM639 136 Q644 -10 757 -18 Q873 -14 875 140 Q872 292 759 295 Q641 293 639 136 ZM682 762 L749 762 L301 -72 L234 -72 L682 762 Z" /><glyph glyph-name="ampersand" unicode="&amp;" d="M782 3 L733 -52 Q727 -47 710 -32 Q637 31 585 78 Q477 -57 291 -57 Q60 -46 47 155 Q49 322 244 397 Q145 499 149 580 Q163 748 335 759 Q518 750 531 588 Q533 435 346 377 Q453 279 575 172 Q622 260 630 380 L698 365 Q683 232 624 132 Q723 46 782 3 ZM118 164 Q123 9 298 3 Q446 4 539 119 Q395 250 285 355 Q120 292 118 164 ZM337 705 Q225 695 215 577 Q213 514 305 420 Q471 474 462 585 Q460 703 337 705 Z" /><glyph glyph-name="asterisk" unicode="*" d="M417 595 L258 566 L373 440 L316 399 L228 545 L140 400 L85 443 L197 566 L37 595 L57 664 L207 601 L192 765 L265 765 L247 601 L398 662 L417 595 Z" /><glyph glyph-name="plus" unicode="+" d="M597 319 L362 319 L362 84 L302 84 L302 319 L67 319 L67 379 L302 379 L302 613 L362 613 L362 379 L597 379 L597 319 Z" /><glyph glyph-name="comma" unicode="," d="M102 -231 L73 -202 Q161 -138 158 -41 L97 -41 L97 73 L204 73 Q204 48 204 -23 Q208 -163 102 -231 Z" /><glyph glyph-name="hyphen" unicode="-" d="M597 319 L67 319 L67 379 L597 379 L597 319 Z" /><glyph glyph-name="period" unicode="." d="M204 72 L204 -42 L97 -42 L97 72 L204 72 Z" /><glyph glyph-name="slash" unicode="/" d="M0 -65 L240 764 L300 764 L58 -65 L0 -65 Z" /><glyph glyph-name="zero" unicode="0" d="M311 757 Q575 756 576 350 Q573 -51 315 -57 Q51 -50 48 350 Q54 746 311 757 ZM313 3 Q501 -1 499 350 Q501 702 309 697 Q127 693 125 350 Q124 2 313 3 Z" /><glyph glyph-name="one" unicode="1" d="M266 -47 L266 623 Q203 540 32 460 L32 528 Q231 624 284 757 L338 757 L338 -47 L266 -47 Z" /><glyph glyph-name="two" unicode="2" d="M123 19 L558 19 L558 -44 L36 -44 L36 5 Q117 172 291 297 Q496 444 479 535 Q476 693 300 695 Q158 693 117 535 L49 565 Q114 760 318 758 Q542 749 556 546 Q575 412 354 263 Q197 153 123 19 Z" /><glyph glyph-name="three" unicode="3" d="M38 156 L113 175 Q139 5 303 5 Q491 8 495 186 Q493 336 293 337 Q236 337 220 337 L219 397 Q239 397 265 397 Q463 398 465 551 Q463 696 307 698 Q153 701 129 539 L55 559 Q103 757 307 759 Q533 752 543 553 Q537 413 396 373 Q563 339 572 179 Q560 -46 307 -56 Q84 -55 38 156 Z" /><glyph glyph-name="four" unicode="4" d="M470 209 L578 209 L578 149 L470 149 L470 -46 L402 -46 L402 149 L15 149 L15 192 L410 757 L470 757 L470 209 ZM95 209 L402 209 L402 565 Q402 566 402 607 Q403 657 403 659 Q402 656 400 652 Q391 634 384 625 Q380 619 358 586 Q360 589 354 580 Q340 561 303 508 Q266 455 246 427 Q231 404 216 383 Q200 361 171 319 Q104 222 95 209 Z" /><glyph glyph-name="five" unicode="5" d="M43 160 L113 178 Q138 4 308 5 Q494 14 503 215 Q497 412 310 418 Q186 418 129 320 L76 327 L119 742 L535 742 L535 679 L179 679 L149 402 Q215 480 330 480 Q564 468 577 224 Q567 -47 316 -57 Q91 -57 43 160 Z" /><glyph glyph-name="six" unicode="6" d="M561 579 L492 559 Q456 699 326 698 Q115 697 114 344 Q182 471 340 472 Q561 456 577 215 Q562 -43 323 -57 Q41 -59 42 327 Q43 756 331 758 Q511 752 561 579 ZM318 3 Q494 10 502 208 Q496 407 323 413 Q134 402 118 237 Q126 13 318 3 Z" /><glyph glyph-name="seven" unicode="7" d="M264 -46 L184 -46 Q226 294 484 679 L52 679 L52 742 L573 742 L573 694 Q301 315 264 -46 Z" /><glyph glyph-name="eight" unicode="8" d="M429 369 Q579 321 588 162 Q578 -51 316 -58 Q59 -49 47 167 Q60 325 206 369 Q207 369 206 370 Q87 416 79 547 Q95 746 317 758 Q536 743 557 545 Q549 412 429 369 ZM318 0 Q503 6 512 162 Q504 329 315 340 Q131 332 124 168 Q131 7 318 0 ZM317 701 Q163 694 156 549 Q159 402 318 395 Q473 404 479 548 Q471 694 317 701 Z" /><glyph glyph-name="nine" unicode="9" d="M61 122 L129 142 Q166 1 296 2 Q507 2 508 356 Q439 229 282 228 Q61 243 46 486 Q61 743 300 758 Q582 760 580 375 Q580 -57 290 -57 Q109 -51 61 122 ZM505 464 Q496 689 305 698 Q128 692 121 492 Q127 294 299 288 Q489 299 505 464 Z" /><glyph glyph-name="colon" unicode=":" d="M204 -28 L96 -28 L96 86 L204 86 L204 -28 ZM204 409 L96 409 L96 523 L204 523 L204 409 Z" /><glyph glyph-name="A" unicode="a" d="M413 748 L748 -45 L665 -45 L564 203 L182 203 L81 -45 L0 -45 L330 748 L413 748 ZM374 674 L372 674 L206 266 L541 266 L374 674 Z" /><glyph glyph-name="B" unicode="b" d="M417 -45 L82 -45 L82 747 L397 747 Q630 735 649 558 Q647 403 483 374 L483 372 Q676 338 684 177 Q678 -41 417 -45 ZM390 338 L156 338 L156 19 L403 19 Q605 19 604 188 Q591 332 390 338 ZM378 686 L156 686 L156 400 L377 400 Q567 402 570 552 Q565 684 378 686 Z" /><glyph glyph-name="C" unicode="c" d="M740 529 L661 509 Q597 684 416 691 Q154 668 136 351 Q151 32 410 8 Q623 8 673 232 L755 208 Q691 -54 413 -58 Q74 -35 56 345 Q75 737 421 757 Q654 749 740 529 Z" /><glyph glyph-name="D" unicode="d" d="M359 -45 L83 -45 L83 746 L363 746 Q728 734 739 354 Q745 -51 359 -45 ZM359 682 L159 682 L159 18 L357 18 Q662 19 661 352 Q652 672 359 682 Z" /><glyph glyph-name="E" unicode="e" d="M677 -45 L88 -45 L88 746 L657 746 L657 682 L163 682 L163 398 L629 398 L629 334 L163 334 L163 20 L677 20 L677 -45 Z" /><glyph glyph-name="F" unicode="f" d="M624 682 L163 682 L163 395 L566 395 L566 331 L163 331 L163 -46 L87 -46 L87 747 L624 747 L624 682 Z" /><glyph glyph-name="G" unicode="g" d="M786 373 L786 86 Q692 -54 449 -57 Q77 -36 59 350 Q76 738 434 757 Q700 753 784 532 L705 509 Q646 691 429 692 Q156 671 139 347 Q156 31 444 8 Q635 12 714 115 L714 310 L442 310 L442 373 L786 373 Z" /><glyph glyph-name="H" unicode="h" d="M715 -45 L639 -45 L639 333 L164 333 L164 -45 L89 -45 L89 747 L164 747 L164 398 L639 398 L639 747 L715 747 L715 -45 Z" /><glyph glyph-name="I" unicode="i" d="M96 -45 L96 746 L172 746 L172 -45 L96 -45 Z" /><glyph glyph-name="J" unicode="j" d="M414 747 L489 747 L489 201 Q495 -63 262 -57 Q51 -60 34 179 L107 196 Q111 3 265 9 Q418 3 414 198 L414 747 Z" /><glyph glyph-name="K" unicode="k" d="M744 -45 L644 -45 L340 369 L157 191 L157 -45 L81 -45 L81 747 L157 747 L157 285 L622 746 L725 746 L387 416 L744 -45 Z" /><glyph glyph-name="L" unicode="l" d="M585 -47 L80 -47 L80 745 L155 745 L155 18 L585 18 L585 -47 Z" /><glyph glyph-name="M" unicode="m" d="M435 -44 L161 686 L155 686 L155 -47 L85 -47 L85 745 L208 745 L466 43 L470 43 L726 745 L849 745 L849 -47 L779 -47 L779 686 L773 686 Q763 654 501 -44 L435 -44 Z" /><glyph glyph-name="N" unicode="n" d="M88 745 L196 746 L641 23 L645 23 L645 746 L719 746 L719 -47 L612 -47 L166 677 L163 677 L163 -47 L88 -47 L88 745 Z" /><glyph glyph-name="O" unicode="o" d="M437 756 Q786 731 812 348 Q796 -41 428 -58 Q70 -38 52 346 Q70 737 437 756 ZM424 7 Q715 22 728 347 Q712 668 431 691 Q150 667 131 348 Q146 29 424 7 Z" /><glyph glyph-name="P" unicode="p" d="M414 274 L161 274 L161 -46 L86 -46 L86 746 L422 746 Q669 732 689 515 Q684 278 414 274 ZM399 682 L161 682 L161 338 L399 338 Q608 340 610 517 Q600 676 399 682 Z" /><glyph glyph-name="Q" unicode="q" d="M519 -42 L701 -221 L617 -249 L438 -51 Q59 -38 44 350 Q61 740 430 757 Q780 730 805 351 Q795 32 519 -42 ZM124 351 Q138 31 417 12 Q712 24 721 351 Q704 668 423 692 Q141 669 124 351 Z" /><glyph glyph-name="R" unicode="r" d="M779 -46 L679 -46 L401 309 L164 309 L164 -46 L89 -46 L89 746 L452 746 Q709 739 720 528 Q720 326 485 310 L779 -46 ZM164 682 L164 372 L430 372 Q645 368 641 530 Q642 682 430 682 L164 682 Z" /><glyph glyph-name="S" unicode="s" d="M49 190 L128 213 Q160 4 383 7 Q588 13 601 170 Q614 284 384 331 Q381 332 376 333 Q360 337 352 338 Q69 387 80 548 Q94 749 358 757 Q618 756 660 546 L580 526 Q549 690 363 692 Q175 684 158 547 Q147 442 383 400 Q387 399 396 397 Q410 393 416 392 Q694 332 681 168 Q663 -48 388 -58 Q100 -64 49 190 Z" /><glyph glyph-name="T" unicode="t" d="M660 682 L381 682 L381 -46 L305 -46 L305 682 L26 682 L26 746 L660 746 L660 682 Z" /><glyph glyph-name="U" unicode="u" d="M89 290 L89 746 L165 746 L165 291 Q162 4 402 9 Q648 7 646 291 L646 746 L721 746 L721 291 Q723 -60 400 -58 Q87 -60 89 290 Z" /><glyph glyph-name="V" unicode="v" d="M746 746 L416 -46 L337 -46 L10 746 L92 746 Q372 36 377 22 L379 22 Q385 37 662 746 L746 746 Z" /><glyph glyph-name="W" unicode="w" d="M525 673 L521 674 Q510 627 507 616 Q494 572 314 -47 L236 -47 L13 745 L93 745 Q227 229 260 100 Q261 93 276 32 L279 32 Q301 112 304 125 Q344 264 479 745 L564 745 Q721 168 739 100 Q739 99 740 95 Q754 43 757 27 L760 27 Q765 56 777 103 Q798 179 947 745 L1029 745 L798 -47 L722 -47 Q574 498 541 614 Q534 637 525 673 Z" /><glyph glyph-name="X" unicode="x" d="M743 -45 L646 -45 L378 323 L101 -45 L9 -45 L330 364 L44 747 L133 747 L378 401 L626 747 L716 747 L426 364 L743 -45 Z" /><glyph glyph-name="Y" unicode="y" d="M7 747 L92 747 Q332 406 338 397 Q339 395 355 371 Q368 352 369 350 Q370 352 385 373 Q400 395 401 396 Q408 408 652 747 L739 747 L404 294 L404 -45 L331 -45 L331 294 L7 747 Z" /><glyph glyph-name="Z" unicode="z" d="M657 -45 L22 -45 L22 2 L542 682 L68 682 L68 746 L641 746 L641 695 L119 19 L657 19 L657 -45 Z" /><glyph glyph-name="underscore" unicode="_" d="M659 -204 L0 -204 L0 -150 L658 -150 L659 -204 Z" /><glyph glyph-name="a" unicode="a" d="M582 -43 L509 -43 Q479 -6 479 70 Q413 -53 229 -56 Q50 -51 44 107 Q45 261 253 286 Q450 306 477 348 Q478 429 443 459 Q409 490 318 490 Q156 494 130 364 L61 380 Q99 553 320 548 Q562 557 550 339 Q550 216 550 86 Q547 4 582 -43 ZM480 195 L481 296 Q444 251 294 235 Q108 217 117 107 Q111 1 259 5 Q466 14 480 195 Z" /><glyph glyph-name="b" unicode="b" d="M143 68 L143 -44 L71 -43 L71 755 L143 755 L143 425 Q204 545 340 548 Q569 536 577 244 Q571 -45 348 -56 Q199 -57 143 68 ZM143 299 L143 213 Q150 11 322 3 Q503 5 504 243 Q497 479 321 488 Q158 462 143 299 Z" /><glyph glyph-name="c" unicode="c" d="M548 373 L474 355 Q433 480 310 486 Q123 480 119 245 Q124 12 310 5 Q459 9 481 163 L556 147 Q515 -61 307 -56 Q49 -47 43 245 Q53 535 303 547 Q494 540 548 373 Z" /><glyph glyph-name="g" unicode="g" d="M481 534 L553 534 L553 40 Q554 -119 492 -182 Q432 -247 280 -246 Q124 -243 58 -143 L109 -116 Q170 -185 282 -188 Q486 -193 481 9 L481 87 Q429 -24 276 -25 Q42 -18 37 257 Q48 534 284 547 Q427 544 481 440 L481 534 ZM480 233 L480 310 Q468 477 305 489 Q115 482 109 257 Q112 36 297 31 Q476 36 480 233 Z" /><glyph glyph-name="h" unicode="h" d="M549 -43 L477 -43 L477 315 Q482 494 326 489 Q153 482 145 287 L145 -44 L73 -44 L73 754 L145 754 L145 422 Q204 541 346 547 Q553 551 549 326 L549 -43 Z" /><glyph glyph-name="i" unicode="i" d="M72 -43 L72 535 L144 535 L144 -43 L72 -43 ZM71 656 L71 750 L144 750 L144 656 L71 656 Z" /><glyph glyph-name="l" unicode="l" d="M71 -44 L71 754 L143 754 L143 -44 L71 -44 Z" /><glyph glyph-name="m" unicode="m" d="M860 -44 L788 -44 L788 315 Q793 495 657 489 Q517 481 501 312 L501 -44 L429 -44 L429 316 Q434 495 298 489 Q153 484 143 306 L143 -44 L72 -44 L72 534 L143 534 L143 426 Q193 543 319 547 Q467 549 494 411 Q535 544 677 548 Q863 552 860 327 L860 -44 Z" /><glyph glyph-name="n" unicode="n" d="M551 -45 L480 -45 L480 314 Q482 491 327 488 Q169 476 146 311 L146 -45 L74 -45 L74 533 L146 533 L146 418 Q209 539 347 546 Q555 550 551 325 L551 -45 Z" /><glyph glyph-name="o" unicode="o" d="M317 545 Q570 532 582 245 Q576 -52 307 -58 Q51 -42 37 238 Q47 537 317 545 ZM311 0 Q499 9 505 243 Q496 475 311 487 Q118 480 112 240 Q121 14 311 0 Z" /><glyph glyph-name="p" unicode="p" d="M143 59 L143 -246 L71 -246 L71 533 L143 533 L143 428 Q195 547 336 546 Q565 533 576 243 Q569 -48 350 -57 Q196 -56 143 59 ZM142 296 L142 212 Q148 7 322 1 Q503 3 504 242 Q499 479 313 486 Q155 472 142 296 Z" /><glyph glyph-name="r" unicode="r" d="M139 269 L139 -44 L67 -44 L67 533 L139 533 L140 424 Q184 542 290 546 Q351 547 395 518 L364 449 Q334 477 280 477 Q144 468 139 269 Z" /><glyph glyph-name="s" unicode="s" d="M497 397 L425 380 Q398 489 276 489 Q135 487 131 386 Q116 307 301 280 Q327 275 353 269 Q525 231 520 114 Q515 -54 286 -57 Q78 -63 36 120 L106 137 Q134 -2 284 1 Q440 4 446 111 Q453 188 326 214 Q299 221 267 227 Q47 263 58 385 Q69 540 269 547 Q458 547 497 397 Z" /><glyph glyph-name="t" unicode="t" d="M175 735 L175 533 L296 533 L296 476 L175 476 L175 83 Q172 -7 243 -2 Q277 -1 297 12 L310 -32 Q276 -56 218 -56 Q99 -62 103 76 L103 476 L12 476 L12 533 L103 533 L103 705 L175 735 Z" /><glyph glyph-name="u" unicode="u" d="M547 -44 L476 -44 L476 71 Q412 -51 275 -57 Q67 -60 70 165 L70 534 L142 534 L142 175 Q139 -2 295 1 Q458 14 476 189 L476 533 L547 532 L547 -44 Z" /><glyph glyph-name="v" unicode="v" d="M550 534 L316 -44 L237 -44 L12 534 L91 534 Q256 73 261 60 Q261 58 268 39 Q276 16 276 14 L279 14 Q279 15 285 31 Q294 56 295 60 Q299 73 471 534 L550 534 Z" /><glyph glyph-name="w" unicode="w" d="M815 534 L612 -44 L535 -44 Q423 419 421 430 Q413 461 412 472 L409 472 Q408 462 399 428 Q396 417 276 -44 L199 -44 L4 534 L79 534 Q221 67 224 56 Q230 39 236 16 L240 16 Q240 17 245 36 Q249 55 249 56 Q252 66 372 534 L446 534 Q561 72 563 61 Q564 60 569 39 Q574 18 574 17 L578 17 Q578 18 585 39 Q591 60 591 61 Q595 74 739 534 L815 534 Z" /><glyph glyph-name="x" unicode="x" d="M545 534 L331 251 L559 -44 L473 -44 L287 217 L93 -44 L8 -44 L242 251 L31 534 L113 534 L287 282 L462 534 L545 534 Z" /><glyph glyph-name="bar" unicode="|" d="M104 -200 L104 817 L164 817 L164 -200 L104 -200 Z" /><glyph glyph-name="degree" unicode="°" d="M350 626 Q337 489 200 476 Q63 489 50 626 Q62 763 200 776 Q337 763 350 626 ZM113 626 Q120 545 201 538 Q281 546 288 626 Q280 706 199 714 Q120 706 113 626 Z" /><glyph glyph-name="uniB7" unicode="·" d="M552 407 L552 295 L447 295 L447 407 L552 407 Z" /><glyph glyph-name="quotedblleft" unicode="&#x201c;" d="M738 648 L799 648 L799 534 L692 534 Q692 559 692 631 Q689 772 794 838 L823 810 Q735 747 738 648 ZM631 838 L660 810 Q571 746 574 648 L636 648 L636 534 L528 534 Q528 559 528 631 Q525 771 631 838 Z" /><glyph glyph-name="quotedblright" unicode="&#x201d;" d="M207 530 L178 559 Q266 622 263 721 L202 721 L202 835 L310 835 Q310 810 310 738 Q313 599 207 530 ZM371 530 L342 559 Q430 623 427 721 L365 721 L365 835 L473 835 Q473 810 473 738 Q476 598 371 530 Z" /><glyph glyph-name="uni3001" unicode="&#x3001;" d="M400 -38 L348 -85 L150 145 L198 186 L400 -38 Z" /><glyph glyph-name="uni3002" unicode="&#x3002;" d="M165 52 Q177 179 304 191 Q431 179 443 52 Q431 -75 304 -87 Q177 -75 165 52 ZM208 52 Q216 -36 304 -44 Q392 -36 400 52 Q392 140 304 148 Q216 140 208 52 Z" /><glyph glyph-name="uni300C" unicode="&#x300c;" d="M458 -129 L458 830 L677 830 L677 783 L518 783 L518 -129 L458 -129 Z" /><glyph glyph-name="uni300D" unicode="&#x300d;" d="M541 -129 L323 -129 L323 -81 L481 -81 L481 830 L541 830 L541 -129 Z" /><glyph glyph-name="uni4E00" unicode="&#x4e00;" d="M25 341 L25 412 L974 412 L974 341 L25 341 Z" /><glyph glyph-name="uni4E03" unicode="&#x4e03;" d="M42 373 L33 441 L360 479 L360 814 L432 814 L432 488 L953 550 L962 485 L432 420 L432 98 Q424 -15 546 -7 L741 -7 Q839 -12 853 73 Q867 146 874 211 Q885 206 918 193 Q935 187 943 184 Q935 118 917 40 Q895 -79 753 -75 L522 -75 Q356 -79 360 77 L360 411 L42 373 Z" /><glyph glyph-name="uni4E07" unicode="&#x4e07;" d="M46 678 L46 743 L959 743 L959 678 L404 678 Q398 544 391 464 L845 464 Q833 210 823 92 Q814 -98 641 -92 Q580 -93 467 -93 Q461 -51 453 -21 Q506 -24 541 -25 Q576 -26 627 -26 Q748 -34 754 103 Q765 217 771 400 L385 400 Q360 76 85 -123 Q69 -104 33 -70 Q310 120 320 445 Q331 561 333 678 L46 678 Z" /><glyph glyph-name="uni4E09" unicode="&#x4e09;" d="M98 656 L98 724 L897 724 L897 656 L98 656 ZM38 -45 L38 23 L962 23 L962 -45 L38 -45 ZM144 323 L144 390 L853 390 L853 323 L144 323 Z" /><glyph glyph-name="uni4E0A" unicode="&#x4e0a;" d="M34 -63 L34 4 L416 4 L416 805 L489 805 L489 514 L887 514 L887 447 L489 447 L489 4 L965 4 L965 -63 L34 -63 Z" /><glyph glyph-name="uni4E0B" unicode="&#x4e0b;" d="M35 680 L35 746 L963 746 L963 680 L491 680 L491 -114 L418 -114 L418 680 L35 680 ZM860 215 Q682 326 503 426 L545 483 Q732 383 906 283 L860 215 Z" /><glyph glyph-name="uni4E0D" unicode="&#x4e0d;" d="M56 675 L56 740 L955 740 L955 675 L597 675 Q534 573 465 488 L530 488 L530 -123 L459 -123 L459 480 Q311 299 71 138 Q57 157 25 194 Q361 410 515 675 L56 675 ZM919 163 Q761 279 596 387 L638 436 Q814 323 966 219 L919 163 Z" /><glyph glyph-name="uni4E0E" unicode="&#x4e0e;" d="M462 -103 Q458 -66 448 -28 Q537 -34 655 -34 Q798 -39 803 77 Q818 210 825 376 L177 376 L222 822 L291 822 L276 673 L965 673 L965 608 L269 608 L253 440 L899 440 Q887 217 873 68 Q866 -106 673 -102 Q551 -103 578 -103 Q553 -103 526 -103 Q503 -103 462 -103 ZM26 151 L26 216 L722 216 L722 151 L26 151 Z" /><glyph glyph-name="uni4E13" unicode="&#x4e13;" d="M91 632 L91 693 L376 693 Q403 765 423 825 L494 816 Q472 755 448 693 L910 693 L910 632 L425 632 Q388 537 368 491 L971 491 L971 431 L342 431 Q307 353 280 299 L860 299 L860 232 L600 5 L754 -66 L714 -126 Q449 6 199 116 L235 169 Q417 89 533 36 L772 239 L206 239 L206 302 Q236 358 268 431 L32 431 L32 491 L294 491 Q327 565 352 632 L91 632 Z" /><glyph glyph-name="uni4E16" unicode="&#x4e16;" d="M35 511 L35 573 L160 573 L160 766 L227 766 L227 573 L425 573 L425 810 L491 810 L491 573 L757 573 L757 810 L823 810 L823 573 L962 573 L962 511 L823 511 L823 163 L425 163 L425 511 L227 511 L227 -18 L939 -18 L939 -81 L160 -81 L160 511 L35 511 ZM491 511 L491 225 L757 225 L757 511 L491 511 Z" /><glyph glyph-name="uni4E1A" unicode="&#x4e1a;" d="M29 -59 L29 4 L339 4 L339 804 L405 804 L405 4 L590 4 L590 804 L656 804 L656 4 L970 4 L970 -59 L29 -59 ZM770 206 L710 232 Q789 395 871 615 L934 593 Q850 373 770 206 ZM213 208 Q163 359 70 595 L130 616 Q199 446 278 230 L213 208 Z" /><glyph glyph-name="uni4E1D" unicode="&#x4e1d;" d="M502 435 L476 497 Q515 520 547 557 Q643 672 725 806 L791 777 Q693 639 573 497 Q606 498 681 500 Q747 501 779 502 Q824 559 863 614 L925 580 Q755 373 604 210 L920 221 Q917 190 917 160 Q766 160 619 151 Q560 147 529 142 L502 209 Q551 240 590 284 Q674 375 733 447 Q683 446 583 442 Q569 441 562 441 Q533 439 508 436 Q504 435 502 435 ZM80 433 L55 496 Q93 521 121 558 Q213 674 291 809 L358 783 Q252 628 146 497 Q174 498 228 500 Q307 502 343 503 Q387 563 427 625 L490 595 Q317 359 186 207 Q294 213 432 217 Q428 173 428 158 Q313 157 171 146 Q129 141 106 136 L79 204 Q122 226 162 271 Q229 348 302 446 Q191 445 149 441 Q89 436 80 433 ZM34 -69 L34 -8 L964 -8 L964 -69 L34 -69 Z" /><glyph glyph-name="uni4E24" unicode="&#x4e24;" d="M227 61 Q203 84 177 104 Q320 254 331 481 Q331 483 331 487 Q332 491 332 494 L154 494 L154 -110 L90 -110 L90 554 L335 554 Q336 583 337 615 Q337 630 337 649 Q337 666 337 699 L34 699 L34 759 L964 759 L964 699 L672 699 Q671 629 668 554 L905 554 L905 16 Q909 -103 792 -102 Q759 -103 702 -104 Q673 -105 658 -105 Q652 -69 645 -38 Q717 -42 763 -42 Q848 -46 842 23 L842 494 L663 494 Q662 486 662 477 Q655 400 640 338 Q722 258 819 154 L773 106 Q703 191 623 276 Q584 154 484 33 Q462 55 433 76 Q590 239 600 494 L394 494 Q390 424 378 366 Q448 305 510 247 L468 198 Q412 257 362 304 Q326 180 227 61 ZM401 699 Q401 621 398 554 L604 554 Q607 615 607 699 L401 699 Z" /><glyph glyph-name="uni4E25" unicode="&#x4e25;" d="M47 703 L47 763 L962 763 L962 703 L654 703 L654 420 L960 420 L960 361 L182 361 L182 285 Q190 39 76 -119 L20 -76 Q78 4 97 79 Q118 153 117 286 L117 420 L363 420 L363 703 L47 703 ZM427 703 L427 420 L590 420 L590 703 L427 703 ZM764 466 L717 505 Q779 571 845 656 L897 620 Q830 538 764 466 ZM240 473 Q188 548 126 626 L176 659 Q236 587 293 511 L240 473 Z" /><glyph glyph-name="uni4E2A" unicode="&#x4e2a;" d="M924 356 Q646 505 505 714 Q351 491 71 339 Q61 352 41 377 Q28 393 25 398 Q351 570 492 819 L566 808 Q563 804 558 795 Q548 777 542 769 Q691 552 970 417 Q968 415 964 409 Q935 374 924 356 ZM463 -121 L463 466 L535 466 L535 -121 L463 -121 Z" /><glyph glyph-name="uni4E2D" unicode="&#x4e2d;" d="M88 177 L88 616 L464 616 L464 824 L533 824 L533 616 L910 616 L910 178 L843 178 L843 231 L533 231 L533 -127 L464 -127 L464 231 L155 231 L155 177 L88 177 ZM843 553 L533 553 L533 294 L843 294 L843 553 ZM155 553 L155 294 L464 294 L464 553 L155 553 Z" /><glyph glyph-name="uni4E30" unicode="&#x4e30;" d="M65 605 L65 668 L463 668 L463 821 L533 821 L533 668 L932 668 L932 605 L533 605 L533 432 L872 432 L872 370 L533 370 L533 194 L964 194 L964 131 L533 131 L533 -125 L463 -125 L463 131 L34 131 L34 194 L463 194 L463 370 L126 370 L126 432 L463 432 L463 605 L65 605 Z" /><glyph glyph-name="uni4E3A" unicode="&#x4e3a;" d="M98 -126 Q97 -124 93 -120 Q65 -87 45 -68 Q401 150 422 504 L64 504 L64 568 L429 568 Q441 686 441 823 L512 823 Q509 692 498 568 L912 568 Q906 288 895 98 Q891 -102 710 -98 Q623 -100 532 -100 Q525 -54 514 -23 Q571 -26 693 -26 Q766 -27 793 1 Q821 27 826 105 Q838 292 842 504 L490 504 Q460 101 98 -126 ZM674 159 Q618 227 522 322 L573 361 Q653 287 730 207 L674 159 ZM275 620 Q213 690 136 762 L184 803 Q255 741 328 667 L275 620 Z" /><glyph glyph-name="uni4E3B" unicode="&#x4e3b;" d="M73 582 L73 644 L922 644 L922 582 L533 582 L533 337 L885 337 L885 274 L533 274 L533 -2 L964 -2 L964 -65 L33 -65 L33 -2 L465 -2 L465 274 L114 274 L114 337 L465 337 L465 582 L73 582 ZM498 657 Q477 715 433 801 L498 821 Q550 716 567 678 L498 657 Z" /><glyph glyph-name="uni4E49" unicode="&#x4e49;" d="M920 -109 Q637 -14 501 107 Q363 -16 75 -120 Q55 -85 31 -48 Q312 37 449 156 Q259 344 159 728 L225 749 Q313 391 500 206 Q702 416 762 752 L832 737 Q757 368 553 158 Q699 33 963 -34 Q941 -69 920 -109 ZM508 573 Q456 697 406 798 L465 822 Q526 703 573 601 L508 573 Z" /><glyph glyph-name="uni4E4B" unicode="&#x4e4b;" d="M951 -81 Q771 -81 690 -80 Q594 -79 522 -77 Q316 -72 213 55 Q194 71 171 54 Q108 -8 53 -76 L18 -7 Q72 52 118 95 Q161 136 191 136 Q202 136 213 132 Q560 342 788 576 L93 576 L93 639 L877 639 L877 570 Q626 303 273 90 Q355 -6 529 -11 Q617 -15 734 -14 Q851 -14 973 -10 Q955 -59 951 -81 ZM505 641 Q468 719 421 796 L488 818 Q490 814 495 806 Q550 711 573 666 L505 641 Z" /><glyph glyph-name="uni4E50" unicode="&#x4e50;" d="M102 324 L154 736 Q477 737 866 772 L885 710 Q527 681 214 675 L176 385 L476 385 L476 600 L544 600 L544 385 L919 385 L919 324 L544 324 L544 24 Q550 -104 427 -104 Q388 -106 304 -106 Q299 -77 288 -37 Q338 -39 407 -39 Q481 -45 476 35 L476 324 L102 324 ZM915 -64 Q807 72 678 217 L729 254 Q842 130 973 -22 L915 -64 ZM83 -66 Q51 -37 30 -22 Q166 114 261 252 L319 217 Q198 53 83 -66 Z" /><glyph glyph-name="uni4E5F" unicode="&#x4e5f;" d="M469 93 L469 491 L229 432 L229 78 Q224 -25 329 -20 L764 -20 Q879 -25 886 57 Q898 114 904 192 Q932 182 975 170 Q966 100 950 24 Q932 -89 780 -84 L309 -84 Q156 -90 162 58 L162 415 L36 384 L26 447 L162 480 L162 708 L229 708 L229 497 L469 555 L469 819 L537 819 L537 572 L876 655 Q871 484 862 337 Q858 187 723 191 Q686 190 620 190 Q613 228 606 259 Q662 257 709 257 Q795 250 797 345 Q806 470 808 576 L537 508 L537 93 L469 93 Z" /><glyph glyph-name="uni4E60" unicode="&#x4e60;" d="M481 -93 Q475 -54 463 -15 Q553 -21 641 -19 Q734 -18 764 15 Q797 46 800 144 Q813 447 814 676 L87 676 L87 741 L887 741 Q879 364 869 125 Q874 -95 656 -91 Q595 -93 481 -93 ZM94 54 L65 130 Q366 222 715 344 Q717 298 721 267 Q450 180 94 54 ZM496 365 Q309 472 192 526 L231 580 Q404 495 539 424 L496 365 Z" /><glyph glyph-name="uni4E70" unicode="&#x4e70;" d="M37 194 L37 256 L533 256 Q565 384 564 646 L632 646 Q632 390 602 256 L962 256 L962 194 L586 194 Q580 173 570 153 Q697 89 950 -43 L907 -105 Q702 16 538 100 Q448 -32 101 -126 Q90 -102 61 -60 Q463 33 515 194 L37 194 ZM834 495 Q804 508 769 519 L857 704 L76 704 L76 765 L927 765 L927 703 L834 495 ZM331 304 Q224 379 116 444 L152 491 Q290 408 370 356 L331 304 ZM429 462 Q324 536 223 596 L259 642 Q387 569 468 514 L429 462 Z" /><glyph glyph-name="uni4E86" unicode="&#x4e86;" d="M241 -99 Q235 -59 227 -21 Q292 -25 382 -25 Q490 -32 483 72 L483 463 L818 683 L63 683 L63 748 L912 748 L912 669 L555 428 L555 65 Q562 -102 400 -98 Q364 -99 328 -99 Q311 -99 292 -99 Q275 -99 241 -99 Z" /><glyph glyph-name="uni4E8B" unicode="&#x4e8b;" d="M34 688 L34 737 L465 737 L465 823 L529 823 L529 737 L965 737 L965 688 L529 688 L529 619 L848 619 L848 444 L529 444 L529 374 L866 374 L866 242 L971 242 L971 194 L866 194 L866 11 L805 11 L805 61 L529 61 L529 19 Q536 -107 407 -106 Q338 -108 276 -108 Q272 -76 262 -46 Q298 -49 391 -49 Q472 -56 465 26 L465 61 L91 61 L91 108 L465 108 L465 194 L30 194 L30 242 L465 242 L465 327 L94 327 L94 374 L465 374 L465 444 L149 444 L149 619 L465 619 L465 688 L34 688 ZM529 194 L529 108 L805 108 L805 194 L529 194 ZM805 327 L529 327 L529 242 L805 242 L805 327 ZM787 574 L529 574 L529 488 L787 488 L787 574 ZM210 574 L210 488 L465 488 L465 574 L210 574 Z" /><glyph glyph-name="uni4E8E" unicode="&#x4e8e;" d="M109 686 L109 751 L894 751 L894 686 L548 686 L548 422 L968 422 L968 356 L548 356 L548 39 Q553 -106 415 -105 Q336 -107 268 -107 Q262 -68 253 -32 Q312 -35 388 -35 Q482 -41 476 53 L476 356 L30 356 L30 422 L476 422 L476 686 L109 686 Z" /><glyph glyph-name="uni4E92" unicode="&#x4e92;" d="M79 682 L79 744 L921 744 L921 682 L305 682 L281 527 L810 527 L774 9 L956 9 L956 -53 L45 -53 L45 9 L706 9 L718 183 L158 183 L236 682 L79 682 ZM738 467 L271 467 L236 244 L722 244 L738 467 Z" /><glyph glyph-name="uni4E9B" unicode="&#x4e9b;" d="M44 264 L31 330 L117 341 L117 719 L177 719 L177 350 Q189 352 215 355 Q276 364 309 369 L309 815 L369 815 L369 636 L529 636 L529 580 L369 580 L369 379 Q424 387 522 404 Q530 405 534 406 Q534 377 535 345 Q305 313 44 264 ZM705 287 Q586 281 592 405 L592 817 L653 817 L653 581 Q779 642 894 729 L931 679 Q804 591 653 519 L653 413 Q647 340 730 345 L814 345 Q889 342 896 402 Q905 448 910 511 Q912 510 916 509 Q953 496 967 492 Q958 420 949 374 Q933 286 824 287 L705 287 ZM51 -74 L51 -14 L947 -14 L947 -74 L51 -74 ZM148 123 L148 181 L840 181 L840 123 L148 123 Z" /><glyph glyph-name="uni4EA4" unicode="&#x4ea4;" d="M920 -114 Q633 -39 499 68 Q373 -36 71 -122 L37 -53 Q329 21 447 114 Q358 200 276 357 L335 388 Q413 240 499 159 Q587 243 657 396 L720 368 Q641 203 552 115 Q683 14 956 -45 Q942 -69 920 -114 ZM44 616 L44 679 L490 679 Q460 746 428 799 L497 822 Q526 771 563 698 L514 679 L956 679 L956 616 L44 616 ZM94 295 Q79 320 52 356 Q204 443 343 567 L394 516 Q254 401 94 295 ZM900 314 Q764 416 606 517 L648 567 Q757 499 945 373 L900 314 Z" /><glyph glyph-name="uni4EA6" unicode="&#x4ea6;" d="M38 594 L38 657 L500 657 Q469 737 434 805 L504 827 Q542 750 574 676 L520 657 L965 657 L965 594 L673 594 L673 35 Q677 -101 562 -100 Q492 -103 504 -102 Q489 -102 472 -102 Q456 -102 428 -102 Q424 -72 413 -29 Q487 -33 536 -33 Q613 -40 606 44 L606 594 L417 594 Q416 559 414 505 Q412 472 412 456 Q425 42 110 -125 Q80 -91 60 -72 Q228 32 280 135 Q336 233 345 456 L348 594 L38 594 ZM907 158 Q828 321 759 440 L817 470 Q880 364 970 192 L907 158 ZM85 160 Q61 173 22 190 Q93 310 151 468 L215 444 Q148 279 85 160 Z" /><glyph glyph-name="uni4EA7" unicode="&#x4ea7;" d="M76 -119 Q75 -118 72 -116 Q38 -87 21 -75 Q80 0 102 83 Q125 164 125 298 L125 429 L593 429 Q654 521 708 615 L771 583 Q718 502 665 429 L941 429 L941 369 L191 369 L191 296 Q199 39 76 -119 ZM48 648 L48 710 L499 710 Q479 772 465 806 L534 821 Q558 755 572 710 L966 710 L966 648 L48 648 ZM368 438 Q297 537 260 584 L315 619 Q363 559 426 475 L368 438 Z" /><glyph glyph-name="uni4EAB" unicode="&#x4eab;" d="M28 79 L28 134 L477 134 L477 184 L705 256 L113 256 L113 309 L837 309 L837 252 L543 150 L543 134 L969 134 L969 79 L543 79 L543 0 Q547 -115 428 -115 Q401 -116 371 -116 Q356 -116 338 -116 Q323 -116 292 -116 Q287 -79 279 -53 Q342 -56 406 -56 Q482 -61 477 7 L477 79 L28 79 ZM166 389 L166 580 L824 580 L824 389 L166 389 ZM37 656 L37 711 L478 711 Q461 762 443 810 L511 824 Q532 768 549 711 L961 711 L961 656 L37 656 ZM230 527 L230 441 L760 441 L760 527 L230 527 Z" /><glyph glyph-name="uni4EAE" unicode="&#x4eae;" d="M193 408 L193 597 L799 597 L799 408 L193 408 ZM68 -126 Q50 -88 37 -66 Q184 -41 232 -1 Q282 37 280 131 L280 193 L678 193 L678 19 Q674 -40 736 -37 L827 -37 Q891 -40 898 18 Q906 58 910 117 Q941 105 972 98 Q967 51 957 -1 Q943 -96 837 -92 L719 -92 Q608 -97 614 10 L614 139 L343 139 L343 123 Q363 -81 68 -126 ZM62 186 L62 329 L935 329 L935 186 L872 186 L872 274 L126 274 L126 186 L62 186 ZM46 674 L46 729 L472 729 Q467 745 457 777 Q449 802 446 814 L514 826 Q517 817 522 798 Q528 779 542 729 L951 729 L951 674 L46 674 ZM257 545 L257 459 L735 459 L735 545 L257 545 Z" /><glyph glyph-name="uni4EB2" unicode="&#x4eb2;" d="M345 462 Q315 513 247 609 L306 635 Q349 576 404 492 L345 462 ZM31 403 L31 461 L587 461 Q648 546 704 635 L765 609 Q720 540 663 461 L967 461 L967 403 L542 403 L542 265 L915 265 L915 207 L542 207 L542 31 Q550 -107 410 -105 Q369 -107 315 -107 Q300 -107 293 -107 Q293 -104 292 -99 Q286 -62 280 -40 Q330 -45 396 -45 Q482 -51 477 36 L477 207 L82 207 L82 265 L477 265 L477 403 L31 403 ZM79 647 L79 704 L486 704 Q466 764 449 810 L517 825 Q540 765 561 704 L918 704 L918 647 L79 647 ZM890 -61 Q781 20 650 105 L691 153 Q817 72 933 -8 L890 -61 ZM91 -62 Q80 -44 47 -8 Q178 73 272 158 L322 113 Q211 19 91 -62 Z" /><glyph glyph-name="uni4EBA" unicode="&#x4eba;" d="M916 -99 Q551 95 502 500 Q449 104 81 -111 Q64 -90 33 -53 Q406 159 451 567 Q458 618 461 674 Q464 726 464 807 L535 807 Q535 796 535 800 Q533 709 530 660 Q584 130 965 -37 Q937 -70 916 -99 Z" /><glyph glyph-name="uni4EC5" unicode="&#x4ec5;" d="M929 -112 Q741 -2 633 114 Q519 -5 314 -120 L268 -58 Q475 52 588 167 Q447 344 384 688 L338 688 L338 748 L909 748 L909 687 Q832 343 680 166 Q786 53 976 -48 Q950 -80 929 -112 ZM840 688 L449 688 Q507 376 635 219 Q771 377 840 688 ZM45 297 Q40 322 21 375 Q160 560 247 819 L312 801 Q265 674 218 579 L218 -119 L153 -119 L153 456 Q103 371 45 297 Z" /><glyph glyph-name="uni4ECE" unicode="&#x4ece;" d="M356 -117 Q327 -87 302 -64 Q597 176 602 564 Q607 666 607 811 L675 811 Q675 727 673 636 Q698 140 974 -46 Q947 -78 925 -105 Q684 86 645 427 Q619 121 356 -117 ZM453 210 Q408 266 313 379 Q286 411 273 427 Q250 127 79 -105 Q47 -76 21 -57 Q207 164 217 561 Q225 691 226 810 L294 810 Q292 679 282 529 L277 467 L303 489 Q390 395 504 259 L453 210 Z" /><glyph glyph-name="uni4ED4" unicode="&#x4ed4;" d="M322 320 L322 386 L645 386 L645 480 L834 691 L404 691 L404 755 L917 755 L917 682 L713 458 L713 386 L976 386 L976 320 L713 320 L713 34 Q714 -43 686 -71 Q660 -101 585 -103 Q513 -106 525 -105 Q509 -105 490 -105 Q474 -105 444 -105 Q440 -70 430 -33 Q488 -37 568 -37 Q651 -43 645 42 L645 320 L322 320 ZM54 298 Q43 327 21 370 Q164 556 246 813 L314 794 Q274 683 223 579 L223 -116 L157 -116 L157 454 Q106 366 54 298 Z" /><glyph glyph-name="uni4ED8" unicode="&#x4ed8;" d="M312 526 L312 589 L751 589 L751 812 L819 812 L819 589 L956 589 L956 526 L819 526 L819 33 Q824 -107 682 -107 Q612 -109 542 -109 Q536 -73 527 -37 Q588 -40 660 -40 Q755 -43 751 42 L751 526 L312 526 ZM50 285 Q44 311 31 352 Q28 362 26 367 Q173 568 252 818 L323 800 Q281 684 229 578 L229 -121 L163 -121 L163 453 Q106 355 50 285 ZM540 144 Q428 296 352 383 L404 421 Q501 312 597 188 L540 144 Z" /><glyph glyph-name="uni4EE3" unicode="&#x4ee3;" d="M312 420 L302 483 L528 508 Q518 640 514 818 L582 818 Q583 688 593 515 L949 555 L956 492 L598 452 Q618 210 686 76 Q744 -47 818 -46 Q870 -48 887 24 Q900 74 912 149 Q942 137 974 127 Q961 54 947 -1 Q917 -114 823 -115 Q704 -115 627 42 Q552 183 533 444 L312 420 ZM162 -123 L162 464 Q107 371 42 288 Q35 316 18 364 Q165 558 251 814 L317 795 Q275 686 227 586 L227 -123 L162 -123 ZM842 590 Q779 650 680 734 L724 775 Q809 708 890 636 L842 590 Z" /><glyph glyph-name="uni4EE5" unicode="&#x4ee5;" d="M918 -93 Q810 41 720 145 Q634 -1 395 -126 Q373 -93 349 -63 Q759 107 752 543 Q759 648 759 797 L827 797 Q827 676 820 543 Q809 329 753 207 Q839 118 977 -40 L918 -93 ZM115 -47 L66 14 Q104 53 101 108 L101 783 L169 783 L169 84 Q326 183 438 259 Q443 215 454 181 Q299 85 171 -1 Q143 -20 115 -47 ZM479 547 Q413 678 347 787 L404 816 Q466 718 543 583 L479 547 Z" /><glyph glyph-name="uni4EEC" unicode="&#x4eec;" d="M649 -109 Q644 -73 635 -39 Q712 -43 769 -43 Q863 -49 857 45 L857 674 L613 674 L613 738 L924 738 L924 33 Q929 -108 794 -108 Q746 -109 649 -109 ZM46 279 Q35 324 23 363 Q166 581 229 810 L296 791 Q254 672 213 578 L213 -121 L149 -121 L149 449 Q101 363 46 279 ZM370 -110 L370 589 L436 589 L436 -110 L370 -110 ZM495 628 Q439 704 381 774 L434 809 Q507 725 552 667 L495 628 Z" /><glyph glyph-name="uni4EF6" unicode="&#x4ef6;" d="M374 357 Q333 378 311 387 Q400 546 446 747 L512 732 Q494 662 471 594 L649 594 L649 817 L714 817 L714 594 L943 594 L943 532 L714 532 L714 279 L976 279 L976 216 L714 216 L714 -121 L649 -121 L649 216 L299 216 L299 279 L649 279 L649 532 L450 532 Q417 439 374 357 ZM48 271 Q35 317 22 350 Q158 549 231 812 L298 794 Q265 690 222 588 L222 -121 L157 -121 L157 449 Q104 350 48 271 Z" /><glyph glyph-name="uni4EFD" unicode="&#x4efd;" d="M546 -104 Q540 -72 529 -36 Q588 -39 652 -39 Q753 -42 757 58 Q765 174 769 339 L543 339 Q548 49 320 -122 Q297 -93 271 -69 Q485 80 478 339 L367 339 L367 399 L837 399 Q830 166 822 45 Q819 -100 667 -101 Q642 -103 615 -103 Q602 -104 586 -104 Q573 -104 546 -104 ZM51 295 Q37 336 22 372 Q162 561 242 812 L309 794 Q261 660 207 553 L207 -120 L144 -120 L144 438 Q102 367 51 295 ZM931 400 Q731 554 654 790 L712 811 Q799 581 972 463 Q970 460 966 454 Q944 423 931 400 ZM308 379 Q285 410 265 434 Q429 575 507 778 L570 754 Q482 539 308 379 Z" /><glyph glyph-name="uni4F01" unicode="&#x4f01;" d="M44 -73 L44 -11 L198 -11 L198 362 L264 362 L264 -11 L484 -11 L484 523 L551 523 L551 312 L841 312 L841 251 L551 251 L551 -11 L940 -11 L940 -73 L44 -73 ZM930 411 Q647 552 505 738 Q354 549 67 398 Q60 408 41 434 Q29 450 24 457 Q345 614 487 823 L564 814 Q553 801 544 787 Q693 593 972 472 Q945 437 930 411 Z" /><glyph glyph-name="uni4F17" unicode="&#x4f17;" d="M930 429 Q633 555 503 730 Q355 543 71 410 Q59 433 31 472 Q358 615 492 827 L565 815 L540 779 Q687 597 972 492 Q948 460 930 429 ZM923 -110 Q708 56 674 256 Q636 37 413 -124 Q402 -109 376 -82 Q367 -73 363 -69 Q614 94 629 352 Q636 416 637 471 L703 471 L698 407 Q728 109 973 -51 Q948 -78 923 -110 ZM469 102 Q393 187 321 265 Q282 48 75 -110 Q52 -84 25 -58 Q245 105 266 331 Q276 404 280 469 L347 469 Q340 386 333 334 Q449 224 517 152 L469 102 Z" /><glyph glyph-name="uni4F18" unicode="&#x4f18;" d="M297 491 L297 554 L509 554 Q515 677 515 813 L581 813 Q581 670 575 554 L952 554 L952 491 L693 491 L693 33 Q690 -26 756 -23 L818 -23 Q884 -26 893 49 Q903 116 907 191 Q924 184 960 173 Q968 170 972 169 Q962 74 952 17 Q933 -88 823 -86 L744 -86 Q625 -89 628 28 L628 491 L572 491 L569 451 Q554 121 313 -119 Q302 -108 277 -85 Q265 -74 260 -69 Q491 154 503 454 L505 491 L297 491 ZM50 290 Q39 331 24 369 Q174 571 246 814 L314 792 Q272 672 218 562 L218 -120 L153 -120 L153 443 Q103 359 50 290 ZM828 617 Q748 686 679 738 L719 782 Q783 737 873 666 L828 617 Z" /><glyph glyph-name="uni4F1A" unicode="&#x4f1a;" d="M60 214 L60 277 L937 277 L937 214 L474 214 Q383 103 255 -17 Q382 -11 710 2 Q659 55 601 111 L652 149 Q782 24 884 -78 L827 -122 L765 -55 Q470 -64 265 -79 Q209 -82 176 -91 L136 -23 Q176 -4 210 26 Q301 107 385 214 L60 214 ZM927 422 Q646 552 506 736 Q345 549 68 407 Q56 424 28 458 Q24 463 22 465 Q333 611 495 827 L573 818 L547 784 Q686 598 971 483 Q941 446 927 422 ZM240 416 L240 478 L755 478 L755 416 L240 416 Z" /><glyph glyph-name="uni4F20" unicode="&#x4f20;" d="M347 621 L347 679 L524 679 Q542 749 557 815 L627 807 Q625 798 620 781 Q611 744 593 679 L935 679 L935 621 L578 621 L539 481 L972 481 L972 424 L523 424 L483 290 L911 290 L911 225 L694 7 L828 -68 L785 -126 Q561 12 365 116 L400 166 L635 39 L831 233 L414 233 L414 295 Q435 358 454 424 L298 424 L298 481 L471 481 Q473 489 478 506 Q491 551 509 621 L347 621 ZM52 278 Q43 307 25 353 Q160 555 234 815 L300 799 Q267 692 223 590 L223 -119 L159 -119 L159 454 Q109 358 52 278 Z" /><glyph glyph-name="uni4F4E" unicode="&#x4f4e;" d="M373 -82 L328 -27 Q362 9 360 67 L360 741 Q655 749 927 778 L948 719 Q816 706 700 698 Q700 588 710 441 L965 441 L965 382 L714 382 Q730 142 810 15 Q839 -33 874 -35 Q900 -34 907 7 Q918 70 924 136 Q959 121 981 117 Q971 12 961 -27 Q945 -105 875 -105 Q805 -105 752 -14 Q665 118 648 382 L425 382 L425 29 Q522 82 601 128 Q603 103 613 65 Q512 11 424 -45 Q405 -56 373 -82 ZM153 -122 L153 463 Q94 365 41 301 Q35 321 25 351 Q20 369 18 375 Q162 561 248 821 L311 801 Q264 677 215 577 L215 -122 L153 -122 ZM644 441 Q636 589 635 693 Q523 686 425 683 L425 441 L644 441 ZM639 -121 Q603 -76 546 -13 L594 20 Q598 16 606 8 Q665 -52 691 -85 L639 -121 Z" /><glyph glyph-name="uni4F53" unicode="&#x4f53;" d="M299 562 L299 620 L574 620 L574 818 L637 818 L637 620 L934 620 L934 562 L681 562 Q778 286 975 124 Q972 120 965 110 Q940 79 932 64 Q719 262 637 544 L637 139 L795 139 L795 80 L637 80 L637 -121 L574 -121 L574 80 L415 80 L415 139 L574 139 L574 543 Q486 246 279 48 Q257 77 232 104 Q445 294 529 562 L299 562 ZM147 -121 L147 445 Q99 361 45 289 Q41 304 30 334 Q23 357 21 364 Q157 556 238 818 L302 802 Q259 677 210 569 L210 -121 L147 -121 Z" /><glyph glyph-name="uni4F59" unicode="&#x4f59;" d="M237 446 L237 506 L761 506 L761 446 L541 446 L541 299 L937 299 L937 237 L541 237 L541 7 Q547 -115 419 -115 Q411 -115 397 -116 Q338 -117 302 -117 Q299 -82 291 -49 Q345 -52 396 -52 Q480 -57 474 20 L474 237 L61 237 L61 299 L474 299 L474 446 L237 446 ZM927 422 Q650 547 500 737 Q350 555 69 411 Q51 443 29 473 Q342 615 488 829 L563 817 Q554 803 538 784 Q703 582 966 487 Q947 456 927 422 ZM101 -80 Q72 -47 52 -28 Q159 58 273 186 L327 142 Q197 8 101 -80 ZM897 -68 Q772 47 657 137 L701 182 Q810 100 946 -14 L897 -68 Z" /><glyph glyph-name="uni4F5C" unicode="&#x4f5c;" d="M342 386 Q324 403 291 430 Q424 592 498 822 L564 807 Q536 730 507 667 L972 667 L972 605 L624 605 L624 426 L919 426 L919 366 L624 366 L624 181 L946 181 L946 120 L624 120 L624 -121 L559 -121 L559 605 L478 605 Q423 493 342 386 ZM55 280 Q43 309 22 350 Q157 544 245 821 L310 804 Q272 691 224 584 L224 -121 L160 -121 L160 453 Q111 361 55 280 Z" /><glyph glyph-name="uni4F60" unicode="&#x4f60;" d="M50 275 L25 353 Q172 558 251 821 L319 801 Q275 676 228 576 L228 -121 L164 -121 L164 451 Q105 345 50 275 ZM890 435 Q859 446 826 453 L890 608 L477 608 Q429 514 371 424 Q343 447 316 464 Q424 621 497 815 L564 798 Q537 734 506 669 L957 669 L957 606 L890 435 ZM449 -109 Q444 -74 435 -41 Q483 -44 540 -44 Q617 -46 614 28 L614 518 L680 518 L680 21 Q684 -106 558 -107 Q486 -109 449 -109 ZM376 36 Q374 37 369 39 Q337 56 314 64 Q397 220 456 385 L517 363 Q459 210 376 36 ZM910 43 Q840 213 768 362 L826 385 Q905 222 973 70 L910 43 Z" /><glyph glyph-name="uni4F7F" unicode="&#x4f7f;" d="M931 -113 Q660 -80 538 0 Q468 -63 294 -126 Q284 -109 259 -75 Q255 -71 253 -68 Q419 -13 484 39 Q418 95 362 185 L413 218 Q471 132 529 84 Q578 143 589 263 L335 263 L335 524 L595 524 L595 633 L298 633 L298 690 L595 690 L596 818 L660 818 L659 690 L967 690 L967 633 L659 633 L659 524 L919 524 L919 228 L857 228 L857 263 L653 263 Q641 119 582 46 Q693 -25 961 -51 Q960 -53 957 -58 Q936 -97 931 -113 ZM142 -123 L142 438 Q100 361 51 290 Q40 327 25 364 Q159 569 227 817 L291 802 Q253 678 205 567 L205 -123 L142 -123 ZM659 412 Q659 361 657 318 L857 318 L857 470 L659 470 L659 412 ZM593 318 Q595 360 595 411 L595 470 L398 470 L398 318 L593 318 Z" /><glyph glyph-name="uni4F8B" unicode="&#x4f8b;" d="M313 705 L313 762 L657 762 L657 705 L477 705 Q462 626 441 551 L621 551 L621 506 Q592 114 314 -116 Q287 -87 268 -69 Q535 148 563 495 L425 495 Q402 425 379 376 Q442 333 497 289 L460 239 Q432 264 381 307 Q364 321 356 328 Q326 270 287 209 Q268 235 245 256 Q372 439 416 705 L313 705 ZM151 -122 L151 459 Q103 362 49 279 Q36 329 26 358 Q152 551 224 821 L286 807 Q251 693 212 596 L212 -122 L151 -122 ZM705 -104 Q698 -66 690 -35 Q760 -39 803 -39 Q875 -42 871 26 L871 811 L932 811 L932 19 Q934 -98 828 -102 Q806 -103 778 -104 Q764 -104 748 -104 Q734 -104 705 -104 ZM701 113 L701 671 L759 671 L759 113 L701 113 Z" /><glyph glyph-name="uni4F9B" unicode="&#x4f9b;" d="M316 549 L316 609 L443 609 L443 817 L507 817 L507 609 L734 609 L734 817 L798 817 L798 609 L929 609 L929 549 L798 549 L798 261 L968 261 L968 201 L275 201 L275 261 L443 261 L443 549 L316 549 ZM46 301 Q39 331 22 377 Q161 567 239 816 L304 798 Q265 686 219 588 L219 -123 L155 -123 L155 465 Q106 380 46 301 ZM507 549 L507 261 L734 261 L734 549 L507 549 ZM322 -118 Q296 -90 270 -69 Q395 29 500 150 L556 110 Q434 -23 322 -118 ZM915 -117 Q847 -45 690 110 L738 151 Q836 62 967 -69 L915 -117 Z" /><glyph glyph-name="uni4F9D" unicode="&#x4f9d;" d="M295 598 L295 658 L615 658 Q589 722 551 801 L613 820 Q636 773 680 674 L632 658 L966 658 L966 598 L639 598 L637 593 Q663 432 703 329 Q809 406 886 473 L929 426 Q849 363 727 274 Q796 125 974 -6 Q956 -24 929 -60 Q649 136 592 513 Q546 436 490 367 L490 -8 Q579 39 657 86 Q658 63 668 23 Q573 -29 490 -82 Q458 -100 437 -120 L394 -62 Q429 -23 427 32 L427 295 Q354 219 265 149 Q252 169 224 200 Q445 363 573 598 L295 598 ZM47 300 Q38 337 22 374 Q160 562 240 815 L304 798 Q263 677 212 571 L212 -123 L149 -123 L149 453 Q107 381 47 300 Z" /><glyph glyph-name="uni4FDD" unicode="&#x4fdd;" d="M361 455 L361 770 L888 770 L888 455 L361 455 ZM275 257 L275 316 L591 316 L591 427 L655 427 L655 316 L970 316 L970 257 L700 257 Q788 99 974 12 Q961 -4 934 -47 Q733 62 655 237 L655 -121 L591 -121 L591 234 Q493 46 296 -61 Q273 -29 253 -7 Q450 94 544 257 L275 257 ZM425 712 L425 514 L824 514 L824 712 L425 712 ZM146 -120 L146 443 Q105 366 51 288 Q46 304 30 339 Q24 353 22 358 Q157 560 224 815 L288 798 Q246 661 208 573 L208 -120 L146 -120 Z" /><glyph glyph-name="uni4FE1" unicode="&#x4fe1;" d="M365 -121 L365 218 L906 218 L906 -121 L843 -121 L843 -64 L428 -64 L428 -121 L365 -121 ZM146 -121 L146 448 Q93 350 50 291 Q39 328 25 364 Q157 561 230 816 L294 800 Q256 684 209 577 L209 -121 L146 -121 ZM428 161 L428 -7 L843 -7 L843 161 L428 161 ZM305 634 L305 693 L619 693 Q606 725 581 780 Q574 795 570 803 L635 821 Q669 750 688 705 L651 693 L970 693 L970 634 L305 634 ZM357 319 L357 376 L913 376 L913 319 L357 319 ZM357 477 L357 533 L913 533 L913 477 L357 477 Z" /><glyph glyph-name="uni4FEE" unicode="&#x4fee;" d="M949 359 Q787 400 685 461 Q584 397 406 340 Q399 356 375 394 Q532 436 633 496 Q564 549 512 623 Q474 569 423 515 Q414 526 393 546 Q386 553 383 556 Q496 674 558 818 L618 804 Q598 762 577 725 L895 725 L895 667 Q828 565 737 496 Q830 446 974 418 Q972 414 969 407 Q955 376 949 359 ZM135 -122 L135 456 Q92 363 47 289 Q41 314 27 356 Q25 361 24 364 Q140 570 199 819 L260 808 Q232 702 195 600 L195 -122 L135 -122 ZM390 -123 Q374 -89 361 -67 Q686 6 910 178 L949 132 Q721 -44 390 -123 ZM285 59 L285 663 L345 663 L345 59 L285 59 ZM449 42 Q434 71 416 96 Q663 173 828 297 L867 252 Q680 119 449 42 ZM827 670 L544 669 Q606 581 684 528 Q769 588 827 670 ZM448 195 Q432 226 416 248 Q593 302 734 397 L772 353 Q624 257 448 195 Z" /><glyph glyph-name="uni5012" unicode="&#x5012;" d="M136 -122 L136 470 Q94 376 46 295 Q41 314 24 358 Q21 366 20 370 Q130 560 197 823 L259 812 Q229 709 195 614 L195 -122 L136 -122 ZM279 697 L279 754 L644 754 L644 697 L475 697 Q421 598 340 474 Q449 477 565 485 Q552 509 525 557 Q512 579 505 591 L555 613 Q621 504 673 407 L620 381 L592 434 Q466 428 331 419 L277 414 L255 467 Q286 488 313 528 Q369 617 406 697 L279 697 ZM709 -109 Q705 -72 696 -43 Q763 -46 797 -46 Q877 -53 870 27 L870 816 L930 816 L930 17 Q937 -108 812 -106 Q761 -109 709 -109 ZM276 207 L276 264 L428 264 L428 378 L488 378 L488 264 L638 264 L638 207 L488 207 L488 26 L668 49 Q666 20 669 -10 Q502 -29 256 -62 L244 0 Q340 9 428 20 L428 207 L276 207 ZM709 115 L709 668 L768 668 L768 115 L709 115 Z" /><glyph glyph-name="uni503C" unicode="&#x503c;" d="M308 669 L308 723 L589 723 L589 819 L653 819 L653 723 L953 723 L953 669 L653 669 L653 567 L885 567 L885 -33 L972 -33 L972 -88 L265 -88 L265 -33 L358 -33 L358 567 L589 567 L589 669 L308 669 ZM135 -118 L135 435 Q94 362 46 292 Q33 327 17 359 Q152 563 230 819 L293 804 Q250 674 198 560 L198 -118 L135 -118 ZM422 216 L422 116 L821 116 L821 216 L422 216 ZM422 365 L422 266 L821 266 L821 365 L422 365 ZM422 514 L422 415 L821 415 L821 514 L422 514 ZM422 66 L422 -33 L821 -33 L821 66 L422 66 Z" /><glyph glyph-name="uni507F" unicode="&#x507f;" d="M892 -114 L843 -62 Q630 -69 439 -81 Q376 -83 345 -91 L314 -33 Q350 -17 387 20 Q465 93 530 177 L304 177 L304 234 L944 234 L944 177 L616 177 Q512 55 429 -23 Q496 -20 622 -15 Q738 -10 792 -8 Q718 67 687 96 L735 130 Q879 -3 945 -74 L892 -114 ZM53 269 Q48 294 26 349 Q160 543 236 812 L301 795 Q266 687 217 570 L217 -118 L153 -118 L153 434 Q105 342 53 269 ZM298 424 L298 586 L592 586 L592 811 L657 811 L657 586 L956 586 L956 424 L892 424 L892 532 L361 532 L361 424 L298 424 ZM406 351 L406 407 L845 407 L845 351 L406 351 ZM794 625 L744 663 Q813 728 852 778 L903 742 Q866 699 794 625 ZM462 626 Q414 685 357 742 L404 775 Q484 701 516 663 L462 626 Z" /><glyph glyph-name="uni50A8" unicode="&#x50a8;" d="M490 644 L490 698 L623 698 L623 819 L682 819 L682 698 L814 698 L814 644 L682 644 L682 501 L727 501 Q827 611 896 738 L949 710 Q875 585 802 501 L970 501 L970 446 L752 446 Q694 388 638 344 L901 344 L901 -118 L841 -118 L841 -53 L614 -53 L614 -119 L554 -119 L554 281 Q506 248 451 213 Q443 231 421 265 Q565 344 672 446 L456 446 L456 501 L623 501 L623 644 L490 644 ZM132 -122 L132 455 Q94 377 46 298 Q42 319 19 373 Q134 552 196 822 L259 813 Q227 692 191 592 L191 -122 L132 -122 ZM331 -61 L295 -17 Q323 15 321 59 L321 444 L239 444 L239 502 L379 502 L379 51 Q394 62 427 88 Q463 116 479 128 Q485 95 492 67 Q435 27 374 -22 Q350 -42 331 -61 ZM614 120 L614 0 L841 0 L841 120 L614 120 ZM614 290 L614 171 L841 171 L841 290 L614 290 ZM381 589 Q343 669 298 753 L348 775 Q392 699 434 614 L381 589 Z" /><glyph glyph-name="uni50CF" unicode="&#x50cf;" d="M301 532 Q292 547 259 579 Q416 687 494 823 L559 810 Q557 807 553 801 Q536 774 512 742 L787 742 L787 693 L701 598 L910 598 L910 400 L607 400 Q597 384 582 369 Q635 322 666 264 Q774 320 869 385 L905 339 Q901 337 893 332 Q824 290 786 269 Q827 96 961 4 Q938 -18 919 -47 Q781 63 738 242 L686 215 Q708 149 708 48 Q712 -106 561 -106 Q536 -107 474 -107 Q469 -70 463 -47 Q510 -51 550 -51 Q653 -56 649 51 Q649 97 643 137 Q516 4 290 -83 Q276 -59 255 -33 Q500 54 630 193 Q620 227 603 257 Q485 132 292 67 Q283 82 267 104 Q261 111 258 115 Q467 183 577 296 Q569 306 552 325 Q546 331 543 334 Q465 270 289 204 Q282 218 255 253 Q466 321 537 400 L339 400 L339 562 L301 532 ZM48 291 Q39 321 19 363 Q152 559 224 816 L285 801 Q241 666 204 579 L204 -118 L144 -118 L144 452 Q101 369 48 291 ZM713 693 L473 693 Q431 643 381 598 L628 598 L713 693 ZM849 449 L849 550 L665 550 Q655 492 636 449 L849 449 ZM399 550 L399 449 L572 449 Q596 492 605 550 L399 550 Z" /><glyph glyph-name="uni513F" unicode="&#x513f;" d="M82 -114 Q57 -84 28 -57 Q174 52 221 164 Q273 272 271 485 L271 798 L339 798 L339 480 Q341 251 287 132 Q235 8 82 -114 ZM707 -88 Q568 -95 574 54 L574 803 L644 803 L644 61 Q639 -26 720 -21 L791 -21 Q877 -25 886 54 Q899 145 904 238 Q952 224 972 220 Q961 91 949 26 Q934 -91 797 -88 L707 -88 Z" /><glyph glyph-name="uni5145" unicode="&#x5145;" d="M50 625 L50 686 L486 686 Q473 733 448 806 L517 819 Q520 810 528 784 Q548 718 557 686 L957 686 L957 625 L478 625 L503 615 Q383 494 236 368 Q464 374 750 384 Q739 394 718 414 Q653 476 619 505 L666 544 Q786 439 928 305 L876 260 L809 327 L638 323 L638 40 Q631 -48 714 -40 L796 -40 Q886 -43 894 26 Q905 93 907 131 Q943 116 971 107 Q967 50 955 -7 Q941 -106 800 -102 L694 -102 Q567 -107 571 21 L571 321 L411 315 Q407 120 340 38 Q278 -49 77 -122 Q57 -91 34 -62 Q225 2 280 74 Q342 143 344 312 L258 309 Q182 305 151 298 L117 364 Q158 382 201 418 Q319 513 414 625 L50 625 Z" /><glyph glyph-name="uni5149" unicode="&#x5149;" d="M35 352 L35 414 L465 414 L465 820 L532 820 L532 414 L968 414 L968 352 L651 352 L651 34 Q650 -37 723 -36 L822 -36 Q889 -37 897 23 Q905 70 911 157 Q936 146 975 134 Q967 50 957 -1 Q940 -100 829 -99 L708 -99 Q585 -98 584 23 L584 352 L380 352 Q379 313 376 279 Q369 2 68 -122 Q47 -92 23 -61 Q301 36 310 285 Q313 316 315 352 L35 352 ZM703 492 L654 536 Q759 640 839 743 L893 703 Q809 601 703 492 ZM276 498 Q186 614 104 705 L155 743 Q240 652 333 543 L276 498 Z" /><glyph glyph-name="uni514D" unicode="&#x514d;" d="M69 452 Q59 466 36 495 Q30 501 28 504 Q223 647 333 823 L400 804 Q398 801 393 794 Q372 762 344 724 L731 724 L731 666 L611 545 L853 545 L853 238 L488 238 Q413 6 76 -126 Q62 -102 34 -63 Q339 43 419 238 L138 238 L138 508 Q118 491 77 458 Q72 454 69 452 ZM789 488 L533 488 Q530 402 514 330 L506 295 L789 295 L789 488 ZM629 -96 Q501 -98 503 19 L503 202 L567 202 L567 30 Q563 -40 651 -37 L802 -37 Q880 -39 892 30 Q901 88 908 155 Q944 142 972 137 Q962 63 951 7 Q930 -98 816 -96 L629 -96 ZM202 488 L202 295 L440 295 Q441 299 444 309 Q448 325 450 334 Q466 404 467 488 L202 488 ZM650 669 L300 669 Q247 605 179 545 L527 545 L650 669 Z" /><glyph glyph-name="uni5168" unicode="&#x5168;" d="M195 395 L195 456 L802 456 L802 395 L533 395 L533 231 L846 231 L846 170 L533 170 L533 -9 L933 -9 L933 -72 L66 -72 L66 -9 L464 -9 L464 170 L152 170 L152 231 L464 231 L464 395 L195 395 ZM930 415 Q641 553 502 745 Q336 544 65 406 Q49 430 23 462 Q339 624 483 829 L558 817 Q554 811 546 801 Q541 795 539 792 Q693 594 971 474 Q958 458 930 415 Z" /><glyph glyph-name="uni516C" unicode="&#x516c;" d="M851 -121 L783 -33 Q444 -44 242 -57 Q189 -60 140 -69 L109 0 Q152 24 182 57 Q327 220 446 432 L515 397 Q386 197 232 8 Q272 10 350 13 Q583 23 735 28 Q650 135 579 220 L631 259 Q774 94 911 -76 L851 -121 ZM923 337 Q680 509 584 769 L647 792 Q745 538 972 400 L923 337 ZM76 317 Q73 321 66 329 Q40 359 25 374 Q241 531 349 777 L414 750 Q292 493 76 317 Z" /><glyph glyph-name="uni5171" unicode="&#x5171;" d="M66 561 L66 623 L275 623 L275 812 L342 812 L342 623 L655 623 L655 812 L723 812 L723 623 L931 623 L931 561 L723 561 L723 282 L969 282 L969 220 L29 220 L29 282 L275 282 L275 561 L66 561 ZM342 561 L342 282 L655 282 L655 561 L342 561 ZM84 -110 Q69 -87 41 -53 Q217 44 360 150 L409 99 Q231 -28 84 -110 ZM895 -107 Q729 8 583 99 L626 149 Q813 34 939 -52 L895 -107 Z" /><glyph glyph-name="uni5173" unicode="&#x5173;" d="M105 553 L105 614 L564 614 Q650 719 718 819 L782 788 Q779 785 774 778 Q690 670 643 614 L895 614 L895 553 L532 553 Q530 427 523 361 L953 361 L953 300 L539 300 Q627 33 962 -48 L921 -112 Q574 -2 496 251 Q444 11 81 -123 Q72 -109 53 -84 Q43 -70 38 -63 Q415 66 445 300 L50 300 L50 361 L455 361 Q463 422 464 553 L105 553 ZM343 621 Q269 719 212 785 L266 817 Q339 736 402 657 L343 621 Z" /><glyph glyph-name="uni5176" unicode="&#x5176;" d="M49 638 L49 695 L197 695 L197 817 L262 817 L262 695 L733 695 L733 817 L799 817 L799 695 L950 695 L950 638 L799 638 L799 176 L971 176 L971 118 L29 118 L29 176 L197 176 L197 638 L49 638 ZM262 295 L262 176 L733 176 L733 295 L262 295 ZM262 638 L262 521 L733 521 L733 638 L262 638 ZM262 466 L262 350 L733 350 L733 466 L262 466 ZM64 -126 Q51 -95 32 -65 Q187 -13 368 80 L405 25 Q218 -70 64 -126 ZM934 -120 Q785 -50 591 25 L623 80 Q786 17 966 -59 L934 -120 Z" /><glyph glyph-name="uni5177" unicode="&#x5177;" d="M27 94 L27 150 L164 150 L164 774 L835 774 L835 150 L972 150 L972 94 L27 94 ZM228 255 L228 150 L772 150 L772 255 L228 255 ZM228 410 L228 305 L772 305 L772 410 L228 410 ZM228 720 L228 616 L772 616 L772 720 L228 720 ZM228 565 L228 461 L772 461 L772 565 L228 565 ZM77 -126 Q72 -114 51 -81 Q45 -73 43 -69 Q229 -6 369 57 L406 5 Q219 -79 77 -126 ZM926 -117 Q765 -55 592 0 L624 53 Q719 23 902 -40 Q941 -52 957 -58 L926 -117 Z" /><glyph glyph-name="uni5178" unicode="&#x5178;" d="M40 130 L40 189 L131 189 L131 694 L356 694 L356 818 L419 818 L419 694 L582 694 L582 818 L644 818 L644 694 L870 694 L870 189 L962 189 L962 130 L40 130 ZM644 385 L644 189 L808 189 L808 385 L644 385 ZM193 385 L193 189 L356 189 L356 385 L193 385 ZM419 385 L419 189 L582 189 L582 385 L419 385 ZM808 636 L644 636 L644 442 L808 442 L808 636 ZM419 636 L419 442 L582 442 L582 636 L419 636 ZM193 636 L193 442 L356 442 L356 636 L193 636 ZM78 -121 Q64 -91 47 -60 Q219 9 366 84 L401 28 Q250 -47 78 -121 ZM918 -117 Q743 -33 592 27 L624 82 Q781 19 950 -56 L918 -117 Z" /><glyph glyph-name="uni517C" unicode="&#x517c;" d="M34 655 L34 709 L335 709 Q322 724 284 764 Q263 786 254 796 L312 825 Q316 820 329 807 Q392 743 401 730 L364 709 L571 709 Q613 766 650 825 L714 799 Q686 759 647 709 L965 709 L965 655 L611 655 L611 559 L848 559 L848 406 L967 406 L967 352 L848 352 L848 197 L622 197 Q735 52 945 -28 Q928 -50 908 -84 Q711 4 611 133 L611 -122 L549 -122 L549 197 L397 197 L397 -122 L335 -122 L335 121 Q245 -1 63 -90 Q50 -69 23 -36 Q232 55 330 197 L87 197 L87 249 L335 249 L335 352 L33 352 L33 406 L335 406 L335 507 L103 507 L103 559 L335 559 L335 655 L34 655 ZM611 249 L788 249 L788 352 L611 352 L611 249 ZM788 507 L611 507 L611 406 L788 406 L788 507 ZM397 352 L397 249 L549 249 L549 352 L397 352 ZM397 507 L397 406 L549 406 L549 507 L397 507 ZM397 655 L397 559 L549 559 L549 655 L397 655 Z" /><glyph glyph-name="uni5185" unicode="&#x5185;" d="M253 116 Q239 137 206 172 Q480 306 466 559 Q466 571 467 585 L174 585 L174 -111 L107 -111 L107 649 L468 649 Q469 678 469 715 Q469 733 469 756 Q469 775 469 816 L538 816 Q538 747 538 715 Q538 677 537 649 L890 649 L890 26 Q892 -98 766 -101 Q715 -103 619 -103 Q614 -67 605 -29 Q675 -33 745 -33 Q826 -36 823 41 L823 585 L535 585 Q534 571 534 559 Q530 460 508 393 L524 408 Q633 318 780 183 L729 132 Q603 256 493 352 Q444 235 253 116 Z" /><glyph glyph-name="uni518C" unicode="&#x518c;" d="M516 -120 Q495 -104 460 -80 Q522 18 539 100 Q559 181 559 359 L438 359 L438 24 Q440 -76 347 -78 Q332 -79 311 -79 Q295 -79 252 -79 Q250 -62 243 -23 Q242 -18 242 -16 Q265 -18 318 -18 Q380 -23 375 38 L375 359 L199 359 Q199 177 178 82 Q158 -13 97 -120 L42 -79 Q101 19 117 102 Q136 183 136 359 L28 359 L28 421 L136 421 L136 772 L438 772 L438 421 L559 421 L559 772 L870 772 L870 421 L971 421 L971 359 L870 359 L870 1 Q873 -101 771 -102 Q735 -103 669 -103 Q665 -69 658 -38 Q712 -41 748 -41 Q811 -46 807 17 L807 359 L622 359 Q622 170 600 78 Q581 -16 516 -120 ZM622 713 L622 421 L807 421 L807 713 L622 713 ZM199 712 L199 421 L375 421 L375 712 L199 712 Z" /><glyph glyph-name="uni5197" unicode="&#x5197;" d="M82 -123 Q65 -98 37 -65 Q181 4 226 76 Q274 143 272 291 L272 483 L695 483 L695 35 Q691 -34 756 -30 L813 -30 Q883 -33 891 23 Q901 78 908 160 Q938 148 973 138 Q963 48 952 -5 Q937 -98 821 -95 L738 -95 Q623 -99 627 27 L627 420 L340 420 L340 291 Q363 3 82 -123 ZM84 529 L84 747 L915 747 L915 529 L847 529 L847 683 L151 683 L151 529 L84 529 Z" /><glyph glyph-name="uni5199" unicode="&#x5199;" d="M508 -104 Q505 -78 494 -32 Q578 -36 676 -36 Q801 -41 805 64 Q814 179 818 294 L170 294 L242 657 L310 657 L289 549 L857 549 L857 489 L277 489 L251 354 L889 354 Q882 162 874 57 Q870 -104 688 -102 Q592 -104 508 -104 ZM66 594 L66 767 L933 767 L933 594 L866 594 L866 706 L133 706 L133 594 L66 594 ZM27 102 L27 163 L723 163 L723 102 L27 102 Z" /><glyph glyph-name="uni51B3" unicode="&#x51b3;" d="M271 274 L271 336 L519 336 Q528 405 529 586 L325 586 L325 646 L530 646 L530 816 L598 816 Q598 782 597 721 Q597 669 597 646 L858 646 L858 336 L971 336 L971 274 L612 274 Q707 49 963 -44 Q940 -75 920 -107 Q643 16 562 243 Q519 44 241 -123 Q219 -94 192 -65 Q472 90 508 274 L271 274 ZM793 586 L596 586 Q595 428 587 336 L793 336 L793 586 ZM96 -41 L29 -8 Q124 221 187 399 Q217 383 252 369 Q177 188 96 -41 ZM215 519 Q108 651 49 716 L99 752 Q200 644 271 560 L215 519 Z" /><glyph glyph-name="uni51B5" unicode="&#x51b5;" d="M329 337 L329 771 L892 771 L892 337 L727 337 L727 32 Q725 -35 781 -32 L834 -32 Q888 -36 897 22 Q906 75 912 144 Q948 128 972 121 Q966 47 956 -6 Q940 -96 841 -94 L765 -94 Q658 -97 661 27 L661 337 L531 337 Q530 147 473 59 Q419 -34 249 -124 Q228 -96 203 -69 Q369 14 414 90 Q465 162 466 337 L329 337 ZM395 711 L395 397 L825 397 L825 711 L395 711 ZM93 -66 L27 -30 Q114 150 184 354 Q208 340 250 322 Q197 196 93 -66 ZM190 522 Q99 643 37 715 L89 749 Q168 661 248 560 L190 522 Z" /><glyph glyph-name="uni51B7" unicode="&#x51b7;" d="M739 -129 Q509 26 352 120 L391 170 L592 47 L806 260 L301 260 L301 322 L890 322 L890 255 L649 10 L782 -74 L739 -129 ZM936 422 Q717 554 608 732 Q487 555 268 414 Q249 446 226 474 Q472 614 591 827 L665 819 Q662 815 657 806 Q649 793 645 787 Q771 587 978 485 Q956 454 936 422 ZM111 -80 L42 -54 Q100 131 162 355 Q192 341 227 329 Q169 140 111 -80 ZM187 539 Q183 545 175 556 Q94 667 49 722 L103 756 Q165 684 246 578 L187 539 ZM633 378 Q580 454 521 528 L571 561 Q637 483 688 415 L633 378 Z" /><glyph glyph-name="uni51C6" unicode="&#x51c6;" d="M346 -121 L346 499 Q305 440 257 380 Q252 391 228 420 Q219 431 216 436 Q361 597 448 819 L512 801 Q477 719 435 643 L959 643 L959 587 L713 587 L713 432 L949 432 L949 376 L713 376 L713 221 L949 221 L949 165 L713 165 L713 8 L970 8 L970 -48 L411 -48 L411 -121 L346 -121 ZM411 165 L411 8 L649 8 L649 165 L411 165 ZM411 376 L411 221 L649 221 L649 376 L411 376 ZM411 587 L411 432 L649 432 L649 587 L411 587 ZM110 -81 L41 -52 Q119 158 167 334 Q171 333 178 330 Q210 318 234 311 Q163 100 110 -81 ZM168 513 Q124 609 55 737 L111 763 Q173 656 230 542 L168 513 ZM688 648 Q660 705 608 790 L666 815 Q668 811 674 803 Q728 714 749 674 L688 648 Z" /><glyph glyph-name="uni51CF" unicode="&#x51cf;" d="M880 -105 Q804 -107 761 15 Q756 26 749 49 Q747 56 746 60 Q685 -25 595 -112 Q591 -108 576 -96 Q554 -76 546 -70 Q657 30 726 135 Q697 262 683 527 Q681 556 679 601 L334 601 L334 424 Q335 213 308 110 Q283 2 201 -113 Q181 -96 148 -75 Q223 29 248 131 Q274 229 273 420 L273 657 L677 657 Q676 683 676 719 Q676 736 676 759 Q676 778 676 819 L736 819 Q736 752 736 723 Q737 687 738 657 L968 657 L968 601 L741 601 L744 535 Q754 318 771 212 Q829 318 884 496 L941 475 Q869 260 789 126 Q799 84 816 42 Q847 -38 876 -36 Q898 -38 905 4 Q913 54 921 148 Q950 136 974 128 Q969 40 958 -17 Q944 -104 880 -105 ZM398 62 L398 357 L622 357 L622 62 L398 62 ZM92 -11 L27 14 Q80 146 144 376 Q156 368 204 351 Q152 188 92 -11 ZM452 305 L452 114 L568 114 L568 305 L452 305 ZM161 509 Q118 594 47 721 L100 748 Q174 621 219 538 L161 509 ZM385 455 L385 507 L639 507 L639 455 L385 455 ZM883 666 Q858 693 780 757 L819 793 Q892 735 925 706 L883 666 Z" /><glyph glyph-name="uni51E1" unicode="&#x51e1;" d="M80 -114 Q74 -108 61 -93 Q40 -70 29 -59 Q134 36 167 137 Q203 237 202 441 L202 767 L726 767 L726 56 Q723 -20 785 -16 L823 -16 Q889 -19 896 47 Q906 109 913 192 Q940 181 977 170 Q969 91 958 23 Q942 -86 831 -83 L773 -83 Q654 -86 657 45 L657 703 L271 703 L271 433 Q286 53 80 -114 ZM518 247 Q428 366 350 450 L403 489 Q495 391 575 292 L518 247 Z" /><glyph glyph-name="uni51FA" unicode="&#x51fa;" d="M125 388 L125 722 L191 722 L191 451 L464 451 L464 811 L531 811 L531 451 L805 451 L805 722 L871 722 L871 388 L531 388 L531 -8 L833 -8 L833 267 L899 267 L899 -106 L833 -106 L833 -71 L96 -71 L96 267 L162 267 L162 -8 L464 -8 L464 388 L125 388 Z" /><glyph glyph-name="uni51FB" unicode="&#x51fb;" d="M98 589 L98 651 L464 651 L464 821 L534 821 L534 651 L901 651 L901 589 L534 589 L534 400 L967 400 L967 338 L534 338 L534 0 L810 0 L810 237 L877 237 L877 -121 L810 -121 L810 -62 L120 -62 L120 237 L187 237 L187 0 L464 0 L464 338 L30 338 L30 400 L464 400 L464 589 L98 589 Z" /><glyph glyph-name="uni5206" unicode="&#x5206;" d="M448 -97 Q442 -52 436 -26 Q509 -30 588 -30 Q703 -37 705 86 Q714 205 716 336 L400 336 Q396 263 382 204 Q346 -9 94 -126 Q72 -92 52 -68 Q279 31 316 217 Q329 271 332 336 L153 336 L153 397 L787 397 Q782 239 772 76 Q767 -96 594 -95 Q507 -98 527 -97 Q510 -97 492 -97 Q475 -97 448 -97 ZM923 375 Q680 530 572 798 L634 820 Q738 560 969 438 Q963 427 923 375 ZM67 373 Q43 409 24 432 Q239 574 365 808 L427 779 Q286 528 67 373 Z" /><glyph glyph-name="uni5207" unicode="&#x5207;" d="M601 -93 Q595 -55 585 -21 Q646 -23 722 -23 Q830 -27 832 85 Q848 399 854 695 L617 695 Q614 555 606 440 Q597 60 356 -121 L302 -73 Q537 100 539 433 Q548 559 550 695 L377 695 L377 759 L924 759 Q913 316 900 79 Q897 -93 736 -91 Q677 -93 601 -93 ZM31 462 L25 526 L149 539 L149 822 L215 822 L215 546 L405 567 L410 503 L215 482 L215 131 Q288 181 403 271 Q411 223 419 200 Q300 114 219 51 Q188 24 171 5 L118 61 Q152 94 149 155 L149 475 L31 462 Z" /><glyph glyph-name="uni5217" unicode="&#x5217;" d="M63 711 L63 773 L576 773 L576 711 L322 711 Q298 617 268 547 L524 547 L524 488 Q454 100 112 -122 Q91 -93 65 -67 Q390 135 460 487 L241 487 Q222 445 190 394 Q263 335 341 267 L296 216 Q235 276 156 344 Q115 285 61 225 Q40 252 21 273 Q192 467 255 711 L63 711 ZM660 -108 Q653 -68 645 -37 Q721 -41 770 -41 Q855 -45 850 32 L850 808 L914 808 L914 24 Q917 -106 796 -106 Q724 -108 660 -108 ZM636 116 L636 696 L699 696 L699 116 L636 116 Z" /><glyph glyph-name="uni521B" unicode="&#x521b;" d="M256 -91 Q124 -95 128 35 L128 479 L521 479 Q519 382 511 279 Q505 157 379 157 Q324 156 334 156 Q322 156 309 156 Q297 156 275 156 Q267 193 260 218 Q316 215 367 215 Q446 212 450 289 Q455 368 456 421 L190 421 L190 42 Q186 -34 271 -31 L410 -31 Q494 -31 509 26 Q521 76 528 135 Q559 121 594 112 Q582 44 567 -3 Q544 -94 423 -91 L256 -91 ZM680 -104 Q675 -71 666 -37 Q730 -40 791 -40 Q856 -41 855 27 L855 818 L919 818 L919 17 Q921 -99 808 -102 Q743 -105 754 -104 Q739 -104 722 -104 Q708 -104 680 -104 ZM548 506 Q437 623 331 724 Q229 561 59 433 Q41 466 24 489 Q215 625 318 824 L385 813 L362 773 Q479 669 596 554 L548 506 ZM647 116 L647 715 L709 715 L709 116 L647 116 Z" /><glyph glyph-name="uni5229" unicode="&#x5229;" d="M37 457 L37 516 L256 516 L256 694 Q246 693 227 691 Q111 681 61 678 Q55 714 47 738 Q280 752 502 780 L518 722 Q455 713 320 700 L320 516 L540 516 L540 457 L320 457 L320 334 L349 363 Q436 293 545 195 L499 149 Q409 233 320 311 L320 -119 L256 -119 L256 347 Q184 177 53 43 Q47 66 24 121 Q174 257 252 457 L37 457 ZM665 -104 Q661 -66 650 -34 Q678 -37 790 -37 Q853 -39 851 29 L851 813 L915 813 L915 18 Q918 -97 805 -102 Q760 -103 665 -104 ZM607 113 L607 707 L670 707 L670 113 L607 113 Z" /><glyph glyph-name="uni522B" unicode="&#x522b;" d="M90 453 L90 767 L517 767 L517 453 L90 453 ZM254 -99 Q251 -64 243 -31 Q297 -34 355 -34 Q450 -41 452 58 Q459 173 460 264 L272 264 Q268 26 72 -121 Q52 -100 20 -73 Q205 59 208 264 L53 264 L53 322 L211 322 Q213 365 213 419 L277 419 Q277 365 275 322 L526 322 Q523 178 515 46 Q514 -100 372 -98 Q347 -99 320 -99 Q307 -99 292 -99 Q279 -99 254 -99 ZM655 -107 Q652 -75 643 -38 Q692 -41 768 -41 Q857 -46 852 32 L852 814 L918 814 L918 21 Q925 -104 790 -104 Q721 -107 655 -107 ZM154 708 L154 511 L453 511 L453 708 L154 708 ZM649 116 L649 715 L713 715 L713 116 L649 116 Z" /><glyph glyph-name="uni5230" unicode="&#x5230;" d="M42 704 L42 764 L580 764 L580 704 L308 704 Q236 587 152 476 Q312 485 448 491 Q415 546 374 605 L427 632 Q482 553 573 407 L517 375 Q510 387 496 410 Q486 428 481 437 Q313 430 182 420 Q134 417 85 407 L55 469 Q87 490 103 511 Q181 611 232 704 L42 704 ZM54 205 L54 263 L276 263 L276 380 L340 380 L340 263 L559 263 L559 205 L340 205 L340 15 L580 46 Q580 41 580 28 Q579 -2 580 -16 Q394 -37 43 -84 L30 -18 Q133 -8 276 8 L276 205 L54 205 ZM681 -104 Q673 -52 668 -35 Q696 -38 798 -38 Q861 -40 859 29 L859 813 L923 813 L923 18 Q927 -99 813 -102 Q764 -104 681 -104 ZM649 116 L649 715 L713 715 L713 116 L649 116 Z" /><glyph glyph-name="uni5236" unicode="&#x5236;" d="M27 411 L27 469 L303 469 L303 611 L147 611 Q126 559 97 508 Q70 523 43 535 Q114 656 141 777 L199 766 Q184 706 169 667 L303 667 L303 814 L366 814 L366 667 L573 667 L573 611 L366 611 L366 469 L615 469 L615 411 L366 411 L366 288 L577 288 L577 58 Q580 -36 490 -38 Q469 -39 418 -39 Q412 -10 404 20 Q437 18 471 18 Q522 14 517 65 L517 233 L366 233 L366 -124 L303 -124 L303 233 L156 233 L156 -52 L96 -52 L96 288 L303 288 L303 411 L27 411 ZM689 -107 Q685 -84 674 -38 Q729 -42 792 -42 Q865 -47 860 27 L860 814 L922 814 L922 21 Q926 -106 812 -106 Q785 -107 758 -107 Q744 -107 729 -107 Q715 -107 689 -107 ZM673 136 L673 719 L734 719 L734 136 L673 136 Z" /><glyph glyph-name="uni5237" unicode="&#x5237;" d="M68 -108 Q60 -100 33 -75 Q24 -67 21 -64 Q78 35 93 124 Q110 210 109 413 L109 767 L608 767 L608 517 L168 517 L168 413 Q169 202 149 107 Q131 7 68 -108 ZM391 -122 L391 328 L286 328 L286 -15 L230 -15 L230 384 L389 384 L389 475 L448 475 L448 384 L614 384 L614 84 Q616 -4 536 -6 Q516 -7 476 -7 Q472 20 464 52 Q483 50 523 50 Q561 47 558 93 L558 328 L446 328 L446 -122 L391 -122 ZM704 -105 Q702 -78 692 -40 Q732 -42 791 -42 Q863 -47 858 25 L858 817 L918 817 L918 12 Q922 -99 816 -102 Q778 -105 704 -105 ZM168 711 L168 572 L549 572 L549 711 L168 711 ZM703 132 L703 713 L760 713 L760 132 L703 132 Z" /><glyph glyph-name="uni523B" unicode="&#x523b;" d="M71 62 Q55 88 28 117 Q205 222 313 365 Q260 364 171 358 Q128 355 95 351 L73 409 Q100 431 125 461 Q184 528 238 627 L52 627 L52 686 L326 686 Q299 751 274 802 L335 822 Q355 783 389 704 Q391 700 392 698 L358 686 L593 686 L593 627 L312 627 Q234 506 160 411 Q227 415 353 421 Q394 482 431 557 L487 532 Q334 225 71 62 ZM683 -106 Q679 -71 670 -35 Q719 -38 780 -38 Q860 -42 856 37 L856 806 L920 806 L920 24 Q926 -98 803 -102 Q752 -106 683 -106 ZM115 -125 Q102 -106 70 -70 Q372 85 516 382 L572 357 Q503 222 421 125 Q531 27 613 -48 L564 -98 Q496 -26 382 81 Q281 -28 115 -125 ZM666 110 L666 705 L729 705 L729 110 L666 110 Z" /><glyph glyph-name="uni524D" unicode="&#x524d;" d="M97 -123 L97 513 L499 513 L499 -3 Q504 -102 395 -102 Q364 -103 282 -103 Q278 -66 271 -42 Q328 -44 382 -44 Q441 -48 437 9 L437 115 L159 115 L159 -123 L97 -123 ZM32 621 L32 677 L330 677 Q282 736 231 792 L287 822 Q326 782 397 701 L354 677 L593 677 Q659 749 712 819 L775 791 Q726 732 675 677 L968 677 L968 621 L32 621 ZM664 -103 L652 -37 Q695 -40 760 -40 Q842 -46 837 37 L837 542 L900 542 L900 23 Q906 -101 785 -101 Q743 -103 664 -103 ZM159 287 L159 169 L437 169 L437 287 L159 287 ZM159 458 L159 341 L437 341 L437 458 L159 458 ZM631 74 L631 496 L691 496 L691 74 L631 74 Z" /><glyph glyph-name="uni5267" unicode="&#x5267;" d="M213 -109 L213 220 L365 220 L365 339 L162 339 Q164 60 72 -100 Q52 -79 25 -55 Q74 40 88 133 Q104 224 103 428 L103 766 L585 766 L585 517 L163 517 L163 393 L365 393 L365 492 L425 492 L425 393 L620 393 L620 339 L425 339 L425 220 L575 220 L575 -109 L518 -109 L518 -51 L271 -51 L271 -109 L213 -109 ZM704 -105 Q702 -77 692 -41 Q733 -43 791 -43 Q863 -48 858 23 L858 818 L918 818 L918 13 Q922 -100 817 -103 Q778 -105 704 -105 ZM163 712 L163 570 L526 570 L526 712 L163 712 ZM271 167 L271 1 L518 1 L518 167 L271 167 ZM681 112 L681 708 L739 708 L739 112 L681 112 Z" /><glyph glyph-name="uni5272" unicode="&#x5272;" d="M97 -106 L97 179 L550 179 L550 -104 L491 -104 L491 -61 L156 -61 L156 -106 L97 -106 ZM77 526 L77 575 L293 575 L293 632 L352 632 L352 575 L573 575 L573 526 L352 526 L352 446 L546 446 L546 397 L352 397 L352 315 L602 315 L602 266 L352 266 L352 197 L293 197 L293 266 L48 266 L48 315 L293 315 L293 397 L103 397 L103 446 L293 446 L293 526 L77 526 ZM708 -105 Q704 -77 696 -41 Q718 -42 741 -43 Q762 -43 795 -43 Q867 -48 862 24 L862 818 L922 818 L922 14 Q926 -100 821 -103 Q781 -105 708 -105 ZM156 129 L156 -11 L491 -11 L491 129 L156 129 ZM45 615 L45 728 L290 728 L266 812 L328 822 Q331 812 336 792 Q348 752 354 728 L602 728 L602 615 L545 615 L545 677 L102 677 L102 615 L45 615 ZM682 108 L682 705 L741 705 L741 108 L682 108 Z" /><glyph glyph-name="uni529B" unicode="&#x529b;" d="M87 -115 Q80 -107 64 -88 Q45 -65 38 -58 Q380 133 381 513 Q381 524 383 536 L68 536 L68 601 L387 601 Q392 693 394 816 L464 816 Q463 703 457 601 L898 601 Q891 323 880 123 Q880 -94 687 -87 Q611 -89 515 -89 Q512 -53 502 -16 Q598 -19 675 -19 Q748 -20 777 16 Q807 50 812 144 Q823 359 825 536 L452 536 L452 527 Q446 89 87 -115 Z" /><glyph glyph-name="uni529E" unicode="&#x529e;" d="M86 -115 Q55 -80 37 -61 Q229 67 288 190 Q352 306 362 576 L71 576 L71 640 L365 640 Q370 771 370 820 L440 820 Q440 773 434 640 L786 640 Q779 337 767 110 Q768 -92 581 -86 Q516 -88 429 -88 Q425 -61 415 -25 Q414 -18 413 -15 Q478 -19 573 -19 Q643 -20 669 9 Q697 37 700 115 Q711 320 717 576 L431 576 Q438 82 86 -115 ZM90 169 Q55 190 28 203 Q102 319 158 466 L222 442 Q159 295 90 169 ZM920 195 Q868 304 797 431 L853 459 Q935 319 981 227 L920 195 Z" /><glyph glyph-name="uni529F" unicode="&#x529f;" d="M605 -100 Q601 -63 591 -29 Q637 -32 735 -32 Q843 -38 841 65 Q856 329 858 555 L615 555 L610 474 Q598 71 326 -121 Q322 -117 309 -106 Q278 -79 269 -72 Q538 98 544 476 L549 555 L419 555 L419 617 L552 617 Q556 748 556 815 L623 815 Q621 686 618 617 L927 617 Q919 287 907 61 Q907 -101 750 -99 Q708 -100 605 -100 ZM36 639 L36 701 L402 701 L402 639 L258 639 L258 175 Q352 198 404 212 Q405 182 409 146 Q279 115 43 50 L25 121 Q59 128 142 148 Q175 155 192 159 L192 639 L36 639 Z" /><glyph glyph-name="uni52A0" unicode="&#x52a0;" d="M580 -97 L580 696 L932 696 L932 -97 L866 -97 L866 1 L645 1 L645 -97 L580 -97 ZM69 -118 Q52 -103 15 -73 Q176 124 178 540 Q178 546 178 560 Q179 574 179 582 L46 582 L46 643 L181 643 Q182 675 182 716 Q182 736 182 760 Q182 780 182 819 L248 819 L246 643 L468 643 Q464 279 455 52 Q452 -96 325 -95 Q289 -97 223 -97 Q220 -64 211 -25 Q259 -28 306 -28 Q390 -34 390 60 Q400 262 401 582 L244 582 Q244 573 243 557 Q243 543 243 536 Q239 88 69 -118 ZM645 634 L645 63 L866 63 L866 634 L645 634 Z" /><glyph glyph-name="uni52A1" unicode="&#x52a1;" d="M54 320 Q50 329 38 351 Q28 370 23 379 Q282 415 438 476 Q339 535 252 638 Q177 563 90 494 Q67 523 44 543 Q222 670 330 826 L396 806 Q368 769 339 734 L846 734 L846 672 Q710 541 581 474 Q724 417 970 398 Q957 374 940 335 Q660 365 507 438 Q342 365 54 320 ZM502 -104 Q501 -76 491 -35 Q531 -38 612 -39 Q633 -39 644 -39 Q762 -49 765 78 Q770 131 773 205 L434 205 Q407 -24 78 -127 Q64 -105 35 -68 Q342 23 366 205 L99 205 L99 263 L377 263 Q383 308 386 363 L453 363 Q452 354 451 337 Q447 286 444 263 L845 263 Q842 220 836 138 Q833 96 832 76 Q825 -25 787 -61 Q751 -98 652 -102 Q597 -104 502 -104 ZM761 677 L296 677 Q394 567 509 506 Q639 567 761 677 Z" /><glyph glyph-name="uni52A8" unicode="&#x52a8;" d="M472 -123 Q450 -103 415 -79 Q613 111 615 477 L618 558 L477 558 L477 619 L619 619 Q622 713 622 820 L687 820 Q687 726 684 619 L942 619 Q934 230 926 58 Q919 -95 787 -96 Q763 -97 736 -97 Q722 -97 706 -97 Q692 -97 663 -97 Q655 -60 643 -23 Q714 -28 771 -28 Q857 -31 859 66 Q873 356 874 558 L682 558 L679 473 Q678 98 472 -123 ZM31 407 L31 467 L482 467 L482 407 L267 407 Q189 212 119 74 Q133 75 161 77 Q297 87 374 95 Q333 188 297 263 L354 286 Q410 174 477 22 L415 -1 L398 39 Q250 28 125 15 Q91 12 57 2 L30 60 Q59 83 81 128 Q147 269 195 407 L31 407 ZM73 679 L73 740 L443 740 L443 679 L73 679 Z" /><glyph glyph-name="uni52A9" unicode="&#x52a9;" d="M36 -26 L26 39 L103 47 L103 757 L433 757 L433 88 L494 97 L492 35 Q278 9 36 -26 ZM468 -122 Q446 -96 419 -72 Q612 88 614 463 L617 554 L501 554 L501 613 L619 613 Q621 678 623 813 L686 813 Q686 805 686 787 Q684 676 682 613 L921 613 Q914 248 904 32 Q901 -102 779 -101 Q718 -103 653 -103 Q648 -67 638 -37 Q704 -40 757 -40 Q838 -41 842 39 Q854 328 858 554 L680 554 L676 461 Q673 65 468 -122 ZM164 54 Q201 58 278 68 Q341 76 372 80 L372 248 L164 248 L164 54 ZM164 701 L164 527 L372 527 L372 701 L164 701 ZM164 474 L164 301 L372 301 L372 474 L164 474 Z" /><glyph glyph-name="uni52BF" unicode="&#x52bf;" d="M522 -99 Q516 -66 505 -28 Q581 -33 668 -33 Q779 -37 781 42 Q788 101 791 166 L451 166 Q427 -44 77 -124 Q57 -86 38 -59 Q358 0 383 166 L90 166 L90 223 L393 223 Q396 250 397 282 L465 282 Q463 250 460 223 L861 223 Q855 109 848 35 Q844 -101 678 -98 Q676 -98 654 -98 Q560 -99 522 -99 ZM382 290 Q362 315 339 338 Q466 400 510 474 Q487 488 443 513 Q425 522 417 527 L448 570 L534 524 Q552 570 558 647 L439 647 L439 702 L562 702 Q564 781 564 822 L627 822 Q625 746 623 702 L820 702 Q819 502 829 422 Q840 357 879 355 Q901 356 910 394 Q919 440 924 509 Q943 501 972 491 Q967 425 955 374 Q936 294 876 293 Q791 298 771 410 Q761 482 761 647 L619 647 Q612 560 587 495 L709 424 L673 372 L561 443 Q514 364 382 290 ZM58 641 L58 694 L207 694 L207 822 L269 822 L269 694 L381 694 L381 641 L269 641 L269 535 Q313 542 383 557 Q383 533 384 508 Q384 503 384 502 Q330 493 269 481 L269 388 Q273 285 172 286 Q119 284 85 284 Q80 315 72 345 Q112 342 157 342 Q210 339 207 394 L207 469 L62 438 L49 497 Q135 510 207 523 L207 641 L58 641 Z" /><glyph glyph-name="uni5300" unicode="&#x5300;" d="M87 389 Q81 395 83 393 Q44 430 32 440 Q199 602 288 820 L358 800 Q325 730 292 671 L902 671 Q898 421 885 106 Q882 -106 685 -101 Q604 -102 489 -102 Q486 -74 475 -29 Q592 -33 672 -33 Q750 -34 781 0 Q813 32 817 119 Q826 326 832 608 L255 608 Q190 501 87 389 ZM109 38 L78 111 Q367 185 734 302 Q733 283 736 239 Q737 233 737 230 Q435 143 109 38 ZM483 303 Q395 378 258 478 L304 521 Q427 438 532 353 L483 303 Z" /><glyph glyph-name="uni5316" unicode="&#x5316;" d="M334 166 Q324 184 293 227 Q422 289 526 359 L526 803 L595 803 L595 409 Q751 527 872 686 L929 646 Q781 462 595 326 L595 63 Q589 -28 684 -22 L784 -22 Q872 -24 884 44 Q894 95 906 213 L973 190 Q962 88 949 19 Q930 -90 790 -87 L666 -87 Q521 -93 526 55 L526 278 Q436 218 334 166 ZM59 269 Q47 295 24 338 Q23 341 22 342 Q188 535 291 811 L359 790 Q307 667 242 547 L242 -119 L177 -119 L177 436 Q122 349 59 269 Z" /><glyph glyph-name="uni5339" unicode="&#x5339;" d="M102 -73 L102 752 L948 752 L948 689 L694 689 L694 290 Q689 219 759 224 L787 224 Q855 221 864 281 Q872 327 879 401 Q912 387 941 378 Q941 374 940 367 Q930 290 923 256 Q906 157 796 161 L743 161 Q624 156 629 282 L629 689 L458 689 Q458 550 449 457 Q441 251 256 125 Q244 141 209 175 Q379 288 385 467 Q391 538 393 689 L168 689 L168 -9 L964 -9 L964 -73 L102 -73 Z" /><glyph glyph-name="uni533A" unicode="&#x533a;" d="M104 -65 L104 754 L922 754 L922 691 L169 691 L169 -1 L938 -1 L938 -65 L104 -65 ZM802 68 Q669 199 563 300 Q433 169 287 56 Q261 86 236 110 Q382 209 516 345 Q402 452 268 574 L316 616 Q449 496 562 393 Q669 508 759 634 L818 597 Q721 466 610 349 Q616 344 627 333 Q785 188 858 119 L802 68 Z" /><glyph glyph-name="uni533F" unicode="&#x533f;" d="M203 380 L203 433 L449 433 Q482 475 509 522 L568 504 Q544 466 520 433 L925 433 L925 380 L479 380 Q440 332 395 290 L822 290 L822 62 L347 62 L347 248 Q291 202 216 155 Q196 191 183 208 Q313 277 405 380 L203 380 ZM84 -87 L84 783 L950 783 L950 727 L148 727 L148 -30 L958 -30 L958 -87 L84 -87 ZM217 562 L217 615 L377 615 L377 688 L439 688 L439 615 L681 615 L681 688 L743 688 L743 615 L921 615 L921 562 L743 562 L743 495 L681 495 L681 562 L439 562 L439 495 L377 495 L377 562 L217 562 ZM409 239 L409 113 L760 113 L760 239 L409 239 Z" /><glyph glyph-name="uni5341" unicode="&#x5341;" d="M34 389 L34 459 L463 459 L463 817 L535 817 L535 459 L965 459 L965 389 L535 389 L535 -122 L463 -122 L463 389 L34 389 Z" /><glyph glyph-name="uni5347" unicode="&#x5347;" d="M72 647 Q68 671 60 711 Q317 726 562 761 L576 698 Q570 697 559 696 Q427 679 349 671 L349 404 L674 404 L674 816 L742 816 L742 404 L969 404 L969 341 L742 341 L742 -116 L674 -116 L674 341 L349 341 Q366 31 94 -124 Q76 -101 43 -68 Q291 59 280 341 L31 341 L31 404 L281 404 L281 665 Q232 660 130 652 Q92 649 72 647 Z" /><glyph glyph-name="uni5353" unicode="&#x5353;" d="M163 211 L163 591 L446 591 L446 823 L512 823 L512 738 L915 738 L915 682 L512 682 L512 591 L836 591 L836 211 L533 211 L533 108 L965 108 L965 50 L533 50 L533 -122 L466 -122 L466 50 L34 50 L34 108 L466 108 L466 211 L163 211 ZM230 376 L230 266 L770 266 L770 376 L230 376 ZM230 536 L230 428 L770 428 L770 536 L230 536 Z" /><glyph glyph-name="uni5355" unicode="&#x5355;" d="M123 249 L123 672 L337 672 Q307 710 244 778 Q235 787 231 791 L284 826 Q366 744 396 707 L342 672 L593 672 Q633 724 703 824 L766 795 Q732 749 670 672 L876 672 L876 249 L532 249 L532 133 L969 133 L969 73 L532 73 L532 -126 L466 -126 L466 73 L29 73 L29 133 L466 133 L466 249 L123 249 ZM532 434 L532 306 L811 306 L811 434 L532 434 ZM188 434 L188 306 L466 306 L466 434 L188 434 ZM811 615 L532 615 L532 488 L811 488 L811 615 ZM188 615 L188 488 L466 488 L466 615 L188 615 Z" /><glyph glyph-name="uni5360" unicode="&#x5360;" d="M141 -123 L141 379 L438 379 L438 813 L507 813 L507 651 L950 651 L950 589 L507 589 L507 379 L856 379 L856 -123 L789 -123 L789 -48 L209 -48 L209 -123 L141 -123 ZM209 317 L209 14 L789 14 L789 317 L209 317 Z" /><glyph glyph-name="uni5361" unicode="&#x5361;" d="M38 385 L38 447 L421 447 L421 822 L490 822 L490 678 L899 678 L899 617 L490 617 L490 447 L963 447 L963 385 L38 385 ZM863 33 Q677 135 490 226 L490 -123 L421 -123 L421 351 L490 351 L490 232 L523 279 Q737 175 903 92 L863 33 Z" /><glyph glyph-name="uni5370" unicode="&#x5370;" d="M521 -121 L521 750 L920 750 L920 173 Q921 54 802 50 Q748 48 670 48 Q664 88 656 117 Q715 114 776 114 Q857 112 854 186 L854 687 L588 687 L588 -121 L521 -121 ZM102 -18 L56 39 Q85 72 84 124 L84 742 Q262 773 435 822 L461 762 Q295 719 150 692 L150 460 L440 460 L440 397 L150 397 L150 81 Q264 120 444 179 Q445 143 449 110 Q294 63 164 14 Q133 4 102 -18 Z" /><glyph glyph-name="uni5373" unicode="&#x5373;" d="M475 -28 Q446 15 402 76 Q247 4 164 -41 Q137 -55 104 -78 L62 -24 Q92 6 90 54 L90 760 L464 760 L464 294 L154 294 L154 22 Q197 42 327 107 Q354 121 366 127 L298 219 L350 248 Q434 140 529 7 L475 -28 ZM587 -123 L587 742 L916 742 L916 161 Q923 44 801 42 Q780 41 759 40 Q742 40 704 40 Q699 73 691 106 Q734 104 778 104 Q859 99 853 173 L853 681 L650 681 L650 -123 L587 -123 ZM154 352 L402 352 L402 499 L154 499 L154 352 ZM154 702 L154 556 L402 556 L402 702 L154 702 Z" /><glyph glyph-name="uni538B" unicode="&#x538b;" d="M295 348 L295 412 L558 412 L558 623 L626 623 L626 412 L926 412 L926 348 L626 348 L626 -2 L966 -2 L966 -66 L225 -66 L225 -2 L558 -2 L558 348 L295 348 ZM85 -113 Q64 -94 26 -67 Q96 36 117 128 Q140 219 139 408 L139 752 L961 752 L961 688 L207 688 L207 424 Q208 208 183 106 Q161 1 85 -113 ZM851 83 Q809 138 724 232 L773 269 Q839 201 906 124 L851 83 Z" /><glyph glyph-name="uni539A" unicode="&#x539a;" d="M297 352 L297 634 L881 634 L881 352 L297 352 ZM206 55 L206 107 L588 107 L588 146 L779 220 L290 220 L290 271 L884 271 L884 213 L653 120 L653 107 L966 107 L966 55 L653 55 L653 -20 Q655 -110 549 -111 Q506 -114 421 -114 Q415 -79 408 -54 Q466 -57 529 -57 Q590 -59 588 -7 L588 55 L206 55 ZM75 -123 Q52 -102 23 -79 Q78 19 96 120 Q115 222 115 411 L115 765 L964 765 L964 711 L177 711 L177 406 Q184 53 75 -123 ZM359 470 L359 402 L819 402 L819 470 L359 470 ZM359 585 L359 517 L819 517 L819 585 L359 585 Z" /><glyph glyph-name="uni539F" unicode="&#x539f;" d="M76 -121 Q65 -109 42 -93 Q28 -83 22 -77 Q83 16 103 119 Q125 217 124 413 L124 762 L961 762 L961 704 L603 704 L563 587 L886 587 L886 214 L639 214 L639 -2 Q639 -105 534 -108 Q490 -111 417 -111 Q413 -87 402 -47 Q465 -50 513 -50 Q578 -51 576 7 L576 214 L302 214 L302 587 L497 587 L532 704 L187 704 L187 406 Q188 202 166 104 Q145 -1 76 -121 ZM365 531 L365 426 L823 426 L823 531 L365 531 ZM365 374 L365 270 L823 270 L823 374 L365 374 ZM237 -80 Q211 -50 194 -33 Q303 52 395 159 L445 120 Q353 22 237 -80 ZM923 -73 Q831 22 729 115 L773 155 Q878 62 970 -27 L923 -73 Z" /><glyph glyph-name="uni53C2" unicode="&#x53c2;" d="M50 432 L50 486 L369 486 Q401 522 432 565 L495 546 Q473 513 450 486 L949 486 L949 432 L670 432 Q776 314 969 250 Q944 216 932 193 Q716 277 598 432 L403 432 Q293 305 62 208 Q43 238 26 261 Q213 336 316 432 L50 432 ZM830 536 L771 582 Q386 580 234 575 Q199 574 153 569 L127 630 Q174 646 218 673 Q325 739 430 827 L502 798 Q364 702 247 629 L700 634 Q614 698 575 724 L619 764 Q757 669 874 583 L830 536 ZM133 -129 Q124 -103 107 -71 Q486 -11 814 156 L853 111 Q529 -63 133 -129 ZM176 26 Q167 48 148 79 Q451 143 688 264 L727 219 Q443 80 176 26 ZM204 175 Q198 187 182 213 Q177 222 174 227 Q381 277 582 372 L620 329 Q414 228 204 175 Z" /><glyph glyph-name="uni53CA" unicode="&#x53ca;" d="M272 -126 Q246 -84 230 -60 Q421 9 541 102 Q407 230 318 470 Q292 123 76 -109 Q51 -82 23 -59 Q241 163 254 521 Q261 603 262 693 L81 693 L81 756 L773 756 L773 686 L668 490 L861 490 L861 426 Q773 220 646 101 Q767 9 965 -42 Q944 -77 926 -111 Q721 -44 595 55 Q474 -42 272 -126 ZM332 693 Q330 642 327 594 L330 599 Q439 287 593 146 Q714 257 785 428 L590 428 L590 490 L700 693 L332 693 Z" /><glyph glyph-name="uni53CB" unicode="&#x53cb;" d="M919 -119 Q708 -59 582 36 Q448 -55 230 -126 Q214 -92 192 -59 Q401 0 528 81 Q404 195 338 394 L324 394 Q237 123 63 -77 Q59 -72 52 -62 Q30 -32 18 -18 Q233 215 312 612 L54 612 L54 675 L325 675 Q337 746 346 822 L414 816 Q404 743 392 675 L960 675 L960 612 L380 612 Q363 530 342 455 L855 455 L855 395 Q785 199 638 78 Q752 1 956 -50 Q935 -83 919 -119 ZM782 394 L403 394 Q468 217 583 119 Q722 225 782 394 Z" /><glyph glyph-name="uni53CC" unicode="&#x53cc;" d="M930 -105 Q774 -6 688 110 Q590 -16 399 -124 Q381 -95 354 -65 Q547 39 649 165 Q520 352 489 684 L461 684 L461 747 L913 747 L913 683 Q860 333 730 164 Q818 43 976 -44 Q956 -65 930 -105 ZM390 13 L284 186 Q211 51 74 -91 Q70 -86 60 -76 Q36 -50 25 -39 Q174 115 243 251 Q182 350 48 556 L103 591 Q208 430 276 323 Q333 459 360 684 L38 684 L38 746 L426 746 L426 683 Q393 421 318 257 Q335 231 367 179 Q420 95 447 53 L390 13 ZM846 684 L551 684 Q584 380 691 220 Q803 373 846 684 Z" /><glyph glyph-name="uni53D1" unicode="&#x53d1;" d="M71 544 L71 613 Q110 694 140 786 L206 770 Q174 685 138 604 L359 604 Q387 717 403 822 L471 814 Q452 706 427 604 L966 604 L966 544 L411 544 Q393 474 369 408 L855 408 L855 352 Q784 178 648 70 Q763 -3 960 -45 Q942 -74 924 -114 Q710 -55 590 30 Q473 -45 231 -124 Q214 -88 193 -58 Q419 1 535 71 Q409 176 345 347 Q250 115 63 -76 Q36 -34 20 -16 Q256 216 343 544 L71 544 ZM783 350 L410 350 Q471 201 592 109 Q724 208 783 350 ZM798 642 Q715 711 639 764 L679 808 Q760 752 842 691 L798 642 Z" /><glyph glyph-name="uni53D6" unicode="&#x53d6;" d="M46 715 L46 772 L487 772 L487 715 L432 715 L432 154 L523 169 Q523 141 525 110 L432 96 L432 -121 L371 -121 L371 86 Q209 61 32 30 L24 94 Q48 97 96 103 Q102 104 106 105 L106 715 L46 715 ZM927 -104 Q798 7 728 105 Q649 -1 507 -118 Q504 -114 498 -106 Q476 -78 463 -64 Q609 46 691 161 Q578 341 545 670 L514 670 L514 729 L926 729 L926 668 Q882 337 766 161 Q837 55 972 -48 L927 -104 ZM861 670 L607 670 Q637 382 729 221 Q826 384 861 670 ZM168 114 Q211 120 299 133 Q347 140 371 144 L371 294 L168 294 L168 114 ZM168 715 L168 558 L371 558 L371 715 L168 715 ZM168 504 L168 347 L371 347 L371 504 L168 504 Z" /><glyph glyph-name="uni53D7" unicode="&#x53d7;" d="M933 -112 Q648 -70 501 8 Q342 -74 69 -126 Q54 -93 35 -62 Q284 -22 435 47 Q323 123 236 269 L173 269 L173 327 L786 327 L786 263 Q699 129 568 46 Q704 -17 966 -45 Q954 -68 933 -112 ZM59 320 L59 501 L651 501 Q703 576 770 688 L835 663 Q777 576 724 501 L938 501 L938 320 L872 320 L872 443 L125 443 L125 320 L59 320 ZM105 702 Q98 739 91 764 Q499 765 879 792 L895 732 Q527 710 105 702 ZM711 269 L311 269 Q396 144 501 81 Q626 153 711 269 ZM495 524 Q465 599 432 664 L494 684 Q528 616 557 545 L495 524 ZM237 515 Q190 592 154 646 L214 670 Q257 605 295 542 L237 515 Z" /><glyph glyph-name="uni53D8" unicode="&#x53d8;" d="M931 -114 Q645 -73 498 5 Q341 -73 72 -125 Q52 -86 37 -62 Q288 -20 433 45 Q325 118 234 258 L142 258 L142 317 L792 317 L792 253 Q694 120 567 43 Q710 -22 962 -48 Q944 -82 931 -114 ZM43 636 L43 696 L492 696 Q465 773 448 809 L514 824 Q532 784 561 707 L523 696 L954 696 L954 636 L645 636 L645 380 L582 380 L582 636 L415 636 L415 378 L352 378 L352 636 L43 636 ZM714 258 L309 258 Q393 140 500 78 Q622 145 714 258 ZM913 336 Q819 434 725 523 L770 564 Q862 481 962 382 L913 336 ZM78 340 Q54 367 33 386 Q127 463 214 567 L262 524 Q180 431 78 340 Z" /><glyph glyph-name="uni53E3" unicode="&#x53e3;" d="M118 -84 L118 725 L881 725 L881 -84 L812 -84 L812 10 L188 10 L188 -84 L118 -84 ZM188 661 L188 74 L812 74 L812 661 L188 661 Z" /><glyph glyph-name="uni53EF" unicode="&#x53ef;" d="M135 62 L135 527 L550 527 L550 138 L201 138 L201 62 L135 62 ZM30 683 L30 746 L972 746 L972 683 L815 683 L815 29 Q819 -102 683 -102 Q656 -103 621 -104 Q605 -104 583 -104 Q565 -104 527 -104 Q524 -75 515 -35 Q571 -38 660 -38 Q755 -45 749 48 L749 683 L30 683 ZM201 468 L201 198 L484 198 L484 468 L201 468 Z" /><glyph glyph-name="uni53F7" unicode="&#x53f7;" d="M172 503 L172 777 L824 777 L824 503 L172 503 ZM26 339 L26 401 L973 401 L973 339 L299 339 L261 226 L840 226 Q832 112 823 42 Q815 -103 626 -103 Q589 -104 542 -105 Q519 -105 490 -105 Q465 -105 417 -105 Q412 -71 403 -33 Q491 -37 614 -37 Q750 -43 755 54 Q762 98 766 167 L172 167 L229 339 L26 339 ZM239 718 L239 563 L757 563 L757 718 L239 718 Z" /><glyph glyph-name="uni53F8" unicode="&#x53f8;" d="M132 -7 L132 390 L646 390 L646 64 L199 64 L199 -7 L132 -7 ZM579 123 L579 331 L199 331 L199 123 L579 123 ZM38 518 L38 578 L756 578 L756 518 L38 518 ZM617 -111 Q613 -81 602 -39 Q646 -41 681 -42 Q715 -43 764 -43 Q852 -45 850 39 L850 709 L91 709 L91 770 L917 770 L917 32 Q919 -109 788 -109 Q755 -110 717 -111 Q699 -111 676 -111 Q657 -111 617 -111 Z" /><glyph glyph-name="uni5403" unicode="&#x5403;" d="M63 38 L63 730 L334 730 L334 50 L274 50 L274 123 L124 123 L124 38 L63 38 ZM556 -91 Q431 -88 426 6 Q426 55 466 104 Q570 234 761 406 L463 406 L463 467 L850 467 L850 403 Q642 215 525 77 Q495 40 494 13 Q493 -32 580 -31 L783 -31 Q880 -33 892 50 Q901 110 909 193 Q937 182 973 172 Q964 93 953 29 Q933 -93 804 -91 L556 -91 ZM124 671 L124 183 L274 183 L274 671 L124 671 ZM411 452 Q395 471 363 495 Q474 639 548 822 L614 805 Q587 746 557 690 L961 690 L961 629 L525 629 Q471 535 411 452 Z" /><glyph glyph-name="uni5404" unicode="&#x5404;" d="M172 -120 L172 262 L824 262 L824 -120 L758 -120 L758 -63 L237 -63 L237 -120 L172 -120 ZM53 271 Q42 302 25 335 Q285 376 443 446 Q340 509 250 622 Q180 543 94 469 Q73 497 52 519 Q215 646 322 826 L390 810 Q387 806 383 799 Q361 765 331 724 L831 724 L831 654 Q712 521 580 446 Q727 381 965 353 Q963 350 960 343 Q950 321 937 288 Q657 333 510 408 Q338 325 53 271 ZM237 203 L237 -4 L758 -4 L758 203 L237 203 ZM755 665 L292 665 Q394 545 512 480 Q646 549 755 665 Z" /><glyph glyph-name="uni5408" unicode="&#x5408;" d="M163 -122 L163 296 L831 296 L831 -122 L765 -122 L765 -60 L229 -60 L229 -122 L163 -122 ZM229 236 L229 0 L765 0 L765 236 L229 236 ZM928 409 Q644 544 502 732 Q354 550 68 397 Q47 431 29 457 Q341 609 490 827 L565 816 L539 780 Q703 577 967 473 Q949 445 928 409 ZM226 428 L226 488 L771 488 L771 428 L226 428 Z" /><glyph glyph-name="uni540C" unicode="&#x540c;" d="M90 -110 L90 769 L907 769 L907 22 Q914 -104 786 -103 Q749 -104 718 -105 Q703 -105 687 -105 Q673 -105 645 -105 Q642 -78 632 -36 Q661 -38 734 -38 Q753 -38 763 -38 Q848 -44 842 34 L842 708 L155 708 L155 -110 L90 -110 ZM300 92 L300 396 L698 396 L698 92 L300 92 ZM363 337 L363 151 L635 151 L635 337 L363 337 ZM226 520 L226 580 L771 580 L771 520 L226 520 Z" /><glyph glyph-name="uni540E" unicode="&#x540e;" d="M308 -115 L308 306 L877 306 L877 -114 L811 -114 L811 -53 L373 -53 L373 -115 L308 -115 ZM81 -116 L25 -69 Q94 41 116 146 Q141 250 140 445 L140 738 Q526 747 887 791 L913 724 Q519 687 206 675 L206 531 L964 531 L964 469 L206 469 L206 446 Q207 241 181 132 Q158 22 81 -116 ZM373 244 L373 9 L811 9 L811 244 L373 244 Z" /><glyph glyph-name="uni542F" unicode="&#x542f;" d="M76 -120 Q59 -103 22 -73 Q89 35 109 134 Q131 231 130 433 L130 711 L511 711 Q490 774 474 811 L544 826 Q549 811 565 766 Q579 729 585 711 L917 711 L917 432 L196 432 Q196 222 171 113 Q148 0 76 -120 ZM280 -121 L280 280 L907 280 L907 -121 L841 -121 L841 -53 L346 -53 L346 -121 L280 -121 ZM346 222 L346 5 L841 5 L841 222 L346 222 ZM196 653 L196 490 L850 490 L850 653 L196 653 Z" /><glyph glyph-name="uni5448" unicode="&#x5448;" d="M154 486 L154 767 L844 767 L844 486 L154 486 ZM83 321 L83 378 L914 378 L914 321 L532 321 L532 182 L862 182 L862 127 L532 127 L532 -23 L958 -23 L958 -80 L40 -80 L40 -23 L466 -23 L466 127 L137 127 L137 182 L466 182 L466 321 L83 321 ZM221 710 L221 543 L777 543 L777 710 L221 710 Z" /><glyph glyph-name="uni544A" unicode="&#x544a;" d="M163 -122 L163 264 L844 264 L844 -122 L778 -122 L778 -60 L230 -60 L230 -122 L163 -122 ZM139 478 Q111 496 79 511 Q183 643 233 794 L298 780 Q277 722 253 671 L487 671 L487 823 L554 823 L554 671 L898 671 L898 611 L554 611 L554 443 L970 443 L970 382 L36 382 L36 443 L487 443 L487 611 L223 611 Q186 540 139 478 ZM230 204 L230 0 L778 0 L778 204 L230 204 Z" /><glyph glyph-name="uni5457" unicode="&#x5457;" d="M75 -4 L75 724 L324 724 L324 84 L135 84 L135 -4 L75 -4 ZM424 167 L424 761 L912 761 L912 167 L848 167 L848 701 L488 701 L488 167 L424 167 ZM930 -110 Q756 42 661 121 Q607 -25 346 -127 Q326 -95 302 -67 Q504 6 567 92 Q636 172 636 357 Q637 399 638 455 Q638 482 638 515 Q638 544 638 601 L702 601 Q702 504 702 455 Q701 399 700 355 Q697 228 673 154 L693 174 Q872 32 978 -57 L930 -110 ZM135 665 L135 143 L264 143 L264 665 L135 665 Z" /><glyph glyph-name="uni5468" unicode="&#x5468;" d="M77 -123 Q43 -96 21 -82 Q79 14 96 111 Q116 208 115 409 L115 780 L922 780 L922 29 Q928 -105 795 -106 Q770 -107 739 -108 Q724 -108 705 -108 Q689 -108 659 -108 Q654 -79 641 -39 Q728 -43 779 -43 Q862 -48 857 33 L857 724 L180 724 L180 405 Q181 197 159 92 Q139 -15 77 -123 ZM311 33 L311 286 L722 286 L722 33 L311 33 ZM284 544 L284 598 L486 598 L486 692 L549 692 L549 598 L754 598 L754 544 L549 544 L549 434 L795 434 L795 379 L242 379 L242 434 L486 434 L486 544 L284 544 ZM658 88 L658 232 L373 232 L373 88 L658 88 Z" /><glyph glyph-name="uni5473" unicode="&#x5473;" d="M399 594 L399 652 L607 652 L607 819 L670 819 L670 652 L893 652 L893 594 L670 594 L670 430 L943 430 L943 372 L703 372 Q794 156 979 27 Q949 -7 931 -32 Q747 119 670 342 L670 -124 L607 -124 L607 342 Q516 89 327 -51 Q302 -20 276 4 Q475 139 574 372 L361 372 L361 430 L607 430 L607 594 L399 594 ZM77 27 L77 719 L324 719 L324 104 L137 104 L137 27 L77 27 ZM137 660 L137 164 L265 164 L265 660 L137 660 Z" /><glyph glyph-name="uni548C" unicode="&#x548c;" d="M519 -93 L519 710 L928 710 L928 -91 L863 -91 L863 3 L584 3 L584 -93 L519 -93 ZM584 649 L584 64 L863 64 L863 649 L584 649 ZM39 468 L39 528 L217 528 L217 691 Q138 685 58 680 Q52 712 44 741 Q240 750 424 771 L439 710 L280 695 L280 528 L453 528 L453 468 L280 468 L280 333 L308 361 Q373 305 455 225 L410 176 Q344 246 280 307 L280 -118 L217 -118 L217 358 Q158 199 52 66 Q39 102 21 138 Q143 279 209 468 L39 468 Z" /><glyph glyph-name="uni54C1" unicode="&#x54c1;" d="M171 439 L171 778 L828 778 L828 439 L171 439 ZM566 -121 L566 316 L923 316 L923 -120 L860 -120 L860 -57 L629 -57 L629 -121 L566 -121 ZM76 -121 L76 316 L431 316 L431 -121 L368 -121 L368 -57 L138 -57 L138 -121 L76 -121 ZM237 717 L237 499 L762 499 L762 717 L237 717 ZM629 257 L629 1 L860 1 L860 257 L629 257 ZM138 257 L138 1 L368 1 L368 257 L138 257 Z" /><glyph glyph-name="uni54CD" unicode="&#x54cd;" d="M72 16 L72 701 L295 701 L295 31 L239 31 L239 105 L130 105 L130 16 L72 16 ZM388 -120 L388 684 L559 684 Q578 756 593 823 L658 814 Q643 752 622 684 L915 684 L915 5 Q919 -105 814 -107 Q769 -109 707 -109 Q701 -79 692 -48 Q759 -50 795 -50 Q860 -54 856 16 L856 627 L447 627 L447 -120 L388 -120 ZM531 106 L531 495 L771 495 L771 106 L531 106 ZM130 646 L130 161 L239 161 L239 646 L130 646 ZM585 440 L585 161 L717 161 L717 440 L585 440 Z" /><glyph glyph-name="uni552E" unicode="&#x552e;" d="M148 225 L148 571 Q106 520 57 469 Q40 503 24 527 Q164 664 236 824 L300 807 Q273 755 244 707 L545 707 Q527 739 487 807 L548 829 Q550 826 553 820 Q594 755 611 724 L567 707 L932 707 L932 658 L593 658 L593 576 L902 576 L902 528 L593 528 L593 444 L902 444 L902 397 L593 397 L593 313 L951 313 L951 264 L212 264 L212 225 L148 225 ZM143 -122 L143 175 L867 175 L867 -122 L802 -122 L802 -74 L208 -74 L208 -122 L143 -122 ZM208 125 L208 -23 L802 -23 L802 125 L208 125 ZM212 528 L212 444 L529 444 L529 528 L212 528 ZM212 397 L212 313 L529 313 L529 397 L212 397 ZM212 658 L212 576 L529 576 L529 658 L212 658 Z" /><glyph glyph-name="uni5546" unicode="&#x5546;" d="M99 -122 L99 512 L338 512 Q328 525 304 561 Q272 608 257 628 L314 653 Q366 586 401 535 L347 512 L579 512 Q605 550 656 626 Q668 645 674 654 L735 629 Q708 587 652 512 L894 512 L894 11 Q899 -103 782 -101 Q758 -102 731 -102 Q719 -102 703 -102 Q690 -102 661 -102 Q658 -75 647 -38 Q684 -40 705 -41 Q728 -42 762 -42 Q835 -46 831 21 L831 457 L162 457 L162 -122 L99 -122 ZM312 21 L312 278 L685 278 L685 21 L312 21 ZM32 656 L32 712 L481 712 Q468 754 448 808 L515 823 Q532 780 554 712 L968 712 L968 656 L32 656 ZM626 74 L626 225 L371 225 L371 74 L626 74 ZM226 242 Q213 265 188 290 Q313 364 397 436 L442 395 Q332 310 226 242 ZM770 248 Q676 318 555 394 L592 435 Q690 376 807 297 L770 248 Z" /><glyph glyph-name="uni5584" unicode="&#x5584;" d="M74 655 L74 706 L337 706 Q281 768 251 798 L307 826 Q312 821 322 811 Q380 754 402 728 L363 706 L578 706 Q632 764 683 824 L744 798 Q714 764 658 706 L927 706 L927 655 L531 655 L531 579 L881 579 L881 528 L531 528 L531 451 L952 451 L952 400 L531 400 L531 283 L654 283 Q702 341 744 398 L803 370 Q763 321 729 283 L968 283 L968 232 L30 232 L30 283 L276 283 Q237 326 192 373 L239 400 L46 400 L46 451 L467 451 L467 528 L116 528 L116 579 L467 579 L467 655 L74 655 ZM148 -122 L148 148 L848 148 L848 -122 L784 -122 L784 -76 L212 -76 L212 -122 L148 -122 ZM212 97 L212 -24 L784 -24 L784 97 L212 97 ZM341 302 L309 283 L467 283 L467 400 L248 400 Q254 393 269 379 Q321 326 341 302 Z" /><glyph glyph-name="uni5668" unicode="&#x5668;" d="M55 380 L55 431 L450 431 Q458 454 463 507 L526 507 Q522 465 515 431 L700 431 Q684 462 665 494 L721 511 L763 431 L950 431 L950 380 L567 380 Q652 265 970 259 Q951 227 943 201 Q578 221 503 380 L495 380 Q457 245 53 194 Q45 214 28 248 Q27 250 27 251 Q388 290 427 380 L55 380 ZM828 -120 L828 -72 L614 -72 L614 -119 L555 -119 L555 176 L887 176 L887 -120 L828 -120 ZM107 -120 L107 176 L437 176 L437 -119 L378 -119 L378 -72 L166 -72 L166 -120 L107 -120 ZM555 527 L555 768 L884 768 L884 527 L555 527 ZM106 527 L106 768 L433 768 L433 527 L106 527 ZM614 126 L614 -21 L828 -21 L828 126 L614 126 ZM166 126 L166 -21 L378 -21 L378 126 L166 126 ZM614 718 L614 577 L825 577 L825 718 L614 718 ZM165 718 L165 577 L375 577 L375 718 L165 718 Z" /><glyph glyph-name="uni566A" unicode="&#x566a;" d="M63 -13 L63 733 L283 733 L283 58 L120 58 L120 -13 L63 -13 ZM325 153 L325 206 L609 206 L609 277 L666 277 L666 206 L959 206 L959 153 L708 153 Q811 32 980 -28 Q968 -45 949 -78 Q946 -84 944 -87 Q757 1 666 141 L666 -121 L609 -121 L609 141 Q513 -7 317 -93 Q301 -65 280 -37 Q458 27 566 153 L325 153 ZM416 571 L416 779 L855 779 L855 571 L416 571 ZM120 676 L120 115 L229 115 L229 676 L120 676 ZM676 294 L676 499 L923 499 L923 294 L676 294 ZM350 294 L350 499 L594 499 L594 294 L350 294 ZM475 727 L475 621 L796 621 L796 727 L475 727 ZM729 451 L729 342 L870 342 L870 451 L729 451 ZM403 451 L403 342 L541 342 L541 451 L403 451 Z" /><glyph glyph-name="uni56DE" unicode="&#x56de;" d="M82 -116 L82 765 L917 765 L917 -116 L852 -116 L852 -52 L147 -52 L147 -116 L82 -116 ZM147 706 L147 6 L852 6 L852 706 L147 706 ZM302 182 L302 541 L696 541 L696 182 L302 182 ZM364 485 L364 239 L634 239 L634 485 L364 485 Z" /><glyph glyph-name="uni56E0" unicode="&#x56e0;" d="M88 -121 L88 767 L908 767 L908 -121 L843 -121 L843 -60 L154 -60 L154 -121 L88 -121 ZM154 706 L154 1 L843 1 L843 706 L154 706 ZM231 439 L231 498 L467 498 L467 656 L531 656 L531 498 L767 498 L767 439 L530 439 Q528 395 519 356 Q684 223 790 132 L738 81 Q634 179 500 296 Q446 157 241 56 Q220 86 197 114 Q461 217 465 439 L231 439 Z" /><glyph glyph-name="uni56F4" unicode="&#x56f4;" d="M81 -123 L81 769 L917 769 L917 -123 L852 -123 L852 -76 L146 -76 L146 -123 L81 -123 ZM146 714 L146 -20 L852 -20 L852 714 L146 714 ZM567 85 Q564 115 556 142 Q604 139 643 139 Q701 136 702 184 Q705 216 707 254 L499 254 L499 15 L436 15 L436 254 L201 254 L201 304 L436 304 L436 402 L243 402 L243 452 L436 452 L436 546 L217 546 L217 597 L436 597 L436 675 L499 675 L499 597 L776 597 L776 546 L499 546 L499 452 L743 452 L743 402 L499 402 L499 304 L769 304 Q766 225 761 179 Q754 87 657 86 Q627 85 567 85 Z" /><glyph glyph-name="uni56FD" unicode="&#x56fd;" d="M80 -122 L80 772 L919 772 L919 -122 L854 -122 L854 -70 L145 -70 L145 -122 L80 -122 ZM145 714 L145 -12 L854 -12 L854 714 L145 714 ZM221 551 L221 606 L776 606 L776 551 L527 551 L527 411 L756 411 L756 355 L527 355 L527 156 L791 156 L791 100 L206 100 L206 156 L465 156 L465 355 L240 355 L240 411 L465 411 L465 551 L221 551 ZM692 185 Q642 239 593 282 L633 318 Q677 282 734 224 L692 185 Z" /><glyph glyph-name="uni56FE" unicode="&#x56fe;" d="M75 -121 L75 783 L919 783 L919 -121 L856 -121 L856 -73 L138 -73 L138 -121 L75 -121 ZM138 726 L138 -15 L856 -15 L856 726 L138 726 ZM796 296 Q620 334 518 384 Q390 319 200 280 Q199 282 197 287 Q184 317 173 335 Q339 359 462 415 Q388 461 325 531 Q280 488 229 446 Q211 466 190 486 Q315 578 394 697 L451 678 Q429 647 405 618 L750 618 L750 568 Q671 475 574 415 Q680 372 822 352 Q808 326 796 296 ZM705 38 Q521 78 256 115 L272 168 Q518 132 723 94 L705 38 ZM680 568 L361 568 Q361 567 360 567 Q426 491 517 442 Q613 495 680 568 ZM646 194 Q515 221 354 243 L368 294 Q556 265 661 246 L646 194 Z" /><glyph glyph-name="uni5706" unicode="&#x5706;" d="M76 -121 L76 783 L919 783 L919 -121 L856 -121 L856 -68 L139 -68 L139 -121 L76 -121 ZM139 728 L139 -12 L856 -12 L856 728 L139 728 ZM284 467 L284 652 L711 652 L711 467 L284 467 ZM255 174 L255 395 L739 395 L739 181 L681 181 L681 346 L312 346 L312 174 L255 174 ZM215 28 Q204 54 189 81 Q355 111 413 159 Q473 204 474 308 L531 308 Q528 256 516 217 Q600 175 756 93 Q772 84 780 80 L749 31 Q744 34 734 40 Q581 130 497 173 Q446 77 215 28 ZM341 605 L341 513 L654 513 L654 605 L341 605 Z" /><glyph glyph-name="uni5728" unicode="&#x5728;" d="M68 626 L68 687 L343 687 Q370 750 396 823 L464 812 Q449 770 418 694 Q416 689 415 687 L969 687 L969 626 L387 626 Q330 504 253 404 L253 -118 L187 -118 L187 325 Q127 260 64 204 Q46 236 25 261 Q222 434 314 626 L68 626 ZM345 304 L345 363 L596 363 L596 555 L662 555 L662 363 L914 363 L914 304 L662 304 L662 13 L969 13 L969 -48 L296 -48 L296 13 L596 13 L596 304 L345 304 Z" /><glyph glyph-name="uni5730" unicode="&#x5730;" d="M731 211 Q728 235 717 273 Q749 271 786 271 Q846 265 848 350 Q856 462 858 566 L687 508 L687 88 L623 88 L623 486 L462 431 L462 68 Q461 11 483 -7 Q502 -27 564 -26 L773 -26 Q884 -31 894 51 Q908 116 915 178 Q954 163 977 158 Q968 81 953 21 Q935 -92 792 -86 L541 -86 Q393 -92 399 48 L399 410 L319 383 L309 444 L399 474 L399 703 L462 703 L462 495 L623 549 L623 819 L687 819 L687 570 L921 649 Q917 470 910 349 Q908 209 804 213 Q758 211 731 211 ZM45 487 L45 547 L153 547 L153 817 L216 817 L216 547 L318 547 L318 487 L216 487 L216 110 L343 149 Q343 132 349 88 Q159 32 35 -9 L20 56 Q59 66 139 88 Q148 91 153 92 L153 487 L45 487 Z" /><glyph glyph-name="uni573A" unicode="&#x573a;" d="M290 -20 Q275 -3 240 30 Q449 168 497 391 L363 391 L363 458 L774 703 L387 703 L387 761 L879 761 L879 696 L466 448 L936 448 Q925 160 920 69 Q920 -103 775 -99 Q737 -100 668 -100 Q661 -61 654 -33 Q677 -35 697 -36 Q712 -36 760 -36 Q858 -45 858 69 Q867 256 871 391 L749 391 Q698 40 477 -126 Q460 -106 425 -77 Q635 70 689 391 L558 391 Q502 126 290 -20 ZM38 507 L38 569 L161 569 L161 813 L225 813 L225 569 L337 569 L337 507 L225 507 L225 182 L329 227 Q330 191 336 164 Q226 119 50 37 L27 103 Q95 129 161 156 L161 507 L38 507 Z" /><glyph glyph-name="uni5747" unicode="&#x5747;" d="M412 421 Q377 447 353 460 Q467 616 531 817 L600 800 Q566 710 546 664 L938 664 Q929 283 920 71 Q922 -101 744 -96 Q681 -98 585 -98 Q582 -69 570 -27 Q644 -30 735 -30 Q801 -31 825 -6 Q851 18 854 87 Q864 333 868 601 L516 601 Q470 504 412 421 ZM42 508 L42 568 L171 568 L171 813 L236 813 L236 568 L354 568 L354 508 L236 508 L236 138 L371 189 Q371 171 375 119 Q195 57 50 -2 L29 70 Q88 87 171 116 L171 508 L42 508 ZM434 70 L406 136 Q548 189 788 296 Q788 276 797 226 Q672 175 434 70 ZM634 300 Q563 379 491 447 L539 487 Q626 408 687 346 L634 300 Z" /><glyph glyph-name="uni578B" unicode="&#x578b;" d="M72 714 L72 770 L563 770 L563 714 L460 714 L460 544 L594 544 L594 488 L460 488 L460 284 L400 284 L400 488 L232 488 Q225 360 108 255 Q84 277 59 295 Q165 384 172 488 L34 488 L34 544 L177 544 Q178 572 178 606 L178 714 L72 714 ZM117 123 L117 180 L467 180 L467 258 L534 258 L534 180 L884 180 L884 123 L534 123 L534 -21 L967 -21 L967 -79 L32 -79 L32 -21 L467 -21 L467 123 L117 123 ZM684 271 Q684 273 683 276 Q679 303 670 335 Q717 333 779 333 Q854 326 847 402 L847 805 L908 805 L908 390 Q911 275 808 273 Q764 271 684 271 ZM238 605 Q238 572 236 544 L400 544 L400 714 L238 714 L238 605 ZM651 434 L651 752 L709 752 L709 434 L651 434 Z" /><glyph glyph-name="uni57CE" unicode="&#x57ce;" d="M880 -107 Q787 -112 735 59 Q668 -24 570 -110 Q544 -83 523 -64 Q640 32 716 132 Q675 295 663 570 L406 570 L406 425 L592 425 Q592 266 586 138 Q588 30 477 27 Q437 25 417 25 Q416 48 405 89 Q416 88 426 88 Q434 88 464 88 Q530 84 530 151 Q535 244 535 369 L406 369 Q406 180 380 83 Q356 -15 279 -120 Q248 -94 228 -82 Q304 20 324 106 Q347 190 346 383 L346 629 L661 629 Q659 693 657 820 L719 820 L722 629 L968 629 L968 570 L724 570 Q733 341 764 202 Q828 304 882 458 L939 436 Q865 242 781 121 Q820 -37 876 -39 Q894 -40 904 1 Q912 32 923 130 Q924 137 924 141 Q950 128 979 119 Q970 26 957 -29 Q940 -106 880 -107 ZM34 522 L34 580 L141 580 L141 820 L201 820 L201 580 L301 580 L301 522 L201 522 L201 164 L300 197 Q302 162 305 135 Q159 91 36 45 L22 111 Q78 126 141 145 L141 522 L34 522 ZM884 653 Q848 687 766 754 L806 790 Q867 744 926 694 L884 653 Z" /><glyph glyph-name="uni57DF" unicode="&#x57df;" d="M324 588 L324 646 L661 646 Q660 729 660 718 Q660 738 660 761 Q660 782 660 822 L723 822 Q723 757 723 721 Q723 680 724 646 L961 646 L961 588 L725 588 Q725 564 727 517 Q728 497 728 487 Q735 315 755 203 Q826 322 878 479 L934 456 Q860 251 773 121 Q795 40 828 -9 Q851 -42 871 -43 Q895 -45 902 2 Q912 52 918 144 Q942 135 974 124 Q965 36 952 -32 Q935 -114 873 -114 Q819 -113 782 -49 Q750 -3 728 58 Q657 -34 561 -121 Q535 -90 514 -71 Q630 24 707 130 Q677 253 667 481 Q664 531 663 588 L324 588 ZM31 494 L31 553 L141 553 L141 820 L202 820 L202 553 L304 553 L304 494 L202 494 L202 123 Q252 138 302 155 Q304 120 307 92 Q171 54 36 6 L22 73 Q78 87 141 105 L141 494 L31 494 ZM348 192 L348 475 L579 475 L579 192 L348 192 ZM402 422 L402 246 L524 246 L524 422 L402 422 ZM292 -11 L278 52 Q508 89 614 109 Q614 71 616 50 Q429 18 292 -11 ZM873 683 Q817 741 781 772 L822 807 Q873 765 918 721 L873 683 Z" /><glyph glyph-name="uni5883" unicode="&#x5883;" d="M364 110 L364 429 L889 429 L889 110 L729 110 L729 4 Q724 -51 791 -46 L846 -46 Q903 -49 910 2 Q916 32 921 80 Q954 68 978 63 Q972 10 963 -28 Q951 -103 851 -100 L773 -100 Q664 -103 668 -7 L668 110 L559 110 Q566 -75 268 -126 Q257 -102 233 -71 Q507 -27 497 110 L364 110 ZM349 670 L349 722 L615 722 Q603 762 586 809 L651 822 Q669 770 683 722 L931 722 L931 670 L775 670 L828 654 Q802 612 764 551 L965 551 L965 499 L329 499 L329 551 L508 551 Q493 577 455 638 Q449 649 446 653 L489 670 L349 670 ZM42 509 L42 569 L145 569 L145 815 L207 815 L207 569 L297 569 L297 509 L207 509 L207 140 L314 168 Q314 138 315 107 Q130 58 37 28 L26 94 L145 124 L145 509 L42 509 ZM425 248 L425 160 L828 160 L828 248 L425 248 ZM425 379 L425 295 L828 295 L828 379 L425 379 ZM572 563 L543 551 L697 551 Q739 621 763 670 L505 670 L572 563 Z" /><glyph glyph-name="uni589E" unicode="&#x589e;" d="M333 365 L333 689 L511 689 Q473 744 429 800 L484 826 Q505 801 557 731 Q568 716 573 710 L530 689 L687 689 Q737 756 782 825 L841 800 Q804 750 756 689 L933 689 L933 365 L333 365 ZM373 -124 L373 283 L892 283 L892 -124 L831 -124 L831 -79 L435 -79 L435 -124 L373 -124 ZM40 500 L40 560 L143 560 L143 814 L204 814 L204 560 L298 560 L298 500 L204 500 L204 115 L317 148 Q317 141 317 130 Q316 108 318 83 Q178 47 42 2 L24 68 L143 98 L143 500 L40 500 ZM875 639 L661 639 L661 415 L875 415 L875 639 ZM391 639 L391 415 L604 415 L604 639 L391 639 ZM435 79 L435 -28 L831 -28 L831 79 L435 79 ZM435 233 L435 127 L831 127 L831 233 L435 233 ZM749 459 L708 489 Q759 549 792 596 L835 567 Q815 539 749 459 ZM513 463 Q467 528 432 571 L472 599 Q532 527 557 493 L513 463 Z" /><glyph glyph-name="uni58F0" unicode="&#x58f0;" d="M77 -121 Q43 -88 26 -74 Q104 2 128 75 Q154 147 153 292 L153 406 L865 406 L865 104 L801 104 L801 147 L209 147 Q197 -3 77 -121 ZM45 665 L45 722 L476 722 L476 821 L541 821 L541 722 L970 722 L970 665 L541 665 L541 555 L893 555 L893 499 L124 499 L124 555 L476 555 L476 665 L45 665 ZM216 291 Q216 242 214 202 L477 202 L477 352 L216 352 L216 291 ZM801 352 L541 352 L541 202 L801 202 L801 352 Z" /><glyph glyph-name="uni5904" unicode="&#x5904;" d="M955 -88 Q804 -90 715 -85 Q624 -80 564 -68 Q400 -42 292 85 Q211 -16 68 -125 Q59 -114 39 -91 Q27 -77 22 -70 Q167 31 250 139 Q177 246 136 412 Q101 333 59 256 Q49 271 20 304 Q17 307 16 309 Q144 542 198 814 L265 805 Q243 711 216 627 L479 627 L479 561 Q445 301 331 138 Q428 23 572 -2 Q718 -30 976 -17 Q975 -20 973 -26 Q960 -65 955 -88 ZM908 311 Q796 405 688 486 L688 43 L622 43 L622 814 L688 814 L688 511 L718 543 Q809 478 956 365 L908 311 ZM413 565 L196 565 L175 507 Q212 314 290 195 Q388 345 413 565 Z" /><glyph glyph-name="uni5907" unicode="&#x5907;" d="M152 -122 L152 328 L845 328 L845 -122 L781 -122 L781 -78 L215 -78 L215 -122 L152 -122 ZM49 334 Q35 372 23 395 Q273 432 438 491 Q335 549 251 645 Q177 568 92 502 Q65 533 48 547 Q226 678 316 827 L379 806 Q354 769 328 736 L842 736 L842 678 Q727 559 587 490 Q743 435 969 419 Q961 402 945 364 Q942 357 941 354 Q666 389 512 456 Q352 388 49 334 ZM759 682 L295 682 Q387 580 513 521 Q648 581 759 682 ZM781 275 L528 275 L528 149 L781 149 L781 275 ZM215 275 L215 149 L468 149 L468 275 L215 275 ZM528 100 L528 -25 L781 -25 L781 100 L528 100 ZM215 100 L215 -25 L468 -25 L468 100 L215 100 Z" /><glyph glyph-name="uni590D" unicode="&#x590d;" d="M61 507 Q50 531 27 563 Q164 666 257 825 L326 815 Q305 780 283 748 L956 748 L956 694 L243 694 Q210 650 173 611 L863 611 L863 297 L169 297 L169 606 Q120 555 61 507 ZM111 -126 Q99 -97 81 -68 Q281 -40 452 13 Q345 63 259 135 Q176 64 70 5 Q55 28 31 55 Q215 148 327 286 L395 274 Q368 242 340 212 L862 212 L862 155 Q750 69 614 11 Q753 -29 966 -54 Q946 -93 938 -113 Q682 -75 532 -20 Q363 -81 111 -126 ZM232 432 L232 348 L800 348 L800 432 L232 432 ZM232 560 L232 479 L800 479 L800 560 L232 560 ZM771 160 L317 160 Q414 86 530 40 Q671 94 771 160 Z" /><glyph glyph-name="uni5916" unicode="&#x5916;" d="M60 271 Q47 291 17 327 Q160 527 240 820 L310 805 Q285 724 256 651 L516 651 L516 585 Q468 128 92 -116 Q63 -80 43 -59 Q246 71 338 233 Q254 308 171 373 L207 420 Q248 390 332 324 Q358 305 370 295 Q428 420 450 588 L231 588 Q158 414 60 271 ZM628 -121 L628 818 L696 818 L696 484 L730 517 Q839 438 974 327 L925 274 Q784 398 696 464 L696 -121 L628 -121 Z" /><glyph glyph-name="uni591A" unicode="&#x591a;" d="M144 112 Q115 156 105 170 Q399 271 599 450 L662 422 Q616 383 571 349 L929 349 L929 287 Q650 -28 84 -124 Q71 -89 57 -62 Q574 18 845 293 L493 293 Q450 264 406 238 Q467 195 557 127 L507 84 Q433 147 352 207 Q259 157 144 112 ZM126 528 Q124 530 121 535 Q100 567 88 581 Q324 679 485 833 L556 817 Q505 769 453 728 L887 728 L887 669 Q601 414 72 286 Q56 321 42 346 Q529 456 793 672 L378 672 Q355 656 331 641 Q410 590 488 533 L439 490 Q349 561 279 609 Q215 571 126 528 Z" /><glyph glyph-name="uni591C" unicode="&#x591c;" d="M928 -107 Q743 -42 629 49 Q516 -43 325 -123 Q306 -88 286 -62 Q473 7 581 92 Q492 178 422 315 Q378 252 327 193 Q306 219 283 240 Q424 396 510 608 L572 589 Q551 541 529 498 L883 498 L883 438 Q817 224 678 92 Q791 6 963 -41 Q946 -71 928 -107 ZM818 439 L498 439 Q479 405 459 373 Q529 225 628 133 Q754 247 818 439 ZM49 625 L49 686 L513 686 Q478 755 448 801 L513 823 Q539 779 581 703 L537 686 L965 686 L965 625 L49 625 ZM167 -123 L167 304 Q116 235 52 166 Q36 213 26 238 Q173 388 263 599 L327 578 Q281 484 228 395 L228 -123 L167 -123 ZM659 259 Q613 310 551 369 L592 404 Q653 350 704 299 L659 259 Z" /><glyph glyph-name="uni591F" unicode="&#x591f;" d="M60 455 Q40 485 23 507 Q127 647 186 822 L248 810 Q223 747 198 693 L447 693 Q447 298 438 62 Q438 -104 289 -102 Q249 -103 181 -103 Q177 -70 169 -36 Q223 -38 276 -38 Q380 -46 379 72 Q388 272 388 636 L170 636 Q136 567 91 500 L300 500 L300 124 L137 124 L137 71 L84 71 L84 490 L60 455 ZM513 109 Q497 133 476 155 Q622 262 728 408 L782 385 Q777 378 766 365 Q754 349 726 315 L965 315 L965 258 Q825 -3 483 -126 Q480 -121 474 -111 Q458 -85 447 -70 Q755 27 899 262 L678 262 Q651 233 623 206 Q690 143 723 109 L681 74 Q671 85 651 105 Q608 151 586 171 Q550 139 513 109 ZM505 527 Q485 552 466 572 Q591 677 674 816 L732 796 Q706 756 679 720 L929 720 L929 663 Q805 450 517 312 Q502 337 480 366 Q742 479 862 667 L638 667 Q620 645 600 622 Q659 570 702 528 L660 491 Q620 534 566 586 Q552 571 521 542 Q510 532 505 527 ZM137 447 L137 177 L248 177 L248 447 L137 447 Z" /><glyph glyph-name="uni5927" unicode="&#x5927;" d="M42 488 L42 554 L462 554 Q465 604 467 665 Q468 694 468 729 Q468 760 468 817 L539 817 Q539 752 535 607 Q534 571 534 554 L957 554 L957 488 L535 488 Q591 119 968 -37 Q937 -75 920 -102 Q564 67 500 385 Q450 71 85 -118 L35 -57 Q432 137 456 488 L42 488 Z" /><glyph glyph-name="uni5929" unicode="&#x5929;" d="M90 694 L90 758 L911 758 L911 694 L534 694 Q532 548 527 445 L962 445 L962 380 L544 380 Q610 63 968 -41 Q939 -79 925 -107 Q561 25 499 324 Q444 47 81 -118 Q68 -99 38 -60 Q36 -58 35 -57 Q411 104 448 380 L36 380 L36 445 L457 445 Q461 489 463 545 Q463 572 464 606 Q464 635 464 694 L90 694 Z" /><glyph glyph-name="uni592E" unicode="&#x592e;" d="M934 -113 Q599 -32 500 203 Q432 -4 69 -125 Q48 -86 28 -55 Q388 42 453 251 L35 251 L35 313 L147 313 L147 649 L466 649 L466 819 L534 819 L534 649 L847 649 L847 313 L965 313 L965 251 L543 251 Q642 20 971 -40 Q951 -74 934 -113 ZM461 313 Q466 418 466 588 L212 588 L212 313 L461 313 ZM534 588 Q533 439 529 313 L782 313 L782 588 L534 588 Z" /><glyph glyph-name="uni5934" unicode="&#x5934;" d="M34 235 L34 297 L528 297 Q555 446 557 818 L626 818 Q623 449 599 297 L965 297 L965 235 L587 235 Q581 208 570 183 Q792 52 943 -41 L897 -101 Q713 23 541 129 Q449 -18 80 -123 Q63 -92 38 -57 Q481 57 515 235 L34 235 ZM322 371 Q181 472 90 528 L129 577 Q269 491 365 426 L322 371 ZM437 573 Q294 675 211 728 L250 775 Q377 697 479 629 L437 573 Z" /><glyph glyph-name="uni593A" unicode="&#x593a;" d="M57 638 L57 698 L448 698 Q468 750 474 824 L543 817 Q531 744 518 698 L944 698 L944 638 L584 638 Q692 485 967 446 L932 380 Q609 448 513 638 L492 638 Q422 463 62 362 L23 425 Q335 498 418 638 L57 638 ZM34 244 L34 304 L645 304 L645 408 L713 408 L713 304 L950 304 L950 244 L713 244 L713 19 Q715 -101 593 -104 Q565 -105 530 -106 Q513 -106 493 -106 Q475 -106 442 -106 Q439 -75 428 -38 Q501 -41 568 -41 Q648 -44 645 31 L645 244 L34 244 ZM341 11 Q239 108 173 162 L218 206 Q307 134 391 58 L341 11 Z" /><glyph glyph-name="uni5957" unicode="&#x5957;" d="M57 661 L57 717 L402 717 Q439 768 461 827 L528 814 Q505 760 478 717 L943 717 L943 661 L644 661 Q764 533 973 492 Q954 458 943 432 Q808 472 726 524 L726 484 L292 484 L292 408 L796 408 L796 359 L292 359 L292 283 L801 283 L801 234 L292 234 L292 157 L956 157 L956 102 L417 102 Q341 37 255 -26 Q534 -20 717 -14 L629 64 L675 99 Q780 11 882 -82 L831 -125 Q801 -94 771 -65 Q456 -72 248 -81 Q201 -82 162 -89 L137 -33 Q170 -20 200 -1 Q266 45 326 102 L44 102 L44 157 L229 157 L229 494 Q156 454 55 411 Q34 451 21 468 Q239 539 356 661 L57 661 ZM439 661 Q381 589 299 536 L708 536 Q630 588 575 661 L439 661 Z" /><glyph glyph-name="uni597D" unicode="&#x597d;" d="M384 -13 Q312 53 259 98 Q194 -6 73 -105 Q45 -71 27 -53 Q148 39 212 139 L66 262 Q97 384 129 558 L38 558 L38 618 L140 618 Q158 725 169 818 L236 812 Q233 796 228 763 Q220 710 204 618 L387 618 L387 556 Q364 289 292 155 Q338 118 422 48 Q430 42 433 39 L384 -13 ZM410 323 L410 385 L669 385 L669 533 L855 695 L446 695 L446 756 L937 756 L937 687 L736 508 L736 385 L974 385 L974 323 L736 323 L736 19 Q741 -103 615 -104 Q571 -106 497 -106 Q496 -103 495 -95 Q489 -55 486 -36 Q534 -40 600 -40 Q672 -43 669 32 L669 323 L410 323 ZM323 558 L193 558 Q163 402 131 282 Q198 231 243 195 Q310 333 323 558 Z" /><glyph glyph-name="uni5982" unicode="&#x5982;" d="M554 -87 L554 708 L922 708 L922 -78 L856 -78 L856 -1 L620 -1 L620 -87 L554 -87 ZM441 -42 Q369 26 298 88 Q225 -14 74 -121 Q61 -103 31 -68 Q28 -65 27 -64 Q175 34 247 133 Q182 189 81 272 Q125 425 152 559 L34 559 L34 622 L164 622 Q182 717 197 820 L269 810 Q249 700 233 622 L451 622 L451 561 Q426 293 336 145 Q403 90 492 14 L441 -42 ZM620 646 L620 62 L856 62 L856 646 L620 646 ZM385 559 L220 559 Q186 399 153 291 Q162 284 181 269 Q217 242 283 188 Q358 312 385 559 Z" /><glyph glyph-name="uni5999" unicode="&#x5999;" d="M360 7 Q352 14 335 29 Q287 73 257 99 Q194 -3 71 -105 Q39 -66 24 -51 Q147 41 210 140 Q175 170 97 236 Q77 253 66 262 Q99 391 128 558 L38 558 L38 620 L139 620 Q149 679 165 795 Q167 811 168 819 L234 812 Q219 712 202 620 L385 620 L385 560 Q361 289 289 154 Q339 115 407 58 L360 7 ZM322 558 L190 558 Q162 408 129 282 L240 194 Q308 335 322 558 ZM389 -127 Q367 -93 345 -68 Q706 53 853 337 L909 305 Q744 0 389 -127 ZM645 217 L645 819 L709 819 L709 217 L645 217 ZM444 289 L384 316 Q464 483 515 636 L574 618 Q495 401 444 289 ZM925 357 Q829 523 764 624 L816 654 Q919 495 982 392 L925 357 Z" /><glyph glyph-name="uni59CB" unicode="&#x59cb;" d="M457 -122 L457 303 L903 303 L903 -122 L840 -122 L840 -56 L520 -56 L520 -122 L457 -122 ZM364 -18 Q331 15 253 86 Q193 -3 65 -110 Q60 -104 40 -81 Q26 -66 21 -60 Q149 43 205 129 Q136 191 61 254 Q97 386 125 556 L26 556 L26 615 L135 615 Q149 699 163 818 L229 811 Q220 749 201 635 Q199 622 198 615 L381 615 L381 554 Q359 275 285 141 Q356 81 410 33 L364 -18 ZM520 246 L520 1 L840 1 L840 246 L520 246 ZM438 421 L406 484 Q441 505 473 550 Q566 683 632 822 L699 798 Q603 631 503 488 Q536 489 609 493 Q757 499 841 502 Q810 556 751 649 L803 680 Q893 544 971 404 L913 372 Q895 407 873 445 Q757 442 557 432 Q534 431 523 430 Q518 430 507 429 Q458 426 438 421 ZM319 556 L187 556 Q159 392 127 272 L236 183 Q302 301 319 556 Z" /><glyph glyph-name="uni5AB2" unicode="&#x5ab2;" d="M380 341 L380 728 L558 728 Q573 780 583 825 L646 816 Q632 765 618 728 L906 728 L906 341 L380 341 ZM306 5 L217 95 Q158 -9 56 -103 Q32 -70 17 -53 Q118 34 173 138 Q93 214 47 256 Q82 392 110 560 L35 560 L35 617 L119 617 Q134 717 145 816 L208 809 Q200 752 182 647 Q179 627 177 617 L329 617 L329 558 Q311 297 245 151 Q268 131 311 91 Q339 65 352 53 L306 5 ZM438 676 L438 392 L848 392 L848 676 L438 676 ZM769 -99 Q661 -102 665 2 L665 296 L725 296 L725 154 Q821 200 916 269 L952 223 Q849 154 725 95 L725 17 Q721 -47 782 -43 L835 -43 Q887 -44 893 6 Q901 51 907 117 Q927 109 964 100 Q956 32 947 -13 Q930 -102 843 -99 L769 -99 ZM396 -114 L360 -65 Q387 -40 386 1 L386 297 L446 297 L446 208 L617 208 L617 154 L446 154 L446 -24 Q534 13 614 49 Q616 15 619 -15 Q516 -54 454 -83 Q421 -96 396 -114 ZM272 560 L167 560 Q137 394 109 272 L200 192 Q259 323 272 560 ZM772 418 Q711 463 650 505 Q568 449 501 415 Q498 419 493 426 Q477 447 468 457 Q539 490 608 535 L490 614 L524 650 L652 566 Q709 608 755 653 L796 620 Q748 576 695 537 Q718 522 764 489 Q793 469 808 459 L772 418 Z" /><glyph glyph-name="uni5B50" unicode="&#x5b50;" d="M28 316 L28 381 L477 381 L477 493 L771 699 L126 699 L126 763 L875 763 L875 688 L548 460 L548 381 L971 381 L971 316 L548 316 L548 26 Q552 -103 420 -106 Q391 -107 360 -108 Q345 -108 326 -108 Q310 -108 275 -108 Q270 -70 260 -30 Q322 -34 396 -34 Q480 -37 477 45 L477 316 L28 316 Z" /><glyph glyph-name="uni5B57" unicode="&#x5b57;" d="M29 187 L29 247 L479 247 L479 314 L690 439 L204 439 L204 498 L782 498 L782 431 L546 289 L546 247 L972 247 L972 187 L546 187 L546 18 Q553 -105 424 -108 Q328 -110 291 -110 Q288 -80 278 -41 Q322 -44 402 -44 Q484 -48 479 32 L479 187 L29 187 ZM62 496 L62 680 L498 680 Q478 738 444 811 L512 828 Q540 765 567 696 L516 680 L936 680 L936 496 L870 496 L870 620 L128 620 L128 496 L62 496 Z" /><glyph glyph-name="uni5B58" unicode="&#x5b58;" d="M54 656 L54 717 L324 717 Q346 771 364 827 L436 812 Q433 804 426 787 Q417 762 398 717 L969 717 L969 656 L370 656 Q316 539 240 423 L240 -121 L175 -121 L175 332 Q122 263 59 193 Q41 224 20 254 Q193 434 297 656 L54 656 ZM299 210 L299 270 L629 270 L629 336 L820 475 L371 475 L371 534 L908 534 L908 468 L696 312 L696 270 L974 270 L974 210 L696 210 L696 5 Q702 -110 581 -110 Q551 -111 524 -112 Q511 -112 495 -112 Q483 -112 455 -112 Q449 -81 439 -44 Q508 -47 561 -47 Q633 -50 629 12 L629 210 L299 210 Z" /><glyph glyph-name="uni5B66" unicode="&#x5b66;" d="M33 146 L33 208 L486 208 L486 260 L686 376 L214 376 L214 436 L774 436 L774 368 L554 236 L554 208 L968 208 L968 146 L554 146 L554 6 Q559 -117 436 -115 Q408 -116 379 -116 Q364 -116 347 -116 Q332 -116 301 -116 Q297 -82 289 -44 Q342 -48 414 -48 Q492 -54 486 25 L486 146 L33 146 ZM65 421 L65 611 L936 611 L936 421 L869 421 L869 550 L132 550 L132 421 L65 421 ZM721 615 L662 650 Q744 743 792 807 L855 774 Q785 687 721 615 ZM502 644 Q452 728 404 798 L465 823 Q516 750 567 672 L502 644 ZM244 629 Q188 710 139 771 L197 801 Q242 747 307 663 L244 629 Z" /><glyph glyph-name="uni5B69" unicode="&#x5b69;" d="M406 627 L406 687 L675 687 Q649 751 620 805 L681 823 Q711 768 739 703 L689 687 L962 687 L962 627 L658 627 Q581 516 493 407 Q570 415 714 424 Q750 476 780 533 L839 504 Q679 208 372 58 Q349 91 330 115 Q541 210 670 365 Q578 361 497 353 Q452 349 427 342 L398 399 Q425 415 444 437 Q510 512 583 627 L406 627 ZM35 228 L24 300 Q95 321 168 345 L168 509 L301 688 L40 688 L40 747 L370 747 L370 679 L232 489 L232 366 Q261 375 323 397 Q339 403 348 406 Q348 405 348 400 Q347 367 349 339 Q337 335 312 326 Q261 309 232 299 L232 6 Q236 -106 124 -105 Q87 -106 37 -106 Q36 -77 28 -39 Q41 -40 58 -41 Q72 -41 108 -41 Q172 -45 168 14 L168 276 L35 228 ZM916 -104 Q856 -46 750 45 Q731 61 723 68 Q595 -45 422 -122 Q412 -106 386 -70 Q383 -67 382 -65 Q711 71 886 363 L941 332 Q861 203 770 113 Q798 90 854 44 Q931 -17 969 -49 L916 -104 Z" /><glyph glyph-name="uni5B89" unicode="&#x5b89;" d="M27 347 L27 409 L324 409 Q369 486 416 581 L483 558 Q428 458 399 409 L973 409 L973 347 L775 347 Q717 189 595 88 Q749 22 907 -49 L870 -113 Q660 -13 534 43 Q375 -62 96 -122 Q84 -92 64 -53 Q308 -17 464 75 L191 199 Q234 259 288 347 L27 347 ZM79 510 L79 683 L506 683 Q479 736 438 801 L501 825 Q539 767 576 702 L532 683 L921 683 L921 510 L854 510 L854 622 L146 622 L146 510 L79 510 ZM283 220 Q428 160 527 117 Q648 209 703 347 L362 347 Q321 279 283 220 Z" /><glyph glyph-name="uni5B98" unicode="&#x5b98;" d="M776 -117 L776 -65 L257 -65 L257 -123 L192 -123 L192 538 L803 538 L803 297 L257 297 L257 191 L841 191 L841 -117 L776 -117 ZM776 136 L257 136 L257 -10 L776 -10 L776 136 ZM64 526 L64 699 L488 699 Q475 733 448 795 Q444 804 442 808 L510 825 Q542 753 559 708 L527 699 L934 699 L934 526 L869 526 L869 642 L129 642 L129 526 L64 526 ZM257 483 L257 352 L739 352 L739 483 L257 483 Z" /><glyph glyph-name="uni5B9A" unicode="&#x5b9a;" d="M50 419 L50 479 L947 479 L947 419 L553 419 L553 247 L891 247 L891 188 L553 188 L553 -25 Q646 -27 764 -26 Q878 -26 967 -24 Q955 -60 948 -94 Q689 -94 525 -88 Q326 -82 217 93 Q172 -21 71 -122 Q62 -109 37 -80 Q30 -72 27 -68 Q187 81 210 335 L277 329 Q263 237 243 167 Q341 -2 487 -21 L487 419 L50 419 ZM859 537 L859 647 L143 647 L143 538 L78 538 L78 706 L480 706 Q470 750 452 811 L525 823 Q526 819 528 809 Q545 746 554 706 L924 706 L924 537 L859 537 Z" /><glyph glyph-name="uni5B9D" unicode="&#x5b9d;" d="M95 434 L95 492 L894 492 L894 434 L529 434 L529 276 L873 276 L873 217 L529 217 L529 -9 L965 -9 L965 -69 L35 -69 L35 -9 L463 -9 L463 217 L124 217 L124 276 L463 276 L463 434 L95 434 ZM65 542 L65 692 L493 692 Q465 751 435 804 L500 823 Q531 772 565 703 L530 692 L931 692 L931 542 L866 542 L866 632 L130 632 L130 542 L65 542 ZM767 22 Q728 72 658 149 L708 185 Q784 105 819 62 L767 22 Z" /><glyph glyph-name="uni5B9E" unicode="&#x5b9e;" d="M43 164 L43 225 L517 225 Q561 330 559 573 L628 573 Q628 349 590 225 L962 225 L962 164 L568 164 Q560 145 549 127 Q744 43 945 -49 L908 -109 Q692 -3 512 77 Q405 -52 74 -124 Q58 -93 36 -58 Q419 13 491 164 L43 164 ZM60 517 L60 691 L494 691 Q477 730 443 795 Q440 800 439 802 L504 823 Q531 776 565 704 L529 691 L936 691 L936 517 L870 517 L870 631 L126 631 L126 517 L60 517 ZM339 268 Q245 323 146 371 L178 422 Q282 373 376 323 L339 268 ZM429 411 Q337 467 240 518 L272 566 Q371 516 464 465 L429 411 Z" /><glyph glyph-name="uni5BA4" unicode="&#x5ba4;" d="M834 222 Q798 256 765 286 Q739 285 688 284 Q585 282 531 280 L531 154 L880 154 L880 99 L531 99 L531 -26 L969 -26 L969 -84 L31 -84 L31 -26 L465 -26 L465 99 L119 99 L119 154 L465 154 L465 278 L263 271 Q211 269 170 264 L140 323 Q171 334 210 359 Q283 405 359 475 L166 475 L166 530 L839 530 L839 475 L458 475 Q373 404 258 324 Q487 329 708 338 L616 418 L661 458 Q771 369 882 271 L834 222 ZM63 536 L63 699 L492 699 Q470 749 438 805 L503 825 Q532 772 561 712 L524 699 L937 699 L937 536 L872 536 L872 643 L128 643 L128 536 L63 536 Z" /><glyph glyph-name="uni5BB6" unicode="&#x5bb6;" d="M170 487 L170 540 L830 540 L830 487 L536 487 Q493 451 448 420 Q502 360 538 288 Q716 367 832 436 L869 383 Q786 340 687 293 Q760 86 962 13 Q957 6 948 -7 Q930 -32 920 -47 Q704 56 634 268 L561 234 Q588 159 588 77 Q592 -110 444 -109 Q379 -111 321 -111 Q317 -84 304 -45 Q380 -48 424 -48 Q529 -56 523 77 Q523 121 513 164 Q348 -1 69 -93 Q58 -69 36 -33 Q318 46 496 223 Q484 257 466 290 Q313 159 78 82 Q69 102 48 135 Q45 140 44 142 Q281 206 437 337 Q419 363 397 388 Q265 306 69 248 Q55 278 37 307 Q280 363 446 487 L170 487 ZM60 546 L60 701 L494 701 Q471 760 446 812 L512 829 Q538 777 563 713 L523 701 L936 701 L936 546 L872 546 L872 645 L124 645 L124 546 L60 546 Z" /><glyph glyph-name="uni5BB9" unicode="&#x5bb9;" d="M189 -122 L189 209 Q127 176 59 148 Q52 160 35 187 Q26 200 23 205 Q319 319 494 513 L563 500 Q560 497 555 491 Q551 487 540 474 Q701 306 973 220 Q952 188 941 161 Q868 189 808 216 L808 -122 L742 -122 L742 -69 L255 -69 L255 -122 L189 -122 ZM255 166 L255 -12 L742 -12 L742 166 L255 166 ZM71 547 L71 709 L477 709 Q462 783 452 816 L522 826 Q534 773 546 709 L927 709 L927 547 L862 547 L862 651 L136 651 L136 547 L71 547 ZM501 434 Q376 310 213 222 L796 222 Q624 301 501 434 ZM104 386 Q93 406 67 441 Q217 505 363 591 L402 542 Q224 441 104 386 ZM892 391 Q753 468 591 543 L626 591 Q787 517 926 446 L892 391 Z" /><glyph glyph-name="uni5BBD" unicode="&#x5bbd;" d="M70 -123 Q51 -84 38 -61 Q387 3 425 134 Q446 184 452 265 L519 265 Q515 219 508 182 L573 182 L573 39 Q567 -40 653 -34 L783 -34 Q878 -38 886 19 Q896 54 901 114 Q931 102 963 93 Q957 36 948 -4 Q932 -95 806 -92 L631 -92 Q504 -95 507 23 L507 178 Q500 144 489 116 Q440 -55 70 -123 ZM43 482 L43 538 L306 538 L306 618 L370 618 L370 538 L627 538 L627 618 L691 618 L691 538 L958 538 L958 482 L691 482 L691 414 L627 414 L627 482 L370 482 L370 414 L306 414 L306 482 L43 482 ZM155 68 L155 369 L830 369 L830 78 L763 78 L763 314 L221 314 L221 68 L155 68 ZM66 586 L66 724 L474 724 L451 813 L520 823 Q521 820 523 813 Q539 755 546 724 L931 724 L931 586 L866 586 L866 668 L130 668 L130 586 L66 586 Z" /><glyph glyph-name="uni5BF8" unicode="&#x5bf8;" d="M40 567 L40 632 L668 632 L668 818 L738 818 L738 632 L960 632 L960 567 L738 567 L738 84 Q746 -98 566 -95 Q453 -97 368 -97 Q364 -69 351 -23 Q442 -27 542 -27 Q617 -28 642 0 Q669 25 668 102 L668 567 L40 567 ZM385 190 Q297 295 159 448 L213 487 Q305 389 443 234 L385 190 Z" /><glyph glyph-name="uni5BF9" unicode="&#x5bf9;" d="M407 0 L280 194 Q205 54 65 -85 L20 -26 Q162 108 239 257 Q159 378 54 532 L108 563 Q173 471 271 328 Q328 460 351 652 L49 652 L49 716 L419 716 L419 646 Q384 416 315 264 Q379 171 466 39 L407 0 ZM475 547 L475 609 L793 609 L793 815 L860 815 L860 609 L976 609 L976 547 L860 547 L860 47 Q866 -106 724 -103 Q679 -104 590 -104 Q589 -81 575 -32 Q635 -36 703 -36 Q800 -44 793 59 L793 547 L475 547 ZM613 200 Q558 301 488 412 L541 442 Q618 329 673 234 L613 200 Z" /><glyph glyph-name="uni5C04" unicode="&#x5c04;" d="M28 203 L28 257 L103 257 L103 708 L228 708 Q244 785 249 825 L314 820 Q313 813 310 799 Q298 739 290 708 L466 708 L466 8 Q471 -102 362 -102 Q325 -104 250 -104 Q243 -71 235 -42 Q277 -44 348 -44 Q408 -46 406 14 L406 203 L403 203 Q267 23 58 -77 Q53 -68 38 -44 Q27 -27 24 -21 Q219 63 334 203 L28 203 ZM499 534 L499 595 L796 595 L796 816 L861 816 L861 595 L971 595 L971 534 L861 534 L861 23 Q868 -103 732 -102 Q663 -105 675 -104 Q660 -104 643 -104 Q628 -104 600 -104 Q594 -69 587 -38 Q634 -41 711 -41 Q800 -45 796 32 L796 534 L499 534 ZM164 655 L164 555 L406 555 L406 655 L164 655 ZM164 357 L164 257 L406 257 L406 357 L164 357 ZM164 505 L164 406 L406 406 L406 505 L164 505 ZM653 197 Q609 285 528 422 L583 448 Q652 331 711 226 L653 197 Z" /><glyph glyph-name="uni5C06" unicode="&#x5c06;" d="M360 535 Q347 553 319 584 Q486 692 590 825 L651 802 Q604 745 567 708 L934 708 L934 646 Q761 427 364 336 Q351 362 330 393 Q691 467 858 650 L507 650 L481 627 Q562 566 617 520 L567 480 Q514 529 438 592 Q402 564 360 535 ZM323 235 L323 294 L774 294 L774 415 L838 415 L838 294 L975 294 L975 235 L838 235 L838 15 Q843 -103 718 -105 Q653 -108 598 -108 Q595 -77 585 -40 Q617 -42 641 -43 Q660 -43 700 -43 Q778 -47 774 29 L774 235 L323 235 ZM51 104 L20 171 Q137 273 215 354 L215 817 L278 817 L278 -125 L215 -125 L215 268 Q109 160 51 104 ZM137 418 Q92 518 25 645 L78 669 Q156 522 194 443 L137 418 ZM556 25 Q475 116 419 171 L466 209 Q513 164 608 67 L556 25 Z" /><glyph glyph-name="uni5C0F" unicode="&#x5c0f;" d="M99 91 Q63 113 30 125 Q154 341 235 597 L305 577 Q206 296 99 91 ZM902 107 Q803 330 684 570 L748 593 Q882 326 972 137 L902 107 ZM281 -109 Q276 -76 266 -34 Q311 -36 332 -36 Q357 -37 389 -37 Q441 -38 457 -21 Q475 -5 474 45 L474 810 L545 810 L545 26 Q551 -108 417 -107 Q342 -109 281 -109 Z" /><glyph glyph-name="uni5C11" unicode="&#x5c11;" d="M106 247 Q69 270 42 284 Q162 462 254 682 L321 656 Q224 434 106 247 ZM916 355 Q787 520 658 663 L710 702 Q839 562 974 402 L916 355 ZM463 241 L463 817 L532 817 L532 241 L463 241 ZM65 -123 Q53 -97 28 -53 Q549 48 779 366 L838 325 Q582 -13 65 -123 Z" /><glyph glyph-name="uni5C31" unicode="&#x5c31;" d="M510 491 L510 548 L617 548 Q621 709 621 820 L683 820 Q683 681 677 548 L946 548 L946 491 L778 491 L778 22 Q776 -39 827 -36 L848 -36 Q898 -40 907 29 Q916 96 920 165 Q922 164 925 163 Q959 149 975 145 Q970 73 961 9 Q949 -100 850 -96 L815 -96 Q716 -97 717 4 L717 491 L674 491 Q666 103 459 -123 Q446 -111 406 -81 Q611 128 614 491 L510 491 ZM92 277 L92 539 L466 539 L466 277 L311 277 L311 4 Q316 -106 210 -106 Q186 -107 136 -107 Q133 -80 123 -45 Q156 -48 196 -48 Q252 -51 250 8 L250 277 L92 277 ZM153 485 L153 331 L405 331 L405 485 L153 485 ZM37 638 L37 693 L264 693 Q263 699 259 712 Q243 780 233 815 L297 825 Q318 749 329 699 L300 693 L515 693 L515 638 L37 638 ZM83 -9 Q56 8 29 18 Q83 109 125 212 L181 192 Q132 79 83 -9 ZM867 613 Q803 670 740 719 L782 759 Q858 700 911 655 L867 613 ZM433 75 Q396 139 355 199 L404 224 Q456 153 484 103 L433 75 Z" /><glyph glyph-name="uni5C4F" unicode="&#x5c4f;" d="M71 -117 Q50 -97 20 -74 Q88 26 108 120 Q131 211 130 400 L130 769 L921 769 L921 535 L194 535 L194 392 Q195 194 169 92 Q145 -11 71 -117 ZM262 334 L262 388 L639 388 Q688 463 729 530 L789 505 Q756 455 705 388 L917 388 L917 334 L756 334 L756 191 L971 191 L971 136 L756 136 L756 -119 L694 -119 L694 136 L469 136 Q463 -19 306 -125 Q278 -97 258 -81 Q400 13 405 136 L220 136 L220 191 L409 191 Q410 206 410 224 L410 334 L262 334 ZM194 713 L194 590 L859 590 L859 713 L194 713 ZM473 221 Q473 215 472 205 Q472 195 472 191 L694 191 L694 334 L473 334 L473 221 ZM457 392 Q420 446 375 503 L430 529 Q433 525 439 517 Q488 455 514 419 L457 392 Z" /><glyph glyph-name="uni5C5E" unicode="&#x5c5e;" d="M370 -23 L361 31 Q370 31 390 32 Q495 35 556 39 L556 131 L311 131 L311 -122 L252 -122 L252 177 L556 177 L556 248 L296 248 L296 411 L556 411 L556 480 L256 475 L247 521 Q666 528 907 539 L915 492 Q832 487 615 482 L615 411 L879 411 L879 248 L615 248 L615 177 L936 177 L936 -10 Q943 -115 841 -112 Q814 -114 740 -114 Q740 -112 739 -108 Q732 -75 727 -61 Q746 -62 763 -63 Q776 -63 820 -63 Q883 -69 877 -6 L877 131 L615 131 L615 40 Q679 43 739 47 L718 92 L763 107 Q781 70 809 7 Q816 -9 819 -17 L772 -35 Q770 -30 767 -21 Q765 -15 758 2 Q518 -12 370 -23 ZM74 -120 Q52 -100 24 -77 Q92 29 113 129 Q136 228 135 429 L135 773 L920 773 L920 591 L196 591 L196 432 Q197 214 172 110 Q151 4 74 -120 ZM196 726 L196 637 L860 637 L860 726 L196 726 ZM820 369 L615 369 L615 290 L820 290 L820 369 ZM355 369 L355 290 L556 290 L556 369 L355 369 Z" /><glyph glyph-name="uni5DE5" unicode="&#x5de5;" d="M93 668 L93 734 L905 734 L905 668 L534 668 L534 15 L960 15 L960 -52 L38 -52 L38 15 L463 15 L463 668 L93 668 Z" /><glyph glyph-name="uni5DE7" unicode="&#x5de7;" d="M420 695 L420 759 L959 759 L959 695 L612 695 L569 433 L914 433 Q909 234 901 86 Q899 -100 716 -96 Q675 -97 639 -97 Q621 -97 600 -97 Q582 -97 541 -97 Q536 -55 528 -21 Q623 -26 705 -26 Q831 -34 832 96 Q840 247 842 370 L491 370 L544 695 L420 695 ZM35 655 L35 718 L372 718 L372 655 L240 655 L240 119 L413 160 Q413 158 413 155 Q415 111 417 90 Q253 55 41 0 L24 73 L174 105 L174 655 L35 655 Z" /><glyph glyph-name="uni5DEE" unicode="&#x5dee;" d="M85 635 L85 690 L346 690 Q301 743 245 801 L303 829 Q368 765 408 720 L354 690 L602 690 Q664 757 717 825 L781 798 Q743 752 685 690 L934 690 L934 635 L520 635 Q508 580 493 530 L896 530 L896 476 L476 476 Q455 419 430 368 L972 368 L972 314 L401 314 Q364 251 314 196 L868 196 L868 143 L603 143 L603 -31 L959 -31 L959 -87 L150 -87 L150 -31 L537 -31 L537 143 L293 143 L293 172 Q202 78 61 -12 Q50 9 25 44 Q232 175 325 314 L41 314 L41 368 L358 368 Q386 418 407 476 L111 476 L111 530 L425 530 Q444 593 453 635 L85 635 Z" /><glyph glyph-name="uni5E26" unicode="&#x5e26;" d="M165 -42 L165 294 L466 294 L466 383 L531 383 L531 294 L837 294 L837 73 Q841 -31 734 -33 Q682 -35 629 -35 Q627 -7 617 27 Q667 24 714 24 Q778 20 774 79 L774 237 L531 237 L531 -121 L466 -121 L466 237 L228 237 L228 -42 L165 -42 ZM29 640 L29 697 L226 697 L226 818 L287 818 L287 697 L468 697 L468 819 L530 819 L530 697 L712 697 L712 818 L773 818 L773 697 L970 697 L970 640 L773 640 L773 532 L712 532 L712 640 L530 640 L530 532 L468 532 L468 640 L287 640 L287 532 L226 532 L226 640 L29 640 ZM61 320 L61 484 L937 484 L937 320 L874 320 L874 427 L125 427 L125 320 L61 320 Z" /><glyph glyph-name="uni5E27" unicode="&#x5e27;" d="M197 -123 L197 604 L117 604 L117 86 L63 86 L63 660 L195 660 L195 819 L255 819 L255 660 L388 660 L388 166 Q389 99 330 94 Q312 91 289 91 Q285 115 275 149 L308 149 Q336 146 334 185 L334 604 L253 604 L253 -123 L197 -123 ZM467 92 L467 541 L645 541 L645 822 L706 822 L706 713 L971 713 L971 657 L706 657 L706 541 L915 541 L915 94 L856 94 L856 486 L526 486 L526 92 L467 92 ZM926 -119 Q813 -28 675 71 Q624 -39 412 -123 Q398 -99 372 -64 Q664 23 657 249 Q663 323 663 417 L723 417 Q723 335 717 253 Q711 168 691 110 L703 123 Q828 37 969 -67 L926 -119 Z" /><glyph glyph-name="uni5E38" unicode="&#x5e38;" d="M201 306 L201 515 L798 515 L798 306 L532 306 L532 213 L886 213 L886 54 Q890 -51 777 -52 Q746 -53 671 -53 Q664 -13 656 10 Q711 8 753 8 Q825 4 820 66 L820 158 L532 158 L532 -124 L465 -124 L465 158 L181 158 L181 -52 L116 -52 L116 213 L465 213 L465 306 L201 306 ZM63 495 L63 654 L467 654 L467 820 L533 820 L533 654 L936 654 L936 495 L870 495 L870 600 L129 600 L129 495 L63 495 ZM267 464 L267 357 L733 357 L733 464 L267 464 ZM698 655 L651 695 Q750 762 794 796 L847 761 Q814 735 750 691 Q717 668 698 655 ZM292 656 Q231 707 152 765 L204 798 Q271 750 344 694 L292 656 Z" /><glyph glyph-name="uni5E55" unicode="&#x5e55;" d="M469 -123 L469 102 L244 102 L244 -65 L183 -65 L183 112 Q125 85 56 59 Q44 86 25 113 Q192 164 301 248 L55 248 L55 299 L359 299 Q389 331 413 367 L158 367 L158 633 L841 633 L841 367 L481 367 Q460 331 434 299 L947 299 L947 248 L670 248 Q784 153 971 124 Q957 99 944 67 Q860 89 816 106 L816 29 Q821 -58 720 -57 Q686 -58 620 -58 L610 -5 Q643 -7 703 -7 Q757 -9 755 40 L755 102 L530 102 L530 -123 L469 -123 ZM48 706 L48 756 L323 756 L323 822 L386 822 L386 756 L616 756 L616 822 L679 822 L679 756 L954 756 L954 706 L679 706 L679 657 L616 657 L616 706 L386 706 L386 657 L323 657 L323 706 L48 706 ZM221 587 L221 521 L777 521 L777 587 L221 587 ZM221 479 L221 413 L777 413 L777 479 L221 479 ZM530 218 L530 151 L719 151 Q654 187 600 248 L386 248 Q332 196 255 151 L469 151 L469 218 L530 218 Z" /><glyph glyph-name="uni5E76" unicode="&#x5e76;" d="M72 581 L72 645 L587 645 Q656 735 713 825 L777 796 Q722 721 663 645 L927 645 L927 581 L725 581 L725 331 L968 331 L968 267 L725 267 L725 -120 L656 -120 L656 267 L350 267 Q357 12 121 -125 Q95 -96 72 -74 Q196 6 236 74 Q279 140 282 267 L29 267 L29 331 L283 331 L283 581 L72 581 ZM351 581 L351 331 L656 331 L656 581 L351 581 ZM348 654 Q341 663 327 680 Q268 753 234 792 L291 823 Q351 756 407 687 L348 654 Z" /><glyph glyph-name="uni5E7B" unicode="&#x5e7b;" d="M77 3 L50 71 Q81 91 113 134 Q201 242 300 389 Q149 386 55 377 L30 442 Q59 462 87 500 Q198 649 283 808 L350 781 Q236 598 122 441 Q172 443 275 446 Q316 446 338 447 Q396 535 437 610 L501 580 Q277 242 146 72 Q213 76 377 84 Q412 86 427 87 Q389 169 348 252 L405 278 Q482 123 542 -7 L480 -34 Q468 -4 453 29 Q273 21 170 12 Q160 11 142 10 Q100 6 77 3 ZM567 -96 Q564 -75 555 -37 Q553 -30 552 -26 Q635 -30 707 -30 Q777 -31 802 -7 Q829 16 831 81 Q842 352 847 676 L461 676 L461 737 L914 737 Q908 412 896 71 Q901 -100 719 -94 Q633 -96 567 -96 Z" /><glyph glyph-name="uni5E7F" unicode="&#x5e7f;" d="M88 -114 Q63 -94 25 -66 Q106 38 132 136 Q160 233 159 422 L159 669 L547 669 Q514 740 480 800 L551 823 Q587 760 623 688 L572 669 L960 669 L960 604 L228 604 L228 418 Q229 222 199 114 Q171 3 88 -114 Z" /><glyph glyph-name="uni5E8F" unicode="&#x5e8f;" d="M397 -106 Q394 -84 382 -40 Q436 -43 503 -43 Q572 -45 570 24 L570 239 L247 239 L247 297 L594 297 Q508 353 404 415 L441 459 Q530 407 584 373 L791 495 L293 495 L293 552 L891 552 L891 489 L639 339 Q641 338 644 336 Q648 333 656 328 L629 297 L953 297 L953 238 L879 70 L815 92 L886 239 L635 239 L635 15 Q636 -101 522 -104 Q461 -106 397 -106 ZM80 -122 Q61 -104 23 -76 Q85 22 106 122 Q128 221 128 404 L128 708 L531 708 Q516 742 486 804 L553 823 L605 708 L968 708 L968 649 L193 649 L193 396 Q201 58 80 -122 Z" /><glyph glyph-name="uni5E93" unicode="&#x5e93;" d="M246 462 L246 518 L450 518 Q483 572 512 626 L581 613 Q553 565 523 518 L916 518 L916 462 L487 462 Q425 369 363 286 L587 286 L587 408 L651 408 L651 286 L914 286 L914 230 L651 230 L651 113 L962 113 L962 56 L651 56 L651 -122 L587 -122 L587 56 L209 56 L209 113 L587 113 L587 230 L290 230 L290 295 Q347 364 413 462 L246 462 ZM76 -122 Q51 -99 24 -78 Q88 28 104 113 Q123 196 122 390 L122 715 L527 715 Q521 740 509 787 Q504 805 501 815 L571 824 Q574 812 580 786 Q591 741 597 715 L960 715 L960 659 L185 659 L185 383 Q186 191 163 90 Q142 -12 76 -122 Z" /><glyph glyph-name="uni5E94" unicode="&#x5e94;" d="M77 -118 L23 -75 Q90 32 109 126 Q131 217 130 411 L130 685 L531 685 Q518 726 488 811 L555 824 Q578 765 603 685 L953 685 L953 624 L195 624 L195 426 Q196 214 171 106 Q148 -4 77 -118 ZM211 -60 L211 2 L662 2 Q764 283 823 516 L888 500 Q799 191 729 2 L964 2 L964 -60 L211 -60 ZM367 97 Q319 285 262 476 L322 491 Q371 332 431 114 L367 97 ZM578 146 Q543 325 499 523 L559 536 Q603 352 643 159 L578 146 Z" /><glyph glyph-name="uni5E97" unicode="&#x5e97;" d="M295 -120 L295 285 L508 285 L508 597 L573 597 L573 491 L947 491 L947 433 L573 433 L573 285 L873 285 L873 -120 L808 -120 L808 -56 L360 -56 L360 -120 L295 -120 ZM74 -123 Q50 -100 17 -76 Q79 20 98 116 Q120 211 119 404 L119 706 L521 706 L492 816 L564 827 Q571 801 584 745 Q590 719 593 706 L968 706 L968 648 L185 648 L185 396 Q194 51 74 -123 ZM360 227 L360 2 L808 2 L808 227 L360 227 Z" /><glyph glyph-name="uni5EA6" unicode="&#x5ea6;" d="M933 -113 Q703 -74 569 -8 Q438 -73 208 -124 Q193 -93 174 -62 Q365 -30 503 28 Q395 95 316 204 L251 204 L251 259 L843 259 L843 199 Q745 93 635 27 Q757 -22 962 -49 Q951 -71 933 -113 ZM222 493 L222 549 L364 549 L364 631 L426 631 L426 549 L714 549 L714 631 L775 631 L775 549 L950 549 L950 493 L775 493 L775 343 L364 343 L364 493 L222 493 ZM76 -122 Q51 -98 24 -78 Q87 28 103 113 Q122 195 121 389 L121 718 L525 718 Q517 756 501 815 L570 825 Q580 786 596 718 L960 718 L960 661 L184 661 L184 383 Q185 191 162 90 Q142 -11 76 -122 ZM764 204 L390 204 Q471 110 568 59 Q679 117 764 204 ZM426 493 L426 395 L714 395 L714 493 L426 493 Z" /><glyph glyph-name="uni5EA7" unicode="&#x5ea7;" d="M250 137 L250 194 L545 194 L545 596 L608 596 L608 194 L901 194 L901 137 L608 137 L608 -21 L967 -21 L967 -78 L187 -78 L187 -21 L545 -21 L545 137 L250 137 ZM78 -111 Q59 -93 25 -66 Q83 38 101 131 Q120 222 119 410 L119 698 L539 698 Q532 721 505 791 Q499 805 497 812 L564 826 Q576 796 600 730 Q606 713 609 705 L579 698 L964 698 L964 641 L182 641 L182 426 Q183 215 162 112 Q143 7 78 -111 ZM901 278 Q857 332 779 415 Q744 350 680 284 Q676 287 669 294 Q645 316 631 326 Q737 422 778 565 L838 553 Q818 493 805 466 Q887 387 947 323 L901 278 ZM465 288 Q401 366 357 413 Q319 341 255 268 Q234 290 206 308 Q311 408 355 564 L414 553 Q413 550 411 543 Q392 489 381 463 Q423 423 485 358 Q502 340 511 330 L465 288 Z" /><glyph glyph-name="uni5EF6" unicode="&#x5ef6;" d="M949 -85 Q934 -85 902 -85 Q682 -86 559 -81 Q326 -74 210 30 Q163 -34 68 -121 Q45 -89 26 -67 Q119 13 165 77 Q95 162 45 303 L100 327 Q148 199 199 133 Q252 228 269 384 L48 384 L48 446 L265 684 L45 684 L45 743 L337 743 L337 678 L123 442 L332 442 L332 380 Q309 192 244 83 Q343 -12 567 -20 Q733 -26 969 -20 Q954 -59 949 -85 ZM444 117 L444 544 L508 544 L508 176 L657 176 L657 695 Q544 688 416 682 Q414 704 403 742 Q685 754 920 776 L933 716 Q929 716 922 715 Q799 705 721 700 L721 483 L924 483 L924 424 L721 424 L721 176 L941 176 L941 117 L444 117 Z" /><glyph glyph-name="uni5F00" unicode="&#x5f00;" d="M82 688 L82 751 L935 751 L935 688 L742 688 L742 392 L977 392 L977 327 L742 327 L742 -116 L673 -116 L673 327 L354 327 Q369 16 103 -125 Q79 -94 53 -66 Q192 14 236 92 Q284 170 286 327 L38 327 L38 392 L287 392 L287 688 L82 688 ZM355 688 L355 392 L673 392 L673 688 L355 688 Z" /><glyph glyph-name="uni5F02" unicode="&#x5f02;" d="M263 336 Q130 331 135 463 L135 775 L826 775 L826 521 L201 521 L201 471 Q196 387 282 392 L787 392 Q868 388 880 451 Q893 504 898 545 Q925 534 961 522 Q951 462 938 419 Q916 333 799 336 L263 336 ZM668 -122 L668 123 L330 123 Q322 -42 120 -125 Q115 -120 104 -108 Q80 -81 69 -71 Q257 2 263 123 L31 123 L31 179 L269 179 Q273 222 273 290 L339 290 Q337 214 335 179 L668 179 L668 289 L734 289 L734 179 L966 179 L966 123 L734 123 L734 -122 L668 -122 ZM201 720 L201 576 L761 576 L761 720 L201 720 Z" /><glyph glyph-name="uni5F0F" unicode="&#x5f0f;" d="M30 559 L30 621 L563 621 Q559 708 559 822 L626 822 Q625 728 628 621 L965 621 L965 559 L631 559 Q635 454 648 368 Q674 156 728 46 Q772 -47 830 -45 Q871 -47 887 15 Q903 76 912 146 Q954 127 972 122 Q961 41 943 -17 Q913 -118 827 -115 Q730 -116 665 26 Q605 153 582 362 Q571 459 565 559 L30 559 ZM66 331 L66 393 L503 393 L503 331 L316 331 L316 56 L545 88 Q544 74 544 25 Q370 4 45 -43 L30 22 Q135 33 249 48 L249 331 L66 331 ZM838 645 Q787 697 712 761 L758 800 Q849 725 888 687 L838 645 Z" /><glyph glyph-name="uni5F15" unicode="&#x5f15;" d="M188 -104 Q184 -77 170 -33 Q251 -37 347 -37 Q471 -44 476 74 Q484 135 490 254 L81 254 L130 540 L485 540 L485 714 L80 714 L80 774 L552 774 L552 480 L187 480 L158 314 L562 314 Q554 162 544 60 Q538 -107 360 -102 Q320 -103 281 -104 Q263 -104 242 -104 Q224 -104 188 -104 ZM812 -122 L812 817 L879 817 L879 -122 L812 -122 Z" /><glyph glyph-name="uni5F3A" unicode="&#x5f3a;" d="M390 138 L390 406 L625 406 L625 525 L426 525 L426 771 L885 771 L885 525 L687 525 L687 406 L922 406 L922 138 L687 138 L687 -9 L850 -2 L797 80 L851 106 Q905 26 976 -91 L922 -120 L887 -61 Q550 -75 345 -90 L336 -22 Q350 -22 379 -21 Q540 -16 625 -12 L625 138 L390 138 ZM129 476 L112 303 L311 303 Q306 137 297 34 Q291 -43 260 -72 Q231 -101 154 -103 Q119 -104 71 -104 Q65 -65 57 -38 Q105 -41 146 -41 Q234 -48 236 42 Q244 135 247 247 L46 247 L74 532 L260 532 L260 712 L49 712 L49 767 L321 767 L321 476 L129 476 ZM487 717 L487 578 L824 578 L824 717 L487 717 ZM450 351 L450 193 L625 193 L625 351 L450 351 ZM862 351 L687 351 L687 193 L862 193 L862 351 Z" /><glyph glyph-name="uni5F55" unicode="&#x5f55;" d="M156 546 L156 600 L754 600 L754 712 L138 712 L138 767 L819 767 L819 432 L969 432 L969 376 L540 376 L540 356 Q590 253 644 193 Q763 267 848 331 L895 282 Q797 216 687 151 Q777 70 971 16 Q944 -24 934 -47 Q632 48 540 245 L540 20 Q548 -104 428 -103 Q386 -106 315 -106 Q309 -64 302 -40 Q322 -41 342 -42 Q358 -42 400 -42 Q480 -47 475 34 L475 152 Q184 27 53 -27 L27 39 Q236 113 475 218 L475 376 L35 376 L35 432 L754 432 L754 546 L156 546 ZM284 171 Q204 230 112 288 L151 334 Q243 279 328 221 L284 171 Z" /><glyph glyph-name="uni5F62" unicode="&#x5f62;" d="M62 694 L62 753 L577 753 L577 694 L462 694 L462 404 L606 404 L606 345 L462 345 L462 -116 L398 -116 L398 345 L226 345 Q235 38 70 -119 Q66 -115 56 -106 Q26 -77 18 -71 Q105 22 131 104 Q161 185 162 345 L35 345 L35 404 L162 404 L162 694 L62 694 ZM226 694 L226 404 L398 404 L398 694 L226 694 ZM571 -123 L530 -65 Q765 44 922 246 L973 204 Q798 -13 571 -123 ZM625 227 Q610 248 582 280 Q778 382 901 524 L949 480 Q817 334 625 227 ZM616 519 Q601 545 575 573 Q764 671 883 806 L932 762 Q806 626 616 519 Z" /><glyph glyph-name="uni5F69" unicode="&#x5f69;" d="M55 308 L55 365 L270 365 L270 442 L330 442 L330 365 L530 365 L530 308 L330 308 L330 193 L356 223 Q467 148 546 88 L504 37 Q405 119 330 173 L330 -120 L270 -120 L270 222 Q197 79 64 -36 Q48 -8 26 22 Q172 133 263 308 L55 308 ZM529 -120 Q512 -92 490 -62 Q762 48 919 253 L970 212 Q797 -5 529 -120 ZM58 692 Q52 722 44 749 Q304 759 535 780 L549 724 Q335 707 58 692 ZM617 223 L575 277 Q768 376 891 518 L939 475 Q803 326 617 223 ZM602 497 Q586 521 563 550 Q744 641 868 782 L916 739 Q784 598 602 497 ZM447 444 L395 471 Q456 567 496 655 L551 631 Q495 525 447 444 ZM134 445 Q104 516 54 608 L107 629 Q151 549 190 468 L134 445 ZM295 490 Q275 563 239 653 L295 668 Q328 582 352 504 L295 490 Z" /><glyph glyph-name="uni5F71" unicode="&#x5f71;" d="M79 501 L79 780 L545 780 L545 501 L79 501 ZM93 131 L93 307 L534 307 L534 131 L354 131 L354 -21 Q355 -114 261 -116 Q225 -118 176 -118 Q175 -107 169 -78 Q166 -67 165 -61 Q200 -64 239 -64 Q297 -66 295 -12 L295 131 L93 131 ZM585 -124 Q569 -102 544 -73 Q543 -71 542 -70 Q782 56 921 256 L972 215 Q815 3 585 -124 ZM28 374 L28 423 L294 423 Q288 442 272 482 L331 495 L355 423 L607 423 L607 374 L28 374 ZM152 261 L152 177 L475 177 L475 261 L152 261 ZM651 231 Q636 255 609 283 Q780 392 897 550 L948 507 Q815 343 651 231 ZM138 733 L138 661 L487 661 L487 733 L138 733 ZM138 618 L138 547 L487 547 L487 618 L138 618 ZM643 520 Q618 553 600 570 Q751 662 861 802 L912 763 Q797 623 643 520 ZM68 -84 L28 -43 Q100 15 171 93 L218 60 Q141 -23 68 -84 ZM527 -47 Q465 12 409 60 L448 97 Q521 38 568 -6 L527 -47 Z" /><glyph glyph-name="uni5F84" unicode="&#x5f84;" d="M338 331 Q329 352 304 390 Q637 506 806 699 L382 699 L382 759 L885 759 L885 693 Q805 598 711 527 Q824 471 974 389 L934 333 Q797 414 658 490 Q529 404 338 331 ZM361 223 L361 284 L919 284 L919 223 L676 223 L676 -11 L973 -11 L973 -71 L306 -71 L306 -11 L610 -11 L610 223 L361 223 ZM48 179 Q42 194 23 235 Q20 240 19 243 Q163 376 275 575 L333 542 Q281 456 225 380 L225 -121 L160 -121 L160 297 Q108 236 48 179 ZM69 503 Q59 526 36 565 Q181 680 270 819 L327 784 Q213 624 69 503 Z" /><glyph glyph-name="uni5F97" unicode="&#x5f97;" d="M400 431 L400 778 L896 778 L896 431 L400 431 ZM349 290 L349 344 L952 344 L952 290 L836 290 L836 199 L972 199 L972 144 L836 144 L836 10 Q842 -109 720 -106 Q652 -108 588 -108 Q582 -75 571 -44 Q642 -47 699 -47 Q778 -52 772 13 L772 144 L309 144 L309 199 L772 199 L772 290 L349 290 ZM161 -121 L161 318 Q108 254 51 198 Q40 231 25 263 Q158 389 262 575 L316 542 Q271 468 223 400 L223 -121 L161 -121 ZM462 580 L462 483 L834 483 L834 580 L462 580 ZM462 725 L462 629 L834 629 L834 725 L462 725 ZM72 511 Q63 533 39 570 Q164 668 267 821 L323 787 Q216 634 72 511 ZM501 -32 Q452 28 392 87 L438 125 Q501 67 551 11 L501 -32 Z" /><glyph glyph-name="uni5FAE" unicode="&#x5fae;" d="M642 374 Q620 409 606 426 Q703 585 753 819 L813 809 Q784 694 763 637 L978 637 L978 582 L927 582 Q907 292 826 136 Q877 38 977 -58 Q976 -60 972 -65 Q947 -99 939 -112 Q845 -15 793 78 Q737 -13 631 -117 L589 -69 Q706 38 763 138 Q708 263 686 453 Q666 413 642 374 ZM263 -95 Q245 -73 220 -51 Q277 0 292 45 Q310 88 309 186 L309 258 L566 258 L566 70 Q571 74 582 84 Q629 125 655 149 L666 84 Q583 16 525 -40 L486 14 Q512 39 510 94 L510 204 L365 204 L365 161 Q374 -2 263 -95 ZM283 506 L283 732 L334 732 L334 559 L424 559 L424 805 L479 805 L479 559 L569 559 L569 733 L621 733 L621 506 L283 506 ZM47 197 Q35 233 19 259 Q132 383 204 558 L256 529 Q225 460 190 399 L190 -123 L132 -123 L132 306 Q92 249 47 197 ZM796 202 Q857 339 871 582 L743 582 Q735 561 726 540 Q748 324 796 202 ZM63 515 Q55 535 31 572 Q138 672 207 819 L259 786 Q181 629 63 515 ZM294 356 L294 411 L602 411 L602 356 L294 356 Z" /><glyph glyph-name="uni5FC3" unicode="&#x5fc3;" d="M422 -88 Q275 -91 278 60 L278 629 L347 629 L347 73 Q341 -27 441 -21 L615 -21 Q717 -24 729 63 Q739 120 746 197 Q772 187 817 173 Q805 80 793 26 Q772 -91 628 -88 L422 -88 ZM907 183 Q839 341 745 522 L809 552 Q911 354 976 216 L907 183 ZM94 125 Q65 136 25 148 Q89 334 129 525 L197 507 Q152 319 94 125 ZM585 527 Q509 650 411 787 L467 825 Q556 705 644 570 L585 527 Z" /><glyph glyph-name="uni5FC5" unicode="&#x5fc5;" d="M423 -74 Q279 -77 282 68 L282 75 Q189 11 80 -52 Q58 -19 37 5 Q171 77 282 157 L282 651 L348 651 L348 208 Q534 358 674 561 Q734 647 788 743 L850 711 Q790 607 728 520 Q562 287 348 124 L348 80 Q342 -15 442 -9 L627 -9 Q727 -14 735 69 Q743 116 749 189 Q781 177 818 167 Q810 101 796 34 Q777 -77 638 -74 L423 -74 ZM94 197 Q63 211 30 222 Q90 382 134 547 L198 529 Q154 371 94 197 ZM907 188 Q852 306 771 450 L827 480 Q899 361 968 223 L907 188 ZM555 600 Q471 694 381 779 L428 821 Q521 734 606 648 L555 600 Z" /><glyph glyph-name="uni5FEB" unicode="&#x5feb;" d="M318 279 L318 339 L556 339 Q563 395 566 591 L387 591 L387 650 L566 650 Q567 722 567 716 Q567 734 567 757 Q567 777 567 817 L634 817 Q634 748 634 716 Q634 679 633 650 L870 650 L870 339 L964 339 L964 279 L648 279 Q731 59 967 -44 Q945 -72 922 -105 Q672 26 600 251 Q562 49 321 -121 Q310 -107 281 -75 Q275 -68 272 -65 Q512 85 547 279 L318 279 ZM329 468 Q286 525 231 589 L231 -121 L168 -121 L168 818 L231 818 L231 621 L256 646 Q317 580 374 511 L329 468 ZM807 591 L632 591 Q631 427 623 339 L807 339 L807 591 ZM77 350 Q54 356 23 360 Q50 493 63 597 L117 589 Q95 436 77 350 Z" /><glyph glyph-name="uni6001" unicode="&#x6001;" d="M497 302 Q437 352 358 410 Q262 335 66 273 Q52 298 29 335 Q380 427 439 620 L60 620 L60 680 L456 680 Q462 707 463 737 Q464 752 465 770 Q465 786 465 822 L532 822 Q532 741 524 680 L938 680 L938 620 L551 620 Q658 415 971 350 Q969 347 966 341 Q944 302 936 285 Q592 373 496 603 Q465 509 400 446 Q491 388 542 349 L497 302 ZM401 -91 Q270 -97 275 34 L275 228 L339 228 L339 45 Q333 -37 425 -32 L594 -32 Q674 -35 686 35 Q693 66 701 126 Q743 111 765 105 Q758 58 745 2 Q724 -94 606 -91 L401 -91 ZM94 -49 Q50 -28 32 -22 Q96 103 128 213 L191 194 Q146 65 94 -49 ZM912 -16 Q829 121 779 189 L834 220 Q902 125 971 18 L912 -16 ZM545 85 Q502 146 432 231 L480 267 Q535 207 599 127 L545 85 Z" /><glyph glyph-name="uni6027" unicode="&#x6027;" d="M392 382 Q364 399 332 412 Q418 571 457 754 L521 741 Q505 672 484 607 L631 607 L631 820 L697 820 L697 607 L945 607 L945 546 L697 546 L697 307 L928 307 L928 246 L697 246 L697 -15 L972 -15 L972 -77 L322 -77 L322 -15 L631 -15 L631 246 L384 246 L384 307 L631 307 L631 546 L463 546 Q432 462 392 382 ZM311 498 Q279 547 226 617 L226 -123 L162 -123 L162 821 L226 821 L226 623 L265 657 Q304 612 356 540 L311 498 ZM81 355 Q55 362 26 365 Q47 467 66 601 L120 593 Q108 510 81 355 Z" /><glyph glyph-name="uni606F" unicode="&#x606f;" d="M150 239 L150 728 L392 728 Q412 791 419 824 L487 816 Q475 777 457 728 L840 728 L840 239 L150 239 ZM214 530 L214 437 L775 437 L775 530 L214 530 ZM214 674 L214 581 L775 581 L775 674 L214 674 ZM214 386 L214 293 L775 293 L775 386 L214 386 ZM382 -101 Q249 -106 254 26 L254 169 L319 169 L319 35 Q312 -48 403 -42 L599 -42 Q682 -44 693 14 Q702 49 711 110 Q738 99 774 87 Q762 21 753 -7 Q731 -105 609 -101 L382 -101 ZM81 -58 L23 -31 Q70 59 106 166 L167 144 Q119 20 81 -58 ZM927 -17 Q860 77 803 143 L854 176 Q908 116 982 23 L927 -17 ZM538 53 Q489 112 431 174 L477 209 Q524 165 590 92 L538 53 Z" /><glyph glyph-name="uni60A6" unicode="&#x60a6;" d="M368 261 L368 632 L662 632 Q731 731 785 817 L848 790 Q773 684 733 632 L888 632 L888 261 L741 261 L741 36 Q738 -41 806 -37 L837 -37 Q894 -40 900 17 Q907 68 912 132 Q922 128 947 118 Q963 112 970 109 Q967 51 957 -15 Q945 -98 844 -97 L788 -97 Q675 -99 677 23 L677 261 L556 261 Q555 217 552 182 Q546 -16 318 -121 L275 -67 Q490 26 489 188 Q492 220 494 261 L368 261 ZM432 574 L432 319 L825 319 L825 574 L432 574 ZM314 463 Q270 528 221 591 L221 -121 L158 -121 L158 812 L221 812 L221 612 L254 640 Q280 609 343 526 Q354 512 359 505 L314 463 ZM72 352 L19 363 Q47 502 62 603 L114 594 Q88 436 72 352 ZM519 639 Q461 718 407 783 L461 814 Q530 735 576 672 L519 639 Z" /><glyph glyph-name="uni60A8" unicode="&#x60a8;" d="M347 516 Q328 531 295 555 Q400 670 472 822 L536 807 Q511 758 489 720 L934 720 L934 660 L872 532 Q846 544 811 555 L868 663 L455 663 Q406 587 347 516 ZM379 -91 Q261 -92 262 25 L262 183 L327 183 L327 38 Q328 -31 401 -31 L585 -31 Q676 -36 687 40 Q697 85 704 132 Q722 124 768 108 Q761 72 747 13 Q723 -95 599 -91 L379 -91 ZM60 470 Q43 500 23 526 Q161 664 243 825 L304 801 Q260 725 215 659 L215 252 L153 252 L153 576 Q108 519 60 470 ZM477 261 Q472 291 463 323 Q507 320 546 320 Q610 318 608 374 L608 599 L671 599 L671 367 Q674 263 561 262 Q544 261 526 261 Q511 261 477 261 ZM333 303 Q311 325 286 345 Q378 424 461 529 L513 495 Q429 395 333 303 ZM920 -9 Q857 82 774 184 L826 219 Q879 156 966 44 Q973 35 976 31 L920 -9 ZM914 302 Q808 414 738 476 L781 515 Q855 451 963 346 L914 302 ZM94 -45 L33 -20 Q89 80 131 196 L191 176 Q147 58 94 -45 ZM548 69 Q485 140 422 196 L467 235 Q520 190 598 112 L548 69 Z" /><glyph glyph-name="uni60C5" unicode="&#x60c5;" d="M374 -119 L374 362 L902 362 L902 1 Q906 -110 791 -110 Q722 -112 660 -112 Q654 -83 644 -50 Q701 -54 772 -54 Q845 -58 840 7 L840 56 L436 56 L436 -119 L374 -119 ZM336 689 L336 739 L604 739 L604 822 L667 822 L667 739 L957 739 L957 689 L667 689 L667 611 L928 611 L928 564 L667 564 L667 484 L972 484 L972 434 L311 434 L311 484 L604 484 L604 564 L364 564 L364 611 L604 611 L604 689 L336 689 ZM299 507 Q260 549 221 584 L221 -121 L159 -121 L159 819 L221 819 L221 618 L243 641 Q303 590 338 554 L299 507 ZM436 185 L436 103 L840 103 L840 185 L436 185 ZM436 313 L436 232 L840 232 L840 313 L436 313 ZM78 351 Q51 358 24 362 Q52 485 66 601 L120 592 Q98 450 78 351 Z" /><glyph glyph-name="uni60CA" unicode="&#x60ca;" d="M470 -114 Q465 -78 458 -49 Q501 -52 547 -52 Q612 -55 608 1 L608 253 L392 253 L392 534 L885 534 L885 253 L671 253 L671 -8 Q675 -111 571 -112 Q522 -114 470 -114 ZM303 493 Q297 500 285 514 Q239 567 215 593 L215 -121 L154 -121 L154 817 L215 817 L215 620 L238 645 Q285 601 345 536 L303 493 ZM454 478 L454 309 L823 309 L823 478 L454 478 ZM325 647 L325 704 L614 704 Q597 763 582 809 L648 820 Q662 777 682 704 L959 704 L959 647 L325 647 ZM332 -71 Q301 -44 282 -31 Q372 66 442 183 L496 152 Q424 39 332 -71 ZM908 -60 Q825 61 758 147 L808 179 Q882 85 961 -25 L908 -60 ZM72 359 Q70 359 67 360 Q47 366 23 369 Q50 494 67 609 L117 602 Q99 484 72 359 Z" /><glyph glyph-name="uni610F" unicode="&#x610f;" d="M153 166 L153 461 L838 461 L838 166 L153 166 ZM93 681 L93 731 L475 731 Q463 767 447 813 L514 825 L545 731 L905 731 L905 681 L708 681 L750 665 Q725 632 683 581 L966 581 L966 531 L33 531 L33 581 L311 581 Q298 599 266 638 Q253 655 247 662 L284 681 L93 681 ZM217 292 L217 214 L775 214 L775 292 L217 292 ZM217 413 L217 337 L775 337 L775 413 L217 413 ZM385 -94 Q258 -101 265 21 L265 117 L328 117 L328 32 Q320 -47 408 -40 L589 -40 Q670 -44 681 16 Q690 46 698 95 Q731 80 759 72 Q751 27 738 -13 Q715 -97 606 -94 L385 -94 ZM379 594 L352 581 L609 581 Q653 637 682 681 L310 681 Q349 636 379 594 ZM83 -82 Q47 -59 28 -49 Q86 27 133 112 L191 86 Q123 -27 83 -82 ZM918 -60 Q877 3 812 91 L866 120 Q911 62 975 -28 L918 -60 ZM536 13 Q494 60 431 122 L476 158 Q546 92 585 53 L536 13 Z" /><glyph glyph-name="uni611F" unicode="&#x611f;" d="M94 159 Q78 172 44 197 Q99 278 116 347 Q136 415 135 537 L135 693 L612 693 Q611 703 610 723 Q607 783 606 819 L666 819 Q668 750 672 693 L824 693 Q803 714 752 759 Q740 769 736 773 L777 807 Q820 773 870 726 L830 693 L963 693 L963 640 L677 640 Q691 483 728 385 Q789 459 844 578 L899 554 Q832 413 754 324 Q795 240 840 240 Q877 239 892 285 Q910 337 922 393 Q923 393 925 392 Q946 382 976 371 Q964 315 949 267 Q918 176 842 178 Q768 179 710 277 Q657 225 588 175 L549 225 Q629 280 682 334 Q633 450 617 640 L195 640 L195 537 Q204 302 94 159 ZM261 235 L261 441 L549 441 L549 235 L261 235 ZM394 -99 Q260 -105 266 28 L266 153 L329 153 L329 38 Q328 -10 347 -25 Q363 -42 417 -41 L581 -41 Q674 -46 684 17 Q694 57 702 110 L762 87 Q754 38 743 -4 Q721 -103 602 -99 L394 -99 ZM319 393 L319 284 L491 284 L491 393 L319 393 ZM238 517 L238 566 L569 566 L569 517 L238 517 ZM89 -68 L30 -40 Q86 52 129 150 L187 127 Q140 25 89 -68 ZM916 -51 Q849 53 802 116 L854 146 Q924 51 971 -19 L916 -51 ZM529 43 Q478 107 423 165 L471 199 Q520 151 581 83 L529 43 Z" /><glyph glyph-name="uni6162" unicode="&#x6162;" d="M375 513 L375 782 L887 782 L887 513 L375 513 ZM326 254 L326 446 L938 446 L938 254 L326 254 ZM935 -113 Q739 -80 632 -31 Q511 -83 309 -125 Q298 -99 278 -69 Q460 -36 567 2 Q483 51 411 141 L355 141 L355 188 L879 188 L879 135 Q799 54 700 1 Q799 -33 963 -56 Q945 -88 935 -113 ZM155 -113 L155 820 L215 820 L215 -113 L155 -113 ZM435 626 L435 557 L826 557 L826 626 L435 626 ZM435 736 L435 668 L826 668 L826 736 L435 736 ZM807 141 L482 141 Q554 67 632 29 Q724 71 807 141 ZM882 402 L749 402 L749 298 L882 298 L882 402 ZM382 402 L382 298 L513 298 L513 402 L382 402 ZM566 402 L566 298 L696 298 L696 402 L566 402 ZM73 353 Q53 359 22 364 Q46 472 66 606 L118 598 Q93 438 73 353 ZM317 494 Q262 563 222 606 L261 644 Q285 621 351 545 Q356 539 358 537 L317 494 Z" /><glyph glyph-name="uni6167" unicode="&#x6167;" d="M151 245 L151 286 L787 286 L787 355 L119 355 L119 399 L851 399 L851 130 L117 130 L117 174 L787 174 L787 245 L151 245 ZM71 704 L71 747 L265 747 L265 816 L325 816 L325 747 L476 747 L476 704 L325 704 L325 633 L465 633 L465 592 L325 592 L325 520 L480 520 L480 476 L325 476 L325 420 L265 420 L265 476 L48 476 L48 520 L265 520 L265 592 L93 592 L93 633 L265 633 L265 704 L71 704 ZM520 704 L520 747 L672 747 L672 816 L732 816 L732 747 L927 747 L927 704 L732 704 L732 633 L904 633 L904 592 L732 592 L732 520 L940 520 L940 476 L732 476 L732 420 L672 420 L672 476 L517 476 L517 520 L672 520 L672 592 L532 592 L532 633 L672 633 L672 704 L520 704 ZM372 -110 Q273 -114 277 -10 L277 81 L341 81 L341 1 Q337 -59 402 -55 L604 -55 Q681 -58 689 -7 Q693 7 698 36 Q700 48 701 54 Q735 42 762 35 Q755 -7 748 -33 Q728 -113 616 -110 L372 -110 ZM913 -86 Q875 -26 802 71 L854 99 Q926 8 969 -53 L913 -86 ZM89 -96 Q80 -89 46 -67 Q40 -63 37 -61 Q91 3 148 89 L203 62 Q139 -33 89 -96 ZM537 -11 Q490 47 442 99 L487 127 Q511 105 565 48 Q581 31 588 24 L537 -11 Z" /><glyph glyph-name="uni620F" unicode="&#x620f;" d="M429 468 L420 529 L574 547 Q568 677 566 823 L631 823 Q632 707 638 554 L948 590 L955 529 L641 492 Q650 312 681 205 Q770 302 850 437 L905 404 Q807 244 703 133 Q758 -38 833 -43 Q869 -45 886 14 Q899 65 912 146 Q942 130 972 121 Q958 33 939 -28 Q916 -112 833 -112 Q723 -111 651 82 Q562 -2 441 -82 Q419 -53 393 -27 Q530 56 629 151 Q589 286 577 485 L429 468 ZM372 21 L263 195 Q195 58 62 -82 Q38 -48 18 -25 Q158 119 222 258 Q120 415 48 519 L101 552 Q109 540 127 514 Q209 393 252 329 Q298 452 324 643 L46 643 L46 704 L386 704 L386 640 Q353 407 295 265 Q385 128 427 61 L372 21 ZM845 612 Q841 615 833 621 Q743 689 689 724 L727 769 Q850 687 886 661 L845 612 Z" /><glyph glyph-name="uni6210" unicode="&#x6210;" d="M834 -114 Q731 -119 662 62 Q584 -23 477 -103 Q453 -75 431 -53 Q556 36 637 131 Q585 290 570 572 L189 572 L189 413 L466 413 Q464 295 455 147 Q453 2 326 4 Q293 3 235 3 Q232 24 226 54 Q223 65 222 71 Q254 68 312 68 Q390 63 392 147 Q400 260 401 355 L189 355 Q188 177 165 85 Q145 -8 77 -122 Q73 -119 63 -111 Q35 -88 23 -79 Q90 30 106 118 Q126 203 125 405 L125 631 L566 631 Q563 720 562 822 L626 822 Q628 718 632 631 L964 631 L964 572 L636 572 Q649 329 688 193 Q770 302 843 472 L904 447 Q809 242 711 119 Q766 -46 833 -46 Q871 -49 889 13 Q905 80 913 142 Q945 126 972 119 Q962 39 944 -19 Q915 -115 834 -114 ZM843 656 Q772 711 702 756 L743 796 Q819 748 885 698 L843 656 Z" /><glyph glyph-name="uni6211" unicode="&#x6211;" d="M65 668 Q59 705 50 730 Q246 746 440 778 L458 718 Q426 712 351 702 Q319 697 303 695 L303 530 L564 530 Q556 658 556 823 L623 823 Q621 664 630 530 L974 530 L974 469 L634 469 Q638 407 645 356 Q656 264 672 198 Q765 281 853 403 L909 365 Q797 220 692 129 Q707 84 727 48 Q774 -47 831 -44 Q870 -46 886 13 Q902 76 911 145 Q939 130 972 119 Q960 36 940 -28 Q914 -113 831 -112 Q732 -114 665 20 Q650 49 637 84 Q539 9 404 -60 Q378 -24 362 -5 Q512 69 615 151 Q591 241 580 349 Q573 404 568 469 L303 469 L303 290 L492 325 Q490 299 493 263 L303 229 L303 10 Q307 -100 203 -103 Q172 -105 84 -105 Q79 -72 70 -38 Q96 -41 174 -41 Q239 -44 236 18 L236 216 L38 178 L25 244 Q41 247 36 246 Q155 264 236 278 L236 469 L24 469 L24 530 L236 530 L236 687 Q127 674 65 668 ZM851 583 Q769 663 692 727 L738 769 Q810 709 900 629 L851 583 Z" /><glyph glyph-name="uni6216" unicode="&#x6216;" d="M40 590 L40 650 L561 650 Q558 744 558 818 L623 818 Q623 749 626 650 L966 650 L966 590 L629 590 L632 522 Q644 318 686 180 Q776 303 840 474 L902 449 Q818 246 712 109 Q744 39 784 -4 Q820 -43 853 -43 Q886 -42 897 9 Q909 61 919 147 Q949 133 979 124 Q963 9 948 -41 Q924 -116 859 -117 Q788 -118 733 -46 Q692 0 666 53 Q588 -35 478 -122 Q461 -100 433 -70 Q551 15 638 118 Q583 269 568 516 Q565 553 564 590 L40 590 ZM107 164 L107 480 L445 480 L445 164 L107 164 ZM170 422 L170 222 L382 222 L382 422 L170 422 ZM42 -57 L28 10 Q205 33 491 78 Q490 57 492 16 Q231 -22 42 -57 ZM842 677 Q786 724 713 774 L753 814 Q804 781 886 721 L842 677 Z" /><glyph glyph-name="uni6218" unicode="&#x6218;" d="M61 -88 L61 360 L207 360 L207 820 L271 820 L271 637 L466 637 L466 579 L271 579 L271 360 L431 360 L431 -79 L368 -79 L368 -20 L124 -20 L124 -88 L61 -88 ZM471 462 L461 522 L602 539 Q594 662 592 823 L657 823 Q657 682 664 546 L949 581 L955 523 L668 487 Q681 311 705 207 Q807 309 879 436 L936 403 Q836 244 724 137 Q752 52 800 -6 Q828 -43 857 -42 Q890 -42 900 7 Q912 59 922 146 Q948 134 980 123 Q972 61 958 -9 Q936 -112 861 -112 Q787 -113 736 -29 Q700 20 673 90 Q593 21 481 -52 Q463 -26 439 4 Q559 75 652 157 Q620 275 605 479 L471 462 ZM124 302 L124 38 L368 38 L368 302 L124 302 ZM867 636 Q803 692 729 748 L767 790 Q828 748 908 682 L867 636 Z" /><glyph glyph-name="uni6240" unicode="&#x6240;" d="M72 -116 Q53 -99 19 -72 Q74 18 89 100 Q107 181 106 357 L106 747 Q275 756 430 786 L454 725 Q321 704 169 693 L169 534 L421 534 L421 218 L166 218 Q160 28 72 -116 ZM422 -123 Q404 -102 369 -74 Q462 28 491 130 Q523 231 522 435 L522 742 Q743 752 931 785 L955 722 Q777 697 586 685 L586 464 L975 464 L975 406 L831 406 L831 -118 L768 -118 L768 406 L586 406 Q595 64 422 -123 ZM358 478 L169 478 L169 356 Q169 340 168 311 Q168 286 168 274 L358 274 L358 478 Z" /><glyph glyph-name="uni624B" unicode="&#x624b;" d="M96 684 Q93 715 87 747 Q511 753 870 777 L883 715 Q692 705 538 698 L538 509 L887 509 L887 449 L538 449 L538 258 L971 258 L971 196 L538 196 L538 23 Q544 -105 407 -104 Q363 -105 255 -105 Q252 -77 240 -36 Q267 -38 301 -38 Q317 -39 337 -39 Q354 -39 386 -39 Q475 -45 469 40 L469 196 L30 196 L30 258 L469 258 L469 449 L100 449 L100 509 L469 509 L469 695 Q255 687 96 684 Z" /><glyph glyph-name="uni6253" unicode="&#x6253;" d="M39 562 L39 624 L194 624 L194 811 L260 811 L260 624 L402 624 L402 562 L260 562 L260 352 L415 397 Q417 362 420 332 Q355 314 260 286 L260 -1 Q262 -104 157 -108 Q111 -110 57 -110 Q52 -80 43 -41 Q89 -44 137 -44 Q196 -46 194 11 L194 267 Q174 261 135 249 Q68 229 35 218 L20 287 Q122 314 194 334 L194 562 L39 562 ZM433 675 L433 740 L970 740 L970 675 L802 675 L802 43 Q807 -104 663 -103 Q636 -104 604 -104 Q589 -104 569 -104 Q553 -104 519 -104 Q513 -65 504 -35 Q577 -39 635 -39 Q740 -46 733 60 L733 675 L433 675 Z" /><glyph glyph-name="uni626B" unicode="&#x626b;" d="M428 319 L428 381 L850 381 L850 678 L406 678 L406 741 L918 741 L918 -121 L850 -121 L850 -68 L365 -68 L365 -4 L850 -4 L850 319 L428 319 ZM34 566 L34 624 L168 624 L168 813 L234 813 L234 624 L364 624 L364 566 L234 566 L234 360 Q270 370 342 392 Q358 397 366 399 Q366 364 369 333 Q359 330 339 324 Q272 305 234 293 L234 8 Q240 -108 132 -106 Q94 -107 47 -107 Q41 -65 34 -36 Q51 -37 70 -38 Q87 -38 117 -38 Q171 -41 168 20 L168 273 L32 232 L23 303 Q90 319 168 341 L168 566 L34 566 Z" /><glyph glyph-name="uni6279" unicode="&#x6279;" d="M759 -99 Q650 -101 652 14 L652 820 L717 820 L717 448 Q818 531 913 638 L962 592 Q847 472 717 366 L717 24 Q714 -39 770 -36 L826 -36 Q890 -37 899 29 Q909 87 916 176 Q947 165 977 157 Q969 67 955 -4 Q937 -98 837 -99 L759 -99 ZM35 573 L35 632 L156 632 L156 820 L219 820 L219 632 L322 632 L322 573 L219 573 L219 355 Q225 357 237 360 Q268 370 322 387 Q320 358 320 320 L219 289 L219 -12 Q223 -111 131 -113 Q91 -116 50 -116 Q44 -68 38 -46 Q70 -48 108 -48 Q160 -51 156 -2 L156 268 Q132 261 81 243 Q48 233 31 227 L23 299 Q55 307 122 326 Q145 333 156 336 L156 573 L35 573 ZM401 -109 L358 -57 Q389 -27 387 24 L387 810 L452 810 L452 515 L603 515 L603 453 L452 453 L452 1 Q510 39 603 95 Q605 56 609 24 Q547 -10 444 -76 Q421 -91 401 -109 Z" /><glyph glyph-name="uni627E" unicode="&#x627e;" d="M407 459 L398 519 L564 538 Q556 658 556 823 L622 823 Q622 695 629 546 L948 584 L954 524 L633 485 Q638 415 646 356 Q655 283 665 231 Q767 316 859 433 L911 395 Q791 248 682 161 Q699 99 727 48 Q775 -45 831 -43 Q870 -45 886 13 Q902 75 912 148 Q945 132 972 124 Q962 43 942 -21 Q918 -114 832 -112 Q734 -113 668 18 Q644 62 626 119 Q517 43 382 -22 Q364 10 341 38 Q503 111 608 187 Q590 261 580 352 Q573 414 568 478 L407 459 ZM38 566 L38 624 L198 624 L198 813 L263 813 L263 624 L404 624 L404 566 L263 566 L263 344 L416 372 Q415 354 418 308 Q385 303 263 280 L263 5 Q268 -109 156 -109 Q122 -110 69 -110 Q65 -78 57 -46 Q101 -48 138 -48 Q201 -51 198 16 L198 268 Q163 261 96 248 Q53 240 34 236 L23 305 Q79 313 198 333 L198 566 L38 566 ZM839 620 Q788 664 691 736 L729 778 Q820 716 881 667 L839 620 Z" /><glyph glyph-name="uni6280" unicode="&#x6280;" d="M387 605 L387 665 L630 665 L630 819 L695 819 L695 665 L957 665 L957 605 L695 605 L695 443 L903 443 L903 385 Q827 186 708 78 Q802 4 969 -53 Q940 -95 931 -116 Q756 -45 658 36 Q544 -51 350 -124 Q343 -112 322 -83 Q313 -69 310 -65 Q505 5 609 81 Q506 185 439 385 L397 385 L397 443 L630 443 L630 605 L387 605 ZM34 571 L34 628 L164 628 L164 813 L227 813 L227 628 L341 628 L341 571 L227 571 L227 362 Q310 384 348 395 Q348 354 349 332 L227 299 L227 4 Q232 -108 129 -109 Q84 -112 53 -111 Q47 -75 39 -45 Q55 -46 112 -46 Q169 -50 164 14 L164 281 L30 242 L23 312 Q53 318 143 341 Q157 344 164 346 L164 571 L34 571 ZM833 385 L506 385 Q565 215 660 120 Q768 212 833 385 Z" /><glyph glyph-name="uni6295" unicode="&#x6295;" d="M939 -115 Q749 -62 637 22 Q517 -63 331 -122 Q316 -93 296 -61 Q470 -15 586 63 Q480 162 428 320 L391 320 L391 378 L878 378 L878 319 Q806 161 689 62 Q794 -10 972 -51 Q952 -86 939 -115 ZM37 568 L37 627 L162 627 L162 813 L224 813 L224 627 L338 627 L338 568 L224 568 L224 361 L329 392 Q327 357 330 328 L224 296 L224 6 Q229 -109 125 -110 Q73 -112 50 -112 Q44 -65 38 -42 Q83 -43 107 -43 Q165 -47 162 16 L162 277 Q97 258 31 235 L24 305 Q89 322 162 343 L162 568 L37 568 ZM390 416 Q360 453 346 468 Q420 516 444 561 Q470 605 469 686 L469 775 L819 775 L819 588 Q815 521 883 525 L967 525 Q961 499 956 466 L865 466 Q752 462 756 572 L756 717 L530 717 L530 676 Q538 510 390 416 ZM808 320 L490 320 Q543 185 639 102 Q750 191 808 320 Z" /><glyph glyph-name="uni6296" unicode="&#x6296;" d="M341 123 L333 186 L739 235 L739 818 L805 818 L805 243 L969 263 L975 199 L805 178 L805 -122 L739 -122 L739 170 L341 123 ZM38 573 L38 633 L165 633 L165 814 L230 814 L230 633 L341 633 L341 573 L230 573 L230 362 Q239 364 256 369 Q289 378 349 396 Q348 374 348 331 L230 298 L230 0 Q234 -109 129 -110 Q98 -111 49 -111 Q45 -74 38 -43 Q71 -46 112 -46 Q168 -49 165 8 L165 278 L31 237 L24 307 L165 344 L165 573 L38 573 ZM579 317 Q496 383 391 454 L429 502 Q521 441 621 369 L579 317 ZM620 557 Q525 633 438 696 L477 741 Q584 667 663 608 L620 557 Z" /><glyph glyph-name="uni62A4" unicode="&#x62a4;" d="M349 -119 Q330 -102 292 -75 Q371 35 393 133 Q418 228 417 434 L417 675 L658 675 Q618 749 589 797 L651 819 Q686 761 727 690 L688 675 L925 675 L925 248 L860 248 L860 297 L479 297 Q476 52 349 -119 ZM42 579 L42 638 L165 638 L165 818 L230 818 L230 638 L347 638 L347 579 L230 579 L230 362 Q292 379 353 397 Q353 364 355 333 L230 298 L230 3 Q234 -107 131 -105 Q85 -107 53 -107 Q47 -60 41 -39 Q75 -41 113 -41 Q169 -45 165 13 L165 279 Q136 271 77 253 Q48 244 33 240 L24 310 Q52 316 118 333 Q149 341 165 345 L165 579 L42 579 ZM482 422 Q482 387 481 357 L860 357 L860 614 L482 614 L482 422 Z" /><glyph glyph-name="uni62A5" unicode="&#x62a5;" d="M927 -109 Q788 -33 718 29 Q647 -37 514 -116 Q499 -94 474 -61 Q608 16 673 74 Q579 172 526 366 L456 366 L456 -126 L392 -126 L392 770 L915 770 Q912 681 907 625 Q904 512 766 514 Q722 513 616 513 Q614 529 605 568 Q604 572 603 574 Q690 571 751 571 Q846 567 846 636 Q846 638 846 643 Q849 691 849 713 L456 713 L456 423 L921 423 L921 360 Q861 181 764 75 Q831 17 966 -51 Q941 -86 927 -109 ZM37 547 L37 605 L162 605 L162 812 L226 812 L226 605 L337 605 L337 547 L226 547 L226 354 Q281 369 335 387 Q335 360 336 323 L226 290 L226 -9 Q231 -103 131 -106 Q99 -108 50 -108 Q47 -86 41 -50 Q40 -43 39 -40 Q63 -43 110 -43 Q164 -45 162 8 L162 271 Q139 264 92 249 Q53 236 34 230 L26 298 L162 335 L162 547 L37 547 ZM857 366 L590 366 Q639 201 719 119 Q803 207 857 366 Z" /><glyph glyph-name="uni62C5" unicode="&#x62c5;" d="M418 152 L418 762 L903 762 L903 152 L418 152 ZM36 574 L36 631 L168 631 L168 817 L232 817 L232 631 L354 631 L354 574 L232 574 L232 346 Q263 354 327 371 Q347 376 357 379 Q355 329 356 316 L232 282 L232 5 Q238 -108 121 -108 Q89 -109 59 -109 L49 -41 Q70 -43 106 -43 Q171 -46 168 15 L168 265 L34 228 L29 297 L168 329 L168 574 L36 574 ZM482 430 L482 212 L838 212 L838 430 L482 430 ZM482 702 L482 488 L838 488 L838 702 L482 702 ZM318 -74 L318 -13 L965 -13 L965 -74 L318 -74 Z" /><glyph glyph-name="uni62C9" unicode="&#x62c9;" d="M38 550 L38 611 L167 611 L167 822 L230 822 L230 611 L346 611 L346 550 L230 550 L230 348 L361 377 Q361 349 363 313 Q296 299 230 284 L230 -5 Q232 -109 136 -111 Q106 -112 53 -112 Q49 -83 41 -42 Q73 -45 114 -45 Q170 -48 167 7 L167 270 L34 237 L24 307 Q32 308 48 312 Q123 326 167 335 L167 550 L38 550 ZM338 -72 L338 -9 L666 -9 Q752 283 803 500 L872 483 Q790 184 732 -9 L973 -9 L973 -72 L338 -72 ZM392 589 L392 651 L937 651 L937 589 L392 589 ZM529 79 Q487 303 439 483 L501 500 Q554 291 596 95 L529 79 ZM658 654 Q628 741 602 803 L668 820 Q700 742 725 672 L658 654 Z" /><glyph glyph-name="uni62CD" unicode="&#x62cd;" d="M392 -117 L392 686 L557 686 Q575 744 592 821 L663 811 Q644 746 623 686 L919 686 L919 -117 L853 -117 L853 -41 L458 -41 L458 -117 L392 -117 ZM458 303 L458 19 L853 19 L853 303 L458 303 ZM458 626 L458 362 L853 362 L853 626 L458 626 ZM33 571 L33 631 L164 631 L164 814 L229 814 L229 631 L338 631 L338 571 L229 571 L229 365 Q240 368 264 375 Q314 390 340 399 Q340 370 342 334 Q318 327 272 313 Q243 304 229 300 L229 4 Q233 -103 128 -106 Q106 -107 50 -107 Q46 -73 39 -40 Q73 -43 110 -43 Q167 -46 164 13 L164 279 Q101 260 34 237 L26 308 L164 346 L164 571 L33 571 Z" /><glyph glyph-name="uni62D4" unicode="&#x62d4;" d="M930 -108 Q771 -48 667 46 Q549 -57 373 -122 Q357 -92 333 -61 Q510 -4 622 91 Q531 192 481 341 Q414 136 285 -32 Q266 -2 243 25 Q426 253 477 585 L357 585 L357 644 L486 644 Q494 704 501 821 L567 818 Q560 727 549 644 L966 644 L966 585 L540 585 Q529 517 514 454 L882 454 L882 394 Q825 209 713 90 Q815 1 968 -44 Q966 -48 961 -55 Q940 -88 930 -108 ZM36 582 L36 641 L150 641 L150 817 L212 817 L212 641 L307 641 L307 582 L212 582 L212 373 Q236 381 286 399 Q311 408 323 412 Q323 378 324 349 L212 310 L212 8 Q215 -104 116 -105 Q90 -106 42 -106 Q39 -79 30 -38 Q61 -40 99 -40 Q152 -42 150 16 L150 288 L26 243 L20 312 Q73 326 150 352 L150 582 L36 582 ZM817 396 L518 396 Q573 237 668 133 Q771 240 817 396 ZM827 672 Q756 728 687 772 L725 810 Q778 777 868 718 L827 672 Z" /><glyph glyph-name="uni62DF" unicode="&#x62df;" d="M34 570 L34 628 L158 628 L158 814 L220 814 L220 628 L330 628 L330 570 L220 570 L220 361 Q249 369 307 388 Q326 393 335 396 Q335 352 336 332 L220 299 L220 5 Q224 -108 121 -109 Q95 -111 48 -111 Q46 -89 40 -55 Q38 -46 37 -41 Q70 -44 105 -44 Q161 -47 158 13 L158 280 Q102 263 31 240 L23 307 L158 343 L158 570 L34 570 ZM930 -93 Q865 -1 773 113 Q709 -8 542 -124 Q519 -96 495 -70 Q789 94 789 452 Q792 513 794 594 Q795 670 795 803 L859 803 Q859 606 851 451 Q842 280 801 173 Q899 60 983 -48 L930 -93 ZM406 9 L362 60 Q392 95 390 149 L390 743 L453 743 L453 140 Q529 204 607 274 Q614 240 626 208 Q577 168 467 73 Q457 64 452 60 Q425 32 406 9 ZM638 560 Q588 671 526 791 L579 815 Q639 704 695 588 L638 560 Z" /><glyph glyph-name="uni6301" unicode="&#x6301;" d="M36 560 L36 619 L164 619 L164 821 L227 821 L227 619 L339 619 L339 560 L227 560 L227 350 Q234 352 249 355 Q283 363 340 378 Q338 337 341 313 L227 287 L227 -6 Q229 -107 134 -108 Q93 -109 50 -109 Q48 -78 39 -39 Q59 -41 114 -41 Q166 -43 164 10 L164 272 Q149 268 119 261 Q65 247 34 239 L25 307 L164 336 L164 560 L36 560 ZM399 632 L399 689 L630 689 L630 821 L695 821 L695 689 L930 689 L930 632 L695 632 L695 483 L973 483 L973 426 L355 426 L355 483 L630 483 L630 632 L399 632 ZM354 234 L354 292 L758 292 L758 380 L823 380 L823 292 L972 292 L972 234 L823 234 L823 10 Q827 -106 695 -107 Q667 -108 638 -108 Q624 -108 608 -108 Q594 -108 567 -108 Q564 -79 554 -40 Q582 -42 609 -42 Q622 -43 637 -43 Q650 -43 678 -43 Q765 -50 758 32 L758 234 L354 234 ZM536 20 Q473 90 402 156 L449 197 Q459 188 479 169 Q563 88 586 64 L536 20 Z" /><glyph glyph-name="uni6307" unicode="&#x6307;" d="M405 -122 L405 356 L906 356 L906 -121 L842 -121 L842 -63 L470 -63 L470 -122 L405 -122 ZM37 574 L37 633 L160 633 L160 817 L223 817 L223 633 L338 633 L338 574 L223 574 L223 350 Q283 364 343 380 Q343 357 345 316 L223 286 L223 2 Q229 -109 119 -111 Q93 -113 50 -113 Q46 -76 39 -47 Q45 -47 56 -47 Q80 -48 102 -47 Q164 -51 160 9 L160 269 Q133 262 77 246 Q45 237 29 233 L23 305 Q89 319 160 335 L160 574 L37 574 ZM522 452 Q392 448 397 567 L397 821 L461 821 L461 663 Q704 708 918 768 L940 713 Q715 653 461 609 L461 586 Q455 502 548 507 L793 507 Q875 503 890 571 Q899 600 906 658 Q939 645 968 638 Q959 580 948 538 Q928 449 809 452 L522 452 ZM470 122 L470 -7 L842 -7 L842 122 L470 122 ZM470 301 L470 175 L842 175 L842 301 L470 301 Z" /><glyph glyph-name="uni6309" unicode="&#x6309;" d="M357 342 L357 402 L506 402 Q542 483 570 563 L637 547 Q606 472 574 402 L968 402 L968 342 L851 342 Q805 177 712 83 Q731 72 770 51 Q896 -18 962 -55 L921 -112 Q795 -35 663 39 Q548 -55 321 -122 Q305 -90 286 -60 Q495 -6 604 72 Q502 129 396 186 Q442 263 479 342 L357 342 ZM38 570 L38 629 L157 629 L157 817 L220 817 L220 629 L320 629 L320 570 L220 570 L220 361 L321 393 Q321 358 325 330 Q312 326 288 319 Q271 314 220 298 L220 -10 Q224 -106 129 -108 Q88 -110 51 -110 Q45 -64 39 -43 Q69 -46 111 -46 Q159 -48 157 -2 L157 278 L35 238 L26 306 Q89 323 157 342 L157 570 L38 570 ZM373 513 L373 681 L645 681 Q618 742 588 798 L649 818 Q679 763 712 694 L677 681 L947 681 L947 513 L885 513 L885 622 L435 622 L435 513 L373 513 ZM479 206 Q499 196 539 175 Q562 163 654 114 Q744 199 785 342 L547 342 Q514 272 479 206 Z" /><glyph glyph-name="uni6349" unicode="&#x6349;" d="M415 429 L415 767 L899 767 L899 429 L692 429 L692 264 L942 264 L942 206 L692 206 L692 -26 Q704 -28 717 -28 Q837 -31 975 -29 Q960 -71 954 -93 Q810 -93 709 -89 Q518 -87 443 71 Q412 -25 330 -120 Q305 -97 280 -76 Q416 60 418 318 L481 314 Q475 218 464 157 Q525 12 628 -15 L628 429 L415 429 ZM44 563 L44 622 L170 622 L170 816 L233 816 L233 622 L353 622 L353 563 L233 563 L233 350 L356 378 Q356 340 357 316 Q294 302 233 287 L233 -3 Q238 -108 131 -109 Q105 -110 53 -110 Q49 -79 42 -45 Q76 -47 112 -47 Q174 -50 170 7 L170 272 Q119 260 37 239 L29 305 L170 335 L170 563 L44 563 ZM478 709 L478 487 L836 487 L836 709 L478 709 Z" /><glyph glyph-name="uni6355" unicode="&#x6355;" d="M612 -102 L612 105 L421 105 L421 -121 L359 -121 L359 507 L612 507 L612 614 L335 614 L335 671 L612 671 L612 820 L674 820 L674 671 L972 671 L972 614 L674 614 L674 507 L933 507 L933 -14 Q937 -110 846 -111 Q811 -113 743 -113 Q735 -76 728 -54 Q746 -55 768 -56 Q787 -56 821 -56 Q874 -59 871 -7 L871 105 L674 105 L674 -102 L612 -102 ZM39 574 L39 633 L146 633 L146 821 L208 821 L208 633 L304 633 L304 574 L208 574 L208 367 L310 404 Q311 374 315 341 L208 304 L208 -15 Q212 -113 121 -113 Q93 -116 46 -116 Q41 -81 32 -48 Q81 -52 105 -51 Q147 -51 146 -9 L146 281 L34 239 L23 305 Q56 315 125 338 Q139 343 146 345 L146 574 L39 574 ZM674 278 L674 158 L871 158 L871 278 L674 278 ZM871 451 L674 451 L674 331 L871 331 L871 451 ZM421 451 L421 331 L612 331 L612 451 L421 451 ZM421 278 L421 158 L612 158 L612 278 L421 278 ZM855 684 Q790 751 758 779 L803 809 Q847 774 901 718 L855 684 Z" /><glyph glyph-name="uni6362" unicode="&#x6362;" d="M367 493 Q341 524 323 539 Q454 664 526 825 L592 813 Q568 766 543 724 L837 724 L837 666 L727 522 L901 522 L901 230 L972 230 L972 173 L674 173 Q752 6 971 -54 Q953 -83 936 -117 Q705 -36 636 129 Q590 -25 309 -124 Q292 -94 272 -63 Q553 22 591 173 L301 173 L301 230 L381 230 L381 507 Q379 505 376 502 Q373 500 367 493 ZM39 577 L39 637 L146 637 L146 817 L208 817 L208 637 L313 637 L313 577 L208 577 L208 361 Q259 376 310 393 Q310 347 312 330 L208 298 L208 -9 Q209 -111 117 -112 Q87 -114 37 -114 Q34 -79 28 -47 Q64 -50 96 -50 Q148 -53 146 4 L146 278 Q108 266 29 239 L22 307 L146 342 L146 577 L39 577 ZM840 466 L672 466 L671 318 Q671 271 665 230 L840 230 L840 466 ZM442 466 L442 230 L604 230 Q610 269 610 315 L610 466 L442 466 ZM766 668 L508 668 Q455 590 394 522 L655 522 L766 668 Z" /><glyph glyph-name="uni636E" unicode="&#x636e;" d="M293 -115 Q264 -91 241 -74 Q312 27 337 134 Q364 240 363 429 L363 765 L924 765 L924 518 L426 518 L426 390 L659 390 L659 487 L720 487 L720 390 L970 390 L970 334 L720 334 L720 208 L917 208 L917 -116 L856 -116 L856 -60 L526 -60 L526 -116 L465 -116 L465 208 L659 208 L659 334 L424 334 Q421 62 293 -115 ZM39 572 L39 630 L153 630 L153 817 L215 817 L215 630 L316 630 L316 572 L215 572 L215 355 Q263 369 310 384 Q310 354 313 321 Q287 314 215 291 L215 -3 Q220 -110 119 -109 Q106 -109 111 -109 Q57 -111 41 -111 Q39 -89 30 -44 Q30 -44 35 -44 Q84 -47 100 -47 Q157 -50 153 4 L153 271 L34 233 L26 302 Q85 317 153 337 L153 572 L39 572 ZM426 710 L426 572 L863 572 L863 710 L426 710 ZM526 154 L526 -6 L856 -6 L856 154 L526 154 Z" /><glyph glyph-name="uni638C" unicode="&#x638c;" d="M106 278 Q104 296 96 329 Q491 329 871 340 L879 291 Q772 288 540 284 L540 211 L867 211 L867 164 L540 164 L540 91 L964 91 L964 41 L540 41 L540 3 Q545 -107 420 -107 Q391 -108 361 -109 Q346 -109 328 -109 Q313 -109 281 -109 Q279 -92 270 -54 Q269 -51 269 -49 Q343 -53 403 -53 Q481 -57 476 11 L476 41 L36 41 L36 91 L476 91 L476 164 L105 164 L105 211 L476 211 L476 282 Q360 280 128 278 Q113 278 106 278 ZM205 397 L205 576 L792 576 L792 397 L205 397 ZM59 529 L59 692 L299 692 Q276 709 224 745 Q188 770 172 781 L219 815 Q307 758 360 718 L327 692 L467 692 L467 824 L531 824 L531 692 L664 692 L633 718 Q710 767 776 815 L825 782 Q762 735 696 692 L940 692 L940 529 L880 529 L880 643 L120 643 L120 529 L59 529 ZM269 530 L269 444 L728 444 L728 530 L269 530 Z" /><glyph glyph-name="uni63A2" unicode="&#x63a2;" d="M343 288 L343 346 L613 346 L613 476 L676 476 L676 346 L963 346 L963 288 L706 288 Q808 107 984 22 Q967 0 942 -38 Q762 76 676 248 L676 -121 L613 -121 L613 248 Q509 65 322 -51 Q321 -50 320 -47 Q297 -11 282 7 Q468 106 583 288 L343 288 ZM36 558 L36 616 L150 616 L150 816 L213 816 L213 616 L306 616 L306 558 L213 558 L213 354 L303 382 Q303 354 307 320 Q263 308 213 291 L213 -7 Q217 -107 118 -107 Q85 -109 43 -109 Q40 -79 32 -43 Q67 -45 103 -45 Q153 -49 150 3 L150 272 Q93 254 35 234 L23 301 Q48 307 101 322 Q134 332 150 336 L150 558 L36 558 ZM357 588 L357 754 L935 754 L935 588 L874 588 L874 698 L418 698 L418 588 L357 588 ZM408 396 Q391 417 363 443 Q464 524 544 626 L593 587 Q505 487 408 396 ZM884 414 Q790 506 693 587 L734 627 Q864 522 929 460 L884 414 Z" /><glyph glyph-name="uni63A5" unicode="&#x63a5;" d="M322 234 L322 289 L503 289 Q534 339 561 387 L627 371 Q602 328 576 289 L965 289 L965 234 L838 234 Q786 113 713 45 Q826 -1 959 -58 L920 -115 Q795 -55 660 4 Q545 -75 305 -123 Q293 -95 270 -60 Q485 -22 587 35 L382 121 Q426 175 466 234 L322 234 ZM34 573 L34 631 L154 631 L154 820 L217 820 L217 631 L312 631 L312 573 L217 573 L217 359 Q270 373 317 386 Q318 344 322 322 L217 294 L217 2 Q222 -110 120 -111 Q91 -112 32 -112 Q28 -77 20 -45 Q69 -48 103 -47 Q156 -49 154 8 L154 277 Q123 269 61 250 Q42 245 33 242 L24 311 L154 342 L154 573 L34 573 ZM323 421 L323 475 L693 475 Q751 557 797 632 L857 605 Q805 530 762 475 L968 475 L968 421 L323 421 ZM354 647 L354 702 L643 702 Q619 752 591 803 L654 822 Q678 780 708 715 L670 702 L936 702 L936 647 L354 647 ZM471 142 L646 73 Q718 128 769 234 L539 234 Q515 198 471 142 ZM535 476 Q474 561 441 604 L495 631 Q527 593 591 505 L535 476 Z" /><glyph glyph-name="uni63A8" unicode="&#x63a8;" d="M384 -121 L384 490 Q354 447 318 402 Q313 413 288 445 Q281 454 278 458 Q407 602 487 819 L551 801 Q513 712 476 643 L959 643 L959 587 L731 587 L731 431 L949 431 L949 376 L731 376 L731 221 L949 221 L949 166 L731 166 L731 6 L969 6 L969 -49 L448 -49 L448 -121 L384 -121 ZM34 560 L34 618 L152 618 L152 817 L215 817 L215 618 L317 618 L317 560 L215 560 L215 347 L320 378 Q320 350 322 316 Q306 311 275 302 Q235 290 215 284 L215 -12 Q219 -107 126 -109 Q87 -111 44 -111 Q41 -75 33 -42 Q71 -45 107 -45 Q154 -47 152 -2 L152 264 L35 227 L25 294 L152 329 L152 560 L34 560 ZM448 166 L448 6 L667 6 L667 166 L448 166 ZM448 587 L448 431 L667 431 L667 587 L448 587 ZM448 376 L448 221 L667 221 L667 376 L448 376 ZM710 648 Q682 704 629 790 L687 815 Q744 721 770 674 L710 648 Z" /><glyph glyph-name="uni63CF" unicode="&#x63cf;" d="M360 -121 L360 471 L924 471 L924 -120 L862 -120 L862 -59 L423 -59 L423 -121 L360 -121 ZM33 577 L33 636 L144 636 L144 818 L206 818 L206 636 L301 636 L301 577 L206 577 L206 365 Q251 380 300 398 Q300 371 302 333 L206 300 L206 -7 Q211 -111 116 -111 Q106 -111 76 -112 Q43 -112 41 -113 Q37 -80 29 -47 Q67 -50 100 -50 Q146 -52 144 -2 L144 279 Q114 269 56 248 Q40 242 32 239 L25 309 Q81 324 144 345 L144 577 L33 577 ZM738 525 L738 637 L546 637 L546 525 L483 525 L483 637 L331 637 L331 696 L483 696 L483 817 L546 817 L546 696 L738 696 L738 818 L801 818 L801 696 L971 696 L971 637 L801 637 L801 525 L738 525 ZM673 179 L673 -2 L862 -2 L862 179 L673 179 ZM423 179 L423 -2 L611 -2 L611 179 L423 179 ZM862 414 L673 414 L673 234 L862 234 L862 414 ZM423 414 L423 234 L611 234 L611 414 L423 414 Z" /><glyph glyph-name="uni63D0" unicode="&#x63d0;" d="M396 428 L396 773 L881 773 L881 428 L396 428 ZM313 284 L313 338 L964 338 L964 284 L677 284 L677 165 L926 165 L926 113 L677 113 L677 -29 L692 -29 Q740 -30 817 -31 Q897 -31 976 -30 Q966 -57 958 -88 Q844 -88 787 -87 Q721 -87 668 -85 Q492 -85 421 58 Q386 -38 305 -121 Q301 -118 293 -112 Q268 -92 254 -83 Q384 37 399 240 L460 232 Q453 177 443 132 Q506 -9 615 -22 L615 284 L313 284 ZM36 557 L36 616 L157 616 L157 818 L219 818 L219 616 L323 616 L323 557 L219 557 L219 377 L317 422 Q317 420 317 415 Q319 376 322 357 L219 313 L219 5 Q225 -107 126 -110 Q101 -112 54 -112 Q49 -70 43 -46 Q60 -47 110 -47 Q159 -50 157 11 L157 286 L31 228 L22 296 Q81 318 157 351 L157 557 L36 557 ZM458 576 L458 480 L819 480 L819 576 L458 576 ZM458 721 L458 626 L819 626 L819 721 L458 721 Z" /><glyph glyph-name="uni63D2" unicode="&#x63d2;" d="M729 143 L729 197 L871 197 L871 342 L726 342 L726 397 L932 397 L932 -123 L871 -123 L871 -71 L415 -71 L415 -126 L354 -126 L354 385 Q465 400 543 430 L570 375 Q500 355 415 341 L415 197 L559 197 L559 143 L415 143 L415 -16 L610 -16 L610 515 L333 515 L333 572 L610 572 L610 701 Q495 694 365 689 L353 747 Q645 755 929 779 L941 721 Q926 720 895 718 Q757 708 672 704 L672 572 L975 572 L975 515 L672 515 L672 -16 L871 -16 L871 143 L729 143 ZM38 583 L38 641 L150 641 L150 818 L212 818 L212 641 L306 641 L306 583 L212 583 L212 362 L305 395 Q305 367 310 330 Q301 327 283 321 Q260 314 212 298 L212 4 Q218 -107 120 -110 Q95 -112 53 -112 Q49 -73 42 -46 Q59 -47 103 -47 Q153 -51 150 10 L150 276 Q96 256 34 232 L25 302 Q85 320 150 341 L150 583 L38 583 Z" /><glyph glyph-name="uni63E1" unicode="&#x63e1;" d="M282 -117 Q271 -107 228 -79 Q297 29 317 124 Q339 217 338 418 L338 772 L928 772 L928 562 L397 562 L397 432 Q398 215 375 111 Q354 4 282 -117 ZM36 571 L36 628 L142 628 L142 817 L202 817 L202 628 L295 628 L295 571 L202 571 L202 376 Q225 385 274 406 Q288 412 295 415 Q296 375 300 349 L202 310 L202 3 Q208 -103 114 -103 Q80 -104 47 -104 Q44 -81 37 -44 Q36 -41 36 -40 Q53 -41 98 -41 Q145 -45 142 6 L142 286 Q114 275 56 250 Q44 245 38 242 L23 308 Q83 329 142 352 L142 571 L36 571 ZM439 432 L439 482 L946 482 L946 432 L679 432 Q612 363 531 288 Q621 289 796 294 Q811 295 819 295 Q803 311 772 342 Q758 356 752 362 L794 393 Q886 308 957 234 L910 197 L864 247 Q656 246 542 238 Q496 237 463 232 L444 287 Q473 306 501 329 Q548 369 601 432 L439 432 ZM435 83 L435 134 L647 134 L647 225 L707 225 L707 134 L916 134 L916 83 L707 83 L707 -26 L969 -26 L969 -78 L380 -78 L380 -26 L647 -26 L647 83 L435 83 ZM397 722 L397 610 L869 610 L869 722 L397 722 Z" /><glyph glyph-name="uni642D" unicode="&#x642d;" d="M379 -122 L379 208 L879 208 L879 -122 L817 -122 L817 -70 L442 -70 L442 -122 L379 -122 ZM36 574 L36 633 L144 633 L144 818 L206 818 L206 633 L309 633 L309 574 L206 574 L206 398 Q263 423 311 445 Q313 408 317 378 L206 331 L206 -5 Q209 -104 117 -107 Q81 -109 36 -109 Q31 -71 24 -45 Q51 -47 96 -47 Q146 -49 144 2 L144 304 Q92 282 35 255 L23 325 Q81 345 144 372 L144 574 L36 574 ZM442 152 L442 -14 L817 -14 L817 152 L442 152 ZM337 658 L337 715 L467 715 L467 816 L529 816 L529 715 L743 715 L743 817 L805 817 L805 715 L955 715 L955 658 L805 658 L805 565 L743 565 L743 658 L529 658 L529 565 L467 565 L467 658 L337 658 ZM934 275 Q739 380 632 520 Q517 379 327 263 Q310 290 286 317 Q500 429 623 603 L687 590 Q685 587 680 581 Q671 568 666 563 Q789 409 971 333 Q951 304 934 275 ZM465 303 L465 356 L793 356 L793 303 L465 303 Z" /><glyph glyph-name="uni6444" unicode="&#x6444;" d="M311 726 L311 777 L944 777 L944 726 L856 726 L856 400 L958 406 Q957 379 957 355 L856 350 L856 285 L795 285 L795 347 Q650 340 315 320 L307 371 L400 375 L400 726 L311 726 ZM30 575 L30 634 L141 634 L141 821 L202 821 L202 634 L306 634 L306 575 L202 575 L202 386 L296 428 Q298 379 300 361 Q253 342 202 319 L202 -13 Q206 -113 112 -113 Q87 -115 43 -115 Q42 -91 33 -51 Q67 -53 94 -53 Q144 -56 141 -8 L141 292 L32 242 L23 313 Q55 325 121 351 Q134 356 141 359 L141 575 L30 575 ZM951 -116 Q848 -71 787 -22 Q719 -75 598 -123 Q582 -97 564 -73 Q676 -36 745 15 Q677 85 637 200 L615 200 L615 251 L938 251 L938 199 Q896 81 827 13 Q888 -32 982 -64 Q968 -86 951 -116 ZM540 -65 L456 0 Q398 -60 276 -123 Q263 -103 238 -71 Q346 -27 411 33 L287 122 L322 163 L450 76 Q487 124 517 200 L293 200 L293 251 L577 251 L577 195 Q541 103 495 43 Q536 14 579 -19 L540 -65 ZM460 597 L460 515 L795 515 L795 597 L460 597 ZM460 726 L460 644 L795 644 L795 726 L460 726 ZM460 378 Q519 381 631 387 Q743 393 795 396 L795 469 L460 469 L460 378 ZM881 200 L694 200 Q729 105 786 50 Q846 108 881 200 Z" /><glyph glyph-name="uni649E" unicode="&#x649e;" d="M358 155 L358 447 L910 447 L910 155 L664 155 L664 81 L927 81 L927 35 L664 35 L664 -42 L972 -42 L972 -90 L286 -90 L286 -42 L603 -42 L603 35 L342 35 L342 81 L603 81 L603 155 L358 155 ZM351 678 L351 725 L617 725 Q616 730 613 741 Q600 790 593 811 L658 821 Q670 783 684 725 L933 725 L933 678 L797 678 L842 659 Q817 625 771 570 L967 570 L967 523 L326 523 L326 570 L501 570 Q471 612 435 657 L478 678 L351 678 ZM37 561 L37 616 L153 616 L153 815 L214 815 L214 616 L312 616 L312 561 L214 561 L214 364 L311 393 Q311 370 316 331 L214 303 L214 0 Q219 -105 120 -106 Q97 -107 44 -107 Q43 -100 41 -88 Q37 -58 32 -40 Q66 -43 101 -43 Q156 -46 153 8 L153 284 Q142 281 119 274 Q63 257 37 248 L26 314 L153 347 L153 561 L37 561 ZM564 587 L528 570 L700 570 Q741 623 779 678 L493 678 Q542 618 564 587 ZM664 279 L664 201 L850 201 L850 279 L664 279 ZM418 279 L418 201 L603 201 L603 279 L418 279 ZM850 401 L664 401 L664 324 L850 324 L850 401 ZM418 401 L418 324 L603 324 L603 401 L418 401 Z" /><glyph glyph-name="uni64AD" unicode="&#x64ad;" d="M362 -121 L362 289 L904 289 L904 -121 L845 -121 L845 -72 L421 -72 L421 -121 L362 -121 ZM353 700 Q352 717 340 753 Q660 758 907 778 L920 726 Q755 716 660 711 L660 533 L963 533 L963 482 L711 482 Q801 390 971 336 Q948 305 937 283 Q746 355 660 474 L660 333 L600 333 L600 471 Q504 347 316 272 Q297 300 277 322 Q448 377 550 482 L321 482 L321 533 L600 533 L600 708 Q457 702 353 700 ZM47 -113 Q43 -72 37 -48 Q49 -49 60 -49 Q70 -49 98 -49 Q153 -52 151 6 L151 289 L36 242 L23 308 Q67 322 151 354 L151 567 L39 567 L39 626 L151 626 L151 817 L211 817 L211 626 L304 626 L304 567 L211 567 L211 376 Q228 383 261 395 Q283 404 293 408 Q294 372 299 347 Q264 335 211 313 L211 -1 Q218 -108 114 -110 Q97 -111 69 -112 Q54 -113 47 -113 ZM662 86 L662 -22 L845 -22 L845 86 L662 86 ZM421 86 L421 -22 L603 -22 L603 86 L421 86 ZM845 239 L662 239 L662 134 L845 134 L845 239 ZM421 239 L421 134 L603 134 L603 239 L421 239 ZM771 555 L731 592 Q793 642 836 685 L879 652 Q850 622 771 555 ZM484 553 Q445 594 387 644 L426 678 Q474 639 526 591 L484 553 Z" /><glyph glyph-name="uni64CD" unicode="&#x64cd;" d="M297 151 L297 206 L594 206 L594 277 L654 277 L654 206 L963 206 L963 151 L687 151 Q806 23 974 -30 Q973 -32 970 -36 Q948 -69 939 -87 Q748 -9 654 126 L654 -121 L594 -121 L594 128 Q478 -11 296 -94 Q283 -71 259 -39 Q433 27 559 151 L297 151 ZM401 571 L401 779 L852 779 L852 571 L401 571 ZM35 576 L35 634 L140 634 L140 817 L199 817 L199 634 L302 634 L302 576 L199 576 L199 364 L292 397 Q292 366 295 333 L199 300 L199 -11 Q204 -108 111 -109 Q83 -111 36 -111 Q33 -79 26 -47 Q62 -50 94 -50 Q142 -52 140 -6 L140 279 Q88 261 32 240 L25 308 Q81 325 140 344 L140 576 L35 576 ZM668 294 L668 499 L922 499 L922 294 L668 294 ZM333 294 L333 499 L582 499 L582 294 L333 294 ZM462 728 L462 621 L791 621 L791 728 L462 728 ZM722 451 L722 342 L867 342 L867 451 L722 451 ZM388 451 L388 342 L528 342 L528 451 L388 451 Z" /><glyph glyph-name="uni64CE" unicode="&#x64ce;" d="M120 138 L120 184 L484 184 L484 256 Q352 253 113 251 Q109 281 104 300 Q580 301 854 314 L863 265 Q857 265 845 264 Q703 260 548 257 L548 184 L868 184 L868 138 L548 138 L548 67 L963 67 L963 17 L548 17 L548 -9 Q550 -111 438 -112 Q410 -113 382 -113 Q368 -113 351 -113 Q337 -113 307 -113 Q302 -81 295 -57 Q328 -59 353 -59 Q375 -60 416 -60 Q490 -65 484 0 L484 17 L32 17 L32 67 L484 67 L484 138 L120 138 ZM113 377 L113 528 Q92 507 68 485 Q40 516 30 525 Q112 592 155 682 L208 668 L188 632 L515 632 Q515 571 508 438 Q504 340 416 342 Q382 340 352 340 Q351 344 349 354 Q347 370 345 377 L113 377 ZM565 527 Q558 537 535 562 Q531 567 529 569 Q638 678 691 819 L747 807 Q727 759 703 717 L963 717 L963 668 L895 668 Q861 532 794 466 Q855 425 961 394 Q936 359 931 343 Q815 384 753 430 Q687 381 571 342 Q561 362 540 390 Q652 427 710 467 Q661 516 628 601 Q600 564 565 527 ZM59 715 L59 757 L196 757 L196 823 L252 823 L252 757 L372 757 L372 824 L429 824 L429 757 L565 757 L565 715 L429 715 L429 668 L372 668 L372 715 L252 715 L252 675 L196 675 L196 715 L59 715 ZM163 592 Q142 561 118 534 L372 534 L372 390 L403 390 Q450 388 454 445 Q459 514 459 592 L163 592 ZM663 650 Q697 554 752 500 Q813 557 838 668 L675 668 L663 650 ZM164 494 L164 416 L319 416 L319 494 L164 494 Z" /><glyph glyph-name="uni652F" unicode="&#x652f;" d="M925 -112 Q620 -49 500 38 Q352 -58 72 -127 Q61 -102 36 -63 Q299 -5 442 80 Q298 194 216 406 L126 406 L126 466 L472 466 L472 624 L36 624 L36 685 L472 685 L472 822 L539 822 L539 685 L959 685 L959 624 L539 624 L539 466 L814 466 L814 404 Q726 204 559 80 Q688 -2 964 -47 Q939 -85 925 -112 ZM740 406 L285 406 Q369 206 501 118 Q654 219 740 406 Z" /><glyph glyph-name="uni6536" unicode="&#x6536;" d="M398 358 Q384 377 353 410 Q503 601 572 822 L639 808 Q605 717 566 636 L960 636 L960 573 L856 573 Q816 267 699 122 Q788 26 968 -51 Q943 -86 926 -114 Q741 -22 655 70 Q574 -18 410 -122 Q392 -95 366 -65 Q530 32 611 122 Q518 242 477 474 Q440 415 398 358 ZM91 66 L45 126 Q77 159 75 211 L75 685 L138 685 L138 176 Q141 178 150 183 Q232 232 272 254 L272 817 L336 817 L336 -121 L272 -121 L272 184 Q201 146 135 103 Q111 87 91 66 ZM655 174 Q757 308 791 573 L534 573 L525 556 Q563 300 655 174 Z" /><glyph glyph-name="uni6539" unicode="&#x6539;" d="M432 357 Q417 378 389 410 Q513 585 578 822 L643 808 Q617 725 587 650 L964 650 L964 588 L866 588 Q829 278 708 128 Q795 29 968 -50 Q949 -77 927 -113 Q755 -22 665 78 Q568 -23 368 -123 Q350 -96 322 -63 Q527 30 622 131 Q535 251 498 463 Q457 392 432 357 ZM89 -80 L45 -24 Q78 14 76 67 L76 415 L317 415 L317 683 L59 683 L59 745 L381 745 L381 354 L140 354 L140 32 Q183 52 308 117 Q362 145 384 156 Q385 125 394 88 Q270 30 144 -42 Q113 -58 89 -80 ZM561 588 L543 549 Q579 306 666 181 Q771 314 802 588 L561 588 Z" /><glyph glyph-name="uni653E" unicode="&#x653e;" d="M931 -116 Q786 -22 708 71 Q622 -30 465 -127 Q452 -108 420 -67 Q588 33 667 126 Q577 257 550 472 Q519 415 484 365 Q475 377 446 411 Q442 417 440 419 Q564 590 624 825 L690 814 Q664 724 629 639 L970 639 L970 579 L890 579 Q862 280 748 123 Q829 24 974 -51 Q951 -82 931 -116 ZM265 647 Q235 746 212 809 L277 824 Q318 705 330 662 L265 647 ZM483 646 L483 587 L211 587 Q210 510 206 413 L429 413 Q427 264 416 45 Q418 -92 287 -90 Q261 -91 207 -91 Q204 -61 195 -24 Q237 -27 269 -27 Q353 -33 353 50 Q363 212 364 354 L202 354 Q190 33 70 -120 Q63 -113 36 -88 Q24 -78 20 -74 Q135 72 141 389 Q147 519 148 587 L34 587 L34 646 L483 646 ZM708 179 Q801 310 827 579 L603 579 Q600 570 595 561 Q621 317 708 179 Z" /><glyph glyph-name="uni653F" unicode="&#x653f;" d="M422 -121 Q421 -119 418 -116 Q391 -78 376 -61 Q557 32 647 134 Q557 261 519 481 L478 422 Q469 435 438 465 Q433 470 431 472 Q550 629 613 817 L677 799 Q647 721 609 644 L969 644 L969 584 L878 584 Q849 292 728 131 Q808 36 975 -48 Q951 -81 933 -113 Q773 -18 688 81 Q596 -25 422 -121 ZM49 674 L49 734 L487 734 L487 674 L333 674 L333 416 L468 416 L468 356 L333 356 L333 89 Q409 103 490 119 Q488 81 489 56 Q305 24 33 -31 L21 37 L96 49 L96 502 L157 502 L157 59 L271 78 L271 674 L49 674 ZM579 584 Q578 582 575 577 Q571 571 565 558 Q602 311 687 185 Q790 325 816 584 L579 584 Z" /><glyph glyph-name="uni6545" unicode="&#x6545;" d="M929 -120 Q783 -23 706 70 Q627 -27 473 -129 Q451 -98 425 -72 Q589 32 665 126 Q580 253 548 474 Q516 414 480 359 Q464 379 435 411 Q552 578 620 825 L686 816 Q659 725 626 641 L969 641 L969 579 L885 579 Q853 277 747 124 Q822 30 975 -58 Q950 -87 929 -120 ZM26 565 L26 626 L223 626 L223 820 L287 820 L287 626 L475 626 L475 565 L287 565 L287 355 L444 355 L444 -18 L129 -18 L129 -82 L66 -82 L66 355 L223 355 L223 565 L26 565 ZM129 297 L129 40 L380 40 L380 297 L129 297 ZM706 182 Q795 315 821 579 L599 579 Q598 577 597 573 Q595 570 595 569 Q624 315 706 182 Z" /><glyph glyph-name="uni6548" unicode="&#x6548;" d="M492 -125 L445 -73 Q612 40 686 141 Q613 261 577 459 L541 399 Q528 418 498 451 Q602 607 652 820 L715 808 Q691 719 660 637 L962 637 L962 577 L887 577 Q856 288 761 138 Q830 38 974 -55 Q972 -58 968 -63 Q943 -95 932 -113 Q796 -14 724 83 Q646 -19 492 -125 ZM431 -36 Q411 -15 373 26 Q325 78 302 102 Q219 -8 60 -121 Q40 -91 19 -63 Q173 36 259 148 Q240 167 204 205 Q144 268 113 300 L159 340 Q192 306 253 246 Q283 216 297 202 Q342 272 383 365 L440 340 Q388 226 341 157 Q372 126 432 64 Q464 31 481 14 L431 -36 ZM724 198 Q802 330 826 577 L635 577 L621 546 Q656 319 724 198 ZM49 608 L49 667 L285 667 Q262 719 217 800 L278 823 Q314 757 348 687 L297 667 L518 667 L518 608 L49 608 ZM75 324 L30 366 Q113 447 193 554 L244 521 Q163 412 75 324 ZM470 347 Q408 425 318 522 L364 557 Q458 457 517 388 L470 347 Z" /><glyph glyph-name="uni6559" unicode="&#x6559;" d="M508 307 Q501 316 479 342 Q469 354 465 358 Q580 543 639 815 L702 804 Q681 717 656 638 L962 638 L962 577 L871 577 Q852 295 755 147 Q832 39 977 -50 Q960 -73 935 -112 Q792 -11 716 91 Q633 -15 464 -122 Q446 -96 421 -67 Q599 43 678 147 Q607 262 576 436 Q544 368 508 307 ZM76 627 L76 680 L223 680 L223 809 L283 809 L283 680 L400 680 L400 627 L283 627 L283 513 L333 513 Q412 600 490 719 L540 689 Q476 593 408 513 L487 513 L487 460 L360 460 Q312 409 257 362 L443 362 L443 304 L318 191 L318 163 Q439 183 494 193 Q494 185 494 165 Q493 144 493 135 L318 107 L318 -1 Q320 -105 218 -109 Q182 -110 116 -110 Q113 -80 104 -50 Q147 -53 196 -53 Q262 -56 258 5 L258 97 L53 62 L44 119 L258 153 L258 206 L375 311 L195 311 Q132 262 57 213 Q45 235 23 263 Q74 293 119 325 L119 362 L169 362 Q229 408 281 460 L37 460 L37 513 L223 513 L223 627 L76 627 ZM617 529 Q647 328 717 205 Q792 328 810 577 L635 577 L617 529 Z" /><glyph glyph-name="uni6563" unicode="&#x6563;" d="M541 -121 Q522 -98 495 -68 Q639 34 711 136 Q636 261 603 467 Q575 415 543 365 Q534 380 504 420 Q625 600 681 825 L744 814 Q719 726 687 646 L970 646 L970 586 L907 586 Q879 291 783 135 Q851 37 979 -52 Q978 -53 975 -56 Q945 -92 935 -108 Q814 -12 747 81 Q678 -16 541 -121 ZM85 -122 L85 400 L487 400 L487 9 Q492 -105 378 -106 Q326 -108 287 -108 Q285 -84 273 -46 Q299 -48 360 -48 Q430 -52 426 18 L426 63 L146 63 L146 -122 L85 -122 ZM48 651 L48 704 L151 704 L151 820 L212 820 L212 704 L358 704 L358 820 L420 820 L420 704 L508 704 L508 651 L420 651 L420 531 L530 531 L530 478 L29 478 L29 531 L151 531 L151 651 L48 651 ZM662 586 Q653 568 645 550 Q676 322 747 195 Q824 333 845 586 L662 586 ZM146 208 L146 113 L426 113 L426 208 L146 208 ZM146 348 L146 257 L426 257 L426 348 L146 348 ZM212 651 L212 531 L358 531 L358 651 L212 651 Z" /><glyph glyph-name="uni6570" unicode="&#x6570;" d="M545 379 Q522 408 501 424 Q611 594 669 828 L731 819 Q707 730 677 649 L963 649 L963 589 L886 589 Q857 283 766 133 Q833 36 969 -58 Q967 -61 962 -67 Q937 -99 928 -115 Q796 -16 730 76 Q662 -19 522 -126 Q511 -110 477 -74 Q625 38 692 133 Q619 260 593 463 Q571 420 545 379 ZM57 -122 Q46 -94 26 -63 Q188 -24 281 31 Q196 71 94 117 Q99 124 109 139 Q142 184 159 211 L36 211 L36 264 L193 264 Q217 302 235 335 L297 321 Q279 291 261 264 L492 264 L492 210 Q465 111 392 43 L498 -5 L460 -57 Q450 -52 430 -42 Q401 -27 341 2 Q237 -73 57 -122 ZM45 546 L45 598 L270 598 L270 814 L329 814 L329 598 L526 598 L526 546 L329 546 L329 463 L356 494 Q441 444 509 396 L473 349 Q448 371 329 450 L329 356 L270 356 L270 492 Q196 398 67 331 Q56 353 32 384 Q170 442 257 546 L45 546 ZM637 551 Q664 315 730 193 Q803 321 825 589 L653 589 L637 551 ZM174 137 Q188 131 216 119 Q252 105 334 69 Q402 125 427 211 L226 211 Q209 185 180 145 Q176 139 174 137 ZM412 625 L370 662 Q400 689 484 775 L528 743 Q460 668 412 625 ZM177 625 Q150 659 70 742 L110 775 Q184 706 223 662 L177 625 Z" /><glyph glyph-name="uni6574" unicode="&#x6574;" d="M47 705 L47 752 L262 752 L262 821 L318 821 L318 752 L524 752 L524 705 L318 705 L318 637 L496 637 L496 457 L318 457 L318 397 L341 430 Q443 385 504 355 L475 310 Q394 352 318 388 L318 288 L262 288 L262 418 Q184 329 54 276 Q39 303 22 325 Q162 375 247 457 L84 457 L84 637 L262 637 L262 705 L47 705 ZM71 198 L71 249 L928 249 L928 198 L539 198 L539 106 L859 106 L859 55 L539 55 L539 -37 L972 -37 L972 -89 L30 -89 L30 -37 L202 -37 L202 136 L263 136 L263 -37 L478 -37 L478 198 L71 198 ZM552 288 Q533 323 519 342 Q638 382 704 432 Q647 494 612 598 Q583 552 551 507 Q541 518 506 546 Q609 676 653 823 L712 810 Q694 761 673 714 L959 714 L959 663 L907 663 Q861 506 791 432 Q857 386 971 353 Q970 351 967 347 Q945 311 940 294 Q816 339 748 392 Q681 337 552 288 ZM747 471 Q811 537 847 663 L648 663 Q648 663 648 662 Q647 661 647 660 Q685 534 747 471 ZM443 594 L318 594 L318 501 L443 501 L443 594 ZM137 594 L137 501 L262 501 L262 594 L137 594 Z" /><glyph glyph-name="uni6599" unicode="&#x6599;" d="M34 393 L34 451 L196 451 L196 821 L258 821 L258 451 L412 451 L412 393 L258 393 L258 288 L288 315 Q365 235 421 170 L373 128 Q331 182 258 264 L258 -120 L196 -120 L196 292 Q141 143 51 24 Q35 67 22 92 Q121 214 190 393 L34 393 ZM460 150 L452 212 L762 245 L762 821 L826 821 L826 252 L968 268 L973 207 L826 190 L826 -120 L762 -120 L762 183 L460 150 ZM658 552 Q575 625 506 678 L546 721 Q634 655 699 599 L658 552 ZM632 317 Q551 384 478 437 L515 482 Q588 431 673 365 L632 317 ZM104 521 Q71 617 34 706 L84 724 Q123 633 157 539 L104 521 ZM341 518 L292 537 Q334 629 369 722 L420 703 Q378 597 341 518 Z" /><glyph glyph-name="uni65B0" unicode="&#x65b0;" d="M783 -117 L783 392 L628 392 L628 365 Q635 52 504 -112 Q479 -93 447 -74 Q515 13 540 109 Q566 205 566 369 L566 742 Q764 751 927 778 L947 717 Q796 696 628 685 L628 451 L971 451 L971 392 L844 392 L844 -117 L783 -117 ZM51 250 L51 305 L246 305 L246 407 L308 407 L308 305 L492 305 L492 250 L308 250 L308 7 Q312 -102 207 -104 Q167 -106 122 -106 Q116 -71 108 -43 Q154 -45 187 -45 Q247 -46 246 14 L246 250 L51 250 ZM27 428 L27 483 L303 483 Q341 544 390 636 L447 613 Q406 545 367 483 L516 483 L516 428 L27 428 ZM55 656 L55 711 L257 711 Q246 742 222 804 Q220 809 219 811 L282 824 Q284 818 291 802 Q316 738 325 711 L492 711 L492 656 L55 656 ZM79 -19 L27 9 Q80 95 122 195 L176 172 Q127 66 79 -19 ZM441 28 Q437 34 429 46 Q374 131 346 173 L394 201 Q443 135 492 60 L441 28 ZM178 487 Q139 556 102 612 L152 638 Q191 582 231 516 L178 487 Z" /><glyph glyph-name="uni65B9" unicode="&#x65b9;" d="M40 593 L40 656 L503 656 Q479 720 442 805 L511 822 Q542 752 575 672 L518 656 L959 656 L959 593 L372 593 Q370 502 364 415 L832 415 Q826 227 813 87 Q806 -99 614 -92 Q573 -93 540 -93 Q523 -93 505 -93 Q490 -93 459 -93 Q456 -67 445 -22 Q519 -25 607 -25 Q680 -26 709 1 Q739 27 746 99 Q757 197 761 352 L358 352 Q343 51 80 -126 Q71 -117 42 -88 Q29 -76 26 -73 Q289 94 293 388 Q302 491 304 593 L40 593 Z" /><glyph glyph-name="uni65D7" unicode="&#x65d7;" d="M401 489 L401 541 L493 541 L493 613 L554 613 L554 541 L799 541 L799 614 L860 614 L860 541 L950 541 L950 489 L860 489 L860 128 L968 128 L968 76 L393 76 L393 128 L493 128 L493 489 L401 489 ZM34 609 L34 664 L361 664 L361 609 L185 609 L182 452 L351 452 Q347 244 340 53 Q339 -89 226 -87 Q201 -88 153 -88 Q151 -73 144 -39 Q142 -30 141 -26 Q169 -28 208 -28 Q278 -34 279 55 Q287 185 290 397 L180 397 Q178 365 180 391 Q178 365 178 341 Q173 43 66 -109 Q56 -99 32 -79 Q22 -70 17 -66 Q113 71 117 338 Q122 440 125 609 L34 609 ZM427 568 L380 605 Q467 708 517 824 L577 809 L535 728 L965 728 L965 674 L503 674 Q467 618 427 568 ZM554 489 L554 401 L799 401 L799 489 L554 489 ZM554 216 L554 128 L799 128 L799 216 L554 216 ZM554 353 L554 265 L799 265 L799 353 L554 353 ZM429 -124 Q427 -122 424 -117 Q404 -89 393 -76 Q496 -22 591 52 L631 10 Q523 -70 429 -124 ZM924 -120 Q810 -36 735 12 L771 53 Q860 -3 961 -72 L924 -120 ZM206 668 Q173 760 153 808 L212 823 Q234 772 265 686 L206 668 Z" /><glyph glyph-name="uni65E0" unicode="&#x65e0;" d="M114 687 L114 749 L887 749 L887 687 L524 687 Q518 537 500 448 L961 448 L961 384 L586 384 L586 59 Q579 -30 674 -24 L798 -24 Q885 -30 890 54 Q899 121 901 173 Q943 155 967 149 Q961 59 953 18 Q939 -90 806 -86 L653 -86 Q514 -91 519 47 L519 384 L487 384 Q427 68 81 -125 L31 -69 Q363 106 418 384 L40 384 L40 448 L432 448 Q451 545 456 687 L114 687 Z" /><glyph glyph-name="uni65F6" unicode="&#x65f6;" d="M64 -64 L64 733 L384 733 L384 -52 L321 -52 L321 31 L126 31 L126 -64 L64 -64 ZM436 548 L436 610 L778 610 L778 822 L843 822 L843 610 L972 610 L972 548 L843 548 L843 31 Q845 -103 710 -105 Q634 -107 565 -107 Q559 -67 550 -36 Q610 -39 691 -39 Q783 -44 778 48 L778 548 L436 548 ZM126 354 L126 89 L321 89 L321 354 L126 354 ZM126 675 L126 411 L321 411 L321 675 L126 675 ZM584 194 Q532 301 472 408 L525 436 Q585 337 643 226 L584 194 Z" /><glyph glyph-name="uni660E" unicode="&#x660e;" d="M376 -124 Q353 -102 319 -75 Q433 30 466 130 Q503 227 502 434 L502 774 L916 774 L916 15 Q924 -111 791 -111 Q757 -113 727 -113 Q712 -114 696 -114 Q683 -114 658 -114 Q654 -84 645 -45 Q694 -49 773 -49 Q855 -52 852 24 L852 207 L553 207 Q532 28 376 -124 ZM81 2 L81 746 L379 746 L379 84 L143 84 L143 2 L81 2 ZM567 430 Q567 332 560 265 L852 265 L852 461 L567 461 L567 430 ZM567 714 L567 520 L852 520 L852 714 L567 714 ZM143 143 L319 143 L319 389 L143 389 L143 143 ZM143 687 L143 447 L319 447 L319 687 L143 687 Z" /><glyph glyph-name="uni6613" unicode="&#x6613;" d="M156 418 L156 778 L860 778 L860 418 L156 418 ZM74 132 Q63 149 33 181 Q188 274 283 413 L347 391 Q317 350 288 317 L906 317 Q905 214 895 88 Q891 -112 710 -105 Q654 -107 589 -107 Q585 -78 575 -40 Q641 -44 699 -44 Q770 -44 798 -14 Q827 14 832 92 Q841 201 841 261 L691 261 Q637 15 360 -124 Q329 -90 313 -76 Q579 51 627 261 L471 261 Q379 49 71 -70 Q54 -45 30 -19 Q317 90 403 261 L236 261 Q163 188 74 132 ZM220 574 L220 472 L796 472 L796 574 L220 574 ZM220 724 L220 625 L796 625 L796 724 L220 724 Z" /></font>
</defs>
</svg>
