<?xml version="1.0" standalone="no"?><!DOCTYPE svg PUBLIC "-//W3C//DTD SVG 1.1//EN" "http://www.w3.org/Graphics/SVG/1.1/DTD/svg11.dtd" ><svg xmlns="http://www.w3.org/2000/svg"><metadata></metadata><defs><font id="Hanyi HYQiHei-60S Regular v5.01" horiz-adv-x="1066"><font-face font-family="HYQiHei-60S" font-weight="400" font-stretch="normal" units-per-em="1000" panose-1="0 2 6 0 4 1 1 1 1 1" ascent="928" descent="-244" x-height="1" bbox="-38 -250 1057 956" underline-thickness="50" underline-position="-75" unicode-range="U+0020-ff1b" /><missing-glyph horiz-adv-x="1000"  /><glyph glyph-name="space" unicode=" " d="" /><glyph glyph-name="A" unicode="a" d="M304 704 l108 0 l293 -742 l-104 0 l-76 196 l-339 0 l-77 -196 l-103 0 l298 742 ZM222 248 l268 0 l-132 340 l-1 0 l-135 -340 Z" /><glyph glyph-name="B" unicode="b" d="M351 704 q70 0 119.5 -13 q49.5 -13 81 -37.5 q31.5 -24.5 45.5 -60 q14 -35.5 14 -80.5 q0 -63 -36.5 -106.5 q-36.5 -43.5 -90.5 -63.5 q41 -8 70 -25.5 q29 -17.5 47.5 -40.5 q18.5 -23 27 -51 q8.5 -28 8.5 -57 q0 -108 -68.5 -157.5 q-68.5 -49.5 -195.5 -49.5 l-290 0 l0 742 l268 0 ZM183 49 l168 0 q94 0 140.5 32 q46.5 32 46.5 93 q0 36 -14.5 59.5 q-14.5 23.5 -40 37.5 q-25.5 14 -59.5 19.5 q-34 5.5 -74 5.5 l-167 0 l0 -247 ZM183 385 l160 0 q34 0 65 8 q31 8 53.5 23.5 q22.5 15.5 36 37 q13.5 21.5 13.5 48.5 q0 114 -171 114 l-157 0 l0 -231 Z" /><glyph glyph-name="C" unicode="c" d="M49 333 q0 79 20 150 q20 71 61 124 q41 53 104 84.5 q63 31.5 150 31.5 q63 0 114 -18.5 q51 -18.5 89 -49.5 q38 -31 63.5 -70.5 q25.5 -39.5 37.5 -81.5 l-108 0 q-26 60 -76.5 95 q-50.5 35 -119.5 35 q-54 0 -97.5 -20 q-43.5 -20 -74 -58.5 q-30.5 -38.5 -47.5 -94 q-17 -55.5 -17 -127.5 q0 -71 17.5 -127 q17.5 -56 49 -94.5 q31.5 -38.5 75 -59 q43.5 -20.5 94.5 -20.5 q72 0 125.5 32.5 q53.5 32.5 76.5 101.5 l104 0 q-14 -47 -38 -87.5 q-24 -40.5 -60.5 -70.5 q-36.5 -30 -88 -47 q-51.5 -17 -119.5 -17 q-85 0 -148 31 q-63 31 -104.5 84 q-41.5 53 -62 123.5 q-20.5 70.5 -20.5 150.5 Z" /><glyph glyph-name="D" unicode="d" d="M355 704 q93 0 157.5 -32 q64.5 -32 104.5 -84.5 q40 -52.5 57.5 -119.5 q17.5 -67 17.5 -135 q0 -78 -20 -146 q-20 -68 -62.5 -118 q-42.5 -50 -108.5 -78.5 q-66 -28.5 -158 -28.5 l-260 0 l0 742 l272 0 ZM182 49 l159 0 q55 0 101.5 18 q46.5 18 80 54 q33.5 36 52 89 q18.5 53 18.5 124 q0 51 -13.5 101.5 q-13.5 50.5 -43.5 90.5 q-30 40 -78 65 q-48 25 -118 25 l-158 0 l0 -567 Z" /><glyph glyph-name="E" unicode="e" d="M555 704 l0 -88 l-373 0 l0 -234 l332 0 l0 -89 l-332 0 l0 -244 l380 0 l0 -87 l-479 0 l0 742 l472 0 Z" /><glyph glyph-name="F" unicode="f" d="M546 704 l0 -88 l-364 0 l0 -251 l324 0 l0 -89 l-324 0 l0 -314 l-99 0 l0 742 l463 0 Z" /><glyph glyph-name="G" unicode="g" d="M56 332 q0 85 24.5 157 q24.5 72 69 124 q44.5 52 108 81 q63.5 29 141.5 29 q69 0 120.5 -18 q51.5 -18 87.5 -48 q36 -30 59 -70 q23 -40 36 -84 l-105 0 q-56 131 -198 131 q-54 0 -98.5 -22 q-44.5 -22 -76.5 -62 q-32 -40 -50 -95.5 q-18 -55.5 -18 -122.5 q0 -69 17 -124.5 q17 -55.5 48.5 -94.5 q31.5 -39 75 -60 q43.5 -21 96.5 -21 q54 0 93 16.5 q39 16.5 64.5 44.5 q25.5 28 38 66 q12.5 38 12.5 81 l0 20 l-209 0 l0 88 l310 0 l0 -75 q0 -64 -15 -123.5 q-15 -59.5 -50.5 -105 q-35.5 -45.5 -94.5 -73 q-59 -27.5 -147 -27.5 q-73 0 -135 26 q-62 26 -107.5 76 q-45.5 50 -71 122 q-25.5 72 -25.5 164 Z" /><glyph glyph-name="H" unicode="h" d="M182 704 l0 -314 l411 0 l0 314 l99 0 l0 -742 l-99 0 l0 339 l-411 0 l0 -339 l-99 0 l0 742 l99 0 Z" /><glyph glyph-name="I" unicode="i" d="M183 704 l0 -742 l-100 0 l0 742 l100 0 Z" /><glyph glyph-name="L" unicode="l" d="M182 704 l0 -655 l365 0 l0 -87 l-464 0 l0 742 l99 0 Z" /><glyph glyph-name="M" unicode="m" d="M223 704 l257 -613 l2 0 l253 613 l140 0 l0 -742 l-99 0 l0 585 l-2 0 l-244 -585 l-97 0 l-249 585 l-2 0 l0 -585 l-99 0 l0 742 l140 0 Z" /><glyph glyph-name="N" unicode="n" d="M187 704 l409 -585 l1 0 l0 585 l99 0 l0 -742 l-104 0 l-408 585 l-1 1 l0 -586 l-100 0 l0 742 l104 0 Z" /><glyph glyph-name="O" unicode="o" d="M148 333 q0 -60 15.5 -114.5 q15.5 -54.5 46.5 -96 q31 -41.5 76 -66 q45 -24.5 105 -24.5 q62 0 107.5 24 q45.5 24 75.5 65.5 q30 41.5 45 96 q15 54.5 15 115.5 q0 60 -15.5 114.5 q-15.5 54.5 -46.5 96 q-31 41.5 -76 66 q-45 24.5 -105 24.5 q-60 0 -105.5 -24.5 q-45.5 -24.5 -76 -65.5 q-30.5 -41 -46 -96 q-15.5 -55 -15.5 -115 ZM49 333 q0 76 20.5 146.5 q20.5 70.5 62.5 124.5 q42 54 106.5 86.5 q64.5 32.5 152.5 32.5 q88 0 152.5 -32.5 q64.5 -32.5 106.5 -86.5 q42 -54 62.5 -124.5 q20.5 -70.5 20.5 -146.5 q0 -77 -20 -147 q-20 -70 -62 -124 q-42 -54 -106.5 -86 q-64.5 -32 -153.5 -32 q-88 0 -152.5 32.5 q-64.5 32.5 -106.5 87 q-42 54.5 -62.5 124.5 q-20.5 70 -20.5 145 Z" /><glyph glyph-name="P" unicode="p" d="M358 704 q71 0 121.5 -16.5 q50.5 -16.5 82 -46.5 q31.5 -30 46 -71 q14.5 -41 14.5 -89 q0 -51 -15 -93.5 q-15 -42.5 -47.5 -72.5 q-32.5 -30 -82.5 -46.5 q-50 -16.5 -119 -16.5 l-176 0 l0 -290 l-99 0 l0 742 l275 0 ZM182 341 l162 0 q90 0 134.5 36 q44.5 36 44.5 104 q0 66 -44.5 100.5 q-44.5 34.5 -131.5 34.5 l-165 0 l0 -275 Z" /><glyph glyph-name="Q" unicode="q" d="M49 333 q0 76 20.5 146.5 q20.5 70.5 62.5 124.5 q42 54 106.5 86.5 q64.5 32.5 152.5 32.5 q88 0 152.5 -32.5 q64.5 -32.5 106.5 -86.5 q42 -54 62.5 -124.5 q20.5 -70.5 20.5 -146.5 q0 -90 -27.5 -169.5 q-27.5 -79.5 -84.5 -134.5 l101 -130 l-107 0 l-63 81 q-34 -17 -73.5 -26.5 q-39.5 -9.5 -87.5 -9.5 q-88 0 -152.5 32.5 q-64.5 32.5 -106.5 87 q-42 54.5 -62.5 124.5 q-20.5 70 -20.5 145 ZM510 173 l51 -67 q37 42 55 101 q18 59 18 126 q0 60 -15.5 114.5 q-15.5 54.5 -46.5 96 q-31 41.5 -76 66 q-45 24.5 -105 24.5 q-60 0 -105.5 -24.5 q-45.5 -24.5 -76 -65.5 q-30.5 -41 -46 -96 q-15.5 -55 -15.5 -115 q0 -60 15.5 -114.5 q15.5 -54.5 46.5 -96 q31 -41.5 76 -66 q45 -24.5 105 -24.5 q57 0 103 22 l-91 119 l107 0 Z" /><glyph glyph-name="R" unicode="r" d="M363 704 q69 0 117 -17.5 q48 -17.5 78 -47 q30 -29.5 43.5 -67.5 q13.5 -38 13.5 -79 q0 -69 -35.5 -125 q-35.5 -56 -113.5 -81 l161 -325 l-105 0 l-154 312 l-186 0 l0 -312 l-99 0 l0 742 l280 0 ZM182 363 l171 0 q45 0 76 10 q31 10 50.5 27 q19.5 17 28 41 q8.5 24 8.5 52 q0 55 -37 89 q-37 34 -127 34 l-170 0 l0 -253 Z" /><glyph glyph-name="S" unicode="s" d="M148 169 q29 -74 79 -105.5 q50 -31.5 115 -31.5 q44 0 74.5 10.5 q30.5 10.5 50 27 q19.5 16.5 28.5 36.5 q9 20 9 40 q0 36 -17.5 60 q-17.5 24 -44.5 40.5 q-27 16.5 -59.5 28 q-32.5 11.5 -62.5 21.5 q-62 20 -107 42 q-45 22 -74 48.5 q-29 26.5 -43.5 59 q-14.5 32.5 -14.5 74.5 q0 45 19.5 82.5 q19.5 37.5 53.5 64.5 q34 27 81 41.5 q47 14.5 103 14.5 q59 0 105 -15.5 q46 -15.5 79 -42.5 q33 -27 54 -63 q21 -36 31 -77 l-108 0 q-23 54 -65.5 81.5 q-42.5 27.5 -95.5 27.5 q-32 0 -58.5 -8.5 q-26.5 -8.5 -46 -23 q-19.5 -14.5 -30.5 -34.5 q-11 -20 -11 -43 q0 -53 41 -84.5 q41 -31.5 120 -54.5 q70 -21 119.5 -43 q49.5 -22 81 -49 q31.5 -27 46.5 -60.5 q15 -33.5 15 -76.5 q0 -47 -18.5 -86.5 q-18.5 -39.5 -54 -67.5 q-35.5 -28 -86.5 -43.5 q-51 -15.5 -117 -15.5 q-53 0 -101 13 q-48 13 -87.5 41 q-39.5 28 -68.5 70 q-29 42 -45 101 l111 0 Z" /><glyph glyph-name="T" unicode="t" d="M576 704 l0 -88 l-236 0 l0 -654 l-99 0 l0 654 l-235 0 l0 88 l570 0 Z" /><glyph glyph-name="U" unicode="u" d="M179 704 l0 -449 q0 -50 11.5 -91 q11.5 -41 36 -70 q24.5 -29 61.5 -45.5 q37 -16.5 88 -16.5 q99 0 147.5 58.5 q48.5 58.5 48.5 164.5 l0 449 l100 0 l0 -452 q0 -78 -21.5 -136 q-21.5 -58 -60.5 -96.5 q-39 -38.5 -93.5 -57 q-54.5 -18.5 -120.5 -18.5 q-68 0 -122.5 19 q-54.5 19 -93 57 q-38.5 38 -59.5 96 q-21 58 -21 136 l0 452 l99 0 Z" /><glyph glyph-name="Udieresis" unicode="ü" d="M179 704 l0 -449 q0 -50 11.5 -91 q11.5 -41 36 -70 q24.5 -29 61.5 -45.5 q37 -16.5 88 -16.5 q99 0 147.5 58.5 q48.5 58.5 48.5 164.5 l0 449 l100 0 l0 -452 q0 -78 -21.5 -136 q-21.5 -58 -60.5 -96.5 q-39 -38.5 -93.5 -57 q-54.5 -18.5 -120.5 -18.5 q-68 0 -122.5 19 q-54.5 19 -93 57 q-38.5 38 -59.5 96 q-21 58 -21 136 l0 452 l99 0 ZM255 956 q27 0 46 -19 q19 -19 19 -46 q0 -28 -19 -47 q-19 -19 -46 -19 q-28 0 -47 19 q-19 19 -19 47 q0 27 19 46 q19 19 47 19 ZM502 956 q27 0 45.5 -19 q18.5 -19 18.5 -46 q0 -28 -18.5 -47 q-18.5 -19 -45.5 -19 q-28 0 -47 19 q-19 19 -19 47 q0 27 19 46 q19 19 47 19 Z" /><glyph glyph-name="V" unicode="v" d="M113 704 l221 -618 l2 0 l219 618 l107 0 l-272 -742 l-110 0 l-274 742 l107 0 Z" /><glyph glyph-name="W" unicode="w" d="M117 704 l172 -610 l2 0 l182 610 l115 0 l186 -610 l2 0 l173 610 l108 0 l-224 -742 l-115 0 l-185 617 l-2 0 l-184 -617 l-113 0 l-227 742 l110 0 Z" /><glyph glyph-name="X" unicode="x" d="M132 704 l191 -281 l192 281 l116 0 l-250 -366 l257 -376 l-115 0 l-200 292 l-199 -292 l-116 0 l257 377 l-249 365 l116 0 Z" /><glyph glyph-name="Y" unicode="y" d="M122 704 l210 -340 l2 0 l202 340 l117 0 l-271 -445 l0 -297 l-100 0 l0 297 l-276 445 l116 0 Z" /><glyph glyph-name="Z" unicode="z" d="M488 616 l-424 0 l0 88 l557 0 l0 -73 l-450 -580 l451 0 l0 -89 l-583 0 l0 77 l449 577 Z" /><glyph glyph-name="b" unicode="b" d="M162 704 l0 -281 q17 27 39 45.5 q22 18.5 45 30.5 q23 12 47 17 q24 5 45 5 q51 0 94.5 -19.5 q43.5 -19.5 76 -57 q32.5 -37.5 51 -91.5 q18.5 -54 18.5 -123 q0 -65 -16.5 -117.5 q-16.5 -52.5 -47 -90 q-30.5 -37.5 -74 -58 q-43.5 -20.5 -97.5 -20.5 q-23 0 -48 5.5 q-25 5.5 -49 17.5 q-24 12 -45.5 31 q-21.5 19 -38.5 46 l0 -82 l-97 0 l0 742 l97 0 ZM320 436 q-32 0 -60.5 -13 q-28.5 -13 -51 -39 q-22.5 -26 -35.5 -65.5 q-13 -39.5 -13 -91.5 q0 -44 12.5 -80.5 q12.5 -36.5 34 -63 q21.5 -26.5 50.5 -41.5 q29 -15 63 -15 q39 0 69 15.5 q30 15.5 50.5 43 q20.5 27.5 31 64.5 q10.5 37 10.5 80 q0 42 -10 79.5 q-10 37.5 -30.5 65.5 q-20.5 28 -50.5 44.5 q-30 16.5 -70 16.5 Z" /><glyph glyph-name="c" unicode="c" d="M439 355 q-20 42 -52 62 q-32 20 -80 20 q-38 0 -68.5 -14.5 q-30.5 -14.5 -52 -41.5 q-21.5 -27 -33 -64.5 q-11.5 -37.5 -11.5 -83.5 q0 -45 11 -83 q11 -38 31.5 -65.5 q20.5 -27.5 51 -42.5 q30.5 -15 69.5 -15 q50 0 84 21 q34 21 51 60 l99 0 q-9 -32 -26.5 -62 q-17.5 -30 -45.5 -52.5 q-28 -22.5 -68 -36 q-40 -13.5 -94 -13.5 q-62 0 -110.5 22.5 q-48.5 22.5 -81.5 62 q-33 39.5 -50.5 92 q-17.5 52.5 -17.5 112.5 q0 60 17 112.5 q17 52.5 50.5 91.5 q33.5 39 82.5 61.5 q49 22.5 112 22.5 q55 0 95 -14.5 q40 -14.5 67.5 -38.5 q27.5 -24 44 -53.5 q16.5 -29.5 25.5 -59.5 l-100 0 Z" /><glyph glyph-name="e" unicode="e" d="M45 235 q0 57 16 109 q16 52 48.5 91 q32.5 39 80.5 62.5 q48 23.5 113 23.5 q65 0 112.5 -22.5 q47.5 -22.5 78.5 -60 q31 -37.5 46 -86 q15 -48.5 15 -99.5 l0 -45 l-412 0 q0 -38 11.5 -70.5 q11.5 -32.5 32.5 -57.5 q21 -25 51 -39 q30 -14 66 -14 q59 0 91.5 21 q32.5 21 52.5 61 l99 0 q-26 -81 -86 -123 q-60 -42 -154 -42 q-64 0 -113 22.5 q-49 22.5 -82 62 q-33 39.5 -50 92.5 q-17 53 -17 114 ZM458 283 q0 27 -8.5 54.5 q-8.5 27.5 -27.5 50.5 q-19 23 -48 37.5 q-29 14.5 -71 14.5 q-40 0 -70 -15 q-30 -15 -50 -38.5 q-20 -23.5 -30 -51 q-10 -27.5 -10 -52.5 l315 0 Z" /><glyph glyph-name="g" unicode="g" d="M164 -88 q20 -44 60 -62.5 q40 -18.5 90 -18.5 q69 0 108.5 40 q39.5 40 39.5 106 l0 74 q-17 -27 -39 -44.5 q-22 -17.5 -45.5 -28.5 q-23.5 -11 -47.5 -15.5 q-24 -4.5 -46 -4.5 q-50 0 -94 18 q-44 18 -76 54 q-32 36 -50.5 88.5 q-18.5 52.5 -18.5 121.5 q0 62 16.5 114 q16.5 52 47 89.5 q30.5 37.5 74 58 q43.5 20.5 97.5 20.5 q23 0 48 -5 q25 -5 48.5 -17 q23.5 -12 45.5 -31 q22 -19 39 -47 l0 84 l98 0 l0 -524 q0 -51 -17 -94 q-17 -43 -49 -73.5 q-32 -30.5 -77.5 -47.5 q-45.5 -17 -103.5 -17 q-53 0 -95 12.5 q-42 12.5 -73.5 34.5 q-31.5 22 -53 51.5 q-21.5 29.5 -32.5 63.5 l106 0 ZM303 41 q31 0 60 11.5 q29 11.5 51.5 36.5 q22.5 25 35.5 62.5 q13 37.5 13 90.5 q0 44 -12.5 80.5 q-12.5 36.5 -34 62 q-21.5 25.5 -50.5 39.5 q-29 14 -63 14 q-39 0 -69 -15.5 q-30 -15.5 -50.5 -42.5 q-20.5 -27 -31 -63 q-10.5 -36 -10.5 -77 q0 -43 10 -79.5 q10 -36.5 30.5 -63 q20.5 -26.5 50.5 -41.5 q30 -15 70 -15 Z" /><glyph glyph-name="h" unicode="h" d="M163 704 l0 -272 q38 42 84.5 65.5 q46.5 23.5 95.5 23.5 q93 0 142 -50 q49 -50 49 -146 l0 -363 l-97 0 l0 345 q0 63 -33 98 q-33 35 -90 35 q-41 0 -79 -18 q-38 -18 -72 -54 l0 -406 l-97 0 l0 742 l97 0 Z" /><glyph glyph-name="i" unicode="i" d="M118 589 q-28 0 -46.5 18.5 q-18.5 18.5 -18.5 45.5 q0 27 18.5 45.5 q18.5 18.5 46.5 18.5 q26 0 44.5 -18.5 q18.5 -18.5 18.5 -45.5 q0 -27 -18.5 -45.5 q-18.5 -18.5 -44.5 -18.5 ZM166 506 l0 -544 l-98 0 l0 544 l98 0 Z" /><glyph glyph-name="l" unicode="l" d="M163 704 l0 -742 l-97 0 l0 742 l97 0 Z" /><glyph glyph-name="m" unicode="m" d="M162 506 l0 -69 q35 38 80.5 61 q45.5 23 95.5 23 q55 0 95 -21 q40 -21 68 -77 l1 0 q38 44 87.5 71 q49.5 27 98.5 27 q85 0 133.5 -48.5 q48.5 -48.5 48.5 -143.5 l0 -367 l-97 0 l0 353 q0 58 -32 91.5 q-32 33.5 -84 33.5 q-18 0 -37 -7 q-19 -7 -37.5 -18 q-18.5 -11 -35.5 -25.5 q-17 -14.5 -30 -30.5 l0 -397 l-98 0 l0 350 q0 63 -32.5 95.5 q-32.5 32.5 -78.5 32.5 q-40 0 -78 -22.5 q-38 -22.5 -68 -56.5 l0 -399 l-96 0 l0 544 l96 0 Z" /><glyph glyph-name="n" unicode="n" d="M162 506 l0 -75 q38 43 84.5 66.5 q46.5 23.5 95.5 23.5 q97 0 144.5 -50 q47.5 -50 47.5 -146 l0 -363 l-97 0 l0 345 q0 63 -33.5 98 q-33.5 35 -90.5 35 q-41 0 -79 -18 q-38 -18 -72 -54 l0 -406 l-96 0 l0 544 l96 0 Z" /><glyph glyph-name="o" unicode="o" d="M45 233 q0 56 16.5 108 q16.5 52 49.5 92 q33 40 82.5 64 q49.5 24 116.5 24 q67 0 117 -23.5 q50 -23.5 82.5 -63.5 q32.5 -40 48.5 -92 q16 -52 16 -109 q0 -59 -16.5 -111 q-16.5 -52 -49.5 -92 q-33 -40 -82.5 -63 q-49.5 -23 -115.5 -23 q-66 0 -116 23.5 q-50 23.5 -83 63 q-33 39.5 -49.5 92 q-16.5 52.5 -16.5 110.5 ZM143 233 q0 -45 11 -82.5 q11 -37.5 32.5 -65 q21.5 -27.5 52.5 -43 q31 -15.5 71 -15.5 q41 0 72.5 15.5 q31.5 15.5 52.5 43 q21 27.5 31.5 65 q10.5 37.5 10.5 82.5 q0 45 -11.5 82.5 q-11.5 37.5 -33 64.5 q-21.5 27 -52.5 42 q-31 15 -70 15 q-38 0 -69 -15 q-31 -15 -53 -42 q-22 -27 -33.5 -64.5 q-11.5 -37.5 -11.5 -82.5 Z" /><glyph glyph-name="r" unicode="r" d="M162 506 l0 -111 q32 49 84 80 q52 31 115 32 l0 -81 q-54 0 -107.5 -24 q-53.5 -24 -91.5 -84 l0 -356 l-96 0 l0 544 l96 0 Z" /><glyph glyph-name="s" unicode="s" d="M132 112 q19 -45 55.5 -65 q36.5 -20 78.5 -20 q59 0 89.5 23 q30.5 23 30.5 53 q0 20 -8.5 35 q-8.5 15 -25.5 26 q-17 11 -41.5 20.5 q-24.5 9.5 -56.5 18.5 q-95 28 -141.5 65.5 q-46.5 37.5 -46.5 102.5 q0 31 13.5 58.5 q13.5 27.5 39 48 q25.5 20.5 63 32 q37.5 11.5 85.5 11.5 q84 0 137 -39.5 q53 -39.5 69 -110.5 l-93 0 q-19 39 -49 56 q-30 17 -66 17 q-42 0 -71.5 -19 q-29.5 -19 -29.5 -52 q0 -38 30 -58 q30 -20 83 -35 q49 -14 87.5 -29.5 q38.5 -15.5 65 -36 q26.5 -20.5 40 -47.5 q13.5 -27 13.5 -64 q0 -33 -13 -62 q-13 -29 -40 -50.5 q-27 -21.5 -67.5 -34 q-40.5 -12.5 -95.5 -12.5 q-39 0 -76.5 10.5 q-37.5 10.5 -69.5 31.5 q-32 21 -56 52.5 q-24 31.5 -36 73.5 l103 0 Z" /><glyph glyph-name="t" unicode="t" d="M101 506 l0 142 l96 0 l0 -142 l121 0 l0 -79 l-121 0 l0 -342 q0 -33 19 -46.5 q19 -13.5 52 -13.5 q25 0 50 10 l0 -78 q-43 -13 -95 -13 q-54 0 -88 25.5 q-34 25.5 -34 84.5 l0 373 l-92 0 l0 79 l92 0 Z" /><glyph glyph-name="u" unicode="u" d="M162 506 l0 -349 q0 -64 35.5 -98.5 q35.5 -34.5 93.5 -34.5 q81 0 146 71 l0 411 l97 0 l0 -544 l-97 0 l0 69 q-38 -42 -85 -64.5 q-47 -22.5 -95 -22.5 q-93 0 -142 49 q-49 49 -49 145 l0 368 l96 0 Z" /><glyph glyph-name="v" unicode="v" d="M112 506 l160 -451 l2 0 l161 451 l106 0 l-208 -544 l-119 0 l-209 544 l107 0 Z" /><glyph glyph-name="x" unicode="x" d="M119 506 l144 -196 l144 196 l109 0 l-199 -269 l204 -275 l-110 0 l-148 201 l-148 -201 l-109 0 l202 274 l-198 270 l109 0 Z" /><glyph glyph-name="z" unicode="z" d="M365 426 l-313 0 l0 80 l443 0 l0 -66 l-331 -399 l343 0 l0 -79 l-473 0 l0 64 l331 400 Z" /><glyph glyph-name="zero" unicode="0" d="M58 217 l0 211 q0 86 30.5 150 q30.5 64 86 98 q55.5 34 129.5 34 q74 0 130 -33.5 q56 -33.5 86.5 -95.5 q30.5 -62 30.5 -145 l0 -219 q0 -129 -66.5 -200.5 q-66.5 -71.5 -180.5 -71.5 q-113 0 -179.5 71.5 q-66.5 71.5 -66.5 200.5 ZM460 223 l0 212 q0 84 -40.5 135 q-40.5 51 -115.5 51 q-71 0 -113.5 -50.5 q-42.5 -50.5 -42.5 -135.5 l0 -212 q0 -88 40.5 -139.5 q40.5 -51.5 115.5 -51.5 q76 0 116 51 q40 51 40 140 Z" /><glyph glyph-name="one" unicode="1" d="M220 599 l-185 -109 l0 91 l202 121 l72 0 l0 -742 l-89 0 l0 639 Z" /><glyph glyph-name="two" unicode="2" d="M328 298 q58 62 83 106 q25 44 25 94 q0 58 -39 91.5 q-39 33.5 -100 33.5 q-69 0 -108.5 -40.5 q-39.5 -40.5 -47.5 -113.5 l-90 0 q11 116 76.5 178.5 q65.5 62.5 169.5 62.5 q67 0 119.5 -27 q52.5 -27 81.5 -74 q29 -47 29 -107 q0 -68 -29.5 -121 q-29.5 -53 -91.5 -118 l-208 -221 l345 0 l0 -82 l-496 0 l0 40 l281 298 Z" /><glyph glyph-name="three" unicode="3" d="M40 156 l91 0 q13 -62 55 -93.5 q42 -31.5 109 -31.5 q66 0 108.5 36.5 q42.5 36.5 42.5 95.5 q0 62 -46 100 q-46 38 -119 38 l-62 0 l0 72 l59 0 q63 0 105.5 36.5 q42.5 36.5 42.5 94.5 q0 52 -37 85.5 q-37 33.5 -95 33.5 q-62 0 -101 -33.5 q-39 -33.5 -47 -95.5 l-91 0 q11 103 76.5 159.5 q65.5 56.5 163.5 56.5 q63 0 113.5 -24.5 q50.5 -24.5 79.5 -68.5 q29 -44 29 -101 q0 -60 -32.5 -103.5 q-32.5 -43.5 -86.5 -70.5 q65 -22 102.5 -68.5 q37.5 -46.5 37.5 -116.5 q0 -60 -30 -108.5 q-30 -48.5 -85 -76 q-55 -27.5 -127 -27.5 q-109 0 -175.5 53 q-66.5 53 -80.5 158 Z" /><glyph glyph-name="four" unicode="4" d="M361 112 l-342 0 l0 57 l369 533 l62 0 l1 -513 l143 0 l0 -77 l-143 0 l-1 -156 l-89 0 l0 156 ZM361 189 l0 353 l-237 -353 l237 0 Z" /><glyph glyph-name="five" unicode="5" d="M50 131 l98 0 q42 -99 150 -99 q70 0 113.5 43.5 q43.5 43.5 43.5 115.5 q0 72 -42.5 115 q-42.5 43 -112.5 43 q-45 0 -81.5 -16.5 q-36.5 -16.5 -73.5 -46.5 l-76 1 l25 410 l408 0 l0 -77 l-326 0 l-14 -245 q37 23 74 36 q37 13 83 13 q63 0 115 -28 q52 -28 82 -80.5 q30 -52.5 30 -124.5 q0 -72 -31.5 -128 q-31.5 -56 -88 -87 q-56.5 -31 -127.5 -31 q-100 0 -162 46 q-62 46 -87 140 Z" /><glyph glyph-name="six" unicode="6" d="M322 421 q58 0 111 -28 q53 -28 86 -80 q33 -52 33 -120 q0 -72 -34.5 -128.5 q-34.5 -56.5 -92 -88 q-57.5 -31.5 -124.5 -31.5 q-67 0 -123.5 30.5 q-56.5 30.5 -89.5 85.5 q-33 55 -33 127 q0 60 23 110 q23 50 67 118 l182 281 l109 0 l-198 -291 q36 15 84 15 ZM460 192 q0 47 -21.5 83 q-21.5 36 -57.5 55.5 q-36 19.5 -78 19.5 q-44 0 -80 -20.5 q-36 -20.5 -56.5 -57 q-20.5 -36.5 -20.5 -82.5 q0 -46 20.5 -82 q20.5 -36 56.5 -56 q36 -20 79 -20 q43 0 79 20 q36 20 57.5 56.5 q21.5 36.5 21.5 83.5 Z" /><glyph glyph-name="seven" unicode="7" d="M422 618 l-387 0 l0 79 l495 0 l0 -50 l-318 -687 l-100 0 l310 658 Z" /><glyph glyph-name="eight" unicode="8" d="M49 165 q0 77 41 128 q41 51 99 76 q-95 58 -95 158 q0 50 27.5 92 q27.5 42 75.5 66.5 q48 24.5 107 24.5 q60 0 108.5 -24.5 q48.5 -24.5 75.5 -66 q27 -41.5 27 -92.5 q0 -54 -25.5 -91.5 q-25.5 -37.5 -70.5 -66.5 q60 -24 99.5 -74.5 q39.5 -50.5 38.5 -129.5 q0 -63 -34 -113.5 q-34 -50.5 -92 -78.5 q-58 -28 -127 -28 q-70 0 -128.5 28 q-58.5 28 -92.5 78 q-34 50 -34 114 ZM429 514 q0 50 -35 81.5 q-35 31.5 -90 31.5 q-54 0 -89 -31.5 q-35 -31.5 -35 -81.5 q0 -50 35 -82 q35 -32 89 -32 q54 0 89.5 32 q35.5 32 35.5 82 ZM465 176 q0 68 -45.5 109.5 q-45.5 41.5 -115.5 41.5 q-70 0 -116.5 -41.5 q-46.5 -41.5 -46.5 -109.5 q0 -42 22 -75 q22 -33 59 -51 q37 -18 82 -18 q44 0 81 18 q37 18 58.5 51 q21.5 33 21.5 75 Z" /><glyph glyph-name="nine" unicode="9" d="M284 226 q-60 0 -112.5 28.5 q-52.5 28.5 -84.5 81 q-32 52.5 -32 120.5 q0 75 33.5 133 q33.5 58 91 89.5 q57.5 31.5 125.5 31.5 q69 0 125 -31 q56 -31 89 -87 q33 -56 33 -130 q0 -61 -24 -113.5 q-24 -52.5 -71 -123.5 l-178 -267 l-108 0 l197 284 q-43 -16 -84 -16 ZM146 457 q0 -48 21 -84 q21 -36 57 -55.5 q36 -19.5 79 -20.5 q45 0 81 21.5 q36 21.5 56.5 59 q20.5 37.5 20.5 82.5 q0 73 -44 118 q-44 45 -113 45 q-44 0 -80 -20.5 q-36 -20.5 -57 -58 q-21 -37.5 -21 -87.5 Z" /><glyph glyph-name="period" unicode="." d="M161 -40 q-28 0 -47 19 q-19 19 -19 45 q0 28 19 47 q19 19 47 19 q27 0 46 -19 q19 -19 19 -47 q0 -26 -19 -45 q-19 -19 -46 -19 Z" /><glyph glyph-name="colon" unicode=":" d="M65 513 q0 25 17.5 42.5 q17.5 17.5 42.5 17.5 q24 0 41.5 -17.5 q17.5 -17.5 17.5 -42.5 q0 -25 -17.5 -42.5 q-17.5 -17.5 -41.5 -17.5 q-25 0 -42.5 17.5 q-17.5 17.5 -17.5 42.5 ZM65 155 q0 25 17.5 42.5 q17.5 17.5 42.5 17.5 q24 0 41.5 -17.5 q17.5 -17.5 17.5 -42.5 q0 -24 -17.5 -41.5 q-17.5 -17.5 -41.5 -17.5 q-25 0 -42.5 17.5 q-17.5 17.5 -17.5 41.5 Z" /><glyph glyph-name="semicolon" unicode=";" d="M153 380 q-28 0 -46.5 19 q-18.5 19 -18.5 46 q0 28 18.5 47 q18.5 19 46.5 19 q28 0 46.5 -19 q18.5 -19 18.5 -47 q0 -27 -18.5 -46 q-18.5 -19 -46.5 -19 ZM61 -113 l43 255 l101 0 l-65 -255 l-79 0 Z" /><glyph glyph-name="asterisk" unicode="*" d="M280 704 l-16 -141 l131 59 l27 -82 l-143 -30 l104 -105 l-69 -51 l-79 124 l-78 -125 l-69 50 l104 107 l-140 31 l25 82 l132 -60 l-14 141 l85 0 Z" /><glyph glyph-name="slash" unicode="/" d="M279 704 l93 0 l-250 -742 l-93 0 l250 742 Z" /><glyph glyph-name="uniFF1A" unicode="&#xff1a;" d="M191 407 q0 25 17.5 42.5 q17.5 17.5 42.5 17.5 q24 0 41.5 -17.5 q17.5 -17.5 17.5 -42.5 q0 -25 -17.5 -42.5 q-17.5 -17.5 -41.5 -17.5 q-25 0 -42.5 17.5 q-17.5 17.5 -17.5 42.5 ZM191 49 q0 25 17.5 42.5 q17.5 17.5 42.5 17.5 q24 0 41.5 -17.5 q17.5 -17.5 17.5 -42.5 q0 -24 -17.5 -41.5 q-17.5 -17.5 -41.5 -17.5 q-25 0 -42.5 17.5 q-17.5 17.5 -17.5 41.5 Z" /><glyph glyph-name="uniFF0C" unicode="&#xff0c;" d="M202 -118 q29 17 52.5 46 q23.5 29 29.5 62 l-6 0 q-28 0 -47 18.5 q-19 18.5 -19 45.5 q0 28 18 47 q18 19 46 19 q30 0 48.5 -23 q18.5 -23 18.5 -66 q0 -59 -31 -107.5 q-31 -48.5 -88 -77.5 l-22 36 Z" /><glyph glyph-name="uniFF01" unicode="&#xff01;" d="M248 -40 q-28 0 -47 19 q-19 19 -19 45 q0 28 19 47 q19 19 47 19 q27 0 46 -19 q19 -19 19 -47 q0 -26 -19 -45 q-19 -19 -46 -19 ZM298 705 l0 -393 l-8 -135 l-84 0 l-7 135 l0 393 l99 0 Z" /><glyph glyph-name="uniFF0E" unicode="&#xff0e;" d="M264 -40 q-28 0 -47 19 q-19 19 -19 45 q0 28 19 47 q19 19 47 19 q27 0 46 -19 q19 -19 19 -47 q0 -26 -19 -45 q-19 -19 -46 -19 Z" /><glyph glyph-name="uniFF1B" unicode="&#xff1b;" d="M189 -118 q28 17 51.5 46 q23.5 29 30.5 62 l-7 0 q-28 0 -47 18.5 q-19 18.5 -19 45.5 q0 28 18 47 q18 19 46 19 q30 0 48.5 -23 q18.5 -23 18.5 -66 q0 -61 -30.5 -108.5 q-30.5 -47.5 -87.5 -76.5 l-22 36 ZM264 360 q-28 0 -47 19 q-19 19 -19 46 q0 28 19 47 q19 19 47 19 q27 0 46 -19 q19 -19 19 -47 q0 -27 -19 -46 q-19 -19 -46 -19 Z" /><glyph glyph-name="uni3010" unicode="&#x3010;" d="M851 817 q-29 -44 -52 -103 q-23 -59 -39.5 -123 q-16.5 -64 -25.5 -127.5 q-9 -63.5 -9 -117.5 q0 -61 9 -127 q9 -66 25.5 -129 q16.5 -63 40 -119 q23.5 -56 52.5 -96 l-267 0 l0 942 l266 0 Z" /><glyph glyph-name="uni3011" unicode="&#x3011;" d="M146 -125 q29 40 52.5 96 q23.5 56 40 119 q16.5 63 25.5 129 q9 66 9 127 q0 54 -9 117.5 q-9 63.5 -25.5 127.5 q-16.5 64 -39.5 123 q-23 59 -52 103 l266 0 l0 -942 l-267 0 Z" /><glyph glyph-name="uni300C" unicode="&#x300c;" d="M859 817 l0 -78 l-174 0 l0 -762 l-92 0 l0 840 l266 0 Z" /><glyph glyph-name="uni300D" unicode="&#x300d;" d="M313 -47 l0 762 l92 0 l0 -840 l-265 0 l0 78 l173 0 Z" /><glyph glyph-name="uniFF08" unicode="&#xff08;" d="M787 777 q-25 -37 -47.5 -83.5 q-22.5 -46.5 -40 -101 q-17.5 -54.5 -27.5 -116 q-10 -61.5 -10 -128.5 q0 -65 10 -123.5 q10 -58.5 27 -111.5 q17 -53 39.5 -101 q22.5 -48 48.5 -91 l-89 0 q-29 35 -54 80.5 q-25 45.5 -44.5 100 q-19.5 54.5 -30.5 116.5 q-11 62 -11 130 q0 68 11 129.5 q11 61.5 30.5 115.5 q19.5 54 44.5 100 q25 46 54 84 l89 0 Z" /><glyph glyph-name="uniFF09" unicode="&#xff09;" d="M303 777 q28 -38 53.5 -84 q25.5 -46 45 -100 q19.5 -54 30.5 -115.5 q11 -61.5 11 -129.5 q0 -68 -11 -130 q-11 -62 -30.5 -116.5 q-19.5 -54.5 -45 -100 q-25.5 -45.5 -54.5 -80.5 l-89 0 q25 43 48 91 q23 48 40.5 101 q17.5 53 27.5 111.5 q10 58.5 10 123.5 q0 67 -10.5 128.5 q-10.5 61.5 -27.5 116 q-17 54.5 -40 101 q-23 46.5 -48 83.5 l90 0 Z" /><glyph glyph-name="hyphen" unicode="-" d="M108 390 l344 0 l0 -79 l-344 0 l0 79 Z" /><glyph glyph-name="quotedblleft" unicode="&#x201c;" d="M803 792 q-29 -17 -52.5 -46 q-23.5 -29 -29.5 -62 l6 0 q28 0 47 -19 q19 -19 19 -46 q0 -28 -18 -47 q-18 -19 -46 -19 q-30 0 -48.5 24.5 q-18.5 24.5 -18.5 64.5 q0 60 31 108.5 q31 48.5 88 77.5 l22 -36 ZM605 792 q-29 -17 -52.5 -46 q-23.5 -29 -29.5 -62 l7 0 q28 0 47 -19 q19 -19 19 -46 q0 -28 -18 -47 q-18 -19 -46 -19 q-30 0 -48.5 24.5 q-18.5 24.5 -18.5 64.5 q0 60 30.5 108.5 q30.5 48.5 87.5 77.5 l22 -36 Z" /><glyph glyph-name="quotedblright" unicode="&#x201d;" d="M197 567 q28 17 51.5 46 q23.5 29 30.5 62 l-7 0 q-28 0 -47 19 q-19 19 -19 46 q0 28 18 47 q18 19 46 19 q30 0 48.5 -24.5 q18.5 -24.5 18.5 -64.5 q0 -60 -30.5 -108.5 q-30.5 -48.5 -87.5 -77.5 l-22 36 ZM394 567 q29 17 52.5 46 q23.5 29 29.5 62 l-7 0 q-28 0 -46.5 19 q-18.5 19 -18.5 46 q0 28 18 47 q18 19 46 19 q30 0 48 -24.5 q18 -24.5 18 -64.5 q0 -60 -30.5 -108.5 q-30.5 -48.5 -87.5 -77.5 l-22 36 Z" /><glyph glyph-name="uni3001" unicode="&#x3001;" d="M247 175 q25 -15 56 -39 q31 -24 61.5 -52 q30.5 -28 58 -57.5 q27.5 -29.5 45.5 -56.5 l-81 -70 q-18 31 -41.5 64 q-23.5 33 -49.5 64 q-26 31 -53 57.5 q-27 26.5 -51 45.5 l55 44 Z" /><glyph glyph-name="uni3002" unicode="&#x3002;" d="M245 42 q0 -21 8 -39.5 q8 -18.5 21.5 -32.5 q13.5 -14 32.5 -22 q19 -8 41 -8 q21 0 40 8 q19 8 33.5 22 q14.5 14 22.5 32.5 q8 18.5 8 39.5 q0 22 -8 41 q-8 19 -22.5 33 q-14.5 14 -33.5 22 q-19 8 -40 8 q-45 0 -74 -30 q-29 -30 -29 -74 ZM184 42 q0 33 13 63 q13 30 35.5 52.5 q22.5 22.5 52 35.5 q29.5 13 63.5 13 q34 0 63.5 -13 q29.5 -13 52 -35.5 q22.5 -22.5 35.5 -52.5 q13 -30 13 -63 q0 -33 -13 -62.5 q-13 -29.5 -35.5 -51.5 q-22.5 -22 -52 -35 q-29.5 -13 -63.5 -13 q-34 0 -63.5 13 q-29.5 13 -52 35 q-22.5 22 -35.5 51.5 q-13 29.5 -13 62.5 Z" /><glyph glyph-name="plus" unicode="+" d="M271 381 l0 240 l89 0 l0 -240 l240 0 l0 -86 l-240 0 l0 -241 l-89 0 l0 241 l-238 0 l0 86 l238 0 Z" /><glyph glyph-name="plusminus" unicode="±" d="M272 440 l0 181 l89 0 l0 -181 l224 0 l0 -84 l-224 0 l0 -181 l-89 0 l0 181 l-224 0 l0 84 l224 0 ZM585 108 l0 -85 l-537 0 l0 85 l537 0 Z" /><glyph glyph-name="percent" unicode="%" d="M48 516 q0 40 14 73.5 q14 33.5 38.5 57.5 q24.5 24 58.5 37.5 q34 13.5 73 13.5 q39 0 72 -13 q33 -13 58 -37 q25 -24 39 -57.5 q14 -33.5 14 -74.5 q0 -41 -13.5 -74.5 q-13.5 -33.5 -38 -57 q-24.5 -23.5 -58 -36 q-33.5 -12.5 -73.5 -12.5 q-40 0 -74 13 q-34 13 -58.5 37 q-24.5 24 -38 57 q-13.5 33 -13.5 73 ZM520 142 q0 40 14 73.5 q14 33.5 38.5 57.5 q24.5 24 58 37.5 q33.5 13.5 72.5 13.5 q39 0 72.5 -13 q33.5 -13 58 -37 q24.5 -24 38.5 -57.5 q14 -33.5 14 -74.5 q0 -41 -13.5 -73.5 q-13.5 -32.5 -38 -56 q-24.5 -23.5 -58 -36 q-33.5 -12.5 -73.5 -12.5 q-40 0 -73.5 13 q-33.5 13 -58 36.5 q-24.5 23.5 -38 56 q-13.5 32.5 -13.5 72.5 ZM594 141 q0 -48 30.5 -76.5 q30.5 -28.5 78.5 -28.5 q47 0 77.5 28.5 q30.5 28.5 30.5 76.5 q0 49 -30.5 79.5 q-30.5 30.5 -77.5 30.5 q-47 0 -78 -31 q-31 -31 -31 -79 ZM122 515 q0 -48 31 -77 q31 -29 79 -29 q46 0 76.5 29 q30.5 29 30.5 77 q0 48 -30.5 78.5 q-30.5 30.5 -76.5 30.5 q-48 0 -79 -30.5 q-31 -30.5 -31 -78.5 ZM653 698 l95 0 l-465 -736 l-94 0 l464 736 Z" /><glyph glyph-name="ampersand" unicode="&amp;" d="M42 153 q0 40 14.5 73 q14.5 33 39 59.5 q24.5 26.5 56 48 q31.5 21.5 64.5 39.5 q-14 19 -27 40 q-13 21 -23.5 42.5 q-10.5 21.5 -17 43 q-6.5 21.5 -6.5 40.5 q0 37 14 67.5 q14 30.5 39.5 52 q25.5 21.5 62 33.5 q36.5 12 80.5 12 q44 0 78.5 -12.5 q34.5 -12.5 58.5 -34 q24 -21.5 36.5 -51.5 q12.5 -30 12.5 -65 q0 -35 -15 -63 q-15 -28 -39 -51.5 q-24 -23.5 -55.5 -43.5 q-31.5 -20 -64.5 -38 q39 -46 84.5 -92.5 q45.5 -46.5 93.5 -91.5 q40 74 40 168 l95 0 q0 -65 -17 -124 q-17 -59 -50 -108 q48 -43 88 -77.5 q40 -34.5 66 -57.5 l-138 0 l-72 69 q-46 -41 -107 -64 q-61 -23 -136 -23 q-52 0 -98.5 13.5 q-46.5 13.5 -81 39.5 q-34.5 26 -55 65.5 q-20.5 39.5 -20.5 90.5 ZM294 22 q56 0 101.5 19 q45.5 19 80.5 52 q-59 57 -110.5 109 q-51.5 52 -92.5 100 q-27 -16 -51.5 -32.5 q-24.5 -16.5 -43 -34.5 q-18.5 -18 -29 -38 q-10.5 -20 -10.5 -44 q0 -36 13.5 -61 q13.5 -25 35.5 -40.5 q22 -15.5 50 -22.5 q28 -7 56 -7 ZM238 539 q0 -24 15.5 -56 q15.5 -32 41.5 -69 q27 14 51 28.5 q24 14.5 42.5 30 q18.5 15.5 29 33 q10.5 17.5 10.5 37.5 q0 34 -24.5 58.5 q-24.5 24.5 -68.5 24.5 q-42 0 -69.5 -24.5 q-27.5 -24.5 -27.5 -62.5 Z" /><glyph glyph-name="degree" unicode="°" d="M129 611 q0 -30 21.5 -51 q21.5 -21 50.5 -21 q29 0 50 21 q21 21 21 51 q0 30 -21 51.5 q-21 21.5 -50 21.5 q-29 0 -50.5 -21.5 q-21.5 -21.5 -21.5 -51.5 ZM81 611 q0 25 9.5 47 q9.5 22 25.5 38.5 q16 16.5 38 26 q22 9.5 47 9.5 q25 0 46.5 -9.5 q21.5 -9.5 37.5 -26 q16 -16.5 25.5 -38.5 q9.5 -22 9.5 -47 q0 -25 -9.5 -46.5 q-9.5 -21.5 -25.5 -37.5 q-16 -16 -37.5 -25.5 q-21.5 -9.5 -46.5 -9.5 q-25 0 -47 9.5 q-22 9.5 -38 25.5 q-16 16 -25.5 37.5 q-9.5 21.5 -9.5 46.5 Z" /><glyph glyph-name="bar" unicode="|" d="M170 704 l0 -937 l-89 0 l0 937 l89 0 Z" /><glyph glyph-name="uni2103" unicode="&#x2103;" d="M-38 569 q0 38 19 70.5 q19 32.5 51.5 51.5 q32.5 19 71.5 19 q38 0 70.5 -19 q32.5 -19 51.5 -51.5 q19 -32.5 19 -70.5 q0 -38 -19 -71 q-19 -33 -51.5 -52 q-32.5 -19 -70.5 -19 q-39 0 -71.5 19 q-32.5 19 -51.5 51.5 q-19 32.5 -19 71.5 ZM271 321 q0 108 43.5 197 q43.5 89 124.5 140.5 q81 51.5 188 51.5 q45 0 92 -11.5 q47 -11.5 87 -30.5 l0 -95 q-87 58 -185 58 q-72 0 -131 -37.5 q-59 -37.5 -93.5 -107.5 q-34.5 -70 -34.5 -165 q0 -93 34 -160 q34 -67 93 -102 q59 -35 135 -35 q52 0 96 15.5 q44 15.5 86 46.5 l0 -91 q-85 -50 -181 -50 q-109 0 -189 48 q-80 48 -122.5 133.5 q-42.5 85.5 -42.5 194.5 ZM173 569 q0 31 -20 52.5 q-20 21.5 -50 21.5 q-30 0 -49.5 -21 q-19.5 -21 -19.5 -53 q0 -32 19 -52.5 q19 -20.5 50 -20.5 q30 0 50 21 q20 21 20 52 Z" /><glyph glyph-name="uni4E00" unicode="&#x4e00;" d="M956 427 l0 -95 l-913 0 l0 95 l913 0 Z" /><glyph glyph-name="uni4E07" unicode="&#x4e07;" d="M40 -35 q73 56 135 125 q36 43 64 93 q33 67 47 140 q16 89 22 180 l7 150 l-255 0 l0 84 l885 0 l0 -84 l-539 0 q-3 -76 -7 -151 q-2 -7 -1 -13 l431 0 q-13 -191 -26 -380 q-3 -46 -17 -89 q-9 -22 -25 -41 q-24 -22 -57 -30 q-44 -9 -89 -9 l-153 0 l-18 85 l143 0 q31 -1 61 4 q22 4 38 19 q11 12 17 28 q8 30 11 62 q11 133 19 268 l-343 0 q-9 -80 -29 -158 q-20 -70 -55 -133 q-39 -67 -93 -122 q-48 -49 -101 -92 l-72 64 Z" /><glyph glyph-name="uni4E09" unicode="&#x4e09;" d="M946 55 l0 -85 l-892 0 l0 85 l892 0 ZM887 715 l0 -85 l-775 0 l0 85 l775 0 ZM842 403 l0 -84 l-684 0 l0 84 l684 0 Z" /><glyph glyph-name="uni4E0A" unicode="&#x4e0a;" d="M520 797 l0 -282 l379 0 l0 -81 l-379 0 l0 -403 l435 0 l0 -83 l-907 0 l0 83 l385 0 l0 766 l87 0 Z" /><glyph glyph-name="uni4E0B" unicode="&#x4e0b;" d="M944 728 l0 -83 l-424 0 l0 -739 l-89 0 l0 739 l-374 0 l0 83 l887 0 ZM572 513 q163 -114 321 -235 l-56 -75 q-154 126 -315 241 l50 69 Z" /><glyph glyph-name="uni4E0D" unicode="&#x4e0d;&#xf967;" d="M919 734 l0 -85 l-313 0 q-49 -89 -110 -169 l47 0 l0 -572 l-86 0 l0 522 q-154 -185 -348 -327 l-59 76 q136 91 252 207 q118 118 203 263 l-421 0 l0 85 l835 0 ZM617 472 q168 -139 331 -285 l-63 -73 q-157 151 -322 293 l54 65 Z" /><glyph glyph-name="uni4E0E" unicode="&#x4e0e;" d="M232 785 l89 0 l-10 -124 l602 0 l0 -82 l-608 0 l-11 -146 l570 0 l-22 -354 q-3 -43 -15 -84 q-8 -22 -24 -40 q-22 -21 -53 -29 q-43 -8 -86 -8 l-181 0 l-16 82 l171 0 q28 0 57 3 q20 4 35 17 q9 11 14 25 q8 28 10 57 l18 246 l-574 0 l34 437 ZM703 217 l0 -82 l-656 0 l0 82 l656 0 Z" /><glyph glyph-name="uni4E13" unicode="&#x4e13;" d="M316 493 q21 54 39 110 l-245 0 l0 80 l270 0 q17 57 32 116 l88 -10 l-28 -106 l417 0 l0 -80 l-441 0 q-18 -56 -37 -110 l533 0 l0 -80 l-564 0 q-22 -55 -46 -108 l499 0 l0 -85 q-101 -97 -206 -188 l181 -65 l-32 -84 q-300 114 -603 215 l27 79 q168 -55 336 -113 q92 76 180 160 l-486 0 l0 70 q29 58 55 119 l-230 0 l0 80 l261 0 Z" /><glyph glyph-name="uni4E16" unicode="&#x4e16;" d="M507 795 l0 -227 l210 0 l0 228 l85 0 l0 -228 l154 0 l0 -83 l-154 0 l0 -311 l-380 0 l0 311 l-163 0 l0 -454 l671 0 l0 -81 l-758 0 l0 535 l-129 0 l0 83 l129 0 l0 203 l87 0 l0 -203 l163 0 l0 227 l85 0 ZM717 255 l0 230 l-210 0 l0 -230 l210 0 Z" /><glyph glyph-name="uni4E1A" unicode="&#x4e1a;" d="M341 35 l0 753 l90 0 l0 -753 l140 0 l0 753 l90 0 l0 -753 l286 0 l0 -85 l-893 0 l0 85 l287 0 ZM158 625 q92 -198 179 -398 l-85 -39 q-83 202 -174 401 l80 36 ZM664 226 q100 192 181 395 l83 -36 q-86 -203 -183 -400 l-81 41 Z" /><glyph glyph-name="uni4E1C" unicode="&#x4e1c;" d="M136 369 q72 107 135 222 l-203 0 l0 80 l246 0 q36 67 67 138 l87 -30 q-24 -56 -51 -108 l506 0 l0 -80 l-549 0 q-38 -70 -78 -139 q-26 -43 -54 -84 l239 0 l0 176 l82 0 l0 -176 l318 0 l0 -81 l-318 0 l0 -254 q0 -31 -8 -59 q-6 -17 -18 -29 q-17 -16 -41 -22 q-32 -6 -64 -6 l-110 0 l-16 80 l104 0 q18 0 37 3 q12 1 22 9 q5 7 8 15 q4 15 4 31 l0 232 l-345 0 l0 82 ZM36 -2 q136 104 237 245 l69 -57 q-108 -145 -247 -258 l-59 70 ZM700 242 q128 -118 252 -241 l-63 -65 q-122 126 -250 245 l61 61 Z" /><glyph glyph-name="uni4E24" unicode="&#x4e24;" d="M328 550 l2 126 l-281 0 l0 77 l878 0 l0 -77 l-276 0 q-2 -63 -2 -126 l225 0 l0 -503 q0 -31 -8 -60 q-5 -16 -16 -29 q-17 -16 -39 -22 q-31 -6 -62 -6 l-116 0 l-16 77 l108 0 q18 -1 36 3 q9 2 17 7 q8 8 11 18 q3 15 3 30 l0 101 l-55 -49 q-62 76 -127 151 q-22 -62 -55 -119 q-42 -70 -95 -131 l-68 42 q41 47 77 100 q32 48 54 102 q39 101 44 211 l-160 0 q-3 -48 -11 -95 q55 -62 111 -124 l-60 -54 l-74 86 q-19 -56 -49 -107 q-39 -65 -87 -121 l-53 38 l0 -172 l-80 0 l0 626 l224 0 ZM184 122 q59 67 96 149 q18 45 28 92 q11 54 16 110 l-140 0 l0 -351 ZM647 473 q-3 -60 -14 -117 q79 -90 159 -179 l0 296 l-145 0 ZM411 676 q-2 -63 -2 -126 l159 0 q0 63 2 126 l-159 0 Z" /><glyph glyph-name="uni4E2A" unicode="&#x4e2a;" d="M30 404 q126 74 235 171 q112 100 196 224 l76 0 q87 -126 201 -227 q109 -95 233 -169 l-55 -83 q-118 74 -222 167 q-109 96 -194 214 q-89 -119 -200 -217 q-103 -91 -219 -164 l-51 84 ZM544 482 l0 -577 l-90 0 l0 577 l90 0 Z" /><glyph glyph-name="uni4E2D" unicode="&#x4e2d;" d="M542 798 l0 -188 l348 0 l0 -462 l-88 0 l0 57 l-260 0 l0 -304 l-88 0 l0 304 l-257 0 l0 -59 l-88 0 l0 464 l345 0 l0 188 l88 0 ZM542 525 l0 -236 l260 0 l0 236 l-260 0 ZM197 289 l257 0 l0 236 l-257 0 l0 -236 Z" /><glyph glyph-name="uni4E30" unicode="&#x4e30;" d="M456 431 l0 144 l-367 0 l0 81 l367 0 l0 140 l86 0 l0 -140 l366 0 l0 -81 l-366 0 l0 -144 l319 0 l0 -80 l-319 0 l0 -152 l402 0 l0 -81 l-402 0 l0 -216 l-86 0 l0 216 l-403 0 l0 81 l403 0 l0 152 l-320 0 l0 80 l320 0 Z" /><glyph glyph-name="uni4E3A" unicode="&#x4e3a;" d="M59 -32 q81 57 154 124 q60 58 106 127 q31 50 53 105 q29 80 43 165 l-329 0 l0 85 l339 0 q9 109 17 219 l88 0 q-5 -110 -15 -219 l371 0 q-11 -258 -28 -515 q-2 -34 -15 -64 q-10 -19 -25 -33 q-24 -18 -54 -25 q-41 -8 -82 -8 l-155 0 l-19 85 l145 0 q29 -1 59 3 q20 3 36 15 q10 8 16 21 q8 22 10 46 q14 194 21 390 l-290 0 q-14 -96 -46 -187 q-23 -62 -56 -119 q-49 -78 -114 -143 q-77 -75 -164 -139 l-66 67 ZM557 402 l160 -171 l-64 -59 q-77 89 -159 174 l63 56 ZM217 791 q73 -73 144 -149 l-64 -57 q-69 78 -141 154 l61 52 Z" /><glyph glyph-name="uni4E3B" unicode="&#x4e3b;" d="M483 817 q47 -76 96 -151 l-67 -38 l402 0 l0 -84 l-371 0 l0 -202 l328 0 l0 -84 l-328 0 l0 -232 l404 0 l0 -82 l-895 0 l0 82 l403 0 l0 232 l-327 0 l0 84 l327 0 l0 202 l-370 0 l0 84 l414 0 q-43 75 -91 148 l75 41 Z" /><glyph glyph-name="uni4E3D" unicode="&#x4e3d;" d="M888 567 l0 -558 q0 -25 -6 -49 q-5 -13 -14 -24 q-15 -13 -35 -17 q-28 -5 -57 -5 l-82 0 l-16 77 l78 0 q15 0 31 3 q7 1 14 5 q6 6 8 15 q2 13 2 27 l0 445 l-195 0 l0 -574 l-76 0 l0 655 l348 0 ZM450 567 l0 -558 q0 -25 -6 -49 q-4 -13 -13 -24 q-15 -13 -34 -17 q-28 -5 -56 -5 l-80 0 l-14 77 l73 0 q15 0 29 3 q8 1 13 5 q7 5 9 14 q2 14 2 28 l0 445 l-184 0 l0 -574 l-76 0 l0 655 l337 0 ZM950 747 l0 -78 l-898 0 l0 78 l898 0 ZM680 394 q64 -96 125 -193 l-60 -41 q-60 98 -122 195 l57 39 ZM251 394 q60 -97 118 -195 l-60 -38 q-56 100 -115 198 l57 35 Z" /><glyph glyph-name="uni4E45" unicode="&#x4e45;" d="M68 375 q182 186 277 430 l89 -25 q-24 -61 -52 -119 l323 0 l0 -83 q-45 -123 -113 -233 q63 -119 162 -211 q93 -85 206 -143 l-59 -82 q-122 74 -222 174 q-82 84 -140 185 q-76 -97 -170 -177 q-129 -106 -274 -191 l-55 82 q112 61 214 136 q67 52 127 111 q148 149 221 347 l-265 0 q-87 -146 -206 -266 l-63 65 Z" /><glyph glyph-name="uni4E4B" unicode="&#x4e4b;" d="M496 622 q-40 78 -83 154 l82 29 q45 -81 89 -161 l-64 -22 l351 0 l0 -84 q-58 -61 -122 -115 q-75 -62 -154 -120 q-142 -104 -297 -188 q35 -43 86 -63 q32 -11 65 -14 q45 -4 91 -3 l416 0 l-18 -84 l-390 0 q-57 0 -113 5 q-41 3 -80 15 q-60 21 -100 69 q-12 14 -26 26 q-8 8 -18 11 q-10 -2 -17 -9 q-12 -12 -22 -25 q-39 -47 -75 -96 l-62 71 q47 64 101 124 q15 17 34 29 q16 10 35 10 q12 0 24 -5 q141 76 274 167 q129 88 245 195 l-616 0 l0 84 l364 0 Z" /><glyph glyph-name="uni4E5F" unicode="&#x4e5f;" d="M548 795 l0 -223 l311 75 q-8 -172 -18 -342 q-2 -30 -12 -58 q-7 -15 -19 -28 q-18 -15 -42 -20 q-31 -7 -62 -6 l-101 0 l-18 81 l86 0 q21 -1 42 2 q14 2 25 11 q7 7 11 17 q5 18 6 37 q5 100 11 201 l-220 -54 l0 -394 l-85 0 l0 373 l-194 -47 l0 -307 q-1 -28 6 -55 q4 -14 13 -25 q15 -14 35 -18 q28 -5 57 -4 l366 0 q29 -1 57 2 q14 2 26 9 q13 8 18 24 q6 21 7 44 q2 52 3 105 l87 -20 l-9 -134 q-2 -30 -13 -57 q-7 -15 -19 -27 q-21 -15 -46 -19 q-36 -6 -72 -6 l-438 0 q-41 0 -80 9 q-30 8 -51 30 q-15 17 -22 37 q-11 37 -10 77 l0 314 l-124 -30 l-16 81 l140 34 l0 200 l85 0 l0 -180 l194 47 l0 244 l85 0 Z" /><glyph glyph-name="uni4E70" unicode="&#x4e70;" d="M69 -27 q88 19 175 44 q66 20 127 50 q36 19 68 44 q36 31 61 72 l-440 0 l0 77 l470 0 q18 82 19 168 q2 98 4 198 l86 0 q-1 -106 -5 -210 q-4 -79 -19 -156 l328 0 l0 -77 l-351 0 q-8 -19 -17 -36 q177 -88 356 -174 l-46 -74 q-178 94 -356 183 q-25 -26 -54 -48 q-45 -31 -94 -53 q-61 -27 -124 -46 q-78 -24 -157 -43 l-31 81 ZM903 739 l0 -79 l-91 -182 l-76 32 l79 151 l-713 0 l0 78 l801 0 ZM157 488 q128 -74 256 -150 l-39 -70 q-128 78 -257 154 l40 66 ZM239 639 q122 -65 243 -132 l-41 -72 q-119 71 -241 137 l39 67 Z" /><glyph glyph-name="uni4E86" unicode="&#x4e86;&#xf9ba;" d="M378 7 q22 -1 44 2 q14 3 25 12 q6 7 9 17 q4 19 4 38 l0 386 l284 184 l-655 0 l0 85 l803 0 l0 -85 l-341 -228 l0 -373 q0 -33 -8 -62 q-8 -24 -27 -39 q-16 -10 -36 -15 q-36 -7 -73 -7 l-141 0 l-16 85 l128 0 Z" /><glyph glyph-name="uni4E8E" unicode="&#x4e8e;" d="M468 427 l0 226 l-344 0 l0 82 l750 0 l0 -82 l-314 0 l0 -226 l386 0 l0 -81 l-386 0 l0 -297 q0 -33 -9 -63 q-9 -24 -29 -39 q-17 -12 -37 -17 q-37 -8 -74 -8 l-139 0 l-17 84 l132 0 q21 -1 43 3 q10 3 20 9 q10 9 14 22 q4 17 4 35 l0 271 l-417 0 l0 81 l417 0 Z" /><glyph glyph-name="uni4E91" unicode="&#x4e91;" d="M95 51 q43 13 76 44 q66 66 122 143 q55 74 102 154 l-334 0 l0 82 l877 0 l0 -82 l-436 0 q-51 -88 -110 -169 q-60 -85 -131 -160 q227 11 456 22 q-73 91 -145 183 l71 49 q135 -166 269 -332 l-72 -56 q-30 38 -59 75 q-27 -2 -54 -3 q-172 -5 -344 -13 q-81 -4 -161 -10 q-52 -3 -102 -12 l-25 85 ZM858 740 l0 -82 l-717 0 l0 82 l717 0 Z" /><glyph glyph-name="uni4E92" unicode="&#x4e92;" d="M272 651 l-186 0 l0 82 l830 0 l0 -82 l-556 0 l-24 -135 l464 0 l-37 -484 l191 0 l0 -82 l-909 0 l0 82 l630 0 l12 141 l-496 0 l81 478 ZM322 433 l-31 -177 l403 0 l15 177 l-387 0 Z" /><glyph glyph-name="uni4E94" unicode="&#x4e94;" d="M329 438 l38 211 l-273 0 l0 82 l819 0 l0 -82 l-457 0 l-38 -211 l380 0 l-15 -391 l166 0 l0 -81 l-898 0 l0 81 l207 0 l56 310 l-199 0 l0 81 l214 0 ZM404 357 l-56 -310 l346 0 l13 310 l-303 0 Z" /><glyph glyph-name="uni4E9B" unicode="&#x4e9b;" d="M398 792 l0 -166 l136 0 l0 -74 l-136 0 l0 -156 q66 10 132 24 l3 -42 l5 -42 q-236 -39 -472 -76 l-13 82 q37 3 75 10 l0 359 l85 0 l0 -346 q51 8 103 17 l0 410 l82 0 ZM646 797 l0 -203 q69 31 136 66 q52 26 101 58 l37 -80 q-59 -35 -121 -64 q-76 -37 -153 -69 l0 -86 q-1 -16 3 -31 q3 -8 8 -14 q8 -8 19 -11 q15 -4 30 -3 l84 0 q16 -1 33 3 q12 2 21 10 q5 7 9 15 q4 16 6 32 q3 46 4 94 l80 -18 q-3 -57 -6 -112 q-2 -26 -11 -49 q-9 -19 -25 -32 q-14 -9 -30 -13 q-27 -7 -55 -6 l-152 0 q-25 -1 -48 6 q-19 7 -33 22 q-13 17 -18 38 q-4 21 -3 42 l0 405 l84 0 ZM934 27 l0 -81 l-866 0 l0 81 l866 0 ZM823 205 l0 -78 l-645 0 l0 78 l645 0 Z" /><glyph glyph-name="uni4EA4" unicode="&#x4ea4;" d="M350 379 q33 -61 75 -116 q33 -43 74 -79 q88 85 141 196 l79 -38 q-59 -119 -152 -212 q72 -48 153 -78 q118 -43 241 -70 l-35 -89 q-134 35 -262 88 q-88 36 -165 92 q-78 -55 -164 -93 q-126 -55 -258 -95 l-39 84 q123 32 241 79 q80 33 153 82 q-42 39 -77 85 q-43 58 -79 122 l74 42 ZM507 807 q33 -64 65 -127 l-43 -11 l403 0 l0 -84 l-865 0 l0 84 l410 0 q-29 56 -59 112 l89 26 ZM625 565 q150 -109 297 -221 l-53 -72 q-146 117 -295 230 l51 63 ZM76 332 q151 98 274 230 l63 -55 q-130 -140 -287 -248 l-50 73 Z" /><glyph glyph-name="uni4EA7" unicode="&#x4ea7;" d="M31 -68 q33 40 60 83 q17 29 29 61 q14 44 19 90 q6 56 6 114 l0 137 l200 0 q-46 78 -93 155 l56 32 l-237 0 l0 81 l407 0 q-23 49 -48 98 l83 30 q29 -56 56 -113 l-52 -15 l433 0 l0 -81 l-237 0 l59 -28 q-44 -82 -92 -159 l247 0 l0 -81 l-699 0 l0 -72 q0 -61 -7 -121 q-7 -51 -22 -100 q-32 -87 -90 -159 l-78 48 ZM354 417 l227 0 q59 90 111 187 l-357 0 q46 -73 90 -146 l-71 -41 Z" /><glyph glyph-name="uni4EAB" unicode="&#x4eab;" d="M846 333 l0 -68 l-276 -99 l381 0 l0 -70 l-400 0 l0 -79 q0 -26 -7 -51 q-7 -20 -24 -33 q-15 -9 -32 -13 q-34 -7 -67 -7 l-135 0 l-15 76 l127 0 q18 0 36 3 q12 2 22 9 q5 6 8 13 q4 15 4 30 l0 52 l-420 0 l0 70 l420 0 l0 22 l219 77 l-559 0 l0 68 l718 0 ZM821 578 l0 -187 l-643 0 l0 187 l643 0 ZM515 806 q27 -50 54 -100 l363 0 l0 -70 l-866 0 l0 70 l403 0 q-22 37 -42 76 l88 24 ZM257 453 l484 0 l0 65 l-484 0 l0 -65 Z" /><glyph glyph-name="uni4EAE" unicode="&#x4eae;&#xf977;" d="M809 581 l0 -187 l-615 0 l0 187 l615 0 ZM50 -30 q66 14 130 35 q30 12 58 30 q26 18 38 48 q10 32 10 66 l0 57 l403 0 l0 -165 q-1 -13 2 -25 q2 -6 6 -10 q7 -6 16 -7 q12 -2 26 -2 l43 0 q15 0 31 3 q8 1 15 5 q8 6 12 16 q4 13 5 27 q3 42 5 86 l79 -17 q-2 -51 -6 -101 q-2 -25 -11 -49 q-7 -14 -18 -24 q-18 -14 -39 -18 q-30 -6 -60 -6 l-83 0 q-28 0 -54 6 q-19 4 -33 17 q-9 11 -14 24 q-6 24 -5 49 l0 120 l-236 0 l0 -32 q-1 -36 -16 -69 q-20 -34 -52 -57 q-48 -31 -101 -50 q-56 -19 -113 -34 l-38 77 ZM910 335 l0 -166 l-83 0 l0 100 l-652 0 l0 -99 l-82 0 l0 165 l817 0 ZM514 819 l53 -99 l-35 -10 l402 0 l0 -70 l-867 0 l0 70 l405 0 l-42 78 l84 31 ZM278 454 l447 0 l0 66 l-447 0 l0 -66 Z" /><glyph glyph-name="uni4EB2" unicode="&#x4eb2;" d="M280 618 l-173 0 l0 78 l367 0 q-25 48 -50 96 l87 21 q29 -59 59 -117 l322 0 l0 -78 l-171 0 l41 -19 q-43 -69 -90 -134 l271 0 l0 -78 l-388 0 l0 -110 l358 0 l0 -77 l-358 0 l0 -172 q0 -28 -7 -56 q-6 -21 -23 -35 q-14 -9 -30 -14 q-31 -6 -63 -6 l-100 0 l-18 83 l88 0 q19 0 38 2 q9 1 16 6 q9 7 10 18 q3 17 3 34 l0 140 l-382 0 l0 77 l382 0 l0 110 l-415 0 l0 78 l272 0 q-44 64 -90 127 l44 26 ZM571 465 q58 73 109 153 l-361 0 q46 -61 90 -123 l-48 -30 l210 0 ZM53 -3 q130 82 241 190 l58 -58 q-53 -52 -111 -98 q-69 -55 -142 -105 l-46 71 ZM680 180 q131 -85 258 -175 l-50 -69 q-126 91 -255 178 l47 66 Z" /><glyph glyph-name="uni4EBA" unicode="&#x4eba;" d="M54 -20 q104 71 193 161 q55 60 98 129 q54 90 79 192 q25 113 26 230 q1 46 2 93 l87 0 q-1 -64 -2 -127 q-1 -17 -1 -32 q17 -186 112 -346 q55 -89 128 -162 q79 -79 171 -142 l-61 -77 q-76 59 -144 125 q-62 61 -114 130 q-84 114 -128 248 q-48 -153 -149 -278 q-56 -67 -121 -125 q-55 -48 -113 -91 l-63 72 Z" /><glyph glyph-name="uni4EC5" unicode="&#x4ec5;" d="M279 -26 q90 54 173 117 q63 48 119 104 q-65 82 -107 178 q-51 117 -76 242 l83 25 q24 -113 68 -219 q37 -84 92 -158 q60 76 99 164 q46 106 69 220 l-438 0 l0 84 l530 0 l0 -83 q-29 -137 -84 -264 q-46 -103 -116 -191 q51 -55 109 -102 q79 -63 164 -117 l-54 -80 q-86 58 -166 123 q-60 50 -113 107 q-58 -58 -122 -108 q-84 -64 -174 -121 l-56 79 ZM30 356 q77 101 134 215 q56 109 94 225 l84 -25 q-36 -106 -83 -207 l0 -665 l-85 0 l0 509 q-48 -75 -104 -143 l-40 91 Z" /><glyph glyph-name="uni4ECE" unicode="&#x4ece;" d="M319 -44 q82 81 150 175 q41 61 71 127 q38 89 53 184 q16 111 19 224 q1 61 2 124 l90 0 q-2 -63 -5 -124 l-5 -73 q5 -80 19 -159 q18 -94 54 -182 q34 -82 84 -156 q53 -74 118 -138 l-67 -64 q-96 100 -162 219 q-57 109 -84 229 q-33 -128 -102 -240 q-72 -113 -167 -209 l-68 63 ZM31 -32 q59 80 108 166 q42 76 67 158 q19 66 29 133 q14 111 17 224 q3 69 4 140 l89 0 q-2 -72 -5 -143 q-3 -67 -7 -133 q92 -127 181 -256 l-69 -57 q-62 94 -126 187 q-18 -118 -65 -227 q-27 -62 -62 -119 q-39 -63 -83 -124 l-78 51 Z" /><glyph glyph-name="uni4ED4" unicode="&#x4ed4;" d="M606 388 l0 109 l180 154 l-392 0 l0 83 l518 0 l0 -82 l-217 -187 l0 -77 l262 0 l0 -84 l-262 0 l0 -273 q0 -30 -8 -57 q-6 -16 -17 -28 q-18 -16 -42 -21 q-33 -7 -67 -7 l-129 0 l-17 84 l117 0 q19 -1 39 3 q10 2 18 7 q10 7 13 19 q4 15 4 32 l0 241 l-293 0 l0 84 l293 0 ZM30 349 q79 104 139 221 q56 108 95 225 l83 -21 q-41 -118 -95 -229 l0 -643 l-85 0 l0 491 q-42 -65 -89 -125 l-48 81 Z" /><glyph glyph-name="uni4ED6" unicode="&#x4ed6;" d="M661 793 l0 -228 l223 69 l-11 -350 q-2 -27 -10 -51 q-7 -14 -17 -25 q-17 -13 -38 -18 q-29 -6 -58 -5 l-55 0 l-17 79 l47 0 q19 -1 37 2 q9 1 17 6 q8 6 11 16 q3 15 4 31 l8 208 l-141 -44 l0 -390 l-79 0 l0 366 l-130 -40 l0 -335 q-1 -21 3 -41 q4 -15 15 -24 q10 -7 22 -10 q24 -4 49 -3 l220 0 q27 -1 54 3 q13 2 24 8 q12 8 17 21 q4 18 5 37 l3 103 l82 -16 q-1 -63 -5 -124 q-2 -29 -11 -55 q-9 -21 -28 -34 q-16 -9 -35 -14 q-35 -6 -71 -6 l-284 0 q-35 0 -68 8 q-26 6 -44 24 q-13 15 -19 33 q-9 32 -8 66 l0 334 l-85 -26 l-19 78 l104 32 l0 215 l79 0 l0 -191 l130 39 l0 252 l79 0 ZM31 353 q75 96 128 207 q54 108 91 223 l79 -18 q-35 -104 -80 -203 l0 -659 l-79 0 l0 511 q-44 -72 -95 -139 l-44 78 Z" /><glyph glyph-name="uni4ED8" unicode="&#x4ed8;" d="M628 1 q21 -1 42 3 q11 2 20 8 q10 8 13 20 q4 16 4 33 l0 446 l-386 0 l0 85 l386 0 l0 190 l88 0 l0 -190 l157 0 l0 -85 l-157 0 l0 -473 q0 -32 -9 -61 q-6 -18 -19 -31 q-19 -18 -45 -24 q-35 -8 -71 -8 l-130 0 l-18 87 l125 0 ZM26 346 q77 100 134 214 q57 112 97 231 l87 -22 q-36 -102 -79 -199 l0 -663 l-87 0 l0 499 q-44 -72 -96 -137 l-56 77 ZM441 446 q83 -116 163 -234 l-73 -49 q-79 119 -160 237 l70 46 Z" /><glyph glyph-name="uni4EE5" unicode="&#x4ee5;" d="M348 -27 q54 27 107 59 q44 28 85 60 q52 43 93 96 q48 69 71 150 q24 94 31 192 q6 119 6 239 l84 0 q2 -124 -4 -246 q-7 -90 -24 -178 q-14 -65 -40 -126 q104 -113 207 -226 l-69 -65 q-91 106 -184 210 q-48 -65 -112 -115 q-94 -70 -198 -125 l-53 75 ZM84 26 q15 14 26 31 q9 16 9 34 l0 655 l86 0 l0 -617 q128 100 256 203 l52 -71 q-151 -119 -300 -239 q-37 -30 -71 -64 l-58 68 ZM402 788 q84 -133 165 -267 l-73 -43 q-78 134 -160 267 l68 43 Z" /><glyph glyph-name="uni4EEA" unicode="&#x4eea;" d="M426 698 q27 -139 84 -268 q47 -105 120 -193 q68 84 106 186 q25 66 42 134 q19 81 33 163 l85 -19 q-18 -90 -42 -179 q-20 -75 -49 -147 q-43 -110 -117 -202 q123 -121 276 -200 l-46 -80 q-88 51 -168 110 q-64 49 -120 106 q-57 -54 -122 -99 q-87 -59 -180 -111 l-49 75 q90 49 175 107 q62 42 117 94 q-78 94 -129 204 q-64 141 -96 293 l80 26 ZM24 346 q76 87 129 190 q64 124 103 259 l86 -24 q-36 -118 -86 -230 l0 -638 l-84 0 l0 484 q-46 -70 -98 -133 l-50 92 ZM586 793 q59 -110 115 -221 l-79 -41 q-53 113 -111 223 l75 39 Z" /><glyph glyph-name="uni4EEC" unicode="&#x4eec;" d="M904 734 l0 -684 q0 -37 -8 -71 q-6 -19 -17 -33 q-18 -18 -43 -24 q-34 -6 -68 -6 l-114 0 l-16 78 l105 0 q22 0 43 4 q11 2 20 8 q11 9 14 23 q4 21 4 42 l0 584 l-244 0 l0 79 l324 0 ZM30 358 q62 89 108 188 q58 122 98 253 l78 -21 q-32 -104 -75 -203 l0 -669 l-79 0 l0 510 q-40 -71 -86 -136 l-44 78 ZM438 613 l0 -701 l-81 0 l0 701 l81 0 ZM433 802 q67 -75 133 -151 l-60 -55 q-63 79 -130 155 l57 51 Z" /><glyph glyph-name="uni4EF6" unicode="&#x4ef6;" d="M697 798 l0 -205 l225 0 l0 -81 l-225 0 l0 -225 l261 0 l0 -81 l-261 0 l0 -306 l-83 0 l0 306 l-306 0 l0 81 l306 0 l0 225 l-154 0 q-27 -84 -61 -165 l-88 30 q80 179 124 372 l83 -23 q-15 -67 -33 -133 l129 0 l0 205 l83 0 ZM26 344 q73 106 126 223 q51 112 86 230 l86 -25 q-29 -100 -69 -195 l0 -675 l-85 0 l0 505 q-47 -81 -105 -152 l-39 89 Z" /><glyph glyph-name="uni4EFB" unicode="&#x4efb;" d="M590 38 l0 279 l-279 0 l0 85 l279 0 l0 229 q-117 -12 -233 -19 l-8 83 q148 8 296 26 q125 15 248 41 l19 -83 q-117 -25 -235 -38 l0 -239 l278 0 l0 -85 l-278 0 l0 -279 l250 0 l0 -84 l-590 0 l0 84 l253 0 ZM30 357 q76 98 132 210 q56 110 95 227 l82 -24 q-35 -104 -81 -203 l0 -660 l-86 0 l0 504 q-47 -73 -101 -139 l-41 85 Z" /><glyph glyph-name="uni4F01" unicode="&#x4f01;" d="M560 530 l0 -208 l284 0 l0 -84 l-284 0 l0 -213 l378 0 l0 -83 l-890 0 l0 83 l143 0 l0 354 l84 0 l0 -354 l200 0 l0 505 l85 0 ZM30 444 q126 66 237 154 q111 86 195 198 l77 0 q84 -113 195 -201 q110 -87 235 -151 l-48 -80 q-119 65 -225 149 q-57 46 -110 98 q-46 45 -85 96 q-39 -50 -85 -94 q-52 -50 -110 -96 q-108 -86 -228 -153 l-48 80 Z" /><glyph glyph-name="uni4F17" unicode="&#x4f17;" d="M47 455 q141 65 262 163 q90 73 154 170 l77 0 q65 -98 157 -173 q118 -96 257 -160 l-46 -81 q-118 58 -223 138 q-104 80 -183 184 q-96 -125 -226 -213 l82 0 q-3 -47 -6 -92 l-4 -38 q82 -88 164 -176 l-64 -61 q-59 68 -119 135 q-23 -88 -69 -165 q-61 -99 -143 -182 l-74 59 q54 51 102 109 q39 50 68 107 q19 41 32 85 q16 65 21 132 q2 42 5 84 q-86 -60 -178 -106 l-46 81 ZM343 -44 q64 50 121 109 q35 38 64 80 q34 54 54 114 q18 64 23 131 q3 46 5 93 l87 0 l-6 -96 q-2 -11 -2 -21 q18 -110 77 -204 q36 -54 82 -100 q52 -50 111 -90 l-59 -69 q-88 65 -157 148 q-56 71 -89 155 q-31 -82 -83 -151 q-71 -89 -159 -163 l-69 64 Z" /><glyph glyph-name="uni4F1A" unicode="&#x4f1a;" d="M41 470 q124 57 233 139 q108 81 189 190 l79 0 q80 -108 187 -187 q109 -81 232 -138 l-39 -79 q-77 36 -148 83 l0 -64 l-544 0 l0 62 q-73 -47 -150 -84 l-39 78 ZM135 9 q35 11 64 36 q91 76 164 171 l-286 0 l0 78 l848 0 l0 -78 l-453 0 q-80 -105 -177 -192 q196 5 393 14 q-47 51 -92 104 l65 51 q107 -118 213 -237 l-64 -58 l-57 66 q-255 -7 -509 -21 q-46 -3 -91 -10 l-18 76 ZM502 714 q-53 -67 -117 -122 q-65 -56 -135 -102 l506 0 q-81 53 -153 116 q-55 50 -101 108 Z" /><glyph glyph-name="uni4F20" unicode="&#x4f20;" d="M484 477 q15 54 28 109 l-155 0 l0 77 l173 0 q14 70 26 141 l84 -10 q-12 -66 -25 -131 l304 0 l0 -77 l-321 0 q-13 -55 -27 -109 l385 0 l0 -77 l-406 0 q-15 -50 -32 -98 l355 0 l0 -74 q-71 -101 -143 -199 q72 -31 145 -65 l-35 -77 q-230 110 -461 213 l32 70 l244 -108 q60 81 118 165 l-346 0 l0 69 q18 51 35 104 l-159 0 l0 77 l181 0 ZM29 360 q74 99 130 210 q56 110 97 227 l81 -20 q-36 -107 -83 -208 l0 -668 l-81 0 l0 519 q-48 -76 -104 -145 l-40 85 Z" /><glyph glyph-name="uni4F4D" unicode="&#x4f4d;" d="M18 350 q78 103 134 220 q54 111 91 230 l87 -20 q-35 -107 -80 -208 l0 -662 l-83 0 l0 507 q-46 -74 -100 -140 l-49 73 ZM629 28 q80 241 146 487 l84 -26 q-70 -232 -145 -461 l237 0 l0 -79 l-654 0 l0 79 l332 0 ZM597 637 q-29 76 -62 152 l87 21 q33 -78 64 -156 l-65 -17 l311 0 l0 -80 l-606 0 l0 80 l271 0 ZM465 509 q59 -197 115 -394 l-80 -22 l-115 394 l80 22 Z" /><glyph glyph-name="uni4F4E" unicode="&#x4f4e;" d="M344 22 q14 11 24 26 q6 14 6 30 l0 627 q258 15 512 65 l19 -81 q-92 -20 -184 -33 q1 -111 10 -221 l210 0 l0 -80 l-203 0 q8 -76 22 -150 q12 -65 36 -127 q8 -23 22 -42 q6 -8 13 -14 q5 -5 11 -5 q11 1 16 13 q8 19 12 39 q10 48 17 97 l68 -25 q-11 -65 -26 -128 q-10 -38 -33 -70 q-22 -24 -54 -25 q-19 1 -34 10 q-20 11 -34 28 q-37 47 -56 104 q-22 59 -34 121 q-18 86 -26 174 l-201 0 l0 -262 q84 59 171 115 l25 -78 l-216 -141 l-48 -33 l-45 66 ZM24 360 q67 88 117 187 q63 124 105 257 l83 -24 q-35 -111 -84 -216 l0 -661 l-82 0 l0 510 q-46 -72 -100 -137 l-39 84 ZM457 435 l193 0 q-8 104 -10 210 q-92 -12 -183 -19 l0 -191 ZM578 61 l102 -123 l-59 -44 q-51 64 -104 125 l61 42 Z" /><glyph glyph-name="uni4F4F" unicode="&#x4f4f;" d="M612 816 q42 -75 84 -150 l-72 -35 l301 0 l0 -80 l-263 0 l0 -207 l230 0 l0 -82 l-230 0 l0 -237 l286 0 l0 -81 l-650 0 l0 81 l278 0 l0 237 l-231 0 l0 82 l231 0 l0 207 l-255 0 l0 80 l293 0 q-37 74 -77 147 l75 38 ZM24 350 q74 101 129 215 q53 110 91 226 l83 -28 q-37 -106 -82 -208 l0 -649 l-82 0 l0 494 q-41 -67 -89 -128 l-50 78 Z" /><glyph glyph-name="uni4F53" unicode="&#x4f53;" d="M562 143 l0 318 q-48 -118 -121 -221 q-70 -98 -156 -182 l-43 60 l0 -212 l-82 0 l0 491 q-44 -73 -95 -138 l-39 91 q72 101 123 214 q52 110 87 228 l87 -16 q-34 -113 -81 -220 l0 -410 q184 169 280 401 l-220 0 l0 84 l260 0 l0 165 l84 0 l0 -165 l286 0 l0 -84 l-248 0 q99 -236 293 -403 l-55 -82 q-179 167 -276 392 l0 -311 l164 0 l0 -78 l-164 0 l0 -165 l-84 0 l0 165 l-166 0 l0 78 l166 0 Z" /><glyph glyph-name="uni4F5C" unicode="&#x4f5c;" d="M285 416 q64 76 113 163 q59 105 99 220 l82 -23 q-22 -62 -48 -121 l406 0 l0 -84 l-308 0 l0 -149 l258 0 l0 -84 l-258 0 l0 -151 l280 0 l0 -83 l-280 0 l0 -205 l-85 0 l0 672 l-53 0 q-62 -118 -148 -218 l-58 63 ZM23 357 q76 96 132 206 q56 108 95 223 l86 -25 q-35 -103 -82 -201 l0 -655 l-86 0 l0 503 q-45 -67 -96 -128 l-49 77 Z" /><glyph glyph-name="uni4F60" unicode="&#x4f60;" d="M26 356 q139 199 207 433 l85 -19 q-33 -105 -77 -204 l0 -662 l-83 0 l0 505 q-39 -63 -83 -121 l-49 68 ZM295 433 q119 166 183 362 l84 -16 q-19 -57 -43 -112 l412 0 l0 -79 l-85 -162 l-79 27 l72 135 l-357 0 q-52 -104 -116 -199 l-71 44 ZM526 -4 q16 0 33 3 q11 1 20 8 q6 5 8 12 q4 14 4 28 l0 466 l81 0 l0 -496 q0 -25 -7 -50 q-7 -19 -23 -32 q-13 -9 -29 -13 q-28 -7 -57 -7 l-106 0 l-17 81 l93 0 ZM261 20 q105 164 168 350 l75 -21 q-28 -89 -67 -173 q-44 -98 -99 -189 l-77 33 ZM803 371 q84 -176 165 -352 l-75 -34 q-79 177 -162 353 l72 33 Z" /><glyph glyph-name="uni4F7F" unicode="&#x4f7f;" d="M580 510 l0 92 l-275 0 l0 75 l275 0 l0 117 l80 0 l0 -117 l279 0 l0 -75 l-279 0 l0 -92 l240 0 l0 -263 l-240 0 q-1 -53 -13 -105 q-10 -38 -29 -72 q78 -34 163 -52 q91 -18 185 -27 l-23 -82 q-115 15 -226 44 q-79 21 -153 56 q-46 -35 -99 -58 q-81 -35 -167 -58 l-40 78 q72 18 143 43 q45 16 85 42 q-84 59 -141 145 l57 46 l-65 0 l0 263 l243 0 ZM25 351 q60 86 103 183 q57 127 96 261 l81 -21 q-30 -110 -73 -214 l0 -663 l-80 0 l0 503 q-37 -62 -79 -120 l-48 71 ZM415 322 l165 0 l0 116 l-165 0 l0 -116 ZM660 438 l0 -116 l161 0 l0 116 l-161 0 ZM544 110 q17 26 25 56 q10 40 11 81 l-176 0 q56 -83 140 -137 Z" /><glyph glyph-name="uni4F9B" unicode="&#x4f9b;" d="M436 610 l0 185 l84 0 l0 -185 l195 0 l0 185 l84 0 l0 -185 l123 0 l0 -79 l-123 0 l0 -240 l146 0 l0 -81 l-659 0 l0 81 l150 0 l0 240 l-113 0 l0 79 l113 0 ZM21 370 q64 84 112 179 q62 124 103 257 l82 -26 q-34 -107 -79 -208 l0 -665 l-85 0 l0 507 q-44 -68 -93 -131 l-40 87 ZM520 291 l195 0 l0 240 l-195 0 l0 -240 ZM284 -34 q121 95 222 214 l63 -53 q-107 -121 -230 -223 l-55 62 ZM723 178 q109 -104 215 -211 l-60 -60 q-104 109 -212 215 l57 56 Z" /><glyph glyph-name="uni4FDD" unicode="&#x4fdd;" d="M876 745 l0 -315 l-504 0 l0 315 l504 0 ZM261 19 q98 46 184 113 q64 52 113 120 l-249 0 l0 74 l276 0 l0 86 l79 0 l0 -86 l278 0 l0 -74 l-259 0 q49 -64 113 -115 q81 -63 174 -107 l-46 -75 q-73 41 -139 92 q-67 54 -121 122 l0 -264 l-79 0 l0 266 q-50 -63 -111 -113 q-78 -63 -167 -111 l-46 72 ZM26 353 q71 101 124 213 q52 108 86 223 l83 -21 q-33 -108 -77 -210 l0 -657 l-79 0 l0 505 q-40 -67 -87 -126 l-50 73 ZM456 508 l337 0 l0 159 l-337 0 l0 -159 Z" /><glyph glyph-name="uni4FE1" unicode="&#x4fe1;" d="M878 235 l0 -330 l-83 0 l0 52 l-352 0 l0 -53 l-84 0 l0 331 l519 0 ZM28 363 q73 100 124 215 q49 105 80 217 l82 -22 q-30 -107 -73 -208 l0 -663 l-81 0 l0 504 q-37 -61 -80 -117 l-52 74 ZM634 803 q31 -60 61 -120 l260 0 l0 -78 l-648 0 l0 78 l294 0 q-25 49 -51 97 l84 23 ZM443 30 l352 0 l0 130 l-352 0 l0 -130 ZM875 382 l0 -72 l-513 0 l0 72 l513 0 ZM875 528 l0 -70 l-513 0 l0 70 l513 0 Z" /><glyph glyph-name="uni4FEE" unicode="&#x4fee;" d="M366 68 l-70 0 l0 591 l70 0 l0 -110 q126 107 200 256 l72 -26 q-15 -30 -31 -59 l284 0 l0 -65 q-59 -98 -150 -166 q108 -52 227 -77 l-28 -72 q-81 21 -159 51 q-57 22 -109 53 q-132 -72 -275 -113 l-31 70 l0 -333 ZM20 341 q70 107 121 226 q49 111 81 228 l74 -17 q-33 -122 -80 -237 l0 -641 l-73 0 l0 490 q-31 -54 -66 -105 l-57 56 ZM359 -39 q142 35 278 90 q141 58 266 145 l40 -55 q-107 -81 -228 -135 q-158 -69 -325 -111 l-31 66 ZM404 106 q222 65 416 194 l40 -56 q-99 -69 -209 -119 q-103 -48 -212 -80 l-35 61 ZM421 255 q171 52 323 147 l35 -60 q-154 -97 -326 -154 l-32 67 ZM366 401 q123 33 239 89 q-54 40 -96 93 q-45 -51 -96 -94 l-47 60 l0 -148 ZM564 653 q-5 -7 -10 -13 q49 -66 118 -111 q75 49 125 124 l-233 0 Z" /><glyph glyph-name="uni500D" unicode="&#x500d;" d="M876 257 l0 -360 l-84 0 l0 51 l-322 0 l0 -51 l-86 0 l0 360 l492 0 ZM25 350 q75 98 130 210 q53 111 90 229 l85 -23 q-36 -104 -82 -203 l0 -665 l-83 0 l0 507 q-38 -62 -80 -120 l-60 65 ZM493 605 q42 -69 81 -140 l-67 -33 l167 0 q53 81 93 171 l79 -30 q-36 -72 -77 -141 l187 0 l0 -79 l-646 0 l0 79 l187 0 q-36 69 -79 134 l75 39 ZM634 816 q33 -60 64 -121 l-27 -12 l251 0 l0 -77 l-568 0 l0 77 l254 0 q-26 49 -53 97 l79 36 ZM470 23 l322 0 l0 159 l-322 0 l0 -159 Z" /><glyph glyph-name="uni505A" unicode="&#x505a;" d="M386 618 l0 175 l77 0 l0 -175 l125 0 l0 -77 l-125 0 l0 -170 l95 0 l0 -368 q83 70 145 161 q-56 116 -76 244 q-16 -27 -33 -52 l-53 61 q55 93 92 195 q34 91 51 188 l76 -13 q-15 -79 -37 -154 l236 0 l0 -78 l-69 0 q-10 -117 -37 -230 q-22 -85 -62 -162 q73 -112 178 -196 l-52 -69 q-99 85 -171 193 q-35 -48 -75 -91 q-53 -54 -111 -105 l-53 66 l36 30 l-253 0 l0 380 l96 0 l0 170 l-126 0 l0 77 l126 0 ZM23 372 q113 199 167 422 l80 -21 q-26 -99 -60 -194 l0 -676 l-77 0 l0 501 q-29 -56 -63 -108 l-47 76 ZM361 68 l126 0 l0 226 l-126 0 l0 -226 ZM678 508 q7 -77 27 -151 q15 -59 42 -115 q28 62 43 129 q21 91 29 184 l-122 0 l-19 -47 Z" /><glyph glyph-name="uni50A8" unicode="&#x50a8;" d="M628 496 l0 119 l-120 0 l0 69 l120 0 l0 112 l72 0 l0 -112 l112 0 l0 -69 l-112 0 l0 -119 l40 0 q85 109 135 239 l70 -27 q-47 -112 -114 -212 l124 0 l0 -71 l-179 0 q-41 -49 -88 -90 l199 0 l0 -425 l-71 0 l0 47 l-192 0 l0 -47 l-70 0 l0 320 q-39 -27 -78 -51 l-34 68 q128 73 234 178 l-209 0 l0 71 l161 0 ZM23 347 q64 92 109 196 q54 122 87 251 l80 -17 q-29 -111 -71 -217 l0 -656 l-75 0 l0 496 q-36 -66 -80 -126 l-50 73 ZM419 500 l0 -412 q42 31 83 66 l22 -79 q-63 -48 -123 -97 q-20 -14 -37 -33 l-50 62 q28 22 30 58 l0 356 l-83 0 l0 79 l158 0 ZM624 24 l192 0 l0 91 l-192 0 l0 -91 ZM624 181 l192 0 l0 87 l-192 0 l0 -87 ZM376 773 q53 -86 105 -171 l-66 -40 q-49 88 -101 174 l62 37 Z" /><glyph glyph-name="uni50CF" unicode="&#x50cf;" d="M265 569 q77 51 142 117 q56 55 98 121 l77 -24 q-16 -29 -35 -55 l260 0 l0 -62 l-77 -78 l167 0 l0 -204 l-280 0 q-12 -17 -25 -32 q37 -47 65 -100 q104 55 203 122 l40 -60 q-58 -38 -117 -71 q55 -145 181 -235 l-51 -57 q-67 50 -115 118 q-44 67 -70 144 l-46 -25 q16 -66 16 -134 q0 -36 -9 -69 q-7 -19 -20 -35 q-19 -20 -45 -27 q-34 -9 -68 -9 l-101 0 l-13 67 l98 0 q21 0 41 5 q16 5 26 16 q7 11 11 24 q5 25 5 50 q0 24 -3 48 q-67 -60 -145 -105 q-93 -52 -191 -91 l-33 63 q105 36 202 89 q82 46 153 109 q-7 19 -15 38 q-62 -47 -131 -83 q-82 -43 -168 -77 l-29 60 q91 31 178 75 q63 32 120 75 l-22 31 q-46 -29 -96 -49 q-73 -28 -148 -50 l-27 64 q85 22 167 55 q50 20 92 56 l-179 0 l0 148 q-23 -17 -46 -32 l-37 69 ZM15 336 q65 93 113 198 q57 124 94 257 l81 -19 q-30 -105 -70 -205 l0 -668 l-79 0 l0 504 q-40 -70 -87 -134 l-52 67 ZM497 664 q-37 -42 -78 -76 l220 0 l75 76 l-217 0 ZM661 529 q-4 -44 -17 -86 l179 0 l0 86 l-162 0 ZM422 443 l150 0 q16 41 21 86 l-171 0 l0 -86 Z" /><glyph glyph-name="uni513F" unicode="&#x513f;" d="M654 779 l0 -693 q-1 -19 3 -37 q3 -10 9 -18 q8 -9 20 -12 q17 -4 35 -3 l53 0 q20 -1 40 3 q10 2 19 8 q10 8 14 21 q5 18 6 37 q4 74 5 149 l82 -16 q-2 -82 -6 -163 q-2 -33 -12 -62 q-7 -18 -20 -31 q-20 -17 -46 -23 q-35 -7 -71 -7 l-78 0 q-36 0 -70 8 q-26 6 -45 25 q-13 15 -19 34 q-9 34 -8 71 l0 709 l89 0 ZM33 -41 q66 45 124 102 q33 35 58 77 q30 60 39 127 q11 88 11 177 l0 338 l86 0 l0 -338 q0 -102 -13 -203 q-9 -59 -29 -114 q-28 -68 -77 -124 q-61 -62 -131 -115 l-68 73 Z" /><glyph glyph-name="uni5145" unicode="&#x5145;&#xfa74;" d="M101 378 q37 7 68 31 q99 86 188 185 l-296 0 l0 83 l414 0 q-31 56 -63 112 l77 32 q37 -64 73 -127 l-48 -17 l410 0 l0 -83 l-456 0 q-96 -110 -203 -206 q218 5 436 14 l-104 114 l64 54 q118 -123 233 -249 l-66 -61 l-58 64 l-132 -4 l0 -259 q-1 -16 3 -30 q3 -11 12 -18 q8 -6 17 -8 q18 -3 36 -2 l65 0 q20 -1 40 2 q10 2 19 7 q9 7 13 18 q5 14 6 29 q3 58 4 117 l83 -16 q-2 -61 -5 -121 q-2 -29 -12 -55 q-10 -22 -29 -36 q-17 -11 -36 -16 q-36 -8 -72 -8 l-107 0 q-31 0 -61 7 q-23 5 -39 22 q-12 13 -17 29 q-8 29 -7 61 l0 274 q-75 -2 -149 -5 l-3 -42 q-5 -70 -26 -137 q-16 -42 -42 -79 q-40 -52 -94 -87 q-71 -46 -147 -81 l-49 77 q66 29 128 66 q46 29 81 70 q22 30 36 64 q18 53 24 110 l3 36 q-38 -2 -75 -3 q-59 -2 -117 -10 l-20 82 Z" /><glyph glyph-name="uni5148" unicode="&#x5148;" d="M65 -28 q67 28 130 66 q46 29 79 71 q21 31 33 66 q16 56 19 115 q-1 9 1 19 l-274 0 l0 79 l421 0 l0 173 l-217 0 q-39 -82 -88 -157 l-79 39 q49 66 84 141 q42 89 70 183 l84 -19 q-17 -55 -37 -108 l183 0 l0 158 l85 0 l0 -158 l336 0 l0 -79 l-336 0 l0 -173 l384 0 l0 -79 l-285 0 l0 -237 q-1 -17 3 -33 q3 -12 13 -21 q7 -5 16 -8 q17 -4 35 -3 l52 0 q21 -1 41 3 q10 3 19 9 q10 8 15 20 q4 15 6 31 q2 56 3 113 l81 -17 q-2 -63 -5 -124 q-2 -32 -12 -60 q-7 -17 -20 -29 q-19 -16 -45 -21 q-35 -6 -71 -6 l-95 0 q-32 0 -63 7 q-22 5 -38 22 q-10 13 -15 29 q-7 29 -6 61 l0 264 l-156 0 q-2 -10 -2 -20 q-5 -73 -25 -143 q-15 -43 -39 -82 q-37 -52 -89 -89 q-68 -47 -142 -84 l-54 81 Z" /><glyph glyph-name="uni5149" unicode="&#x5149;" d="M38 -31 q69 31 133 72 q48 32 82 79 q22 34 34 73 q16 64 18 130 q-1 9 1 18 l-247 0 l0 84 l395 0 l0 368 l88 0 l0 -368 l395 0 l0 -84 l-294 0 l0 -263 q-1 -17 3 -33 q3 -9 9 -16 q9 -8 21 -11 q17 -4 35 -3 l61 0 q20 -1 40 2 q14 3 24 11 q6 7 10 15 q4 17 5 34 q2 58 1 118 l83 -15 q-1 -66 -4 -131 q-2 -33 -12 -63 q-7 -17 -19 -30 q-20 -17 -45 -22 q-36 -7 -71 -7 l-104 0 q-32 0 -63 7 q-23 7 -39 24 q-11 14 -16 31 q-8 30 -7 63 l0 289 l-159 0 q-2 -10 -2 -20 q-4 -77 -22 -151 q-17 -62 -54 -114 q-31 -40 -70 -71 q-67 -51 -142 -89 l-68 73 ZM627 512 q95 106 179 223 l70 -50 q-87 -117 -181 -226 l-68 53 ZM186 732 q94 -107 182 -219 l-71 -52 q-86 112 -177 221 l66 50 Z" /><glyph glyph-name="uni5154" unicode="&#x5154;" d="M39 509 q181 121 300 305 l79 -31 q-18 -30 -37 -57 l373 0 l0 -73 l-114 -109 l224 0 l0 -304 l-188 0 q70 -60 138 -122 l-56 -60 q-65 65 -134 125 l52 57 l-98 0 l0 -175 q-1 -16 3 -31 q2 -9 8 -15 q9 -8 20 -11 q17 -3 34 -2 l134 0 q20 -1 40 2 q13 2 24 10 q6 7 9 15 q5 15 5 32 q0 55 3 111 l79 -19 q-2 -67 -5 -132 q-2 -25 -11 -47 q-9 -19 -26 -30 q-15 -9 -32 -13 q-31 -6 -62 -6 l-185 0 q-30 0 -59 6 q-22 6 -38 21 q-11 12 -16 27 q-8 27 -7 56 l0 191 q-44 -106 -131 -181 q-57 -47 -122 -82 q-78 -42 -160 -75 l-40 82 q73 27 143 62 q56 28 107 66 q74 55 116 138 l-267 0 l0 236 q-32 -25 -64 -46 l-39 79 ZM544 467 q-5 -75 -21 -148 l257 0 l0 148 l-236 0 ZM226 319 l211 0 q17 72 20 148 l-231 0 l0 -148 ZM324 651 q-47 -58 -101 -107 l298 0 l115 107 l-312 0 Z" /><glyph glyph-name="uni5168" unicode="&#x5168;&#xfa72;" d="M35 461 q128 59 243 142 q107 80 183 190 l77 0 q67 -98 160 -172 q122 -97 265 -161 l-44 -76 q-57 27 -110 59 l0 -53 l-265 0 l0 -138 l292 0 l0 -80 l-292 0 l0 -153 l381 0 l0 -79 l-850 0 l0 79 l380 0 l0 153 l-291 0 l0 80 l291 0 l0 138 l-264 0 l0 55 q-57 -33 -115 -62 l-41 78 ZM501 706 q-48 -63 -107 -115 q-77 -68 -163 -121 l535 0 q-85 53 -160 121 q-58 52 -105 115 Z" /><glyph glyph-name="uni5173" unicode="&#x5173;" d="M334 607 q-60 77 -122 154 l72 47 q65 -80 130 -161 l-62 -40 l192 0 q85 101 160 210 l80 -47 q-64 -83 -130 -163 l222 0 l0 -82 l-338 0 l0 -164 l0 -3 l387 0 l0 -84 l-379 0 q21 -56 59 -102 q41 -49 93 -85 q60 -41 127 -67 q58 -22 118 -38 l-42 -86 q-75 22 -145 54 q-63 30 -119 71 q-90 68 -143 167 q-27 -49 -65 -89 q-44 -46 -95 -82 q-113 -75 -241 -123 l-45 82 q69 25 137 57 q69 34 131 79 q45 35 80 80 q27 38 41 82 l-374 0 l0 84 l385 0 l0 167 l-338 0 l0 82 l224 0 Z" /><glyph glyph-name="uni5174" unicode="&#x5174;" d="M947 354 l0 -84 l-896 0 l0 84 l896 0 ZM637 225 q149 -121 289 -252 l-65 -68 q-139 133 -287 256 l63 64 ZM65 -27 q155 112 285 253 l64 -62 q-134 -144 -289 -263 l-60 72 ZM189 740 q82 -154 162 -309 l-80 -41 q-76 158 -160 312 l78 38 ZM649 427 q88 153 160 315 l79 -37 q-79 -164 -167 -321 l-72 43 ZM483 776 q51 -165 96 -331 l-87 -20 q-42 166 -93 330 l84 21 Z" /><glyph glyph-name="uni5176" unicode="&#x5176;" d="M219 205 l0 412 l-145 0 l0 75 l145 0 l0 101 l84 0 l0 -101 l393 0 l0 101 l84 0 l0 -101 l145 0 l0 -75 l-145 0 l0 -412 l176 0 l0 -76 l-913 0 l0 76 l176 0 ZM303 205 l393 0 l0 89 l-393 0 l0 -89 ZM303 528 l393 0 l0 89 l-393 0 l0 -89 ZM303 367 l393 0 l0 88 l-393 0 l0 -88 ZM610 109 q159 -69 317 -143 l-38 -72 q-154 79 -313 145 l34 70 ZM67 -35 q162 59 311 147 l38 -70 q-154 -83 -315 -152 l-34 75 Z" /><glyph glyph-name="uni5177" unicode="&#x5177;" d="M58 -33 q167 56 317 150 l-330 0 l0 75 l144 0 l0 560 l621 0 l0 -560 l143 0 l0 -75 l-573 0 l42 -64 q-160 -92 -332 -159 l-32 73 ZM273 192 l452 0 l0 71 l-452 0 l0 -71 ZM273 471 l452 0 l0 70 l-452 0 l0 -70 ZM273 610 l452 0 l0 69 l-452 0 l0 -69 ZM273 332 l452 0 l0 69 l-452 0 l0 -69 ZM605 112 q163 -67 327 -135 l-37 -75 q-161 76 -324 141 l34 69 Z" /><glyph glyph-name="uni5185" unicode="&#x5185;" d="M211 181 q65 46 124 101 q33 33 60 72 q31 46 46 98 q14 56 15 114 l-253 0 l0 -659 l-85 0 l0 740 l339 0 l0 146 l86 0 l0 -146 l338 0 l0 -610 q0 -33 -7 -63 q-5 -17 -17 -30 q-17 -17 -41 -22 q-35 -6 -70 -6 l-130 0 l-17 83 l120 0 q21 0 42 2 q10 2 19 8 q10 8 13 20 q4 17 4 36 l0 501 l-254 0 q-2 -63 -15 -123 q129 -124 257 -250 l-61 -66 q-112 117 -226 231 q-32 -64 -80 -116 q-69 -74 -151 -132 l-56 71 Z" /><glyph glyph-name="uni518C" unicode="&#x518c;" d="M51 -65 q30 42 55 87 q22 42 34 88 q9 40 14 81 q7 71 8 144 l-119 0 l0 80 l120 0 l0 331 l291 0 l0 -331 l92 0 l0 331 l301 0 l0 -331 l110 0 l0 -80 l-110 0 l0 -310 q0 -28 -7 -56 q-4 -15 -14 -27 q-16 -15 -37 -20 q-31 -6 -61 -6 l-91 0 l-17 82 l83 0 q17 0 35 2 q9 2 16 7 q8 7 11 18 q3 15 3 31 l0 279 l-142 0 q-1 -78 -7 -155 q-5 -45 -14 -89 q-11 -51 -32 -98 q-24 -52 -54 -100 l-79 41 q29 43 52 88 q21 43 32 89 q9 40 13 80 q7 72 8 144 l-91 0 l0 -293 q0 -30 -8 -57 q-5 -16 -16 -29 q-17 -16 -39 -22 q-30 -7 -61 -7 l-86 0 l-15 77 l81 0 q16 -1 32 3 q9 2 17 7 q8 7 12 17 q4 14 4 29 l0 275 l-133 0 q-1 -78 -7 -156 q-5 -45 -14 -89 q-13 -51 -35 -98 q-26 -51 -57 -99 l-78 42 ZM626 415 l142 0 l0 252 l-142 0 l0 -252 ZM242 415 l133 0 l0 252 l-133 0 l0 -252 Z" /><glyph glyph-name="uni518D" unicode="&#x518d;" d="M164 208 l0 361 l294 0 l0 94 l-382 0 l0 75 l850 0 l0 -75 l-384 0 l0 -94 l295 0 l0 -361 l119 0 l0 -77 l-119 0 l0 -99 q0 -32 -8 -61 q-6 -17 -18 -30 q-19 -16 -43 -21 q-36 -7 -71 -7 l-114 0 l-16 82 l105 0 q21 0 43 3 q11 2 20 7 q10 8 14 20 q4 17 4 35 l0 71 l-505 0 l0 -227 l-84 0 l0 227 l-120 0 l0 77 l120 0 ZM542 208 l211 0 l0 108 l-211 0 l0 -108 ZM248 208 l210 0 l0 108 l-210 0 l0 -108 ZM542 495 l0 -105 l211 0 l0 105 l-211 0 ZM248 390 l210 0 l0 105 l-210 0 l0 -105 Z" /><glyph glyph-name="uni51B3" unicode="&#x51b3;" d="M502 351 q0 7 1 15 q0 98 1 197 l-192 0 l0 80 l192 0 l0 155 l88 0 q-1 -78 -1 -155 l254 0 l0 -292 l102 0 l0 -81 l-342 0 q37 -94 113 -160 q47 -42 103 -72 q64 -35 134 -60 l-50 -81 q-64 26 -123 59 q-54 31 -101 70 q-78 67 -126 158 q-39 -84 -107 -146 q-46 -40 -97 -74 q-61 -39 -125 -73 l-52 78 q70 33 136 74 q52 33 96 76 q64 63 86 151 l-219 0 l0 81 l229 0 ZM591 563 l0 -192 q0 -11 -1 -20 l174 0 l0 212 l-173 0 ZM261 354 q-68 -202 -134 -404 l-86 26 q41 107 77 217 q31 89 56 181 l50 -11 l37 -9 ZM140 754 q65 -129 128 -258 l-84 -36 q-58 131 -121 259 l77 35 Z" /><glyph glyph-name="uni51B5" unicode="&#x51b5;&#xfa71;" d="M880 736 l0 -405 l-139 0 l0 -283 q-2 -19 9 -34 q6 -6 15 -8 q12 -3 25 -2 l34 0 q14 -1 29 2 q7 1 13 5 q7 5 9 13 q2 10 3 22 q1 67 2 136 l80 -15 q-2 -77 -5 -152 q-1 -23 -9 -45 q-7 -17 -21 -28 q-13 -7 -28 -11 q-28 -5 -56 -5 l-79 0 q-26 0 -51 6 q-19 5 -33 18 q-9 11 -14 24 q-7 23 -6 47 l0 310 l-125 0 q-1 -23 -1 -45 q-4 -72 -21 -142 q-12 -42 -34 -81 q-31 -50 -77 -88 q-57 -45 -120 -82 l-55 64 q59 31 112 71 q30 24 55 55 q28 41 42 89 q14 58 17 119 q0 19 1 40 l-114 0 l0 405 l542 0 ZM421 409 l376 0 l0 248 l-376 0 l0 -248 ZM278 334 q-32 -106 -70 -210 q-36 -94 -80 -184 l-79 42 q97 183 151 385 l41 -18 l37 -15 ZM136 763 q71 -131 140 -263 l-78 -39 q-65 134 -134 266 l72 36 Z" /><glyph glyph-name="uni51C0" unicode="&#x51c0;" d="M456 0 q21 0 42 2 q10 2 18 6 q9 7 13 17 q3 14 3 29 l0 80 l-238 0 l0 73 l238 0 l0 101 l-268 0 l0 71 l268 0 l0 103 l-201 0 l0 27 l-3 -3 l-60 53 q59 56 109 120 q49 63 84 134 l84 -18 q-18 -36 -38 -69 l279 0 l0 -63 l-97 -111 l169 0 l0 -173 l89 0 l0 -71 l-89 0 l0 -226 l-77 0 l0 52 l-169 0 l0 -104 q0 -28 -8 -53 q-7 -20 -25 -33 q-15 -9 -33 -14 q-33 -6 -66 -6 l-112 0 l-16 76 l104 0 ZM253 351 q-63 -193 -124 -386 l-81 27 q65 190 126 382 l42 -12 l37 -11 ZM121 773 q66 -129 128 -259 l-83 -33 q-57 131 -119 261 l74 31 ZM460 655 q-40 -55 -86 -103 l215 0 l92 103 l-221 0 ZM612 482 l0 -103 l169 0 l0 103 l-169 0 ZM612 207 l169 0 l0 101 l-169 0 l0 -101 Z" /><glyph glyph-name="uni51C6" unicode="&#x51c6;" d="M660 809 q51 -70 100 -142 l-38 -22 l213 0 l0 -75 l-222 0 l0 -122 l201 0 l0 -73 l-201 0 l0 -121 l201 0 l0 -74 l-201 0 l0 -134 l237 0 l0 -74 l-511 0 l0 -69 l-83 0 l0 540 q-38 -59 -81 -113 l-56 70 q69 81 117 176 q55 110 86 229 l88 -14 q-19 -75 -49 -146 l218 0 q-43 64 -86 128 l67 36 ZM269 306 q-62 -185 -120 -369 l-87 28 q63 183 122 369 l45 -15 l40 -13 ZM439 46 l193 0 l0 134 l-193 0 l0 -134 ZM144 764 q69 -124 135 -249 l-80 -41 q-62 127 -130 252 l75 38 ZM439 448 l193 0 l0 122 l-193 0 l0 -122 ZM439 254 l193 0 l0 121 l-193 0 l0 -121 Z" /><glyph glyph-name="uni51CF" unicode="&#x51cf;" d="M509 -29 q45 33 87 72 l-186 0 l0 291 l205 0 l0 -273 q47 46 86 101 q-23 98 -34 198 q-13 111 -19 223 l-286 0 l0 -340 q-2 -100 -28 -196 q-21 -81 -63 -154 l-72 44 q41 63 64 134 q25 84 26 172 l0 416 l354 0 q-5 69 -7 139 l75 0 q3 -70 7 -139 l114 0 q-42 50 -86 97 l50 40 q51 -52 99 -107 l-38 -30 l77 0 l0 -76 l-211 0 q9 -163 34 -324 q53 119 76 248 l71 -12 q-19 -101 -54 -198 q-28 -77 -71 -146 q12 -51 34 -98 q8 -21 21 -40 q8 -11 22 -11 q13 2 17 17 q10 30 13 62 q6 52 10 105 l65 -15 q-5 -65 -14 -128 q-4 -27 -11 -52 q-7 -23 -22 -44 q-21 -28 -56 -28 q-35 0 -61 23 q-17 17 -30 37 q-12 21 -22 44 q-12 24 -20 51 q-73 -89 -163 -161 l-53 58 ZM222 366 q-54 -200 -109 -399 l-82 19 q61 196 112 395 l41 -8 l38 -7 ZM130 763 q55 -132 108 -264 l-78 -28 q-48 135 -105 267 l75 25 ZM627 488 l0 -73 l-224 0 l0 73 l224 0 ZM470 114 l83 0 l0 148 l-83 0 l0 -148 Z" /><glyph glyph-name="uni51FA" unicode="&#x51fa;" d="M229 711 l0 -262 l229 0 l0 350 l84 0 l0 -350 l230 0 l0 262 l85 0 l0 -344 l-315 0 l0 -338 l259 0 l0 267 l86 0 l0 -391 l-86 0 l0 42 l-686 0 l0 347 l86 0 l0 -265 l257 0 l0 338 l-314 0 l0 344 l85 0 Z" /><glyph glyph-name="uni5206" unicode="&#x5206;" d="M48 -44 q68 35 130 79 q34 27 63 59 q31 39 47 86 q16 50 22 104 l5 52 l-145 0 l0 67 q-41 -34 -82 -64 l-49 72 q99 69 178 159 q87 100 143 220 l80 -31 q-90 -199 -254 -341 l592 0 q-11 -179 -27 -357 q-3 -36 -17 -67 q-9 -19 -24 -34 q-24 -18 -53 -25 q-40 -8 -80 -8 l-145 0 l-17 81 l136 0 q27 -1 55 4 q19 3 34 15 q9 9 15 22 q8 22 10 46 q11 120 20 241 l-285 0 l-3 -53 q-3 -64 -20 -125 q-18 -56 -53 -103 q-32 -39 -70 -70 q-67 -54 -142 -96 l-64 67 ZM629 805 q25 -67 60 -129 q34 -57 78 -107 q35 -38 74 -71 q59 -48 125 -87 l-48 -78 q-70 43 -134 96 q-57 49 -103 107 q-35 44 -63 93 q-40 70 -68 147 l79 29 Z" /><glyph glyph-name="uni5207" unicode="&#x5207;&#xfa00;" d="M909 721 q-12 -324 -24 -647 q-2 -36 -14 -70 q-10 -26 -32 -44 q-19 -13 -41 -19 q-39 -9 -79 -9 l-113 0 l-18 86 l100 0 q27 -1 54 4 q19 3 34 15 q9 10 15 22 q7 23 8 48 q9 263 18 527 l-194 0 q-3 -75 -5 -148 q-4 -105 -19 -209 q-11 -61 -32 -119 q-28 -73 -75 -135 q-58 -72 -125 -135 l-74 60 q65 56 123 122 q32 40 56 86 q31 67 42 139 q14 99 18 199 l4 140 l-131 0 l0 87 l504 0 ZM143 60 q34 24 32 66 l0 308 l-126 -16 l-9 87 l135 16 l0 275 l84 0 l0 -265 l175 22 l3 -86 l-178 -23 l0 -311 q80 47 160 96 l21 -89 q-98 -56 -193 -115 q-28 -18 -52 -37 l-52 72 Z" /><glyph glyph-name="uni5217" unicode="&#x5217;&#xf99c;" d="M62 -45 q83 54 158 119 q46 41 86 89 q48 60 80 130 q34 78 55 160 l-186 0 q-19 -44 -41 -85 q63 -49 123 -101 l-50 -66 q-57 48 -114 96 q-39 -61 -85 -116 l-58 61 q78 98 133 212 q49 100 76 209 l-162 0 l0 80 l496 0 l0 -80 l-246 0 q-19 -67 -41 -132 l242 0 l0 -76 q-23 -94 -60 -182 q-36 -81 -89 -152 q-43 -55 -93 -103 q-79 -71 -167 -132 l-57 69 ZM737 -1 q21 0 42 3 q11 3 20 9 q11 8 15 20 q5 17 5 34 l0 721 l83 0 l0 -752 q0 -30 -8 -57 q-8 -22 -27 -38 q-16 -11 -35 -16 q-35 -8 -71 -8 l-127 0 l-17 84 l120 0 ZM699 696 l0 -573 l-83 0 l0 573 l83 0 Z" /><glyph glyph-name="uni521A" unicode="&#x521a;" d="M238 602 q49 -95 99 -189 q44 95 82 194 l65 -28 q-47 -126 -105 -246 q58 -114 116 -227 l-64 -39 q-45 93 -91 187 q-53 -102 -114 -198 l-58 42 l0 -189 l-75 0 l0 834 l486 0 l0 -717 q0 -27 -7 -54 q-6 -15 -16 -27 q-15 -15 -36 -20 q-28 -7 -56 -7 l-103 0 l-16 74 l92 0 q17 0 34 3 q12 3 21 10 q6 7 9 15 q4 15 4 32 l0 615 l-337 0 l0 -558 q71 109 131 226 q-61 117 -123 233 l62 34 ZM763 -8 q17 0 34 3 q12 2 21 9 q5 6 7 14 q4 16 4 32 l0 729 l76 0 l0 -753 q0 -27 -7 -54 q-6 -21 -22 -35 q-13 -10 -30 -15 q-30 -7 -61 -7 l-106 0 l-17 77 l101 0 ZM736 688 l0 -571 l-72 0 l0 571 l72 0 Z" /><glyph glyph-name="uni521B" unicode="&#x521b;" d="M30 486 q96 74 175 166 q65 74 113 161 l77 -35 l-22 -41 l235 -204 l-56 -64 q-111 101 -223 202 q-77 -106 -176 -189 l350 0 q-2 -106 -5 -211 q-2 -29 -9 -56 q-7 -21 -23 -37 q-14 -10 -30 -15 q-30 -8 -61 -7 l-89 0 l-15 72 l82 0 q18 -1 37 2 q9 2 16 7 q9 8 12 19 q4 17 5 34 q2 57 4 115 l-210 0 l0 -321 q-1 -21 2 -42 q3 -14 13 -23 q8 -7 18 -9 q21 -4 42 -3 l122 0 q21 -1 41 3 q10 2 19 7 q10 9 14 21 q4 18 5 36 q2 47 4 96 l79 -15 q-2 -61 -6 -120 q-3 -28 -13 -53 q-7 -15 -19 -26 q-19 -15 -44 -19 q-35 -6 -70 -6 l-156 0 q-33 0 -65 8 q-24 6 -41 24 q-12 14 -18 32 q-8 32 -7 66 l0 407 q-29 -23 -57 -44 l-50 62 ZM746 1 q19 -1 38 3 q10 2 19 8 q9 8 13 20 q4 17 4 34 l0 721 l79 0 l0 -755 q0 -30 -7 -57 q-7 -22 -24 -37 q-15 -10 -32 -15 q-34 -7 -67 -7 l-115 0 l-17 85 l109 0 ZM709 711 l0 -568 l-80 0 l0 568 l80 0 Z" /><glyph glyph-name="uni521D" unicode="&#x521d;" d="M303 -52 q60 61 113 129 q41 56 67 121 q19 51 29 105 q14 93 18 187 q1 73 4 146 l-131 0 l0 84 l504 0 q-15 -328 -30 -654 q-2 -36 -13 -69 q-11 -27 -33 -45 q-19 -12 -41 -18 q-40 -9 -81 -9 l-113 0 l-17 84 l100 0 q28 -1 55 4 q19 4 35 16 q10 10 15 23 q8 23 9 48 q12 267 24 536 l-199 0 q-2 -79 -5 -156 q-4 -100 -20 -199 q-10 -58 -30 -115 q-27 -70 -71 -133 q-54 -73 -117 -141 l-72 56 ZM33 269 q144 125 240 290 l-210 0 l0 82 l306 0 l0 -75 q-48 -86 -107 -164 l0 -57 l28 -20 q58 66 110 138 l58 -45 q-53 -71 -110 -136 q41 -31 83 -61 l-45 -59 q-62 47 -124 95 l0 -353 l-84 0 l0 398 q-56 -60 -116 -114 l-29 81 ZM225 816 q37 -72 72 -144 l-76 -29 q-34 71 -70 141 l74 32 Z" /><glyph glyph-name="uni5229" unicode="&#x5229;&#xf9dd;" d="M74 702 q220 21 437 66 l15 -78 q-90 -19 -180 -32 l0 -143 l195 0 l0 -80 l-195 0 l0 -122 l45 46 q83 -79 164 -161 l-59 -63 q-73 79 -150 155 l0 -387 l-84 0 l0 390 q-73 -130 -176 -236 l-55 71 q138 132 220 307 l-190 0 l0 80 l201 0 l0 131 q-89 -14 -178 -23 l-10 79 ZM733 -4 q21 0 42 4 q11 2 20 8 q11 8 15 22 q5 17 5 36 l0 720 l84 0 l0 -750 q0 -31 -8 -60 q-8 -23 -27 -38 q-17 -11 -36 -16 q-36 -8 -72 -8 l-128 0 l-18 82 l123 0 ZM680 703 l0 -586 l-85 0 l0 586 l85 0 Z" /><glyph glyph-name="uni522B" unicode="&#x522b;" d="M198 328 l4 114 l-98 0 l0 307 l404 0 l0 -307 l-225 0 l-4 -114 l238 0 q-5 -135 -10 -269 q-2 -33 -14 -62 q-8 -18 -22 -32 q-21 -18 -49 -25 q-37 -8 -74 -8 l-93 0 l-15 75 l81 0 q27 -1 53 4 q18 3 33 15 q9 9 13 21 q7 21 8 44 l6 160 l-161 0 q-6 -58 -19 -114 q-9 -36 -24 -69 q-21 -45 -50 -83 q-35 -45 -75 -87 l-68 53 q37 35 70 72 q27 33 46 72 q13 29 22 59 q12 48 17 97 l-139 0 l0 77 l145 0 ZM730 -4 q19 0 38 4 q14 2 24 11 q7 7 10 17 q5 16 5 34 l0 721 l78 0 l0 -750 q0 -30 -8 -57 q-7 -22 -25 -37 q-15 -11 -33 -16 q-33 -8 -67 -8 l-119 0 l-17 81 l114 0 ZM691 702 l0 -565 l-78 0 l0 565 l78 0 ZM184 519 l242 0 l0 155 l-242 0 l0 -155 Z" /><glyph glyph-name="uni5230" unicode="&#x5230;" d="M430 613 q77 -109 152 -219 l-66 -42 l-35 53 l-126 -7 l0 -132 l197 0 l0 -78 l-197 0 l0 -132 l224 20 l1 -41 l1 -40 q-268 -21 -535 -47 l-8 81 q117 9 235 20 l0 139 l-198 0 l0 78 l198 0 l0 128 l-128 -5 q-31 -2 -61 -8 l-19 73 q17 3 31 16 q31 34 59 73 q41 55 79 114 l-175 0 l0 79 l508 0 l0 -79 l-240 0 q-64 -101 -139 -193 q123 4 246 11 l-65 96 l61 42 ZM741 -8 q19 0 38 4 q13 3 24 11 q6 7 9 16 q5 16 5 34 l0 725 l82 0 l0 -753 q0 -29 -8 -58 q-7 -22 -25 -37 q-15 -10 -32 -15 q-32 -7 -65 -7 l-122 0 l-18 80 l112 0 ZM702 703 l0 -585 l-80 0 l0 585 l80 0 Z" /><glyph glyph-name="uni5236" unicode="&#x5236;" d="M298 297 l0 96 l-245 0 l0 76 l245 0 l0 112 l-122 0 q-18 -50 -41 -96 l-74 24 q56 119 86 248 l77 -12 q-10 -45 -23 -89 l97 0 l0 134 l79 0 l0 -134 l198 0 l0 -75 l-198 0 l0 -112 l219 0 l0 -76 l-219 0 l0 -96 l189 0 l0 -247 q0 -21 -6 -41 q-6 -15 -19 -26 q-11 -7 -23 -11 q-23 -6 -45 -6 l-64 0 l-16 73 l52 0 q12 -1 23 2 q9 2 15 7 q10 14 9 32 l0 141 l-115 0 l0 -330 l-79 0 l0 330 l-118 0 l0 -264 l-74 0 l0 340 l192 0 ZM755 -12 q19 0 37 5 q10 3 19 8 q10 9 14 21 q4 17 4 35 l0 721 l79 0 l0 -752 q0 -29 -7 -57 q-7 -21 -24 -36 q-14 -11 -31 -16 q-32 -8 -65 -8 l-119 0 l-18 79 l111 0 ZM732 697 l0 -589 l-79 0 l0 589 l79 0 Z" /><glyph glyph-name="uni5237" unicode="&#x5237;" d="M30 -29 q52 106 75 223 q22 119 21 241 l0 317 l460 0 l0 -255 l-387 0 l0 -78 q0 -124 -23 -244 q-25 -123 -78 -235 l-68 31 ZM365 376 l0 91 l68 0 l0 -91 l153 0 l0 -292 q0 -25 -5 -48 q-4 -13 -11 -24 q-11 -12 -26 -16 q-21 -6 -42 -6 l-44 0 l-15 67 l31 0 q11 -1 23 2 q8 2 14 8 q9 17 8 37 l0 202 l-86 0 l0 -403 l-68 0 l0 403 l-82 0 l0 -319 l-66 0 l0 389 l148 0 ZM764 -11 q17 0 34 3 q11 3 20 9 q6 7 8 14 q4 15 4 30 l0 747 l74 0 l0 -768 q0 -27 -7 -53 q-7 -20 -23 -34 q-13 -10 -30 -15 q-30 -7 -61 -7 l-104 0 l-16 74 l101 0 ZM733 712 l0 -586 l-70 0 l0 586 l70 0 ZM199 567 l310 0 l0 114 l-310 0 l0 -114 Z" /><glyph glyph-name="uni523B" unicode="&#x523b;" d="M82 420 q27 6 47 25 q55 68 100 145 l-171 0 l0 78 l253 0 q-26 54 -52 109 l77 28 q32 -62 61 -125 l-41 -12 l234 0 l0 -78 l-269 0 q-48 -86 -110 -159 q81 5 163 8 q38 58 71 120 l66 -34 q-77 -142 -189 -258 q-105 -103 -234 -175 l-44 65 q74 40 142 89 q67 50 124 112 q-81 -3 -160 -8 q-24 -3 -47 -7 l-21 77 ZM751 -13 q18 0 37 4 q9 2 18 8 q9 7 12 20 q4 16 4 34 l0 720 l79 0 l0 -750 q0 -29 -7 -57 q-7 -22 -24 -37 q-14 -11 -31 -16 q-31 -8 -63 -8 l-116 0 l-18 82 l109 0 ZM35 -43 q82 39 161 86 q68 43 130 96 q106 94 181 215 l61 -41 q-63 -103 -145 -190 q90 -75 178 -152 l-55 -67 q-91 84 -183 163 q-55 -47 -116 -86 q-79 -51 -162 -94 l-50 70 ZM714 686 l0 -580 l-78 0 l0 580 l78 0 Z" /><glyph glyph-name="uni524D" unicode="&#x524d;" d="M485 517 l0 -500 q0 -27 -7 -53 q-5 -15 -14 -26 q-15 -15 -35 -21 q-27 -6 -55 -6 l-83 0 l-16 77 l71 0 q16 0 32 3 q7 2 14 6 q7 5 9 15 q3 12 3 26 l0 73 l-203 0 l0 -204 l-81 0 l0 610 l365 0 ZM304 817 q45 -62 90 -124 l-37 -19 l218 0 q52 69 99 143 l82 -40 q-36 -53 -76 -103 l265 0 l0 -76 l-897 0 l0 76 l255 0 l-71 99 l72 44 ZM712 -8 q19 0 37 3 q10 2 17 6 q9 7 12 18 q3 15 3 32 l0 486 l81 0 l0 -508 q0 -29 -7 -57 q-6 -21 -23 -36 q-14 -10 -32 -15 q-33 -7 -67 -7 l-119 0 l-17 78 l115 0 ZM663 498 l0 -419 l-76 0 l0 419 l76 0 ZM201 349 l203 0 l0 91 l-203 0 l0 -91 ZM201 185 l203 0 l0 91 l-203 0 l0 -91 Z" /><glyph glyph-name="uni526A" unicode="&#x526a;" d="M889 193 l-21 -159 q-5 -30 -15 -58 q-8 -21 -26 -35 q-15 -10 -33 -14 q-34 -7 -69 -7 l-175 0 l-16 73 l164 0 q20 0 41 3 q10 2 19 6 q10 7 15 18 q6 15 10 31 q7 36 13 73 l-330 0 q-13 -50 -41 -92 q-22 -29 -52 -50 q-51 -33 -108 -52 q-81 -25 -164 -41 l-26 74 q69 13 137 31 q37 10 73 26 q35 17 62 44 q23 27 34 60 l-278 0 l0 69 l786 0 ZM498 587 l0 -261 q0 -24 -7 -46 q-6 -18 -21 -30 q-14 -8 -29 -12 q-30 -6 -60 -5 l-84 0 l-12 55 l79 0 q12 -1 24 1 q11 1 20 6 q6 5 9 13 q2 9 2 19 l0 9 l-209 0 l0 -101 l-79 0 l0 352 l367 0 ZM318 812 q44 -49 86 -101 l-17 -9 l205 0 q46 52 89 108 l68 -37 q-28 -37 -58 -71 l250 0 l0 -66 l-882 0 l0 66 l255 0 q-31 33 -61 67 l65 43 ZM722 299 q15 -1 30 2 q14 3 25 12 q9 9 12 21 q4 15 4 30 l0 229 l75 0 l0 -250 q0 -29 -8 -56 q-5 -15 -16 -27 q-18 -15 -41 -20 q-32 -6 -64 -5 l-108 0 l-14 64 l105 0 ZM675 578 l0 -241 l-73 0 l0 241 l73 0 ZM210 388 l209 0 l0 46 l-209 0 l0 -46 ZM210 486 l209 0 l0 46 l-209 0 l0 -46 Z" /><glyph glyph-name="uni529B" unicode="&#x529b;&#xf98a;" d="M40 -38 q85 55 162 121 q60 53 99 122 q27 53 42 110 q20 98 25 199 l-292 0 l0 89 l296 0 q2 97 7 194 l87 0 q-2 -98 -6 -194 l414 0 q-10 -268 -22 -534 q-2 -39 -15 -73 q-10 -21 -26 -37 q-26 -21 -58 -29 q-43 -9 -87 -9 l-160 0 l-18 87 l148 0 q32 -1 64 4 q22 4 39 18 q11 11 17 25 q8 27 9 55 q10 201 17 404 l-326 0 q-5 -111 -27 -220 q-19 -87 -65 -162 q-37 -56 -84 -104 q-82 -74 -175 -137 l-65 71 Z" /><glyph glyph-name="uni529F" unicode="&#x529f;" d="M287 -51 q69 60 129 130 q33 42 56 91 q29 68 39 143 q11 101 15 204 l-114 0 l0 84 l116 0 l5 196 l85 0 l-4 -196 l280 0 q-9 -261 -18 -520 q-2 -41 -13 -80 q-8 -20 -23 -37 q-23 -20 -53 -27 q-43 -8 -86 -8 l-110 0 l-17 82 l96 0 q31 -1 63 3 q20 4 36 17 q9 11 14 25 q6 28 8 57 q9 201 15 404 l-195 0 q-4 -114 -18 -226 q-11 -83 -43 -161 q-25 -54 -60 -101 q-60 -74 -131 -138 l-72 58 ZM439 152 q-194 -47 -385 -97 l-19 83 q78 17 157 38 l0 426 l-135 0 l0 80 l348 0 l0 -80 l-128 0 l0 -405 q74 18 149 40 l6 -40 l7 -45 Z" /><glyph glyph-name="uni52A0" unicode="&#x52a0;" d="M905 681 l0 -762 l-81 0 l0 79 l-170 0 l0 -79 l-83 0 l0 762 l334 0 ZM27 -60 q41 67 74 139 q21 50 36 102 q20 78 28 157 q11 103 15 207 l-127 0 l0 83 l130 0 q1 84 2 170 l84 0 q-2 -86 -3 -170 l217 0 l-13 -571 q-1 -34 -11 -66 q-6 -18 -19 -32 q-20 -17 -45 -24 q-35 -7 -71 -7 l-86 0 l-17 87 l83 0 q23 -1 46 3 q11 3 20 9 q9 11 12 25 q3 22 4 44 q6 224 12 449 l-135 0 q-4 -111 -14 -221 q-9 -85 -30 -168 q-16 -57 -38 -111 q-34 -76 -77 -149 l-77 44 ZM654 79 l170 0 l0 520 l-170 0 l0 -520 Z" /><glyph glyph-name="uni52A1" unicode="&#x52a1;" d="M39 367 q192 36 376 103 q-88 51 -162 121 q-70 -63 -147 -114 l-47 57 q80 55 150 124 q74 69 132 152 l77 -30 q-25 -36 -52 -69 l476 0 l0 -68 q-114 -105 -250 -177 q75 -27 152 -45 q109 -26 219 -42 l-21 -79 q-132 23 -261 58 q-92 26 -178 66 q-104 -45 -212 -78 q-112 -34 -225 -59 l-27 80 ZM367 258 q7 48 11 98 l88 -1 q-7 -49 -13 -97 l378 0 q-10 -114 -23 -226 q-4 -29 -16 -55 q-12 -22 -33 -35 q-19 -11 -40 -16 q-39 -7 -78 -7 l-168 0 l-16 72 l155 0 q27 0 54 4 q14 3 27 8 q14 8 21 23 q8 18 11 39 q8 59 16 120 l-303 0 q-25 -92 -94 -156 q-46 -40 -100 -70 q-69 -37 -142 -68 l-47 69 q63 24 125 53 q46 23 87 55 q58 46 83 117 l-248 0 l0 73 l265 0 ZM309 642 q83 -86 191 -137 q120 51 219 137 l-410 0 Z" /><glyph glyph-name="uni52A8" unicode="&#x52a8;" d="M393 317 q57 -133 111 -266 q47 81 64 173 q12 65 17 131 q5 86 8 173 l-128 0 l0 83 l131 0 q0 93 4 186 l79 0 q-1 -94 -3 -186 l235 0 l-19 -558 q-1 -32 -11 -62 q-7 -17 -19 -31 q-19 -17 -44 -23 q-34 -8 -68 -8 l-115 0 l-17 83 l99 0 q24 -1 48 3 q16 4 29 14 q8 9 12 20 q6 22 7 44 q8 217 16 435 l-156 0 q-4 -116 -13 -231 q-8 -85 -30 -167 q-17 -55 -43 -105 q-43 -75 -97 -142 l-75 50 q39 46 74 95 l-55 -28 l-13 35 q-139 -11 -276 -24 q-32 -5 -62 -12 l-29 83 q30 12 43 42 q31 61 56 126 q27 70 51 142 l-146 0 l0 82 l440 0 l0 -82 l-205 0 q-28 -87 -61 -171 q-24 -62 -55 -121 q106 6 213 14 q-35 87 -72 175 l75 28 ZM465 723 l0 -80 l-366 0 l0 80 l366 0 Z" /><glyph glyph-name="uni52A9" unicode="&#x52a9;" d="M454 737 l0 -611 q28 4 57 9 l1 -39 l0 -11 q42 66 58 143 q11 55 15 110 q6 72 8 144 q0 26 1 53 l-95 0 l0 79 l97 0 q1 89 2 180 l82 0 q-1 -91 -3 -180 l230 0 l-20 -557 q-1 -32 -12 -61 q-7 -17 -20 -30 q-21 -17 -47 -22 q-36 -7 -72 -7 l-99 0 l-16 79 l83 0 q26 -1 53 3 q17 3 31 14 q8 8 12 19 q6 20 7 41 q9 220 17 442 l-149 0 q-2 -31 -2 -61 q-3 -108 -17 -215 q-9 -61 -28 -119 q-24 -69 -67 -128 q-51 -66 -111 -125 l-64 59 q53 49 99 103 q-216 -33 -431 -69 l-12 84 l79 11 l0 662 l333 0 ZM375 114 l0 131 l-175 0 l0 -158 l175 27 ZM200 523 l175 0 l0 135 l-175 0 l0 -135 ZM200 319 l175 0 l0 128 l-175 0 l0 -128 Z" /><glyph glyph-name="uni5305" unicode="&#x5305;" d="M32 451 q149 152 230 350 l90 -25 q-16 -39 -34 -76 l533 0 q-5 -233 -9 -465 q-1 -35 -12 -68 q-10 -26 -32 -42 q-19 -12 -41 -18 q-40 -8 -81 -7 l-109 0 l-17 80 l111 0 q25 -1 51 3 q12 2 23 9 q13 10 17 25 q6 21 7 44 l8 360 l-492 0 q-35 -60 -75 -114 l397 0 l0 -314 l-369 0 l0 -117 q-1 -22 4 -42 q4 -11 11 -19 q12 -10 28 -12 q22 -3 45 -3 l439 0 q22 0 44 3 q15 2 27 12 q8 7 12 17 q6 18 8 38 q4 48 7 98 l85 -18 q-6 -64 -12 -127 q-3 -27 -15 -52 q-8 -15 -21 -25 q-22 -15 -49 -19 q-37 -6 -75 -6 l-471 0 q-36 0 -72 7 q-26 6 -46 24 q-14 15 -21 34 q-10 33 -9 70 l0 386 q-25 -28 -50 -53 l-65 62 ZM228 274 l289 0 l0 153 l-289 0 l0 -153 Z" /><glyph glyph-name="uni5316" unicode="&#x5316;" d="M291 209 q109 63 212 138 l0 444 l87 0 l0 -378 q146 117 272 257 l63 -63 q-155 -168 -335 -307 l0 -214 q-1 -18 4 -36 q3 -9 9 -17 q10 -9 23 -12 q17 -4 36 -3 l113 0 q19 -1 37 3 q10 2 19 7 q10 8 15 20 q5 15 6 32 q3 78 6 157 l82 -19 q-3 -85 -8 -169 q-2 -30 -12 -56 q-9 -22 -28 -37 q-16 -10 -35 -15 q-33 -8 -67 -8 l-149 0 q-35 0 -69 8 q-25 6 -43 25 q-12 14 -18 33 q-9 32 -8 67 l0 171 q-82 -57 -168 -106 l-44 78 ZM34 333 q77 94 137 200 q72 127 121 265 l83 -26 q-41 -117 -97 -226 l0 -642 l-87 0 l0 496 q-55 -80 -118 -153 l-39 86 Z" /><glyph glyph-name="uni533A" unicode="&#x533a;" d="M926 744 l0 -83 l-712 0 l0 -636 l731 0 l0 -83 l-820 0 l0 802 l801 0 ZM238 131 q141 99 266 221 q-111 107 -224 212 l59 62 q115 -105 228 -212 q101 104 190 221 l72 -52 q-93 -121 -198 -230 q120 -115 238 -231 l-66 -66 q-117 118 -235 234 q-128 -127 -273 -231 l-57 72 Z" /><glyph glyph-name="uni5343" unicode="&#x5343;" d="M452 406 l0 225 q-165 -16 -330 -24 l-5 86 q364 14 725 73 l19 -86 q-158 -25 -316 -40 l0 -234 l405 0 l0 -84 l-405 0 l0 -422 l-93 0 l0 422 l-406 0 l0 84 l406 0 Z" /><glyph glyph-name="uni5347" unicode="&#x5347;" d="M82 691 q240 27 477 81 l20 -78 q-102 -24 -205 -41 l0 -219 l284 0 l0 358 l88 0 l0 -358 l206 0 l0 -83 l-206 0 l0 -445 l-88 0 l0 445 l-285 0 q-2 -79 -17 -155 q-13 -65 -46 -122 q-26 -43 -60 -79 q-58 -58 -124 -107 l-70 66 q64 45 121 97 q31 31 55 67 q28 47 38 101 q11 65 12 132 l-227 0 l0 83 l228 0 l0 203 q-92 -15 -184 -26 l-17 80 Z" /><glyph glyph-name="uni5360" unicode="&#x5360;" d="M422 394 l0 403 l88 0 l0 -143 l419 0 l0 -84 l-419 0 l0 -176 l343 0 l0 -486 l-88 0 l0 57 l-529 0 l0 -57 l-87 0 l0 486 l273 0 ZM236 48 l529 0 l0 261 l-529 0 l0 -261 Z" /><glyph glyph-name="uni5361" unicode="&#x5361;" d="M511 796 l0 -126 l349 0 l0 -80 l-349 0 l0 -158 l434 0 l0 -80 l-892 0 l0 80 l373 0 l0 364 l85 0 ZM512 336 l0 -435 l-86 0 l0 435 l86 0 ZM560 290 q167 -88 331 -184 l-44 -74 q-161 98 -327 189 l40 69 Z" /><glyph glyph-name="uni5373" unicode="&#x5373;" d="M362 272 l166 -244 l-70 -43 l-56 89 q-119 -51 -237 -100 q-27 -11 -51 -27 l-43 69 q15 10 25 26 q8 14 8 31 l0 675 l370 0 l0 -452 l-293 0 l0 -232 q89 37 178 77 l-62 94 l65 37 ZM899 728 l0 -566 q0 -29 -8 -56 q-6 -16 -16 -29 q-16 -16 -38 -22 q-28 -7 -57 -6 l-95 0 l-17 83 l79 0 q19 -1 38 3 q10 3 18 9 q8 7 12 19 q3 14 3 30 l0 452 l-177 0 l0 -740 l-80 0 l0 823 l338 0 ZM181 556 l215 0 l0 118 l-215 0 l0 -118 ZM396 369 l0 116 l-215 0 l0 -116 l215 0 Z" /><glyph glyph-name="uni539A" unicode="&#x539a;" d="M880 633 l0 -275 l-571 0 l0 275 l571 0 ZM30 -55 q34 55 61 114 q16 41 27 85 q14 69 17 140 q5 100 5 201 l0 269 l808 0 l0 -71 l-724 0 l0 -191 q0 -114 -6 -227 q-4 -60 -14 -119 q-12 -64 -36 -124 q-26 -61 -60 -120 l-78 43 ZM500 -18 q17 0 35 3 q8 1 16 5 q7 5 10 13 q3 13 3 26 l0 63 l-330 0 l0 64 l330 0 l0 26 l161 62 l-424 0 l0 63 l586 0 l0 -61 l-236 -90 l305 0 l0 -64 l-310 0 l0 -76 q0 -27 -6 -53 q-5 -20 -20 -33 q-14 -8 -29 -12 q-31 -6 -61 -6 l-132 0 l-16 70 l118 0 ZM798 416 l0 51 l-408 0 l0 -51 l408 0 ZM390 524 l408 0 l0 49 l-408 0 l0 -49 Z" /><glyph glyph-name="uni539F" unicode="&#x539f;" d="M497 -8 q19 0 38 4 q10 2 18 6 q10 7 13 19 q4 15 4 31 l0 171 l-243 0 l0 359 l188 0 q18 43 32 90 l-316 0 l0 -249 q0 -93 -7 -185 q-5 -71 -21 -142 q-28 -110 -91 -206 l-77 56 q33 53 59 109 q17 38 28 79 q14 60 19 122 q5 81 5 164 l0 330 l807 0 l0 -78 l-374 0 l57 -11 q-12 -40 -25 -79 l268 0 l0 -359 l-223 0 l0 -202 q0 -27 -8 -54 q-5 -15 -16 -27 q-17 -15 -39 -20 q-31 -6 -63 -6 l-105 0 l-17 78 l89 0 ZM407 437 l393 0 l0 77 l-393 0 l0 -77 ZM800 292 l0 76 l-393 0 l0 -76 l393 0 ZM213 -14 q107 91 191 204 l66 -46 q-90 -120 -201 -220 l-56 62 ZM765 184 q101 -95 201 -190 l-59 -56 q-98 98 -198 194 l56 52 Z" /><glyph glyph-name="uni53BB" unicode="&#x53bb;" d="M458 375 l0 191 l-343 0 l0 80 l343 0 l0 155 l83 0 l0 -155 l341 0 l0 -80 l-341 0 l0 -191 l408 0 l0 -82 l-453 0 q-60 -80 -126 -153 q-51 -58 -107 -109 q227 6 455 17 q-68 79 -134 159 l63 49 q132 -148 261 -298 l-67 -57 l-57 69 q-279 -8 -556 -22 q-52 -2 -102 -11 l-27 84 q39 7 71 33 q58 52 110 112 q55 61 106 127 l-338 0 l0 82 l410 0 Z" /><glyph glyph-name="uni53C2" unicode="&#x53c2;" d="M31 241 q87 35 166 86 q58 39 106 91 l-243 0 l0 71 l297 0 q26 40 48 84 l87 -18 q-17 -34 -36 -66 l482 0 l0 -71 l-255 0 q56 -60 128 -102 q73 -42 155 -68 l-37 -78 q-112 43 -208 113 q-77 58 -134 135 l-179 0 q-75 -97 -179 -161 q185 35 358 111 l27 -64 q-177 -78 -366 -117 l-25 66 q-73 -46 -150 -82 l-42 70 ZM632 770 q133 -93 265 -188 l-45 -60 l-77 57 q-270 -4 -539 -9 q-42 -2 -83 -5 l-18 66 q30 3 58 17 q123 75 236 167 l62 -47 q-95 -77 -200 -136 q200 2 400 7 l-104 74 l45 57 ZM104 -41 q96 14 191 31 q104 19 207 46 q165 46 316 127 l38 -64 q-161 -84 -336 -130 q-193 -52 -390 -80 l-26 70 ZM161 104 q142 23 280 66 q131 41 255 103 l32 -64 q-125 -62 -257 -102 q-142 -42 -286 -67 l-24 64 Z" /><glyph glyph-name="uni53C8" unicode="&#x53c8;" d="M35 -8 q120 46 236 103 q80 40 155 91 q-77 77 -131 171 q-68 124 -111 259 l83 29 q43 -126 107 -241 q51 -89 124 -161 q78 70 132 160 q32 55 57 113 q28 66 51 135 l-630 0 l0 85 l724 0 l0 -85 q-25 -78 -56 -154 q-28 -67 -63 -130 q-59 -103 -144 -185 q84 -63 178 -108 q103 -48 211 -84 l-35 -94 q-133 50 -258 115 q-88 47 -167 110 q-80 -59 -167 -105 q-123 -61 -251 -111 l-45 87 Z" /><glyph glyph-name="uni53CA" unicode="&#x53ca;" d="M780 743 l0 -82 l-115 -166 l195 0 l0 -79 q-39 -85 -92 -161 q-45 -64 -102 -118 q137 -96 295 -155 l-50 -81 q-93 42 -180 93 q-68 39 -130 88 q-69 -52 -144 -92 q-103 -54 -210 -97 l-46 78 q101 37 198 85 q70 35 135 82 q-130 120 -201 282 q-9 -76 -28 -150 q-19 -70 -48 -135 q-24 -50 -53 -96 q-45 -68 -96 -131 l-74 52 q55 62 101 132 q41 62 68 132 q20 52 32 107 q17 82 22 166 l7 165 l-164 0 l0 81 l680 0 ZM345 606 q38 -132 110 -248 q60 -94 144 -167 q103 97 166 225 l-210 0 l0 70 l119 176 l-327 0 l-2 -56 Z" /><glyph glyph-name="uni53CB" unicode="&#x53cb;" d="M23 -18 q112 123 182 274 q71 160 99 333 l-234 0 l0 83 l246 0 q8 63 13 128 l93 -4 q-5 -63 -12 -124 l541 0 l0 -83 l-553 0 q-11 -62 -25 -122 l472 0 l0 -79 q-38 -84 -91 -159 q-47 -62 -105 -112 q60 -40 126 -69 q89 -39 184 -66 l-38 -87 q-104 36 -203 85 q-73 35 -138 83 q-69 -47 -143 -82 q-101 -49 -206 -89 l-46 82 q86 28 170 65 q80 35 155 82 q-107 102 -168 236 q-80 -248 -252 -440 l-67 65 ZM415 388 q61 -125 165 -217 q111 88 174 217 l-339 0 Z" /><glyph glyph-name="uni53CC" unicode="&#x53cc;" d="M337 -38 q92 57 177 126 q62 50 114 112 q-52 84 -84 178 q-39 120 -56 246 l79 15 q16 -109 48 -213 q26 -80 67 -152 q44 72 72 153 q36 108 55 221 l-331 0 l0 83 l417 0 l0 -83 q-23 -137 -69 -267 q-36 -98 -94 -184 q43 -58 95 -107 q69 -65 147 -118 l-58 -74 q-75 57 -142 121 q-52 50 -96 108 q-53 -61 -114 -112 q-81 -67 -169 -127 l-58 74 ZM145 593 q73 -112 145 -225 q53 135 74 279 l-300 0 l0 84 l385 0 l0 -84 q-16 -107 -44 -211 q-24 -82 -59 -159 q54 -86 106 -173 l-70 -51 q-40 69 -81 138 q-38 -64 -83 -124 q-60 -77 -125 -150 l-62 69 q70 75 131 158 q47 64 86 135 q-84 135 -170 270 l67 44 Z" /><glyph glyph-name="uni53D1" unicode="&#x53d1;" d="M172 -23 q86 24 170 56 q78 29 152 69 q-88 78 -147 180 q-43 -88 -100 -166 q-74 -99 -162 -184 l-63 68 q123 113 208 257 q72 128 110 270 l-233 0 l0 70 q28 90 48 183 l83 -17 q-18 -80 -41 -158 l162 0 q19 94 30 190 l87 -7 q-11 -93 -28 -183 l488 0 l0 -78 l-505 0 q-13 -59 -32 -115 l428 0 l0 -78 q-40 -74 -91 -139 q-42 -52 -93 -94 q71 -43 148 -73 q78 -30 160 -52 l-36 -87 q-93 29 -183 68 q-87 37 -165 89 q-70 -42 -144 -72 q-105 -44 -214 -78 l-37 81 ZM415 333 q60 -106 156 -182 q99 72 158 182 l-314 0 ZM646 804 q89 -49 177 -100 l-43 -71 q-89 52 -178 102 l44 69 Z" /><glyph glyph-name="uni53D6" unicode="&#x53d6;" d="M461 81 l0 -182 l-79 0 l0 169 q-168 -29 -335 -58 l-7 82 q44 4 89 13 l0 571 l-62 0 l0 78 l457 0 l0 -78 l-63 0 l0 -516 l86 16 l2 -38 l2 -42 l-90 -15 ZM627 618 q11 -105 37 -206 q21 -76 57 -146 q36 72 58 150 q29 104 46 211 l-285 0 l0 81 l368 0 l0 -81 q-21 -132 -59 -259 q-30 -96 -80 -182 q35 -51 80 -95 q57 -56 122 -104 l-56 -69 q-110 86 -195 196 q-86 -111 -195 -199 l-56 66 q65 50 123 108 q43 45 80 96 q-48 81 -74 172 q-35 123 -49 250 l78 11 ZM209 118 q86 13 173 29 l0 119 l-173 0 l0 -148 ZM209 543 l173 0 l0 133 l-173 0 l0 -133 ZM209 340 l173 0 l0 129 l-173 0 l0 -129 Z" /><glyph glyph-name="uni53D7" unicode="&#x53d7;" d="M255 504 q-37 62 -76 124 l61 32 q-63 -3 -126 -4 l-11 73 q207 6 414 19 q175 10 349 27 l18 -75 q-193 -17 -385 -27 q41 -72 82 -143 l-56 -26 l173 0 l-40 22 q57 79 105 164 l71 -33 q-46 -79 -97 -153 l172 0 l0 -199 l-76 0 l0 127 l-667 0 l0 -127 l-77 0 l0 199 l166 0 ZM44 -22 q109 20 217 48 q76 20 150 50 q-102 66 -177 162 l25 19 l-58 0 l0 73 l587 0 l0 -73 q-87 -110 -205 -183 q74 -30 152 -50 q108 -25 219 -41 l-29 -80 q-129 23 -254 59 q-90 26 -174 65 q-85 -38 -174 -66 q-124 -37 -251 -63 l-28 80 ZM321 257 q73 -88 174 -141 q100 55 177 141 l-351 0 ZM491 673 q-121 -8 -242 -12 q44 -66 86 -134 l-49 -23 l218 0 q-38 69 -77 137 l64 32 Z" /><glyph glyph-name="uni53D8" unicode="&#x53d8;" d="M43 -34 q108 19 214 46 q77 20 152 49 q-116 69 -193 179 l23 13 l-111 0 l0 73 l677 0 l0 -71 q-87 -121 -214 -195 q72 -27 147 -45 q108 -25 218 -43 l-29 -81 q-129 25 -255 61 q-88 25 -172 61 q-85 -35 -172 -61 q-127 -37 -256 -64 l-29 78 ZM507 816 q30 -58 57 -117 l-27 -9 l393 0 l0 -76 l-282 0 l0 -250 l-79 0 l0 250 l-137 0 l0 -250 l-79 0 l0 250 l-282 0 l0 76 l401 0 q-23 49 -49 96 l84 30 ZM310 253 q77 -96 187 -152 q113 56 196 152 l-383 0 ZM37 387 q120 80 222 184 l53 -51 q-104 -112 -228 -198 l-47 65 ZM739 572 q113 -83 224 -168 l-48 -66 q-111 89 -225 174 l49 60 Z" /><glyph glyph-name="uni53E0" unicode="&#x53e0;" d="M800 251 l0 -270 l140 0 l0 -59 l-888 0 l0 59 l139 0 l0 270 l609 0 ZM184 710 q157 -23 315 -47 q107 21 213 54 l-575 0 l0 52 l702 0 l0 -55 q-107 -41 -216 -70 q117 -18 234 -37 l-11 -48 l-348 56 q-187 -37 -376 -53 l-15 49 q122 9 245 27 l-181 27 l13 45 ZM132 505 l-40 0 l0 50 l393 0 l0 -49 q-54 -41 -116 -67 q55 -17 110 -34 l-18 -46 l-164 51 q-104 -37 -211 -59 l-23 47 q77 15 153 36 l-101 29 l17 42 ZM908 347 l0 -144 l-70 0 l0 91 l-684 0 l0 -91 l-70 0 l0 144 l824 0 ZM534 503 q83 -21 167 -43 q53 17 102 45 l-284 0 l0 50 l377 0 l0 -51 q-57 -38 -120 -64 l153 -41 l-14 -48 q-108 32 -215 61 q-87 -31 -177 -49 l-22 44 q57 11 114 27 q-49 13 -97 25 l16 44 ZM265 158 l463 0 l0 43 l-463 0 l0 -43 ZM265 -19 l463 0 l0 43 l-463 0 l0 -43 ZM265 70 l463 0 l0 41 l-463 0 l0 -41 ZM140 505 l158 -46 q49 17 95 46 l-253 0 Z" /><glyph glyph-name="uni53E3" unicode="&#x53e3;" d="M860 706 l0 -785 l-88 0 l0 84 l-545 0 l0 -89 l-88 0 l0 790 l721 0 ZM227 94 l545 0 l0 522 l-545 0 l0 -522 Z" /><glyph glyph-name="uni53EF" unicode="&#x53ef;" d="M575 519 l0 -396 l-335 0 l0 -76 l-80 0 l0 472 l415 0 ZM650 -2 q24 0 48 3 q16 2 28 13 q7 8 10 19 q5 22 5 44 l0 581 l-695 0 l0 80 l911 0 l0 -80 l-132 0 l0 -605 q0 -36 -8 -70 q-8 -26 -28 -42 q-18 -12 -39 -17 q-40 -7 -81 -7 l-136 0 l-16 81 l133 0 ZM240 202 l255 0 l0 238 l-255 0 l0 -238 Z" /><glyph glyph-name="uni53F8" unicode="&#x53f8;" d="M640 378 l0 -336 l-398 0 l0 -68 l-88 0 l0 404 l486 0 ZM885 747 l0 -712 q0 -31 -8 -59 q-8 -22 -26 -38 q-16 -10 -34 -15 q-33 -8 -67 -8 l-152 0 l-17 82 l134 0 q22 0 43 3 q15 2 26 12 q7 8 10 18 q4 19 4 39 l0 596 l-680 0 l0 82 l767 0 ZM242 122 l310 0 l0 176 l-310 0 l0 -176 ZM736 559 l0 -79 l-667 0 l0 79 l667 0 Z" /><glyph glyph-name="uni5404" unicode="&#x5404;" d="M33 354 q194 33 379 105 q-88 52 -163 122 q-69 -65 -146 -119 l-49 64 q81 56 151 126 q75 72 135 158 l86 -26 q-22 -33 -46 -62 l457 0 l0 -75 q-108 -113 -243 -189 q85 -32 174 -52 q93 -22 188 -35 l-28 -85 q-125 21 -246 57 q-92 27 -178 68 q-105 -48 -214 -82 q-111 -34 -225 -57 l-32 82 ZM817 277 l0 -372 l-84 0 l0 55 l-470 0 l0 -55 l-84 0 l0 372 l638 0 ZM263 34 l470 0 l0 168 l-470 0 l0 -168 ZM308 639 q86 -85 193 -140 q68 33 131 75 q48 33 89 73 l-406 0 l-7 -8 Z" /><glyph glyph-name="uni5408" unicode="&#x5408;" d="M823 305 l0 -397 l-86 0 l0 50 l-477 0 l0 -49 l-88 0 l0 396 l651 0 ZM32 459 q143 64 266 163 q55 45 103 98 q33 35 60 76 l76 0 q69 -102 166 -179 q122 -95 264 -157 l-44 -81 q-92 42 -175 99 l0 -60 l-502 0 l0 57 q-85 -56 -175 -99 l-39 83 ZM260 35 l477 0 l0 192 l-477 0 l0 -192 ZM500 706 q-48 -62 -105 -114 q-57 -52 -119 -96 l446 0 q-128 87 -222 210 Z" /><glyph glyph-name="uni540C" unicode="&#x540c;" d="M888 743 l0 -708 q0 -32 -8 -62 q-5 -16 -16 -30 q-17 -16 -41 -21 q-32 -7 -65 -7 l-117 0 l-17 77 l106 0 q19 0 39 4 q10 2 18 6 q10 8 13 20 q4 17 4 35 l0 608 l-621 0 l0 -757 l-83 0 l0 835 l788 0 ZM687 382 l0 -316 l-387 0 l0 316 l387 0 ZM377 137 l233 0 l0 173 l-233 0 l0 -173 ZM744 555 l0 -73 l-501 0 l0 73 l501 0 Z" /><glyph glyph-name="uni540E" unicode="&#x540e;" d="M850 304 l0 -399 l-82 0 l0 62 l-381 0 l0 -62 l-81 0 l0 399 l544 0 ZM25 -35 q40 57 72 120 q20 43 33 87 q18 65 23 132 q7 85 7 171 l0 241 q352 8 701 55 l21 -82 q-149 -20 -299 -31 q-172 -14 -343 -21 l0 -125 l696 0 l0 -77 l-696 0 q-1 -83 -8 -164 q-8 -69 -26 -136 q-14 -48 -34 -93 q-32 -66 -72 -128 l-75 51 ZM387 43 l381 0 l0 186 l-381 0 l0 -186 Z" /><glyph glyph-name="uni5427" unicode="&#x5427;" d="M889 741 l0 -430 l-402 0 l0 -221 q-1 -22 4 -43 q3 -11 10 -20 q11 -11 25 -15 q20 -4 41 -3 l199 0 q21 -1 41 3 q11 3 20 8 q11 9 16 22 q5 18 6 37 q2 61 4 124 l80 -17 q-3 -70 -6 -138 q-2 -31 -12 -59 q-6 -16 -19 -29 q-19 -17 -43 -23 q-33 -7 -67 -7 l-246 0 q-34 0 -66 8 q-25 8 -42 27 q-12 16 -18 35 q-9 34 -8 70 l0 671 l483 0 ZM337 707 l0 -607 l-174 0 l0 -71 l-76 0 l0 678 l250 0 ZM163 182 l100 0 l0 446 l-100 0 l0 -446 ZM685 661 l0 -267 l124 0 l0 267 l-124 0 ZM487 394 l121 0 l0 267 l-121 0 l0 -267 Z" /><glyph glyph-name="uni5457" unicode="&#x5457;" d="M342 715 l0 -611 l-175 0 l0 -73 l-77 0 l0 684 l252 0 ZM893 745 l0 -568 l-77 0 l0 490 l-318 0 l0 -489 l-77 0 l0 567 l472 0 ZM308 -34 q90 37 174 88 q42 28 75 66 q37 47 48 105 q12 73 11 148 l0 228 l78 0 l0 -242 q0 -54 -5 -106 q-4 -38 -13 -75 q145 -105 289 -211 l-50 -68 q-132 106 -267 207 q-36 -61 -95 -102 q-41 -28 -86 -53 q-56 -30 -114 -57 l-45 72 ZM167 181 l99 0 l0 457 l-99 0 l0 -457 Z" /><glyph glyph-name="uni5475" unicode="&#x5475;" d="M344 699 l0 -633 l-175 0 l0 -76 l-74 0 l0 709 l249 0 ZM706 -6 q22 0 45 4 q15 2 27 12 q7 8 10 19 q4 20 4 42 l0 578 l-404 0 l0 78 l569 0 l0 -78 l-83 0 l0 -601 q0 -35 -8 -68 q-7 -24 -26 -41 q-16 -11 -36 -16 q-37 -8 -75 -8 l-127 0 l-16 79 l120 0 ZM692 526 l0 -391 l-268 0 l0 391 l268 0 ZM169 143 l101 0 l0 479 l-101 0 l0 -479 ZM497 210 l122 0 l0 243 l-122 0 l0 -243 Z" /><glyph glyph-name="uni548C" unicode="&#x548c;" d="M901 704 l0 -768 l-81 0 l0 69 l-219 0 l0 -75 l-82 0 l0 774 l382 0 ZM67 710 q190 24 378 70 l16 -78 q-75 -20 -151 -33 l0 -141 l171 0 l0 -81 l-171 0 l0 -97 l28 27 q80 -76 157 -154 l-58 -59 q-63 68 -127 135 l0 -397 l-81 0 l0 404 q-64 -126 -154 -233 l-42 81 q115 132 188 293 l-167 0 l0 81 l175 0 l0 127 q-77 -14 -154 -23 l-8 78 ZM601 92 l219 0 l0 525 l-219 0 l0 -525 Z" /><glyph glyph-name="uni54C1" unicode="&#x54c1;" d="M811 762 l0 -324 l-634 0 l0 324 l634 0 ZM899 339 l0 -416 l-79 0 l0 55 l-204 0 l0 -55 l-80 0 l0 416 l363 0 ZM442 339 l0 -416 l-79 0 l0 55 l-193 0 l0 -55 l-80 0 l0 416 l352 0 ZM263 516 l463 0 l0 168 l-463 0 l0 -168 ZM616 55 l204 0 l0 207 l-204 0 l0 -207 ZM170 55 l193 0 l0 207 l-193 0 l0 -207 Z" /><glyph glyph-name="uni54CD" unicode="&#x54cd;" d="M562 683 q22 64 41 131 l85 -14 q-18 -60 -38 -117 l255 0 l0 -653 q0 -28 -7 -54 q-5 -14 -15 -26 q-16 -15 -37 -20 q-29 -6 -58 -6 l-102 0 l-16 77 l95 0 q17 -1 34 2 q11 2 19 9 q5 6 8 14 q3 15 3 30 l0 552 l-372 0 l0 -692 l-76 0 l0 767 l181 0 ZM315 704 l0 -630 l-160 0 l0 -74 l-73 0 l0 704 l233 0 ZM750 489 l0 -390 l-217 0 l0 390 l217 0 ZM155 150 l89 0 l0 477 l-89 0 l0 -477 ZM597 171 l88 0 l0 247 l-88 0 l0 -247 Z" /><glyph glyph-name="uni552E" unicode="&#x552e;" d="M557 820 q36 -53 70 -107 l-33 -13 l318 0 l0 -66 l-312 0 l0 -59 l289 0 l0 -62 l-289 0 l0 -60 l289 0 l0 -62 l-289 0 l0 -60 l334 0 l0 -68 l-689 0 l0 -35 l-83 0 l0 300 q-43 -53 -91 -99 l-44 77 q63 54 111 122 q60 84 103 178 l81 -24 q-21 -42 -43 -82 l261 0 q-27 43 -55 85 l72 35 ZM850 191 l0 -287 l-84 0 l0 47 l-528 0 l0 -47 l-85 0 l0 287 l697 0 ZM238 17 l528 0 l0 107 l-528 0 l0 -107 ZM245 331 l273 0 l0 60 l-273 0 l0 -60 ZM245 453 l273 0 l0 60 l-273 0 l0 -60 ZM245 575 l273 0 l0 59 l-273 0 l0 -59 Z" /><glyph glyph-name="uni5531" unicode="&#x5531;" d="M907 316 l0 -410 l-80 0 l0 44 l-342 0 l0 -45 l-78 0 l0 411 l500 0 ZM338 697 l0 -629 l-165 0 l0 -82 l-79 0 l0 711 l244 0 ZM877 740 l0 -347 l-442 0 l0 347 l442 0 ZM173 152 l86 0 l0 462 l-86 0 l0 -462 ZM485 16 l342 0 l0 83 l-342 0 l0 -83 ZM485 167 l342 0 l0 81 l-342 0 l0 -81 ZM798 462 l0 72 l-285 0 l0 -72 l285 0 ZM513 600 l285 0 l0 71 l-285 0 l0 -71 Z" /><glyph glyph-name="uni5546" unicode="&#x5546;" d="M341 511 q-34 45 -70 89 l44 27 l-259 0 l0 75 l417 0 q-22 43 -42 87 l88 19 q26 -53 52 -106 l373 0 l0 -75 l-272 0 l54 -31 q-30 -44 -62 -85 l217 0 l0 -479 q0 -31 -8 -60 q-5 -17 -17 -30 q-17 -16 -39 -21 q-32 -7 -63 -7 l-117 0 l-16 72 l110 0 q18 0 37 5 q9 3 18 9 q9 9 13 21 q4 17 4 34 l0 382 l-603 0 l0 -527 l-78 0 l0 601 l219 0 ZM205 260 q105 75 197 167 l53 -49 q-56 -55 -115 -104 l327 0 q-58 51 -118 101 l54 50 q98 -81 194 -165 l-52 -57 q-30 28 -60 55 l0 -251 l-370 0 l0 246 l-63 -50 l-47 57 ZM389 80 l222 0 l0 122 l-222 0 l0 -122 ZM393 511 l166 0 q47 55 89 116 l-298 0 q38 -47 75 -95 l-32 -21 Z" /><glyph glyph-name="uni55E8" unicode="&#x55e8;" d="M523 261 l-60 0 l0 68 l65 0 l14 182 l-18 -28 l-63 45 q48 68 88 142 q34 61 58 127 l71 -18 q-15 -42 -32 -81 l286 0 l0 -72 l-322 0 q-22 -43 -47 -82 l327 0 q-4 -108 -6 -215 l71 0 l0 -68 l-73 0 l-4 -144 l65 0 l0 -71 l-67 0 l0 -21 q-1 -30 -9 -59 q-5 -15 -16 -28 q-17 -16 -40 -21 q-32 -6 -65 -6 l-100 0 l-13 70 l113 0 q14 0 27 3 q13 2 23 11 q7 8 10 19 q2 16 3 32 l-303 0 l17 215 ZM311 696 l0 -192 l40 39 q66 -66 130 -135 l-54 -56 q-57 63 -116 124 l0 -399 l-157 0 l0 -73 l-68 0 l0 692 l225 0 ZM154 157 l89 0 l0 460 l-89 0 l0 -460 ZM815 261 l-226 0 l-11 -144 l233 0 l4 144 ZM595 329 l222 0 q2 72 4 145 l-215 0 l-11 -145 ZM456 252 q-47 -174 -89 -348 l-74 19 q49 173 93 348 l36 -10 l34 -9 ZM377 767 q66 -64 131 -129 l-53 -57 q-64 66 -130 131 l52 55 ZM691 470 l87 -87 l-42 -42 l-88 86 l43 43 ZM683 254 q43 -41 85 -83 l-43 -44 q-42 42 -84 85 l42 42 Z" /><glyph glyph-name="uni5668" unicode="&#x5668;&#xfa38;" d="M749 215 q-73 24 -138 63 q-51 31 -94 73 l-43 0 q-41 -48 -97 -78 q-65 -35 -136 -58 l210 0 l0 -304 l-75 0 l0 46 l-181 0 l0 -46 l-75 0 l0 267 q-31 -9 -61 -16 l-23 75 q96 17 190 47 q73 23 135 67 l-292 0 l0 72 l355 0 q20 37 31 78 l88 -12 q-12 -34 -26 -66 l182 0 q-34 27 -66 55 l32 32 l-123 0 l0 250 l341 0 l0 -250 l-190 0 l75 -63 l-24 -24 l183 0 l0 -72 l-303 0 q57 -43 126 -65 q103 -33 211 -47 l-23 -73 l-61 12 l0 -267 l-75 0 l0 46 l-186 0 l0 -46 l-75 0 l0 304 l208 0 ZM451 760 l0 -250 l-339 0 l0 250 l339 0 ZM616 23 l186 0 l0 125 l-186 0 l0 -125 ZM195 23 l181 0 l0 125 l-181 0 l0 -125 ZM617 578 l192 0 l0 115 l-192 0 l0 -115 ZM187 578 l189 0 l0 115 l-189 0 l0 -115 Z" /><glyph glyph-name="uni566A" unicode="&#x566a;" d="M307 709 l0 -630 l-156 0 l0 -75 l-72 0 l0 705 l228 0 ZM596 219 l0 66 l74 0 l0 -66 l260 0 l0 -68 l-236 0 q51 -44 110 -77 q76 -42 157 -71 l-32 -72 q-78 33 -151 75 q-58 34 -108 78 l0 -179 l-74 0 l0 179 q-56 -45 -118 -80 q-82 -45 -169 -81 l-34 72 q80 27 157 66 q73 37 138 90 l-224 0 l0 68 l250 0 ZM849 761 l0 -207 l-433 0 l0 207 l433 0 ZM902 498 l0 -203 l-242 0 l0 203 l242 0 ZM601 498 l0 -203 l-238 0 l0 203 l238 0 ZM151 154 l85 0 l0 480 l-85 0 l0 -480 ZM488 620 l290 0 l0 74 l-290 0 l0 -74 ZM723 359 l115 0 l0 77 l-115 0 l0 -77 ZM427 360 l110 0 l0 75 l-110 0 l0 -75 Z" /><glyph glyph-name="uni56E0" unicode="&#x56e0;" d="M895 750 l0 -848 l-86 0 l0 53 l-618 0 l0 -53 l-86 0 l0 848 l790 0 ZM191 37 l618 0 l0 631 l-618 0 l0 -631 ZM226 150 q51 28 99 62 q38 29 68 66 q48 64 55 144 l0 2 l-208 0 l0 80 l214 0 q3 67 4 136 l84 0 q-1 -69 -6 -136 l222 0 l0 -80 l-228 0 l-3 -29 q-2 -12 -4 -22 q119 -113 236 -228 l-59 -65 q-103 104 -206 208 q-30 -58 -76 -102 q-66 -63 -144 -109 l-48 73 Z" /><glyph glyph-name="uni56F4" unicode="&#x56f4;" d="M896 753 l0 -855 l-82 0 l0 49 l-626 0 l0 -49 l-83 0 l0 855 l791 0 ZM188 21 l626 0 l0 655 l-626 0 l0 -655 ZM426 444 l0 74 l-189 0 l0 66 l189 0 l0 78 l78 0 l0 -78 l254 0 l0 -66 l-254 0 l0 -74 l229 0 l0 -63 l-229 0 l0 -74 l239 0 q-5 -67 -10 -133 q-2 -23 -11 -45 q-5 -12 -15 -22 q-15 -12 -33 -17 q-25 -6 -50 -5 l-85 0 l-12 65 l69 0 q24 -2 47 5 q16 8 18 27 l5 60 l-162 0 l0 -204 l-78 0 l0 204 l-196 0 l0 65 l196 0 l0 74 l-162 0 l0 63 l162 0 Z" /><glyph glyph-name="uni56FD" unicode="&#x56fd;" d="M904 755 l0 -857 l-86 0 l0 53 l-634 0 l0 -52 l-85 0 l0 856 l805 0 ZM184 28 l634 0 l0 650 l-634 0 l0 -650 ZM456 407 l0 116 l-207 0 l0 71 l503 0 l0 -71 l-217 0 l0 -116 l206 0 l0 -72 l-102 0 q44 -54 88 -108 l-52 -41 q-42 57 -87 111 l49 38 l-102 0 l0 -152 l240 0 l0 -73 l-550 0 l0 73 l231 0 l0 152 l-193 0 l0 72 l193 0 Z" /><glyph glyph-name="uni56FE" unicode="&#x56fe;" d="M898 752 l0 -856 l-78 0 l0 52 l-642 0 l0 -52 l-78 0 l0 856 l798 0 ZM178 19 l642 0 l0 660 l-642 0 l0 -660 ZM199 465 q109 88 185 207 l64 -23 q-20 -32 -41 -62 l323 0 l0 -58 q-75 -73 -163 -127 q51 -21 105 -36 q68 -19 137 -32 l-28 -67 q-85 20 -167 49 q-59 21 -114 49 q-67 -33 -136 -57 q140 -31 282 -59 l-10 -61 q-145 32 -290 61 l9 55 q-69 -24 -138 -44 l-28 64 q123 31 242 81 q-57 38 -105 87 q-41 -42 -87 -76 l-40 49 ZM282 187 q205 -40 410 -81 l-12 -62 q-204 42 -408 82 l10 61 ZM373 529 q54 -57 123 -93 q74 36 135 93 l-258 0 Z" /><glyph glyph-name="uni5728" unicode="&#x5728;" d="M23 244 q176 150 282 357 l-254 0 l0 80 l292 0 q26 62 47 128 l84 -20 q-18 -55 -39 -108 l498 0 l0 -80 l-532 0 q-54 -118 -131 -221 l0 -476 l-84 0 l0 375 q-54 -58 -112 -108 l-51 73 ZM658 534 l0 -161 l236 0 l0 -80 l-236 0 l0 -247 l274 0 l0 -80 l-629 0 l0 80 l272 0 l0 247 l-230 0 l0 80 l230 0 l0 161 l83 0 Z" /><glyph glyph-name="uni573A" unicode="&#x573a;" d="M232 49 q56 42 104 94 q-142 -48 -282 -97 l-18 80 q64 18 129 41 l0 317 l-111 0 l0 79 l111 0 l0 235 l83 0 l0 -235 l108 0 l0 -79 l-108 0 l0 -290 q44 14 89 30 l4 -42 l3 -30 q92 103 128 238 l-112 0 l0 68 l335 204 l-302 0 l0 79 l450 0 l0 -81 l-330 -194 l391 0 q-12 -205 -25 -409 q-2 -33 -13 -63 q-7 -18 -20 -31 q-21 -17 -47 -23 q-36 -7 -72 -7 l-107 0 l-15 79 l104 0 q22 -1 43 3 q16 3 27 13 q8 8 12 19 q7 19 9 39 q11 151 22 304 l-97 0 q-13 -83 -36 -164 q-23 -70 -58 -134 q-28 -46 -62 -87 q-51 -58 -111 -107 l-65 52 q56 46 106 98 q32 37 58 78 q34 56 55 118 q24 72 39 146 l-102 0 q-30 -122 -99 -226 q-67 -96 -159 -166 l-59 51 Z" /><glyph glyph-name="uni578B" unicode="&#x578b;" d="M187 520 l0 31 l0 116 l-102 0 l0 75 l492 0 l0 -75 l-102 0 l0 -147 l120 0 l0 -73 l-120 0 l0 -179 l-79 0 l0 179 l-134 0 q-5 -62 -32 -118 q-16 -31 -38 -59 q-27 -32 -57 -61 l-66 48 q26 25 50 53 q19 23 34 48 q23 42 29 89 l-123 0 l0 73 l128 0 ZM463 195 l0 63 l84 0 l0 -63 l304 0 l0 -75 l-304 0 l0 -114 l399 0 l0 -76 l-891 0 l0 76 l408 0 l0 114 l-311 0 l0 75 l311 0 ZM736 343 q17 -1 35 2 q13 3 22 11 q6 6 9 15 q5 15 5 31 l0 376 l80 0 l0 -397 q0 -29 -7 -57 q-7 -21 -23 -35 q-15 -10 -31 -14 q-32 -7 -64 -6 l-89 0 l-16 74 l79 0 ZM702 726 l0 -345 l-79 0 l0 345 l79 0 ZM266 520 l130 0 l0 147 l-130 0 l0 -117 l0 -30 Z" /><glyph glyph-name="uni57CE" unicode="&#x57ce;" d="M516 -40 q101 87 177 199 q-49 198 -65 402 l-207 0 l0 -136 l176 0 q-5 -154 -11 -307 q-1 -27 -8 -53 q-7 -20 -22 -34 q-13 -10 -29 -15 q-27 -7 -55 -6 l-49 0 l-17 81 l44 0 q17 -1 34 2 q9 3 16 8 q9 8 12 20 q4 17 5 35 q5 94 6 190 l-102 0 q-1 -72 -8 -142 q-8 -59 -25 -116 q-13 -41 -32 -80 q-30 -58 -66 -112 l-76 36 q38 53 68 109 q19 38 32 78 q16 58 21 118 q6 76 6 153 l0 249 l281 0 q-6 79 -11 160 l81 0 q2 -81 7 -160 l238 0 l0 -78 l-232 0 q10 -157 42 -310 q55 115 89 239 l70 -19 q-28 -96 -65 -187 q-30 -71 -68 -136 q13 -48 34 -93 q9 -25 24 -45 q8 -10 22 -12 q5 1 10 4 q5 6 8 14 q9 28 14 58 q8 52 14 106 l66 -20 q-7 -63 -18 -125 q-6 -27 -14 -52 q-8 -24 -23 -45 q-23 -27 -57 -27 q-34 1 -58 24 q-33 33 -51 76 q-14 28 -24 59 q-66 -88 -148 -163 l-56 53 ZM220 786 l0 -238 l88 0 l0 -78 l-88 0 l0 -295 q39 12 78 26 l4 -55 l3 -26 q-132 -39 -261 -86 l-14 83 q56 15 112 33 l0 320 l-97 0 l0 78 l97 0 l0 238 l78 0 ZM788 801 q54 -52 105 -107 l-56 -50 q-49 56 -101 109 l52 48 Z" /><glyph glyph-name="uni57DF" unicode="&#x57df;" d="M495 -27 q53 38 102 83 q-154 -38 -307 -79 l-18 81 q163 37 326 79 l6 -36 l5 -34 q45 42 83 91 q-37 204 -44 413 l-310 0 l0 75 l307 0 q-2 75 -2 152 l79 1 q1 -77 2 -153 l223 0 l0 -75 l-221 0 q2 -162 26 -322 q27 51 49 105 q28 72 50 147 l70 -23 q-29 -99 -71 -192 q-34 -74 -78 -141 q11 -46 28 -89 q7 -22 20 -41 q9 -12 24 -12 q12 1 17 14 q10 30 14 61 q7 46 13 94 l68 -21 q-7 -61 -17 -120 q-5 -26 -12 -50 q-8 -24 -22 -44 q-24 -29 -61 -28 q-37 1 -63 27 q-31 33 -47 74 q-12 27 -20 57 q-72 -87 -161 -156 l-58 62 ZM242 784 l0 -233 l97 0 l0 -78 l-97 0 l0 -308 q48 14 97 30 l6 -47 l6 -35 q-148 -41 -293 -87 l-18 81 q61 16 123 35 l0 331 l-104 0 l0 78 l104 0 l0 233 l79 0 ZM597 476 l0 -283 l-236 0 l0 283 l236 0 ZM429 264 l100 0 l0 141 l-100 0 l0 -141 ZM801 809 q58 -51 113 -106 l-49 -51 q-54 55 -110 109 l46 48 Z" /><glyph glyph-name="uni57FA" unicode="&#x57fa;" d="M225 338 l0 309 l-143 0 l0 64 l143 0 l0 75 l82 0 l0 -75 l383 0 l0 75 l82 0 l0 -75 l144 0 l0 -64 l-144 0 l0 -309 l178 0 l0 -66 l-239 0 q44 -50 99 -85 q73 -45 153 -74 l-37 -71 q-101 41 -189 106 q-69 53 -120 124 l-237 0 q-57 -79 -136 -137 q-81 -59 -173 -101 l-37 72 q72 29 138 71 q63 40 114 95 l-237 0 l0 66 l176 0 ZM540 234 l0 -88 l193 0 l0 -67 l-193 0 l0 -86 l368 0 l0 -69 l-820 0 l0 69 l370 0 l0 86 l-198 0 l0 67 l198 0 l0 88 l82 0 ZM307 338 l383 0 l0 62 l-383 0 l0 -62 ZM307 585 l383 0 l0 62 l-383 0 l0 -62 ZM307 462 l383 0 l0 60 l-383 0 l0 -60 Z" /><glyph glyph-name="uni5883" unicode="&#x5883;" d="M254 -40 q44 13 87 29 q43 15 80 40 q54 38 61 103 l0 7 l-109 0 l0 295 l498 0 l0 -295 l-135 0 l0 -105 q-2 -20 8 -36 q5 -7 14 -9 q12 -3 24 -3 l49 0 q22 -1 41 9 q7 5 9 14 q3 11 4 24 q2 50 3 102 l68 -15 q-1 -56 -4 -110 q-2 -23 -8 -45 q-6 -16 -20 -27 q-11 -8 -25 -11 q-26 -5 -52 -5 l-95 0 q-22 0 -44 5 q-16 5 -28 17 q-9 9 -13 21 q-7 21 -6 43 l0 131 l-99 0 l0 -6 q-3 -37 -14 -71 q-17 -42 -50 -71 q-39 -33 -86 -54 q-60 -26 -122 -46 l-36 69 ZM594 718 q-18 40 -37 80 l84 21 q23 -50 44 -101 l236 0 l0 -62 l-162 0 l49 -23 q-21 -38 -43 -74 l188 0 l0 -63 l-610 0 l0 63 l157 0 l-47 77 l42 20 l-145 0 l0 62 l244 0 ZM156 549 l0 250 l77 0 l0 -250 l88 0 l0 -79 l-88 0 l0 -312 l101 33 l5 -40 l6 -41 q-147 -43 -292 -92 l-17 81 q60 16 120 35 l0 336 l-102 0 l0 79 l102 0 ZM797 200 l0 57 l-350 0 l0 -57 l350 0 ZM447 316 l350 0 l0 56 l-350 0 l0 -56 ZM585 559 l95 0 q29 47 55 97 l-208 0 l58 -97 Z" /><glyph glyph-name="uni589E" unicode="&#x589e;" d="M499 811 q42 -54 81 -110 l-31 -19 l128 0 q45 61 87 125 l70 -38 q-29 -45 -59 -87 l134 0 l0 -327 l-554 0 l0 327 l142 0 q-31 44 -64 87 l66 42 ZM869 291 l0 -391 l-77 0 l0 44 l-322 0 l0 -44 l-76 0 l0 391 l475 0 ZM356 96 q-150 -46 -298 -94 l-21 82 q63 18 126 39 l0 343 l-108 0 l0 78 l108 0 l0 248 l76 0 l0 -248 l96 0 l0 -78 l-96 0 l0 -319 l110 37 l3 -45 l4 -43 ZM665 612 l0 -187 l173 0 l0 187 l-173 0 ZM426 425 l171 0 l0 187 l-171 0 l0 -187 ZM470 11 l322 0 l0 73 l-322 0 l0 -73 ZM470 151 l322 0 l0 72 l-322 0 l0 -72 ZM682 478 q43 57 84 117 l55 -36 q-41 -62 -85 -120 l-54 39 ZM500 596 q40 -59 77 -120 l-55 -35 q-37 62 -76 122 l54 33 Z" /><glyph glyph-name="uni58C1" unicode="&#x58c1;" d="M29 329 q46 52 73 117 q26 74 25 153 l0 148 l323 0 l0 -213 l-254 0 q-4 -36 -13 -71 l272 0 l0 -203 l-290 0 l0 148 q-33 -74 -86 -133 l-50 54 ZM665 379 l0 78 l-193 0 l0 67 l139 0 q-30 49 -63 96 l42 22 l-97 0 l0 67 l188 0 q-20 40 -41 81 l75 24 l53 -105 l160 0 l0 -67 l-115 0 l47 -20 q-30 -50 -60 -98 l146 0 l0 -67 l-202 0 l0 -78 l180 0 l0 -66 l-180 0 l0 -100 l-79 0 l0 100 l-174 0 l0 66 l174 0 ZM458 167 l0 71 l83 0 l0 -71 l323 0 l0 -66 l-323 0 l0 -101 l391 0 l0 -68 l-865 0 l0 68 l391 0 l0 101 l-323 0 l0 66 l323 0 ZM198 595 l181 0 l0 94 l-181 0 l0 -94 ZM233 315 l154 0 l0 92 l-154 0 l0 -92 ZM621 524 l99 0 q38 57 71 118 l-174 0 q29 -46 58 -91 l-54 -27 Z" /><glyph glyph-name="uni58EE" unicode="&#x58ee;" d="M717 793 l0 -278 l241 0 l0 -83 l-241 0 l0 -390 l213 0 l0 -82 l-520 0 l0 82 l221 0 l0 390 l-239 0 l0 83 l239 0 l0 278 l86 0 ZM351 795 l0 -888 l-86 0 l0 330 l-196 -144 l-32 92 q114 77 228 156 l0 454 l86 0 ZM133 669 q62 -127 119 -255 l-72 -35 q-58 130 -119 258 l72 32 Z" /><glyph glyph-name="uni5907" unicode="&#x5907;" d="M839 322 l0 -428 l-84 0 l0 47 l-515 0 l0 -47 l-83 0 l0 428 l682 0 ZM37 392 q183 29 360 88 q-75 45 -138 106 q-70 -69 -151 -123 l-53 66 q167 114 283 281 l91 -22 q-23 -36 -49 -68 l464 0 l0 -82 q-115 -96 -248 -161 q73 -25 149 -41 q107 -23 216 -37 l-24 -83 q-135 19 -266 53 q-92 23 -179 62 q-91 -36 -185 -62 q-122 -33 -246 -54 l-24 77 ZM317 645 l0 -1 q79 -78 180 -126 q119 49 222 127 l-402 0 ZM240 12 l217 0 l0 86 l-217 0 l0 -86 ZM539 12 l216 0 l0 86 l-216 0 l0 -86 ZM240 166 l217 0 l0 85 l-217 0 l0 -85 ZM539 251 l0 -85 l216 0 l0 85 l-216 0 Z" /><glyph glyph-name="uni590D" unicode="&#x590d;" d="M37 523 q65 57 119 125 q59 72 103 155 l80 -30 l-33 -56 l614 0 l0 -70 l-661 0 q-24 -35 -50 -66 l625 0 l0 -303 l-496 0 l48 -20 q-18 -21 -37 -40 l505 0 l0 -62 q-104 -76 -222 -126 q155 -36 315 -50 l-17 -78 q-116 17 -231 43 q-86 19 -169 47 q-92 -29 -187 -50 q-129 -28 -259 -49 l-23 70 q184 23 364 69 q-92 39 -174 95 q-79 -63 -168 -108 l-40 65 q72 37 138 86 q64 47 116 108 l-121 0 l0 265 q-41 -45 -85 -86 l-54 66 ZM748 338 l0 64 l-487 0 l0 -64 l487 0 ZM261 457 l487 0 l0 62 l-487 0 l0 -62 ZM320 156 q95 -59 202 -94 q109 34 207 94 l-409 0 Z" /><glyph glyph-name="uni5916" unicode="&#x5916;" d="M33 323 q149 217 216 473 l87 -21 q-19 -67 -41 -132 l238 0 l0 -82 q-19 -105 -56 -205 q-28 -69 -66 -134 q-53 -88 -122 -164 q-79 -85 -168 -161 l-62 70 q86 69 163 149 q48 52 89 109 q50 74 83 156 q34 88 54 180 l-185 0 q-28 -69 -62 -134 q75 -50 149 -101 l-50 -76 q-71 52 -143 102 q-30 -49 -64 -95 l-60 66 ZM694 793 l0 -263 q135 -101 267 -206 l-52 -72 q-108 87 -215 173 l0 -522 l-81 0 l0 890 l81 0 Z" /><glyph glyph-name="uni591A" unicode="&#x591a;" d="M93 555 q105 49 203 113 q96 62 177 144 l77 -34 q-31 -35 -65 -66 l403 0 l0 -74 q-76 -63 -161 -112 q-83 -48 -171 -85 l51 -27 q-32 -36 -66 -67 l373 0 l0 -72 q-141 -148 -325 -234 q-120 -52 -246 -89 q-122 -34 -245 -61 l-43 74 q116 25 231 54 q118 32 231 77 q85 35 164 84 q63 42 119 95 l-344 0 q-31 -24 -62 -44 l137 -77 l-58 -59 q-75 46 -150 92 q-94 -54 -191 -97 l-43 67 q117 49 227 116 q106 64 197 150 q-203 -78 -415 -121 l-37 70 q116 22 231 54 q101 28 199 66 q145 56 273 146 l-370 0 l-47 -33 l123 -65 l-55 -55 q-69 39 -139 76 q-67 -39 -136 -71 l-47 65 Z" /><glyph glyph-name="uni591C" unicode="&#x591c;" d="M263 242 q141 160 220 360 l78 -23 q-15 -36 -30 -71 l343 0 l0 -76 q-32 -104 -86 -198 q-44 -74 -107 -133 q63 -38 132 -66 q72 -29 146 -50 l-40 -79 q-93 32 -181 73 q-65 29 -124 68 q-58 -40 -119 -71 q-86 -44 -175 -80 l-46 76 q82 29 161 66 q57 27 111 61 q-90 78 -146 183 q-38 -51 -80 -98 l-57 58 ZM506 816 q28 -59 56 -117 l-30 -10 l407 0 l0 -77 l-872 0 l0 77 l402 0 q-23 50 -47 99 l84 28 ZM32 259 q142 150 225 341 l77 -26 q-35 -78 -77 -151 l0 -524 l-82 0 l0 404 q-49 -62 -104 -118 l-39 74 ZM493 432 q-22 -42 -46 -81 q60 -120 166 -203 q58 49 100 114 q50 80 78 170 l-298 0 ZM575 418 q65 -65 130 -130 l-53 -54 q-63 68 -126 135 l49 49 Z" /><glyph glyph-name="uni591F" unicode="&#x591f;" d="M464 558 q-4 -251 -7 -500 q-1 -34 -10 -66 q-6 -18 -18 -34 q-18 -18 -43 -26 q-32 -8 -65 -8 l-102 0 l-15 77 l96 0 q22 -1 45 4 q11 3 19 11 q11 12 14 27 q3 23 4 47 q3 254 5 509 l-209 0 q-35 -63 -78 -119 l212 0 l0 -366 l-156 0 l0 -72 l-69 0 l0 419 l-21 -26 l-45 65 q59 73 105 156 q38 68 64 143 l73 -18 q-18 -53 -42 -102 l244 0 q-1 -61 -1 -121 q121 102 196 242 l74 -15 q-20 -42 -46 -80 l239 0 l0 -73 q-39 -65 -93 -118 q-51 -49 -111 -87 l47 -20 q-20 -37 -43 -70 l211 0 l0 -73 q-57 -131 -168 -220 q-48 -37 -100 -67 q-84 -47 -173 -84 l-49 70 q63 23 124 50 q68 32 129 74 q101 70 157 180 l-184 0 q-22 -26 -44 -49 l95 -76 l-55 -50 q-45 39 -90 78 q-36 -32 -74 -60 l-46 56 q140 96 230 241 q-92 -53 -191 -88 l-34 62 q116 39 220 105 q94 60 159 152 l-205 0 q-15 -18 -29 -35 l89 -70 l-53 -46 l-83 68 q-27 -26 -55 -48 l-44 51 ZM156 178 l88 0 l0 236 l-88 0 l0 -236 Z" /><glyph glyph-name="uni5927" unicode="&#x5927;" d="M51 -19 q82 44 157 101 q71 54 128 123 q54 66 85 145 q22 60 30 124 l-381 0 l0 85 l383 0 l0 236 l91 0 l0 -236 l385 0 l0 -85 l-387 0 q-1 -7 -1 -13 q36 -163 148 -286 q44 -48 96 -88 q80 -60 170 -105 l-55 -81 q-130 72 -236 175 q-103 101 -159 235 q-22 -52 -52 -100 q-41 -64 -94 -119 q-56 -56 -118 -103 q-65 -49 -134 -92 l-56 84 Z" /><glyph glyph-name="uni5929" unicode="&#x5929;" d="M48 -27 q86 39 165 90 q66 44 122 101 q35 38 62 82 q33 55 46 119 l-378 0 l0 82 l385 0 l0 203 l-330 0 l0 80 l754 0 l0 -80 l-335 0 l0 -203 l390 0 l0 -82 l-381 0 q39 -122 128 -214 q55 -53 120 -94 q75 -46 156 -79 l-48 -88 q-79 39 -152 86 q-63 40 -117 91 q-87 82 -132 192 q-25 -55 -59 -103 q-41 -55 -92 -101 q-61 -53 -129 -95 q-60 -37 -123 -69 l-52 82 Z" /><glyph glyph-name="uni592A" unicode="&#x592a;" d="M35 -22 q66 41 127 89 q74 61 136 134 q56 67 95 145 q35 72 50 152 l-373 0 l0 86 l381 0 l0 210 l91 0 l0 -210 l387 0 l0 -86 l-383 0 q18 -78 56 -149 q42 -78 100 -146 q112 -131 261 -218 l-57 -80 q-128 80 -228 191 q-111 122 -177 274 q-28 -70 -68 -134 q-44 -69 -98 -130 q-108 -118 -243 -205 l-57 77 ZM425 174 q82 -88 162 -179 l-64 -54 q-78 90 -158 178 l60 55 Z" /><glyph glyph-name="uni5934" unicode="&#x5934;" d="M56 -18 q94 23 186 52 q69 23 134 56 q50 28 90 68 q25 30 44 65 l-450 0 l0 79 l477 0 q10 42 14 86 q7 60 9 121 q3 139 6 280 l86 0 q-3 -147 -6 -292 q-3 -99 -18 -195 l313 0 l0 -79 l-335 0 q-9 -27 -22 -52 l359 -181 l-41 -80 q-182 99 -365 195 q-26 -28 -56 -50 q-46 -34 -98 -57 q-63 -29 -130 -51 q-82 -27 -166 -50 l-31 85 ZM154 559 q137 -81 272 -166 l-47 -72 q-132 86 -268 167 l43 71 ZM227 754 q131 -79 259 -163 l-47 -72 q-127 84 -256 165 l44 70 Z" /><glyph glyph-name="uni5949" unicode="&#x5949;" d="M430 702 q8 46 16 94 l90 -3 l-14 -91 l369 0 l0 -68 l-384 0 q-9 -37 -20 -71 l367 0 l0 -68 l-392 0 q-16 -36 -34 -70 l498 0 l0 -67 l-235 0 q47 -56 107 -97 q75 -51 160 -81 l-41 -71 q-98 40 -181 105 l0 -44 l-200 0 l0 -76 l338 0 l0 -69 l-338 0 l0 -131 l-85 0 l0 131 l-336 0 l0 69 l336 0 l0 76 l-200 0 l0 51 q-86 -68 -181 -118 l-42 69 q81 41 154 95 q55 40 101 91 l-225 0 l0 67 l276 0 q21 33 37 70 l-230 0 l0 68 l257 0 q10 35 19 71 l-324 0 l0 68 l337 0 ZM536 327 l0 -90 l172 0 q-63 54 -110 121 l-214 0 q-51 -68 -114 -121 l181 0 l0 90 l85 0 Z" /><glyph glyph-name="uni594F" unicode="&#x594f;" d="M401 576 q10 32 19 66 l-331 0 l0 67 l345 0 l18 92 l82 -5 l-17 -87 l370 0 l0 -67 l-385 0 q-10 -34 -19 -66 l363 0 l0 -67 l-387 0 q-15 -34 -32 -66 l496 0 l0 -67 l-240 0 q56 -59 127 -101 q69 -39 145 -64 l-35 -75 q-128 49 -234 136 l0 -34 l-157 0 q-2 -29 -2 -57 q-1 -5 -1 -8 l296 0 l0 -66 l-308 0 q-3 -10 -7 -19 q187 -60 373 -122 l-34 -79 q-188 76 -379 140 q-19 -18 -41 -32 q-35 -21 -74 -37 q-112 -41 -230 -65 l-21 76 q73 14 144 33 q39 10 76 25 q36 14 66 36 q22 18 36 44 l-269 0 l0 66 l287 0 q-1 5 1 10 l3 55 l-157 0 l0 36 q-46 -39 -96 -71 q-66 -42 -136 -77 l-31 72 q82 40 158 92 q55 37 101 86 l-230 0 l0 67 l284 0 q20 31 36 66 l-244 0 l0 67 l271 0 ZM650 303 q-36 34 -66 73 l-200 0 q-30 -40 -65 -73 l331 0 Z" /><glyph glyph-name="uni597D" unicode="&#x597d;" d="M33 -35 q60 43 115 93 q41 37 76 82 q-68 54 -138 106 q39 144 63 292 l-93 0 l0 85 l106 0 q11 88 19 178 l84 -7 q-9 -86 -21 -171 l188 0 l0 -81 q-14 -119 -41 -236 q-19 -77 -55 -148 l135 -108 l-58 -69 q-61 53 -123 105 q-34 -45 -75 -84 q-57 -51 -118 -98 l-64 61 ZM650 390 l0 114 l167 147 l-342 0 l0 83 l453 0 l0 -82 l-193 -178 l0 -84 l227 0 l0 -85 l-227 0 l0 -272 q0 -30 -8 -58 q-7 -21 -24 -35 q-15 -10 -32 -15 q-32 -7 -65 -7 l-103 0 l-18 83 l96 0 q18 -1 36 2 q12 3 21 11 q6 7 8 16 q4 16 4 33 l0 242 l-216 0 l0 85 l216 0 ZM268 212 q29 61 47 127 q24 98 37 199 l-121 0 q-22 -130 -55 -257 l92 -69 Z" /><glyph glyph-name="uni5986" unicode="&#x5986;" d="M411 261 q46 124 79 254 l-130 0 l0 82 l151 0 q22 98 38 198 l89 -13 q-18 -93 -39 -185 l362 0 l0 -82 l-101 0 q-20 -118 -57 -231 q-26 -77 -74 -143 q111 -83 220 -169 l-61 -71 q-108 90 -219 174 q-52 -45 -110 -79 q-84 -50 -173 -92 l-49 80 q82 32 160 75 q54 30 102 69 q-93 68 -188 133 ZM323 795 l0 -890 l-80 0 l0 326 q-88 -69 -173 -139 l-37 89 q105 77 210 157 l0 457 l80 0 ZM660 191 q43 57 67 124 q34 98 51 200 l-199 0 q-28 -113 -64 -223 q73 -50 145 -101 ZM125 678 q51 -130 96 -261 l-79 -28 q-44 132 -92 263 l75 26 Z" /><glyph glyph-name="uni59CB" unicode="&#x59cb;" d="M71 225 q39 153 62 311 l-89 0 l0 80 l100 0 q9 88 17 178 l81 -6 q-8 -87 -18 -172 l169 0 l0 -80 q-11 -123 -36 -244 q-18 -80 -53 -154 q61 -52 121 -105 l-51 -68 q-56 51 -112 101 q-30 -42 -63 -79 q-46 -51 -95 -98 l-58 56 q44 41 86 84 q38 41 71 89 q-65 55 -132 107 ZM893 307 l0 -406 l-83 0 l0 53 l-276 0 l0 -52 l-83 0 l0 405 l442 0 ZM788 692 q85 -138 166 -279 l-74 -40 l-31 55 q-188 -9 -375 -19 q-29 -3 -57 -6 l-18 77 q28 8 46 32 q50 66 91 139 q43 73 78 151 l80 -27 q-33 -73 -74 -141 q-42 -75 -94 -142 q140 5 280 13 q-43 75 -86 151 l68 36 ZM534 31 l276 0 l0 199 l-276 0 l0 -199 ZM213 536 q-20 -141 -53 -278 l83 -68 q28 65 41 136 q19 104 29 210 l-100 0 Z" /><glyph glyph-name="uni5B50" unicode="&#x5b50;" d="M463 382 l0 90 l268 182 l-597 0 l0 82 l745 0 l0 -83 l-328 -218 l0 -53 l392 0 l0 -83 l-392 0 l0 -255 q0 -32 -8 -62 q-7 -23 -25 -39 q-17 -10 -36 -15 q-36 -7 -72 -7 l-139 0 l-17 83 l127 0 q22 -1 44 3 q14 2 25 11 q6 8 9 18 q4 18 4 38 l0 225 l-405 0 l0 83 l405 0 Z" /><glyph glyph-name="uni5B58" unicode="&#x5b58;" d="M30 276 q170 141 271 339 l-240 0 l0 77 l275 0 q23 53 41 110 l94 -12 q-16 -50 -35 -98 l512 0 l0 -77 l-545 0 q-50 -109 -121 -203 l0 -512 l-82 0 l0 414 q-61 -65 -129 -122 l-41 84 ZM538 -13 q20 0 40 3 q10 2 19 7 q9 6 13 17 q4 15 4 30 l0 141 l-279 0 l0 76 l279 0 l0 69 l154 101 l-364 0 l0 75 l499 0 l0 -75 l-208 -137 l0 -33 l259 0 l0 -76 l-259 0 l0 -159 q0 -29 -7 -57 q-6 -22 -22 -37 q-15 -10 -32 -15 q-34 -7 -68 -7 l-116 0 l-15 77 l103 0 Z" /><glyph glyph-name="uni5B66" unicode="&#x5b66;" d="M471 230 l0 48 l173 93 l-426 0 l0 80 l564 0 l0 -77 l-223 -129 l0 -15 l381 0 l0 -81 l-381 0 l0 -118 q0 -31 -8 -60 q-6 -17 -18 -30 q-19 -16 -43 -21 q-36 -6 -71 -6 l-127 0 l-18 82 l126 0 q19 0 38 3 q12 1 22 9 q5 6 8 15 q3 16 3 34 l0 92 l-412 0 l0 81 l412 0 ZM483 808 q45 -83 90 -165 l-38 -18 l113 0 q62 83 114 174 l80 -41 q-47 -67 -94 -133 l163 0 l0 -196 l-83 0 l0 117 l-657 0 l0 -117 l-83 0 l0 196 l155 0 l-87 137 l75 37 q52 -78 102 -156 l-34 -18 l187 0 q-39 75 -78 150 l75 33 Z" /><glyph glyph-name="uni5B89" unicode="&#x5b89;" d="M183 195 q49 69 92 144 l-225 0 l0 79 l268 0 q40 78 76 160 l87 -29 q-28 -67 -61 -131 l530 0 l0 -79 l-180 0 q-29 -72 -70 -138 q-33 -52 -78 -95 q150 -64 299 -131 l-47 -78 q-163 79 -329 150 q-84 -50 -176 -80 q-145 -48 -295 -77 l-25 86 q126 20 249 53 q79 22 154 59 q-134 56 -269 107 ZM486 682 l-59 101 l86 28 q36 -65 74 -129 l314 0 l0 -192 l-83 0 l0 113 l-630 0 l0 -113 l-85 0 l0 192 l383 0 ZM311 231 q113 -44 226 -89 q42 34 74 80 q36 55 60 117 l-294 0 q-30 -56 -66 -108 Z" /><glyph glyph-name="uni5B98" unicode="&#x5b98;" d="M807 530 l0 -240 l-536 0 l0 -88 l563 0 l0 -301 l-86 0 l0 46 l-477 0 l0 -51 l-86 0 l0 634 l622 0 ZM465 698 q-19 44 -38 88 l95 23 q25 -56 49 -111 l340 0 l0 -182 l-89 0 l0 105 l-643 0 l0 -105 l-89 0 l0 182 l375 0 ZM271 129 l0 -111 l477 0 l0 111 l-477 0 ZM271 363 l449 0 l0 95 l-449 0 l0 -95 Z" /><glyph glyph-name="uni5B9A" unicode="&#x5b9a;" d="M38 -51 q42 43 77 90 q22 32 40 68 q23 48 35 101 q13 62 19 125 l85 -8 q-7 -77 -25 -150 q30 -57 80 -98 q56 -42 126 -53 l0 387 l-367 0 l0 76 l790 0 l0 -76 l-339 0 l0 -150 l302 0 l0 -76 l-302 0 l0 -169 l9 0 l391 0 l-18 -79 l-380 0 q-54 1 -107 10 q-48 10 -92 31 q-75 37 -122 108 q-21 -49 -51 -91 q-37 -54 -83 -101 l-68 55 ZM481 699 l-51 91 l86 19 q31 -55 60 -110 l332 0 l0 -178 l-81 0 l0 102 l-648 0 l0 -103 l-82 0 l0 179 l384 0 Z" /><glyph glyph-name="uni5B9D" unicode="&#x5b9d;" d="M451 280 l0 129 l-338 0 l0 81 l775 0 l0 -81 l-350 0 l0 -129 l318 0 l0 -82 l-146 0 q53 -66 104 -134 l-54 -40 l166 0 l0 -81 l-854 0 l0 81 l379 0 l0 174 l-308 0 l0 82 l308 0 ZM475 693 l-51 95 l86 25 l66 -120 l332 0 l0 -176 l-90 0 l0 98 l-640 0 l0 -98 l-86 0 l0 176 l383 0 ZM704 198 l-166 0 l0 -174 l202 0 q-48 64 -97 128 l61 46 Z" /><glyph glyph-name="uni5B9E" unicode="&#x5b9e;" d="M71 -23 q86 16 171 37 q64 17 126 43 q35 16 68 37 q36 25 63 60 l-442 0 l0 77 l480 0 q9 33 13 67 q5 46 7 92 q1 90 5 181 l86 0 q-2 -97 -6 -192 q-2 -75 -18 -148 l318 0 l0 -77 l-345 0 q-7 -16 -16 -30 q176 -73 353 -144 l-41 -77 q-181 82 -363 159 q-26 -24 -56 -43 q-45 -27 -95 -46 q-61 -24 -124 -41 q-77 -20 -154 -36 l-30 81 ZM481 686 q-26 50 -56 99 l84 32 q33 -58 64 -116 l-50 -15 l386 0 l0 -200 l-84 0 l0 124 l-650 0 l0 -122 l-82 0 l0 198 l388 0 ZM195 434 q122 -65 243 -132 l-39 -66 q-119 68 -239 134 l35 64 ZM283 581 q112 -63 225 -126 l-36 -72 q-112 67 -225 131 l36 67 Z" /><glyph glyph-name="uni5BA4" unicode="&#x5ba4;" d="M127 323 q35 6 66 26 q74 48 142 108 l-187 0 l0 70 l693 0 l0 -70 l-177 0 q107 -90 213 -181 l-55 -55 l-63 56 q-263 -4 -524 -12 q-47 -3 -93 -6 l-15 64 ZM538 254 l0 -78 l307 0 l0 -74 l-307 0 l0 -100 l398 0 l0 -70 l-885 0 l0 70 l402 0 l0 100 l-310 0 l0 74 l310 0 l0 78 l85 0 ZM469 690 q-27 45 -51 92 l85 29 l65 -121 l337 0 l0 -147 l-83 0 l0 74 l-656 0 l0 -74 l-83 0 l0 147 l386 0 ZM647 457 l-197 0 q-73 -68 -156 -122 q193 3 387 9 q-40 34 -81 67 l47 46 Z" /><glyph glyph-name="uni5BB3" unicode="&#x5bb3;" d="M460 312 l0 54 l-294 0 l0 62 l294 0 l0 54 l-307 0 l0 66 l307 0 l0 61 l82 0 l0 -61 l307 0 l0 -66 l-307 0 l0 -54 l294 0 l0 -62 l-294 0 l0 -54 l392 0 l0 -67 l-392 0 l0 -67 l290 0 l0 -277 l-83 0 l0 43 l-495 0 l0 -43 l-83 0 l0 277 l289 0 l0 67 l-392 0 l0 67 l392 0 ZM475 701 q-23 40 -46 81 l84 27 q29 -54 58 -108 l340 0 l0 -137 l-83 0 l0 69 l-654 0 l0 -69 l-83 0 l0 137 l384 0 ZM254 13 l495 0 l0 97 l-495 0 l0 -97 Z" /><glyph glyph-name="uni5BF8" unicode="&#x5bf8;" d="M554 15 q24 -1 48 3 q16 3 29 14 q7 9 10 20 q5 21 5 43 l0 443 l-592 0 l0 86 l592 0 l0 174 l91 0 l0 -174 l208 0 l0 -86 l-208 0 l0 -472 q0 -37 -9 -71 q-9 -26 -30 -43 q-18 -12 -40 -18 q-40 -8 -80 -8 l-158 0 l-20 89 l154 0 ZM237 482 q120 -121 238 -244 l-68 -68 q-116 126 -234 250 l64 62 Z" /><glyph glyph-name="uni5BF9" unicode="&#x5bf9;" d="M133 547 l147 -195 q52 124 75 258 l-294 0 l0 82 l379 0 l0 -83 q-30 -174 -104 -334 q77 -105 154 -211 l-71 -53 q-63 90 -127 181 q-85 -146 -201 -269 l-60 66 q121 126 207 279 q-85 116 -171 232 l66 47 ZM671 0 q21 0 42 3 q10 2 19 8 q10 9 13 22 q4 19 4 39 l0 447 l-288 0 l0 83 l288 0 l0 193 l87 0 l0 -193 l121 0 l0 -83 l-121 0 l0 -472 q0 -33 -9 -64 q-8 -25 -27 -41 q-17 -12 -36 -18 q-36 -8 -73 -8 l-124 0 l-18 84 l122 0 ZM528 454 q80 -114 156 -229 l-70 -43 q-75 116 -152 230 l66 42 Z" /><glyph glyph-name="uni5C04" unicode="&#x5c04;" d="M34 -10 q80 41 151 97 q54 45 97 102 l-232 0 l0 67 l75 0 l0 440 l108 0 q17 50 32 102 l86 -16 q-15 -44 -30 -86 l156 0 l0 -679 q0 -27 -8 -53 q-5 -14 -16 -26 q-16 -14 -38 -19 q-29 -6 -59 -6 l-108 0 l-14 72 l100 0 q19 0 38 4 q9 2 17 8 q9 6 12 18 q4 14 4 30 l0 144 l-32 0 q-56 -83 -131 -149 q-76 -65 -161 -116 l-47 66 ZM688 -8 q21 0 43 4 q11 3 21 7 q10 9 14 22 q5 18 5 37 l0 450 l-261 0 l0 75 l261 0 l0 200 l78 0 l0 -200 l101 0 l0 -75 l-101 0 l0 -472 q0 -31 -8 -60 q-7 -23 -26 -39 q-15 -11 -34 -17 q-34 -8 -69 -8 l-123 0 l-16 76 l115 0 ZM583 439 q72 -112 140 -226 l-67 -42 q-66 115 -135 229 l62 39 ZM199 256 l206 0 l0 82 l-206 0 l0 -82 ZM199 548 l206 0 l0 81 l-206 0 l0 -81 ZM199 402 l206 0 l0 81 l-206 0 l0 -81 Z" /><glyph glyph-name="uni5C06" unicode="&#x5c06;" d="M358 376 q86 25 170 58 q53 22 103 48 q115 59 202 156 l-281 0 l-35 -33 l113 -80 l-54 -59 q-60 46 -120 90 q-39 -30 -79 -55 l-47 63 q85 54 159 123 q61 57 110 125 l74 -37 q-27 -38 -58 -72 l311 0 l0 -79 q-92 -117 -221 -189 q-56 -31 -116 -57 q-95 -40 -193 -70 l-38 68 ZM467 228 l-123 0 l0 75 l414 0 l0 123 l81 0 l0 -123 l116 0 l0 -75 l-116 0 l0 -190 q0 -33 -7 -63 q-6 -22 -24 -38 q-15 -10 -32 -15 q-34 -7 -68 -7 l-108 0 l-16 76 l98 0 q20 0 40 3 q13 2 23 9 q6 7 9 16 q4 16 4 34 l0 175 l-279 0 l149 -147 l-60 -60 q-74 80 -150 158 l49 49 ZM314 790 l0 -888 l-79 0 l0 347 l-166 -137 l-42 77 q104 78 208 158 l0 443 l79 0 ZM119 680 q50 -135 97 -270 l-76 -30 q-48 136 -95 273 l74 27 Z" /><glyph glyph-name="uni5C0F" unicode="&#x5c0f;" d="M381 8 q22 -1 43 3 q11 3 20 10 q10 10 12 24 q4 21 4 42 l0 695 l90 0 l0 -723 q0 -37 -8 -71 q-6 -19 -19 -35 q-19 -19 -46 -26 q-37 -8 -75 -8 l-129 0 l-18 89 l126 0 ZM31 109 q61 112 106 231 q51 132 85 271 l88 -20 q-69 -273 -198 -521 l-81 39 ZM734 615 q123 -256 235 -517 l-88 -38 q-108 263 -228 522 l81 33 Z" /><glyph glyph-name="uni5C14" unicode="&#x5c14;" d="M58 445 q73 73 133 158 q67 94 113 199 l82 -29 q-22 -54 -50 -104 l581 0 l0 -79 l-123 -192 l-82 31 l108 158 l-534 0 q-72 -109 -162 -202 l-66 60 ZM393 0 q20 0 40 3 q10 3 19 8 q9 8 13 21 q4 16 4 33 l0 473 l88 0 l0 -511 q0 -28 -9 -55 q-6 -16 -18 -29 q-19 -16 -43 -22 q-33 -7 -66 -7 l-118 0 l-18 86 l108 0 ZM32 26 q142 169 236 371 l79 -33 q-98 -206 -238 -384 l-77 46 ZM712 399 q123 -185 244 -372 l-78 -48 q-114 190 -236 375 l70 45 Z" /><glyph glyph-name="uni5C31" unicode="&#x5c31;" d="M204 -1 q16 0 33 2 q8 2 15 7 q7 6 10 16 q3 15 3 30 l0 225 l-151 0 l0 253 l362 0 l0 -253 l-134 0 l0 -249 q0 -29 -6 -55 q-5 -14 -14 -27 q-14 -14 -33 -19 q-27 -6 -54 -6 l-78 0 l-15 76 l62 0 ZM406 -49 q52 59 95 125 q36 59 59 125 q17 53 26 108 q13 91 17 183 l-96 0 l0 75 l99 0 l0 5 q1 112 2 226 l76 0 q-3 -113 -3 -226 l0 -5 l267 0 l0 -75 l-268 0 q-3 -100 -17 -199 q-10 -61 -28 -119 q-24 -72 -63 -138 q-44 -70 -96 -135 l-70 50 ZM791 474 l0 -431 q-2 -19 8 -35 q5 -5 12 -7 q9 -1 19 -1 l10 0 q11 0 21 1 q8 2 13 8 q8 15 7 33 q2 76 3 153 l66 -14 q-2 -78 -4 -154 q-1 -26 -8 -50 q-5 -14 -14 -26 q-13 -14 -30 -19 q-24 -7 -47 -7 l-44 0 q-22 0 -42 7 q-16 7 -27 21 q-9 12 -13 26 q-6 23 -5 49 l0 446 l75 0 ZM305 812 q28 -56 53 -113 l-29 -9 l202 0 l0 -75 l-467 0 l0 75 l212 0 q-22 49 -46 98 l75 24 ZM189 346 l211 0 l0 119 l-211 0 l0 -119 ZM30 0 q65 114 111 238 l68 -28 q-44 -128 -112 -245 l-67 35 ZM786 779 q67 -67 132 -135 l-55 -50 q-63 69 -129 137 l52 48 ZM433 241 q42 -67 84 -133 l-59 -41 q-41 68 -83 137 l58 37 Z" /><glyph glyph-name="uni5C3A" unicode="&#x5c3a;" d="M40 -59 q38 54 70 111 q26 53 41 111 q11 49 17 99 q7 85 7 171 l0 314 l682 0 l0 -378 l-318 0 q39 -120 129 -209 q57 -53 124 -92 q79 -46 165 -79 l-46 -84 q-93 40 -178 94 q-76 48 -138 112 q-106 111 -151 258 l-183 0 q-2 -80 -12 -160 q-7 -48 -19 -96 q-16 -58 -43 -113 q-31 -56 -68 -109 l-79 50 ZM262 455 l507 0 l0 207 l-507 0 l0 -207 Z" /><glyph glyph-name="uni5C3D" unicode="&#x5c3d;" d="M35 37 q42 58 77 121 q21 41 36 85 q18 63 25 128 q7 84 7 169 l0 213 l679 0 l0 -314 l-226 0 q47 -88 122 -153 q96 -83 212 -136 l-46 -78 q-132 64 -236 168 q-88 87 -141 199 l-280 0 q-3 -70 -14 -139 q-11 -61 -32 -120 q-43 -106 -113 -197 l-70 54 ZM266 520 l508 0 l0 151 l-508 0 l0 -151 ZM297 131 q226 -74 452 -150 l-29 -81 q-225 82 -452 157 l29 74 ZM368 326 q147 -49 293 -100 l-26 -77 q-145 55 -290 105 l23 72 Z" /><glyph glyph-name="uni5C4F" unicode="&#x5c4f;" d="M38 -62 q60 100 83 215 q10 52 15 105 q7 91 7 183 l0 309 l753 0 l0 -229 l-168 0 l64 -35 q-30 -45 -62 -86 l187 0 l0 -74 l-159 0 l0 -124 l190 0 l0 -74 l-190 0 l0 -226 l-83 0 l0 226 l-199 0 q-7 -69 -43 -127 q-21 -31 -50 -58 q-35 -31 -73 -59 l-59 57 q33 25 65 51 q24 20 43 44 q29 41 35 92 l-163 0 l0 74 l168 0 l0 32 l0 92 l-140 0 l0 74 l189 0 q-34 46 -71 91 l48 30 l-196 0 l0 -98 q-1 -72 -5 -144 q-6 -78 -20 -156 q-24 -121 -85 -227 l-81 42 ZM229 593 l581 0 l0 84 l-581 0 l0 -84 ZM482 238 q-1 -19 -1 -36 l194 0 l0 124 l-193 0 l0 -88 ZM496 400 l136 0 q46 58 86 121 l-269 0 q40 -49 78 -100 l-31 -21 Z" /><glyph glyph-name="uni5C55" unicode="&#x5c55;" d="M410 439 l0 70 l76 0 l0 -70 l182 0 l0 70 l77 0 l0 -70 l165 0 l0 -67 l-165 0 l0 -91 l203 0 l0 -67 l-381 0 q37 -62 93 -107 q87 49 171 105 l44 -52 q-78 -48 -156 -93 q53 -31 112 -50 q61 -19 125 -31 l-33 -74 q-82 19 -158 51 q-67 28 -127 69 q-98 73 -155 182 l-86 0 l0 -225 q85 30 171 62 l9 -71 l-204 -68 q-27 -9 -53 -21 l-30 63 q12 6 22 17 q6 8 6 18 l0 225 l-102 0 q-7 -78 -29 -152 q-27 -85 -69 -165 l-75 38 q31 57 55 115 q15 41 25 84 q13 66 16 133 q5 92 5 185 l0 302 l746 0 l0 -223 l-667 0 l0 -120 q0 -66 -3 -130 l190 0 l0 91 l-158 0 l0 67 l158 0 ZM223 598 l588 0 l0 89 l-588 0 l0 -89 ZM486 281 l182 0 l0 91 l-182 0 l0 -91 Z" /><glyph glyph-name="uni5DE5" unicode="&#x5de5;" d="M886 719 l0 -89 l-339 0 l0 -579 l399 0 l0 -85 l-891 0 l0 85 l399 0 l0 579 l-338 0 l0 89 l770 0 Z" /><glyph glyph-name="uni5DEE" unicode="&#x5dee;" d="M324 678 q-43 51 -87 100 l65 47 q56 -61 110 -125 l-30 -22 l182 0 q58 67 114 139 l76 -39 q-41 -52 -85 -100 l244 0 l0 -70 l-395 0 q-3 -13 -3 -25 l-11 -59 l369 0 l0 -69 l-386 0 q-13 -44 -30 -85 l481 0 l0 -70 l-515 0 q-27 -49 -62 -90 l497 0 l0 -71 l-267 0 l0 -133 l341 0 l0 -70 l-804 0 l0 70 l375 0 l0 133 l-211 0 q-44 -40 -93 -73 q-63 -42 -130 -77 l-36 70 q86 42 163 102 q75 59 129 139 l-273 0 l0 70 l313 0 q20 41 34 85 l-279 0 l0 69 l298 0 q6 28 11 57 q1 13 4 27 l-354 0 l0 70 l245 0 Z" /><glyph glyph-name="uni5DF1" unicode="&#x5df1;" d="M838 741 l0 -387 l-616 0 l0 -241 q-1 -27 4 -53 q4 -13 12 -24 q14 -13 32 -17 q26 -5 54 -4 l388 0 q29 -1 59 3 q14 3 27 10 q13 10 18 26 q6 23 7 47 q3 60 5 122 l92 -20 q-3 -67 -8 -132 q-3 -37 -14 -72 q-10 -26 -31 -43 q-19 -13 -41 -18 q-42 -8 -84 -8 l-447 0 q-41 0 -81 8 q-30 7 -51 28 q-15 18 -21 39 q-10 41 -9 85 l0 348 l615 0 l0 218 l-636 0 l0 85 l726 0 Z" /><glyph glyph-name="uni5E08" unicode="&#x5e08;" d="M945 741 l0 -77 l-248 0 l0 -124 l200 0 l0 -399 q0 -27 -6 -54 q-3 -14 -12 -25 q-12 -14 -31 -18 q-25 -6 -51 -5 l-65 0 l-17 78 l56 0 q14 -1 28 2 q7 1 13 5 q7 7 9 17 q2 15 2 30 l0 291 l-126 0 l0 -560 l-75 0 l0 560 l-122 0 l0 -424 l-75 0 l0 502 l197 0 l0 124 l-224 0 l0 77 l547 0 ZM76 -54 q56 47 105 101 q27 34 47 74 q23 57 30 119 q8 85 8 170 l0 381 l77 0 l0 -375 q0 -95 -10 -189 q-9 -72 -35 -139 q-21 -46 -51 -87 q-49 -60 -108 -112 l-63 57 ZM166 726 l0 -595 l-73 0 l0 595 l73 0 Z" /><glyph glyph-name="uni5E26" unicode="&#x5e26;" d="M461 288 l0 83 l77 0 l0 -83 l281 0 l0 -201 q0 -29 -6 -58 q-5 -20 -20 -34 q-13 -10 -29 -14 q-29 -7 -58 -7 l-97 0 l-16 74 l84 0 q25 -2 48 9 q8 5 12 15 q3 11 4 24 l0 120 l-203 0 l0 -314 l-77 0 l0 314 l-204 0 l0 -246 l-77 0 l0 318 l281 0 ZM770 795 l0 -115 l171 0 l0 -74 l-171 0 l0 -97 l-78 0 l0 97 l-153 0 l0 -97 l-79 0 l0 97 l-154 0 l0 -97 l-77 0 l0 97 l-171 0 l0 74 l171 0 l0 115 l77 0 l0 -115 l154 0 l0 115 l79 0 l0 -115 l153 0 l0 115 l78 0 ZM908 475 l0 -175 l-79 0 l0 101 l-659 0 l0 -101 l-78 0 l0 175 l816 0 Z" /><glyph glyph-name="uni5E27" unicode="&#x5e27;" d="M276 799 l0 -171 l129 0 l0 -465 q-1 -15 -3 -30 q-4 -15 -13 -27 q-10 -10 -23 -15 q-15 -5 -31 -4 l-43 0 l-15 75 l24 0 q9 -1 18 1 q4 2 8 5 q4 5 5 11 q1 9 1 18 l0 354 l-58 0 l0 -646 l-70 0 l0 646 l-58 0 l0 -467 l-72 0 l0 544 l128 0 l0 171 l73 0 ZM701 800 l0 -95 l230 0 l0 -76 l-230 0 l0 -100 l187 0 l0 -404 l-74 0 l0 328 l-274 0 l0 -328 l-72 0 l0 404 l157 0 l0 271 l76 0 ZM374 -32 q75 30 144 70 q36 23 65 53 q31 36 43 81 q12 52 13 105 l0 129 l73 0 l0 -145 q-1 -50 -11 -97 q128 -98 255 -197 l-53 -61 q-113 95 -228 186 q-38 -65 -100 -106 q-78 -52 -163 -88 l-38 70 Z" /><glyph glyph-name="uni5E2E" unicode="&#x5e2e;" d="M253 705 l0 83 l85 0 l0 -83 l175 0 l0 -67 l-175 0 l0 -72 l157 0 l0 -68 l-158 0 q-1 -36 -4 -71 l186 0 l0 -69 l-201 0 q-27 -80 -94 -128 l234 0 l0 77 l84 0 l0 -77 l305 0 l0 -174 q0 -28 -8 -53 q-5 -14 -15 -25 q-16 -14 -37 -19 q-27 -6 -55 -6 l-114 0 l-14 71 l97 0 q24 -2 47 7 q16 11 15 32 l0 94 l-221 0 l0 -262 l-84 0 l0 262 l-211 0 l0 -208 l-85 0 l0 239 q-32 -18 -63 -34 l-49 63 q36 17 72 37 q28 15 53 35 q35 28 55 69 l-179 0 l0 69 l197 0 q4 35 5 71 l-165 0 l0 68 l165 0 l0 72 l-184 0 l0 67 l184 0 ZM904 739 l0 -73 q-43 -58 -85 -114 q41 -24 73 -59 q27 -32 28 -74 q0 -24 -8 -46 q-10 -19 -27 -30 q-25 -13 -52 -17 q-29 -3 -57 -3 l-93 0 l-15 70 l78 0 q25 -1 50 2 q11 2 22 6 q10 5 14 15 q4 11 4 23 q-1 11 -7 22 q-8 14 -20 25 q-37 33 -81 54 l93 126 l-184 0 l0 -385 l-79 0 l0 458 l346 0 Z" /><glyph glyph-name="uni5E38" unicode="&#x5e38;" d="M789 502 l0 -206 l-247 0 l0 -70 l320 0 l0 -175 q0 -26 -7 -50 q-5 -13 -15 -23 q-16 -13 -36 -18 q-30 -5 -59 -5 l-108 0 l-15 75 l97 0 q17 -1 34 2 q8 1 15 6 q8 5 10 14 q3 13 3 26 l0 77 l-239 0 l0 -258 l-82 0 l0 258 l-238 0 l0 -204 l-80 0 l0 275 l318 0 l0 70 l-247 0 l0 206 l576 0 ZM231 794 q64 -57 126 -117 l-38 -35 l141 0 l0 158 l82 0 l0 -158 l133 0 l-35 30 q66 57 125 122 l57 -48 q-50 -54 -103 -104 l189 0 l0 -197 l-77 0 l0 124 l-660 0 l0 -123 l-78 0 l0 196 l185 0 q-52 51 -105 101 l58 51 ZM286 361 l430 0 l0 75 l-430 0 l0 -75 Z" /><glyph glyph-name="uni5E55" unicode="&#x5e55;" d="M836 620 l0 -264 l-366 0 q-14 -27 -31 -51 l500 0 l0 -62 l-234 0 q55 -48 120 -80 q66 -31 137 -48 l-24 -73 q-70 22 -135 55 l0 -62 q0 -25 -6 -47 q-5 -12 -14 -23 q-14 -12 -33 -17 q-28 -5 -55 -5 l-89 0 l-12 59 l77 0 q14 -1 28 2 q9 1 17 7 q10 15 9 35 l0 47 l-185 0 l0 -194 l-80 0 l0 194 l-184 0 l0 -153 l-76 0 l0 155 q-63 -34 -128 -61 l-34 69 q78 28 150 68 q54 30 100 72 l-227 0 l0 62 l284 0 q18 24 34 51 l-213 0 l0 264 l670 0 ZM303 733 l0 68 l83 0 l0 -68 l227 0 l0 68 l85 0 l0 -68 l242 0 l0 -60 l-242 0 l0 -37 l-85 0 l0 37 l-227 0 l0 -37 l-83 0 l0 37 l-242 0 l0 60 l242 0 ZM248 516 l503 0 l0 48 l-503 0 l0 -48 ZM751 413 l0 48 l-503 0 l0 -48 l503 0 ZM540 216 l0 -64 l171 0 q-58 39 -105 91 l-215 0 q-46 -52 -101 -91 l170 0 l0 64 l80 0 Z" /><glyph glyph-name="uni5E72" unicode="&#x5e72;" d="M453 397 l0 254 l-326 0 l0 84 l745 0 l0 -84 l-327 0 l0 -254 l398 0 l0 -86 l-398 0 l0 -403 l-92 0 l0 403 l-398 0 l0 86 l398 0 Z" /><glyph glyph-name="uni5E76" unicode="&#x5e76;" d="M295 813 q65 -77 129 -154 l-47 -36 l197 0 q64 89 125 182 l80 -43 q-50 -71 -100 -139 l240 0 l0 -80 l-188 0 l0 -220 l225 0 l0 -82 l-225 0 l0 -338 l-86 0 l0 338 l-276 0 q-6 -62 -21 -121 q-12 -38 -30 -73 q-26 -46 -63 -83 q-45 -44 -96 -81 l-62 67 q46 34 89 72 q32 31 56 69 q15 27 25 57 q13 45 17 93 l-240 0 l0 82 l244 0 q1 24 1 49 l0 171 l-205 0 l0 80 l259 0 l-116 142 l68 48 ZM374 381 q0 -30 -1 -58 l272 0 l0 220 l-271 0 l0 -162 Z" /><glyph glyph-name="uni5E78" unicode="&#x5e78;" d="M459 126 l0 107 l-345 0 l0 71 l221 0 q-45 53 -90 106 l39 28 l-239 0 l0 75 l414 0 l0 103 l-335 0 l0 74 l335 0 l0 104 l81 0 l0 -104 l334 0 l0 -74 l-334 0 l0 -103 l414 0 l0 -75 l-261 0 l52 -29 q-38 -55 -79 -105 l218 0 l0 -71 l-345 0 l0 -107 l395 0 l0 -76 l-395 0 l0 -150 l-80 0 l0 150 l-395 0 l0 76 l395 0 ZM561 304 q55 63 103 134 l-341 0 q45 -51 89 -103 l-40 -31 l189 0 Z" /><glyph glyph-name="uni5E7B" unicode="&#x5e7b;" d="M64 74 q39 13 65 45 q38 46 72 96 q53 76 102 156 q-84 -4 -168 -5 q-34 -5 -66 -11 l-22 80 q17 7 32 17 q14 12 24 29 q49 71 90 148 q43 76 79 157 l80 -35 q-73 -157 -163 -303 l163 5 q41 69 79 142 l77 -40 q-63 -118 -134 -231 q-75 -122 -160 -237 q110 8 221 19 q-35 72 -71 143 l75 40 q72 -139 140 -280 l-80 -39 l-27 57 l-312 -27 q-37 -1 -71 -10 l-25 84 ZM900 718 q-12 -335 -26 -668 q-2 -32 -13 -62 q-10 -24 -31 -40 q-18 -12 -38 -17 q-36 -9 -72 -9 l-117 0 l-17 84 l95 0 q27 -1 54 3 q18 4 33 15 q9 9 14 21 q7 21 8 44 q12 272 23 546 l-366 0 l0 83 l453 0 Z" /><glyph glyph-name="uni5E7F" unicode="&#x5e7f;" d="M37 -60 q38 58 68 120 q18 41 31 85 q16 60 21 123 q6 78 6 156 l0 251 l373 0 q-30 58 -59 116 l83 19 l70 -135 l316 0 l0 -80 l-698 0 l0 -163 q0 -88 -7 -175 q-6 -70 -23 -138 q-13 -47 -32 -92 q-31 -66 -69 -129 l-80 42 Z" /><glyph glyph-name="uni5E8F" unicode="&#x5e8f;" d="M436 465 q73 -49 146 -98 q89 54 177 111 l-455 0 l0 73 l583 0 l0 -75 q-120 -78 -241 -153 l9 -6 l-10 -10 l298 0 l0 -75 l-99 -169 l-76 32 l86 135 l-212 0 l0 -210 q0 -31 -9 -61 q-6 -17 -18 -29 q-19 -16 -44 -22 q-34 -6 -68 -6 l-116 0 l-16 78 l115 0 q19 0 39 3 q13 2 23 10 q6 6 8 14 q4 15 4 32 l0 191 l-298 0 l0 77 l283 0 q-80 53 -160 106 l51 52 ZM46 -67 q55 85 81 184 q13 58 17 117 q5 74 5 149 l0 323 l369 0 q-20 41 -39 83 l83 24 l50 -107 l336 0 l0 -79 l-716 0 l0 -235 q0 -86 -6 -171 q-5 -65 -19 -129 q-11 -43 -28 -84 q-25 -58 -58 -114 l-75 39 Z" /><glyph glyph-name="uni5E93" unicode="&#x5e93;" d="M313 293 q49 72 92 149 l-139 0 l0 75 l179 0 q26 49 48 102 l79 -21 q-18 -42 -38 -81 l378 0 l0 -75 l-418 0 q-42 -77 -90 -149 l174 0 l0 113 l81 0 l0 -113 l232 0 l0 -73 l-232 0 l0 -98 l292 0 l0 -77 l-292 0 l0 -145 l-81 0 l0 145 l-336 0 l0 77 l336 0 l0 98 l-265 0 l0 73 ZM549 821 q31 -57 59 -115 l-26 -11 l367 0 l0 -73 l-722 0 l0 -231 q0 -86 -6 -172 q-5 -50 -14 -99 q-13 -58 -35 -114 q-26 -58 -59 -114 l-81 38 q33 56 59 114 q16 39 28 79 q14 57 19 115 q6 72 6 145 l0 312 l374 0 q-22 46 -45 93 l76 33 Z" /><glyph glyph-name="uni5E94" unicode="&#x5e94;" d="M548 826 q38 -61 72 -124 l-41 -18 l365 0 l0 -79 l-711 0 l0 -209 q0 -83 -6 -165 q-6 -66 -21 -131 q-28 -108 -85 -207 l-77 38 q32 55 58 113 q16 40 27 81 q14 59 19 119 q5 74 5 149 l0 291 l374 0 q-27 52 -58 103 l79 39 ZM646 31 q93 237 165 482 l81 -21 q-74 -233 -160 -461 l222 0 l0 -79 l-726 0 l0 79 l418 0 ZM345 508 q70 -190 129 -382 l-78 -23 q-58 192 -126 382 l75 23 ZM578 540 q44 -181 80 -363 l-81 -18 q-35 184 -79 366 l80 15 Z" /><glyph glyph-name="uni5E97" unicode="&#x5e97;" d="M605 600 l0 -103 l326 0 l0 -78 l-326 0 l0 -129 l261 0 l0 -388 l-86 0 l0 55 l-382 0 l0 -55 l-84 0 l0 388 l205 0 l0 310 l86 0 ZM33 -60 q34 53 60 108 q18 39 30 79 q15 59 21 120 q6 76 6 153 l0 297 l366 0 l-36 90 l99 14 l41 -104 l329 0 l0 -79 l-714 0 l0 -211 q0 -87 -6 -174 q-6 -67 -22 -133 q-12 -44 -29 -86 q-27 -58 -61 -114 l-84 40 ZM398 35 l382 0 l0 174 l-382 0 l0 -174 Z" /><glyph glyph-name="uni5EA6" unicode="&#x5ea6;&#xfa01;" d="M170 -26 q151 23 298 68 q-84 52 -151 125 l33 24 l-101 0 l0 67 l591 0 l0 -68 q-83 -94 -193 -151 q60 -19 122 -30 q89 -15 179 -26 l-25 -80 q-111 17 -219 44 q-76 19 -148 50 q-73 -29 -147 -50 q-102 -29 -206 -50 l-33 77 ZM542 815 q28 -51 55 -101 l-49 -15 l390 0 l0 -74 l-724 0 l0 -246 q0 -86 -7 -171 q-5 -49 -15 -98 q-13 -57 -35 -110 q-24 -55 -54 -107 l-75 41 q29 52 53 106 q21 51 32 104 q9 46 12 93 q6 83 6 166 l0 296 l376 0 q-21 45 -45 89 l80 27 ZM447 601 l0 -72 l244 0 l0 72 l82 0 l0 -72 l162 0 l0 -70 l-162 0 l0 -143 l-406 0 l0 143 l-135 0 l0 70 l135 0 l0 72 l80 0 ZM396 191 q67 -73 157 -116 q97 41 173 116 l-330 0 ZM691 384 l0 75 l-244 0 l0 -75 l244 0 Z" /><glyph glyph-name="uni5EF6" unicode="&#x5ef6;" d="M31 -44 q77 62 140 140 q-38 48 -63 105 q-25 55 -41 115 l75 26 q23 -94 76 -175 q25 45 42 94 q21 60 33 122 l-211 0 l0 68 l188 200 l-192 0 l0 76 l296 0 l0 -76 l-184 -193 l179 0 l0 -73 q-16 -83 -43 -163 q-21 -61 -54 -117 q54 -50 124 -72 q44 -14 90 -20 q52 -6 105 -6 l360 0 l-14 -78 l-376 0 q-103 -1 -200 31 q-76 26 -136 78 q-63 -79 -140 -145 l-54 63 ZM414 713 q244 12 485 57 l15 -77 q-93 -16 -186 -27 l0 -195 l182 0 l0 -75 l-182 0 l0 -201 l193 0 l0 -77 l-483 0 l0 428 l80 0 l0 -351 l131 0 l0 462 q-114 -14 -228 -21 l-7 77 Z" /><glyph glyph-name="uni5F00" unicode="&#x5f00;" d="M280 383 l0 17 l0 252 l-193 0 l0 81 l821 0 l0 -81 l-178 0 l0 -269 l222 0 l0 -82 l-222 0 l0 -398 l-86 0 l0 398 l-281 0 q-4 -69 -19 -136 q-11 -42 -30 -82 q-28 -54 -68 -98 q-51 -55 -107 -103 l-67 62 q52 42 99 90 q36 38 62 85 q17 33 27 69 q13 56 17 113 l-232 0 l0 82 l235 0 ZM366 383 l278 0 l0 269 l-278 0 l0 -244 l0 -25 Z" /><glyph glyph-name="uni5F02" unicode="&#x5f02;" d="M824 752 l0 -256 l-592 0 l0 -56 q-1 -16 3 -31 q3 -8 8 -15 q9 -8 20 -11 q16 -4 33 -3 l469 0 q20 -1 41 2 q10 2 19 8 q10 7 14 18 q5 16 6 33 q2 45 3 91 l83 -22 q-2 -50 -6 -99 q-3 -27 -12 -52 q-9 -20 -26 -33 q-16 -9 -34 -13 q-33 -7 -66 -6 l-513 0 q-31 -1 -61 7 q-23 6 -40 23 q-12 13 -17 30 q-9 29 -8 60 l0 325 l676 0 ZM294 189 l0 90 l84 0 l0 -90 l256 0 l0 89 l84 0 l0 -89 l233 0 l0 -74 l-233 0 l0 -217 l-84 0 l0 217 l-261 0 q-14 -81 -73 -138 q-37 -33 -80 -56 q-53 -27 -108 -46 l-40 70 q49 17 96 40 q27 13 51 29 q54 37 69 101 l-238 0 l0 74 l244 0 ZM232 567 l506 0 l0 115 l-506 0 l0 -115 Z" /><glyph glyph-name="uni5F0F" unicode="&#x5f0f;" d="M549 632 l-5 168 l87 0 q0 -85 4 -168 l181 0 q-61 56 -122 110 l51 54 q68 -56 134 -115 l-44 -49 l103 0 l0 -82 l-299 0 q7 -151 35 -298 q11 -61 31 -119 q16 -46 41 -86 q10 -19 27 -33 q13 -9 29 -9 q17 1 24 16 q13 27 18 57 q10 56 20 113 l73 -24 q-10 -69 -25 -136 q-7 -26 -17 -50 q-10 -23 -27 -43 q-27 -29 -67 -28 q-43 1 -76 28 q-40 35 -64 82 q-24 44 -39 91 q-20 63 -33 128 q-29 154 -36 311 l-502 0 l0 82 l498 0 ZM558 32 q-251 -31 -500 -66 l-11 83 q105 10 211 25 l0 250 l-175 0 l0 80 l434 0 l0 -80 l-172 0 l0 -238 q105 13 211 29 l1 -45 l1 -38 Z" /><glyph glyph-name="uni5F3A" unicode="&#x5f3a;" d="M855 746 l0 -248 l-178 0 l0 -89 l215 0 l0 -254 l-215 0 l0 -131 l142 7 l-39 76 l66 31 q58 -108 112 -217 l-70 -31 l-35 74 l-521 -32 l-4 77 q134 4 269 12 l0 134 l-213 0 l0 254 l213 0 l0 89 l-177 0 l0 248 l435 0 ZM167 -2 q17 0 33 3 q8 2 15 7 q7 9 9 20 q2 17 3 34 l9 174 l-164 0 l22 288 l150 0 l0 140 l-181 0 l0 78 l262 0 l0 -291 l-159 0 l-11 -142 l164 0 l-17 -283 q-2 -28 -11 -54 q-7 -15 -18 -27 q-18 -14 -40 -18 q-29 -6 -59 -6 l-100 0 l-17 77 l110 0 ZM497 565 l281 0 l0 114 l-281 0 l0 -114 ZM677 342 l0 -120 l139 0 l0 120 l-139 0 ZM460 222 l137 0 l0 120 l-137 0 l0 -120 Z" /><glyph glyph-name="uni5F55" unicode="&#x5f55;" d="M173 366 l-113 0 l0 73 l673 0 l0 86 l-568 0 l0 71 l568 0 l0 87 l-595 0 l0 73 l678 0 l0 -317 l135 0 l0 -73 l-411 0 l0 -15 q34 -73 90 -131 q103 67 199 144 l55 -66 q-95 -70 -193 -134 q57 -45 122 -77 q68 -35 140 -60 l-40 -76 q-67 28 -131 60 q-55 29 -105 64 q-80 57 -137 137 l0 -187 q0 -28 -8 -56 q-6 -16 -17 -28 q-18 -15 -41 -20 q-33 -7 -66 -7 l-112 0 l-16 79 l97 0 q21 0 43 3 q11 2 20 7 q10 7 14 19 q4 17 4 34 l0 310 l-285 0 q83 -60 166 -121 l-52 -62 q-80 63 -162 123 l48 60 ZM455 168 q-183 -103 -364 -208 l-44 75 q84 42 167 89 q101 55 201 113 l21 -37 l19 -32 Z" /><glyph glyph-name="uni5F62" unicode="&#x5f62;" d="M567 736 l0 -78 l-97 0 l0 -251 l132 0 l0 -78 l-132 0 l0 -417 l-78 0 l0 417 l-143 0 q-2 -73 -10 -144 q-6 -42 -17 -84 q-15 -51 -40 -97 q-30 -53 -66 -103 l-75 43 q35 45 65 93 q24 41 39 86 q11 37 16 75 q8 65 10 131 l-123 0 l0 78 l124 0 l0 8 l0 243 l-92 0 l0 78 l487 0 ZM502 -30 q112 57 211 136 q94 76 175 166 l57 -57 q-167 -194 -392 -315 l-51 70 ZM250 407 l142 0 l0 251 l-142 0 l0 -241 l0 -10 ZM546 272 q170 104 305 252 l59 -58 q-142 -151 -315 -262 l-49 68 ZM548 558 q157 95 283 230 l58 -56 q-60 -66 -128 -122 q-79 -65 -165 -120 l-48 68 Z" /><glyph glyph-name="uni5F69" unicode="&#x5f69;&#xfa84;" d="M551 274 q4 1 9 5 l-201 0 l0 -80 l41 46 q89 -80 177 -160 l-55 -60 q-80 78 -163 152 l0 -279 l-78 0 l0 281 q-82 -126 -204 -212 l-44 71 q75 51 137 118 q50 56 86 123 l-191 0 l0 74 l216 0 l0 87 l78 0 l0 -87 l205 0 l0 -72 q175 98 305 253 l60 -47 q-140 -173 -331 -284 l-47 71 ZM481 -33 q131 56 246 140 q95 70 172 161 l62 -45 q-93 -110 -209 -194 q-109 -78 -230 -135 l-41 73 ZM70 719 q243 9 484 52 l13 -77 q-244 -40 -489 -54 l-8 79 ZM544 537 q171 95 297 245 l61 -47 q-134 -160 -313 -266 l-45 68 ZM397 448 q55 96 99 199 l68 -28 q-48 -102 -100 -200 l-67 29 ZM140 632 q45 -83 87 -167 l-66 -35 q-41 85 -86 168 l65 34 ZM315 645 q37 -77 73 -154 l-67 -30 q-35 78 -72 155 l66 29 Z" /><glyph glyph-name="uni5F71" unicode="&#x5f71;" d="M567 754 l0 -280 l-214 0 l35 -66 l237 0 l0 -60 l-581 0 l0 60 l263 0 l-26 44 l72 22 l-249 0 l0 280 l463 0 ZM247 -13 q16 0 33 3 q8 1 15 5 q7 5 10 14 q3 13 3 27 l0 86 l-193 0 l0 179 l439 0 l0 -179 l-172 0 l0 -114 q0 -23 -6 -47 q-5 -17 -20 -29 q-12 -8 -27 -12 q-29 -6 -58 -6 l-80 0 l-17 73 l73 0 ZM558 -43 q202 124 341 317 l62 -43 q-145 -206 -355 -343 l-48 69 ZM580 269 q161 105 285 254 l61 -48 q-129 -157 -294 -274 l-52 68 ZM586 550 q146 100 264 233 l61 -49 q-68 -78 -145 -147 q-63 -57 -133 -106 l-47 69 ZM190 181 l288 0 l0 63 l-288 0 l0 -63 ZM494 534 l0 52 l-316 0 l0 -52 l316 0 ZM178 644 l316 0 l0 50 l-316 0 l0 -50 ZM30 -29 q86 65 156 149 l53 -44 q-71 -88 -158 -159 l-51 54 ZM475 118 q62 -58 120 -119 l-52 -47 q-55 66 -117 124 l49 42 Z" /><glyph glyph-name="uni5F80" unicode="&#x5f80;" d="M622 814 q43 -74 83 -150 l-71 -33 l295 0 l0 -80 l-257 0 l0 -207 l225 0 l0 -82 l-225 0 l0 -237 l281 0 l0 -81 l-643 0 l0 81 l279 0 l0 237 l-225 0 l0 82 l225 0 l0 207 l-240 0 l0 80 l277 0 q-37 74 -77 148 l73 35 ZM32 240 q75 69 139 149 q58 71 105 150 l68 -45 q-41 -70 -89 -134 l0 -458 l-82 0 l0 358 q-50 -55 -104 -103 l-37 83 ZM54 543 q62 53 117 113 q60 63 112 135 l70 -52 q-50 -67 -108 -126 q-71 -75 -149 -142 l-42 72 Z" /><glyph glyph-name="uni5F85" unicode="&#x5f85;" d="M670 793 l0 -121 l232 0 l0 -79 l-232 0 l0 -113 l279 0 l0 -79 l-635 0 l0 79 l273 0 l0 113 l-222 0 l0 79 l222 0 l0 121 l83 0 ZM439 210 l-104 0 l0 78 l388 0 l0 88 l84 0 l0 -88 l129 0 l0 -78 l-129 0 l0 -179 q0 -31 -8 -59 q-8 -22 -26 -36 q-17 -10 -36 -14 q-37 -7 -74 -7 l-107 0 l-16 78 l104 0 q21 0 42 4 q10 2 19 7 q10 8 14 20 q4 17 4 35 l0 151 l-280 0 q68 -66 134 -135 l-62 -61 q-67 72 -136 142 l60 54 ZM30 273 q64 57 120 123 q67 79 122 168 l67 -38 q-41 -70 -89 -133 l0 -490 l-79 0 l0 394 q-49 -55 -104 -102 l-37 78 ZM44 547 q74 63 141 134 q54 55 100 119 l64 -52 q-58 -78 -126 -146 q-62 -66 -131 -124 l-48 69 Z" /><glyph glyph-name="uni5F8B" unicode="&#x5f8b;&#xf9d8;" d="M550 413 l0 79 l-229 0 l0 69 l229 0 l0 81 l-195 0 l0 67 l195 0 l0 90 l78 0 l0 -90 l236 0 l0 -148 l80 0 l0 -69 l-80 0 l0 -147 l-236 0 l0 -81 l269 0 l0 -69 l-269 0 l0 -87 l307 0 l0 -68 l-307 0 l0 -135 l-78 0 l0 135 l-260 0 l0 68 l260 0 l0 87 l-219 0 l0 69 l219 0 l0 81 l-197 0 l0 68 l197 0 ZM23 249 q63 61 115 133 q64 85 115 179 l66 -45 q-40 -68 -84 -131 l0 -478 l-80 0 l0 372 q-46 -57 -96 -108 l-36 78 ZM44 554 q124 103 213 239 l69 -47 q-104 -146 -238 -262 l-44 70 ZM628 642 l0 -81 l160 0 l0 81 l-160 0 ZM788 413 l0 79 l-160 0 l0 -79 l160 0 Z" /><glyph glyph-name="uni5F97" unicode="&#x5f97;" d="M874 754 l0 -327 l-483 0 l0 327 l483 0 ZM747 219 l0 72 l-401 0 l0 70 l590 0 l0 -70 l-109 0 l0 -72 l129 0 l0 -71 l-129 0 l0 -126 q0 -28 -7 -55 q-5 -15 -16 -27 q-16 -14 -37 -19 q-31 -6 -61 -6 l-99 0 l-17 78 l88 0 q19 0 38 3 q9 2 17 6 q8 7 11 18 q3 16 3 32 l0 96 l-275 0 q65 -53 129 -106 l-58 -58 q-75 68 -154 131 l32 33 l-115 0 l0 71 l441 0 ZM33 261 q74 69 136 150 q57 71 101 151 l68 -41 q-40 -75 -90 -142 l0 -474 l-79 0 l0 376 q-50 -56 -104 -105 l-32 85 ZM49 563 q70 55 131 121 q50 53 90 113 l69 -46 q-53 -77 -118 -144 q-60 -62 -127 -116 l-45 72 ZM474 622 l318 0 l0 67 l-318 0 l0 -67 ZM792 493 l0 65 l-318 0 l0 -65 l318 0 Z" /><glyph glyph-name="uni5FAE" unicode="&#x5fae;" d="M596 436 q89 167 121 354 l72 -9 q-14 -79 -37 -155 l205 0 l0 -76 l-48 0 q-9 -117 -35 -230 q-20 -83 -56 -159 q64 -110 157 -197 l-58 -64 q-82 85 -144 184 q-72 -104 -163 -191 l-58 56 q59 51 109 110 q39 48 71 102 q-51 118 -68 246 q-11 -22 -23 -42 l-45 71 ZM224 -52 q25 25 47 52 q12 18 22 37 q11 26 15 54 q4 35 4 71 l0 102 l251 0 l0 -171 q35 26 69 57 l20 -63 q-50 -39 -98 -80 q-19 -15 -35 -32 l-48 49 q19 16 21 42 l0 127 l-107 0 l0 -47 q0 -36 -5 -71 q-5 -31 -17 -59 q-27 -59 -72 -108 l-67 40 ZM29 268 q110 128 183 282 l65 -35 q-30 -64 -66 -124 l0 -485 l-73 0 l0 376 q-35 -49 -75 -93 l-34 79 ZM357 719 l0 -158 l61 0 l0 234 l65 0 l0 -234 l61 0 l0 158 l67 0 l0 -227 l-320 0 l0 227 l66 0 ZM605 414 l0 -72 l-341 0 l0 72 l341 0 ZM42 538 q102 112 178 246 l67 -41 q-81 -139 -187 -258 l-58 53 ZM716 521 q8 -141 59 -272 q25 62 39 128 q19 85 26 173 l-113 0 l-11 -29 Z" /><glyph glyph-name="uni5FB7" unicode="&#x5fb7;" d="M575 576 l0 71 l-264 0 l0 67 l264 0 l0 85 l80 0 l0 -85 l279 0 l0 -67 l-279 0 l0 -71 l242 0 l0 -226 l-565 0 l0 226 l243 0 ZM22 254 q68 71 126 151 q51 69 92 145 l64 -40 q-34 -67 -76 -127 l0 -479 l-77 0 l0 377 q-40 -49 -84 -92 l-45 65 ZM572 215 l-283 0 l0 68 l657 0 l0 -68 l-329 0 q44 -52 89 -103 l-57 -45 q-50 65 -104 127 l27 21 ZM511 171 l0 -141 q-1 -11 2 -21 q2 -7 7 -10 q16 -8 35 -7 l109 0 q18 -1 34 7 q13 11 13 30 q1 34 3 69 l69 -10 q-2 -43 -3 -85 q-1 -19 -7 -38 q-7 -15 -20 -25 q-12 -7 -25 -11 q-24 -5 -49 -5 l-143 0 q-23 0 -45 5 q-17 5 -30 17 q-13 13 -17 31 q-4 16 -3 33 l0 161 l70 0 ZM38 543 q64 63 122 134 q48 58 89 123 l66 -45 q-99 -151 -227 -277 l-50 65 ZM840 185 q66 -96 127 -195 l-65 -42 q-59 101 -123 200 l61 37 ZM248 -18 q59 93 100 196 l65 -24 q-45 -108 -100 -210 l-65 38 ZM729 516 l0 -108 l98 0 l0 108 l-98 0 ZM565 408 l96 0 l0 108 l-96 0 l0 -108 ZM402 408 l96 0 l0 108 l-96 0 l0 -108 Z" /><glyph glyph-name="uni5FC3" unicode="&#x5fc3;" d="M379 596 l0 -504 q-1 -21 4 -40 q3 -11 10 -19 q11 -10 26 -14 q21 -4 43 -3 l114 0 q24 -1 48 3 q12 3 23 9 q12 9 17 23 q6 20 7 41 q3 73 4 147 l91 -20 l-8 -159 q-2 -34 -13 -66 q-8 -18 -22 -32 q-22 -19 -51 -25 q-39 -8 -78 -8 l-152 0 q-38 0 -75 8 q-28 7 -49 28 q-14 16 -21 35 q-10 37 -9 76 l0 520 l91 0 ZM35 130 q70 186 115 381 l89 -19 q-45 -200 -120 -390 l-84 28 ZM800 529 q87 -184 170 -369 l-84 -37 q-79 187 -166 371 l80 35 ZM445 797 q114 -142 222 -288 l-76 -55 q-104 148 -214 292 l68 51 Z" /><glyph glyph-name="uni5FC5" unicode="&#x5fc5;" d="M33 7 q137 68 264 156 l0 458 l84 0 l0 -394 q110 90 197 204 q102 137 173 293 l78 -37 q-83 -181 -206 -335 q-108 -130 -242 -231 l0 -36 q-1 -21 4 -41 q4 -14 16 -24 q10 -7 22 -10 q21 -5 44 -4 l132 0 q25 -1 50 4 q13 3 24 10 q13 10 18 25 q6 21 7 44 q4 61 5 124 l83 -19 l-7 -139 q-2 -34 -14 -65 q-9 -18 -23 -32 q-24 -18 -52 -24 q-41 -7 -81 -7 l-167 0 q-37 0 -72 8 q-26 7 -46 26 q-13 15 -19 34 q-9 32 -8 67 q-106 -68 -216 -127 l-48 72 ZM31 191 q66 171 104 351 l83 -19 q-41 -182 -107 -355 l-80 23 ZM811 501 q80 -153 155 -308 l-79 -37 q-70 157 -149 310 l73 35 ZM406 804 q104 -100 206 -202 l-62 -64 q-99 107 -202 209 l58 57 Z" /><glyph glyph-name="uni5FEB" unicode="&#x5feb;" d="M568 349 l0 17 l0 197 l-173 0 l0 80 l173 0 q-1 76 1 153 l80 0 q-1 -77 -1 -153 l216 0 l0 -294 l93 0 l0 -80 l-294 0 q34 -106 114 -182 q44 -40 95 -69 q44 -24 91 -44 l-43 -76 q-98 43 -178 112 q-82 74 -127 176 q-34 -81 -96 -143 q-41 -41 -88 -74 q-55 -40 -113 -76 l-46 72 q60 34 116 72 q47 34 87 77 q60 67 82 155 l-232 0 l0 80 l243 0 ZM254 796 l0 -192 l46 36 q61 -84 120 -170 l-63 -48 q-51 76 -103 152 l0 -671 l-80 0 l0 893 l80 0 ZM648 563 l0 -192 q0 -12 -1 -22 l137 0 l0 214 l-136 0 ZM24 282 q36 176 53 356 l75 -7 q-21 -182 -51 -361 l-77 12 Z" /><glyph glyph-name="uni5FF5" unicode="&#x5ff5;&#xf9a3;" d="M35 514 q124 46 236 116 q107 68 190 165 l77 0 q84 -97 193 -165 q109 -66 229 -108 l-37 -79 q-136 53 -258 134 q-91 60 -164 142 q-86 -94 -194 -162 q-112 -71 -234 -122 l-38 79 ZM368 245 l0 -186 q-1 -15 4 -29 q3 -11 12 -19 q21 -12 47 -11 l151 0 q18 0 35 3 q9 2 17 7 q9 7 13 17 q4 12 6 26 q4 53 6 107 l78 -20 q-5 -60 -10 -118 q-2 -25 -11 -49 q-7 -14 -19 -24 q-18 -13 -41 -18 q-31 -5 -63 -5 l-189 0 q-29 0 -56 8 q-16 5 -30 15 q-16 13 -24 33 q-8 22 -7 48 l0 215 l81 0 ZM793 443 l0 -75 q-62 -81 -125 -160 l-68 48 q47 54 91 113 l-513 0 l0 74 l615 0 ZM43 -8 q70 114 116 241 l78 -24 q-49 -133 -119 -255 l-75 38 ZM819 235 q72 -112 137 -227 l-76 -38 q-62 115 -131 226 l70 39 ZM481 314 q69 -90 137 -180 l-67 -43 q-64 91 -130 181 l60 42 ZM466 623 q60 -61 117 -125 l-59 -49 q-56 65 -114 127 l56 47 Z" /><glyph glyph-name="uni6001" unicode="&#x6001;" d="M38 358 q64 19 127 44 q65 25 124 61 q44 28 80 67 q29 33 48 74 l-342 0 l0 78 l367 0 q8 57 12 116 l88 -2 q-5 -58 -13 -114 l396 0 l0 -78 l-363 0 q68 -94 170 -151 q110 -60 232 -89 l-36 -85 q-132 36 -248 107 q-111 70 -186 178 q-26 -54 -66 -96 q67 -51 132 -104 l-53 -58 q-68 57 -138 110 q-62 -45 -131 -78 q-78 -37 -159 -64 l-41 84 ZM367 276 l0 -214 q-1 -17 3 -33 q3 -8 8 -15 q8 -9 19 -12 q15 -3 31 -3 l154 0 q17 0 35 2 q12 2 22 10 q6 6 9 14 q4 14 5 30 l4 93 l78 -18 q-3 -55 -9 -108 q-3 -26 -12 -50 q-8 -19 -24 -31 q-15 -8 -32 -12 q-32 -5 -64 -5 l-193 0 q-29 0 -57 7 q-16 5 -29 15 q-16 14 -23 35 q-8 25 -7 52 l0 243 l82 0 ZM792 274 q86 -126 169 -254 l-74 -43 q-76 129 -161 254 l66 43 ZM36 4 q73 121 121 255 l76 -28 q-51 -138 -123 -265 l-74 38 ZM507 300 q62 -78 121 -158 l-65 -45 q-57 82 -117 161 l61 42 Z" /><glyph glyph-name="uni6015" unicode="&#x6015;" d="M559 659 q23 72 42 146 l91 -17 q-20 -65 -41 -129 l243 0 l0 -755 l-81 0 l0 62 l-337 0 l0 -64 l-81 0 l0 559 l-40 -30 q-47 70 -94 140 l0 -668 l-81 0 l0 892 l81 0 l0 -193 l43 34 q46 -63 91 -126 l0 149 l164 0 ZM476 46 l337 0 l0 231 l-337 0 l0 -231 ZM476 355 l337 0 l0 224 l-337 0 l0 -224 ZM22 284 q36 177 55 357 l73 -7 q-20 -183 -53 -363 l-75 13 Z" /><glyph glyph-name="uni6027" unicode="&#x6027;" d="M347 381 q25 64 46 132 l-39 -36 q-43 54 -88 107 l0 -679 l-81 0 l0 892 l81 0 l0 -187 l44 39 q46 -54 91 -108 q28 100 45 203 l81 -11 q-11 -66 -24 -131 l122 0 l0 191 l84 0 l0 -191 l225 0 l0 -85 l-225 0 l0 -190 l201 0 l0 -82 l-201 0 l0 -216 l243 0 l0 -83 l-605 0 l0 83 l278 0 l0 216 l-224 0 l0 82 l224 0 l0 190 l-143 0 q-24 -84 -54 -164 l-81 28 ZM33 283 q35 176 53 356 l78 -10 q-22 -182 -53 -361 l-78 15 Z" /><glyph glyph-name="uni60A6" unicode="&#x60a6;" d="M285 -45 q51 28 98 62 q26 21 47 47 q24 33 35 72 q12 48 15 98 q0 13 1 27 l-104 0 l0 222 l-44 -38 q-39 65 -81 129 l0 -671 l-79 0 l0 892 l79 0 l0 -184 l39 31 q43 -64 86 -127 l0 83 l132 0 q-51 81 -104 160 l66 40 q58 -79 112 -160 l-67 -40 l135 0 q63 97 121 198 l74 -38 q-50 -81 -100 -160 l133 0 l0 -337 l-132 0 l0 -217 q-1 -13 2 -26 q2 -6 6 -12 q6 -6 14 -7 q12 -2 24 -2 l39 0 q13 0 27 3 q7 0 12 5 q7 6 9 14 q2 13 3 26 q1 59 2 120 l76 -14 q-1 -72 -4 -142 q-2 -24 -10 -46 q-6 -13 -16 -23 q-16 -12 -35 -16 q-25 -5 -51 -5 l-84 0 q-24 0 -46 6 q-18 5 -30 19 q-9 11 -13 24 q-7 25 -6 49 l0 244 l-104 0 l0 -31 q-4 -59 -18 -116 q-11 -36 -29 -69 q-28 -45 -67 -78 q-50 -43 -106 -78 l-57 66 ZM459 337 l339 0 l0 183 l-339 0 l0 -183 ZM24 283 q31 176 47 355 l74 -7 q-18 -181 -45 -360 l-76 12 Z" /><glyph glyph-name="uni60A8" unicode="&#x60a8;" d="M288 543 q107 119 175 264 l72 -21 q-17 -42 -38 -80 l429 0 l0 -73 l-78 -120 l-77 25 l64 92 l-383 0 q-46 -71 -100 -133 l-64 46 ZM36 489 q130 138 203 313 l80 -22 q-34 -83 -79 -159 l0 -385 l-79 0 l0 272 q-43 -54 -92 -101 l-33 82 ZM367 211 l0 -156 q-1 -17 3 -33 q2 -8 8 -15 q8 -7 19 -10 q16 -3 32 -3 l157 0 q17 0 35 3 q12 2 21 8 q6 6 9 13 q4 14 5 29 l5 90 l78 -21 l-8 -102 q-2 -20 -9 -41 q-7 -20 -23 -34 q-18 -12 -40 -16 q-28 -5 -56 -5 l-201 0 q-29 0 -56 6 q-21 6 -37 21 q-10 13 -15 28 q-8 28 -7 59 l0 179 l80 0 ZM529 321 q16 -1 31 2 q9 2 16 7 q8 6 11 15 q4 13 4 27 l0 209 l79 0 l0 -238 q0 -25 -8 -49 q-5 -14 -16 -24 q-16 -14 -36 -19 q-29 -6 -57 -5 l-81 0 l-19 75 l76 0 ZM807 226 q78 -112 152 -227 l-71 -46 q-71 118 -147 232 l66 41 ZM271 300 q93 100 159 222 l69 -34 q-68 -126 -163 -231 l-65 43 ZM785 518 q83 -107 165 -214 l-67 -46 q-79 109 -159 217 l61 43 ZM35 -24 q67 105 114 223 l75 -28 q-47 -122 -113 -233 l-76 38 ZM502 235 q54 -62 108 -123 l-61 -50 q-51 63 -102 127 l55 46 Z" /><glyph glyph-name="uni60C5" unicode="&#x60c5;" d="M585 470 l0 61 l-207 0 l3 -4 l-56 -46 q-37 48 -73 97 l0 -673 l-77 0 l0 886 l77 0 l0 -165 l29 24 q48 -59 96 -118 l0 56 l208 0 l0 60 l-238 0 l0 61 l238 0 l0 85 l77 0 l0 -85 l258 0 l0 -61 l-258 0 l0 -60 l234 0 l0 -57 l-234 0 l0 -61 l291 0 l0 -59 l-640 0 l0 59 l272 0 ZM869 350 l0 -342 q0 -24 -7 -47 q-4 -13 -14 -23 q-14 -13 -33 -17 q-25 -6 -51 -6 l-105 0 l-13 61 l88 0 q15 0 31 3 q8 2 15 6 q7 5 9 14 q3 10 3 22 l0 33 l-338 0 l0 -145 l-76 0 l0 441 l491 0 ZM24 286 q32 171 49 345 l71 -6 q-19 -177 -48 -351 l-72 12 ZM454 113 l338 0 l0 59 l-338 0 l0 -59 ZM454 231 l338 0 l0 58 l-338 0 l0 -58 Z" /><glyph glyph-name="uni60CA" unicode="&#x60ca;" d="M257 796 l0 -183 l41 28 q52 -70 101 -142 l0 28 l483 0 l0 -284 l-191 0 l0 -229 q0 -25 -7 -50 q-6 -19 -22 -31 q-13 -9 -29 -13 q-29 -6 -59 -6 l-83 0 l-15 78 l72 0 q16 0 33 3 q8 2 15 6 q7 6 10 16 q3 13 3 27 l0 199 l-210 0 l0 250 l-58 -42 q-43 60 -84 123 l0 -672 l-79 0 l0 894 l79 0 ZM651 815 q28 -55 53 -111 l-29 -9 l271 0 l0 -77 l-590 0 l0 77 l258 0 q-20 47 -44 92 l81 28 ZM483 318 l316 0 l0 133 l-316 0 l0 -133 ZM26 281 q36 176 52 355 l72 -8 q-18 -181 -50 -358 l-74 11 ZM277 -21 q50 55 95 115 q41 54 75 113 l69 -41 q-74 -130 -174 -239 l-65 52 ZM816 201 q82 -111 162 -223 l-68 -49 q-78 114 -160 226 l66 46 Z" /><glyph glyph-name="uni60F3" unicode="&#x60f3;" d="M881 747 l0 -494 l-442 0 l0 494 l442 0 ZM31 371 q105 94 167 222 l-130 0 l0 74 l136 0 l0 126 l82 0 l0 -126 l121 0 l0 -74 l-121 0 l0 -68 l13 15 q63 -54 125 -110 l-47 -56 q-46 42 -91 84 l0 -229 l-82 0 l0 230 q-59 -90 -136 -163 l-37 75 ZM370 201 l0 -154 q-1 -16 3 -31 q2 -8 7 -14 q8 -7 19 -10 q15 -3 32 -3 l152 0 q17 0 35 3 q9 2 17 7 q9 6 13 16 q4 15 6 30 q3 43 5 87 l81 -19 q-4 -53 -9 -104 q-3 -25 -11 -49 q-7 -18 -23 -29 q-14 -8 -30 -12 q-31 -5 -62 -5 l-199 0 q-30 0 -58 7 q-16 4 -30 14 q-16 13 -23 32 q-8 24 -7 49 l0 185 l82 0 ZM798 320 l0 78 l-278 0 l0 -78 l278 0 ZM520 603 l278 0 l0 77 l-278 0 l0 -77 ZM816 209 q74 -107 140 -218 l-73 -44 q-64 113 -136 222 l69 40 ZM520 463 l278 0 l0 76 l-278 0 l0 -76 ZM50 -22 q67 106 110 225 l77 -29 q-46 -123 -114 -234 l-73 38 ZM504 250 q58 -73 115 -146 l-64 -49 q-56 75 -114 149 l63 46 Z" /><glyph glyph-name="uni610F" unicode="&#x610f;" d="M467 173 l-299 0 l0 280 l659 0 l0 -280 l-317 0 q50 -48 100 -97 l-57 -51 q-57 61 -117 119 l31 29 ZM322 575 q-25 30 -50 61 l41 25 l-207 0 l0 62 l364 0 q-20 33 -40 66 l83 26 q26 -46 52 -92 l327 0 l0 -62 l-204 0 l42 -23 q-24 -33 -48 -63 l263 0 l0 -62 l-891 0 l0 62 l268 0 ZM369 142 l0 -108 q-1 -13 3 -25 q3 -9 11 -15 q19 -11 42 -10 l161 0 q26 -1 50 9 q8 5 12 13 q4 12 5 24 q2 40 4 82 l80 -21 q-4 -43 -9 -85 q-3 -22 -12 -42 q-6 -12 -17 -21 q-17 -12 -37 -15 q-28 -5 -56 -5 l-211 0 q-28 0 -55 6 q-19 5 -34 18 q-10 11 -15 25 q-7 25 -6 51 l0 119 l84 0 ZM745 231 l0 55 l-494 0 l0 -55 l494 0 ZM251 342 l494 0 l0 54 l-494 0 l0 -54 ZM380 575 l204 0 q33 42 65 86 l-296 0 q28 -35 56 -70 l-29 -16 ZM48 -24 q67 85 118 182 l75 -33 q-54 -104 -126 -194 l-67 45 ZM823 162 q68 -91 132 -184 l-68 -44 q-64 95 -132 188 l68 40 Z" /><glyph glyph-name="uni611F" unicode="&#x611f;" d="M756 808 q49 -50 95 -102 l-28 -22 l109 0 l0 -73 l-275 0 q14 -95 45 -186 q64 76 109 167 l68 -33 q-59 -114 -141 -211 q14 -27 35 -49 q12 -17 29 -29 q13 -8 28 -8 q17 3 26 19 q12 21 17 47 q8 39 12 79 l67 -20 q-7 -46 -16 -90 q-10 -48 -40 -86 q-27 -30 -66 -30 q-36 -1 -66 18 q-35 24 -60 58 q-13 15 -23 32 q-51 -48 -107 -86 l-38 49 l0 -25 l-274 0 l0 196 l274 0 l0 -149 q56 39 106 87 q-24 57 -39 118 q-17 65 -27 132 l-361 0 l0 -90 q0 -59 -7 -117 q-6 -50 -21 -98 q-31 -87 -88 -159 l-74 43 q31 41 57 85 q22 39 34 82 q9 34 13 70 q6 59 6 120 l0 137 l431 0 q-9 56 -13 113 l81 1 q4 -58 13 -114 l133 0 q-36 42 -75 82 l51 42 ZM354 171 l0 -123 q-1 -15 3 -28 q3 -8 8 -13 q9 -7 20 -9 q16 -3 32 -3 l155 0 q17 0 35 3 q9 2 18 5 q9 5 13 15 q5 12 7 26 q3 40 5 81 l77 -18 q-5 -49 -10 -96 q-2 -23 -12 -45 q-7 -12 -18 -22 q-18 -12 -40 -16 q-32 -5 -64 -5 l-190 0 q-30 0 -58 7 q-16 4 -30 13 q-16 11 -23 30 q-8 22 -7 45 l0 153 l79 0 ZM565 542 l0 -61 l-320 0 l0 61 l320 0 ZM32 -26 q67 89 112 193 l75 -29 q-47 -109 -114 -206 l-73 42 ZM812 175 q68 -91 131 -184 l-71 -44 q-60 96 -126 188 l66 40 ZM484 218 q60 -58 119 -117 l-56 -55 q-56 63 -116 122 l53 50 ZM328 285 l140 0 l0 82 l-140 0 l0 -82 Z" /><glyph glyph-name="uni61BE" unicode="&#x61be;" d="M822 811 q42 -50 80 -103 l-33 -24 l71 0 l0 -71 l-206 0 q11 -99 37 -194 q43 74 73 156 l63 -19 q-40 -116 -108 -216 q9 -23 22 -44 q9 -19 23 -34 q8 -8 19 -8 q11 2 16 13 q10 25 14 51 q8 40 14 81 l57 -20 q-7 -45 -16 -89 q-10 -45 -36 -82 q-19 -24 -49 -25 q-28 0 -49 17 q-29 25 -47 59 l-12 22 q-34 -41 -72 -77 l-37 38 l0 -13 l-198 0 l0 196 l198 0 l0 -166 q43 41 79 90 q-44 128 -59 264 l-257 0 l0 -108 q0 -55 -5 -109 q-4 -46 -16 -90 q-25 -80 -71 -149 l-65 34 q23 36 43 75 q17 34 27 71 q18 75 18 153 l-42 -32 q-35 55 -70 111 l0 -666 l-70 0 l0 892 l70 0 l0 -176 l30 21 q42 -61 83 -121 l0 31 l0 134 l317 0 q-5 56 -8 113 l68 1 q1 -58 7 -114 l116 0 q-34 45 -70 88 l51 39 ZM516 172 l0 -130 q-1 -12 2 -24 q2 -8 8 -15 q16 -9 36 -8 l98 0 q15 0 29 3 q8 2 14 5 q7 7 9 16 q3 13 4 26 q2 36 3 74 l66 -12 l-4 -91 q-2 -23 -10 -45 q-9 -18 -25 -30 q-15 -8 -31 -12 q-29 -6 -59 -6 l-106 0 q-26 0 -51 6 q-19 6 -33 19 q-10 11 -15 25 q-7 22 -6 46 l0 153 l71 0 ZM26 280 q32 176 48 356 l65 -5 q-18 -182 -47 -361 l-66 10 ZM260 -29 q55 95 93 200 l67 -20 q-38 -108 -92 -207 l-68 27 ZM849 176 q56 -98 110 -197 l-65 -32 q-52 100 -106 198 l61 31 ZM661 542 l0 -60 l-225 0 l0 60 l225 0 ZM608 221 q46 -60 90 -121 l-56 -37 q-42 62 -87 122 l53 36 ZM501 283 l91 0 l0 87 l-91 0 l0 -87 Z" /><glyph glyph-name="uni620F" unicode="&#x620f;" d="M612 794 q3 -101 9 -201 l2 -44 l324 39 l9 -82 l-326 -39 q10 -116 36 -228 q99 96 169 216 l65 -43 q-85 -146 -208 -260 q18 -53 49 -99 q14 -24 35 -41 q15 -12 35 -12 q18 0 28 16 q14 25 20 54 q12 58 22 118 l75 -31 q-14 -67 -30 -133 q-12 -47 -43 -84 q-29 -33 -72 -34 q-44 0 -78 27 q-40 35 -67 81 q-25 38 -41 81 q-104 -80 -219 -139 l-42 70 q124 63 232 151 q-16 56 -26 114 q-15 82 -23 166 l-130 -15 l-10 82 l132 15 l-4 62 q-7 96 -9 193 l86 0 ZM134 543 q62 -92 122 -184 q46 122 69 251 l-259 0 l0 84 l344 0 l0 -84 q-30 -175 -98 -337 q54 -87 107 -175 l-69 -48 q-40 68 -80 136 q-75 -141 -181 -258 l-57 71 q112 122 186 272 q-73 115 -148 228 l64 44 ZM716 779 q81 -68 158 -141 l-55 -57 q-74 75 -152 145 l49 53 Z" /><glyph glyph-name="uni6210" unicode="&#x6210;" d="M423 -7 q106 72 195 166 q-27 80 -43 164 q-23 119 -34 241 l-325 0 l0 -134 l252 0 q-5 -153 -15 -304 q-3 -32 -13 -61 q-9 -24 -28 -40 q-16 -12 -35 -17 q-36 -8 -72 -8 l-70 0 l-16 82 l66 0 q23 -1 45 2 q11 2 21 8 q10 7 15 20 q4 17 6 36 q7 100 10 202 l-166 0 q-1 -73 -9 -146 q-5 -45 -15 -91 q-27 -113 -88 -214 l-82 38 q31 50 56 101 q23 50 35 103 q9 45 14 90 q6 77 6 155 l0 259 l401 0 q-7 76 -12 154 l83 0 q4 -78 11 -154 l172 0 q-56 57 -114 112 l55 53 q62 -58 123 -118 l-52 -47 l135 0 l0 -81 l-312 0 q14 -167 56 -328 q38 55 68 116 q36 74 62 153 l75 -30 q-35 -97 -82 -188 q-40 -76 -92 -143 q18 -49 48 -91 q14 -23 33 -41 q12 -11 29 -12 q17 0 27 16 q15 27 21 58 q12 56 22 113 l73 -23 q-12 -65 -27 -129 q-7 -27 -17 -51 q-10 -24 -28 -44 q-31 -30 -73 -29 q-36 1 -64 23 q-20 16 -35 36 q-21 27 -39 55 q-17 25 -29 52 q-80 -80 -173 -146 l-55 62 Z" /><glyph glyph-name="uni6211" unicode="&#x6211;" d="M361 41 q124 54 236 132 q-34 131 -45 267 l-221 0 l0 -138 q81 15 162 33 l6 -42 l4 -39 q-87 -17 -172 -34 l0 -189 q0 -29 -8 -55 q-6 -15 -17 -27 q-17 -16 -40 -21 q-31 -7 -63 -7 l-103 0 l-17 79 l105 0 q17 0 34 2 q8 2 14 7 q7 8 9 18 q2 14 2 29 l0 147 l-181 -36 l-13 83 q26 3 53 8 q70 13 141 27 l0 155 l-196 0 l0 78 l196 0 l0 126 q-83 -11 -165 -18 l-6 76 q193 16 383 60 l13 -77 q-71 -17 -141 -28 l0 -139 l215 0 q-4 38 -5 77 q-6 99 -9 200 l82 0 q2 -99 8 -197 q1 -41 5 -80 l313 0 l0 -78 l-307 0 q8 -109 31 -215 q98 82 170 190 l68 -41 q-91 -132 -214 -233 q17 -53 48 -98 q13 -21 31 -36 q15 -11 34 -12 q16 0 26 13 q14 28 22 59 q14 56 26 114 l73 -35 q-17 -66 -35 -131 q-7 -22 -17 -44 q-10 -21 -26 -39 q-29 -28 -69 -27 q-43 1 -76 27 q-36 29 -60 69 q-27 42 -43 90 q-105 -73 -220 -127 l-41 77 ZM724 767 q86 -76 168 -157 l-58 -56 q-80 82 -163 161 l53 52 Z" /><glyph glyph-name="uni6216" unicode="&#x6216;" d="M406 -13 q32 21 65 45 q-207 -31 -413 -63 l-8 84 q218 30 436 64 l3 -43 l2 -27 q68 50 127 112 q-25 91 -38 185 q-15 112 -21 225 l-497 0 l0 79 l492 0 q-5 73 -8 148 l88 0 q2 -75 7 -148 l152 0 q-52 55 -102 112 l57 46 q58 -59 114 -120 l-44 -38 l126 0 l0 -79 l-297 0 q9 -164 39 -324 q34 53 60 111 q34 77 61 158 l79 -28 q-35 -103 -85 -200 q-40 -75 -91 -141 q14 -51 40 -96 q11 -23 30 -40 q13 -10 30 -11 q17 2 26 17 q14 28 20 59 q12 61 21 123 l76 -26 q-12 -72 -26 -142 q-6 -26 -16 -50 q-10 -25 -28 -45 q-31 -31 -74 -31 q-38 1 -67 24 q-20 16 -34 36 q-19 25 -34 53 q-16 27 -28 57 q-87 -85 -187 -152 l-53 66 ZM461 479 l0 -300 l-333 0 l0 300 l333 0 ZM205 255 l178 0 l0 146 l-178 0 l0 -146 Z" /><glyph glyph-name="uni6237" unicode="&#x6237;" d="M34 -62 q36 49 65 101 q26 50 39 104 q11 47 15 95 q7 84 7 168 l0 266 l331 0 l-63 119 l91 26 q37 -73 73 -145 l292 0 l0 -379 l-641 0 q-3 -66 -13 -131 q-7 -40 -18 -80 q-15 -49 -38 -94 q-27 -50 -58 -96 l-82 46 ZM246 424 q-1 -26 -1 -51 l553 0 l0 221 l-552 0 l0 -170 Z" /><glyph glyph-name="uni6240" unicode="&#x6240;" d="M512 707 q193 16 379 73 l24 -83 q-159 -49 -323 -66 l0 -172 l363 0 l0 -82 l-131 0 l0 -470 l-82 0 l0 470 l-150 0 q-1 -80 -11 -160 q-9 -65 -32 -126 q-18 -44 -42 -85 q-40 -60 -87 -116 l-69 58 q46 50 85 105 q31 49 49 105 q13 46 19 93 q8 83 8 166 l0 290 ZM124 719 q168 14 331 58 l20 -83 q-134 -37 -272 -51 l0 -118 l217 0 l0 -324 l-222 0 q-4 -80 -23 -157 q-24 -78 -64 -150 l-80 41 q28 49 50 101 q14 36 23 74 q12 59 16 120 q4 85 4 171 l0 318 ZM203 399 q0 -60 -1 -119 l138 0 l0 166 l-137 0 l0 -47 Z" /><glyph glyph-name="uni624B" unicode="&#x624b;" d="M465 265 l0 145 l-341 0 l0 82 l341 0 l0 155 q-176 -12 -352 -18 l-6 82 q381 12 760 55 l13 -83 q-163 -19 -326 -30 l0 -161 l324 0 l0 -82 l-324 0 l0 -145 l395 0 l0 -83 l-395 0 l0 -150 q0 -32 -8 -61 q-5 -17 -17 -30 q-18 -17 -42 -22 q-34 -7 -68 -7 l-131 0 l-18 84 l119 0 q20 0 40 3 q14 1 24 10 q6 7 8 16 q4 18 4 36 l0 121 l-412 0 l0 83 l412 0 Z" /><glyph glyph-name="uni6253" unicode="&#x6253;" d="M139 -1 q18 0 36 2 q8 2 16 6 q8 7 11 17 q3 15 3 31 l0 201 l-150 -46 l-18 83 q84 20 168 45 l0 196 l-148 0 l0 82 l148 0 l0 181 l86 0 l0 -181 l142 0 l0 -82 l-142 0 l0 -171 q69 20 138 42 l6 -47 l4 -32 q-75 -22 -148 -44 l0 -257 q0 -29 -7 -57 q-5 -15 -15 -27 q-17 -15 -39 -20 q-32 -6 -65 -6 l-88 0 l-18 84 l80 0 ZM612 4 q21 -1 41 3 q11 2 20 7 q11 7 15 19 q4 16 4 32 l0 577 l-247 0 l0 83 l512 0 l0 -83 l-179 0 l0 -600 q0 -31 -9 -60 q-8 -23 -27 -38 q-16 -10 -36 -16 q-35 -7 -71 -7 l-115 0 l-18 83 l110 0 Z" /><glyph glyph-name="uni6269" unicode="&#x6269;" d="M121 0 q15 0 30 2 q11 2 18 9 q5 6 7 13 q3 14 3 29 l0 218 q-65 -22 -130 -40 l-14 84 q72 19 144 42 l0 178 l-122 0 l0 82 l122 0 l0 180 l84 0 l0 -180 l118 0 l0 -82 l-118 0 l0 -151 l114 38 l2 -41 l2 -43 l-118 -40 l0 -277 q0 -28 -7 -55 q-4 -15 -14 -27 q-16 -14 -36 -19 q-30 -6 -59 -6 l-81 0 l-17 86 l72 0 ZM288 -67 q41 51 75 106 q27 48 42 101 q11 45 16 90 q6 80 6 161 l0 265 l241 0 l-63 135 l82 18 q34 -77 71 -152 l-4 -1 l189 0 l0 -81 l-432 0 l0 -176 q0 -86 -8 -172 q-6 -51 -18 -101 q-16 -61 -45 -119 q-35 -63 -77 -124 l-75 50 Z" /><glyph glyph-name="uni6279" unicode="&#x6279;" d="M722 791 l0 -332 q91 82 172 176 l55 -68 q-106 -118 -227 -218 l0 -283 q-1 -14 2 -26 q2 -10 8 -18 q16 -13 37 -11 l40 0 q21 -2 36 11 q7 8 10 19 q3 14 4 29 q4 87 6 175 l79 -18 q-3 -97 -7 -193 q-2 -27 -10 -51 q-7 -20 -24 -33 q-14 -10 -30 -15 q-30 -7 -60 -7 l-65 0 q-26 0 -51 6 q-20 6 -35 20 q-14 16 -19 37 q-5 19 -4 40 l0 760 l83 0 ZM114 1 q15 -1 29 2 q7 2 14 7 q6 6 8 15 q3 13 3 26 l0 205 q-59 -20 -117 -37 l-11 85 q64 18 128 40 l0 187 l-107 0 l0 83 l107 0 l0 178 l85 0 l0 -178 l104 0 l0 -83 l-104 0 l0 -158 l99 34 l3 -43 l3 -42 q-53 -20 -105 -37 l0 -269 q0 -25 -6 -50 q-6 -19 -21 -31 q-13 -9 -28 -12 q-30 -6 -59 -6 l-69 0 l-17 84 l61 0 ZM361 -7 q31 14 30 49 l0 739 l84 0 l0 -271 l136 0 l0 -85 l-136 0 l0 -376 q66 38 130 81 l13 -95 q-79 -46 -157 -93 q-25 -13 -48 -29 l-52 80 Z" /><glyph glyph-name="uni627E" unicode="&#x627e;" d="M593 795 q5 -101 13 -201 q1 -25 4 -49 l335 40 l9 -76 l-336 -41 q11 -109 36 -215 q105 86 184 198 l65 -45 q-96 -135 -224 -237 q20 -63 56 -117 q15 -24 36 -42 q16 -13 38 -15 q18 1 28 16 q14 27 21 58 q13 59 22 119 l73 -26 q-13 -69 -29 -137 q-8 -29 -21 -57 q-8 -16 -20 -30 q-30 -32 -74 -32 q-45 1 -81 29 q-41 34 -68 80 q-31 48 -51 102 q-115 -78 -242 -132 l-44 78 q137 54 260 137 q-32 127 -44 258 l-161 -19 l-10 78 l163 19 q-4 32 -5 66 q-8 94 -13 190 l80 3 ZM135 -4 q17 0 34 3 q8 1 15 5 q7 6 9 16 q3 15 3 31 l0 204 l-144 -46 l-18 79 l162 47 l0 201 l-141 0 l0 77 l141 0 l0 177 l83 0 l0 -177 l118 0 l0 -77 l-118 0 l0 -175 l119 38 l5 -34 l5 -44 l-129 -40 l0 -258 q0 -28 -6 -56 q-5 -20 -20 -34 q-14 -9 -30 -13 q-31 -6 -62 -6 l-83 0 l-18 82 l75 0 ZM704 777 q84 -67 164 -139 l-52 -55 q-77 75 -161 142 l49 52 Z" /><glyph glyph-name="uni6280" unicode="&#x6280;" d="M491 369 l-103 0 l0 80 l210 0 l0 133 l-213 0 l0 81 l213 0 l0 136 l84 0 l0 -136 l250 0 l0 -81 l-250 0 l0 -133 l189 0 l0 -82 q-32 -83 -79 -158 q-39 -61 -92 -109 q54 -43 117 -73 q65 -31 135 -54 l-32 -89 q-88 37 -170 84 q-61 34 -115 79 q-58 -40 -119 -71 q-88 -45 -178 -84 l-45 85 q84 31 165 69 q58 28 112 63 q-90 101 -142 226 l63 34 ZM123 -1 q14 0 28 2 q10 2 17 8 q5 6 7 13 q3 13 3 27 l0 211 q-65 -22 -129 -45 l-26 90 q78 21 155 49 l0 180 l-120 0 l0 88 l120 0 l0 172 l84 0 l0 -172 l100 0 l0 -88 l-100 0 l0 -151 l90 33 l13 -45 l12 -43 l-115 -39 l0 -273 q0 -26 -7 -52 q-4 -14 -14 -25 q-15 -14 -35 -19 q-28 -6 -56 -6 l-78 0 l-17 85 l68 0 ZM505 369 q26 -64 62 -122 q30 -48 69 -88 q45 39 80 87 q39 58 64 123 l-275 0 Z" /><glyph glyph-name="uni6296" unicode="&#x6296;" d="M125 -7 q14 0 27 3 q10 1 17 7 q5 5 7 12 q3 13 3 27 l0 221 l-130 -42 l-14 83 q72 20 144 43 l0 189 l-122 0 l0 79 l122 0 l0 180 l82 0 l0 -180 l126 0 l0 -79 l-126 0 l0 -163 q54 17 109 37 l7 -45 l7 -37 l-123 -39 l0 -276 q0 -26 -7 -52 q-4 -14 -14 -25 q-15 -13 -35 -18 q-28 -5 -56 -5 l-85 0 l-17 80 l78 0 ZM714 240 l0 555 l83 0 l0 -546 l150 17 l7 -85 l-157 -17 l0 -263 l-83 0 l0 254 l-368 -39 l-5 83 l373 41 ZM442 493 q98 -77 194 -156 l-55 -64 q-94 82 -191 160 l52 60 ZM486 728 q93 -76 185 -154 l-56 -63 q-88 81 -181 158 l52 59 Z" /><glyph glyph-name="uni6297" unicode="&#x6297;" d="M290 -54 q43 38 79 80 q21 26 35 57 q18 46 23 95 q5 71 5 143 l0 140 l364 0 l0 -417 q-2 -19 4 -37 q3 -5 9 -7 q8 -2 16 -2 l14 0 q12 -1 20 7 q3 8 4 16 q2 13 3 27 q2 70 4 141 l80 -15 l-6 -158 q-1 -19 -6 -38 q-5 -19 -18 -34 q-14 -12 -32 -17 q-24 -6 -47 -6 l-38 0 q-22 0 -43 6 q-17 6 -29 19 q-12 15 -16 34 q-4 18 -3 37 l0 362 l-195 0 l0 -85 q0 -73 -7 -145 q-7 -53 -27 -103 q-16 -35 -38 -65 q-38 -48 -82 -90 l-73 55 ZM131 0 q12 0 24 1 q7 2 13 7 q3 6 5 12 q2 13 2 26 l0 219 q-62 -19 -123 -37 l-14 85 q68 18 137 39 l0 184 l-121 0 l0 83 l121 0 l0 176 l82 0 l0 -176 l101 0 l0 -83 l-101 0 l0 -159 q56 17 112 36 l2 -42 l3 -42 q-59 -20 -117 -38 l0 -273 q-1 -20 -5 -40 q-5 -20 -19 -35 q-15 -13 -35 -18 q-24 -5 -49 -5 l-78 0 l-17 80 l77 0 ZM596 656 q-26 63 -52 127 l90 18 q27 -74 58 -145 l253 0 l0 -81 l-563 0 l0 81 l214 0 Z" /><glyph glyph-name="uni62A2" unicode="&#x62a2;" d="M317 456 q95 71 172 162 q67 79 115 172 l76 0 q50 -106 130 -193 q71 -78 160 -135 l-42 -81 q-87 59 -158 135 q-76 81 -128 179 q-74 -133 -186 -234 l369 0 q-2 -103 -4 -205 q-1 -28 -9 -55 q-8 -21 -25 -36 q-14 -10 -31 -15 q-31 -8 -63 -7 l-102 0 l-13 73 l92 0 q18 -1 36 2 q10 3 18 8 q9 7 13 18 q5 15 6 31 q3 53 3 107 l-240 0 l0 -303 q-1 -20 3 -40 q3 -10 10 -19 q10 -10 24 -13 q21 -4 42 -3 l157 0 q21 -1 42 3 q11 3 20 9 q10 8 15 21 q4 17 6 35 q2 45 4 91 l83 -18 q-2 -57 -7 -112 q-3 -30 -14 -56 q-8 -15 -20 -26 q-21 -15 -46 -19 q-35 -6 -71 -6 l-193 0 q-33 0 -65 8 q-25 6 -43 24 q-12 15 -19 33 q-9 31 -8 65 l0 378 q-31 -26 -62 -49 l-47 71 ZM128 -2 q14 0 28 2 q9 1 17 7 q4 6 6 12 q3 13 3 26 l0 214 q-66 -20 -132 -36 l-13 85 q72 17 145 38 l0 190 l-122 0 l0 82 l122 0 l0 172 l82 0 l0 -172 l120 0 l0 -82 l-120 0 l0 -167 l85 26 l11 -52 l6 -30 q-51 -17 -102 -31 l0 -270 q0 -25 -6 -49 q-6 -19 -22 -31 q-13 -8 -28 -12 q-30 -6 -59 -6 l-77 0 l-16 84 l72 0 Z" /><glyph glyph-name="uni62A4" unicode="&#x62a4;" d="M297 -64 q37 51 66 105 q25 50 39 105 q11 47 15 94 q7 82 7 165 l0 262 l216 0 q-27 55 -56 109 l80 32 l70 -141 l178 0 l0 -371 l-407 0 q-3 -65 -13 -129 q-7 -41 -18 -80 q-16 -50 -39 -95 q-27 -52 -59 -100 l-79 44 ZM128 -10 q14 0 28 3 q10 2 18 7 q11 15 10 35 l0 233 l-131 -47 l-19 82 q75 23 150 51 l0 184 l-122 0 l0 82 l122 0 l0 171 l83 0 l0 -171 l113 0 l0 -82 l-113 0 l0 -154 q51 18 102 39 l8 -47 l5 -37 q-58 -21 -115 -41 l0 -292 q0 -24 -7 -48 q-5 -14 -14 -24 q-16 -13 -36 -18 q-29 -5 -58 -5 l-84 0 l-17 79 l77 0 ZM508 376 l323 0 l0 212 l-323 0 l0 -166 l0 -46 Z" /><glyph glyph-name="uni62B1" unicode="&#x62b1;" d="M109 0 q14 0 28 2 q10 2 17 9 q5 5 7 12 q3 12 3 26 l0 217 l-115 -40 l-14 83 l129 43 l0 185 l-114 0 l0 83 l114 0 l0 173 l82 0 l0 -173 l104 0 l0 -76 q86 121 137 261 l80 -24 q-18 -49 -40 -94 l356 0 q-3 -235 -7 -469 q-1 -29 -8 -56 l77 -17 q-4 -62 -9 -122 q-3 -27 -14 -51 q-8 -15 -20 -25 q-20 -14 -44 -19 q-33 -6 -66 -6 l-277 0 q-33 0 -65 8 q-25 7 -43 24 q-12 14 -19 31 q-9 29 -8 61 l0 405 q-8 -10 -16 -19 l-62 50 q22 26 43 55 l-99 0 l0 -157 q42 14 84 31 l7 -40 l8 -42 l-99 -34 l0 -276 q0 -25 -7 -50 q-4 -14 -14 -25 q-15 -14 -35 -18 q-29 -6 -57 -6 l-73 0 l-16 80 l65 0 ZM486 608 q-32 -57 -69 -108 l276 0 l0 -303 l-238 0 l0 -119 q-1 -20 4 -40 q3 -10 10 -19 q11 -10 26 -14 q20 -4 42 -3 l243 0 q18 -1 36 3 q13 3 23 12 q6 7 9 16 q5 18 7 37 q1 35 3 71 q-16 -24 -42 -33 q-42 -13 -85 -11 l-94 0 l-16 77 l92 0 q17 -1 35 2 q16 3 29 12 q10 10 14 23 q4 18 5 36 q3 180 6 361 l-316 0 ZM455 275 l163 0 l0 145 l-163 0 l0 -145 Z" /><glyph glyph-name="uni62C5" unicode="&#x62c5;" d="M887 735 l0 -569 l-467 0 l0 569 l467 0 ZM121 -2 q15 0 30 2 q11 1 19 8 q5 6 7 13 q3 14 3 29 l0 215 l-123 -42 l-17 82 q70 21 140 44 l0 185 l-122 0 l0 83 l122 0 l0 181 l83 0 l0 -181 l119 0 l0 -83 l-119 0 l0 -158 l107 37 l7 -38 l8 -44 l-122 -39 l0 -270 q0 -27 -7 -54 q-5 -15 -14 -27 q-16 -14 -36 -19 q-30 -6 -59 -6 l-79 0 l-18 82 l71 0 ZM957 28 l0 -83 l-625 0 l0 83 l625 0 ZM501 490 l304 0 l0 164 l-304 0 l0 -164 ZM805 248 l0 162 l-304 0 l0 -162 l304 0 Z" /><glyph glyph-name="uni62C9" unicode="&#x62c9;&#xf925;" d="M128 -5 q13 0 26 3 q9 2 15 7 q5 5 7 12 q3 13 3 26 l0 218 q-64 -21 -127 -42 l-19 82 q73 21 146 45 l0 190 l-122 0 l0 79 l122 0 l0 182 l81 0 l0 -182 l101 0 l0 -79 l-101 0 l0 -164 l112 38 l7 -48 l4 -33 q-62 -21 -123 -41 l0 -272 q0 -26 -6 -51 q-5 -14 -14 -25 q-14 -14 -34 -18 q-27 -6 -55 -6 l-81 0 l-17 79 l75 0 ZM640 27 q35 109 66 220 q38 132 73 265 l85 -24 q-66 -232 -139 -461 l221 0 l0 -78 l-629 0 l0 78 l323 0 ZM641 806 q32 -76 62 -152 l-59 -19 l286 0 l0 -78 l-536 0 l0 78 l222 0 q-29 73 -58 146 l83 25 ZM494 508 q57 -198 112 -395 l-82 -22 q-54 197 -111 394 l81 23 Z" /><glyph glyph-name="uni62CD" unicode="&#x62cd;" d="M573 660 q23 71 43 145 l89 -15 q-19 -66 -39 -130 l232 0 l0 -755 l-80 0 l0 62 l-326 0 l0 -65 l-81 0 l0 758 l162 0 ZM127 -1 q16 0 31 1 q11 2 18 9 q5 5 7 13 q3 14 3 29 l0 205 l-138 -42 l-16 82 q77 20 154 43 l0 197 l-132 0 l0 80 l132 0 l0 174 l82 0 l0 -174 l114 0 l0 -80 l-114 0 l0 -172 l106 35 l3 -41 l3 -43 l-112 -34 l0 -259 q0 -27 -7 -54 q-4 -14 -14 -25 q-16 -14 -37 -19 q-31 -5 -61 -5 l-82 0 l-17 80 l77 0 ZM492 47 l326 0 l0 230 l-326 0 l0 -230 ZM492 357 l326 0 l0 223 l-326 0 l0 -223 Z" /><glyph glyph-name="uni62E9" unicode="&#x62e9;" d="M360 415 q109 30 212 79 q-40 29 -74 65 q-41 45 -75 96 l26 17 l-65 0 l0 75 l501 0 l0 -75 q-62 -108 -164 -177 q48 -22 98 -39 q71 -23 144 -39 l-27 -73 q-89 23 -176 54 q-60 21 -115 51 q-125 -64 -258 -104 l-27 70 ZM123 -2 q16 0 31 2 q11 1 18 8 q5 6 7 13 q3 14 3 29 l0 232 l-125 -52 l-20 81 q72 27 145 56 l0 172 l-125 0 l0 79 l125 0 l0 173 l78 0 l0 -173 l104 0 l0 -79 l-104 0 l0 -140 q45 18 91 39 l10 -44 l9 -37 q-56 -22 -110 -44 l0 -289 q0 -27 -6 -54 q-5 -14 -14 -25 q-15 -14 -35 -19 q-30 -5 -59 -5 l-78 0 l-18 77 l73 0 ZM602 125 l0 100 l-219 0 l0 71 l219 0 l0 94 l79 0 l0 -94 l220 0 l0 -71 l-220 0 l0 -100 l263 0 l0 -72 l-263 0 l0 -151 l-79 0 l0 151 l-263 0 l0 72 l263 0 ZM500 672 q58 -85 146 -138 q88 53 147 138 l-293 0 Z" /><glyph glyph-name="uni62EC" unicode="&#x62ec;" d="M595 281 l0 139 l-250 0 l0 83 l250 0 l0 143 q-111 -9 -222 -13 l-6 80 q266 9 531 46 l15 -79 q-115 -18 -231 -27 l0 -150 l271 0 l0 -83 l-271 0 l0 -139 l197 0 l0 -384 l-86 0 l0 50 l-307 0 l0 -50 l-87 0 l0 384 l196 0 ZM121 -5 q14 0 28 3 q9 2 17 8 q4 5 6 12 q3 12 3 26 l0 207 l-123 -34 l-11 85 l134 36 l0 194 l-124 0 l0 80 l124 0 l0 184 l83 0 l0 -184 l102 0 l0 -80 l-102 0 l0 -171 q50 14 101 30 l6 -44 l6 -39 q-57 -18 -113 -33 l0 -261 q0 -27 -7 -53 q-5 -14 -15 -25 q-15 -13 -35 -17 q-28 -5 -55 -5 l-85 0 l-17 81 l77 0 ZM486 28 l307 0 l0 170 l-307 0 l0 -170 Z" /><glyph glyph-name="uni62FF" unicode="&#x62ff;" d="M469 107 l0 56 l-320 0 l0 59 l320 0 l0 55 q-176 -6 -352 -7 l-5 58 q370 4 741 25 l8 -60 q-154 -8 -308 -13 l0 -58 l300 0 l0 -59 l-300 0 l0 -56 l382 0 l0 -62 l-382 0 l0 -32 q0 -26 -7 -52 q-6 -14 -16 -25 q-17 -15 -40 -19 q-32 -6 -64 -6 l-121 0 l-13 66 l110 0 q18 0 35 3 q9 2 17 6 q8 6 12 14 q3 13 3 26 l0 19 l-405 0 l0 62 l405 0 ZM34 588 q120 37 234 91 q103 48 193 118 l81 0 q92 -71 196 -120 q112 -52 229 -89 l-31 -72 q-130 43 -251 106 l0 -37 l-372 0 l0 36 q-120 -61 -246 -104 l-33 71 ZM805 544 l0 -160 l-610 0 l0 160 l610 0 ZM265 436 l469 0 l0 56 l-469 0 l0 -56 ZM500 736 q-74 -56 -154 -98 l308 0 q-82 41 -154 98 Z" /><glyph glyph-name="uni6301" unicode="&#x6301;" d="M118 -11 q14 0 29 3 q10 2 18 8 q4 4 7 11 q3 12 3 26 l0 224 l-129 -40 l-17 82 q73 18 146 40 l0 198 l-130 0 l0 77 l130 0 l0 179 l80 0 l0 -179 l116 0 l0 -77 l-116 0 l0 -173 q44 13 88 29 l6 -47 l4 -36 l-98 -29 l0 -270 q0 -26 -7 -51 q-4 -14 -14 -25 q-15 -14 -35 -18 q-28 -6 -57 -6 l-78 0 l-16 74 l70 0 ZM683 793 l0 -120 l219 0 l0 -79 l-219 0 l0 -112 l263 0 l0 -81 l-601 0 l0 81 l255 0 l0 112 l-205 0 l0 79 l205 0 l0 120 l83 0 ZM455 210 l-102 0 l0 79 l374 0 l0 85 l83 0 l0 -85 l124 0 l0 -79 l-124 0 l0 -179 q0 -31 -8 -59 q-7 -22 -25 -36 q-16 -10 -35 -14 q-35 -7 -71 -7 l-104 0 l-15 80 l97 0 q21 0 42 4 q10 1 19 7 q10 8 13 20 q4 16 4 34 l0 150 l-268 0 q68 -66 134 -134 l-60 -62 q-66 72 -134 143 l56 53 Z" /><glyph glyph-name="uni6307" unicode="&#x6307;" d="M884 351 l0 -448 l-82 0 l0 45 l-314 0 l0 -47 l-79 0 l0 450 l475 0 ZM119 -8 q16 0 33 1 q10 1 18 7 q4 4 5 10 q2 15 2 30 l0 226 l-124 -41 l-17 82 q70 21 141 44 l0 189 l-121 0 l0 79 l121 0 l0 171 l85 0 l0 -171 l116 0 l0 -79 l-116 0 l0 -161 q52 17 104 35 l7 -40 l8 -41 l-119 -39 l0 -280 q0 -25 -7 -50 q-5 -14 -15 -25 q-16 -14 -37 -18 q-30 -6 -60 -6 l-76 0 l-16 77 l68 0 ZM490 786 l0 -134 q194 40 385 100 l22 -76 q-202 -58 -407 -100 l0 -20 q-1 -15 2 -30 q3 -11 11 -18 q7 -5 15 -7 q15 -4 31 -3 l227 0 q19 -1 37 2 q13 2 23 11 q6 6 9 14 q4 14 5 30 q1 33 2 68 l81 -14 q-1 -45 -5 -88 q-2 -26 -11 -50 q-6 -13 -16 -24 q-16 -13 -37 -17 q-28 -6 -57 -5 l-277 0 q-31 -1 -60 6 q-23 6 -38 22 q-11 13 -16 29 q-8 29 -7 60 l0 244 l81 0 ZM488 185 l314 0 l0 95 l-314 0 l0 -95 ZM488 19 l314 0 l0 94 l-314 0 l0 -94 Z" /><glyph glyph-name="uni6309" unicode="&#x6309;" d="M402 187 q35 73 66 150 l-106 0 l0 77 l134 0 q27 75 48 153 l84 -20 q-21 -67 -44 -133 l371 0 l0 -77 l-115 0 q-16 -73 -48 -140 q-26 -53 -64 -96 q107 -63 214 -128 l-52 -74 q-112 74 -227 142 q-60 -43 -128 -74 q-97 -45 -199 -78 l-37 84 q87 24 171 57 q58 25 112 59 q-89 51 -180 98 ZM122 -6 q15 0 30 3 q10 1 18 7 q5 5 7 11 q3 13 3 27 l0 231 q-64 -25 -126 -50 l-21 79 q74 25 147 54 l0 181 l-123 0 l0 81 l123 0 l0 169 l81 0 l0 -169 l96 0 l0 -81 l-96 0 l0 -148 l68 29 l10 -41 l9 -38 l-87 -34 l0 -290 q0 -27 -8 -53 q-5 -14 -15 -25 q-16 -13 -37 -17 q-28 -5 -56 -5 l-84 0 l-17 79 l78 0 ZM615 683 q-23 54 -47 107 l86 21 l57 -128 l204 0 l0 -188 l-80 0 l0 112 l-374 0 l0 -112 l-78 0 l0 188 l232 0 ZM507 221 q72 -38 144 -76 q34 35 58 79 q29 53 45 113 l-198 0 q-24 -59 -49 -116 Z" /><glyph glyph-name="uni634F" unicode="&#x634f;" d="M890 743 l0 -408 l-493 0 l0 408 l493 0 ZM119 -8 q15 0 30 3 q11 2 19 8 q4 5 7 12 q3 13 3 27 l0 231 q-62 -21 -123 -42 l-17 82 q70 20 140 43 l0 175 l-115 0 l0 80 l115 0 l0 180 l82 0 l0 -180 l105 0 l0 -80 l-105 0 l0 -148 l97 33 l4 -41 l6 -41 q-54 -17 -107 -34 l0 -286 q0 -26 -7 -52 q-5 -14 -14 -25 q-16 -14 -37 -18 q-29 -6 -59 -6 l-76 0 l-16 79 l68 0 ZM684 315 l0 -94 l223 0 l0 -76 l-223 0 l0 -130 l272 0 l0 -73 l-640 0 l0 73 l288 0 l0 130 l-223 0 l0 76 l223 0 l0 94 l80 0 ZM808 410 l0 92 l-328 0 l0 -92 l328 0 ZM480 576 l328 0 l0 91 l-328 0 l0 -91 Z" /><glyph glyph-name="uni6355" unicode="&#x6355;" d="M675 798 l0 -122 l145 0 q-43 42 -87 84 l55 50 q55 -52 110 -104 l-31 -30 l86 0 l0 -76 l-278 0 l0 -88 l229 0 l0 -497 q0 -25 -6 -50 q-6 -18 -20 -31 q-12 -9 -26 -13 q-26 -6 -52 -6 l-76 0 l-15 79 l56 0 q15 0 31 3 q10 2 18 8 q5 5 7 12 q4 14 4 29 l0 53 l-150 0 l0 -173 l-78 0 l0 173 l-147 0 l0 -189 l-79 0 l0 602 l226 0 l0 88 l-241 0 l0 76 l241 0 l0 122 l78 0 ZM106 -7 q16 0 32 3 q8 2 15 5 q8 6 11 16 q3 12 3 26 l0 232 l-107 -41 l-19 81 q63 21 126 45 l0 175 l-110 0 l0 80 l110 0 l0 177 l79 0 l0 -177 l91 0 l0 -80 l-91 0 l0 -145 q41 15 82 32 l8 -42 l7 -39 q-49 -18 -97 -36 l0 -290 q0 -26 -7 -52 q-5 -14 -15 -25 q-16 -14 -36 -18 q-30 -6 -59 -6 l-71 0 l-17 79 l65 0 ZM675 436 l0 -95 l150 0 l0 95 l-150 0 ZM675 174 l150 0 l0 94 l-150 0 l0 -94 ZM450 341 l147 0 l0 95 l-147 0 l0 -95 ZM450 174 l147 0 l0 94 l-147 0 l0 -94 Z" /><glyph glyph-name="uni635F" unicode="&#x635f;" d="M115 -6 q16 0 32 3 q7 2 14 5 q8 6 11 15 q3 13 3 27 l0 229 q-61 -20 -121 -38 l-14 80 l135 42 l0 178 l-121 0 l0 80 l121 0 l0 178 l81 0 l0 -178 l116 0 l0 -80 l-116 0 l0 -152 l97 33 l8 -45 l7 -36 l-112 -36 l0 -284 q0 -26 -7 -51 q-5 -14 -14 -25 q-16 -14 -37 -18 q-29 -6 -59 -6 l-77 0 l-17 79 l70 0 ZM876 754 l0 -245 l-460 0 l0 245 l460 0 ZM896 431 l0 -324 l-82 0 l0 249 l-341 0 l0 -252 l-78 0 l0 327 l501 0 ZM298 -23 q71 18 141 43 q50 20 93 53 q25 21 42 49 q22 40 27 85 q5 55 6 111 l83 0 q-3 -78 -13 -155 q-2 -12 -5 -22 q145 -81 289 -165 l-41 -78 q-139 87 -281 168 q-42 -58 -104 -90 q-44 -24 -91 -42 q-57 -21 -115 -38 l-31 81 ZM499 577 l293 0 l0 110 l-293 0 l0 -110 Z" /><glyph glyph-name="uni6362" unicode="&#x6362;" d="M102 -17 q23 -1 43 9 q7 6 10 13 q3 12 3 24 l0 222 l-107 -42 l-21 86 q64 20 128 45 l0 188 l-107 0 l0 82 l107 0 l0 175 l81 0 l0 -175 l99 0 l0 -79 q115 115 178 266 l79 -22 q-14 -35 -30 -68 l259 0 l0 -69 l-92 -125 l150 0 l0 -252 l76 0 l0 -78 l-281 0 q16 -40 43 -73 q30 -35 68 -61 q77 -52 169 -78 l-36 -81 q-100 32 -182 94 q-64 50 -104 121 q-38 -72 -104 -117 q-45 -31 -94 -54 q-58 -26 -118 -47 l-43 80 q64 20 126 46 q37 17 71 39 q38 25 67 60 q25 32 38 71 l-280 0 l0 78 l86 0 l0 205 l-24 -22 l-51 60 l25 24 l-95 0 l0 -157 q43 16 86 35 l7 -38 l9 -47 l-102 -38 l0 -283 q0 -25 -7 -50 q-4 -13 -14 -24 q-15 -14 -35 -18 q-28 -6 -56 -6 l-65 0 l-16 81 l56 0 ZM667 436 l0 -175 l139 0 l0 175 l-139 0 ZM523 632 q-41 -64 -93 -119 l202 0 l90 119 l-199 0 ZM589 263 l0 173 l-128 0 l0 -175 l128 0 l0 2 Z" /><glyph glyph-name="uni636E" unicode="&#x636e;" d="M734 477 l0 -81 l222 0 l0 -71 l-222 0 l0 -100 l161 0 l0 -325 l-78 0 l0 47 l-245 0 l0 -48 l-77 0 l0 326 l161 0 l0 100 l-195 0 q-4 -112 -31 -219 q-30 -107 -91 -201 l-74 42 q34 54 60 113 q24 58 37 118 q10 52 15 105 q7 88 7 178 l0 280 l528 0 l0 -248 l-448 0 l0 -42 q0 -28 -1 -55 l193 0 l0 81 l78 0 ZM111 -11 q16 0 32 3 q11 2 19 8 q5 5 8 12 q3 14 3 29 l0 231 l-119 -49 l-18 83 q68 24 137 51 l0 176 l-117 0 l0 79 l117 0 l0 177 l79 0 l0 -177 l93 0 l0 -79 l-93 0 l0 -146 q42 16 84 35 l8 -41 l7 -39 q-50 -19 -99 -39 l0 -287 q0 -27 -7 -53 q-4 -14 -14 -25 q-17 -14 -38 -19 q-30 -5 -61 -5 l-70 0 l-13 75 l62 0 ZM464 564 l367 0 l0 106 l-367 0 l0 -106 ZM572 16 l245 0 l0 137 l-245 0 l0 -137 Z" /><glyph glyph-name="uni638C" unicode="&#x638c;" d="M469 105 l0 57 l-321 0 l0 60 l321 0 l0 55 q-177 -6 -354 -8 l-4 59 q370 6 741 24 l7 -58 q-154 -10 -308 -14 l0 -58 l301 0 l0 -60 l-301 0 l0 -57 l383 0 l0 -61 l-383 0 l0 -30 q0 -26 -7 -52 q-6 -19 -22 -32 q-14 -9 -31 -13 q-32 -6 -64 -6 l-124 0 l-14 69 l114 0 q18 0 36 3 q8 1 16 5 q8 5 11 14 q3 13 3 27 l0 15 l-406 0 l0 61 l406 0 ZM248 803 q49 -51 97 -104 l-45 -38 l156 0 l0 139 l86 0 l0 -139 l141 0 l-34 30 q53 51 102 109 l59 -45 q-40 -49 -83 -94 l183 0 l0 -165 l-75 0 l0 105 l-673 0 l0 -104 l-75 0 l0 164 l187 0 q-42 49 -87 94 l61 48 ZM787 552 l0 -165 l-577 0 l0 165 l577 0 ZM282 445 l433 0 l0 49 l-433 0 l0 -49 Z" /><glyph glyph-name="uni63A8" unicode="&#x63a8;" d="M692 808 q46 -72 92 -144 l-37 -19 l196 0 l0 -75 l-202 0 l0 -122 l184 0 l0 -73 l-184 0 l0 -121 l184 0 l0 -74 l-184 0 l0 -134 l217 0 l0 -74 l-479 0 l0 -69 l-81 0 l0 549 q-19 -29 -39 -56 l-58 65 q31 41 58 86 l-98 0 l0 -174 l88 28 l6 -41 l6 -39 q-51 -15 -100 -31 l0 -269 q0 -26 -7 -51 q-5 -14 -15 -25 q-15 -14 -36 -18 q-29 -6 -58 -6 l-77 0 l-17 79 l72 0 q14 0 29 1 q9 2 16 8 q5 5 7 12 q3 13 3 27 l0 217 l-128 -40 l-18 82 q73 19 146 41 l0 199 l-119 0 l0 82 l119 0 l0 164 l83 0 l0 -164 l102 0 l0 -77 q68 118 98 252 l82 -15 q-20 -74 -47 -144 l208 0 l-78 129 l66 34 ZM479 46 l180 0 l0 134 l-180 0 l0 -134 ZM479 448 l180 0 l0 122 l-180 0 l0 -122 ZM479 254 l180 0 l0 121 l-180 0 l0 -121 Z" /><glyph glyph-name="uni63CF" unicode="&#x63cf;" d="M896 475 l0 -569 l-79 0 l0 55 l-356 0 l0 -55 l-79 0 l0 569 l514 0 ZM126 0 q15 0 29 2 q8 1 13 5 q7 7 9 16 q2 13 2 27 l0 235 l-125 -45 l-14 83 l139 46 l0 179 l-118 0 l0 79 l118 0 l0 165 l79 0 l0 -165 l84 0 l0 -79 l-84 0 l0 -152 l84 30 l5 -43 l5 -37 l-94 -33 l0 -292 q0 -26 -7 -52 q-5 -15 -16 -26 q-17 -14 -39 -18 q-33 -6 -65 -6 l-58 0 l-17 81 l70 0 ZM793 792 l0 -109 l165 0 l0 -80 l-165 0 l0 -92 l-78 0 l0 92 l-151 0 l0 -92 l-80 0 l0 92 l-127 0 l0 80 l127 0 l0 109 l80 0 l0 -109 l151 0 l0 109 l78 0 ZM677 37 l140 0 l0 142 l-140 0 l0 -142 ZM677 396 l0 -140 l140 0 l0 140 l-140 0 ZM461 37 l138 0 l0 142 l-138 0 l0 -142 ZM461 256 l138 0 l0 140 l-138 0 l0 -140 Z" /><glyph glyph-name="uni63D0" unicode="&#x63d0;" d="M340 345 q-3 -2 -6 -2 l605 0 l0 -71 l-255 0 l0 -95 l212 0 l0 -72 l-212 0 l0 -104 l11 0 l259 0 l-15 -77 l-245 0 q-46 0 -90 8 q-38 8 -72 26 q-25 15 -45 34 q-30 30 -50 68 q-19 -42 -46 -78 q-35 -48 -77 -90 l-63 52 q36 35 68 73 q20 26 36 53 q20 37 31 78 q12 47 19 95 l78 -6 q-7 -46 -17 -91 q13 -30 30 -57 q14 -22 34 -40 q32 -29 74 -39 l0 262 l-278 0 l0 67 l-82 -30 l0 -301 q0 -24 -7 -48 q-5 -13 -14 -23 q-15 -13 -35 -18 q-29 -5 -57 -5 l-64 0 l-17 79 l56 0 q14 0 29 3 q10 2 18 7 q11 14 10 33 l0 242 l-123 -45 l-10 84 q66 22 133 47 l0 170 l-117 0 l0 79 l117 0 l0 175 l81 0 l0 -175 l106 0 l0 -79 l-106 0 l0 -141 q45 17 91 36 l3 -47 l2 -37 ZM862 752 l0 -338 l-461 0 l0 338 l461 0 ZM780 479 l0 73 l-298 0 l0 -73 l298 0 ZM482 616 l298 0 l0 72 l-298 0 l0 -72 Z" /><glyph glyph-name="uni63E1" unicode="&#x63e1;" d="M245 -57 q57 91 81 196 q12 62 16 125 q4 79 4 158 l0 323 l558 0 l0 -220 l-479 0 l0 -100 q0 -79 -5 -158 q-4 -69 -17 -136 q-26 -121 -86 -228 l-72 40 ZM102 -15 q19 -1 37 7 q6 5 9 11 q3 10 3 21 l0 245 q-52 -19 -103 -38 l-17 81 q60 18 120 40 l0 181 l-105 0 l0 79 l105 0 l0 174 l77 0 l0 -174 l88 0 l0 -79 l-88 0 l0 -153 q38 13 77 29 l9 -42 l7 -36 l-93 -34 l0 -296 q0 -23 -6 -45 q-6 -17 -19 -28 q-12 -8 -26 -12 q-27 -5 -53 -5 l-66 0 l-16 74 l60 0 ZM444 281 q23 5 41 22 q47 43 88 94 l-121 0 l0 65 l466 0 l0 -65 l-135 0 q71 -79 141 -159 l-56 -42 l-36 42 q-158 -5 -315 -12 q-31 -2 -61 -5 l-12 60 ZM712 223 l0 -73 l184 0 l0 -64 l-184 0 l0 -89 l231 0 l0 -65 l-551 0 l0 65 l240 0 l0 89 l-178 0 l0 64 l178 0 l0 73 l80 0 ZM425 592 l400 0 l0 84 l-400 0 l0 -84 ZM766 397 l-106 0 q-46 -60 -101 -109 q111 2 222 9 q-30 33 -59 67 l44 33 Z" /><glyph glyph-name="uni642D" unicode="&#x642d;" d="M104 2 q13 -1 25 2 q9 2 16 8 q11 16 10 36 l0 239 l-108 -47 l-19 78 l127 52 l0 180 l-105 0 l0 80 l105 0 l0 164 l80 0 l0 -164 l99 0 l0 -80 l-99 0 l0 -145 l80 37 l9 -42 l8 -32 q68 41 129 94 q62 54 109 123 l82 0 q58 -79 137 -137 q78 -57 167 -95 l-37 -73 q-67 30 -127 72 l0 -46 l-361 0 l0 33 q-51 -38 -107 -67 l-37 71 q7 3 15 8 l-67 -29 l0 -302 q0 -24 -6 -49 q-5 -13 -14 -24 q-14 -13 -33 -17 q-27 -6 -54 -6 l-74 0 l-17 78 l67 0 ZM847 230 l0 -321 l-79 0 l0 50 l-311 0 l0 -49 l-80 0 l0 320 l470 0 ZM424 704 l0 98 l81 0 l0 -98 l208 0 l0 98 l81 0 l0 -98 l139 0 l0 -71 l-139 0 l0 -84 l-81 0 l0 84 l-208 0 l0 -84 l-81 0 l0 84 l-100 0 l0 71 l100 0 ZM457 27 l311 0 l0 133 l-311 0 l0 -133 ZM613 519 q-61 -81 -138 -144 l286 0 q-85 61 -148 144 Z" /><glyph glyph-name="uni6444" unicode="&#x6444;" d="M938 748 l0 -61 l-92 0 l0 -286 l108 5 l-1 -61 l-107 -5 l0 -53 l-77 0 l0 50 l-447 -19 l-2 29 l-87 -38 l0 -312 q0 -23 -6 -46 q-5 -13 -14 -23 q-14 -12 -33 -17 q-26 -5 -53 -5 l-67 0 l-16 76 l62 0 q12 0 25 3 q9 2 16 8 q11 11 10 29 l0 253 q-55 -25 -109 -50 l-13 83 q61 25 122 51 l0 177 l-104 0 l0 80 l104 0 l0 169 l76 0 l0 -169 l97 0 l0 -80 l-97 0 l0 -143 l75 34 l10 -39 l1 -8 l77 3 l0 304 l-79 0 l0 61 l621 0 ZM532 -50 q88 34 168 86 q-62 67 -96 152 l39 17 l-35 0 l0 62 l302 0 l0 -64 q-36 -97 -108 -169 q74 -48 160 -76 l-31 -66 q-99 35 -181 98 q-85 -62 -181 -103 l-37 63 ZM349 188 q57 -38 113 -79 q35 43 58 96 l-213 0 l0 62 l283 0 l0 -64 q-27 -74 -75 -134 q35 -27 70 -54 l-46 -51 q-34 29 -68 56 q-80 -75 -175 -130 l-45 61 q89 47 166 112 q-53 40 -106 79 l38 46 ZM473 509 l296 0 l0 60 l-296 0 l0 -60 ZM473 628 l296 0 l0 59 l-296 0 l0 -59 ZM473 386 l296 12 l0 53 l-296 0 l0 -65 ZM668 205 q30 -72 83 -128 q55 55 85 128 l-168 0 Z" /><glyph glyph-name="uni6469" unicode="&#x6469;" d="M369 577 l0 54 l67 0 l0 -54 l119 0 l0 -60 l-119 0 l0 -34 l20 27 q51 -33 103 -67 l-18 -27 q78 38 139 101 l-105 0 l0 60 l118 0 l0 54 l67 0 l0 -54 l166 0 l0 -60 l-146 0 q37 -38 82 -65 q47 -30 98 -51 l-32 -51 q-93 43 -168 112 l0 -98 l-67 0 l0 90 q-63 -57 -137 -96 l-30 38 l0 -1 q-45 31 -90 61 l0 -100 l-67 0 l0 92 q-57 -61 -130 -98 l-33 52 l0 -5 q0 -85 -6 -170 q-5 -67 -19 -133 q-25 -107 -78 -205 l-75 43 q28 53 50 106 q19 53 30 108 q9 46 13 92 q6 78 6 157 l0 326 l367 0 l-35 62 l83 24 q23 -43 46 -86 l351 0 l0 -71 l-733 0 l0 -244 q85 41 150 111 l-124 0 l0 60 l137 0 ZM535 108 l0 52 l-286 0 l0 59 l286 0 l0 54 q-147 -6 -293 -10 l-2 57 q311 7 622 29 l8 -58 q-128 -9 -256 -15 l0 -57 l266 0 l0 -59 l-266 0 l0 -52 l333 0 l0 -59 l-333 0 l0 -33 q0 -27 -7 -54 q-7 -21 -24 -34 q-15 -9 -32 -14 q-33 -6 -66 -6 l-109 0 l-14 69 l132 0 q19 -1 32 12 q10 17 9 38 l0 22 l-334 0 l0 59 l334 0 Z" /><glyph glyph-name="uni652F" unicode="&#x652f;" d="M271 381 l-133 0 l0 81 l316 0 l0 126 l-396 0 l0 82 l396 0 l0 128 l90 0 l0 -128 l396 0 l0 -82 l-396 0 l0 -126 l256 0 l0 -81 q-47 -87 -108 -163 q-54 -64 -121 -112 q84 -46 176 -76 q98 -31 200 -52 l-25 -91 q-120 28 -234 71 q-104 38 -197 96 q-93 -51 -192 -88 q-112 -42 -225 -76 l-31 90 q99 26 197 60 q88 31 172 73 q-54 45 -99 99 q-52 64 -93 136 l51 33 ZM300 381 q38 -70 89 -130 q46 -53 102 -94 q131 85 205 224 l-396 0 Z" /><glyph glyph-name="uni6539" unicode="&#x6539;" d="M403 338 l-213 0 l0 -278 l237 107 l14 -87 q-131 -59 -260 -118 q-36 -15 -67 -38 l-44 78 q15 11 26 27 q7 11 7 25 l0 368 l217 0 l0 215 l-236 0 l0 84 l319 0 l0 -309 q60 81 102 174 q50 104 75 217 l88 -19 q-20 -71 -46 -139 l333 0 l0 -84 l-85 0 q-15 -121 -55 -236 q-33 -88 -88 -164 q44 -50 96 -92 q69 -54 145 -97 l-55 -76 q-67 42 -128 91 q-62 49 -114 108 q-51 -53 -110 -96 q-78 -58 -162 -107 l-55 76 q87 45 167 101 q58 42 108 93 q-82 116 -115 254 q-21 -34 -45 -64 l-56 60 l0 -74 ZM565 520 q13 -86 43 -166 q26 -66 66 -124 q45 64 70 138 q31 94 43 193 l-201 0 l-21 -41 Z" /><glyph glyph-name="uni653E" unicode="&#x653e;" d="M295 805 q31 -77 59 -155 l151 0 l0 -84 l-269 0 q-2 -60 -2 -119 q-1 -8 -1 -15 l214 0 l0 -2 q60 88 102 186 q39 88 61 182 l86 -13 q-20 -74 -46 -144 l308 0 l0 -86 l-90 0 q-12 -117 -48 -228 q-29 -86 -78 -161 q41 -52 90 -95 q63 -55 133 -99 l-52 -75 q-127 84 -222 200 q-44 -52 -95 -97 q-66 -56 -138 -106 l-60 68 q76 48 146 106 q53 45 97 98 q-74 118 -104 254 q-20 -30 -41 -58 l-50 54 q-9 -178 -16 -356 q-1 -31 -10 -60 q-6 -15 -17 -29 q-16 -16 -38 -23 q-29 -7 -58 -7 l-90 0 l-16 83 l77 0 q29 -2 53 13 q10 8 15 20 q5 15 7 31 q7 130 14 262 l-137 0 q-4 -76 -13 -151 q-6 -45 -17 -89 q-15 -53 -40 -103 q-28 -54 -62 -106 l-74 48 q36 52 64 109 q19 40 31 82 q16 66 22 133 q8 93 10 187 q2 52 4 106 l-97 0 l0 84 l207 0 q-25 67 -50 135 l80 20 ZM596 520 q10 -82 36 -159 q23 -65 59 -123 q37 63 59 133 q27 90 37 184 l-174 0 l-17 -35 Z" /><glyph glyph-name="uni653F" unicode="&#x653f;" d="M444 456 q55 69 94 149 q46 94 71 196 l82 -14 q-19 -75 -46 -146 l312 0 l0 -85 l-78 0 q-15 -120 -53 -233 q-30 -87 -80 -162 q41 -49 89 -92 q63 -54 133 -100 l-57 -73 q-123 84 -219 196 q-47 -52 -101 -94 q-72 -58 -150 -106 l-61 69 q74 41 142 92 q65 48 119 108 q-82 128 -109 278 q-17 -23 -35 -44 l-53 61 ZM496 708 l0 -80 l-142 0 l0 -221 l115 0 l0 -82 l-115 0 l0 -224 q74 12 148 26 l1 -37 l3 -45 q-229 -38 -456 -80 l-12 84 l66 10 l0 449 l78 0 l0 -436 q47 7 94 16 l0 540 l-206 0 l0 80 l426 0 ZM694 231 q40 64 64 137 q28 92 39 188 l-192 0 l-12 -24 q10 -89 39 -172 q24 -68 62 -129 Z" /><glyph glyph-name="uni6548" unicode="&#x6548;" d="M474 435 q54 88 92 184 q35 85 55 175 l82 -11 q-19 -76 -45 -149 l296 0 l0 -83 l-78 0 q-13 -119 -48 -233 q-28 -85 -74 -161 q39 -51 86 -94 q60 -55 127 -101 l-54 -72 q-66 48 -125 103 q-46 43 -85 93 q-42 -50 -90 -92 q-64 -56 -133 -105 l-57 68 q65 42 126 91 q57 48 105 107 q-75 118 -103 256 q-13 -22 -26 -42 l-51 66 ZM185 335 q54 -56 108 -112 q35 66 58 139 l74 -27 q-29 -91 -76 -172 q62 -69 123 -140 l-65 -55 l-106 123 q-41 -53 -89 -98 q-61 -57 -128 -105 l-53 67 q69 45 130 100 q48 44 86 96 q-60 67 -121 134 l59 50 ZM288 801 q35 -66 65 -133 l-52 -16 l206 0 l0 -84 l-454 0 l0 84 l218 0 q-29 63 -60 125 l77 24 ZM608 516 q12 -84 39 -163 q22 -65 58 -123 q35 64 56 135 q25 91 36 186 l-173 0 l-16 -35 ZM30 321 q43 47 80 100 q44 62 80 130 l68 -38 q-73 -131 -172 -242 l-56 50 ZM356 550 q85 -108 170 -217 l-62 -47 q-82 112 -169 221 l61 43 Z" /><glyph glyph-name="uni655E" unicode="&#x655e;" d="M277 529 l0 268 l74 0 l0 -268 l192 0 l0 -73 q48 84 83 175 q33 81 51 166 l81 -11 q-20 -74 -44 -145 l241 0 l0 -80 l-61 0 q-8 -123 -37 -242 q-22 -85 -63 -161 q74 -106 176 -186 l-56 -69 q-95 83 -165 185 q-34 -45 -73 -86 q-51 -51 -106 -100 l-43 52 q-12 -17 -32 -24 q-31 -10 -62 -9 l-81 0 l-16 77 l76 0 q15 0 30 2 q11 3 19 11 q6 6 8 14 q4 14 4 30 l0 396 l-318 0 l0 -535 l-71 0 l0 613 l193 0 ZM414 360 l0 -299 l-201 0 l0 299 l201 0 ZM543 35 q0 -26 -5 -51 q53 43 100 93 q36 38 67 82 q-65 124 -87 263 l-28 -47 l-47 45 l0 -385 ZM669 526 q9 -85 31 -167 q18 -65 49 -125 q29 64 45 132 q21 96 30 195 l-140 0 l-15 -35 ZM124 761 q63 -79 124 -159 l-61 -45 q-58 82 -121 160 l58 44 ZM381 602 q66 75 123 159 l59 -41 q-60 -85 -125 -164 l-57 46 ZM274 136 l80 0 l0 150 l-80 0 l0 -150 Z" /><glyph glyph-name="uni6570" unicode="&#x6570;" d="M96 114 q26 41 50 85 l-99 0 l0 67 l133 0 q18 36 32 74 l76 -20 q-10 -28 -22 -54 l223 0 l0 -64 q-35 -83 -98 -146 q45 -22 91 -43 l-24 -41 q65 43 124 95 q45 41 82 90 q-69 119 -92 256 l-27 -46 l-57 63 q49 78 85 163 q41 98 65 201 l79 -14 q-18 -74 -43 -144 l275 0 l0 -83 l-75 0 q-11 -122 -43 -239 q-25 -85 -72 -161 q35 -49 79 -91 q56 -55 119 -101 l-52 -68 q-61 48 -116 103 q-43 42 -78 91 q-40 -48 -87 -88 q-61 -55 -127 -103 l-48 61 l-6 -11 q-59 32 -118 60 q-56 -35 -116 -60 q-69 -28 -140 -51 l-36 70 q65 19 129 42 q44 16 86 37 q-76 36 -152 70 ZM261 583 l0 205 l75 0 l0 -205 l186 0 l0 -68 l-186 0 l0 -71 l41 48 q72 -57 143 -115 l-44 -52 q-70 57 -140 114 l0 -102 l-75 0 l0 112 q-88 -90 -199 -148 l-34 65 q118 56 212 149 l-189 0 l0 68 l210 0 ZM627 520 q9 -85 33 -167 q18 -64 50 -123 q33 64 52 134 q25 93 35 189 l-156 0 q-7 -17 -14 -33 ZM234 199 q-15 -31 -32 -59 q59 -25 118 -51 q55 44 84 110 l-170 0 ZM371 636 q48 64 95 131 l57 -36 q-48 -68 -98 -133 l-54 38 ZM130 768 q47 -65 93 -130 l-57 -35 q-42 66 -88 130 l52 35 Z" /><glyph glyph-name="uni6574" unicode="&#x6574;" d="M260 734 l0 66 l73 0 l0 -66 l192 0 l0 -60 l-192 0 l0 -55 l164 0 l0 -166 l-164 0 l0 -43 l27 40 q78 -43 156 -88 q84 33 158 86 q-48 51 -76 116 q-23 -32 -50 -58 l-44 60 q45 48 78 105 q38 65 63 137 l77 -15 q-17 -44 -37 -86 l267 0 l0 -66 l-67 0 q-16 -59 -44 -113 q-24 -44 -57 -80 q84 -57 180 -92 l-37 -69 q-60 24 -117 56 q-43 24 -81 55 q-38 -30 -78 -53 q-55 -32 -112 -58 l-34 53 l-23 -36 q-75 45 -149 90 l0 -103 l-73 0 l0 112 q-83 -76 -183 -125 l-40 55 q52 23 101 53 q47 29 88 67 l-131 0 l0 166 l165 0 l0 55 l-195 0 l0 60 l195 0 ZM876 266 l0 -66 l-328 0 l0 -71 l287 0 l0 -65 l-287 0 l0 -73 l387 0 l0 -67 l-873 0 l0 67 l140 0 l0 162 l82 0 l0 -162 l178 0 l0 209 l-341 0 l0 66 l755 0 ZM727 495 q57 63 81 146 l-158 0 q-5 -7 -8 -14 q28 -76 85 -132 ZM162 505 l98 0 l0 62 l-98 0 l0 -62 ZM333 567 l0 -62 l97 0 l0 62 l-97 0 Z" /><glyph glyph-name="uni6587" unicode="&#x6587;" d="M480 648 q-32 68 -63 137 l83 31 q35 -74 70 -147 l-52 -21 l416 0 l0 -81 l-161 0 q-31 -122 -91 -233 q-48 -88 -119 -159 q74 -55 159 -95 q115 -53 237 -88 l-37 -90 q-131 45 -253 106 q-90 46 -169 109 q-79 -63 -168 -110 q-122 -62 -251 -110 l-41 88 q122 40 238 96 q82 40 156 95 q-71 71 -121 159 q-60 110 -93 232 l-157 0 l0 81 l417 0 ZM498 231 q62 61 104 137 q51 94 77 199 l-368 0 q27 -105 80 -199 q44 -76 107 -137 Z" /><glyph glyph-name="uni65B0" unicode="&#x65b0;" d="M185 628 l-111 0 l0 72 l191 0 l-42 92 l77 21 q26 -57 51 -113 l163 0 l0 -72 l-116 0 l56 -18 q-28 -68 -59 -133 l139 0 l0 -73 l-199 0 l0 -105 l186 0 l0 -73 l-186 0 l0 -218 q0 -24 -6 -48 q-6 -17 -20 -29 q-13 -8 -27 -12 q-29 -5 -57 -5 l-59 0 l-16 78 l51 0 q16 0 33 3 q7 1 14 5 q6 6 7 15 q2 14 2 29 l0 182 l-198 0 l0 73 l198 0 l0 105 l-210 0 l0 73 l141 0 q-31 64 -62 128 l59 23 ZM444 -73 q37 49 66 103 q18 39 30 79 q16 61 21 124 q6 82 6 165 l0 305 q96 9 191 29 q75 15 147 40 l26 -78 q-140 -50 -286 -65 l0 -163 l311 0 l0 -78 l-108 0 l0 -481 l-79 0 l0 481 l-124 0 l0 -7 q0 -84 -6 -168 q-5 -65 -21 -128 q-12 -44 -31 -84 q-28 -58 -65 -112 l-78 38 ZM316 477 q36 74 68 151 l-193 0 q34 -66 65 -132 l-44 -19 l104 0 ZM29 -7 q71 99 115 213 l67 -25 q-49 -119 -121 -223 l-61 35 ZM413 202 q53 -70 103 -141 l-58 -43 q-49 74 -101 146 l56 38 Z" /><glyph glyph-name="uni65B9" unicode="&#x65b9;" d="M479 662 q-26 60 -51 120 l84 27 q32 -73 63 -147 l371 0 l0 -82 l-550 0 l-6 -126 q-2 -11 -1 -21 l433 0 q-11 -177 -23 -352 q-3 -40 -17 -78 q-9 -20 -24 -36 q-24 -20 -55 -28 q-42 -8 -84 -8 l-163 0 l-17 83 l148 0 q31 -1 62 4 q16 4 30 12 q16 11 24 30 q8 25 10 51 l17 240 l-349 0 q-9 -72 -30 -141 q-21 -64 -56 -121 q-30 -45 -65 -85 q-58 -60 -124 -113 l-63 70 q69 52 128 115 q35 40 61 87 q33 63 48 132 q17 84 22 170 q3 57 5 115 l-250 0 l0 82 l422 0 Z" /><glyph glyph-name="uni65C5" unicode="&#x65c5;&#xf983;" d="M28 -62 q30 56 54 112 q21 53 33 109 q9 46 13 94 q6 80 6 162 q-1 79 1 159 l-80 0 l0 79 l176 0 q-28 65 -60 129 l76 29 q34 -67 64 -136 l-70 -22 l177 0 l0 -79 l-200 0 q0 -64 -1 -127 l174 0 q-5 -214 -10 -426 q-1 -23 -8 -46 q-7 -17 -22 -28 q-13 -9 -28 -12 q-27 -6 -54 -6 l-69 0 l-17 76 l58 0 q13 -1 26 2 q13 3 23 11 q8 9 11 20 q4 13 5 27 q6 151 10 304 l-100 0 q-3 -78 -12 -155 q-6 -48 -16 -95 q-27 -115 -86 -217 l-74 36 ZM440 -29 q15 9 26 24 q8 12 9 28 l0 453 q210 20 412 83 l27 -72 q-98 -34 -198 -53 q9 -78 30 -153 q83 47 163 100 l41 -70 q-88 -55 -178 -104 q26 -63 68 -116 q53 -64 122 -110 l-57 -68 q-104 77 -168 187 q-37 68 -58 142 q-25 87 -37 178 q-45 -8 -89 -13 l0 -388 q75 27 151 57 l9 -82 q-94 -32 -187 -67 q-28 -10 -52 -25 l-34 69 ZM381 507 q51 59 90 128 q45 80 75 168 l84 -17 q-17 -46 -35 -90 l350 0 l0 -78 l-389 0 q-47 -86 -110 -160 l-65 49 Z" /><glyph glyph-name="uni65D7" unicode="&#x65d7;" d="M481 158 l0 330 l-76 0 l0 63 l76 0 l0 57 q-18 -22 -36 -42 l-58 41 l0 -27 l-184 0 q-1 -64 -1 -126 l169 0 q-6 -211 -10 -422 q-1 -25 -9 -48 q-6 -13 -16 -23 q-14 -13 -33 -18 q-25 -6 -49 -6 l-66 0 l-17 72 l57 0 q15 -1 30 2 q8 2 15 7 q8 7 11 16 q4 13 5 27 q6 158 9 318 l-97 0 q-2 -84 -9 -166 q-6 -49 -15 -98 q-24 -113 -81 -214 l-68 36 q28 53 50 107 q14 38 24 77 q12 61 17 123 q7 86 10 173 q1 81 3 163 l-78 0 l0 75 l164 0 q-25 65 -56 127 l78 24 q30 -66 58 -133 l-56 -18 l145 0 l0 -41 q80 83 126 190 l73 -22 q-15 -33 -32 -64 l396 0 l0 -70 l-440 0 q-13 -19 -27 -36 l76 0 l0 -61 l215 0 l0 61 l77 0 l0 -61 l84 0 l0 -63 l-84 0 l0 -330 l104 0 l0 -67 l-564 0 l0 67 l90 0 ZM369 -40 q115 51 219 124 l40 -62 q-109 -69 -223 -130 l-36 68 ZM743 82 q108 -63 215 -130 l-41 -64 q-104 71 -212 133 l38 61 ZM559 419 l215 0 l0 69 l-215 0 l0 -69 ZM559 288 l215 0 l0 68 l-215 0 l0 -68 ZM559 158 l215 0 l0 67 l-215 0 l0 -67 Z" /><glyph glyph-name="uni65E0" unicode="&#x65e0;" d="M413 463 q4 44 8 89 q1 53 3 106 l-301 0 l0 80 l753 0 l0 -80 l-362 0 q-2 -57 -3 -113 q-2 -42 -6 -82 l430 0 l0 -80 l-443 0 q-27 -140 -112 -255 q-52 -67 -117 -122 q-77 -61 -162 -114 l-57 77 q76 43 145 96 q58 46 105 103 q76 96 104 215 l-333 0 l0 80 l348 0 ZM591 349 l0 -270 q-1 -18 4 -35 q3 -9 10 -17 q9 -10 22 -13 q16 -5 34 -4 l100 0 q20 -1 39 3 q11 3 20 9 q10 8 14 21 q5 17 6 35 q2 65 3 132 l83 -17 l-6 -150 q-1 -30 -10 -56 q-7 -16 -19 -28 q-19 -16 -43 -21 q-33 -7 -67 -7 l-149 0 q-31 0 -61 8 q-23 6 -41 23 q-16 20 -22 44 q-5 24 -4 49 l0 294 l87 0 Z" /></font>
</defs>
</svg>
