<svg height="32" viewBox="0 0 32 32" width="32" xmlns="http://www.w3.org/2000/svg"><path d="m16 14.6689755 3.3275613-3.3275614c.3675523-.3675522.9634723-.3675522 1.3310246 0 .3675522.3675523.3675522.9634723 0 1.3310246l-3.3275614 3.3275613 3.3275614 3.3275613c.3675522.3675523.3675522.9634723 0 1.3310246-.3675523.3675522-.9634723.3675522-1.3310246 0l-3.3275613-3.3275614-3.3275613 3.3275614c-.3675523.3675522-.9634723.3675522-1.3310246 0-.3675522-.3675523-.3675522-.9634723 0-1.3310246l3.3275614-3.3275613-3.3275614-3.3275613c-.3675522-.3675523-.3675522-.9634723 0-1.3310246.3675523-.3675522.9634723-.3675522 1.3310246 0zm-11.3137085 12.644733c-6.24838867-6.2483887-6.24838867-16.3790283 0-22.627417 6.2483887-6.24838867 16.3790283-6.24838867 22.627417 0 6.2483887 6.2483887 6.2483887 16.3790283 0 22.627417s-16.3790283 6.2483887-22.627417 0zm1.33102453-1.3310245c5.51328407 5.5132841 14.45208387 5.5132841 19.96536797 0s5.5132841-14.4520839 0-19.96536797c-5.5132841-5.51328412-14.4520839-5.51328412-19.96536797 0-5.51328412 5.51328407-5.51328412 14.45208387 0 19.96536797z" fill="#fff"/></svg>